<svg height="512pt" viewBox="0 0 512 512.1611" width="512pt" xmlns="http://www.w3.org/2000/svg"><path d="m394.492188 443.722656-.171876.171875c0 23.808594-52.90625 59.734375-138.238281 59.734375-5.890625 0-11.519531-.171875-17.066406-.511718-70.914063-4.097657-115.714844-33.367188-120.664063-55.210938-.332031-1.3125-.503906-2.660156-.511718-4.011719l-.171875-.171875c4.425781 1.578125 9 2.695313 13.65625 3.328125 29.4375 4.011719 69.886719-6.484375 112.210937-9.042969 5.71875-.34375 11.4375-.511718 17.238282-.511718 33.023437 0 62.292968 6.570312 87.550781 9.300781 3.925781.425781 7.765625.765625 11.4375.9375 11.730469 1.085937 23.554687-.28125 34.730469-4.011719zm0 0" fill="#cad9fc"/><path d="m360.359375 443.722656-.171875.171875c-.015625 1.289063-.160156 2.578125-.425781 3.839844-4.78125 21.929687-49.664063 51.285156-120.746094 55.382813-70.914063-4.097657-115.714844-33.367188-120.664063-55.210938 4.183594-.171875 8.535157-.511719 12.972657-.855469 28.328125-2.730469 61.609375-9.554687 95.316406-9.554687 5.6875 0 11.320313.167968 16.894531.511718 41.644532 2.644532 76.800782 13.394532 104.789063 8.789063 4.113281-.582031 8.148437-1.609375 12.035156-3.074219zm0 0" fill="#e8edfc"/><path d="m497.914062 298.742188c-21.589843 58.625-57 103.082031-103.421874 144.980468-33.109376 12.375-61.613282 27.734375-138.410157 27.734375-6.144531 0-12.035156-.085937-17.582031-.257812-68.433594-2.046875-90.195312-16.039063-120.832031-27.476563-46.335938-41.898437-81.746094-86.269531-103.335938-144.808594 8.363281 11.859376 25.515625-53.929687 49.238281-44.886718 5.5625 1.332031 11.429688.476562 16.382813-2.390625 5.851563-3.21875 12.589844-4.445313 19.199219-3.496094.171875.085937.425781.085937.597656.167969 7.9375 2.050781 16.214844 3.84375 24.917969 5.546875 8.703125 1.707031 17.492187-22.269531 26.792969-20.992188 8.53125.480469 17.082031-.382812 25.34375-2.558593h.171874c5.246094-1.078126 10.609376-1.480469 15.957032-1.195313 7.425781.511719 14.933594 1.023437 22.527344 1.453125 4.269531.253906 8.621093.425781 13.058593.511719 3.667969.167969 7.335938.253906 11.007813.253906 5.460937.171875 11.007812.257813 16.554687.257813 3.667969 0 7.25 0 10.835938-.085938 10.15625-.085938 20.136719-.425781 29.953125-.9375 4.863281-.257812 9.726562-.511719 14.503906-.855469 18.347656-1.363281 36.011719 5.207031 52.566406 2.730469 8.789063-1.363281 17.410156 7.082031 25.601563 12.886719 3.894531 3.667969 9.171875 5.5 14.503906 5.035156h.085937c3.328126-.769531 6.488282-1.535156 9.644532-2.304687 4.863281-1.28125 9.554687-2.644532 14.078125-4.011719 12.117187-3.582031 23.125 9.386719 32.683593 5.035156 17.664063-8.105469 30.550782 59.5625 37.375 49.664063zm0 0" fill="#cad9fc"/><path d="m463.78125 298.742188c-21.589844 58.625-57.003906 103.082031-103.421875 144.980468-30.636719 11.4375-57.261719 25.429688-121.859375 27.476563-68.433594-2.046875-90.195312-16.039063-120.832031-27.476563-46.335938-41.898437-81.746094-86.269531-103.335938-144.808594 8.363281 11.859376 25.515625-53.929687 49.238281-44.886718 5.5625 1.332031 11.429688.476562 16.382813-2.390625 3.414063.769531 6.996094 1.539062 10.582031 2.21875 3.070313.597656 6.144532-1.960938 9.214844-5.546875 5.71875-6.484375 11.519531-16.296875 17.578125-15.445313 13.226563 1.964844 27.050781-4.949219 41.472656-3.753906 5.972657.425781 11.945313.855469 18.003907 1.195313h.171874l4.351563.257812c4.265625.253906 8.617187.425781 13.054687.511719 9.046876.339843 18.261719.511719 27.5625.511719 3.671876 0 7.253907 0 10.839844-.085938 2.304688 0 4.523438-.085938 6.742188-.171875 12.96875-.167969 25.511718-.851563 37.714844-1.621094 6.554687-.359375 13.128906-.070312 19.628906.855469 10.84375 2.089844 21.921875 2.71875 32.9375 1.875 14.164062-2.132812 27.648437 20.90625 40.105468 17.921875h.085938c6.828125-1.535156 13.3125-3.242187 19.542969-5.035156 1.363281-.425781 2.816406-.855469 4.179687-1.28125 6.949219-1.042969 14.042969.378906 20.054688 4.011719 3.90625 2.007812 8.449218 2.375 12.628906 1.023437 17.664062-8.105469 30.550781 59.5625 37.375 49.664063zm0 0" fill="#e8edfc"/><path d="m305.488281 206.496094-10.648437 59.222656c-9.527344-.003906-19.039063.734375-28.449219 2.21875-19.289063 0-28.929687 6.921875-42.847656 18.269531-2.902344.171875-20.582031-.664062-23.484375-.410156-12.203125-11.519531-13.796875-18.773437-31.980469-18.773437-27.128906 0-43.921875-.109376-54.929687 22.757812-25.601563 9.386719-28.621094 15.820312-28.621094 28.621094 0 3.671875-23.433594 9.027344-20.957032 12.441406-23.722656-9.042969-40.875-20.050781-49.238281-31.914062v-.101563c-.085937-.085937-.085937-.085937-.085937-.171875-3.5625-4.726562-5.535156-10.464844-5.632813-16.382812 0-42.667969 110.761719-77.3125 247.46875-77.3125 16.894531 0 33.449219.511718 49.40625 1.535156zm0 0" fill="#cad9fc"/><path d="m503.546875 282.273438c-.097656 5.917968-2.066406 11.65625-5.632813 16.382812v.085938c-9.917968 12.109374-22.789062 21.453124-37.375 27.136718-.542968-6.417968-1.949218-12.734375-4.179687-18.773437-1.554687-4.484375-3.554687-8.800781-5.976563-12.886719-13.738281-23.59375-39-38.089844-66.300781-38.058594-4.5-.042968-8.945312.980469-12.972656 2.988282-8.449219 5.402343-16.464844 11.449218-23.976563 18.089843h-3.757812c-5.628906-.769531 1.453125 6.230469-4.4375 5.546875l-13.308594.425782c-.769531 0-11.691406-1.449219-11.777344-1.449219-.597656-.511719-2.304687-2.390625-4.351562-4.523438-2.902344-3.242187-6.484375-7.167969-7.425781-7.851562l57.257812-51.371094 5.632813-5.117187c82.089844 12.542968 138.582031 38.910156 138.582031 69.375zm0 0" fill="#a4c2f7"/><path d="m469.414062 282.273438c-.097656 5.917968-2.066406 11.65625-5.632812 16.382812v.085938c-2.136719 3.070312-4.628906 5.878906-7.421875 8.363281-8.941406 7.789062-19.046875 14.121093-29.953125 18.773437-.996094-11.175781-4.464844-21.988281-10.15625-31.660156-9.941406-17.089844-26.121094-29.660156-45.140625-35.070312-6.875-2-14-3.003907-21.164063-2.988282-16.296874 0-24.574218 12.375-36.949218 21.078125h-3.496094c-2.902344-3.242187-6.484375-7.167969-7.425781-7.851562l57.257812-51.371094c66.390625 13.824219 110.082031 37.460937 110.082031 64.257813zm0 0" fill="#cad9fc"/><path d="m344.402344 210.082031-10.667969 65.007813-35.523437-27.460938 25.113281-39.765625c7.167969.597657 14.164062 1.363281 21.078125 2.21875zm0 0" fill="#cad9fc"/><path d="m94.03125 319.136719c.324219 7.867187 2.058594 15.613281 5.121094 22.871093-12.089844-2.953124-23.976563-6.6875-35.582032-11.179687-2.363281-3.0625-3.679687-6.800781-3.757812-10.667969 0-12.800781 15.277344-24.488281 40.875-33.875-4.460938 9.230469-6.765625 19.355469-6.742188 29.609375 0 1.109375 0 2.21875.085938 3.242188zm0 0" fill="#7facfa"/><path d="m217.851562 265.71875c-1.777343 1.363281-3.460937 2.84375-5.035156 4.4375-1.132812-1.363281-2.359375-2.644531-3.667968-3.839844 2.898437-.257812 5.800781-.425781 8.703124-.597656zm0 0" fill="#cb8252"/><path d="m340.21875 269.984375-1.792969 1.28125h-.082031c-.085938 0-.085938 0-.257812.253906-2.355469 1.742188-4.578126 3.652344-6.65625 5.71875h-.085938c-2.578125-3.304687-5.464844-6.363281-8.617188-9.128906-.085937-.085937-.171874-.171875-.257812-.171875.085938 0 .257812.085938.429688 0h.082031c5.890625.597656 11.605469 1.28125 17.238281 2.046875zm0 0" fill="#cb8252"/><path d="m212.816406 314.101562c-2.222656 8.078126-3.929687 16.285157-5.121094 24.578126 0 9.984374-18.089843 9.554687-14.761718 18.429687-3.242188-.253906-6.484375-.597656-9.726563-.9375-7.9375-.683594-15.703125-1.621094-23.296875-2.730469-2.816406-.257812-5.632812-.683594-8.449218-1.109375-2.816407-.425781-5.632813-.769531-8.445313-1.28125-3.414063-.511719-6.742187-1.109375-9.984375-1.707031v-.082031c-2.816406-.429688-5.632812-.941407-8.363281-1.539063-2.902344-.597656-5.804688-1.109375-8.621094-1.789062-5.800781-1.195313-11.433594-2.476563-16.894531-3.925782-3.0625-7.257812-4.796875-15.003906-5.121094-22.871093-.085938-1.023438-.085938-2.132813-.085938-3.242188-.023437-10.253906 2.28125-20.378906 6.742188-29.609375 5.175781-10.714844 13.058594-19.890625 22.871094-26.625 11.347656-7.875 24.839844-12.078125 38.65625-12.03125 17.457031-.003906 34.253906 6.683594 46.933594 18.6875 1.308593 1.195313 2.535156 2.476563 3.667968 3.839844-11.859375 11.261719 3.242188 27.222656 0 43.945312zm0 0" fill="#cad9fc"/><path d="m195.75 322.636719c-2.222656 8.074219-3.929688 16.285156-5.121094 24.574219 0 4.523437-3.667968 6.914062-7.421875 8.960937-7.9375-.683594-15.703125-1.621094-23.296875-2.730469-2.816406-.257812-5.632812-.683594-8.449218-1.109375-2.816407-.425781-5.632813-.769531-8.445313-1.28125-3.414063-.511719-6.742187-1.109375-9.984375-1.707031v-.082031c-2.816406-.429688-5.632812-.941407-8.363281-1.539063-2.902344-.597656-5.804688-1.109375-8.621094-1.789062-5.800781-1.195313-11.433594-2.476563-16.894531-3.925782-3.0625-7.257812-4.796875-15.003906-5.121094-22.871093-.085938-1.023438-.085938-2.132813-.085938-3.242188-.023437-10.253906 2.28125-20.378906 6.742188-29.609375 5.175781-10.714844 13.058594-19.890625 22.871094-26.625 6.957031-2.34375 14.25-3.523437 21.589844-3.5 17.457031 0 34.253906 6.6875 46.933593 18.6875 1.308594 1.195313 2.535157 2.480469 3.667969 3.839844-11.863281 11.265625 3.242188 27.222656 0 43.949219zm0 0" fill="#e8edfc"/><path d="m333.734375 334.667969c0 8.703125-24.976563 15.359375-22.332031 23.039062-11.605469.769531-23.636719 1.367188-35.925782 1.621094-2.816406.085937-5.632812.171875-8.53125.171875-2.902343 0-5.71875.085938-8.707031.085938h-2.15625c-6.402343 0-12.714843-.085938-19.03125-.34375-2.902343 0-5.71875-.082032-8.53125-.167969-2.988281-.085938-5.890625-.171875-8.789062-.34375-1.453125 0-2.816407-.085938-4.269531-.167969-7.59375-.429688-15.101563-.941406-22.527344-1.453125-3.402344-9.085937-5.136719-18.710937-5.121094-28.414063-.011719-5.246093.503906-10.476562 1.539062-15.617187 3.160157-16.402344 11.363282-31.40625 23.464844-42.921875 1.574219-1.59375 3.257813-3.074219 5.035156-4.4375 19.722657-16.015625 45.828126-21.832031 70.484376-15.703125l-14.589844 37.121094c-.839844 2.105469-.808594 4.457031.085937 6.539062.898438 2.078125 2.585938 3.71875 4.691407 4.554688 1.003906.402343 2.074218.605469 3.15625.597656 3.496093.003906 6.644531-2.128906 7.9375-5.375l12.714843-32.34375c.363281 1.621094 1.226563 3.085937 2.472657 4.183594 1.648437 1.550781 3.847656 2.378906 6.105468 2.296875 2.261719-.078125 4.394532-1.0625 5.925782-2.726563l.855468-.851562c1.621094 1.195312 3.242188 2.558593 4.777344 3.925781.085938 0 .171875.085938.257812.171875 3.152344 2.765625 6.039063 5.824219 8.617188 9.128906-10.921875 10.238281 5.230469 25.683594 1.902344 40.960938-1.277344 5.375-25.964844 8.960937-25.964844 14.675781zm0 0" fill="#cad9fc"/><path d="m460.539062 325.878906c-7.929687 3.570313-16.046874 6.703125-24.320312 9.386719-2.730469.9375-5.546875 1.792969-8.363281 2.644531-2.644531.855469-5.375 1.621094-8.191407 2.390625-2.390624.683594-4.777343 1.363281-7.253906 1.960938-2.730468.683593-5.460937 1.367187-8.277344 1.964843h-.085937c-2.8125.679688-5.628906 1.363282-8.617187 1.875-7.421876 1.707032-15.105469 3.160157-23.125 4.4375-2.730469.511719-5.546876.9375-8.363282 1.367188-2.816406.425781-5.632812.851562-8.53125 1.195312-14.082031 1.960938-28.84375 3.496094-44.035156 4.605469-.277344-.722656-.503906-1.464843-.679688-2.21875-2.28125-7.289062-3.429687-14.886719-3.414062-22.527343v-.085938c-.027344-5.601562.601562-11.183594 1.875-16.640625 3.273438-14.945313 11.011719-28.546875 22.1875-38.996094h.085938c2.078124-2.066406 4.300781-3.976562 6.65625-5.71875.171874-.253906.171874-.253906.257812-.253906h.082031l1.792969-1.28125h.085938c9.253906-6.539063 19.878906-10.886719 31.0625-12.714844 4.195312-.761719 8.449218-1.132812 12.714843-1.109375 27.300781-.03125 52.5625 14.464844 66.300781 38.058594 5.691407 9.671875 9.160157 20.484375 10.15625 31.660156zm0 0" fill="#cad9fc"/><path d="m434.9375 325.878906c-7.925781 3.570313-16.046875 6.703125-24.316406 9.386719-2.734375.9375-5.546875 1.792969-8.363282 2.644531-2.648437.855469-5.378906 1.621094-8.191406 2.390625-2.390625.683594-4.78125 1.363281-7.253906 1.960938-2.730469.683593-5.460938 1.367187-8.277344 1.964843h-.085937c-2.816407.679688-5.632813 1.363282-8.621094 1.875-7.421875 1.707032-15.101563 3.160157-23.125 4.4375-2.730469.511719-5.546875.9375-8.359375 1.367188-2.816406.425781-5.632812.851562-8.535156 1.195312-6.230469.851563-12.628906 1.621094-19.113282 2.386719-2.28125-7.289062-3.429687-14.886719-3.414062-22.527343v-.085938c-.027344-5.601562.601562-11.183594 1.875-16.640625 3.273438-14.945313 11.011719-28.546875 22.1875-38.996094h.085938c2.078124-2.066406 4.300781-3.976562 6.65625-5.71875.171874-.253906.171874-.253906.257812-.253906h.082031l1.792969-1.28125h.085938c9.253906-6.539063 19.878906-10.886719 31.0625-12.714844 22.410156 3.765625 41.988281 17.308594 53.417968 36.949219 5.691406 9.671875 9.160156 20.484375 10.152344 31.660156zm0 0" fill="#e8edfc"/><path d="m14.332031 298.828125v.085937c21.589844 58.539063 57 102.910157 103.335938 144.808594l.171875.171875c.007812 1.351563.179687 2.699219.511718 4.011719 4.949219 21.84375 49.75 51.113281 120.664063 55.210938 5.546875.339843 11.175781.511718 17.066406.511718 4.667969 0 9.1875-.15625 13.652344-.359375-1.707031-.070312-3.464844-.050781-5.121094-.152343-70.910156-4.097657-115.710937-33.367188-120.660156-55.210938-.332031-1.3125-.503906-2.660156-.511719-4.011719l-.171875-.171875c-46.335937-41.898437-81.75-86.269531-103.339843-144.808594v-.085937c-.082032-.085937-.082032-.085937-.082032-.171875-3.566406-4.726562-5.539062-10.464844-5.632812-16.382812 0-41.070313 102.648437-74.691407 232.257812-77.148438-3.472656-.054688-6.886718-.164062-10.390625-.164062-136.707031 0-247.46875 34.644531-247.46875 77.3125.097657 5.917968 2.070313 11.65625 5.632813 16.382812 0 .085938 0 .085938.085937.171875zm0 0" fill="#fff"/><path d="m.0820312 282.273438c.6484378-11.671876 6.0273438-22.570313 14.8906248-30.191407 7.421875-6.800781 15.75-12.542969 24.746094-17.066406 17.136719-8.5 35.132812-15.144531 53.683594-19.816406 53.226562-13.035157 107.878906-19.34375 162.679687-18.769531v17.066406c-53.316406-.5625-106.492187 5.550781-158.285156 18.199218-17.335937 4.367188-34.160156 10.566407-50.1875 18.492188-7.558594 3.777344-14.570313 8.566406-20.835937 14.234375-5.457032 4.429687-8.921876 10.855469-9.625 17.851563zm0 0" fill="#fff"/><g fill="#428dff"><path d="m32.609375 249.054688c-1.308594-1.96875-3.394531-3.277344-5.730469-3.605469-2.335937-.324219-4.703125.363281-6.496094 1.898437-5.222656 3.988282-9.792968 8.769532-13.542968 14.164063-4.261719 6.097656-6.613282 13.324219-6.7578128 20.761719h17.0664068c1.222656-8.875 6.300781-16.761719 13.875-21.546876 3.367187-2.949218 4.046874-7.933593 1.585937-11.671874zm0 0"/><path d="m256.082031 213.496094v-17.066406c-54.800781-.574219-109.453125 5.734374-162.679687 18.769531-2.808594.777343-5.625 1.476562-8.414063 2.339843-2.203125.621094-4.058593 2.109376-5.144531 4.121094-1.089844 2.011719-1.3125 4.382813-.625 6.5625 1.421875 4.417969 6.070312 6.933594 10.546875 5.699219 2.644531-.851563 5.359375-1.492187 8.03125-2.234375 51.792969-12.644531 104.96875-18.757812 158.285156-18.191406zm0 0"/><path d="m51.835938 229.316406c-2.136719.9375-3.828126 2.667969-4.710938 4.828125l-.402344 1.621094c-.078125.566406-.078125 1.140625 0 1.707031-.027344.546875.027344 1.09375.164063 1.621094.164062.550781.363281 1.089844.597656 1.613281 1.023437 1.996094 2.730469 3.554688 4.8125 4.394531 1.035156.34375 2.117187.511719 3.207031.496094 3.316406-.105468 6.273438-2.121094 7.578125-5.171875.394531-1.042969.59375-2.144531.589844-3.261719.101563-2.894531-1.308594-5.636718-3.722656-7.238281-2.410157-1.601562-5.484375-1.835937-8.113281-.617187zm0 0"/><path d="m256.082031 368.117188c-13.9375 0-27.742187-.347657-41.0625-1.03125-7.679687-.433594-15.207031-.945313-22.675781-1.460938-32.152344-2.429688-64.042969-7.566406-95.332031-15.359375-12.421875-3.039063-24.632813-6.878906-36.558594-11.492187-26.058594-9.992188-43.980469-21.828126-53.222656-35.167969-.171875-.253907-.332031-.515625-.476563-.785157-4.265625-6.007812-6.597656-13.175781-6.6718748-20.546874 0-4.714844 3.8203128-8.535157 8.5312498-8.535157 4.714844 0 8.535157 3.820313 8.535157 8.535157.105468 4.144531 1.527343 8.152343 4.0625 11.433593.175781.257813.339843.519531.492187.792969 5.230469 7.1875 17.265625 17.75 44.921875 28.347656 11.277344 4.371094 22.832031 8 34.585938 10.863282 30.335937 7.554687 61.257812 12.535156 92.429687 14.882812 7.273437.503906 14.738281 1.015625 22.300781 1.433594 12.976563.675781 26.496094 1.015625 40.105469 1.015625 4.710937 0 8.53125 3.820312 8.53125 8.535156 0 4.710937-3.820313 8.53125-8.53125 8.53125zm0 0"/><path d="m256.082031 512.160156c-86.496093 0-146.773437-35.976562-146.773437-68.265625 0-4.714843 3.820312-8.535156 8.53125-8.535156 4.714844 0 8.535156 3.820313 8.535156 8.535156 0 15.308594 44.125 51.199219 129.707031 51.199219 4.710938 0 8.53125 3.820312 8.53125 8.535156 0 4.710938-3.820312 8.53125-8.53125 8.53125zm0 0"/><path d="m117.839844 452.429688c-2.109375 0-4.144532-.785157-5.707032-2.203126-53.042968-47.882812-85.710937-93.722656-105.890624-148.625-1.550782-4.402343.722656-9.234374 5.105468-10.84375 4.378906-1.609374 9.238282.597657 10.910156 4.957032 19.183594 52.171875 50.425782 95.914062 101.300782 141.847656 2.617187 2.367188 3.511718 6.101562 2.242187 9.394531-1.265625 3.296875-4.429687 5.46875-7.960937 5.472657zm0 0"/><path d="m256.082031 368.117188c-4.714843 0-8.535156-3.820313-8.535156-8.53125 0-4.714844 3.820313-8.535157 8.535156-8.535157 140.796875 0 238.933594-36.238281 238.933594-68.777343 0-32.539063-98.136719-68.777344-238.933594-68.777344-4.714843 0-8.535156-3.820313-8.535156-8.535156 0-4.710938 3.820313-8.53125 8.535156-8.53125 124.097657 0 256 30.085937 256 85.84375 0 55.757812-131.902343 85.84375-256 85.84375zm0 0"/><path d="m256.082031 512.160156c-4.714843 0-8.535156-3.820312-8.535156-8.53125 0-4.714844 3.820313-8.535156 8.535156-8.535156 85.578125 0 129.707031-35.890625 129.707031-51.199219 0-4.714843 3.820313-8.535156 8.53125-8.535156 4.714844 0 8.535157 3.820313 8.535157 8.535156 0 32.289063-60.28125 68.265625-146.773438 68.265625zm0 0"/><path d="m394.320312 452.429688c-3.53125 0-6.699218-2.171876-7.96875-5.46875-1.269531-3.292969-.378906-7.03125 2.242188-9.398438 50.875-45.917969 82.117188-89.667969 101.300781-141.847656 1.671875-4.359375 6.53125-6.566406 10.910157-4.957032 4.382812 1.609376 6.65625 6.441407 5.105468 10.84375-20.199218 54.921876-52.847656 100.753907-105.878906 148.625-1.566406 1.417969-3.601562 2.203126-5.710938 2.203126zm0 0"/><path d="m256.082031 478.027344c-64.640625 0-120.714843-22.613282-147.628906-33.484375l-2.710937-1.09375c-2.832032-1.136719-4.839844-3.695313-5.269532-6.714844-.429687-3.019531.785156-6.035156 3.183594-7.917969 2.398438-1.882812 5.621094-2.339844 8.449219-1.203125l2.730469 1.101563c25.90625 10.46875 79.914062 32.246094 141.246093 32.246094 61.328125 0 115.335938-21.777344 141.285157-32.246094l2.730468-1.101563c4.375-1.757812 9.34375.363281 11.101563 4.734375 1.757812 4.375-.363281 9.34375-4.734375 11.101563l-2.714844 1.09375c-26.957031 10.871093-83.03125 33.484375-147.667969 33.484375zm0 0"/><path d="m63.578125 339.359375c-2.738281.003906-5.3125-1.304687-6.921875-3.523437-3.425781-4.511719-5.3125-10.007813-5.375-15.675782 0-16.484375 15.632812-30.582031 46.472656-41.890625 2.863282-1.046875 6.066406-.488281 8.40625 1.464844 2.339844 1.957031 3.457032 5.011719 2.933594 8.011719-.519531 3.003906-2.605469 5.5-5.46875 6.550781-22.09375 8.097656-35.277344 17.765625-35.277344 25.863281.082032 2.066406.832032 4.050782 2.132813 5.660156 1.882812 2.59375 2.148437 6.027344.695312 8.882813-1.457031 2.855469-4.390625 4.65625-7.597656 4.65625zm0 0"/><path d="m340.304688 278.519531c-.417969 0-.832032-.027343-1.246094-.078125-5.359375-.734375-10.804688-1.382812-16.402344-1.960937-.40625.007812-.8125-.015625-1.21875-.070313-4.28125-.523437-7.503906-4.160156-7.5-8.472656-.03125-2.308594.886719-4.527344 2.539062-6.140625 1.652344-1.613281 3.890626-2.476563 6.199219-2.394531.390625-.011719.78125.003906 1.167969.042968 5.972656.605469 11.726562 1.289063 17.40625 2.066407 4.476562.53125 7.765625 4.449219 7.515625 8.949219-.25 4.496093-3.957031 8.027343-8.460937 8.058593zm0 0"/><path d="m209.148438 274.847656c-4.714844.203125-8.699219-3.453125-8.902344-8.164062-.203125-4.714844 3.453125-8.699219 8.167968-8.902344 2.96875-.261719 5.972657-.433594 8.917969-.613281 3.046875-.183594 5.960938 1.273437 7.648438 3.820312 1.683593 2.546875 1.878906 5.800781.515625 8.53125-1.367188 2.734375-4.085938 4.53125-7.132813 4.714844-2.808593.164063-5.625.324219-8.441406.570313-.257813.03125-.515625.042968-.773437.042968zm0 0"/><path d="m281.679688 298.828125c-2.824219 0-5.464844-1.398437-7.050782-3.734375-1.589844-2.335938-1.921875-5.304688-.882812-7.929688l110.933594-281.601562c1.074218-2.894531 3.632812-4.984375 6.683593-5.460938 3.054688-.476562 6.125.738282 8.03125 3.167969 1.90625 2.433594 2.347657 5.707031 1.15625 8.554688l-110.933593 281.601562c-1.285157 3.257813-4.433594 5.402344-7.9375 5.402344zm0 0"/><path d="m310.609375 267.597656c-3.394531-.003906-6.464844-2.011718-7.820313-5.121094-1.355468-3.109374-.742187-6.730468 1.566407-9.214843l184.402343-199.160157c2.035157-2.382812 5.207032-3.460937 8.269532-2.808593 3.066406.652343 5.523437 2.929687 6.410156 5.933593.882812 3.003907.050781 6.253907-2.167969 8.460938l-184.398437 199.175781c-1.617188 1.746094-3.886719 2.734375-6.261719 2.734375zm0 0"/><path d="m192.933594 365.644531c-.238282 0-.476563 0-.714844 0-32.113281-2.4375-63.964844-7.574219-95.214844-15.359375-2.574218-.667968-4.691406-2.492187-5.726562-4.941406-3.457032-8.195312-5.414063-16.945312-5.777344-25.832031-.085938-.929688-.085938-2.269531-.085938-3.617188-.042968-11.546875 2.558594-22.953125 7.601563-33.339843 10.636719-22.101563 31.191406-37.792969 55.3125-42.226563 24.121094-4.4375 48.910156 2.914063 66.714844 19.785156 1.578125 1.449219 3.058593 3.007813 4.429687 4.65625 2 2.359375 2.570313 5.613281 1.488282 8.507813-1.078126 2.898437-3.640626 4.980468-6.699219 5.453125-3.054688.46875-6.125-.753907-8.023438-3.191407-.894531-1.058593-1.859375-2.058593-2.886719-2.992187-13.84375-13.136719-33.128906-18.867187-51.902343-15.421875-18.769531 3.449219-34.761719 15.65625-43.039063 32.855469-3.929687 8.070312-5.957031 16.9375-5.929687 25.914062 0 .851563 0 1.707031.050781 2.558594.21875 5.574219 1.234375 11.089844 3.011719 16.375 28.957031 6.914063 58.414062 11.523437 88.097656 13.78125 4.714844.195313 8.378906 4.171875 8.183594 8.886719-.191407 4.710937-4.167969 8.375-8.882813 8.183594zm0 0"/><path d="m192.933594 365.652344c-3.558594-.003906-6.742188-2.214844-7.988282-5.546875-3.765624-10.042969-5.683593-20.683594-5.664062-31.410157-.011719-5.816406.558594-11.621093 1.707031-17.324218 3.476563-18.128906 12.554688-34.707032 25.957031-47.402344 1.792969-1.8125 3.714844-3.5 5.742188-5.042969 24.519531-19.410156 57.289062-24.867187 86.777344-14.445312 5.355468 1.898437 10.515625 4.308593 15.410156 7.191406 4.554688 2.808594 8.863281 5.988281 12.886719 9.515625.300781.226562.585937.476562.851562.742188 3.324219 2.933593 6.378907 6.15625 9.132813 9.632812 2.226562 2.503906 2.785156 6.078125 1.421875 9.140625-1.359375 3.0625-4.386719 5.046875-7.738281 5.070313-2.664063-.007813-5.179688-1.234376-6.828126-3.328126-2.136718-2.746093-4.523437-5.292968-7.125-7.605468-.246093-.179688-.484374-.375-.714843-.578125-3.324219-2.96875-6.902344-5.640625-10.691407-7.988281-3.910156-2.289063-8.027343-4.203126-12.296874-5.71875-23.953126-8.578126-50.640626-4.121094-70.503907 11.777343-1.550781 1.183594-3.019531 2.472657-4.394531 3.855469-10.90625 10.304688-18.296875 23.777344-21.121094 38.511719-.9375 4.605469-1.40625 9.296875-1.40625 13.996093-.015625 8.679688 1.535156 17.292969 4.582032 25.421876.984374 2.621093.621093 5.558593-.972657 7.863281-1.597656 2.300781-4.222656 3.675781-7.023437 3.671875zm0 0"/><path d="m311.375 366.242188c-3.636719-.003907-6.875-2.3125-8.0625-5.753907-3.042969-8.855469-4.582031-18.160156-4.566406-27.527343-.03125-6.296876.679687-12.574219 2.117187-18.703126 3.625-16.585937 12.222657-31.671874 24.644531-43.238281.199219-.191406.40625-.367187.621094-.53125 2.066406-1.996093 4.253906-3.859375 6.554688-5.582031.296875-.25.613281-.484375.9375-.699219l.976562-.691406c.253906-.179687.535156-.367187.851563-.542969 14.234375-10.019531 31.226562-15.378906 48.632812-15.34375 30.308594.0625 58.328125 16.144532 73.667969 42.289063 6.339844 10.75 10.195312 22.777343 11.289062 35.210937.355469 4.65625-3.101562 8.734375-7.753906 9.148438-4.652344.414062-8.773437-2.992188-9.246094-7.640625-.878906-9.921875-3.960937-19.523438-9.019531-28.109375-12.273437-20.914063-34.6875-33.78125-58.9375-33.832032-13.914062-.035156-27.492187 4.253907-38.863281 12.269532-.246094.171875-.484375.324218-.742188.46875l-1.117187.792968-.136719.113282c-2.03125 1.5-3.949218 3.144531-5.742187 4.921875-.289063.292969-.601563.566406-.929688.8125-9.589843 9.175781-16.214843 21.007812-19.03125 33.980469-1.144531 4.855468-1.71875 9.832031-1.707031 14.820312-.023438 7.5 1.199219 14.953125 3.628906 22.050781.898438 2.605469.480469 5.488281-1.117187 7.734375-1.601563 2.246094-4.191407 3.578125-6.949219 3.582032zm0 0"/><path d="m228.507812 367.605469c-4.027343-.003907-7.5-2.824219-8.335937-6.765625-10.085937-47.675782 17.007813-72.175782 32.734375-78.507813 2.832031-1.132812 6.054688-.671875 8.453125 1.214844s3.609375 4.910156 3.171875 7.929687c-.433594 3.019532-2.445312 5.578126-5.277344 6.710938-1.253906.519531-31.949218 13.902344-22.382812 59.085938.472656 2.214843.039062 4.527343-1.195313 6.425781-1.234375 1.898437-3.175781 3.226562-5.390625 3.695312-.585937.128907-1.179687.199219-1.777344.210938zm0 0"/><path d="m266.910156 368.03125c-3.910156-.003906-7.320312-2.664062-8.269531-6.457031-6.828125-27.152344 9.976563-35.890625 10.691406-36.25 4.21875-2.105469 9.347657-.394531 11.453125 3.824219 2.105469 4.214843.394532 9.34375-3.824218 11.449218.070312 0-5.066407 3.601563-1.765626 16.828125 1.144532 4.570313-1.632812 9.207031-6.203124 10.351563-.679688.171875-1.378907.257812-2.082032.253906zm0 0"/><path d="m124.667969 356.257812c-4.378907-.003906-8.046875-3.324218-8.484375-7.679687-5.972656-57.96875 32.691406-74.113281 34.339844-74.769531 2.832031-1.132813 6.050781-.664063 8.449218 1.222656 2.394532 1.886719 3.601563 4.90625 3.164063 7.925781s-2.449219 5.574219-5.28125 6.707031c-1.085938.453126-28.289063 12.484376-23.6875 57.171876.238281 2.253906-.429688 4.511718-1.859375 6.273437-1.429688 1.761719-3.5 2.882813-5.753906 3.113281-.296876.027344-.589844.039063-.886719.035156zm0 0"/><path d="m151.46875 360.863281h-.664062c-2.257813-.171875-4.355469-1.238281-5.828126-2.957031-1.472656-1.722656-2.199218-3.957031-2.023437-6.214844.492187-12.277344 5.15625-24.015625 13.226563-33.28125 3.351562-3.117187 8.5625-3.039062 11.816406.175782 3.253906 3.21875 3.390625 8.429687.3125 11.816406-5.136719 6.4375-8.058594 14.363281-8.339844 22.59375-.347656 4.4375-4.046875 7.863281-8.5 7.867187zm0 0"/><path d="m427.847656 346.445312c-4.53125.003907-8.277344-3.53125-8.53125-8.058593.121094-16.355469-8.183594-31.628907-21.984375-40.414063-4.21875-2.105468-5.929687-7.230468-3.820312-11.449218 2.105469-4.21875 7.230469-5.929688 11.449219-3.824219 19.328124 11.511719 31.238281 32.28125 31.410156 54.777343.128906 2.257813-.644532 4.476563-2.152344 6.164063s-3.625 2.710937-5.882812 2.835937zm0 0"/><path d="m363.941406 360.4375c-3.890625 0-7.289062-2.632812-8.261718-6.398438-2.691407-12.171874-9.375-23.097656-18.984376-31.035156-3.832031-2.644531-4.84375-7.867187-2.265624-11.746094 2.574218-3.878906 7.78125-4.976562 11.703124-2.472656 13.183594 10.214844 22.398438 24.695313 26.070313 40.960938 1.175781 4.5625-1.566406 9.214844-6.128906 10.394531-.695313.191406-1.410157.289063-2.132813.296875zm0 0"/><path d="m404.132812 352.757812h-.085937c-3.320313 0-6.339844-1.925781-7.738281-4.941406-8.695313-16.21875-20.457032-30.597656-34.636719-42.332031-3.574219-2.976563-4.105469-8.265625-1.195313-11.894531 2.910157-3.628906 8.1875-4.257813 11.871094-1.417969 16.058594 13.199219 29.351563 29.4375 39.125 47.785156.757813 1.296875 1.15625 2.769531 1.152344 4.269531 0 4.695313-3.796875 8.507813-8.492188 8.53125zm0 0"/><path d="m136.613281 170.828125c-3.441406.007813-6.550781-2.046875-7.886719-5.21875-1.335937-3.167969-.640624-6.832031 1.769532-9.289063 4.316406-5.601562 6.488281-12.5625 6.117187-19.625.375-7.066406-1.800781-14.03125-6.125-19.628906-7.535156-8.746094-11.445312-20.039062-10.941406-31.570312-.496094-11.566406 3.449219-22.886719 11.035156-31.632813 2.140625-2.21875 5.3125-3.109375 8.296875-2.328125s5.3125 3.109375 6.09375 6.09375-.105468 6.15625-2.324218 8.296875c-4.269532 5.601563-6.410157 12.539063-6.035157 19.570313-.375 7.0625 1.800781 14.027344 6.128907 19.625 7.53125 8.75 11.445312 20.039062 10.9375 31.574218.5 11.566407-3.449219 22.882813-11.03125 31.632813-1.601563 1.601563-3.773438 2.5-6.035157 2.5zm0 0"/><path d="m187.8125 119.628906c-3.4375.007813-6.546875-2.046875-7.886719-5.21875-1.335937-3.167968-.636719-6.832031 1.769531-9.289062 4.316407-5.601563 6.488282-12.5625 6.117188-19.625.375-7.066406-1.796875-14.03125-6.125-19.628906-7.53125-8.746094-11.445312-20.039063-10.941406-31.574219-.496094-11.566407 3.453125-22.882813 11.035156-31.632813 3.347656-3.234375 8.671875-3.1875 11.960938.105469 3.292968 3.292969 3.339843 8.613281.105468 11.960937-4.269531 5.601563-6.40625 12.535157-6.035156 19.566407-.371094 7.066406 1.800781 14.03125 6.128906 19.628906 7.53125 8.746094 11.445313 20.039063 10.9375 31.574219.5 11.566406-3.449218 22.882812-11.03125 31.632812-1.601562 1.597656-3.769531 2.5-6.035156 2.5zm0 0"/><path d="m239.015625 170.828125c-3.441406.007813-6.550781-2.046875-7.890625-5.21875-1.335938-3.167969-.636719-6.832031 1.769531-9.289063 4.316407-5.601562 6.488281-12.5625 6.121094-19.625.371094-7.066406-1.800781-14.03125-6.128906-19.628906-7.53125-8.746094-11.445313-20.039062-10.941407-31.570312-.496093-11.566406 3.453126-22.886719 11.035157-31.632813 2.144531-2.21875 5.316406-3.109375 8.300781-2.328125 2.980469.78125 5.3125 3.109375 6.09375 6.09375s-.109375 6.15625-2.328125 8.296875c-4.269531 5.601563-6.40625 12.539063-6.03125 19.570313-.375 7.0625 1.796875 14.027344 6.125 19.625 7.53125 8.75 11.445313 20.039062 10.941406 31.574218.496094 11.566407-3.453125 22.882813-11.035156 31.632813-1.601563 1.601563-3.769531 2.5-6.03125 2.5zm0 0"/><path d="m204.878906 435.359375c-62.546875 0-90.222656-26.945313-91.363281-28.097656-3.246094-3.339844-3.214844-8.664063.066406-11.964844 3.285157-3.300781 8.605469-3.363281 11.964844-.136719.554687.53125 24.746094 23.132813 79.359375 23.132813 4.710938 0 8.535156 3.820312 8.535156 8.535156 0 4.710937-3.824218 8.53125-8.535156 8.53125zm0 0"/></g></svg>