<?xml version="1.0" standalone="no"?>
<!DOCTYPE svg PUBLIC "-//W3C//DTD SVG 20010904//EN"
 "http://www.w3.org/TR/2001/REC-SVG-20010904/DTD/svg10.dtd">
<svg version="1.0" xmlns="http://www.w3.org/2000/svg"
 width="1280.000000pt" height="800.000000pt" viewBox="0 0 1280.000000 800.000000"
 preserveAspectRatio="xMidYMid meet">
<defs>
  <linearGradient id="grad2" x1="0%" y1="0%" x2="100%" y2="100%">
    <stop offset="0%" style="stop-color:#0e572b; stop-opacity:1" />
    <stop offset="100%" style="stop-color:#38ef7d; stop-opacity:1" />
  </linearGradient>
</defs>
<g transform="translate(0.000000,800.000000) scale(0.100000,-0.100000)"
fill="url(#grad2)" stroke="none">
<path d="M2 5228 c2 -1525 5 -2630 8 -2454 l5 318 90 -113 c500 -630 957
-1109 1370 -1435 893 -707 1737 -874 2502 -497 125 61 267 151 422 267 118 87
196 130 325 175 302 107 720 161 1241 161 236 0 278 -4 670 -65 582 -91 823
-115 1145 -115 388 0 643 46 1700 305 300 73 608 147 685 164 440 95 762 121
1026 85 152 -21 413 -20 554 1 336 50 669 178 967 373 l88 57 0 2773 0 2772
-6400 0 -6400 0 2 -2772z"/>
</g>
</svg>
