<svg xmlns="http://www.w3.org/2000/svg"><defs><font horiz-adv-x="0" id="font"><font-face ascent="650" bbox="-184 -256 1292 978" cap-height="680" descent="-200" font-family="Inria Sans" font-style="normal" font-weight="680" x-height="507"/><glyph glyph-name=".null" horiz-adv-x="0"/><glyph glyph-name="CR" horiz-adv-x="0"/><glyph glyph-name="space" horiz-adv-x="200"/><glyph glyph-name="uni00A0" horiz-adv-x="200"/><glyph d="M581 0H456l-42 133H181L139 0H20l227 680h106zM298 513l-52-172-31-98h164l-31 98z" glyph-name="A" horiz-adv-x="601" unicode="A"/><glyph d="M326 0H94v680h207q103 0 153.5-44T505 502v-28q0-39-17.5-70T437 353q48-19 73-55t25-86v-28q0-93-52-138.5T326 0zm-25 570h-87V400h87q39 0 60 18t21 51v33q0 32-21 50t-60 18zm25-280H214V110h112q41 0 63.5 19.5T412 184v33q0 35-22.5 54T326 290z" glyph-name="B" horiz-adv-x="585" unicode="B"/><glyph d="M186 412V269q0-81 35-123.5T323 103q31 0 63.5 8t79.5 27l37-104q-51-22-96.5-33T316-10q-119 0-186 74.5T63 269v143q0 129 67 203.5T316 690q44 0 88.5-10.5T497 648l-37-106q-47 19-78 27t-59 8q-67 0-102-42t-35-123z" glyph-name="C" horiz-adv-x="534" unicode="C"/><glyph d="M324 0H94v680h230q122 0 186-68.5T574 412V269q0-132-64-200.5T324 0zm-5 565H214V115h105q71 0 101.5 35.5T451 269v143q0 82-30.5 117.5T319 565z" glyph-name="D" horiz-adv-x="639" unicode="D"/><glyph d="M214 115h274V0H94v680h384V565H214V402h234V287H214z" glyph-name="E" horiz-adv-x="536" unicode="E"/><glyph d="M442 376V261H214V0H94v680h378V565H214V376z" glyph-name="F" horiz-adv-x="505" unicode="F"/><glyph d="M544 374V44q-41-24-99-39T327-10q-123 0-193.5 75T63 269v143q0 131 70.5 204.5T332 690q49 0 96-10.5t98-33.5l-37-105q-53 20-87.5 28t-67.5 8q-73 0-110.5-42T186 412V269q0-78 38-121t109-43q22 0 49.5 4t52.5 11v149H325v105z" glyph-name="G" horiz-adv-x="603" unicode="G"/><glyph d="M588 0H468v287H214V0H94v680h120V402h254v278h120z" glyph-name="H" horiz-adv-x="682" unicode="H"/><glyph d="M214 680V0H94v680z" glyph-name="I" horiz-adv-x="308" unicode="I"/><glyph d="M26-10v115q84 0 119 32t35 107v436h120V244q0-135-65.5-194.5T26-10z" glyph-name="J" horiz-adv-x="376" unicode="J"/><glyph d="M600 0H455L285 297q-4-5-29.5-32.5T214 220V0H94v680h120V357q75 86 129.5 164.5T437 680h131q-45-89-93.5-165T374 376z" glyph-name="K" horiz-adv-x="616" unicode="K"/><glyph d="M214 115h272V0H94v680h120z" glyph-name="L" horiz-adv-x="507" unicode="L"/><glyph d="M94 680h131l190-465 189 465h131V0H620v260l15 238L466 80H359L194 499l15-239V0H94z" glyph-name="M" horiz-adv-x="829" unicode="M"/><glyph d="M209 0H94v680h110q81-106 151.5-220.5T483 227l-9 203v250h115V0H479q-99 196-160 303.5T201 494l8-234z" glyph-name="N" horiz-adv-x="683" unicode="N"/><glyph d="M320 690q122 0 188.5-72.5T575 412V269q0-133-66.5-206T320-10q-123 0-189 72.5T65 269v143q0 133 66 205.5T320 690zm132-421v143q0 84-32.5 124.5T320 577q-67 0-99.5-40.5T188 412V269q0-84 32.5-125t99.5-41q67 0 99.5 41T452 269z" glyph-name="O" horiz-adv-x="640" unicode="O"/><glyph d="M214 0H94v680h224q103 0 158.5-52T532 482v-53q0-95-56-147t-158-52H214zm104 565H214V345h104q44 0 67.5 22t23.5 62v53q0 40-23.5 61.5T318 565z" glyph-name="P" horiz-adv-x="574" unicode="P"/><glyph d="M419 5q13-46 41-62t100-16v-125q-103 0-158 34T319-45l-12 35Q191-6 128 66.5T65 269v143q0 133 66 205.5T320 690q122 0 188.5-72.5T575 412V269q0-102-40-170T419 5zm33 264v143q0 84-32.5 124.5T320 577q-67 0-99.5-40.5T188 412V269q0-84 32.5-125t99.5-41q67 0 99.5 41T452 269z" glyph-name="Q" horiz-adv-x="640" unicode="Q"/><glyph d="M322 250H214V0H94v680h227q100 0 157-51.5T535 487v-43q0-59-25-102.5T438 275q41-70 76-139T578 0H441q-25 62-54.5 125T322 250zm-1 320H214V360h107q43 0 67 22t24 62v43q0 39-24 61t-67 22z" glyph-name="R" horiz-adv-x="609" unicode="R"/><glyph d="M242 101q59 0 87.5 21t28.5 65q0 35-18.5 55T276 277l-82 27q-74 24-110.5 72T47 497q0 91 56.5 142T264 690q47 0 92.5-10.5T455 646l-37-103q-52 20-85 28t-65 8q-51 0-75-18.5T169 503q0-33 18.5-53t61.5-34l82-27q76-25 112.5-73.5T480 191q0-97-61-149T244-10q-51 0-103 12.5T32 41l37 103q55-23 94.5-33t78.5-10z" glyph-name="S" horiz-adv-x="518" unicode="S"/><glyph d="M203 565H13v115h500V565H323V0H203z" glyph-name="T" horiz-adv-x="526" unicode="T"/><glyph d="M78 244v436h123V244q0-70 30.5-105.5T323 103q61 0 91.5 35.5T445 244v436h123V244q0-121-63.5-187.5T323-10q-118 0-181.5 66T78 244z" glyph-name="U" horiz-adv-x="646" unicode="U"/><glyph d="M448 680h122L354 0H231L14 680h132l103-342 47-176 50 177z" glyph-name="V" horiz-adv-x="584" unicode="V"/><glyph d="M156 680l52-269 38-252 136 521h108l135-517 42 248 52 269h122L688 0H565L434 506 302 0H179L26 680z" glyph-name="W" horiz-adv-x="867" unicode="W"/><glyph d="M554 0H418L276 249 141 0H15l199 353L26 680h136l131-228 123 228h126L355 347z" glyph-name="X" horiz-adv-x="569" unicode="X"/><glyph d="M417 680h124L333 273V0H213v271L3 680h128l147-290z" glyph-name="Y" horiz-adv-x="544" unicode="Y"/><glyph d="M179 115h294V0H38v105l284 460H48v115h415V575z" glyph-name="Z" horiz-adv-x="509" unicode="Z"/><glyph d="M132 0H1l337 680h447V565H521V402h234V287H521V115h274V0H401v133H196zm269 557L249 243h152z" glyph-name="AE" horiz-adv-x="843" unicode="Æ"/><glyph d="M65 269v143q0 131 64 199.5T315 680h494V565H545V402h234V287H545V115h274V0H315Q193 0 129 68.5T65 269zm255-154h105v450H320q-71 0-101.5-35.5T188 412V269q0-83 30.5-118.5T320 115z" glyph-name="OE" horiz-adv-x="867" unicode="Œ"/><glyph d="M223 115h272V0H103v263l-82-37v117l82 37v300h120V435l120 54V372l-120-54z" glyph-name="Lslash" horiz-adv-x="516" unicode="Ł"/><glyph d="M320-10q-38 0-70 7t-58 20l-26-47H65l57 103q-28 36-42.5 85.5T65 269v143q0 133 66 205.5T320 690q38 0 70-7t58-20l26 47h101l-57-103q28-36 42.5-85T575 412V269q0-133-66.5-206T320-10zM185 412V269q0-21 1.5-38t5.5-31l201 363q-15 9-33.5 13t-39.5 4q-68 0-101.5-41.5T185 412zm270-143v143q0 21-1.5 38t-5.5 30L247 117q15-9 33.5-13t39.5-4q68 0 101.5 42T455 269z" glyph-name="Oslash" horiz-adv-x="640" unicode="Ø"/><glyph d="M21 290v109h82v281h230q122 0 186-68.5T583 412V269q0-132-64-200.5T333 0H103v290zm322 109V290H223V115h105q71 0 101.5 35.5T460 269v143q0 82-30.5 117.5T328 565H223V399z" glyph-name="Eth" horiz-adv-x="648" unicode="Ð"/><glyph d="M318 118H214V0H94v680h120V568h104q103 0 158.5-52T532 370v-53q0-95-56-147t-158-52zm0 335H214V233h104q44 0 67.5 22t23.5 62v53q0 40-23.5 61.5T318 453z" glyph-name="Thorn" horiz-adv-x="574" unicode="Þ"/><glyph d="M574 180v-14q0-82-49.5-129T389-10q-38 0-76.5 8.5T237 24l30 103q27-13 56-19.5t58-6.5q35 0 53 16.5t18 48.5v14q0 35-15 55t-54 37l-91 39v83l87 168q-17 8-37 12.5t-41 4.5q-55 0-81-30t-26-92V0H74v457q0 112 57 172.5T294 690q56 0 106.5-18t91.5-52v-83l-84-150 28-12q78-34 108-77.5T574 180z" glyph-name="uni1E9E" horiz-adv-x="611" unicode="ẞ"/><glyph d="M486-5h-23q-46 0-78.5 19T337 68q-44-41-84.5-59.5T168-10q-62 0-96 40T38 142q0 76 43.5 112.5T213 291q23 0 49.5-3t60.5-9v59q0 38-20.5 55.5T238 411q-32 0-68-8.5T96 378l-33 98q51 21 96 31t87 10q93 0 140-45t47-134V143q0-20 11-31t31-11h11zM221 206q-37 0-54.5-15T149 144q0-28 12-43t35-15q31 0 61 16.5t66 51.5v43q-26 5-51.5 7t-50.5 2z" glyph-name="a" horiz-adv-x="507" unicode="a"/><glyph d="M506 281v-54q0-112-55.5-174.5T294-10q-54 0-109 15T75 50v690h115V440q42 42 75 59.5t72 17.5q80 0 124.5-62T506 281zM306 410q-28 0-54.5-16T190 341V114q26-11 48.5-16t45.5-5q52 0 78 33.5T388 227v54q0 64-20.5 96.5T306 410z" glyph-name="b" horiz-adv-x="560" unicode="b"/><glyph d="M264 411q-50 0-73.5-31T167 283v-59q0-66 23.5-97T264 96q27 0 58.5 7t66.5 20l33-97Q376 7 336-1.5T258-10q-97 0-151.5 62T52 224v59q0 110 54.5 172T258 517q36 0 75-8.5t84-26.5l-33-99q-36 14-66 21t-54 7z" glyph-name="c" horiz-adv-x="448" unicode="c"/><glyph d="M485 0H376v69q-43-43-76.5-61T227-10q-82 0-127.5 62T54 226v54q0 112 56.5 174.5T268 517q24 0 49.5-4.5T370 498v242h115zM172 280v-54q0-64 21.5-96.5T258 97q26 0 52 15.5t60 49.5v232q-25 10-47 15t-43 5q-54 0-81-33.5T172 280z" glyph-name="d" horiz-adv-x="564" unicode="d"/><glyph d="M431 126l33-97Q415 9 369-.5T279-10q-109 0-169 61.5T50 224v60q0 106 57.5 169.5T263 517q91 0 148-55t57-150q0-22-3.5-46t-9.5-48H161q2-64 32-94t92-30q35 0 71.5 8t74.5 24zm-76 198q0 44-25 70t-67 26q-45 0-71-29.5T162 306h192q1 3 1 7v11z" glyph-name="e" horiz-adv-x="521" unicode="e"/><glyph d="M372 507V407H214V0H99v407H17v100h82v53q0 91 45.5 140.5T276 750q33 0 69-6.5t66-18.5l-28-99q-24 8-45.5 12t-40.5 4q-44 0-63.5-19.5T214 560v-53z" glyph-name="f" horiz-adv-x="377" unicode="f"/><glyph d="M500-51q0-81-63.5-126.5T260-223q-61 0-118.5 13.5T39-171l33 91q45-22 92-33.5t95-11.5q61 0 95 16.5T388-63q0 21-13 32t-38 11H217q-64 0-100.5 30.5T80 91q0 27 12 52.5t35 49.5q-38 23-58.5 61T48 341q0 82 51.5 129T238 517h17q21 0 40-2.5t35-7.5h181v-98l-100 16q16-18 24-42t8-55q0-73-52.5-118T255 165h-17q-10 0-19.5 1t-18.5 2q-10-11-15.5-23.5T179 120q0-17 11.5-26t33.5-9h122q71 0 112.5-36.5T500-51zM238 259h17q34 0 56 22.5t22 59.5q0 37-22 59.5T255 423h-17q-35 0-57-22.5T159 341q0-37 22-59.5t57-22.5z" glyph-name="g" horiz-adv-x="531" unicode="g"/><glyph d="M327 410q-30 0-62-14.5T194 351V0H79v740h115V444q45 38 85 55.5t83 17.5q72 0 110.5-46T511 340V0H396v326q0 43-17 63.5T327 410z" glyph-name="h" horiz-adv-x="584" unicode="h"/><glyph d="M197 722V603H76v119zm-3-215V0H79v507z" glyph-name="i" horiz-adv-x="273" unicode="i"/><glyph d="M197 722V603H76v119zM-25-223v108q55 0 79.5 26.5T79-4v511h115V-4q0-110-55-164.5T-25-223z" glyph-name="j" horiz-adv-x="273" unicode="j"/><glyph d="M521 0H382L257 211q-15-15-30.5-30T194 151V0H79v740h115V278q58 59 99.5 113T369 507h132q-30-54-68-107.5T343 284z" glyph-name="k" horiz-adv-x="532" unicode="k"/><glyph d="M76 143v597h115V143q0-20 9.5-31t27.5-11h16V-5h-28q-69 0-104.5 37.5T76 143z" glyph-name="l" horiz-adv-x="276" unicode="l"/><glyph d="M322 410q-29 0-59.5-14.5T194 351V0H79v507h109v-67q46 40 86.5 58.5T357 517q46 0 78-21t49-61q49 43 92 62.5t88 19.5q69 0 106.5-46T808 340V0H693v326q0 43-16 63.5T629 410q-29 0-59.5-14.5T501 351V0H386v326q0 43-16 63.5T322 410z" glyph-name="m" horiz-adv-x="881" unicode="m"/><glyph d="M327 410q-30 0-62-14.5T194 351V0H79v507h109v-68q47 41 88.5 59.5T362 517q72 0 110.5-46T511 340V0H396v326q0 43-17 63.5T327 410z" glyph-name="n" horiz-adv-x="584" unicode="n"/><glyph d="M272 517q104 0 163-62t59-171v-60q0-109-59-171.5T272-10q-104 0-163 62.5T50 224v60q0 109 59 171t163 62zm104-293v60q0 62-27 96t-77 34q-50 0-77-34t-27-96v-60q0-62 27.5-96.5T272 93q49 0 76.5 34.5T376 224z" glyph-name="o" horiz-adv-x="544" unicode="o"/><glyph d="M296-10q-24 0-49.5 4.5T194 9v-222H79v720h109v-69q43 43 76.5 61t72.5 18q82 0 127.5-62T510 281v-54q0-112-56.5-174.5T296-10zm10 420q-26 0-52-15.5T194 345V113q25-10 47-15t43-5q54 0 81 33.5T392 227v54q0 64-21.5 96.5T306 410z" glyph-name="p" horiz-adv-x="564" unicode="p"/><glyph d="M266 517q54 0 109-15t110-45v-670H370V67q-42-42-75-59.5T223-10q-80 0-124.5 62T54 226v54q0 112 55.5 174.5T266 517zm-94-237v-54q0-64 20.5-96.5T254 97q28 0 54.5 16t61.5 53v227q-26 11-48.5 16t-45.5 5q-52 0-78-33.5T172 280z" glyph-name="q" horiz-adv-x="561" unicode="q"/><glyph d="M365 517V402q-48 0-90.5-15T194 341V0H79v507h109v-78q51 48 91 68t86 20z" glyph-name="r" horiz-adv-x="387" unicode="r"/><glyph d="M221 90q40 0 62.5 13t22.5 37q0 22-15.5 34T235 197l-57 15q-63 17-96 55.5T49 364q0 71 48.5 112T233 517q41 0 83-9.5t85-28.5l-33-98q-37 18-71.5 27t-64.5 9q-36 0-53.5-12T161 369q0-20 13-30.5t46-19.5l57-15q71-19 105.5-57.5T417 148q0-76-51-117T220-10q-44 0-89 10T37 30l31 95q44-18 82.5-26.5T221 90z" glyph-name="s" horiz-adv-x="456" unicode="s"/><glyph d="M355 114l29-97Q356 4 322-3t-67-7q-79 0-119 47.5T96 179v228H14v100h82v132h115V507h158V407H211V179q0-43 16-62t52-19q18 0 36.5 4t39.5 12z" glyph-name="t" horiz-adv-x="397" unicode="t"/><glyph d="M490 0H381v67q-46-40-86-58.5T214-10q-68 0-105 46T72 167v340h115V181q0-42 15.5-63T249 97q28 0 58.5 14t67.5 44v352h115z" glyph-name="u" horiz-adv-x="569" unicode="u"/><glyph d="M368 507h114L302 0H197L17 507h116l87-253 33-105 32 105z" glyph-name="v" horiz-adv-x="499" unicode="v"/><glyph d="M599 507h111L580 0H455l-84 381L282 0H157L27 507h118l49-201 34-183 86 384h116l89-388 32 186z" glyph-name="w" horiz-adv-x="737" unicode="w"/><glyph d="M471 0H347L242 170 139 0H19l164 260L30 507h124l94-151 91 151h120L306 265z" glyph-name="x" horiz-adv-x="490" unicode="x"/><glyph d="M482 507L284-50q-33-94-85-133.5T60-223v115q50 2 81.5 22T189-25l9 23L17 507h114l87-253 34-107 33 107 83 253z" glyph-name="y" horiz-adv-x="499" unicode="y"/><glyph d="M173 100h224V0H35v90l214 317H45v100h342v-90z" glyph-name="z" horiz-adv-x="432" unicode="z"/><glyph d="M704 126l33-97Q688 9 642-.5T552-10q-66 0-114.5 23T360 81q-50-48-95-69.5T168-10q-62 0-96 40T38 142q0 76 43.5 112.5T213 291q23 0 49.5-3t60.5-9v59q0 38-20.5 55.5T238 411q-32 0-68-8.5T96 378l-33 98q51 21 96 31t87 10q52 0 88-17.5t56-52.5q26 34 63 52t83 18q91 0 148-55t57-150q0-22-3.5-46t-9.5-48H434q2-64 32-94t92-30q35 0 71.5 8t74.5 24zm-76 198q0 44-25 70t-67 26q-45 0-70.5-29T435 306h192q1 3 1 7v11zM221 206q-37 0-54.5-15T149 144q0-28 12-43t35-15q32 0 63.5 18t69.5 56l-3 22.5q-1 7.5-2 14.5-27 5-52.5 7t-50.5 2z" glyph-name="ae" horiz-adv-x="794" unicode="æ"/><glyph d="M757 126l33-97Q741 9 695-.5T605-10q-57 0-100.5 21T435 72q-27-40-69-61t-96-21q-103 0-161.5 62.5T50 224v60q0 109 58.5 171T270 517q55 0 97-21t68-61q25 40 64.5 61t89.5 21q91 0 148-55t57-150q0-22-3.5-46t-9.5-48H487q2-64 32-94t92-30q35 0 71.5 8t74.5 24zm-76 198q0 44-25 70t-67 26q-45 0-70.5-29T488 306h192q1 3 1 7v11zM376 224v60q0 62-27 96t-77 34q-50 0-77-34t-27-96v-60q0-62 27.5-96.5T272 93q49 0 76.5 34.5T376 224z" glyph-name="oe" horiz-adv-x="847" unicode="œ"/><glyph d="M257 101h16V-5h-28q-69 0-104.5 37.5T105 143v150l-82-43v113l82 43v334h115V465l84 44V396l-84-44V143q0-20 9.5-31t27.5-11z" glyph-name="lslash" horiz-adv-x="329" unicode="ł"/><glyph d="M272-10q-27 0-52.5 5T171 9l-24-39H50l54 88q-27 31-40.5 73T50 224v60q0 109 59 171t163 62q27 0 52.5-5t48.5-14l24 39h97l-54-88q26-30 40-72t14-93v-60q0-109-59-171.5T272-10zM163 284v-60q0-14 2-28.5t5-28.5l149 243q-11 5-22.5 7t-24.5 2q-52 0-80.5-35.5T163 284zm218-60v60q0 17-1.5 31t-5.5 26L225 98q10-5 21.5-7.5T272 88q52 0 80.5 36T381 224z" glyph-name="oslash" horiz-adv-x="544" unicode="ø"/><glyph d="M489 299v-40q0-131-58-200T264-10q-106 0-163 52.5T44 193v30q0 96 51 154.5T230 436q35 0 66.5-11t63.5-34q-11 43-31.5 81.5T277 545l-135-82v96l74 45q-19 16-40.5 30T131 661l45 89q35-20 67.5-43t62.5-48l151 91v-96l-90-54q61-67 91.5-142.5T489 299zm-327-76v-30q0-49 26-74.5T264 93q54 0 80.5 41.5T371 259v25q-29 24-55 34.5T262 329q-46 0-73-28.5T162 223z" glyph-name="eth" horiz-adv-x="537" unicode="ð"/><glyph d="M296-10q-24 0-49.5 4.5T194 9v-222H79v953h115V444q40 39 72.5 56t70.5 17q80 0 124.5-62T506 281v-54q0-112-55.5-174.5T296-10zm10 420q-26 0-52-15.5T194 345V113q25-10 47-15t43-5q52 0 78 33.5T388 227v54q0 64-20.5 96.5T306 410z" glyph-name="thorn" horiz-adv-x="560" unicode="þ"/><glyph d="M603 151q0-75-45.5-118T430-10q-37 0-76.5 8T278 22l27 98q33-15 65-23t59-8q31 0 47 13.5t16 39.5q0 20-10.5 37T448 212l-41 29q-44 31-64.5 64.5T322 380q0 21 6 44.5t25 67.5q15 37 20 54.5t5 32.5q0 31-21 47t-61 16q-43 0-62.5-20T214 560V0H99v407H17v100h82v53q0 91 51 140.5T296 750q90 0 142-42t52-118q0-26-6.5-51.5T457 472q-14-30-18.5-45t-4.5-28q0-20 12-36t40-36l41-29q39-28 57.5-63.5T603 151z" glyph-name="germandbls" horiz-adv-x="629" unicode="ß"/><glyph d="M194 507V0H79v507z" glyph-name="dotlessi" horiz-adv-x="273" unicode="ı"/><glyph d="M-25-223v108q55 0 79.5 26.5T79-4v511h115V-4q0-110-55-164.5T-25-223z" glyph-name="dotlessj" horiz-adv-x="273" unicode="ȷ"/><glyph d="M312 642q-52 0-75-22t-23-70v-43h307V0H406v407H214V0H99v407H17v100h82v43q0 98 53.5 149T309 750q48 0 94.5-11t91.5-33l-42-94q-40 15-74.5 22.5T312 642z" glyph-name="fi" horiz-adv-x="600" unicode="ﬁ"/><glyph d="M521 0H406v407H214V0H99v407H17v100h82v50q0 89 44.5 136T274 740q24 0 49-4t51-12l-30-100q-16 4-32.5 6t-29.5 2q-36 0-52-18t-16-57v-50h192v43q0 98 53.5 149T616 750q48 0 94.5-11t91.5-33l-42-94q-40 15-74.5 22.5T619 642q-52 0-75-22t-23-70v-43h307V0H713v407H521z" glyph-name="ffi" horiz-adv-x="907" unicode="ﬃ"/><glyph d="M568 101h16V-5h-28q-69 0-104.5 37.5T416 143v485q-28 7-52 10.5t-49 3.5q-54 0-77.5-22T214 550v-43h138V407H214V0H99v407H17v100h82v43q0 98 54 149t159 51q54 0 109-14t110-41V143q0-20 9.5-31t27.5-11z" glyph-name="fl" horiz-adv-x="616" unicode="ﬂ"/><glyph d="M282 632q-36 0-52-18t-16-57v-50h192v43q0 98 54 149t159 51q54 0 109-14t110-41V143q0-20 9.5-31t27.5-11h16V-5h-28q-69 0-104.5 37.5T723 143v485q-28 7-52 10.5t-49 3.5q-54 0-77.5-22T521 550v-43h138V407H521V0H406v407H214V0H99v407H17v100h82v50q0 89 44.5 136T274 740q24 0 49-4t51-12l-30-100q-16 4-32.5 6t-29.5 2z" glyph-name="ffl" horiz-adv-x="923" unicode="ﬄ"/><glyph d="M575-10q-79 0-119 47.5T416 179v228H214V0H99v407H17v100h82v43q0 98 54 149t159 51q54 0 109-14t110-41V507h158V407H531V179q0-43 16-62t52-19q18 0 36.5 4t39.5 12l29-97Q676 4 642-3t-67-7zM315 642q-54 0-77.5-22T214 550v-43h202v121q-28 7-52 10.5t-49 3.5z" glyph-name="ft" horiz-adv-x="717"/><glyph d="M282 632q-36 0-52-18t-16-57v-50h192v43q0 98 54 149t159 51q54 0 109-14t110-41V507h158V407H838V179q0-43 16-62t52-19q18 0 36.5 4t39.5 12l29-97Q983 4 949-3t-67-7q-79 0-119 47.5T723 179v228H521V0H406v407H214V0H99v407H17v100h82v50q0 89 44.5 136T274 740q24 0 49-4t51-12l-30-100q-16 4-32.5 6t-29.5 2zm340 10q-54 0-77.5-22T521 550v-43h202v121q-28 7-52 10.5t-49 3.5z" glyph-name="fft" horiz-adv-x="1024"/><glyph d="M847 281v-54q0-112-55.5-174.5T635-10q-54 0-109 15T416 50v578q-28 7-52 10.5t-49 3.5q-54 0-77.5-22T214 550v-43h138V407H214V0H99v407H17v100h82v43q0 98 54 149t159 51q54 0 109-14t110-41V440q42 42 75 59.5t72 17.5q80 0 124.5-62T847 281zM647 410q-28 0-54.5-16T531 341V114q26-11 48.5-16t45.5-5q52 0 78 33.5T729 227v54q0 64-20.5 96.5T647 410z" glyph-name="fb" horiz-adv-x="901"/><glyph d="M282 632q-36 0-52-18t-16-57v-50h192v43q0 98 54 149t159 51q54 0 109-14t110-41V440q42 42 75 59.5t72 17.5q80 0 124.5-62t44.5-174v-54q0-112-55.5-174.5T942-10q-54 0-109 15T723 50v578q-28 7-52 10.5t-49 3.5q-54 0-77.5-22T521 550v-43h138V407H521V0H406v407H214V0H99v407H17v100h82v50q0 89 44.5 136T274 740q24 0 49-4t51-12l-30-100q-16 4-32.5 6t-29.5 2zm672-222q-28 0-54.5-16T838 341V114q26-11 48.5-16t45.5-5q52 0 78 33.5t26 100.5v54q0 64-20.5 96.5T954 410z" glyph-name="ffb" horiz-adv-x="1208"/><glyph d="M521 0H406v407H214V0H99v407H17v100h82v50q0 89 44.5 136T274 740q24 0 49-4t51-12l-30-100q-16 4-32.5 6t-29.5 2q-36 0-52-18t-16-57v-50h192v53q0 91 45.5 140.5T583 750q33 0 69-6.5t66-18.5l-28-99q-24 8-45.5 12t-40.5 4q-44 0-63.5-19.5T521 560v-53h158V407H521z" glyph-name="ff" horiz-adv-x="684" unicode="ﬀ"/><glyph d="M521 0H406v407H214V0H99v407H17v100h82v50q0 89 44.5 136T274 740q24 0 49-4t51-12l-30-100q-16 4-32.5 6t-29.5 2q-36 0-52-18t-16-57v-50h192v50q0 89 44.5 136T581 740q24 0 49-4t51-12l-30-100q-16 4-32.5 6t-29.5 2q-36 0-52-18t-16-57v-50h192v53q0 91 45.5 140.5T890 750q33 0 69-6.5t66-18.5l-28-99q-24 8-45.5 12t-40.5 4q-44 0-63.5-19.5T828 560v-53h158V407H828V0H713v407H521z" glyph-name="fff" horiz-adv-x="991"/><glyph d="M352 507V407H214V0H99v407H17v100h82v43q0 98 54 149t159 51q54 0 109-14t110-41V444q45 38 85 55.5t83 17.5q72 0 110.5-46T848 340V0H733v326q0 43-17 63.5T664 410q-30 0-62-14.5T531 351V0H416v628q-28 7-52 10.5t-49 3.5q-54 0-77.5-22T214 550v-43z" glyph-name="fh" horiz-adv-x="921"/><glyph d="M521 0H406v407H214V0H99v407H17v100h82v50q0 89 44.5 136T274 740q24 0 49-4t51-12l-30-100q-16 4-32.5 6t-29.5 2q-36 0-52-18t-16-57v-50h192v43q0 98 54 149t159 51q54 0 109-14t110-41V444q45 38 85 55.5t83 17.5q72 0 110.5-46t38.5-131V0h-115v326q0 43-17 63.5T971 410q-30 0-62-14.5T838 351V0H723v628q-28 7-52 10.5t-49 3.5q-54 0-77.5-22T521 550v-43h138V407H521z" glyph-name="ffh" horiz-adv-x="1228"/><glyph d="M312 642q-52 0-75-22t-23-70v-43h307V-4q0-110-55-164.5T302-223v108q55 0 79.5 26.5T406-4v411H214V0H99v407H17v100h82v43q0 98 53.5 149T309 750q48 0 94.5-11t91.5-33l-42-94q-40 15-74.5 22.5T312 642z" glyph-name="fj" horiz-adv-x="600"/><glyph d="M619 642q-52 0-75-22t-23-70v-43h307V-4q0-110-55-164.5T609-223v108q55 0 79.5 26.5T713-4v411H521V0H406v407H214V0H99v407H17v100h82v50q0 89 44.5 136T274 740q24 0 49-4t51-12l-30-100q-16 4-32.5 6t-29.5 2q-36 0-52-18t-16-57v-50h192v43q0 98 53.5 149T616 750q48 0 94.5-11t91.5-33l-42-94q-40 15-74.5 22.5T619 642z" glyph-name="ffj" horiz-adv-x="907"/><glyph d="M352 507V407H214V0H99v407H17v100h82v43q0 98 54 149t159 51q54 0 109-14t110-41V278q58 59 99.5 113T706 507h132q-30-54-68-107.5T680 284L858 0H719L594 211q-15-15-30.5-30T531 151V0H416v628q-28 7-52 10.5t-49 3.5q-54 0-77.5-22T214 550v-43z" glyph-name="fk" horiz-adv-x="869"/><glyph d="M521 0H406v407H214V0H99v407H17v100h82v50q0 89 44.5 136T274 740q24 0 49-4t51-12l-30-100q-16 4-32.5 6t-29.5 2q-36 0-52-18t-16-57v-50h192v43q0 98 54 149t159 51q54 0 109-14t110-41V278q58 59 99.5 113t75.5 116h132q-30-54-68-107.5T987 284L1165 0h-139L901 211q-15-15-30.5-30T838 151V0H723v628q-28 7-52 10.5t-49 3.5q-54 0-77.5-22T521 550v-43h138V407H521z" glyph-name="ffk" horiz-adv-x="1176"/><glyph d="M581 0H456l-42 133H181L139 0H20l227 680h106zM298 513l-52-172-31-98h164l-31 98zm156 359L351 752H250l96 166z" glyph-name="Aacute" horiz-adv-x="601" unicode="Á"/><glyph d="M581 0H456l-42 133H181L139 0H20l227 680h106zM298 513l-52-172-31-98h164l-31 98zm154 239h-93l-61 80-61-80h-89l96 161h112z" glyph-name="Acircumflex" horiz-adv-x="601" unicode="Â"/><glyph d="M581 0H456l-42 133H181L139 0H20l227 680h106zM298 513l-52-172-31-98h164l-31 98zm-40 376V782H149v107zm194 0V782H343v107z" glyph-name="Adieresis" horiz-adv-x="601" unicode="Ä"/><glyph d="M581 0H456l-42 133H181L139 0H20l227 680h106zM298 513l-52-172-31-98h164l-31 98zm52 239H249L146 872l108 46z" glyph-name="Agrave" horiz-adv-x="601" unicode="À"/><glyph d="M414 133H181L139 0H20l211 632q-24 14-37 39t-13 57v11q0 51 33 82.5t87 31.5q54 0 87-31.5t33-82.5v-11q0-32-13.5-57.5T370 631L581 0H456zm-64 595v11q0 22-13.5 35T301 787q-22 0-35.5-13T252 739v-11q0-22 13.5-35t35.5-13q22 0 35.5 13t13.5 35zm-52-215l-52-172-31-98h164l-31 98z" glyph-name="Aring" horiz-adv-x="601" unicode="Å"/><glyph d="M581 0H456l-42 133H181L139 0H20l227 680h106zM298 513l-52-172-31-98h164l-31 98zm61 248q-20 0-37.5 9.5T281 807q-14 17-20.5 21.5T247 833q-10 0-13.5-14t-4.5-50h-81q0 77 23 115.5t70 38.5q20 0 37.5-9.5T319 877q14-17 20.5-21.5T353 851q10 0 13.5 14t4.5 50h81q0-78-23-116t-70-38z" glyph-name="Atilde" horiz-adv-x="601" unicode="Ã"/><glyph d="M581 0H456l-42 133H181L139 0H20l227 680h106zM298 513l-52-172-31-98h164l-31 98zm2 326q23 0 34.5 15.5T347 904h87q-5-72-39-109t-95-37q-61 0-95 37t-39 109h87q1-33 12.5-49t34.5-16z" glyph-name="Abreve" horiz-adv-x="601" unicode="Ă"/><glyph d="M581 0H456l-42 133H181L139 0H20l227 680h106zM298 513l-52-172-31-98h164l-31 98zM149 865h303v-83H149z" glyph-name="Amacron" horiz-adv-x="601" unicode="Ā"/><glyph d="M565-124l16-83q-20-8-40.5-12t-40.5-4q-52 0-82 24.5T388-132q0 29 17 58t54 63l-45 144H181L139 0H20l227 680h106L581 0q-49-41-71-66.5T488-108q0-12 7.5-18.5T518-133q10 0 21.5 2t25.5 7zM298 513l-52-172-31-98h164l-31 98z" glyph-name="Aogonek" horiz-adv-x="601" unicode="Ą"/><glyph d="M411-124q0-47-33.5-73T285-223q-20 0-39.5 3.5T200-208l13 69q20-5 39-8t33-3q19 0 29 6t10 18q0 11-10 17.5t-29 6.5q-7 0-12.5-.5T258-105l-25 32 12 71q-87 21-134.5 92T63 269v143q0 129 67 203.5T316 690q44 0 88.5-10.5T497 648l-37-106q-47 19-78 27t-59 8q-67 0-102-42t-35-123V269q0-81 35-123.5T323 103q31 0 63.5 8t79.5 27l37-104q-50-22-95-33t-88-11l-5-29q46-2 71-24.5t25-60.5z" glyph-name="Ccedilla" horiz-adv-x="534" unicode="Ç"/><glyph d="M186 412V269q0-81 35-123.5T323 103q31 0 63.5 8t79.5 27l37-104q-51-22-96.5-33T316-10q-119 0-186 74.5T63 269v143q0 129 67 203.5T316 690q44 0 88.5-10.5T497 648l-37-106q-47 19-78 27t-59 8q-67 0-102-42t-35-123zm278 460L361 752H260l96 166z" glyph-name="Cacute" horiz-adv-x="534" unicode="Ć"/><glyph d="M186 412V269q0-81 35-123.5T323 103q31 0 63.5 8t79.5 27l37-104q-51-22-96.5-33T316-10q-119 0-186 74.5T63 269v143q0 129 67 203.5T316 690q44 0 88.5-10.5T497 648l-37-106q-47 19-78 27t-59 8q-67 0-102-42t-35-123zm186 501h89l-96-161H253l-96 161h93l61-80z" glyph-name="Ccaron" horiz-adv-x="534" unicode="Č"/><glyph d="M186 412V269q0-81 35-123.5T323 103q31 0 63.5 8t79.5 27l37-104q-51-22-96.5-33T316-10q-119 0-186 74.5T63 269v143q0 129 67 203.5T316 690q44 0 88.5-10.5T497 648l-37-106q-47 19-78 27t-59 8q-67 0-102-42t-35-123zm275 340h-93l-61 80-61-80h-89l96 161h112z" glyph-name="Ccircumflex" horiz-adv-x="534" unicode="Ĉ"/><glyph d="M186 412V269q0-81 35-123.5T323 103q31 0 63.5 8t79.5 27l37-104q-51-22-96.5-33T316-10q-119 0-186 74.5T63 269v143q0 129 67 203.5T316 690q44 0 88.5-10.5T497 648l-37-106q-47 19-78 27t-59 8q-67 0-102-42t-35-123zm185 483V776H250v119z" glyph-name="Cdotaccent" horiz-adv-x="534" unicode="Ċ"/><glyph d="M324 0H94v680h230q122 0 186-68.5T574 412V269q0-132-64-200.5T324 0zm-5 565H214V115h105q71 0 101.5 35.5T451 269v143q0 82-30.5 117.5T319 565zm62 348h89l-96-161H262l-96 161h93l61-80z" glyph-name="Dcaron" horiz-adv-x="639" unicode="Ď"/><glyph d="M21 290v109h82v281h230q122 0 186-68.5T583 412V269q0-132-64-200.5T333 0H103v290zm322 109V290H223V115h105q71 0 101.5 35.5T460 269v143q0 82-30.5 117.5T328 565H223V399z" glyph-name="Dcroat" horiz-adv-x="648" unicode="Đ"/><glyph d="M214 115h274V0H94v680h384V565H214V402h234V287H214zm226 757L337 752H236l96 166z" glyph-name="Eacute" horiz-adv-x="536" unicode="É"/><glyph d="M214 115h274V0H94v680h384V565H214V402h234V287H214zm223 637h-93l-61 80-61-80h-89l96 161h112z" glyph-name="Ecircumflex" horiz-adv-x="536" unicode="Ê"/><glyph d="M214 115h274V0H94v680h384V565H214V402h234V287H214zm30 774V782H135v107zm194 0V782H329v107z" glyph-name="Edieresis" horiz-adv-x="536" unicode="Ë"/><glyph d="M214 115h274V0H94v680h384V565H214V402h234V287H214zm122 637H235L132 872l108 46z" glyph-name="Egrave" horiz-adv-x="536" unicode="È"/><glyph d="M214 115h274V0H94v680h384V565H214V402h234V287H214zm72 724q23 0 34.5 15.5T333 904h87q-5-72-39-109t-95-37q-61 0-95 37t-39 109h87q1-33 12.5-49t34.5-16z" glyph-name="Ebreve" horiz-adv-x="536" unicode="Ĕ"/><glyph d="M214 115h274V0H94v680h384V565H214V402h234V287H214zm134 798h89l-96-161H229l-96 161h93l61-80z" glyph-name="Ecaron" horiz-adv-x="536" unicode="Ě"/><glyph d="M214 115h274V0H94v680h384V565H214V402h234V287H214zm133 780V776H226v119z" glyph-name="Edotaccent" horiz-adv-x="536" unicode="Ė"/><glyph d="M214 115h274V0H94v680h384V565H214V402h234V287H214zm-79 750h303v-83H135z" glyph-name="Emacron" horiz-adv-x="536" unicode="Ē"/><glyph d="M472-124l16-83q-20-8-40.5-12t-40.5-4q-52 0-82 24.5T295-132q0 32 20 63.5T379 0H94v680h384V565H214V402h234V287H214V115h274V0q-49-41-71-66.5T395-108q0-12 7.5-18.5T425-133q10 0 21.5 2t25.5 7z" glyph-name="Eogonek" horiz-adv-x="536" unicode="Ę"/><glyph d="M544 374V44q-41-24-99-39T327-10q-123 0-193.5 75T63 269v143q0 131 70.5 204.5T332 690q49 0 96-10.5t98-33.5l-37-105q-53 20-87.5 28t-67.5 8q-73 0-110.5-42T186 412V269q0-78 38-121t109-43q22 0 49.5 4t52.5 11v149H325v105zM326 839q23 0 34.5 15.5T373 904h87q-5-72-39-109t-95-37q-61 0-95 37t-39 109h87q1-33 12.5-49t34.5-16z" glyph-name="Gbreve" horiz-adv-x="603" unicode="Ğ"/><glyph d="M544 374V44q-41-24-99-39T327-10q-123 0-193.5 75T63 269v143q0 131 70.5 204.5T332 690q49 0 96-10.5t98-33.5l-37-105q-53 20-87.5 28t-67.5 8q-73 0-110.5-42T186 412V269q0-78 38-121t109-43q22 0 49.5 4t52.5 11v149H325v105zm-66 378h-93l-61 80-61-80h-89l96 161h112z" glyph-name="Gcircumflex" horiz-adv-x="603" unicode="Ĝ"/><glyph d="M544 374V44q-41-24-99-39T327-10q-123 0-193.5 75T63 269v143q0 131 70.5 204.5T332 690q49 0 96-10.5t98-33.5l-37-105q-53 20-87.5 28t-67.5 8q-73 0-110.5-42T186 412V269q0-78 38-121t109-43q22 0 49.5 4t52.5 11v149H325v105zM388-77l-73-179-73 17 26 162z" glyph-name="Gcommaaccent" horiz-adv-x="603" unicode="Ģ"/><glyph d="M544 374V44q-41-24-99-39T327-10q-123 0-193.5 75T63 269v143q0 131 70.5 204.5T332 690q49 0 96-10.5t98-33.5l-37-105q-53 20-87.5 28t-67.5 8q-73 0-110.5-42T186 412V269q0-78 38-121t109-43q22 0 49.5 4t52.5 11v149H325v105zM387 895V776H266v119z" glyph-name="Gdotaccent" horiz-adv-x="603" unicode="Ġ"/><glyph d="M477 287H223V0H103v501H21v87h82v92h120v-92h254v92h120v-92h82v-87h-82V0H477zM223 501v-99h254v99z" glyph-name="Hbar" horiz-adv-x="700" unicode="Ħ"/><glyph d="M588 0H468v287H214V0H94v680h120V402h254v278h120zm-96 752h-93l-61 80-61-80h-89l96 161h112z" glyph-name="Hcircumflex" horiz-adv-x="682" unicode="Ĥ"/><glyph d="M214 680V0H94v680zm94 192L205 752H104l96 166z" glyph-name="Iacute" horiz-adv-x="308" unicode="Í"/><glyph d="M214 680V0H94v680zm91 72h-93l-61 80-61-80H1l96 161h112z" glyph-name="Icircumflex" horiz-adv-x="308" unicode="Î"/><glyph d="M214 680V0H94v680zM112 889V782H3v107zm194 0V782H197v107z" glyph-name="Idieresis" horiz-adv-x="308" unicode="Ï"/><glyph d="M214 680V0H94v680zm-10 72H103L0 872l108 46z" glyph-name="Igrave" horiz-adv-x="308" unicode="Ì"/><glyph d="M214 680V0H94v680zm-60 159q23 0 34.5 15.5T201 904h87q-5-72-39-109t-95-37q-61 0-95 37T20 904h87q1-33 12.5-49t34.5-16z" glyph-name="Ibreve" horiz-adv-x="308" unicode="Ĭ"/><glyph d="M214 680V0H94v680zm1 215V776H94v119z" glyph-name="Idotaccent" horiz-adv-x="308" unicode="İ"/><glyph d="M214 680V0H94v680zM3 865h303v-83H3z" glyph-name="Imacron" horiz-adv-x="308" unicode="Ī"/><glyph d="M213-124l16-83q-20-8-40.5-12t-40.5-4q-52 0-82 24.5T36-132q0 29 14.5 60.5T94-7v687h120V0q-39-31-58.5-57.5T136-106q0-14 7.5-20.5T166-133q10 0 21.5 2t25.5 7z" glyph-name="Iogonek" horiz-adv-x="308" unicode="Į"/><glyph d="M214 680V0H94v680zm-1 81q-20 0-37.5 9.5T135 807q-14 17-20.5 21.5T101 833q-10 0-13.5-14T83 769H2q0 77 23 115.5T95 923q20 0 37.5-9.5T173 877q14-17 20.5-21.5T207 851q10 0 13.5 14t4.5 50h81q0-78-23-116t-70-38z" glyph-name="Itilde" horiz-adv-x="308" unicode="Ĩ"/><glyph d="M26-10v115q84 0 119 32t35 107v436h120V244q0-135-65.5-194.5T26-10zm365 762h-93l-61 80-61-80H87l96 161h112z" glyph-name="Jcircumflex" horiz-adv-x="376" unicode="Ĵ"/><glyph d="M214 680V0H94v680zM334-10v115q84 0 119 32t35 107v436h120V244q0-135-65.5-194.5T334-10z" glyph-name="IJ" horiz-adv-x="684" unicode="Ĳ"/><glyph d="M600 0H455L285 297q-4-5-29.5-32.5T214 220V0H94v680h120V357q75 86 129.5 164.5T437 680h131q-45-89-93.5-165T374 376zM393-77l-73-179-73 17 26 162z" glyph-name="Kcommaaccent" horiz-adv-x="616" unicode="Ķ"/><glyph d="M571 474l78 211 73-17-31-194zM600 0H455L285 297q-4-5-29.5-32.5T214 220V0H94v680h120V357q75 86 129.5 164.5T437 680h131q-45-89-93.5-165T374 376z" glyph-name="kgreenlandic.case" horiz-adv-x="712"/><glyph d="M214 115h272V0H94v680h120zm93 757L204 752H103l96 166z" glyph-name="Lacute" horiz-adv-x="507" unicode="Ĺ"/><glyph d="M214 115h272V0H94v680h120zm188 565l-36-194h-77v194z" glyph-name="Lcaron" horiz-adv-x="507" unicode="Ľ"/><glyph d="M214 115h272V0H94v680h120zM354-77l-73-179-73 17 26 162z" glyph-name="Lcommaaccent" horiz-adv-x="507" unicode="Ļ"/><glyph d="M214 115h272V0H94v680h120zm254 329V325H347v119z" glyph-name="Ldot" horiz-adv-x="507" unicode="Ŀ"/><glyph d="M209 0H94v680h110q81-106 151.5-220.5T483 227l-9 203v250h115V0H479q-99 196-160 303.5T201 494l8-234zm192 761q-20 0-37.5 9.5T323 807q-14 17-20.5 21.5T289 833q-10 0-13.5-14t-4.5-50h-81q0 77 23 115.5t70 38.5q20 0 37.5-9.5T361 877q14-17 20.5-21.5T395 851q10 0 13.5 14t4.5 50h81q0-78-23-116t-70-38z" glyph-name="Ntilde" horiz-adv-x="683" unicode="Ñ"/><glyph d="M209 0H94v680h110q81-106 151.5-220.5T483 227l-9 203v250h115V0H479q-99 196-160 303.5T201 494l8-234zm287 872L393 752H292l96 166z" glyph-name="Nacute" horiz-adv-x="683" unicode="Ń"/><glyph d="M209 0H94v680h110q81-106 151.5-220.5T483 227l-9 203v250h115V0H479q-99 196-160 303.5T201 494l8-234zm194 913h89l-96-161H284l-96 161h93l61-80z" glyph-name="Ncaron" horiz-adv-x="683" unicode="Ň"/><glyph d="M209 0H94v680h110q81-106 151.5-220.5T483 227l-9 203v250h115V0H479q-99 196-160 303.5T201 494l8-234zm193-77l-73-179-73 17 26 162z" glyph-name="Ncommaaccent" horiz-adv-x="683" unicode="Ņ"/><glyph d="M474 430v250h115V31q0-135-65.5-194.5T315-223v115q82 0 118 27.5T473 11q-94 187-154.5 293.5T201 494l8-234V0H94v680h110q77-101 147-215.5T483 225z" glyph-name="Eng" horiz-adv-x="683" unicode="Ŋ"/><glyph d="M360 0H245v680h110q81-106 151.5-220.5T634 227l-9 203v250h115V0H630q-99 196-160 303.5T352 494l8-234zM37 680h112v-19q0-74-21.5-139.5T57 378l-72 39q30 64 41 114t11 149z" glyph-name="napostrophe.case" horiz-adv-x="834"/><glyph d="M320 690q122 0 188.5-72.5T575 412V269q0-133-66.5-206T320-10q-123 0-189 72.5T65 269v143q0 133 66 205.5T320 690zm132-421v143q0 84-32.5 124.5T320 577q-67 0-99.5-40.5T188 412V269q0-84 32.5-125t99.5-41q67 0 99.5 41T452 269zm22 603L371 752H270l96 166z" glyph-name="Oacute" horiz-adv-x="640" unicode="Ó"/><glyph d="M320 690q122 0 188.5-72.5T575 412V269q0-133-66.5-206T320-10q-123 0-189 72.5T65 269v143q0 133 66 205.5T320 690zm132-421v143q0 84-32.5 124.5T320 577q-67 0-99.5-40.5T188 412V269q0-84 32.5-125t99.5-41q67 0 99.5 41T452 269zm19 483h-93l-61 80-61-80h-89l96 161h112z" glyph-name="Ocircumflex" horiz-adv-x="640" unicode="Ô"/><glyph d="M320 690q122 0 188.5-72.5T575 412V269q0-133-66.5-206T320-10q-123 0-189 72.5T65 269v143q0 133 66 205.5T320 690zm132-421v143q0 84-32.5 124.5T320 577q-67 0-99.5-40.5T188 412V269q0-84 32.5-125t99.5-41q67 0 99.5 41T452 269zM278 889V782H169v107zm194 0V782H363v107z" glyph-name="Odieresis" horiz-adv-x="640" unicode="Ö"/><glyph d="M320 690q122 0 188.5-72.5T575 412V269q0-133-66.5-206T320-10q-123 0-189 72.5T65 269v143q0 133 66 205.5T320 690zm132-421v143q0 84-32.5 124.5T320 577q-67 0-99.5-40.5T188 412V269q0-84 32.5-125t99.5-41q67 0 99.5 41T452 269zm-82 483H269L166 872l108 46z" glyph-name="Ograve" horiz-adv-x="640" unicode="Ò"/><glyph d="M320 690q122 0 188.5-72.5T575 412V269q0-133-66.5-206T320-10q-123 0-189 72.5T65 269v143q0 133 66 205.5T320 690zm132-421v143q0 84-32.5 124.5T320 577q-67 0-99.5-40.5T188 412V269q0-84 32.5-125t99.5-41q67 0 99.5 41T452 269zm-73 492q-20 0-37.5 9.5T301 807q-14 17-20.5 21.5T267 833q-10 0-13.5-14t-4.5-50h-81q0 77 23 115.5t70 38.5q20 0 37.5-9.5T339 877q14-17 20.5-21.5T373 851q10 0 13.5 14t4.5 50h81q0-78-23-116t-70-38z" glyph-name="Otilde" horiz-adv-x="640" unicode="Õ"/><glyph d="M320 690q122 0 188.5-72.5T575 412V269q0-133-66.5-206T320-10q-123 0-189 72.5T65 269v143q0 133 66 205.5T320 690zm132-421v143q0 84-32.5 124.5T320 577q-67 0-99.5-40.5T188 412V269q0-84 32.5-125t99.5-41q67 0 99.5 41T452 269zM320 839q23 0 34.5 15.5T367 904h87q-5-72-39-109t-95-37q-61 0-95 37t-39 109h87q1-33 12.5-49t34.5-16z" glyph-name="Obreve" horiz-adv-x="640" unicode="Ŏ"/><glyph d="M320 690q122 0 188.5-72.5T575 412V269q0-133-66.5-206T320-10q-123 0-189 72.5T65 269v143q0 133 66 205.5T320 690zm132-421v143q0 84-32.5 124.5T320 577q-67 0-99.5-40.5T188 412V269q0-84 32.5-125t99.5-41q67 0 99.5 41T452 269zm-88 603l-73-120h-91l76 166zm150 0l-73-120h-91l76 166z" glyph-name="Ohungarumlaut" horiz-adv-x="640" unicode="Ő"/><glyph d="M320 690q122 0 188.5-72.5T575 412V269q0-133-66.5-206T320-10q-123 0-189 72.5T65 269v143q0 133 66 205.5T320 690zm132-421v143q0 84-32.5 124.5T320 577q-67 0-99.5-40.5T188 412V269q0-84 32.5-125t99.5-41q67 0 99.5 41T452 269zM169 865h303v-83H169z" glyph-name="Omacron" horiz-adv-x="640" unicode="Ō"/><glyph d="M322 250H214V0H94v680h227q100 0 157-51.5T535 487v-43q0-59-25-102.5T438 275q41-70 76-139T578 0H441q-25 62-54.5 125T322 250zm-1 320H214V360h107q43 0 67 22t24 62v43q0 39-24 61t-67 22zm138 302L356 752H255l96 166z" glyph-name="Racute" horiz-adv-x="609" unicode="Ŕ"/><glyph d="M322 250H214V0H94v680h227q100 0 157-51.5T535 487v-43q0-59-25-102.5T438 275q41-70 76-139T578 0H441q-25 62-54.5 125T322 250zm-1 320H214V360h107q43 0 67 22t24 62v43q0 39-24 61t-67 22zm46 343h89l-96-161H248l-96 161h93l61-80z" glyph-name="Rcaron" horiz-adv-x="609" unicode="Ř"/><glyph d="M322 250H214V0H94v680h227q100 0 157-51.5T535 487v-43q0-59-25-102.5T438 275q41-70 76-139T578 0H441q-25 62-54.5 125T322 250zm-1 320H214V360h107q43 0 67 22t24 62v43q0 39-24 61t-67 22zm62-647l-73-179-73 17 26 162z" glyph-name="Rcommaaccent" horiz-adv-x="609" unicode="Ŗ"/><glyph d="M242 101q59 0 87.5 21t28.5 65q0 35-18.5 55T276 277l-82 27q-74 24-110.5 72T47 497q0 91 56.5 142T264 690q47 0 92.5-10.5T455 646l-37-103q-52 20-85 28t-65 8q-51 0-75-18.5T169 503q0-33 18.5-53t61.5-34l82-27q76-25 112.5-73.5T480 191q0-97-61-149T244-10q-51 0-103 12.5T32 41l37 103q55-23 94.5-33t78.5-10zm87 812h89l-96-161H210l-96 161h93l61-80z" glyph-name="Scaron" horiz-adv-x="518" unicode="Š"/><glyph d="M242 101q59 0 87.5 21t28.5 65q0 35-18.5 55T276 277l-82 27q-74 24-110.5 72T47 497q0 91 56.5 142T264 690q47 0 92.5-10.5T455 646l-37-103q-52 20-85 28t-65 8q-51 0-75-18.5T169 503q0-33 18.5-53t61.5-34l82-27q76-25 112.5-73.5T480 191q0-97-61-149T244-10q-51 0-103 12.5T32 41l37 103q55-23 94.5-33t78.5-10zm178 771L317 752H216l96 166z" glyph-name="Sacute" horiz-adv-x="518" unicode="Ś"/><glyph d="M361-124q0-47-33.5-73T235-223q-20 0-39.5 3.5T150-208l13 69q20-5 39-8t33-3q19 0 29 6t10 18q0 11-10 17.5t-29 6.5q-7 0-12.5-.5T208-105l-25 32 11 66q-38 5-78.5 17T32 41l37 103q55-23 94.5-33t78.5-10q59 0 87.5 21t28.5 65q0 35-18.5 55T276 277l-82 27q-74 24-110.5 72T47 497q0 91 56.5 142T264 690q47 0 92.5-10.5T455 646l-37-103q-52 20-85 28t-65 8q-51 0-75-18.5T169 503q0-33 18.5-53t61.5-34l82-27q76-25 112.5-73.5T480 191q0-91-54-142.5T270-9l-5-30q46-2 71-24.5t25-60.5z" glyph-name="Scedilla" horiz-adv-x="518" unicode="Ş"/><glyph d="M242 101q59 0 87.5 21t28.5 65q0 35-18.5 55T276 277l-82 27q-74 24-110.5 72T47 497q0 91 56.5 142T264 690q47 0 92.5-10.5T455 646l-37-103q-52 20-85 28t-65 8q-51 0-75-18.5T169 503q0-33 18.5-53t61.5-34l82-27q76-25 112.5-73.5T480 191q0-97-61-149T244-10q-51 0-103 12.5T32 41l37 103q55-23 94.5-33t78.5-10zm176 651h-93l-61 80-61-80h-89l96 161h112z" glyph-name="Scircumflex" horiz-adv-x="518" unicode="Ŝ"/><glyph d="M242 101q59 0 87.5 21t28.5 65q0 35-18.5 55T276 277l-82 27q-74 24-110.5 72T47 497q0 91 56.5 142T264 690q47 0 92.5-10.5T455 646l-37-103q-52 20-85 28t-65 8q-51 0-75-18.5T169 503q0-33 18.5-53t61.5-34l82-27q76-25 112.5-73.5T480 191q0-97-61-149T244-10q-51 0-103 12.5T32 41l37 103q55-23 94.5-33t78.5-10zm79-178l-73-179-73 17 26 162z" glyph-name="uni0218" horiz-adv-x="518" unicode="Ș"/><glyph d="M435 366v-87H323V0H203v279H91v87h112v199H13v115h500V565H323V366z" glyph-name="Tbar" horiz-adv-x="526" unicode="Ŧ"/><glyph d="M203 565H13v115h500V565H323V0H203zm122 348h89l-96-161H206l-96 161h93l61-80z" glyph-name="Tcaron" horiz-adv-x="526" unicode="Ť"/><glyph d="M203 565H13v115h500V565H323V0H203zM323-77l-73-179-73 17 26 162z" glyph-name="uni0162" horiz-adv-x="526" unicode="Ţ"/><glyph d="M203 565H13v115h500V565H323V0H203zM323-77l-73-179-73 17 26 162z" glyph-name="uni021A" horiz-adv-x="526" unicode="Ț"/><glyph d="M78 244v436h123V244q0-70 30.5-105.5T323 103q61 0 91.5 35.5T445 244v436h123V244q0-121-63.5-187.5T323-10q-118 0-181.5 66T78 244zm399 628L374 752H273l96 166z" glyph-name="Uacute" horiz-adv-x="646" unicode="Ú"/><glyph d="M78 244v436h123V244q0-70 30.5-105.5T323 103q61 0 91.5 35.5T445 244v436h123V244q0-121-63.5-187.5T323-10q-118 0-181.5 66T78 244zm396 508h-93l-61 80-61-80h-89l96 161h112z" glyph-name="Ucircumflex" horiz-adv-x="646" unicode="Û"/><glyph d="M78 244v436h123V244q0-70 30.5-105.5T323 103q61 0 91.5 35.5T445 244v436h123V244q0-121-63.5-187.5T323-10q-118 0-181.5 66T78 244zm203 645V782H172v107zm194 0V782H366v107z" glyph-name="Udieresis" horiz-adv-x="646" unicode="Ü"/><glyph d="M78 244v436h123V244q0-70 30.5-105.5T323 103q61 0 91.5 35.5T445 244v436h123V244q0-121-63.5-187.5T323-10q-118 0-181.5 66T78 244zm295 508H272L169 872l108 46z" glyph-name="Ugrave" horiz-adv-x="646" unicode="Ù"/><glyph d="M78 244v436h123V244q0-70 30.5-105.5T323 103q61 0 91.5 35.5T445 244v436h123V244q0-121-63.5-187.5T323-10q-118 0-181.5 66T78 244zm245 595q23 0 34.5 15.5T370 904h87q-5-72-39-109t-95-37q-61 0-95 37t-39 109h87q1-33 12.5-49t34.5-16z" glyph-name="Ubreve" horiz-adv-x="646" unicode="Ŭ"/><glyph d="M78 244v436h123V244q0-70 30.5-105.5T323 103q61 0 91.5 35.5T445 244v436h123V244q0-121-63.5-187.5T323-10q-118 0-181.5 66T78 244zm289 628l-73-120h-91l76 166zm150 0l-73-120h-91l76 166z" glyph-name="Uhungarumlaut" horiz-adv-x="646" unicode="Ű"/><glyph d="M78 244v436h123V244q0-70 30.5-105.5T323 103q61 0 91.5 35.5T445 244v436h123V244q0-121-63.5-187.5T323-10q-118 0-181.5 66T78 244zm93 621h303v-83H171z" glyph-name="Umacron" horiz-adv-x="646" unicode="Ū"/><glyph d="M431-124l16-83q-20-8-40.5-12t-40.5-4q-52 0-82 25t-30 68q0 29 15.5 57.5T320-10Q203-9 140.5 57T78 244v436h123V244q0-70 30.5-105.5T323 103q61 0 91.5 35.5T445 244v436h123V244q0-64-17.5-113T500 52Q406-31 380-60t-26-48q0-12 7.5-18.5T384-133q10 0 21.5 2t25.5 7z" glyph-name="Uogonek" horiz-adv-x="646" unicode="Ų"/><glyph d="M78 244v436h123V244q0-70 30.5-105.5T323 103q61 0 91.5 35.5T445 244v436h123V244q0-121-63.5-187.5T323-10q-118 0-181.5 66T78 244zm245 732q54 0 87-31.5t33-82.5v-11q0-52-33-83.5T323 736q-54 0-87 31.5T203 851v11q0 51 33 82.5t87 31.5zm49-125v11q0 22-13.5 35T323 910q-22 0-35.5-13T274 862v-11q0-22 13.5-35t35.5-13q22 0 35.5 13t13.5 35z" glyph-name="Uring" horiz-adv-x="646" unicode="Ů"/><glyph d="M78 244v436h123V244q0-70 30.5-105.5T323 103q61 0 91.5 35.5T445 244v436h123V244q0-121-63.5-187.5T323-10q-118 0-181.5 66T78 244zm304 517q-20 0-37.5 9.5T304 807q-14 17-20.5 21.5T270 833q-10 0-13.5-14t-4.5-50h-81q0 77 23 115.5t70 38.5q20 0 37.5-9.5T342 877q14-17 20.5-21.5T376 851q10 0 13.5 14t4.5 50h81q0-78-23-116t-70-38z" glyph-name="Utilde" horiz-adv-x="646" unicode="Ũ"/><glyph d="M156 680l52-269 38-252 136 521h108l135-517 42 248 52 269h122L688 0H565L434 506 302 0H179L26 680zm432 192L485 752H384l96 166z" glyph-name="Wacute" horiz-adv-x="867" unicode="Ẃ"/><glyph d="M156 680l52-269 38-252 136 521h108l135-517 42 248 52 269h122L688 0H565L434 506 302 0H179L26 680zm428 72h-93l-61 80-61-80h-89l96 161h112z" glyph-name="Wcircumflex" horiz-adv-x="867" unicode="Ŵ"/><glyph d="M156 680l52-269 38-252 136 521h108l135-517 42 248 52 269h122L688 0H565L434 506 302 0H179L26 680zm235 209V782H282v107zm194 0V782H476v107z" glyph-name="Wdieresis" horiz-adv-x="867" unicode="Ẅ"/><glyph d="M156 680l52-269 38-252 136 521h108l135-517 42 248 52 269h122L688 0H565L434 506 302 0H179L26 680zm328 72H383L280 872l108 46z" glyph-name="Wgrave" horiz-adv-x="867" unicode="Ẁ"/><glyph d="M417 680h124L333 273V0H213v271L3 680h128l147-290zm9 192L323 752H222l96 166z" glyph-name="Yacute" horiz-adv-x="544" unicode="Ý"/><glyph d="M417 680h124L333 273V0H213v271L3 680h128l147-290zM230 889V782H121v107zm194 0V782H315v107z" glyph-name="Ydieresis" horiz-adv-x="544" unicode="Ÿ"/><glyph d="M417 680h124L333 273V0H213v271L3 680h128l147-290zm6 72h-93l-61 80-61-80h-89l96 161h112z" glyph-name="Ycircumflex" horiz-adv-x="544" unicode="Ŷ"/><glyph d="M417 680h124L333 273V0H213v271L3 680h128l147-290zm-95 72H221L118 872l108 46z" glyph-name="Ygrave" horiz-adv-x="544" unicode="Ỳ"/><glyph d="M179 115h294V0H38v105l284 460H48v115h415V575zm138 798h89l-96-161H198l-96 161h93l61-80z" glyph-name="Zcaron" horiz-adv-x="509" unicode="Ž"/><glyph d="M179 115h294V0H38v105l284 460H48v115h415V575zm229 757L305 752H204l96 166z" glyph-name="Zacute" horiz-adv-x="509" unicode="Ź"/><glyph d="M179 115h294V0H38v105l284 460H48v115h415V575zm136 780V776H194v119z" glyph-name="Zdotaccent" horiz-adv-x="509" unicode="Ż"/><glyph d="M486-5h-23q-46 0-78.5 19T337 68q-44-41-84.5-59.5T168-10q-62 0-96 40T38 142q0 76 43.5 112.5T213 291q23 0 49.5-3t60.5-9v59q0 38-20.5 55.5T238 411q-32 0-68-8.5T96 378l-33 98q51 21 96 31t87 10q93 0 140-45t47-134V143q0-20 11-31t31-11h11zM221 206q-37 0-54.5-15T149 144q0-28 12-43t35-15q31 0 61 16.5t66 51.5v43q-26 5-51.5 7t-50.5 2zm175 493L293 579H192l96 166z" glyph-name="aacute" horiz-adv-x="507" unicode="á"/><glyph d="M486-5h-23q-46 0-78.5 19T337 68q-44-41-84.5-59.5T168-10q-62 0-96 40T38 142q0 76 43.5 112.5T213 291q23 0 49.5-3t60.5-9v59q0 38-20.5 55.5T238 411q-32 0-68-8.5T96 378l-33 98q51 21 96 31t87 10q93 0 140-45t47-134V143q0-20 11-31t31-11h11zM221 206q-37 0-54.5-15T149 144q0-28 12-43t35-15q31 0 61 16.5t66 51.5v43q-26 5-51.5 7t-50.5 2zm173 373h-93l-61 80-61-80H90l96 161h112z" glyph-name="acircumflex" horiz-adv-x="507" unicode="â"/><glyph d="M486-5h-23q-46 0-78.5 19T337 68q-44-41-84.5-59.5T168-10q-62 0-96 40T38 142q0 76 43.5 112.5T213 291q23 0 49.5-3t60.5-9v59q0 38-20.5 55.5T238 411q-32 0-68-8.5T96 378l-33 98q51 21 96 31t87 10q93 0 140-45t47-134V143q0-20 11-31t31-11h11zM221 206q-37 0-54.5-15T149 144q0-28 12-43t35-15q31 0 61 16.5t66 51.5v43q-26 5-51.5 7t-50.5 2zm-21 510V609H91v107zm194 0V609H285v107z" glyph-name="adieresis" horiz-adv-x="507" unicode="ä"/><glyph d="M486-5h-23q-46 0-78.5 19T337 68q-44-41-84.5-59.5T168-10q-62 0-96 40T38 142q0 76 43.5 112.5T213 291q23 0 49.5-3t60.5-9v59q0 38-20.5 55.5T238 411q-32 0-68-8.5T96 378l-33 98q51 21 96 31t87 10q93 0 140-45t47-134V143q0-20 11-31t31-11h11zM221 206q-37 0-54.5-15T149 144q0-28 12-43t35-15q31 0 61 16.5t66 51.5v43q-26 5-51.5 7t-50.5 2zm71 373H191L88 699l108 46z" glyph-name="agrave" horiz-adv-x="507" unicode="à"/><glyph d="M486-5h-23q-46 0-78.5 19T337 68q-44-41-84.5-59.5T168-10q-62 0-96 40T38 142q0 76 43.5 112.5T213 291q23 0 49.5-3t60.5-9v59q0 38-20.5 55.5T238 411q-32 0-68-8.5T96 378l-33 98q51 21 96 31t87 10q93 0 140-45t47-134V143q0-20 11-31t31-11h11zM221 206q-37 0-54.5-15T149 144q0-28 12-43t35-15q31 0 61 16.5t66 51.5v43q-26 5-51.5 7t-50.5 2zm21 597q54 0 87-31.5t33-82.5v-11q0-52-33-83.5T242 563q-54 0-87 31.5T122 678v11q0 51 33 82.5t87 31.5zm49-125v11q0 22-13.5 35T242 737q-22 0-35.5-13T193 689v-11q0-22 13.5-35t35.5-13q22 0 35.5 13t13.5 35z" glyph-name="aring" horiz-adv-x="507" unicode="å"/><glyph d="M486-5h-23q-46 0-78.5 19T337 68q-44-41-84.5-59.5T168-10q-62 0-96 40T38 142q0 76 43.5 112.5T213 291q23 0 49.5-3t60.5-9v59q0 38-20.5 55.5T238 411q-32 0-68-8.5T96 378l-33 98q51 21 96 31t87 10q93 0 140-45t47-134V143q0-20 11-31t31-11h11zM221 206q-37 0-54.5-15T149 144q0-28 12-43t35-15q31 0 61 16.5t66 51.5v43q-26 5-51.5 7t-50.5 2zm80 382q-20 0-37.5 9.5T223 634q-14 17-20.5 21.5T189 660q-10 0-13.5-14t-4.5-50H90q0 77 23 115.5t70 38.5q20 0 37.5-9.5T261 704q14-17 20.5-21.5T295 678q10 0 13.5 14t4.5 50h81q0-78-23-116t-70-38z" glyph-name="atilde" horiz-adv-x="507" unicode="ã"/><glyph d="M486-5h-23q-46 0-78.5 19T337 68q-44-41-84.5-59.5T168-10q-62 0-96 40T38 142q0 76 43.5 112.5T213 291q23 0 49.5-3t60.5-9v59q0 38-20.5 55.5T238 411q-32 0-68-8.5T96 378l-33 98q51 21 96 31t87 10q93 0 140-45t47-134V143q0-20 11-31t31-11h11zM221 206q-37 0-54.5-15T149 144q0-28 12-43t35-15q31 0 61 16.5t66 51.5v43q-26 5-51.5 7t-50.5 2zm21 460q23 0 34.5 15.5T289 731h87q-5-72-39-109t-95-37q-61 0-95 37t-39 109h87q1-33 12.5-49t34.5-16z" glyph-name="abreve" horiz-adv-x="507" unicode="ă"/><glyph d="M486-5h-23q-46 0-78.5 19T337 68q-44-41-84.5-59.5T168-10q-62 0-96 40T38 142q0 76 43.5 112.5T213 291q23 0 49.5-3t60.5-9v59q0 38-20.5 55.5T238 411q-32 0-68-8.5T96 378l-33 98q51 21 96 31t87 10q93 0 140-45t47-134V143q0-20 11-31t31-11h11zM221 206q-37 0-54.5-15T149 144q0-28 12-43t35-15q31 0 61 16.5t66 51.5v43q-26 5-51.5 7t-50.5 2zM91 692h303v-83H91z" glyph-name="amacron" horiz-adv-x="507" unicode="ā"/><glyph d="M470-124l16-83q-20-8-40.5-12t-40.5-4q-52 0-82 24.5T293-132q0 35 23.5 68.5T392 10q-18 9-32 24t-23 34q-44-41-84.5-59.5T168-10q-62 0-96 40T38 142q0 76 43.5 112.5T213 291q23 0 49.5-3t60.5-9v59q0 38-20.5 55.5T238 411q-32 0-68-8.5T96 378l-33 98q51 21 96 31t87 10q93 0 140-45t47-134V143q0-20 11-31t31-11h11V-5q-48-36-70.5-61T393-108q0-12 7.5-18.5T423-133q10 0 21.5 2t25.5 7zM221 206q-37 0-54.5-15T149 144q0-28 12-43t35-15q31 0 61 16.5t66 51.5v43q-26 5-51.5 7t-50.5 2z" glyph-name="aogonek" horiz-adv-x="507" unicode="ą"/><glyph d="M371-124q0-47-33.5-73T245-223q-20 0-39.5 3.5T160-208l13 69q20-5 39-8t33-3q19 0 29 6t10 18q0 11-10 17.5t-29 6.5q-7 0-12.5-.5T218-105l-25 32 11 69Q131 11 91.5 71T52 224v59q0 110 54.5 172T258 517q36 0 75-8.5t84-26.5l-33-99q-36 14-66 21t-54 7q-50 0-73.5-31T167 283v-59q0-66 23.5-97T264 96q27 0 58.5 7t66.5 20l33-97q-37-15-72.5-24T280-9l-5-30q46-2 71-24.5t25-60.5z" glyph-name="ccedilla" horiz-adv-x="448" unicode="ç"/><glyph d="M264 411q-50 0-73.5-31T167 283v-59q0-66 23.5-97T264 96q27 0 58.5 7t66.5 20l33-97Q376 7 336-1.5T258-10q-97 0-151.5 62T52 224v59q0 110 54.5 172T258 517q36 0 75-8.5t84-26.5l-33-99q-36 14-66 21t-54 7zm148 288L309 579H208l96 166z" glyph-name="cacute" horiz-adv-x="448" unicode="ć"/><glyph d="M264 411q-50 0-73.5-31T167 283v-59q0-66 23.5-97T264 96q27 0 58.5 7t66.5 20l33-97Q376 7 336-1.5T258-10q-97 0-151.5 62T52 224v59q0 110 54.5 172T258 517q36 0 75-8.5t84-26.5l-33-99q-36 14-66 21t-54 7zm56 329h89l-96-161H201l-96 161h93l61-80z" glyph-name="ccaron" horiz-adv-x="448" unicode="č"/><glyph d="M264 411q-50 0-73.5-31T167 283v-59q0-66 23.5-97T264 96q27 0 58.5 7t66.5 20l33-97Q376 7 336-1.5T258-10q-97 0-151.5 62T52 224v59q0 110 54.5 172T258 517q36 0 75-8.5t84-26.5l-33-99q-36 14-66 21t-54 7zm145 168h-93l-61 80-61-80h-89l96 161h112z" glyph-name="ccircumflex" horiz-adv-x="448" unicode="ĉ"/><glyph d="M264 411q-50 0-73.5-31T167 283v-59q0-66 23.5-97T264 96q27 0 58.5 7t66.5 20l33-97Q376 7 336-1.5T258-10q-97 0-151.5 62T52 224v59q0 110 54.5 172T258 517q36 0 75-8.5t84-26.5l-33-99q-36 14-66 21t-54 7zm55 311V603H198v119z" glyph-name="cdotaccent" horiz-adv-x="448" unicode="ċ"/><glyph d="M485 0H376v69q-43-43-76.5-61T227-10q-82 0-127.5 62T54 226v54q0 112 56.5 174.5T268 517q24 0 49.5-4.5T370 498v242h115zM172 280v-54q0-64 21.5-96.5T258 97q26 0 52 15.5t60 49.5v232q-25 10-47 15t-43 5q-54 0-81-33.5T172 280zm497 460l-36-194h-77v194z" glyph-name="dcaron" horiz-adv-x="651" unicode="ď"/><glyph d="M485 0H376v69q-43-43-76.5-61T227-10q-82 0-127.5 62T54 226v54q0 112 56.5 174.5T268 517q24 0 49.5-4.5T370 498v92H221v75h149v75h115v-75h82v-75h-82zM172 280v-54q0-64 21.5-96.5T258 97q26 0 52 15.5t60 49.5v232q-25 10-47 15t-43 5q-54 0-81-33.5T172 280z" glyph-name="dcroat" horiz-adv-x="564" unicode="đ"/><glyph d="M431 126l33-97Q415 9 369-.5T279-10q-109 0-169 61.5T50 224v60q0 106 57.5 169.5T263 517q91 0 148-55t57-150q0-22-3.5-46t-9.5-48H161q2-64 32-94t92-30q35 0 71.5 8t74.5 24zm-76 198q0 44-25 70t-67 26q-45 0-71-29.5T162 306h192q1 3 1 7v11zm63 375L315 579H214l96 166z" glyph-name="eacute" horiz-adv-x="521" unicode="é"/><glyph d="M431 126l33-97Q415 9 369-.5T279-10q-109 0-169 61.5T50 224v60q0 106 57.5 169.5T263 517q91 0 148-55t57-150q0-22-3.5-46t-9.5-48H161q2-64 32-94t92-30q35 0 71.5 8t74.5 24zm-76 198q0 44-25 70t-67 26q-45 0-71-29.5T162 306h192q1 3 1 7v11zm59 255h-93l-61 80-61-80h-89l96 161h112z" glyph-name="ecircumflex" horiz-adv-x="521" unicode="ê"/><glyph d="M431 126l33-97Q415 9 369-.5T279-10q-109 0-169 61.5T50 224v60q0 106 57.5 169.5T263 517q91 0 148-55t57-150q0-22-3.5-46t-9.5-48H161q2-64 32-94t92-30q35 0 71.5 8t74.5 24zm-76 198q0 44-25 70t-67 26q-45 0-71-29.5T162 306h192q1 3 1 7v11zM221 716V609H112v107zm194 0V609H306v107z" glyph-name="edieresis" horiz-adv-x="521" unicode="ë"/><glyph d="M431 126l33-97Q415 9 369-.5T279-10q-109 0-169 61.5T50 224v60q0 106 57.5 169.5T263 517q91 0 148-55t57-150q0-22-3.5-46t-9.5-48H161q2-64 32-94t92-30q35 0 71.5 8t74.5 24zm-76 198q0 44-25 70t-67 26q-45 0-71-29.5T162 306h192q1 3 1 7v11zm-41 255H213L110 699l108 46z" glyph-name="egrave" horiz-adv-x="521" unicode="è"/><glyph d="M431 126l33-97Q415 9 369-.5T279-10q-109 0-169 61.5T50 224v60q0 106 57.5 169.5T263 517q91 0 148-55t57-150q0-22-3.5-46t-9.5-48H161q2-64 32-94t92-30q35 0 71.5 8t74.5 24zm-76 198q0 44-25 70t-67 26q-45 0-71-29.5T162 306h192q1 3 1 7v11zm-91 342q23 0 34.5 15.5T311 731h87q-5-72-39-109t-95-37q-61 0-95 37t-39 109h87q1-33 12.5-49t34.5-16z" glyph-name="ebreve" horiz-adv-x="521" unicode="ĕ"/><glyph d="M431 126l33-97Q415 9 369-.5T279-10q-109 0-169 61.5T50 224v60q0 106 57.5 169.5T263 517q91 0 148-55t57-150q0-22-3.5-46t-9.5-48H161q2-64 32-94t92-30q35 0 71.5 8t74.5 24zm-76 198q0 44-25 70t-67 26q-45 0-71-29.5T162 306h192q1 3 1 7v11zm-30 416h89l-96-161H206l-96 161h93l61-80z" glyph-name="ecaron" horiz-adv-x="521" unicode="ě"/><glyph d="M431 126l33-97Q415 9 369-.5T279-10q-109 0-169 61.5T50 224v60q0 106 57.5 169.5T263 517q91 0 148-55t57-150q0-22-3.5-46t-9.5-48H161q2-64 32-94t92-30q35 0 71.5 8t74.5 24zm-76 198q0 44-25 70t-67 26q-45 0-71-29.5T162 306h192q1 3 1 7v11zm-31 398V603H203v119z" glyph-name="edotaccent" horiz-adv-x="521" unicode="ė"/><glyph d="M431 126l33-97Q415 9 369-.5T279-10q-109 0-169 61.5T50 224v60q0 106 57.5 169.5T263 517q91 0 148-55t57-150q0-22-3.5-46t-9.5-48H161q2-64 32-94t92-30q35 0 71.5 8t74.5 24zm-76 198q0 44-25 70t-67 26q-45 0-71-29.5T162 306h192q1 3 1 7v11zM112 692h303v-83H112z" glyph-name="emacron" horiz-adv-x="521" unicode="ē"/><glyph d="M441-124l16-83q-20-8-40.5-12t-40.5-4q-52 0-82 24.5T264-132q0 30 15.5 61.5T326-5q-17-3-31.5-4T267-10q-102 0-159.5 62.5T50 224v60q0 106 57.5 169.5T263 517q91 0 148-55t57-150q0-22-3.5-46t-9.5-48H161q2-64 32-94t92-30q35 0 71.5 8t74.5 24l33-97q-51-48-75.5-81.5T364-108q0-12 7.5-18.5T394-133q10 0 21.5 2t25.5 7zm-86 448q0 44-25 70t-67 26q-45 0-70.5-29T162 306h192q1 3 1 7v11z" glyph-name="eogonek" horiz-adv-x="521" unicode="ę"/><glyph d="M500-51q0-81-63.5-126.5T260-223q-61 0-118.5 13.5T39-171l33 91q45-22 92-33.5t95-11.5q61 0 95 16.5T388-63q0 21-13 32t-38 11H217q-64 0-100.5 30.5T80 91q0 27 12 52.5t35 49.5q-38 23-58.5 61T48 341q0 82 51.5 129T238 517h17q21 0 40-2.5t35-7.5h181v-98l-100 16q16-18 24-42t8-55q0-73-52.5-118T255 165h-17q-10 0-19.5 1t-18.5 2q-10-11-15.5-23.5T179 120q0-17 11.5-26t33.5-9h122q71 0 112.5-36.5T500-51zM238 259h17q34 0 56 22.5t22 59.5q0 37-22 59.5T255 423h-17q-35 0-57-22.5T159 341q0-37 22-59.5t57-22.5zm8 407q23 0 34.5 15.5T293 731h87q-5-72-39-109t-95-37q-61 0-95 37t-39 109h87q1-33 12.5-49t34.5-16z" glyph-name="gbreve" horiz-adv-x="531" unicode="ğ"/><glyph d="M500-51q0-81-63.5-126.5T260-223q-61 0-118.5 13.5T39-171l33 91q45-22 92-33.5t95-11.5q61 0 95 16.5T388-63q0 21-13 32t-38 11H217q-64 0-100.5 30.5T80 91q0 27 12 52.5t35 49.5q-38 23-58.5 61T48 341q0 82 51.5 129T238 517h17q21 0 40-2.5t35-7.5h181v-98l-100 16q16-18 24-42t8-55q0-73-52.5-118T255 165h-17q-10 0-19.5 1t-18.5 2q-10-11-15.5-23.5T179 120q0-17 11.5-26t33.5-9h122q71 0 112.5-36.5T500-51zM238 259h17q34 0 56 22.5t22 59.5q0 37-22 59.5T255 423h-17q-35 0-57-22.5T159 341q0-37 22-59.5t57-22.5zm158 320h-93l-61 80-61-80H92l96 161h112z" glyph-name="gcircumflex" horiz-adv-x="531" unicode="ĝ"/><glyph d="M500-51q0-81-63.5-126.5T260-223q-61 0-118.5 13.5T39-171l33 91q45-22 92-33.5t95-11.5q61 0 95 16.5T388-63q0 21-13 32t-38 11H217q-64 0-100.5 30.5T80 91q0 27 12 52.5t35 49.5q-38 23-58.5 61T48 341q0 82 51.5 129T238 517h17q21 0 40-2.5t35-7.5h181v-98l-100 16q16-18 24-42t8-55q0-73-52.5-118T255 165h-17q-10 0-19.5 1t-18.5 2q-10-11-15.5-23.5T179 120q0-17 11.5-26t33.5-9h122q71 0 112.5-36.5T500-51zM238 259h17q34 0 56 22.5t22 59.5q0 37-22 59.5T255 423h-17q-35 0-57-22.5T159 341q0-37 22-59.5t57-22.5zm-53 320l73 179 73-17-26-162z" glyph-name="gcommaaccent" horiz-adv-x="531" unicode="ģ"/><glyph d="M500-51q0-81-63.5-126.5T260-223q-61 0-118.5 13.5T39-171l33 91q45-22 92-33.5t95-11.5q61 0 95 16.5T388-63q0 21-13 32t-38 11H217q-64 0-100.5 30.5T80 91q0 27 12 52.5t35 49.5q-38 23-58.5 61T48 341q0 82 51.5 129T238 517h17q21 0 40-2.5t35-7.5h181v-98l-100 16q16-18 24-42t8-55q0-73-52.5-118T255 165h-17q-10 0-19.5 1t-18.5 2q-10-11-15.5-23.5T179 120q0-17 11.5-26t33.5-9h122q71 0 112.5-36.5T500-51zM238 259h17q34 0 56 22.5t22 59.5q0 37-22 59.5T255 423h-17q-35 0-57-22.5T159 341q0-37 22-59.5t57-22.5zm68 463V603H185v119z" glyph-name="gdotaccent" horiz-adv-x="531" unicode="ġ"/><glyph d="M327 410q-30 0-62-14.5T194 351V0H79v590H-3v75h82v75h115v-75h149v-75H194V444q45 38 85 55.5t83 17.5q72 0 110.5-46T511 340V0H396v326q0 43-17 63.5T327 410z" glyph-name="hbar" horiz-adv-x="584" unicode="ħ"/><glyph d="M327 410q-30 0-62-14.5T194 351V0H79v740h115V444q45 38 85 55.5t83 17.5q72 0 110.5-46T511 340V0H396v326q0 43-17 63.5T327 410zm66 402h-93l-61 80-61-80H89l96 161h112z" glyph-name="hcircumflex" horiz-adv-x="584" unicode="ĥ"/><glyph d="M194 507V0H79v507zm96 192L187 579H86l96 166z" glyph-name="iacute" horiz-adv-x="273" unicode="í"/><glyph d="M194 507V0H79v507zm94 72h-93l-61 80-61-80h-89l96 161h112z" glyph-name="icircumflex" horiz-adv-x="273" unicode="î"/><glyph d="M194 507V0H79v507zM94 716V609H-15v107zm194 0V609H179v107z" glyph-name="idieresis" horiz-adv-x="273" unicode="ï"/><glyph d="M194 507V0H79v507zm-8 72H85L-18 699l108 46z" glyph-name="igrave" horiz-adv-x="273" unicode="ì"/><glyph d="M194 507V0H79v507zm-58 159q23 0 34.5 15.5T183 731h87q-5-72-39-109t-95-37q-61 0-95 37T2 731h87q1-33 12.5-49t34.5-16z" glyph-name="ibreve" horiz-adv-x="273" unicode="ĭ"/><glyph d="M197 722V603H76v119zm-3-215V0H79v507z" glyph-name="i.dot" horiz-adv-x="273"/><glyph d="M194 507V0H79v507zM-15 692h303v-83H-15z" glyph-name="imacron" horiz-adv-x="273" unicode="ī"/><glyph d="M194 719V606H79v113zm-1-843l16-83q-20-8-40.5-12t-40.5-4q-52 0-82 24.5T16-132q0 30 16 63T79-2v509h115V0q-39-31-58.5-57.5T116-106q0-14 7.5-20.5T146-133q10 0 21.5 2t25.5 7z" glyph-name="iogonek" horiz-adv-x="273" unicode="į"/><glyph d="M194 507V0H79v507zm1 81q-20 0-37.5 9.5T117 634q-14 17-20.5 21.5T83 660q-10 0-13.5-14T65 596h-81q0 77 23 115.5T77 750q20 0 37.5-9.5T155 704q14-17 20.5-21.5T189 678q10 0 13.5 14t4.5 50h81q0-78-23-116t-70-38z" glyph-name="itilde" horiz-adv-x="273" unicode="ĩ"/><glyph d="M-25-223v108q55 0 79.5 26.5T79-4v511h115V-4q0-110-55-164.5T-25-223zm313 802h-93l-61 80-61-80h-89l96 161h112z" glyph-name="jcircumflex" horiz-adv-x="273" unicode="ĵ"/><glyph d="M197 722V603H76v119zm-3-215V0H79v507zm276 215V603H349v119zM248-223v108q55 0 79.5 26.5T352-4v511h115V-4q0-110-55-164.5T248-223z" glyph-name="ij" horiz-adv-x="546" unicode="ĳ"/><glyph d="M521 0H382L257 211q-15-15-30.5-30T194 151V0H79v740h115V278q58 59 99.5 113T369 507h132q-30-54-68-107.5T343 284zM346-77l-73-179-73 17 26 162z" glyph-name="kcommaaccent" horiz-adv-x="532" unicode="ķ"/><glyph d="M521 0H382L257 211q-15-15-30.5-30T194 151V0H79v507h115V278q58 59 99.5 113T369 507h132q-30-54-68-107.5T343 284z" glyph-name="kgreenlandic" horiz-adv-x="532" unicode="ĸ"/><glyph d="M76 143v597h115V143q0-20 9.5-31t27.5-11h16V-5h-28q-69 0-104.5 37.5T76 143zm214 789L187 812H86l96 166z" glyph-name="lacute" horiz-adv-x="276" unicode="ĺ"/><glyph d="M76 143v597h115V143q0-20 9.5-31t27.5-11h16V-5h-28q-69 0-104.5 37.5T76 143zm306 597l-36-194h-77v194z" glyph-name="lcaron" horiz-adv-x="360" unicode="ľ"/><glyph d="M76 143v597h115V143q0-20 9.5-31t27.5-11h16V-5h-28q-69 0-104.5 37.5T76 143zM228-77l-73-179-73 17 26 162z" glyph-name="lcommaaccent" horiz-adv-x="276" unicode="ļ"/><glyph d="M76 143v597h115V143q0-20 9.5-31t27.5-11h16V-5h-28q-69 0-104.5 37.5T76 143zm286 301V325H241v119z" glyph-name="ldot" horiz-adv-x="336" unicode="ŀ"/><glyph d="M327 410q-30 0-62-14.5T194 351V0H79v507h109v-68q47 41 88.5 59.5T362 517q72 0 110.5-46T511 340V0H396v326q0 43-17 63.5T327 410zm32 178q-20 0-37.5 9.5T281 634q-14 17-20.5 21.5T247 660q-10 0-13.5-14t-4.5-50h-81q0 77 23 115.5t70 38.5q20 0 37.5-9.5T319 704q14-17 20.5-21.5T353 678q10 0 13.5 14t4.5 50h81q0-78-23-116t-70-38z" glyph-name="ntilde" horiz-adv-x="584" unicode="ñ"/><glyph d="M327 410q-30 0-62-14.5T194 351V0H79v507h109v-68q47 41 88.5 59.5T362 517q72 0 110.5-46T511 340V0H396v326q0 43-17 63.5T327 410zm127 289L351 579H250l96 166z" glyph-name="nacute" horiz-adv-x="584" unicode="ń"/><glyph d="M327 410q-30 0-62-14.5T194 351V0H79v507h109v-68q47 41 88.5 59.5T362 517q72 0 110.5-46T511 340V0H396v326q0 43-17 63.5T327 410zm35 330h89l-96-161H243l-96 161h93l61-80z" glyph-name="ncaron" horiz-adv-x="584" unicode="ň"/><glyph d="M327 410q-30 0-62-14.5T194 351V0H79v507h109v-68q47 41 88.5 59.5T362 517q72 0 110.5-46T511 340V0H396v326q0 43-17 63.5T327 410zm26-487l-73-179-73 17 26 162z" glyph-name="ncommaaccent" horiz-adv-x="584" unicode="ņ"/><glyph d="M362 517q72 0 110.5-46T511 340V-4q0-110-55-164.5T292-223v108q55 0 79.5 26.5T396-4v330q0 43-17 63.5T327 410q-30 0-62-14.5T194 351V0H79v507h109v-68q47 41 88.5 59.5T362 517z" glyph-name="eng" horiz-adv-x="584" unicode="ŋ"/><glyph d="M466 410q-30 0-62-14.5T333 351V0H218v507h109v-68q47 41 88.5 59.5T501 517q72 0 110.5-46T650 340V0H535v326q0 43-17 63.5T466 410zM55 680h112v-19q0-74-21.5-139.5T75 378L3 417q30 64 41 114t11 149z" glyph-name="napostrophe" horiz-adv-x="723" unicode="ŉ"/><glyph d="M272 517q104 0 163-62t59-171v-60q0-109-59-171.5T272-10q-104 0-163 62.5T50 224v60q0 109 59 171t163 62zm104-293v60q0 62-27 96t-77 34q-50 0-77-34t-27-96v-60q0-62 27.5-96.5T272 93q49 0 76.5 34.5T376 224zm50 475L323 579H222l96 166z" glyph-name="oacute" horiz-adv-x="544" unicode="ó"/><glyph d="M272 517q104 0 163-62t59-171v-60q0-109-59-171.5T272-10q-104 0-163 62.5T50 224v60q0 109 59 171t163 62zm104-293v60q0 62-27 96t-77 34q-50 0-77-34t-27-96v-60q0-62 27.5-96.5T272 93q49 0 76.5 34.5T376 224zm47 355h-93l-61 80-61-80h-89l96 161h112z" glyph-name="ocircumflex" horiz-adv-x="544" unicode="ô"/><glyph d="M272 517q104 0 163-62t59-171v-60q0-109-59-171.5T272-10q-104 0-163 62.5T50 224v60q0 109 59 171t163 62zm104-293v60q0 62-27 96t-77 34q-50 0-77-34t-27-96v-60q0-62 27.5-96.5T272 93q49 0 76.5 34.5T376 224zM230 716V609H121v107zm194 0V609H315v107z" glyph-name="odieresis" horiz-adv-x="544" unicode="ö"/><glyph d="M272 517q104 0 163-62t59-171v-60q0-109-59-171.5T272-10q-104 0-163 62.5T50 224v60q0 109 59 171t163 62zm104-293v60q0 62-27 96t-77 34q-50 0-77-34t-27-96v-60q0-62 27.5-96.5T272 93q49 0 76.5 34.5T376 224zm-54 355H221L118 699l108 46z" glyph-name="ograve" horiz-adv-x="544" unicode="ò"/><glyph d="M272 517q104 0 163-62t59-171v-60q0-109-59-171.5T272-10q-104 0-163 62.5T50 224v60q0 109 59 171t163 62zm104-293v60q0 62-27 96t-77 34q-50 0-77-34t-27-96v-60q0-62 27.5-96.5T272 93q49 0 76.5 34.5T376 224zm-45 364q-20 0-37.5 9.5T253 634q-14 17-20.5 21.5T219 660q-10 0-13.5-14t-4.5-50h-81q0 77 23 115.5t70 38.5q20 0 37.5-9.5T291 704q14-17 20.5-21.5T325 678q10 0 13.5 14t4.5 50h81q0-78-23-116t-70-38z" glyph-name="otilde" horiz-adv-x="544" unicode="õ"/><glyph d="M272 517q104 0 163-62t59-171v-60q0-109-59-171.5T272-10q-104 0-163 62.5T50 224v60q0 109 59 171t163 62zm104-293v60q0 62-27 96t-77 34q-50 0-77-34t-27-96v-60q0-62 27.5-96.5T272 93q49 0 76.5 34.5T376 224zM272 666q23 0 34.5 15.5T319 731h87q-5-72-39-109t-95-37q-61 0-95 37t-39 109h87q1-33 12.5-49t34.5-16z" glyph-name="obreve" horiz-adv-x="544" unicode="ŏ"/><glyph d="M272 517q104 0 163-62t59-171v-60q0-109-59-171.5T272-10q-104 0-163 62.5T50 224v60q0 109 59 171t163 62zm104-293v60q0 62-27 96t-77 34q-50 0-77-34t-27-96v-60q0-62 27.5-96.5T272 93q49 0 76.5 34.5T376 224zm-60 475l-73-120h-91l76 166zm150 0l-73-120h-91l76 166z" glyph-name="ohungarumlaut" horiz-adv-x="544" unicode="ő"/><glyph d="M272 517q104 0 163-62t59-171v-60q0-109-59-171.5T272-10q-104 0-163 62.5T50 224v60q0 109 59 171t163 62zm104-293v60q0 62-27 96t-77 34q-50 0-77-34t-27-96v-60q0-62 27.5-96.5T272 93q49 0 76.5 34.5T376 224zM121 692h303v-83H121z" glyph-name="omacron" horiz-adv-x="544" unicode="ō"/><glyph d="M365 517V402q-48 0-90.5-15T194 341V0H79v507h109v-78q51 48 91 68t86 20zm9 182L271 579H170l96 166z" glyph-name="racute" horiz-adv-x="387" unicode="ŕ"/><glyph d="M365 517V402q-48 0-90.5-15T194 341V0H79v507h109v-78q51 48 91 68t86 20zm-84 223h89l-96-161H162L66 740h93l61-80z" glyph-name="rcaron" horiz-adv-x="387" unicode="ř"/><glyph d="M365 517V402q-48 0-90.5-15T194 341V0H79v507h109v-78q51 48 91 68t86 20zM196-77l-73-179-73 17L76-77z" glyph-name="rcommaaccent" horiz-adv-x="387" unicode="ŗ"/><glyph d="M221 90q40 0 62.5 13t22.5 37q0 22-15.5 34T235 197l-57 15q-63 17-96 55.5T49 364q0 71 48.5 112T233 517q41 0 83-9.5t85-28.5l-33-98q-37 18-71.5 27t-64.5 9q-36 0-53.5-12T161 369q0-20 13-30.5t46-19.5l57-15q71-19 105.5-57.5T417 148q0-76-51-117T220-10q-44 0-89 10T37 30l31 95q44-18 82.5-26.5T221 90zm71 650h89l-96-161H173L77 740h93l61-80z" glyph-name="scaron" horiz-adv-x="456" unicode="š"/><glyph d="M221 90q40 0 62.5 13t22.5 37q0 22-15.5 34T235 197l-57 15q-63 17-96 55.5T49 364q0 71 48.5 112T233 517q41 0 83-9.5t85-28.5l-33-98q-37 18-71.5 27t-64.5 9q-36 0-53.5-12T161 369q0-20 13-30.5t46-19.5l57-15q71-19 105.5-57.5T417 148q0-76-51-117T220-10q-44 0-89 10T37 30l31 95q44-18 82.5-26.5T221 90zm163 609L281 579H180l96 166z" glyph-name="sacute" horiz-adv-x="456" unicode="ś"/><glyph d="M326-124q0-47-33.5-73T200-223q-20 0-39.5 3.5T115-208l13 69q20-5 39-8t33-3q19 0 29 6t10 18q0 11-10 17.5t-29 6.5q-7 0-12.5-.5T173-105l-25 32 11 68Q128 0 98 8.5T37 30l31 95q44-18 82.5-26.5T221 90q40 0 62.5 13t22.5 37q0 22-15.5 34T235 197l-57 15q-63 17-96 55.5T49 364q0 71 48.5 112T233 517q41 0 83-9.5t85-28.5l-33-98q-37 18-71.5 27t-64.5 9q-36 0-53.5-12T161 369q0-20 13-30.5t46-19.5l57-15q71-19 105.5-57.5T417 148q0-72-47-113.5T235-10l-5-29q46-2 71-24.5t25-60.5z" glyph-name="scedilla" horiz-adv-x="456" unicode="ş"/><glyph d="M221 90q40 0 62.5 13t22.5 37q0 22-15.5 34T235 197l-57 15q-63 17-96 55.5T49 364q0 71 48.5 112T233 517q41 0 83-9.5t85-28.5l-33-98q-37 18-71.5 27t-64.5 9q-36 0-53.5-12T161 369q0-20 13-30.5t46-19.5l57-15q71-19 105.5-57.5T417 148q0-76-51-117T220-10q-44 0-89 10T37 30l31 95q44-18 82.5-26.5T221 90zm160 489h-93l-61 80-61-80H77l96 161h112z" glyph-name="scircumflex" horiz-adv-x="456" unicode="ŝ"/><glyph d="M221 90q40 0 62.5 13t22.5 37q0 22-15.5 34T235 197l-57 15q-63 17-96 55.5T49 364q0 71 48.5 112T233 517q41 0 83-9.5t85-28.5l-33-98q-37 18-71.5 27t-64.5 9q-36 0-53.5-12T161 369q0-20 13-30.5t46-19.5l57-15q71-19 105.5-57.5T417 148q0-76-51-117T220-10q-44 0-89 10T37 30l31 95q44-18 82.5-26.5T221 90zm68-167l-73-179-73 17 26 162z" glyph-name="uni0219" horiz-adv-x="456" unicode="ș"/><glyph d="M373 114l29-97Q374 4 340-3t-67-7q-79 0-119 47.5T114 179v48H32v75h82v105H32v100h82v132h115V507h158V407H229V302h119v-75H229v-48q0-43 16-62t52-19q18 0 36.5 4t39.5 12z" glyph-name="tbar" horiz-adv-x="420" unicode="ŧ"/><glyph d="M355 114l29-97Q356 4 322-3t-67-7q-79 0-119 47.5T96 179v228H14v100h82v132h115V507h158V407H211V179q0-43 16-62t52-19q18 0 36.5 4t39.5 12zm34 651l-36-194h-77v194z" glyph-name="tcaron" horiz-adv-x="397" unicode="ť"/><glyph d="M355 114l29-97Q356 4 322-3t-67-7q-79 0-119 47.5T96 179v228H14v100h82v132h115V507h158V407H211V179q0-43 16-62t52-19q18 0 36.5 4t39.5 12zM300-77l-73-179-73 17 26 162z" glyph-name="uni0163" horiz-adv-x="397" unicode="ţ"/><glyph d="M355 114l29-97Q356 4 322-3t-67-7q-79 0-119 47.5T96 179v228H14v100h82v132h115V507h158V407H211V179q0-43 16-62t52-19q18 0 36.5 4t39.5 12zM300-77l-73-179-73 17 26 162z" glyph-name="uni021B" horiz-adv-x="397" unicode="ț"/><glyph d="M490 0H381v67q-46-40-86-58.5T214-10q-68 0-105 46T72 167v340h115V181q0-42 15.5-63T249 97q28 0 58.5 14t67.5 44v352h115zm-56 699L331 579H230l96 166z" glyph-name="uacute" horiz-adv-x="569" unicode="ú"/><glyph d="M490 0H381v67q-46-40-86-58.5T214-10q-68 0-105 46T72 167v340h115V181q0-42 15.5-63T249 97q28 0 58.5 14t67.5 44v352h115zm-58 579h-93l-61 80-61-80h-89l96 161h112z" glyph-name="ucircumflex" horiz-adv-x="569" unicode="û"/><glyph d="M490 0H381v67q-46-40-86-58.5T214-10q-68 0-105 46T72 167v340h115V181q0-42 15.5-63T249 97q28 0 58.5 14t67.5 44v352h115zM238 716V609H129v107zm194 0V609H323v107z" glyph-name="udieresis" horiz-adv-x="569" unicode="ü"/><glyph d="M490 0H381v67q-46-40-86-58.5T214-10q-68 0-105 46T72 167v340h115V181q0-42 15.5-63T249 97q28 0 58.5 14t67.5 44v352h115zM330 579H229L126 699l108 46z" glyph-name="ugrave" horiz-adv-x="569" unicode="ù"/><glyph d="M490 0H381v67q-46-40-86-58.5T214-10q-68 0-105 46T72 167v340h115V181q0-42 15.5-63T249 97q28 0 58.5 14t67.5 44v352h115zM280 666q23 0 34.5 15.5T327 731h87q-5-72-39-109t-95-37q-61 0-95 37t-39 109h87q1-33 12.5-49t34.5-16z" glyph-name="ubreve" horiz-adv-x="569" unicode="ŭ"/><glyph d="M490 0H381v67q-46-40-86-58.5T214-10q-68 0-105 46T72 167v340h115V181q0-42 15.5-63T249 97q28 0 58.5 14t67.5 44v352h115zM324 699l-73-120h-91l76 166zm150 0l-73-120h-91l76 166z" glyph-name="uhungarumlaut" horiz-adv-x="569" unicode="ű"/><glyph d="M490 0H381v67q-46-40-86-58.5T214-10q-68 0-105 46T72 167v340h115V181q0-42 15.5-63T249 97q28 0 58.5 14t67.5 44v352h115zM129 692h303v-83H129z" glyph-name="umacron" horiz-adv-x="569" unicode="ū"/><glyph d="M474-124l16-83q-20-8-40.5-12t-40.5-4q-52 0-82 24.5T297-132q0 32 20 63.5T381 0v67q-46-40-86-58.5T214-10q-68 0-105 46T72 167v340h115V181q0-42 15.5-63T249 97q28 0 58.5 14t67.5 44v352h115V0q-49-41-71-66.5T397-108q0-12 7.5-18.5T427-133q10 0 21.5 2t25.5 7z" glyph-name="uogonek" horiz-adv-x="569" unicode="ų"/><glyph d="M490 0H381v67q-46-40-86-58.5T214-10q-68 0-105 46T72 167v340h115V181q0-42 15.5-63T249 97q28 0 58.5 14t67.5 44v352h115zM280 803q54 0 87-31.5t33-82.5v-11q0-52-33-83.5T280 563q-54 0-87 31.5T160 678v11q0 51 33 82.5t87 31.5zm49-125v11q0 22-13.5 35T280 737q-22 0-35.5-13T231 689v-11q0-22 13.5-35t35.5-13q22 0 35.5 13t13.5 35z" glyph-name="uring" horiz-adv-x="569" unicode="ů"/><glyph d="M490 0H381v67q-46-40-86-58.5T214-10q-68 0-105 46T72 167v340h115V181q0-42 15.5-63T249 97q28 0 58.5 14t67.5 44v352h115zM339 588q-20 0-37.5 9.5T261 634q-14 17-20.5 21.5T227 660q-10 0-13.5-14t-4.5-50h-81q0 77 23 115.5t70 38.5q20 0 37.5-9.5T299 704q14-17 20.5-21.5T333 678q10 0 13.5 14t4.5 50h81q0-78-23-116t-70-38z" glyph-name="utilde" horiz-adv-x="569" unicode="ũ"/><glyph d="M599 507h111L580 0H455l-84 381L282 0H157L27 507h118l49-201 34-183 86 384h116l89-388 32 186zm-77 192L419 579H318l96 166z" glyph-name="wacute" horiz-adv-x="737" unicode="ẃ"/><glyph d="M599 507h111L580 0H455l-84 381L282 0H157L27 507h118l49-201 34-183 86 384h116l89-388 32 186zm-79 72h-93l-61 80-61-80h-89l96 161h112z" glyph-name="wcircumflex" horiz-adv-x="737" unicode="ŵ"/><glyph d="M599 507h111L580 0H455l-84 381L282 0H157L27 507h118l49-201 34-183 86 384h116l89-388 32 186zM326 716V609H217v107zm194 0V609H411v107z" glyph-name="wdieresis" horiz-adv-x="737" unicode="ẅ"/><glyph d="M599 507h111L580 0H455l-84 381L282 0H157L27 507h118l49-201 34-183 86 384h116l89-388 32 186zm-181 72H317L214 699l108 46z" glyph-name="wgrave" horiz-adv-x="737" unicode="ẁ"/><glyph d="M482 507L284-50q-33-94-85-133.5T60-223v115q50 2 81.5 22T189-25l9 23L17 507h114l87-253 34-107 33 107 83 253zm-78 192L301 579H200l96 166z" glyph-name="yacute" horiz-adv-x="499" unicode="ý"/><glyph d="M482 507L284-50q-33-94-85-133.5T60-223v115q50 2 81.5 22T189-25l9 23L17 507h114l87-253 34-107 33 107 83 253zM207 716V609H98v107zm194 0V609H292v107z" glyph-name="ydieresis" horiz-adv-x="499" unicode="ÿ"/><glyph d="M482 507L284-50q-33-94-85-133.5T60-223v115q50 2 81.5 22T189-25l9 23L17 507h114l87-253 34-107 33 107 83 253zm-82 72h-93l-61 80-61-80H96l96 161h112z" glyph-name="ycircumflex" horiz-adv-x="499" unicode="ŷ"/><glyph d="M482 507L284-50q-33-94-85-133.5T60-223v115q50 2 81.5 22T189-25l9 23L17 507h114l87-253 34-107 33 107 83 253zm-182 72H199L96 699l108 46z" glyph-name="ygrave" horiz-adv-x="499" unicode="ỳ"/><glyph d="M173 100h224V0H35v90l214 317H45v100h342v-90zm103 640h89l-96-161H157L61 740h93l61-80z" glyph-name="zcaron" horiz-adv-x="432" unicode="ž"/><glyph d="M173 100h224V0H35v90l214 317H45v100h342v-90zm195 599L265 579H164l96 166z" glyph-name="zacute" horiz-adv-x="432" unicode="ź"/><glyph d="M173 100h224V0H35v90l214 317H45v100h342v-90zm102 622V603H154v119z" glyph-name="zdotaccent" horiz-adv-x="432" unicode="ż"/><glyph d="M368 699L265 579H164l96 166z" glyph-name="acute" horiz-adv-x="500" unicode="´"/><glyph d="M300 579H199L96 699l108 46z" glyph-name="grave" horiz-adv-x="500" unicode="`"/><glyph d="M400 579h-93l-61 80-61-80H96l96 161h112z" glyph-name="circumflex" horiz-adv-x="500" unicode="ˆ"/><glyph d="M276 740h89l-96-161H157L61 740h93l61-80z" glyph-name="caron" horiz-adv-x="500" unicode="ˇ"/><glyph d="M339 588q-20 0-37.5 9.5T261 634q-14 17-20.5 21.5T227 660q-10 0-13.5-14t-4.5-50h-81q0 77 23 115.5t70 38.5q20 0 37.5-9.5T299 704q14-17 20.5-21.5T333 678q10 0 13.5 14t4.5 50h81q0-78-23-116t-70-38z" glyph-name="tilde" horiz-adv-x="500" unicode="˜"/><glyph d="M207 716V609H98v107zm194 0V609H292v107z" glyph-name="dieresis" horiz-adv-x="500" unicode="¨"/><glyph d="M280 803q54 0 87-31.5t33-82.5v-11q0-52-33-83.5T280 563q-54 0-87 31.5T160 678v11q0 51 33 82.5t87 31.5zm49-125v11q0 22-13.5 35T280 737q-22 0-35.5-13T231 689v-11q0-22 13.5-35t35.5-13q22 0 35.5 13t13.5 35z" glyph-name="ring" horiz-adv-x="500" unicode="˚"/><glyph d="M364-124q0-47-33.5-73T238-223q-20 0-39.5 3.5T153-208l13 69q20-5 39-8t33-3q19 0 29 6t10 18q0 11-10 17.5t-29 6.5q-7 0-12.5-.5T211-105l-25 32 12 73h77l-7-39q46-2 71-24.5t25-60.5z" glyph-name="cedilla" horiz-adv-x="500" unicode="¸"/><glyph d="M324 699l-73-120h-91l76 166zm150 0l-73-120h-91l76 166z" glyph-name="hungarumlaut" horiz-adv-x="500" unicode="˝"/><glyph d="M280 666q23 0 34.5 15.5T327 731h87q-5-72-39-109t-95-37q-61 0-95 37t-39 109h87q1-33 12.5-49t34.5-16z" glyph-name="breve" horiz-adv-x="500" unicode="˘"/><glyph d="M129 692h303v-83H129z" glyph-name="macron" horiz-adv-x="500" unicode="¯"/><glyph d="M275 722V603H154v119z" glyph-name="dotaccent" horiz-adv-x="500" unicode="˙"/><glyph d="M362 444V325H241v119z" glyph-name="periodcentered" horiz-adv-x="500" unicode="·"/><glyph d="M246-108q0-12 7.5-18.5T276-133q10 0 21.5 2t25.5 7l16-83q-20-8-40.5-12t-40.5-4q-52 0-82 24.5T146-132q0 39 32.5 79.5T286 44l53-44q-49-41-71-66.5T246-108z" glyph-name="ogonek" horiz-adv-x="500" unicode="˛"/><glyph d="M300-77l-73-179-73 17 26 162z" glyph-name="commaaccent" horiz-adv-x="500" unicode=""/><glyph d="M389 765l-36-194h-77v194z" glyph-name="caron.alt" horiz-adv-x="500"/><glyph d="M185 579l73 179 73-17-26-162z" glyph-name="revcommaaccent" horiz-adv-x="500"/><glyph d="M166 119V0H45v119z" glyph-name="period" horiz-adv-x="211" unicode="."/><glyph d="M49 119h112v-19q0-95-22-170.5T69-223l-72 39q29 55 40.5 118T49 119z" glyph-name="comma" horiz-adv-x="211" unicode=","/><glyph d="M166 507V388H45v119zm0-388V0H45v119z" glyph-name="colon" horiz-adv-x="211" unicode=":"/><glyph d="M166 507V388H45v119zM49 119h112v-19q0-95-22-170.5T69-223l-72 39q29 55 40.5 118T49 119z" glyph-name="semicolon" horiz-adv-x="211" unicode=";"/><glyph d="M566 119V0H445v119zm0 0V0H445v119zm0 0V0H445v119z" glyph-name="ellipsis" horiz-adv-x="611" unicode="…"/><glyph d="M204 583q-34 0-71.5-9T47 545l-37 99q52 23 102 34.5T212 690q104 0 158-45t54-131v-18q0-55-16.5-93T352 330l-36-33q-25-22-35-40t-10-49v-9H151v18q0 47 15.5 77.5T220 360l37 34q28 26 38.5 45.5T306 486v18q0 39-25.5 59T204 583zm68-464V0H151v119z" glyph-name="question" horiz-adv-x="454" unicode="?"/><glyph d="M199 460l-13-261H96L84 460v220h115zm2-341V0H80v119z" glyph-name="exclam" horiz-adv-x="281" unicode="!"/><glyph d="M195 388v119h121V388zm68-464q34 0 71.5 9T420-38l37-99q-52-23-102-34.5T255-183q-104 0-158 45T43-7v18q0 55 16.5 93t55.5 73l36 33q25 22 35 40t10 49v9h120v-18q0-47-15.5-77.5T247 147l-37-34q-28-26-38.5-45.5T161 21V3q0-39 25.5-59T263-76z" glyph-name="questiondown" horiz-adv-x="454" unicode="¿"/><glyph d="M80 388v119h121V388zm2-341l13 261h90l12-261v-220H82z" glyph-name="exclamdown" horiz-adv-x="281" unicode="¡"/><glyph d="M49 280v37q0 117 51 226t152 207l80-75q-85-87-125-173.5T167 317v-37q0-98 40-184.5T332-78l-80-75Q151-55 100 54T49 280z" glyph-name="parenleft" horiz-adv-x="333" unicode="("/><glyph d="M284 317v-37q0-117-51-226T81-153L1-78Q86 9 126 95.5T166 280v37q0 98-40 184.5T1 675l80 75q101-98 152-207t51-226z" glyph-name="parenright" horiz-adv-x="333" unicode=")"/><glyph d="M291-44h89v-100h-89q-104 0-147.5 53.5T123 61l20 86q13 54-4 77.5T73 248H20v100h53q49 0 66 23.5t4 77.5l-20 86q-23 98 20.5 151.5T291 740h89V640h-89q-35 0-49.5-23t-4.5-63l20-86q15-68-3.5-111.5T184 298q52-15 70.5-58.5T257 128l-20-86q-10-40 4.5-63T291-44z" glyph-name="braceleft" horiz-adv-x="381" unicode="{"/><glyph d="M238 147l20-86q23-98-20.5-151.5T90-144H1v100h89q35 0 49.5 23t4.5 63l-20 86q-15 68 3.5 111.5T197 298q-52 15-70.5 58.5T124 468l20 86q10 40-4.5 63T90 640H1v100h89q104 0 147.5-53.5T258 535l-20-86q-13-54 4-77.5t66-23.5h53V248h-53q-49 0-66-23.5t-4-77.5z" glyph-name="braceright" horiz-adv-x="381" unicode="}"/><glyph d="M209-43h140v-100H94v883h255V640H209z" glyph-name="bracketleft" horiz-adv-x="350" unicode="["/><glyph d="M1 740h255v-883H1v100h140v683H1z" glyph-name="bracketright" horiz-adv-x="350" unicode="]"/><glyph d="M-39-143l324 883h118L79-143z" glyph-name="slash" horiz-adv-x="394" unicode="/"/><glyph d="M-9 740h118l324-883H315z" glyph-name="backslash" horiz-adv-x="394" unicode="\"/><glyph d="M409-163H5v73h404z" glyph-name="underscore" horiz-adv-x="414" unicode="_"/><glyph d="M354 265H50v100h304z" glyph-name="hyphen" horiz-adv-x="404" unicode="-"/><glyph glyph-name="uni00AD" horiz-adv-x="0" unicode="­"/><glyph d="M554 265H50v100h504z" glyph-name="endash" horiz-adv-x="604" unicode="–"/><glyph d="M754 265H50v100h704z" glyph-name="emdash" horiz-adv-x="804" unicode="—"/><glyph d="M83 357v383h115V357zm0-570v383h115v-383z" glyph-name="brokenbar" horiz-adv-x="281" unicode="¦"/><glyph d="M94-213v953h115v-953z" glyph-name="bar" horiz-adv-x="303" unicode="|"/><glyph d="M154 249l184-115V14L42 209v77l296 192V362zm320 0l184-115V14L362 209v77l296 192V362z" glyph-name="guillemotleft" horiz-adv-x="711" unicode="«"/><glyph d="M669 283v-77L373 14v116l184 113-184 115v120zm-320 0v-77L53 14v116l184 113L53 358v120z" glyph-name="guillemotright" horiz-adv-x="711" unicode="»"/><glyph d="M154 249l184-115V14L42 209v77l296 192V362z" glyph-name="guilsinglleft" horiz-adv-x="391" unicode="‹"/><glyph d="M349 283v-77L53 14v116l184 113L53 358v120z" glyph-name="guilsinglright" horiz-adv-x="391" unicode="›"/><glyph d="M50 119h112v-19q0-74-21.5-139.5T70-183l-72 39Q28-80 39-30t11 149z" glyph-name="quotesinglbase" horiz-adv-x="211" unicode="‚"/><glyph d="M50 119h112v-19q0-74-21.5-139.5T70-183l-72 39Q28-80 39-30t11 149zm185 0h112v-19q0-74-21.5-139.5T255-183l-72 39q30 64 41 114t11 149z" glyph-name="quotedblbase" horiz-adv-x="396" unicode="„"/><glyph d="M143 388H31v19q0 74 21.5 139.5T123 690l72-39q-30-64-41-114t-11-149z" glyph-name="quoteleft" horiz-adv-x="211" unicode="‘"/><glyph d="M328 388H216v19q0 74 21.5 139.5T308 690l72-39q-30-64-41-114t-11-149zm-185 0H31v19q0 74 21.5 139.5T123 690l72-39q-30-64-41-114t-11-149z" glyph-name="quotedblleft" horiz-adv-x="396" unicode="“"/><glyph d="M55 680h112v-19q0-74-21.5-139.5T75 378L3 417q30 64 41 114t11 149z" glyph-name="quoteright" horiz-adv-x="211" unicode="’"/><glyph d="M68 680h112v-19q0-74-21.5-139.5T88 378l-72 39q30 64 41 114t11 149zm185 0h112v-19q0-74-21.5-139.5T273 378l-72 39q30 64 41 114t11 149z" glyph-name="quotedblright" horiz-adv-x="396" unicode="”"/><glyph d="M159 584l-20-196H72L52 584v96h107z" glyph-name="quotesingle" horiz-adv-x="211" unicode="'"/><glyph d="M159 584l-20-196H72L52 584v96h107zm175 0l-20-196h-67l-20 196v96h107z" glyph-name="quotedbl" horiz-adv-x="386" unicode="&quot;"/><glyph d="M194 405V262H49v143z" glyph-name="bullet" horiz-adv-x="243" unicode="•"/><glyph d="M153 174q0-38 22-58t62-20q62 0 87.5 42.5T320 239l92 56L564 0H439l-44 99q-15-51-60-80T226-10q-87 0-138.5 49T36 169q0 60 31.5 108t98.5 92q-48 37-70.5 75.5T73 528q0 73 49.5 117.5T255 690q86 0 135.5-44.5T440 524q0-57-30-100.5T296 327l-70-45q-37-24-55-50t-18-58zm103 412q-32 0-52-17.5T184 522q0-25 14.5-52.5T240 418q52 35 68.5 54t16.5 45q0 33-18.5 51T256 586z" glyph-name="ampersand" horiz-adv-x="561" unicode="&amp;"/><glyph d="M37 429v53q0 94 55.5 146T251 680h306v-87h-82v-736H355v736h-63V230h-41q-102 0-158 52T37 429z" glyph-name="paragraph" horiz-adv-x="569" unicode="¶"/><glyph d="M418 422h-60l-102 17 17-131V199l-23-342h-70l-22 342v109l18 131-101-16H15v109h60l100-16-16 104v60h115v-60l-17-105 101 16h60z" glyph-name="dagger" horiz-adv-x="433" unicode="†"/><glyph d="M268 21l16-104v-60H169v60l17 105L85 6H25v109h60l102-17-17 131v79l18 131-101-16H27v109h60l100-16-16 104v60h115v-60l-17-105 101 16h60V422h-60l-102 17 17-131v-79L267 98l101 16h60V5h-60z" glyph-name="daggerdbl" horiz-adv-x="455" unicode="‡"/><glyph d="M388 108q35-26 52.5-63T458-38q0-87-56.5-136T241-223q-50 0-104 12T30-175L67-70q51-21 92-30.5t80-9.5q49 0 72.5 16T335-46q0 27-20 45.5T249 35l-82 30q-59 22-90.5 62.5T45 222q0 43 22.5 81.5T131 368q-32 25-49 61.5T65 511q0 82 54 130.5T267 690q45 0 90.5-10t99.5-31l-37-105q-49 18-82.5 25.5T270 577q-39 0-60.5-16.5T188 514q0-26 19.5-44t64.5-35l82-30q61-22 92.5-61.5T478 252q0-43-23.5-81T388 108zM168 245q0-28 18-45.5t61-32.5l53-19q32 22 43.5 40t11.5 43q0 27-16 42.5T274 306l-61 21q-23-20-34-39.5T168 245z" glyph-name="section" horiz-adv-x="521" unicode="§"/><glyph d="M325 407l29-41-77-56-29 41-43 95-44-96-29-40-77 56 29 40 78 70-105 12-48 16 30 90 47-15 91-52-21 103v50h95v-50l-21-102 91 52 48 15 29-90-47-16-105-12z" glyph-name="asterisk" horiz-adv-x="407" unicode="*"/><glyph d="M342 680h91l81-177 83 177h88V340h-78v87l6 137-78-173h-45l-76 172 6-136v-87h-78zm-233-77H5v77h289v-77H190V340h-81z" glyph-name="trademark" horiz-adv-x="734" unicode="™"/><glyph d="M498 479q0-102-67-170t-167-68q-100 0-167 68T30 479q0 103 66.5 170.5T264 717q101 0 167.5-67.5T498 479zm-406 0q0-77 49-128.5T264 299q74 0 123 51.5T436 479q0 78-49 129t-123 51q-74 0-123-51T92 479zm144-126h-61v255h95q39 0 61.5-22t22.5-60v-9q0-23-9-41.5T320 447q14-22 26-45.5t23-48.5h-67q-10 23-20 43t-20 38h-26zm34 197h-34v-57h34q10 0 15.5 6.5T291 517v9q0 11-5.5 17.5T270 550z" glyph-name="registered" horiz-adv-x="528" unicode="®"/><glyph d="M789 340q0-163-105.5-270T417-37Q256-37 150.5 70T45 340q0 163 105.5 270T417 717q161 0 266.5-107T789 340zm-668 0q0-134 83.5-220.5T417 33q129 0 212.5 86.5T713 340q0 133-84 220t-212 87q-128 0-212-87t-84-220zm297 132q-43 0-64-27t-21-84v-41q0-57 20.5-84.5T418 208q24 0 51 7t57 22l29-79q-33-17-69.5-26t-72.5-9q-84 0-128.5 51T240 320v41q0 94 44.5 145T413 557q35 0 69-8.5t64-23.5l-29-79q-28 13-52.5 19.5T418 472z" glyph-name="copyright" horiz-adv-x="834" unicode="©"/><glyph d="M698-75l30-92q-60-27-128-41.5T466-223q-196 0-311.5 117T39 209q0 211 127 346t329 135q184 0 301-112.5T913 289q0-127-66-210.5T681-5q-49 0-80.5 20T557 73q-41-43-79-63t-80-20q-68 0-99.5 61T283 211l7 44q17 107 70 159.5T503 467q47 0 96.5-16.5T700 402l-42-240q-7-36 2.5-55.5T694 87q47 0 81.5 58.5T810 289q0 135-87.5 220.5T495 595q-157 0-255-108t-98-278q0-156 86.5-246.5T466-128q59 0 120.5 14T698-75zM406 255l-7-44q-9-58 1-87t40-29q25 0 51.5 20t56.5 61l30 172q-21 10-36 14t-29 4q-44 0-71-28.5T406 255z" glyph-name="at" horiz-adv-x="945" unicode="@"/><glyph d="M314 338h-7q-31 0-54 10.5T219 379q-27-23-50.5-33.5T119 335q-44 0-69.5 26.5T24 432q0 50 27.5 75.5T134 533q10 0 23-1t46-5v41q0 23-12.5 33.5T148 612q-22 0-45-6t-50-19l-19 68q31 15 59 22.5t56 7.5q65 0 98-27.5t33-82.5V443q0-18 6-25.5t19-7.5h9zM143 473q-22 0-32-8.5T101 437q0-17 8-26t22-9q18 0 34.5 7.5T203 435v33q-18 2-34 3.5t-26 1.5z" glyph-name="ordfeminine" horiz-adv-x="327" unicode="ª"/><glyph d="M172 685q70 0 110.5-41.5T323 531v-42q0-73-40-113.5T172 335q-72 0-111.5 40.5T21 489v42q0 72 40 113t111 41zm71-196v42q0 37-19 58t-52 21q-33 0-52-21t-19-58v-42q0-38 18.5-58.5T172 410q34 0 52.5 20.5T243 489z" glyph-name="ordmasculine" horiz-adv-x="344" unicode="º"/><glyph d="M391 0h-95l57 185H207L150 0H55l57 185H15v87h123l42 136H85v87h121l57 185h95l-57-185h146l57 185h95l-57-185h97v-87H516l-42-136h95v-87H448zM275 408l-42-136h146l42 136z" glyph-name="numbersign" horiz-adv-x="654" unicode="#"/><glyph d="M884 685q74 0 117.5-45t43.5-119v-42q0-76-43-120t-118-44q-75 0-118 44t-43 120v42q0 74 43.5 119T884 685zM209 0H94v680h110q81-106 151.5-220.5T483 227l-9 203v250h115V0H479q-99 196-160 303.5T201 494l8-234zm749 479v42q0 39-19.5 60.5T884 603q-35 0-54.5-21.5T810 521v-42q0-39 19.5-60.5T884 397q36 0 55 21.5t19 60.5zm68-320H742v82h284z" glyph-name="uni2116" horiz-adv-x="1085" unicode="№"/><glyph d="M530 138l37-104q-51-22-96.5-33T380-10q-103 0-168 57t-81 160H45v87h82v76H45v87h84q12 110 77.5 171.5T380 690q44 0 88.5-10.5T561 648l-37-106q-47 19-78 27t-59 8q-57 0-91-30.5T253 457h215l-18-87H250v-76h187l-18-87H256q12-52 45-78t86-26q31 0 63.5 8t79.5 27z" glyph-name="Euro" horiz-adv-x="598" unicode="€"/><glyph d="M480 191q0-81-43-131T312-4v-141H202V-8q-40 4-81.5 16T32 41l37 103q55-23 94.5-33t78.5-10q59 0 87.5 21t28.5 65q0 35-18.5 55T276 277l-82 27q-74 24-110.5 72T47 497q0 76 40 125t115 63v140h110V687q33-4 68-14t75-27l-37-103q-52 20-85 28t-65 8q-51 0-75-18.5T169 503q0-33 18.5-53t61.5-34l82-27q76-25 112.5-73.5T480 191z" glyph-name="dollar" horiz-adv-x="518" unicode="$"/><glyph d="M509 236v-87H344V0H224v149H59v87h165v35l-21 41H59v87h99L14 680h128l147-290 139 290h124L408 399h101v-87H364l-20-39v-37z" glyph-name="yen" horiz-adv-x="566" unicode="¥"/><glyph d="M461 115V0H61v105q47 38 69.5 74t22.5 73q0 3-.5 6.5T151 272H53v100h59q-26 50-35 83t-9 65q0 82 52 126t151 44q46 0 90-10t93-32l-37-106q-43 18-77.5 26.5T276 577q-43 0-64-18.5T191 503q0-20 6.5-43t39.5-88h155V272H270v-12q0-35-16.5-71.5T203 115z" glyph-name="sterling" horiz-adv-x="487" unicode="£"/><glyph d="M389 123l33-97q-32-13-58-20.5T315-5v-120H205V-5Q132 11 92 71T52 224v59q0 93 40 153t113 76v120h110V512q24-4 49.5-11.5T417 482l-33-99q-36 14-66 21t-54 7q-50 0-73.5-31T167 283v-59q0-66 23.5-97T264 96q27 0 58.5 7t66.5 20z" glyph-name="cent" horiz-adv-x="448" unicode="¢"/><glyph d="M244 307L214-33q-10-106-48-148T51-223q-29 0-60 5.5T-64-203l28 99q15-5 32.5-8t33.5-3q35 0 50 18t19 64l30 340H13v100h125l14 153q10 106 48 148t115 42q29 0 60-5.5t55-14.5l-28-99q-15 5-32.5 8t-33.5 3q-35 0-50-18t-19-64l-14-153h115V307z" glyph-name="florin" horiz-adv-x="393" unicode="ƒ"/><glyph d="M511 422h-83q-7-81-63-126.5T216 250q80-65 137.5-121.5T472 0H315q-75 86-130 139.5T59 250v87h156q42 0 68.5 22t32.5 63H59v87h256q-5 40-31.5 62T215 593H59v87h452v-87H386q17-16 27.5-37.5T428 509h83z" glyph-name="uni20B9" horiz-adv-x="552" unicode="₹"/><glyph d="M443 194L546 87l-57-59-103 106q-23-15-50-23t-57-8q-30 0-57 8t-50 23L69 28 12 87l103 107q-14 23-21 50t-7 56q0 29 7 56t21 50L12 513l57 59 103-106q23 15 50 23t57 8q30 0 57-8t50-23l103 106 57-59-103-107q14-23 21-50t7-56q0-29-7-56t-21-50zM182 300q0-49 26.5-78t70.5-29q44 0 70.5 29t26.5 78q0 49-26.5 78T279 407q-44 0-70.5-29T182 300z" glyph-name="currency" horiz-adv-x="558" unicode="¤"/><glyph d="M305 690q115 0 177.5-72.5T545 412V269q0-133-62.5-206T305-10q-115 0-177.5 72.5T65 269v143q0 133 62.5 205.5T305 690zm119-421v143q0 84-29.5 125.5T305 579q-60 0-89.5-41T186 412V269q0-85 29.5-126.5T305 101q60 0 89.5 41.5T424 269z" glyph-name="zero" horiz-adv-x="610" unicode="0"/><glyph d="M63 492l-53 91 173 97h100V0H165v548z" glyph-name="one" horiz-adv-x="377" unicode="1"/><glyph d="M452 113V0H40v95q0 92 34.5 154T180 346l68 34q49 24 68.5 47.5T336 481v18q0 39-27 59.5T229 579q-27 0-57-7t-95-31L40 644q53 24 100 35t93 11q107 0 164-50t57-141v-18q0-65-35.5-113T300 279l-68-34q-36-18-54-49.5T158 113z" glyph-name="two" horiz-adv-x="505" unicode="2"/><glyph d="M446 199v-14q0-93-57.5-144T224-10q-50 0-99.5 11.5T20 38l37 103q65-24 98.5-32t64.5-8q55 0 81.5 22t26.5 67v14q0 41-25 63t-71 22H126v108h106q44 0 67.5 21t23.5 60v14q0 44-24.5 65.5T223 579q-30 0-63-7.5T67 541L30 644q52 24 100 35t97 11q103 0 158.5-50.5T441 497v-14q0-45-22-81t-63-58q43-23 66.5-60.5T446 199z" glyph-name="three" horiz-adv-x="501" unicode="3"/><glyph d="M505 261V154h-71V0H318v154H26v97q115 179 162.5 268T263 680h131q-29-80-82-177T164 261h154v103h116V261z" glyph-name="four" horiz-adv-x="527" unicode="4"/><glyph d="M132 294l-65 57 20 329h348V567H193l-9-150q17 5 36 7t39 2q101 0 156-52.5T470 223v-27q0-97-60-151.5T240-10q-50 0-99.5 11.5T36 38l37 103q56-22 92-31t71-9q57 0 85 23.5t28 71.5v27q0 47-27 71.5T242 319q-24 0-50.5-6T132 294z" glyph-name="five" horiz-adv-x="519" unicode="5"/><glyph d="M523 224v-20q0-95-61.5-154.5T300-10q-110 0-172.5 74.5T65 271v141q0 136 64.5 207T317 690q47 0 92.5-11t95.5-35l-43-103q-42 19-76.5 28.5T320 579q-70 0-105-41.5T180 412v-36q34 30 71 45.5t76 15.5q88 0 142-58.5T523 224zm-343 51v-4q0-84 31-127t91-43q48 0 76 27.5t28 75.5v20q0 48-26 76.5T309 329q-35 0-67.5-13.5T180 275z" glyph-name="six" horiz-adv-x="569" unicode="6"/><glyph d="M441 680V577q-67-142-115-286.5T250 0H124q29 146 75.5 288T311 567H19v113z" glyph-name="seven" horiz-adv-x="464" unicode="7"/><glyph d="M406 357q51-29 77-72t26-100q0-90-62.5-142.5T274-10q-106 0-164.5 47.5T51 168q0 52 24.5 93t74.5 74q-43 29-65 70t-22 95q0 84 58.5 137T276 690q101 0 160-49t59-130q0-47-22-85t-67-69zM181 498q0-32 21-54t65-36l49-15q32 27 46.5 51.5T377 497q0 41-26 64t-72 23q-46 0-72-22.5T181 498zm-12-313q0-41 29.5-65T280 96q51 0 81 23.5t30 64.5q0 33-23.5 57T296 279l-54 17q-39-32-56-58t-17-53z" glyph-name="eight" horiz-adv-x="560" unicode="8"/><glyph d="M504 409V268q0-136-64.5-207T252-10q-47 0-92.5 11T64 36l43 103q42-19 76.5-28.5T249 101q70 0 105 41.5T389 268v36q-34-30-71-45.5T242 243q-88 0-142 58.5T46 456v20q0 91 62.5 152.5T269 690q110 0 172.5-74.5T504 409zm-341 67v-20q0-48 26-76.5t71-28.5q35 0 67.5 13.5T389 405v4q0 84-31 127t-91 43q-45 0-74.5-30T163 476z" glyph-name="nine" horiz-adv-x="569" unicode="9"/><glyph d="M275 690q115 0 177.5-72.5T515 412V269q0-133-62.5-206T275-10Q160-10 97.5 62.5T35 269v143q0 133 62.5 205.5T275 690zm119-421v143q0 84-29.5 125.5T275 579q-60 0-89.5-41T156 412V269q0-85 29.5-126.5T275 101q60 0 89.5 41.5T394 269z" glyph-name="zero.tlf" horiz-adv-x="550"/><glyph d="M115 471l-55 97 198 112h100V113h122V0H93v113h147v428z" glyph-name="one.tlf" horiz-adv-x="550"/><glyph d="M478 113V0H66v95q0 92 34.5 154T206 346l68 34q49 24 68.5 47.5T362 481v18q0 39-27 59.5T255 579q-27 0-57-7t-95-31L66 644q53 24 100 35t93 11q107 0 164-50t57-141v-18q0-65-35.5-113T326 279l-68-34q-36-18-54-49.5T184 113z" glyph-name="two.tlf" horiz-adv-x="550"/><glyph d="M472 199v-14q0-93-57.5-144T250-10q-50 0-99.5 11.5T46 38l37 103q65-24 98.5-32t64.5-8q55 0 81.5 22t26.5 67v14q0 41-25 63t-71 22H152v108h106q44 0 67.5 21t23.5 60v14q0 44-24.5 65.5T249 579q-30 0-63-7.5T93 541L56 644q52 24 100 35t97 11q103 0 158.5-50.5T467 497v-14q0-45-22-81t-63-58q43-23 66.5-60.5T472 199z" glyph-name="three.tlf" horiz-adv-x="550"/><glyph d="M528 261V154h-71V0H341v154H49v97q115 179 162.5 268T286 680h131q-29-80-82-177T187 261h154v103h116V261z" glyph-name="four.tlf" horiz-adv-x="550"/><glyph d="M147 294l-65 57 20 329h348V567H208l-9-150q17 5 36 7t39 2q101 0 156-52.5T485 223v-27q0-97-60-151.5T255-10q-50 0-99.5 11.5T51 38l37 103q56-22 92-31t71-9q57 0 85 23.5t28 71.5v27q0 47-27 71.5T257 319q-24 0-50.5-6T147 294z" glyph-name="five.tlf" horiz-adv-x="550"/><glyph d="M512 224v-20q0-95-61.5-154.5T289-10q-110 0-172.5 74.5T54 271v141q0 136 64.5 207T306 690q47 0 92.5-11t95.5-35l-43-103q-42 19-76.5 28.5T309 579q-70 0-105-41.5T169 412v-36q34 30 71 45.5t76 15.5q88 0 142-58.5T512 224zm-343 51v-4q0-84 31-127t91-43q48 0 76 27.5t28 75.5v20q0 48-26 76.5T298 329q-35 0-67.5-13.5T169 275z" glyph-name="six.tlf" horiz-adv-x="550"/><glyph d="M485 680V577q-67-142-115-286.5T294 0H168q29 146 75.5 288T355 567H63v113z" glyph-name="seven.tlf" horiz-adv-x="550"/><glyph d="M401 357q51-29 77-72t26-100q0-90-62.5-142.5T269-10q-106 0-164.5 47.5T46 168q0 52 24.5 93t74.5 74q-43 29-65 70t-22 95q0 84 58.5 137T271 690q101 0 160-49t59-130q0-47-22-85t-67-69zM176 498q0-32 21-54t65-36l49-15q32 27 46.5 51.5T372 497q0 41-26 64t-72 23q-46 0-72-22.5T176 498zm-12-313q0-41 29.5-65T275 96q51 0 81 23.5t30 64.5q0 33-23.5 57T291 279l-54 17q-39-32-56-58t-17-53z" glyph-name="eight.tlf" horiz-adv-x="550"/><glyph d="M496 409V268q0-136-64.5-207T244-10q-47 0-92.5 11T56 36l43 103q42-19 76.5-28.5T241 101q70 0 105 41.5T381 268v36q-34-30-71-45.5T234 243q-88 0-142 58.5T38 456v20q0 91 62.5 152.5T261 690q110 0 172.5-74.5T496 409zm-341 67v-20q0-48 26-76.5t71-28.5q35 0 67.5 13.5T381 405v4q0 84-31 127t-91 43q-45 0-74.5-30T155 476z" glyph-name="nine.tlf" horiz-adv-x="550"/><glyph d="M282 517q111 0 171.5-62T514 279v-50q0-114-60.5-176.5T282-10q-111 0-171.5 62.5T50 229v50q0 114 60 176t172 62zm116-288v50q0 67-29 100.5T282 413q-59 0-87.5-33T166 279v-50q0-68 29-101.5T282 94q58 0 87 34t29 101z" glyph-name="zero.posf" horiz-adv-x="564"/><glyph d="M72 319l-53 91 173 97h100V0H174v375z" glyph-name="one.posf" horiz-adv-x="371"/><glyph d="M421 105V0H53v95q0 69 30 111t96 66l68 24q30 10 44 24t14 33v8q0 24-19.5 36.5T228 410q-34 0-65-7.5T90 376l-37 97q52 23 94.5 33.5T232 517q92 0 141.5-39.5T423 366v-8q0-55-30.5-92.5T299 205l-68-24q-30-11-45-29.5T171 105z" glyph-name="two.posf" horiz-adv-x="480"/><glyph d="M428 26V12q0-93-57.5-144T206-183q-50 0-99.5 11.5T2-135L39-32q65-24 98.5-32t64.5-8q55 0 81.5 22T310 17v14q0 41-25 63t-71 22H108v108h106q44 0 67.5 21t23.5 60v14q0 44-24.5 65.5T205 406q-30 0-63-7.5T49 368L12 471q52 24 100 35t97 11q103 0 158.5-50.5T423 324v-14q0-45-22-81t-63-58q43-23 66.5-60.5T428 26z" glyph-name="three.posf" horiz-adv-x="470"/><glyph d="M509 107V0h-71v-173H322V0H30v97q87 115 144.5 215.5T267 507h131q-35-95-91-193T170 107h152v84h116v-84z" glyph-name="four.posf" horiz-adv-x="528"/><glyph d="M121 121l-65 57 20 329h348V394H182l-9-150q17 5 36 7t39 2q101 0 156-52.5T459 50V23q0-97-60-151.5T229-183q-50 0-99.5 11.5T25-135L62-32q56-22 92-31t71-9q57 0 85 23.5T338 23v27q0 47-27 71.5T231 146q-24 0-50.5-6T121 121z" glyph-name="five.posf" horiz-adv-x="487"/><glyph d="M514 224v-20q0-95-61.5-154.5T291-10q-110 0-172.5 74.5T56 271v141q0 136 64.5 207T308 690q47 0 92.5-11t95.5-35l-43-103q-42 19-76.5 28.5T311 579q-70 0-105-41.5T171 412v-36q34 30 71 45.5t76 15.5q88 0 142-58.5T514 224zm-343 51v-4q0-84 31-127t91-43q48 0 76 27.5t28 75.5v20q0 48-26 76.5T300 329q-35 0-67.5-13.5T171 275z" glyph-name="six.posf" horiz-adv-x="560"/><glyph d="M443 507V404q-67-142-115-286.5T252-173H126q29 146 75.5 288T313 394H21v113z" glyph-name="seven.posf" horiz-adv-x="476"/><glyph d="M390 357q51-29 77-72t26-100q0-90-62.5-142.5T258-10Q152-10 93.5 37.5T35 168q0 52 24.5 93t74.5 74q-43 29-65 70t-22 95q0 84 58.5 137T260 690q101 0 160-49t59-130q0-47-22-85t-67-69zM165 498q0-32 21-54t65-36l49-15q32 27 46.5 51.5T361 497q0 41-26 64t-72 23q-46 0-72-22.5T165 498zm-12-313q0-41 29.5-65T264 96q51 0 81 23.5t30 64.5q0 33-23.5 57T280 279l-54 17q-39-32-56-58t-17-53z" glyph-name="eight.posf" horiz-adv-x="528"/><glyph d="M500 236V95q0-136-64.5-207T248-183q-47 0-92.5 11T60-137l43 103q42-19 76.5-28.5T245-72q70 0 105 41.5T385 95v36q-34-30-71-45.5T238 70q-88 0-142 58.5T42 283v20q0 91 62.5 152.5T265 517q110 0 172.5-74.5T500 236zm-341 67v-20q0-48 26-76.5t71-28.5q35 0 67.5 13.5T385 232v4q0 84-31 127t-91 43q-45 0-74.5-30T159 303z" glyph-name="nine.posf" horiz-adv-x="551"/><glyph d="M331 528q0-71-44-116.5T174 366q-69 0-113 45T17 528q0 72 43.5 117T174 690q69 0 113-45t44-117zm-234 0q0-39 21-62t56-23q35 0 56 23t21 62q0 39-21 62t-56 23q-35 0-56-23t-21-62z" glyph-name="degree" horiz-adv-x="348" unicode="°"/><glyph d="M173 685q66 0 101.5-36T310 546v-31q0-67-35.5-103.5T173 375q-66 0-101.5 36.5T36 515v31q0 67 35.5 103T173 685zM156 0l329 680h90L246 0zm74 515v31q0 32-14 48t-43 16q-28 0-42-16t-14-48v-31q0-33 13.5-48.5T173 451q29 0 43 15.5t14 48.5zm329-210q66 0 101.5-36T696 166v-31q0-67-35.5-103.5T559-5q-66 0-101.5 36.5T422 135v31q0 67 35.5 103T559 305zm57-170v31q0 32-14 48t-43 16q-28 0-42-16t-14-48v-31q0-33 13.5-48.5T559 71q29 0 43 15.5t14 48.5z" glyph-name="percent" horiz-adv-x="732" unicode="%"/><glyph d="M173 685q66 0 101.5-36T310 546v-31q0-67-35.5-103.5T173 375q-66 0-101.5 36.5T36 515v31q0 67 35.5 103T173 685zM156 0l329 680h90L246 0zm74 515v31q0 32-14 48t-43 16q-28 0-42-16t-14-48v-31q0-33 13.5-48.5T173 451q29 0 43 15.5t14 48.5zm329-210q66 0 101.5-36T696 166v-31q0-67-35.5-103.5T559-5q-66 0-101.5 36.5T422 135v31q0 67 35.5 103T559 305zm343 0q66 0 101.5-36t35.5-103v-31q0-67-35.5-103.5T902-5q-66 0-101.5 36.5T765 135v31q0 67 35.5 103T902 305zM616 135v31q0 32-14 48t-43 16q-28 0-42-16t-14-48v-31q0-33 13.5-48.5T559 71q29 0 43 15.5t14 48.5zm343 0v31q0 32-14 48t-43 16q-28 0-42-16t-14-48v-31q0-33 13.5-48.5T902 71q29 0 43 15.5t14 48.5z" glyph-name="perthousand" horiz-adv-x="1075" unicode="‰"/><glyph d="M-154 0l329 680h90L-64 0z" glyph-name="fraction" horiz-adv-x="111" unicode="⁄"/><glyph d="M-154 0l329 680h90L-64 0z" glyph-name="uni2215" horiz-adv-x="111" unicode="∕"/><glyph d="M163 790q63 0 96.5-36T293 651v-71q0-67-34-103.5T163 440q-63 0-96.5 36.5T33 580v71q0 67 33.5 103t96.5 36zm50-210v71q0 32-12.5 48T163 715q-25 0-37-16t-12-48v-71q0-33 12-48.5t37-15.5q25 0 37.5 16t12.5 48z" glyph-name="zerosuperior" horiz-adv-x="326" unicode="⁰"/><glyph d="M47 674l-30 63 96 48h60V445H94v252z" glyph-name="onesuperior" horiz-adv-x="220" unicode="¹"/><glyph d="M242 522v-77H21v68q0 43 18.5 72.5T96 632l34 15q18 8 26 17t8 21v3q0 13-11 20t-32 7q-15 0-32-4t-49-15l-19 71q26 12 51.5 17.5T124 790q58 0 88.5-26t30.5-73v-9q0-33-18-56t-58-41l-34-15q-16-7-23.5-18t-9.5-30z" glyph-name="twosuperior" horiz-adv-x="269" unicode="²"/><glyph d="M243 545v-7q0-46-32-72t-92-26q-27 0-54 5.5T15 461l20 70q21-8 40.5-11.5T115 516q25 0 37 7t12 22v7q0 15-11.5 24t-31.5 9H70v64h51q19 0 29.5 8t10.5 22v7q0 15-11 22t-35 7q-16 0-33.5-3.5T42 700l-22 70q25 10 49 15t48 5q60 0 91.5-25t31.5-71v-7q0-23-12.5-41T192 617q24-11 37.5-29.5T243 545z" glyph-name="threesuperior" horiz-adv-x="275" unicode="³"/><glyph d="M268 581v-69h-34v-67h-73v67H13v64q44 67 71 116.5t43 92.5h85q-17-45-44-94.5T99 581h62v46h73v-46z" glyph-name="foursuperior" horiz-adv-x="279" unicode="⁴"/><glyph d="M75 584l-39 37 10 164h191v-69H111l-3-58q8 2 16 2.5t17 .5q53 0 82-25.5t29-73.5v-14q0-51-32.5-79.5T127 440q-31 0-56.5 5.5T20 462l21 71q22-9 42.5-13t41.5-4q25 0 36 8t11 25v14q0 16-11 24t-33 8q-13 0-26-2.5T75 584z" glyph-name="fivesuperior" horiz-adv-x="276" unicode="⁵"/><glyph d="M278 560v-15q0-47-32-76t-85-29q-60 0-93.5 37.5T34 581v70q0 68 34 103.5t99 35.5q26 0 50-4.5t49-14.5l-21-71q-19 8-37.5 12t-38.5 4q-30 0-44.5-16T110 651v-14q16 14 34.5 20.5T185 664q42 0 67.5-28t25.5-76zm-117 35q-13 0-26-5t-25-16q1-30 14-45.5t37-15.5q19 0 29 8.5t10 23.5v15q0 16-10.5 25.5T161 595z" glyph-name="sixsuperior" horiz-adv-x="303" unicode="⁶"/><glyph d="M239 785v-71q-38-80-61-145.5T144 445H61q11 57 33.5 120T155 709H8v76z" glyph-name="sevensuperior" horiz-adv-x="253" unicode="⁷"/><glyph d="M223 628q26-15 38.5-36t12.5-50q0-47-33.5-74.5T149 440q-57 0-88.5 25T29 533q0 22 12 40.5T79 609q-22 15-33 35.5T35 692q0 45 31 71.5t84 26.5q54 0 85.5-25t31.5-67q0-21-10.5-38T223 628zm-111 63q0-12 8-20.5t25-13.5l25-8q10 10 15 20t5 22q0 14-10.5 21.5T151 720q-18 0-28.5-7.5T112 691zm-6-149q0-15 12-23.5t34-8.5q21 0 33 8t12 23q0 13-9.5 22T160 577l-27 8q-14-12-20.5-22t-6.5-21z" glyph-name="eightsuperior" horiz-adv-x="303" unicode="⁸"/><glyph d="M269 649v-70q0-68-34-103.5T136 440q-26 0-50 4.5T37 459l21 71q19-8 37.5-12t38.5-4q30 0 44.5 16t14.5 49v14q-16-13-34.5-20t-40.5-7q-42 0-67.5 28T25 670v15q0 47 32 76t85 29q60 0 93.5-37.5T269 649zm-166 36v-15q0-16 10.5-25.5T142 635q14 0 26.5 5.5T193 656q-1 30-14 45.5T142 717q-19 0-29-8.5T103 685z" glyph-name="ninesuperior" horiz-adv-x="303" unicode="⁹"/><glyph d="M163 240q63 0 96.5-36T293 101V30q0-67-34-103.5T163-110q-63 0-96.5 36.5T33 30v71q0 67 33.5 103t96.5 36zm50-210v71q0 32-12.5 48T163 165q-25 0-37-16t-12-48V30q0-33 12-48.5T163-34q25 0 37.5 16T213 30z" glyph-name="zeroinferior" horiz-adv-x="326" unicode="₀"/><glyph d="M47 124l-30 63 96 48h60v-340H94v252z" glyph-name="oneinferior" horiz-adv-x="220" unicode="₁"/><glyph d="M242-28v-77H21v68q0 43 18.5 72.5T96 82l34 15q18 8 26 17t8 21v3q0 13-11 20t-32 7q-15 0-32-4t-49-15l-19 71q26 12 51.5 17.5T124 240q58 0 88.5-26t30.5-73v-9q0-33-18-56t-58-41l-34-15q-16-7-23.5-18T100-28z" glyph-name="twoinferior" horiz-adv-x="269" unicode="₂"/><glyph d="M243-5v-7q0-46-32-72t-92-26q-27 0-54 5.5T15-89l20 70q21-8 40.5-11.5T115-34q25 0 37 7t12 22v7q0 15-11.5 24T121 35H70v64h51q19 0 29.5 8t10.5 22v7q0 15-11 22t-35 7q-16 0-33.5-3.5T42 150l-22 70q25 10 49 15t48 5q60 0 91.5-25t31.5-71v-7q0-23-12.5-41T192 67q24-11 37.5-29.5T243-5z" glyph-name="threeinferior" horiz-adv-x="275" unicode="₃"/><glyph d="M268 31v-69h-34v-67h-73v67H13v64q44 67 71 116.5t43 92.5h85q-17-45-44-94.5T99 31h62v46h73V31z" glyph-name="fourinferior" horiz-adv-x="279" unicode="₄"/><glyph d="M75 34L36 71l10 164h191v-69H111l-3-58q8 2 16 2.5t17 .5q53 0 82-25.5T252 12V-2q0-51-32.5-79.5T127-110q-31 0-56.5 5.5T20-88l21 71q22-9 42.5-13t41.5-4q25 0 36 8t11 25v14q0 16-11 24t-33 8q-13 0-26-2.5T75 34z" glyph-name="fiveinferior" horiz-adv-x="276" unicode="₅"/><glyph d="M278 10V-5q0-47-32-76t-85-29q-60 0-93.5 37.5T34 31v70q0 68 34 103.5t99 35.5q26 0 50-4.5t49-14.5l-21-71q-19 8-37.5 12t-38.5 4q-30 0-44.5-16T110 101V87q16 14 34.5 20.5T185 114q42 0 67.5-28T278 10zM161 45q-13 0-26-5t-25-16q1-30 14-45.5T161-37q19 0 29 8.5T200-5v15q0 16-10.5 25.5T161 45z" glyph-name="sixinferior" horiz-adv-x="303" unicode="₆"/><glyph d="M239 235v-71q-38-80-61-145.5T144-105H61Q72-48 94.5 15T155 159H8v76z" glyph-name="seveninferior" horiz-adv-x="253" unicode="₇"/><glyph d="M223 78q26-15 38.5-36T274-8q0-47-33.5-74.5T149-110q-57 0-88.5 25T29-17q0 22 12 40.5T79 59Q57 74 46 94.5T35 142q0 45 31 71.5t84 26.5q54 0 85.5-25t31.5-67q0-21-10.5-38T223 78zm-111 63q0-12 8-20.5t25-13.5l25-8q10 10 15 20t5 22q0 14-10.5 21.5T151 170q-18 0-28.5-7.5T112 141zM106-8q0-15 12-23.5t34-8.5q21 0 33 8t12 23q0 13-9.5 22T160 27l-27 8q-14-12-20.5-22T106-8z" glyph-name="eightinferior" horiz-adv-x="303" unicode="₈"/><glyph d="M269 99V29q0-68-34-103.5T136-110q-26 0-50 4.5T37-91l21 71q19-8 37.5-12t38.5-4q30 0 44.5 16T193 29v14q-16-13-34.5-20T118 16q-42 0-67.5 28T25 120v15q0 47 32 76t85 29q60 0 93.5-37.5T269 99zm-166 36v-15q0-16 10.5-25.5T142 85q14 0 26.5 5.5T193 106q-1 30-14 45.5T142 167q-19 0-29-8.5T103 135z" glyph-name="nineinferior" horiz-adv-x="303" unicode="₉"/><glyph d="M163 240q63 0 96.5-36T293 101V30q0-67-34-103.5T163-110q-63 0-96.5 36.5T33 30v71q0 67 33.5 103t96.5 36zm50-210v71q0 32-12.5 48T163 165q-25 0-37-16t-12-48V30q0-33 12-48.5T163-34q25 0 37.5 16T213 30z" glyph-name="zero.numerator" horiz-adv-x="326"/><glyph d="M47 124l-30 63 96 48h60v-340H94v252z" glyph-name="one.numerator" horiz-adv-x="220"/><glyph d="M242-28v-77H21v68q0 43 18.5 72.5T96 82l34 15q18 8 26 17t8 21v3q0 13-11 20t-32 7q-15 0-32-4t-49-15l-19 71q26 12 51.5 17.5T124 240q58 0 88.5-26t30.5-73v-9q0-33-18-56t-58-41l-34-15q-16-7-23.5-18T100-28z" glyph-name="two.numerator" horiz-adv-x="269"/><glyph d="M243-5v-7q0-46-32-72t-92-26q-27 0-54 5.5T15-89l20 70q21-8 40.5-11.5T115-34q25 0 37 7t12 22v7q0 15-11.5 24T121 35H70v64h51q19 0 29.5 8t10.5 22v7q0 15-11 22t-35 7q-16 0-33.5-3.5T42 150l-22 70q25 10 49 15t48 5q60 0 91.5-25t31.5-71v-7q0-23-12.5-41T192 67q24-11 37.5-29.5T243-5z" glyph-name="three.numerator" horiz-adv-x="275"/><glyph d="M268 31v-69h-34v-67h-73v67H13v64q44 67 71 116.5t43 92.5h85q-17-45-44-94.5T99 31h62v46h73V31z" glyph-name="four.numerator" horiz-adv-x="279"/><glyph d="M75 34L36 71l10 164h191v-69H111l-3-58q8 2 16 2.5t17 .5q53 0 82-25.5T252 12V-2q0-51-32.5-79.5T127-110q-31 0-56.5 5.5T20-88l21 71q22-9 42.5-13t41.5-4q25 0 36 8t11 25v14q0 16-11 24t-33 8q-13 0-26-2.5T75 34z" glyph-name="five.numerator" horiz-adv-x="276"/><glyph d="M278 10V-5q0-47-32-76t-85-29q-60 0-93.5 37.5T34 31v70q0 68 34 103.5t99 35.5q26 0 50-4.5t49-14.5l-21-71q-19 8-37.5 12t-38.5 4q-30 0-44.5-16T110 101V87q16 14 34.5 20.5T185 114q42 0 67.5-28T278 10zM161 45q-13 0-26-5t-25-16q1-30 14-45.5T161-37q19 0 29 8.5T200-5v15q0 16-10.5 25.5T161 45z" glyph-name="six.numerator" horiz-adv-x="303"/><glyph d="M239 235v-71q-38-80-61-145.5T144-105H61Q72-48 94.5 15T155 159H8v76z" glyph-name="seven.numerator" horiz-adv-x="253"/><glyph d="M223 78q26-15 38.5-36T274-8q0-47-33.5-74.5T149-110q-57 0-88.5 25T29-17q0 22 12 40.5T79 59Q57 74 46 94.5T35 142q0 45 31 71.5t84 26.5q54 0 85.5-25t31.5-67q0-21-10.5-38T223 78zm-111 63q0-12 8-20.5t25-13.5l25-8q10 10 15 20t5 22q0 14-10.5 21.5T151 170q-18 0-28.5-7.5T112 141zM106-8q0-15 12-23.5t34-8.5q21 0 33 8t12 23q0 13-9.5 22T160 27l-27 8q-14-12-20.5-22T106-8z" glyph-name="eight.numerator" horiz-adv-x="303"/><glyph d="M269 99V29q0-68-34-103.5T136-110q-26 0-50 4.5T37-91l21 71q19-8 37.5-12t38.5-4q30 0 44.5 16T193 29v14q-16-13-34.5-20T118 16q-42 0-67.5 28T25 120v15q0 47 32 76t85 29q60 0 93.5-37.5T269 99zm-166 36v-15q0-16 10.5-25.5T142 85q14 0 26.5 5.5T193 106q-1 30-14 45.5T142 167q-19 0-29-8.5T103 135z" glyph-name="nine.numerator" horiz-adv-x="303"/><glyph d="M163 345q63 0 96.5-36T293 206v-71q0-67-34-103.5T163-5q-63 0-96.5 36.5T33 135v71q0 67 33.5 103t96.5 36zm50-210v71q0 32-12.5 48T163 270q-25 0-37-16t-12-48v-71q0-33 12-48.5T163 71q25 0 37.5 16t12.5 48z" glyph-name="zero.denominator" horiz-adv-x="326"/><glyph d="M47 229l-30 63 96 48h60V0H94v252z" glyph-name="one.denominator" horiz-adv-x="220"/><glyph d="M242 77V0H21v68q0 43 18.5 72.5T96 187l34 15q18 8 26 17t8 21v3q0 13-11 20t-32 7q-15 0-32-4t-49-15l-19 71q26 12 51.5 17.5T124 345q58 0 88.5-26t30.5-73v-9q0-33-18-56t-58-41l-34-15q-16-7-23.5-18T100 77z" glyph-name="two.denominator" horiz-adv-x="269"/><glyph d="M243 100v-7q0-46-32-72T119-5Q92-5 65 .5T15 16l20 70q21-8 40.5-11.5T115 71q25 0 37 7t12 22v7q0 15-11.5 24t-31.5 9H70v64h51q19 0 29.5 8t10.5 22v7q0 15-11 22t-35 7q-16 0-33.5-3.5T42 255l-22 70q25 10 49 15t48 5q60 0 91.5-25t31.5-71v-7q0-23-12.5-41T192 172q24-11 37.5-29.5T243 100z" glyph-name="three.denominator" horiz-adv-x="275"/><glyph d="M268 136V67h-34V0h-73v67H13v64q44 67 71 116.5t43 92.5h85q-17-45-44-94.5T99 136h62v46h73v-46z" glyph-name="four.denominator" horiz-adv-x="279"/><glyph d="M75 139l-39 37 10 164h191v-69H111l-3-58q8 2 16 2.5t17 .5q53 0 82-25.5t29-73.5v-14q0-51-32.5-79.5T127-5Q96-5 70.5.5T20 17l21 71q22-9 42.5-13t41.5-4q25 0 36 8t11 25v14q0 16-11 24t-33 8q-13 0-26-2.5T75 139z" glyph-name="five.denominator" horiz-adv-x="276"/><glyph d="M278 115v-15q0-47-32-76T161-5q-60 0-93.5 37.5T34 136v70q0 68 34 103.5t99 35.5q26 0 50-4.5t49-14.5l-21-71q-19 8-37.5 12t-38.5 4q-30 0-44.5-16T110 206v-14q16 14 34.5 20.5T185 219q42 0 67.5-28t25.5-76zm-117 35q-13 0-26-5t-25-16q1-30 14-45.5T161 68q19 0 29 8.5t10 23.5v15q0 16-10.5 25.5T161 150z" glyph-name="six.denominator" horiz-adv-x="303"/><glyph d="M239 340v-71q-38-80-61-145.5T144 0H61q11 57 33.5 120T155 264H8v76z" glyph-name="seven.denominator" horiz-adv-x="253"/><glyph d="M223 183q26-15 38.5-36T274 97q0-47-33.5-74.5T149-5Q92-5 60.5 20T29 88q0 22 12 40.5T79 164q-22 15-33 35.5T35 247q0 45 31 71.5t84 26.5q54 0 85.5-25t31.5-67q0-21-10.5-38T223 183zm-111 63q0-12 8-20.5t25-13.5l25-8q10 10 15 20t5 22q0 14-10.5 21.5T151 275q-18 0-28.5-7.5T112 246zm-6-149q0-15 12-23.5t34-8.5q21 0 33 8t12 23q0 13-9.5 22T160 132l-27 8q-14-12-20.5-22T106 97z" glyph-name="eight.denominator" horiz-adv-x="303"/><glyph d="M269 204v-70q0-68-34-103.5T136-5Q110-5 86-.5T37 14l21 71q19-8 37.5-12t38.5-4q30 0 44.5 16t14.5 49v14q-16-13-34.5-20t-40.5-7q-42 0-67.5 28T25 225v15q0 47 32 76t85 29q60 0 93.5-37.5T269 204zm-166 36v-15q0-16 10.5-25.5T142 190q14 0 26.5 5.5T193 211q-1 30-14 45.5T142 272q-19 0-29-8.5T103 240z" glyph-name="nine.denominator" horiz-adv-x="303"/><glyph d="M47 569l-30 63 96 48h60V340H94v252zM91 0l329 680h90L181 0zm527 77V0H397v68q0 43 18.5 72.5T472 187l34 15q18 8 26 17t8 21v3q0 13-11 20t-32 7q-15 0-32-4t-49-15l-19 71q26 12 51.5 17.5T500 345q58 0 88.5-26t30.5-73v-9q0-33-18-56t-58-41l-34-15q-16-7-23.5-18T476 77z" glyph-name="onehalf" horiz-adv-x="645" unicode="½"/><glyph d="M47 569l-30 63 96 48h60V340H94v252zM91 0l329 680h90L181 0zm521 100v-7q0-46-32-72T488-5q-27 0-54 5.5T384 16l20 70q21-8 40.5-11.5T484 71q25 0 37 7t12 22v7q0 15-11.5 24t-31.5 9h-51v64h51q19 0 29.5 8t10.5 22v7q0 15-11 22t-35 7q-16 0-33.5-3.5T411 255l-22 70q25 10 49 15t48 5q60 0 91.5-25t31.5-71v-7q0-23-12.5-41T561 172q24-11 37.5-29.5T612 100z" glyph-name="onethird" horiz-adv-x="644" unicode="⅓"/><glyph d="M47 569l-30 63 96 48h60V340H94v252zM91 0l329 680h90L181 0zm517 136V67h-34V0h-73v67H353v64q44 67 71 116.5t43 92.5h85q-17-45-44-94.5T439 136h62v46h73v-46z" glyph-name="onequarter" horiz-adv-x="614" unicode="¼"/><glyph d="M47 569l-30 63 96 48h60V340H94v252zM91 0l329 680h90L181 0zm346 139l-39 37 10 164h191v-69H473l-3-58q8 2 16 2.5t17 .5q53 0 82-25.5t29-73.5v-14q0-51-32.5-79.5T489-5Q458-5 432.5.5T382 17l21 71q22-9 42.5-13t41.5-4q25 0 36 8t11 25v14q0 16-11 24t-33 8q-13 0-26-2.5t-27-8.5z" glyph-name="onefifth" horiz-adv-x="638"/><glyph d="M47 569l-30 63 96 48h60V340H94v252zM91 0l329 680h90L181 0zm543 115v-15q0-47-32-76T517-5q-60 0-93.5 37.5T390 136v70q0 68 34 103.5t99 35.5q26 0 50-4.5t49-14.5l-21-71q-19 8-37.5 12t-38.5 4q-30 0-44.5-16T466 206v-14q16 14 34.5 20.5T541 219q42 0 67.5-28t25.5-76zm-117 35q-13 0-26-5t-25-16q1-30 14-45.5T517 68q19 0 29 8.5t10 23.5v15q0 16-10.5 25.5T517 150z" glyph-name="onesixth" horiz-adv-x="659"/><glyph d="M47 569l-30 63 96 48h60V340H94v252zM91 0l329 680h90L181 0zm544 340v-71q-38-80-61-145.5T540 0h-83q11 57 33.5 120T551 264H404v76z" glyph-name="oneseventh" horiz-adv-x="649"/><glyph d="M47 569l-30 63 96 48h60V340H94v252zM91 0l329 680h90L181 0zm488 183q26-15 38.5-36T630 97q0-47-33.5-74.5T505-5q-57 0-88.5 25T385 88q0 22 12 40.5t38 35.5q-22 15-33 35.5T391 247q0 45 31 71.5t84 26.5q54 0 85.5-25t31.5-67q0-21-10.5-38T579 183zm-111 63q0-12 8-20.5t25-13.5l25-8q10 10 15 20t5 22q0 14-10.5 21.5T507 275q-18 0-28.5-7.5T468 246zm-6-149q0-15 12-23.5t34-8.5q21 0 33 8t12 23q0 13-9.5 22T516 132l-27 8q-14-12-20.5-22T462 97z" glyph-name="oneeighth" horiz-adv-x="659" unicode="⅛"/><glyph d="M47 569l-30 63 96 48h60V340H94v252zM91 0l329 680h90L181 0zm534 204v-70q0-68-34-103.5T492-5q-26 0-50 4.5T393 14l21 71q19-8 37.5-12t38.5-4q30 0 44.5 16t14.5 49v14q-16-13-34.5-20t-40.5-7q-42 0-67.5 28T381 225v15q0 47 32 76t85 29q60 0 93.5-37.5T625 204zm-166 36v-15q0-16 10.5-25.5T498 190q14 0 26.5 5.5T549 211q-1 30-14 45.5T498 272q-19 0-29-8.5T459 240z" glyph-name="oneninth" horiz-adv-x="659"/><glyph d="M242 417v-77H21v68q0 43 18.5 72.5T96 527l34 15q18 8 26 17t8 21v3q0 13-11 20t-32 7q-15 0-32-4t-49-15l-19 71q26 12 51.5 17.5T124 685q58 0 88.5-26t30.5-73v-9q0-33-18-56t-58-41l-34-15q-16-7-23.5-18t-9.5-30zM140 0l329 680h90L230 0zm521 100v-7q0-46-32-72T537-5q-27 0-54 5.5T433 16l20 70q21-8 40.5-11.5T533 71q25 0 37 7t12 22v7q0 15-11.5 24t-31.5 9h-51v64h51q19 0 29.5 8t10.5 22v7q0 15-11 22t-35 7q-16 0-33.5-3.5T460 255l-22 70q25 10 49 15t48 5q60 0 91.5-25t31.5-71v-7q0-23-12.5-41T610 172q24-11 37.5-29.5T661 100z" glyph-name="twothirds" horiz-adv-x="693" unicode="⅔"/><glyph d="M242 417v-77H21v68q0 43 18.5 72.5T96 527l34 15q18 8 26 17t8 21v3q0 13-11 20t-32 7q-15 0-32-4t-49-15l-19 71q26 12 51.5 17.5T124 685q58 0 88.5-26t30.5-73v-9q0-33-18-56t-58-41l-34-15q-16-7-23.5-18t-9.5-30zM140 0l329 680h90L230 0zm346 139l-39 37 10 164h191v-69H522l-3-58q8 2 16 2.5t17 .5q53 0 82-25.5t29-73.5v-14q0-51-32.5-79.5T538-5Q507-5 481.5.5T431 17l21 71q22-9 42.5-13t41.5-4q25 0 36 8t11 25v14q0 16-11 24t-33 8q-13 0-26-2.5t-27-8.5z" glyph-name="twofifths" horiz-adv-x="687"/><glyph d="M242 417v-77H21v68q0 43 18.5 72.5T96 527l34 15q18 8 26 17t8 21v3q0 13-11 20t-32 7q-15 0-32-4t-49-15l-19 71q26 12 51.5 17.5T124 685q58 0 88.5-26t30.5-73v-9q0-33-18-56t-58-41l-34-15q-16-7-23.5-18t-9.5-30zM140 0l329 680h90L230 0zm544 340v-71q-38-80-61-145.5T589 0h-83q11 57 33.5 120T600 264H453v76z" glyph-name="twosevenths" horiz-adv-x="698"/><glyph d="M242 417v-77H21v68q0 43 18.5 72.5T96 527l34 15q18 8 26 17t8 21v3q0 13-11 20t-32 7q-15 0-32-4t-49-15l-19 71q26 12 51.5 17.5T124 685q58 0 88.5-26t30.5-73v-9q0-33-18-56t-58-41l-34-15q-16-7-23.5-18t-9.5-30zM140 0l329 680h90L230 0zm534 204v-70q0-68-34-103.5T541-5q-26 0-50 4.5T442 14l21 71q19-8 37.5-12t38.5-4q30 0 44.5 16t14.5 49v14q-16-13-34.5-20t-40.5-7q-42 0-67.5 28T430 225v15q0 47 32 76t85 29q60 0 93.5-37.5T674 204zm-166 36v-15q0-16 10.5-25.5T547 190q14 0 26.5 5.5T598 211q-1 30-14 45.5T547 272q-19 0-29-8.5T508 240z" glyph-name="twoninths" horiz-adv-x="708"/><glyph d="M243 440v-7q0-46-32-72t-92-26q-27 0-54 5.5T15 356l20 70q21-8 40.5-11.5T115 411q25 0 37 7t12 22v7q0 15-11.5 24t-31.5 9H70v64h51q19 0 29.5 8t10.5 22v7q0 15-11 22t-35 7q-16 0-33.5-3.5T42 595l-22 70q25 10 49 15t48 5q60 0 91.5-25t31.5-71v-7q0-23-12.5-41T192 512q24-11 37.5-29.5T243 440zM121 0l329 680h90L211 0zm517 136V67h-34V0h-73v67H383v64q44 67 71 116.5t43 92.5h85q-17-45-44-94.5T469 136h62v46h73v-46z" glyph-name="threequarters" horiz-adv-x="644" unicode="¾"/><glyph d="M243 440v-7q0-46-32-72t-92-26q-27 0-54 5.5T15 356l20 70q21-8 40.5-11.5T115 411q25 0 37 7t12 22v7q0 15-11.5 24t-31.5 9H70v64h51q19 0 29.5 8t10.5 22v7q0 15-11 22t-35 7q-16 0-33.5-3.5T42 595l-22 70q25 10 49 15t48 5q60 0 91.5-25t31.5-71v-7q0-23-12.5-41T192 512q24-11 37.5-29.5T243 440zM121 0l329 680h90L211 0zm346 139l-39 37 10 164h191v-69H503l-3-58q8 2 16 2.5t17 .5q53 0 82-25.5t29-73.5v-14q0-51-32.5-79.5T519-5Q488-5 462.5.5T412 17l21 71q22-9 42.5-13t41.5-4q25 0 36 8t11 25v14q0 16-11 24t-33 8q-13 0-26-2.5t-27-8.5z" glyph-name="threefifths" horiz-adv-x="668"/><glyph d="M243 440v-7q0-46-32-72t-92-26q-27 0-54 5.5T15 356l20 70q21-8 40.5-11.5T115 411q25 0 37 7t12 22v7q0 15-11.5 24t-31.5 9H70v64h51q19 0 29.5 8t10.5 22v7q0 15-11 22t-35 7q-16 0-33.5-3.5T42 595l-22 70q25 10 49 15t48 5q60 0 91.5-25t31.5-71v-7q0-23-12.5-41T192 512q24-11 37.5-29.5T243 440zM121 0l329 680h90L211 0zm544 340v-71q-38-80-61-145.5T570 0h-83q11 57 33.5 120T581 264H434v76z" glyph-name="threesevenths" horiz-adv-x="679"/><glyph d="M243 440v-7q0-46-32-72t-92-26q-27 0-54 5.5T15 356l20 70q21-8 40.5-11.5T115 411q25 0 37 7t12 22v7q0 15-11.5 24t-31.5 9H70v64h51q19 0 29.5 8t10.5 22v7q0 15-11 22t-35 7q-16 0-33.5-3.5T42 595l-22 70q25 10 49 15t48 5q60 0 91.5-25t31.5-71v-7q0-23-12.5-41T192 512q24-11 37.5-29.5T243 440zM121 0l329 680h90L211 0zm488 183q26-15 38.5-36T660 97q0-47-33.5-74.5T535-5q-57 0-88.5 25T415 88q0 22 12 40.5t38 35.5q-22 15-33 35.5T421 247q0 45 31 71.5t84 26.5q54 0 85.5-25t31.5-67q0-21-10.5-38T609 183zm-111 63q0-12 8-20.5t25-13.5l25-8q10 10 15 20t5 22q0 14-10.5 21.5T537 275q-18 0-28.5-7.5T498 246zm-6-149q0-15 12-23.5t34-8.5q21 0 33 8t12 23q0 13-9.5 22T546 132l-27 8q-14-12-20.5-22T492 97z" glyph-name="threeeighths" horiz-adv-x="689" unicode="⅜"/><glyph d="M268 476v-69h-34v-67h-73v67H13v64q44 67 71 116.5t43 92.5h85q-17-45-44-94.5T99 476h62v46h73v-46zM145 0l329 680h90L235 0zm346 139l-39 37 10 164h191v-69H527l-3-58q8 2 16 2.5t17 .5q53 0 82-25.5t29-73.5v-14q0-51-32.5-79.5T543-5Q512-5 486.5.5T436 17l21 71q22-9 42.5-13t41.5-4q25 0 36 8t11 25v14q0 16-11 24t-33 8q-13 0-26-2.5t-27-8.5z" glyph-name="fourfifths" horiz-adv-x="692"/><glyph d="M268 476v-69h-34v-67h-73v67H13v64q44 67 71 116.5t43 92.5h85q-17-45-44-94.5T99 476h62v46h73v-46zM145 0l329 680h90L235 0zm544 340v-71q-38-80-61-145.5T594 0h-83q11 57 33.5 120T605 264H458v76z" glyph-name="foursevenths" horiz-adv-x="703"/><glyph d="M268 476v-69h-34v-67h-73v67H13v64q44 67 71 116.5t43 92.5h85q-17-45-44-94.5T99 476h62v46h73v-46zM145 0l329 680h90L235 0zm534 204v-70q0-68-34-103.5T546-5q-26 0-50 4.5T447 14l21 71q19-8 37.5-12t38.5-4q30 0 44.5 16t14.5 49v14q-16-13-34.5-20t-40.5-7q-42 0-67.5 28T435 225v15q0 47 32 76t85 29q60 0 93.5-37.5T679 204zm-166 36v-15q0-16 10.5-25.5T552 190q14 0 26.5 5.5T603 211q-1 30-14 45.5T552 272q-19 0-29-8.5T513 240z" glyph-name="fourninths" horiz-adv-x="713"/><glyph d="M75 479l-39 37 10 164h191v-69H111l-3-58q8 2 16 2.5t17 .5q53 0 82-25.5t29-73.5v-14q0-51-32.5-79.5T127 335q-31 0-56.5 5.5T20 357l21 71q22-9 42.5-13t41.5-4q25 0 36 8t11 25v14q0 16-11 24t-33 8q-13 0-26-2.5T75 479zM122 0l329 680h90L212 0zm543 115v-15q0-47-32-76T548-5q-60 0-93.5 37.5T421 136v70q0 68 34 103.5t99 35.5q26 0 50-4.5t49-14.5l-21-71q-19 8-37.5 12t-38.5 4q-30 0-44.5-16T497 206v-14q16 14 34.5 20.5T572 219q42 0 67.5-28t25.5-76zm-117 35q-13 0-26-5t-25-16q1-30 14-45.5T548 68q19 0 29 8.5t10 23.5v15q0 16-10.5 25.5T548 150z" glyph-name="fivesixths" horiz-adv-x="690"/><glyph d="M75 479l-39 37 10 164h191v-69H111l-3-58q8 2 16 2.5t17 .5q53 0 82-25.5t29-73.5v-14q0-51-32.5-79.5T127 335q-31 0-56.5 5.5T20 357l21 71q22-9 42.5-13t41.5-4q25 0 36 8t11 25v14q0 16-11 24t-33 8q-13 0-26-2.5T75 479zM122 0l329 680h90L212 0zm544 340v-71q-38-80-61-145.5T571 0h-83q11 57 33.5 120T582 264H435v76z" glyph-name="fivesevenths" horiz-adv-x="680"/><glyph d="M75 479l-39 37 10 164h191v-69H111l-3-58q8 2 16 2.5t17 .5q53 0 82-25.5t29-73.5v-14q0-51-32.5-79.5T127 335q-31 0-56.5 5.5T20 357l21 71q22-9 42.5-13t41.5-4q25 0 36 8t11 25v14q0 16-11 24t-33 8q-13 0-26-2.5T75 479zM122 0l329 680h90L212 0zm488 183q26-15 38.5-36T661 97q0-47-33.5-74.5T536-5q-57 0-88.5 25T416 88q0 22 12 40.5t38 35.5q-22 15-33 35.5T422 247q0 45 31 71.5t84 26.5q54 0 85.5-25t31.5-67q0-21-10.5-38T610 183zm-111 63q0-12 8-20.5t25-13.5l25-8q10 10 15 20t5 22q0 14-10.5 21.5T538 275q-18 0-28.5-7.5T499 246zm-6-149q0-15 12-23.5t34-8.5q21 0 33 8t12 23q0 13-9.5 22T547 132l-27 8q-14-12-20.5-22T493 97z" glyph-name="fiveeighths" horiz-adv-x="690" unicode="⅝"/><glyph d="M75 479l-39 37 10 164h191v-69H111l-3-58q8 2 16 2.5t17 .5q53 0 82-25.5t29-73.5v-14q0-51-32.5-79.5T127 335q-31 0-56.5 5.5T20 357l21 71q22-9 42.5-13t41.5-4q25 0 36 8t11 25v14q0 16-11 24t-33 8q-13 0-26-2.5T75 479zM122 0l329 680h90L212 0zm534 204v-70q0-68-34-103.5T523-5q-26 0-50 4.5T424 14l21 71q19-8 37.5-12t38.5-4q30 0 44.5 16t14.5 49v14q-16-13-34.5-20t-40.5-7q-42 0-67.5 28T412 225v15q0 47 32 76t85 29q60 0 93.5-37.5T656 204zm-166 36v-15q0-16 10.5-25.5T529 190q14 0 26.5 5.5T580 211q-1 30-14 45.5T529 272q-19 0-29-8.5T490 240z" glyph-name="fiveninths" horiz-adv-x="690"/><glyph d="M278 455v-15q0-47-32-76t-85-29q-60 0-93.5 37.5T34 476v70q0 68 34 103.5t99 35.5q26 0 50-4.5t49-14.5l-21-71q-19 8-37.5 12t-38.5 4q-30 0-44.5-16T110 546v-14q16 14 34.5 20.5T185 559q42 0 67.5-28t25.5-76zm-117 35q-13 0-26-5t-25-16q1-30 14-45.5t37-15.5q19 0 29 8.5t10 23.5v15q0 16-10.5 25.5T161 490zM149 0l329 680h90L239 0zm544 340v-71q-38-80-61-145.5T598 0h-83q11 57 33.5 120T609 264H462v76z" glyph-name="sixsevenths" horiz-adv-x="707"/><glyph d="M239 680v-71q-38-80-61-145.5T144 340H61q11 57 33.5 120T155 604H8v76zM84 0l329 680h90L174 0zm488 183q26-15 38.5-36T623 97q0-47-33.5-74.5T498-5q-57 0-88.5 25T378 88q0 22 12 40.5t38 35.5q-22 15-33 35.5T384 247q0 45 31 71.5t84 26.5q54 0 85.5-25t31.5-67q0-21-10.5-38T572 183zm-111 63q0-12 8-20.5t25-13.5l25-8q10 10 15 20t5 22q0 14-10.5 21.5T500 275q-18 0-28.5-7.5T461 246zm-6-149q0-15 12-23.5t34-8.5q21 0 33 8t12 23q0 13-9.5 22T509 132l-27 8q-14-12-20.5-22T455 97z" glyph-name="seveneighths" horiz-adv-x="652" unicode="⅞"/><glyph d="M239 680v-71q-38-80-61-145.5T144 340H61q11 57 33.5 120T155 604H8v76zM84 0l329 680h90L174 0zm534 204v-70q0-68-34-103.5T485-5q-26 0-50 4.5T386 14l21 71q19-8 37.5-12t38.5-4q30 0 44.5 16t14.5 49v14q-16-13-34.5-20t-40.5-7q-42 0-67.5 28T374 225v15q0 47 32 76t85 29q60 0 93.5-37.5T618 204zm-166 36v-15q0-16 10.5-25.5T491 190q14 0 26.5 5.5T542 211q-1 30-14 45.5T491 272q-19 0-29-8.5T452 240z" glyph-name="sevenninths" horiz-adv-x="652"/><glyph d="M223 523q26-15 38.5-36t12.5-50q0-47-33.5-74.5T149 335q-57 0-88.5 25T29 428q0 22 12 40.5T79 504q-22 15-33 35.5T35 587q0 45 31 71.5t84 26.5q54 0 85.5-25t31.5-67q0-21-10.5-38T223 523zm-111 63q0-12 8-20.5t25-13.5l25-8q10 10 15 20t5 22q0 14-10.5 21.5T151 615q-18 0-28.5-7.5T112 586zm-6-149q0-15 12-23.5t34-8.5q21 0 33 8t12 23q0 13-9.5 22T160 472l-27 8q-14-12-20.5-22t-6.5-21zM149 0l329 680h90L239 0zm534 204v-70q0-68-34-103.5T550-5q-26 0-50 4.5T451 14l21 71q19-8 37.5-12t38.5-4q30 0 44.5 16t14.5 49v14q-16-13-34.5-20t-40.5-7q-42 0-67.5 28T439 225v15q0 47 32 76t85 29q60 0 93.5-37.5T683 204zm-166 36v-15q0-16 10.5-25.5T556 190q14 0 26.5 5.5T607 211q-1 30-14 45.5T556 272q-19 0-29-8.5T517 240z" glyph-name="eightninths" horiz-adv-x="717"/><glyph d="M501 355V255H345V95H243v160H87v100h156v160h102V355z" glyph-name="plus" horiz-adv-x="588" unicode="+"/><glyph d="M501 265H87v100h414z" glyph-name="minus" horiz-adv-x="588" unicode="−"/><glyph d="M365 315l139-139-71-71-139 139-139-139-71 71 139 139L84 454l71 71 139-139 139 139 71-71z" glyph-name="multiply" horiz-adv-x="588" unicode="×"/><glyph d="M355 566V447H234v119zm146-301H87v100h414zm-146-87V59H234v119z" glyph-name="divide" horiz-adv-x="588" unicode="÷"/><glyph d="M501 364H87v100h414zm0-199H87v100h414z" glyph-name="equal" horiz-adv-x="588" unicode="="/><glyph d="M87 375v100h414V218H399v157z" glyph-name="logicalnot" horiz-adv-x="588" unicode="¬"/><glyph d="M376 210q-28 0-54 14.5T257 280q-21 23-30 29.5t-17 6.5q-16 0-26-23.5T167 220l-90 20q13 89 46 132.5t88 43.5q28 0 54-14.5t65-55.5q20-23 29.5-29.5T376 310q16 0 26.5 24t18.5 73l90-20q-14-90-47-133.5T376 210z" glyph-name="asciitilde" horiz-adv-x="588" unicode="~"/><glyph d="M241 313l260-100V103L87 271v81l414 165V411z" glyph-name="less" horiz-adv-x="588" unicode="&lt;"/><glyph d="M501 349v-81L87 103v106l260 98L87 407v110z" glyph-name="greater" horiz-adv-x="588" unicode="&gt;"/><glyph d="M501 395V295H345V145H243v150H87v100h156v150h102V395zm0-395H87v100h414z" glyph-name="plusminus" horiz-adv-x="588" unicode="±"/><glyph d="M501 266H391l-99 260-99-260H87l166 414h81z" glyph-name="asciicircum" horiz-adv-x="588" unicode="^"/><glyph d="M501 265V165H265L203 34l-66 34 46 97H87v100h143l47 99H87v100h237l61 130 66-34-45-96h95V364H359l-47-99z" glyph-name="notequal" horiz-adv-x="588" unicode="≠"/><glyph d="M376 320q-28 0-54 14.5T257 390q-21 23-30 29.5t-17 6.5q-16 0-26-23.5T167 330l-90 20q13 89 46 132.5t88 43.5q28 0 54-14.5t65-55.5q20-23 29.5-29.5T376 420q16 0 26.5 24t18.5 73l90-20q-14-90-47-133.5T376 320zm0-220q-28 0-54 14.5T257 170q-21 23-30 29.5t-17 6.5q-16 0-26-23.5T167 110l-90 20q13 89 46 132.5t88 43.5q28 0 54-14.5t65-55.5q20-23 29.5-29.5T376 200q16 0 26.5 24t18.5 73l90-20q-14-90-47-133.5T376 100z" glyph-name="approxequal" horiz-adv-x="588" unicode="≈"/><glyph d="M241 334l260-100V124L87 292v81l414 165V432zM501 0H87v100h414z" glyph-name="lessequal" horiz-adv-x="588" unicode="≤"/><glyph d="M501 370v-81L87 124v106l260 98L87 428v110zm0-370H87v100h414z" glyph-name="greaterequal" horiz-adv-x="588" unicode="≥"/><glyph d="M731 319q0-98-52-155.5T541 106q-55 0-99 25.5T369 206q-24-51-61.5-76T219 105q-81 0-130 59T40 324q0 98 52 155.5T230 537q55 0 99-25.5t73-74.5q24 51 61.5 76t88.5 25q81 0 130-59t49-160zm-293 27l11-36q14-44 36.5-65t55.5-21q39 0 61.5 26t22.5 72q0 46-23 72t-64 26q-31 0-54.5-17.5T438 346zm-208 73q-39 0-61.5-26T146 321q0-46 23-72t64-26q31 0 54.5 17.5T333 297l-11 36q-14 44-36.5 65T230 419z" glyph-name="infinity" horiz-adv-x="771" unicode="∞"/><glyph d="M334 0h-77L89 340l165 340h77l168-340zm-42 540l-92-197 97-204 93 198z" glyph-name="lozenge" horiz-adv-x="588" unicode="◊"/><glyph d="M130 285H17v100h188l85-225 200 520h106L325 0h-81z" glyph-name="radical" horiz-adv-x="588" unicode="√"/><glyph d="M264 560L211-33q-10-106-48-148T48-223q-29 0-60 5.5T-67-203l28 99q15-5 32.5-8t33.5-3q35 0 50 18t19 64l53 593q10 106 48 148t115 42q29 0 60-5.5t55-14.5l-28-99q-15 5-32.5 8t-33.5 3q-35 0-50-18t-19-64z" glyph-name="integral" horiz-adv-x="355" unicode="∫"/><glyph d="M488 293l-2-43q-6-121-70-190.5T248-10q-97 0-154.5 61.5T43 211l2 30q6 82 60.5 138.5T239 436q34 0 64-11t59-34q-17 83-70 150.5T155 656l50 94q146-86 218-202t65-255zm-325-59l-2-30q-3-50 20.5-80.5T248 93q53 0 86 44.5T369 259l1 23q-28 23-56.5 35T257 329q-40 0-65.5-26T163 234z" glyph-name="partialdiff" horiz-adv-x="541" unicode="∂"/><glyph d="M103 565H21v115h658V565h-82v-708H477v708H223v-708H103z" glyph-name="product" horiz-adv-x="700" unicode="∏"/><glyph d="M97 407H15v100h551V407h-82V143q0-20 10.5-31t30.5-11h41V-5h-53q-73 0-108.5 36.5T369 143v264H212V0H97z" glyph-name="pi" horiz-adv-x="584" unicode="π"/><glyph d="M194-125v-88H79v720h115V181q0-42 15.5-63T256 97q28 0 58.5 14t67.5 44v352h115V143q0-20 11-31t31-11h11V-5h-23q-54 0-87 19.5T395 74q-48-44-88-64t-78-20q-18 0-32.5 3.5T171 5z" glyph-name="mu" horiz-adv-x="574" unicode="µ"/><glyph d="M183-28h345v-115H29v105l237 307L29 575v105h479V565H188l200-260v-67z" glyph-name="summation" horiz-adv-x="530" unicode="∑"/><glyph d="M177 416v-42q0-63 25-103t73-53V0H56v109h110v45q-54 32-83 89T54 374v42q0 128 72.5 201T327 690q129 0 202-73.5T602 416v-42q0-71-27.5-126.5T496 159v-50h110V0H387v220q45 15 68.5 54.5T479 374v42q0 78-39 119.5T327 577q-73 0-111.5-41.5T177 416z" glyph-name="Omega" horiz-adv-x="660" unicode="Ω"/><glyph d="M334 680L527 94V0H36v94l192 586zm-55-166l-52-173-74-237h253l-75 237z" glyph-name="Delta" horiz-adv-x="563" unicode="∆"/><glyph d="M303 113l25-98Q300 2 272-4t-56-6q-77 0-116 40T61 149v376q0 75 41.5 120T217 690q72 0 112-41t40-117q0-77-44.5-147T176 224v-70q0-29 12-42.5T227 98q15 0 35.5 4t40.5 11zm-85 469q-22 0-32-13.5T176 526V355q42 47 62 88t20 84q0 28-9.5 41.5T218 582z" glyph-name="uni2113" horiz-adv-x="391" unicode="ℓ"/><glyph d="M198 314l137-126-48-62L31 328v57l256 202 48-62-133-123h410v-88z" glyph-name="arrowleft" horiz-adv-x="651" unicode="←"/><glyph d="M556 392l-62-48-123 133V67h-88v414L157 344l-62 48 202 256h57z" glyph-name="arrowup" horiz-adv-x="651" unicode="↑"/><glyph d="M620 387v-57L364 128l-48 62 133 123H39v88h414L316 527l48 62z" glyph-name="arrowright" horiz-adv-x="651" unicode="→"/><glyph d="M494 373l62-48L354 69h-57L95 325l62 48 123-133v410h88V236z" glyph-name="arrowdown" horiz-adv-x="651" unicode="↓"/><glyph d="M198 314l137-126-48-62L31 328v57l256 202 48-62-133-123h393L458 528l48 62 256-202v-57L506 129l-48 62 133 123z" glyph-name="uni2194" horiz-adv-x="793" unicode="↔"/><glyph d="M496 297l62-48L356-7h-57L97 249l62 48 123-133v393L156 420l-62 48 202 256h57l202-256-62-48-123 133V160z" glyph-name="uni2195" horiz-adv-x="651" unicode="↕"/><glyph d="M269 474l290-290-62-62-293 292 8-186-78-10-38 324 40 41 324-39-10-77z" glyph-name="uni2196" horiz-adv-x="651" unicode="↖"/><glyph d="M513 219l-78 10 7 181-290-290-62 63 292 292-185-7-10 77 324 39 40-41z" glyph-name="uni2197" horiz-adv-x="651" unicode="↗"/><glyph d="M509 498l38-324-40-41-324 39 10 77 181-7L84 532l62 62 292-292-7 186z" glyph-name="uni2198" horiz-adv-x="651" unicode="↘"/><glyph d="M450 250l10-77-324-39-40 41 38 324 78-10-8-182 291 291 62-63-292-292z" glyph-name="uni2199" horiz-adv-x="651" unicode="↙"/><glyph d="M774 314v-9H191q-3 0-4-1t-1-3V125q0-6 2-11t6-9q44-46 101-71T415 9q67 0 127 28t105 79h52q-51-59-126-92.5T414-10q-149 0-254.5 95T54 314q0 134 105.5 229T414 638q149 0 254.5-95T774 314zm-132 14v178q0 6-2 11.5t-7 9.5q-44 44-100.5 68T415 619q-62 0-119-24.5T195 524q-5-5-7-10t-2-12V328q0-2 1.5-3.5t3.5-1.5h447q2 0 3 1.5t1 3.5z" glyph-name="estimated" horiz-adv-x="813" unicode="℮"/><glyph d="M698 15l30-92q-60-27-128-41.5T466-133q-196 0-311.5 117T39 299q0 211 127 346t329 135q184 0 301-112.5T913 379q0-127-66-210.5T681 85q-49 0-80.5 20T557 163q-41-43-79-63t-80-20q-68 0-99.5 61T283 301l7 44q17 107 70 159.5T503 557q47 0 96.5-16.5T700 492l-42-240q-7-36 2.5-55.5T694 177q47 0 81.5 58.5T810 379q0 135-87.5 220.5T495 685q-157 0-255-108t-98-278q0-156 86.5-246.5T466-38q59 0 120.5 14T698 15zM406 345l-7-44q-9-58 1-87t40-29q25 0 51.5 20t56.5 61l30 172q-21 10-36 14t-29 4q-44 0-71-28.5T406 345z" glyph-name="at.case" horiz-adv-x="945"/><glyph d="M183 561v119h121V561zm68-464q34 0 71.5 9t85.5 29l37-99Q393 13 343 1.5T243-10Q139-10 85 35T31 166v18q0 55 16.5 93t55.5 73l36 33q25 22 35 40t10 49v9h120v-18q0-47-15.5-77.5T235 320l-37-34q-28-26-38.5-45.5T149 194v-18q0-39 25.5-59T251 97z" glyph-name="questiondown.case" horiz-adv-x="454"/><glyph d="M80 561v119h121V561zm2-341l13 261h90l12-261V0H82z" glyph-name="exclamdown.case" horiz-adv-x="281"/><glyph d="M49 322v37q0 117 51 226t152 207l80-75q-85-87-125-173.5T167 359v-37q0-98 40-184.5T332-36l-80-75Q151-13 100 96T49 322z" glyph-name="parenleft.case" horiz-adv-x="333"/><glyph d="M284 358v-37q0-117-51-226T81-112L1-37q85 87 125 173.5T166 321v37q0 98-40 184.5T1 716l80 75q101-98 152-207t51-226z" glyph-name="parenright.case" horiz-adv-x="333"/><glyph d="M291-2h89v-100h-89q-104 0-147.5 53.5T123 103l20 86q13 54-4 77.5T73 290H20v100h53q49 0 66 23.5t4 77.5l-20 86q-23 98 20.5 151.5T291 782h89V682h-89q-35 0-49.5-23t-4.5-63l20-86q15-68-3.5-111.5T184 340q52-15 70.5-58.5T257 170l-20-86q-10-40 4.5-63T291-2z" glyph-name="braceleft.case" horiz-adv-x="381"/><glyph d="M238 189l20-86q23-98-20.5-151.5T90-102H1V-2h89q35 0 49.5 23t4.5 63l-20 86q-15 68 3.5 111.5T197 340q-52 15-70.5 58.5T124 510l20 86q10 40-4.5 63T90 682H1v100h89q104 0 147.5-53.5T258 577l-20-86q-13-54 4-77.5t66-23.5h53V290h-53q-49 0-66-23.5t-4-77.5z" glyph-name="braceright.case" horiz-adv-x="381"/><glyph d="M209-2h140v-100H94v883h255V681H209z" glyph-name="bracketleft.case" horiz-adv-x="350"/><glyph d="M1 781h255v-883H1V-2h140v683H1z" glyph-name="bracketright.case" horiz-adv-x="350"/><glyph d="M354 285H50v100h304z" glyph-name="hyphen.case" horiz-adv-x="404"/><glyph d="M554 285H50v100h504z" glyph-name="endash.case" horiz-adv-x="604"/><glyph d="M754 285H50v100h704z" glyph-name="emdash.case" horiz-adv-x="804"/><glyph d="M83 433v383h115V433zm0-570v383h115v-383z" glyph-name="brokenbar.case" horiz-adv-x="281"/><glyph d="M94-137v953h115v-953z" glyph-name="bar.case" horiz-adv-x="303"/><glyph d="M154 339l184-115V104L42 299v77l296 192V452zm320 0l184-115V104L362 299v77l296 192V452z" glyph-name="guillemotleft.case" horiz-adv-x="711"/><glyph d="M669 373v-77L373 104v116l184 113-184 115v120zm-320 0v-77L53 104v116l184 113L53 448v120z" glyph-name="guillemotright.case" horiz-adv-x="711"/><glyph d="M154 339l184-115V104L42 299v77l296 192V452z" glyph-name="guilsinglleft.case" horiz-adv-x="391"/><glyph d="M349 373v-77L53 104v116l184 113L53 448v120z" glyph-name="guilsinglright.case" horiz-adv-x="391"/><glyph d="M148 412H35q0 131 61 199.5T275 680h207L710 0H585l-42 133H311l-4-14Q249-69 164.5-146T-55-223v115q92 0 147.5 53T188 119l153 456h-61q-71 0-101.5-37.5T148 412zm279 101l-52-172-30-98h163l-31 98z" glyph-name="A.alt" horiz-adv-x="730"/><glyph d="M134 412H21q0 131 61 199.5T261 680h229q103 0 153.5-44T694 502v-28q0-39-17.5-70T626 353q48-19 73-55t25-86v-28q0-93-52-138.5T515 0H283v575h-17q-71 0-101.5-37.5T134 412zm356 158h-87V400h87q39 0 60 18t21 51v33q0 32-21 50t-60 18zm25-280H403V110h112q41 0 63.5 19.5T601 184v33q0 35-22.5 54T515 290z" glyph-name="B.alt" horiz-adv-x="774"/><glyph d="M134 412H21q0 131 61 199.5T261 680h252q122 0 186-68.5T763 412V269q0-132-64-200.5T513 0H283v575h-17q-71 0-101.5-37.5T134 412zm374 153H403V115h105q71 0 101.5 35.5T640 269v143q0 82-30.5 117.5T508 565z" glyph-name="D.alt" horiz-adv-x="828"/><glyph d="M134 412H21q0 131 61 199.5T261 680h406V565H403V402h234V287H403V115h274V0H283v575h-17q-71 0-101.5-37.5T134 412z" glyph-name="E.alt" horiz-adv-x="725"/><glyph d="M134 412H21q0 131 61 199.5T261 680h400V565H403V376h228V261H403V0H283v575h-17q-71 0-101.5-37.5T134 412z" glyph-name="F.alt" horiz-adv-x="694"/><glyph d="M325 269v105h219V31q0-135-65.5-194.5T270-223v105q96 0 130.5 31T435 27q-26-8-54-12.5T324 10q-122 0-191.5 75T63 289v123q0 131 70.5 204.5T332 690q49 0 96-10.5t98-33.5l-37-105q-53 20-87.5 28t-67.5 8q-73 0-110.5-42T186 412V289q0-78 38-121t109-43q22 0 49.5 4t52.5 11v129z" glyph-name="G.alt" horiz-adv-x="603"/><glyph d="M134 412H21q0 131 61 199.5T261 680h142V402h254v278h120V0H657v287H403V0H283v575h-17q-71 0-101.5-37.5T134 412z" glyph-name="H.alt" horiz-adv-x="871"/><glyph d="M134 412H21q0 131 61 199.5T261 680h158V244q0-135-65.5-194.5T145-10v115q84 0 119 32t35 107v331h-33q-71 0-101.5-37.5T134 412z" glyph-name="J.alt" horiz-adv-x="495"/><glyph d="M134 412H21q0 131 61 199.5T261 680h142V357q75 86 129.5 164.5T626 680h131q-45-89-93.5-165T563 376L789 0H644L474 297q-4-5-29.5-32.5T403 220V0H283v575h-17q-71 0-101.5-37.5T134 412z" glyph-name="K.alt" horiz-adv-x="805"/><glyph d="M134 412H21q0 131 61 199.5T261 680h142V115h272V0H283v575h-17q-71 0-101.5-37.5T134 412z" glyph-name="L.alt" horiz-adv-x="696"/><glyph d="M261 680h153l190-465 189 465h131V0H809v260l15 238L655 80H548L383 499l15-239V0H283v575h-17q-71 0-101.5-37.5T134 412H21q0 131 61 199.5T261 680z" glyph-name="M.alt" horiz-adv-x="1018"/><glyph d="M134 412H21q0 131 61 199.5T261 680h132q81-106 151.5-220.5T672 227l-9 203v250h115V0H668q-99 196-160 303.5T390 494l8-234V0H283v575h-17q-71 0-101.5-37.5T134 412z" glyph-name="N.alt" horiz-adv-x="872"/><glyph d="M134 412H21q0 131 61 199.5T261 680h246q103 0 158.5-52T721 482v-53q0-95-56-147t-158-52H403V0H283v575h-17q-71 0-101.5-37.5T134 412zm373 153H403V345h104q44 0 67.5 22t23.5 62v53q0 40-23.5 61.5T507 565z" glyph-name="P.alt" horiz-adv-x="763"/><glyph d="M511 250H403V0H283v575h-17q-71 0-101.5-37.5T134 412H21q0 131 61 199.5T261 680h249q100 0 157-51.5T724 487v-43q0-59-25-102.5T627 275q41-70 76-139T767 0H630q-25 62-54.5 125T511 250zm-1 320H403V360h107q43 0 67 22t24 62v43q0 39-24 61t-67 22z" glyph-name="R.alt" horiz-adv-x="798"/><glyph d="M134 412H21q0 131 61 199.5T261 680h367V565H438V0H318v565h-52q-71 0-101.5-35.5T134 412z" glyph-name="T.alt" horiz-adv-x="641"/><glyph d="M134 412H21q0 131 61 199.5T261 680h143V244q0-70 30.5-105.5T526 103q61 0 91.5 35.5T648 244v436h123V244q0-121-63.5-187.5T526-10q-118 0-181.5 66T281 244v331h-15q-71 0-101.5-37.5T134 412z" glyph-name="U.alt" horiz-adv-x="849"/><glyph d="M134 412H21q0 131 61 199.5T261 680h110l103-342 47-176 50 177 67 222q57 187 141.5 264.5T1000 903V788q-93 0-149-53.5T757 561L579 0H456L273 575h-7q-71 0-101.5-37.5T134 412z" glyph-name="V.alt" horiz-adv-x="819"/><glyph d="M381 680l52-269 38-252 136 521h108l135-516 42 248 23 118q39 198 128 285.5t249 87.5V788q-112 0-172.5-68T1025 501L913 0H790L659 506 527 0H404L274 575h-8q-71 0-101.5-37.5T134 412H21q0 131 61 199.5T261 680z" glyph-name="W.alt" horiz-adv-x="1099"/><glyph d="M134 412H21q0 131 59 199.5T251 680h76l131-228 123 228h126L520 347 719 0H583L441 249 306 0H180l199 353-128 222q-63-2-90-39.5T134 412z" glyph-name="X.alt" horiz-adv-x="734"/><glyph d="M134 412H21q0 131 59 199.5T251 680h99l147-290 139 290h124L552 273V0H432v271L276 575h-20q-66 0-94-37.5T134 412z" glyph-name="Y.alt" horiz-adv-x="763"/><glyph d="M148 412H35q0 131 61 199.5T275 680h207L710 0H585l-42 133H311l-4-14Q249-69 164.5-146T-55-223v115q92 0 147.5 53T188 119l153 456h-61q-71 0-101.5-37.5T148 412zm279 101l-52-172-30-98h163l-31 98zm157 359L481 752H380l96 166z" glyph-name="Aacute.alt" horiz-adv-x="730"/><glyph d="M148 412H35q0 131 61 199.5T275 680h207L710 0H585l-42 133H311l-4-14Q249-69 164.5-146T-55-223v115q92 0 147.5 53T188 119l153 456h-61q-71 0-101.5-37.5T148 412zm279 101l-52-172-30-98h163l-31 98zm154 239h-93l-61 80-61-80h-89l96 161h112z" glyph-name="Acircumflex.alt" horiz-adv-x="730"/><glyph d="M148 412H35q0 131 61 199.5T275 680h207L710 0H585l-42 133H311l-4-14Q249-69 164.5-146T-55-223v115q92 0 147.5 53T188 119l153 456h-61q-71 0-101.5-37.5T148 412zm279 101l-52-172-30-98h163l-31 98zm-40 376V782H278v107zm194 0V782H472v107z" glyph-name="Adieresis.alt" horiz-adv-x="730"/><glyph d="M148 412H35q0 131 61 199.5T275 680h207L710 0H585l-42 133H311l-4-14Q249-69 164.5-146T-55-223v115q92 0 147.5 53T188 119l153 456h-61q-71 0-101.5-37.5T148 412zm279 101l-52-172-30-98h163l-31 98zm53 239H379L276 872l108 46z" glyph-name="Agrave.alt" horiz-adv-x="730"/><glyph d="M182 133l-4-14Q120-69 35.5-146T-184-223v115q92 0 147.5 53T59 119l172 513q-24 14-37 39t-13 57v11q0 51 33 82.5t87 31.5q54 0 87-31.5t33-82.5v-11q0-32-13.5-57.5T370 631L581 0H456l-42 133zm168 595v11q0 22-13.5 35T301 787q-22 0-35.5-13T252 739v-11q0-22 13.5-35t35.5-13q22 0 35.5 13t13.5 35zm-52-215l-52-172-30-98h163l-31 98z" glyph-name="Aring.alt" horiz-adv-x="601"/><glyph d="M148 412H35q0 131 61 199.5T275 680h207L710 0H585l-42 133H311l-4-14Q249-69 164.5-146T-55-223v115q92 0 147.5 53T188 119l153 456h-61q-71 0-101.5-37.5T148 412zm279 101l-52-172-30-98h163l-31 98zm62 248q-20 0-37.5 9.5T411 807q-14 17-20.5 21.5T377 833q-10 0-13.5-14t-4.5-50h-81q0 77 23 115.5t70 38.5q20 0 37.5-9.5T449 877q14-17 20.5-21.5T483 851q10 0 13.5 14t4.5 50h81q0-78-23-116t-70-38z" glyph-name="Atilde.alt" horiz-adv-x="730"/><glyph d="M148 412H35q0 131 61 199.5T275 680h207L710 0H585l-42 133H311l-4-14Q249-69 164.5-146T-55-223v115q92 0 147.5 53T188 119l153 456h-61q-71 0-101.5-37.5T148 412zm279 101l-52-172-30-98h163l-31 98zm3 326q23 0 34.5 15.5T477 904h87q-5-72-39-109t-95-37q-61 0-95 37t-39 109h87q1-33 12.5-49t34.5-16z" glyph-name="Abreve.alt" horiz-adv-x="730"/><glyph d="M148 412H35q0 131 61 199.5T275 680h207L710 0H585l-42 133H311l-4-14Q249-69 164.5-146T-55-223v115q92 0 147.5 53T188 119l153 456h-61q-71 0-101.5-37.5T148 412zm279 101l-52-172-30-98h163l-31 98zM278 865h303v-83H278z" glyph-name="Amacron.alt" horiz-adv-x="730"/><glyph d="M148 412H35q0 131 61 199.5T275 680h207L710 0q-49-41-71-66.5T617-108q0-12 7.5-18.5T647-133q10 0 21.5 2t25.5 7l16-83q-20-8-40.5-12t-40.5-4q-52 0-82 24.5T517-132q0 29 17 58t54 63l-45 144H311l-4-14Q249-69 164.5-146T-55-223v115q92 0 147.5 53T188 119l153 456h-61q-71 0-101.5-37.5T148 412zm279 101l-52-172-30-98h163l-31 98z" glyph-name="Aogonek.alt" horiz-adv-x="730"/><glyph d="M134 412H21q0 131 61 199.5T261 680h252q122 0 186-68.5T763 412V269q0-132-64-200.5T513 0H283v575h-17q-71 0-101.5-37.5T134 412zm374 153H403V115h105q71 0 101.5 35.5T640 269v143q0 82-30.5 117.5T508 565zm63 348h89l-96-161H452l-96 161h93l61-80z" glyph-name="Dcaron.alt" horiz-adv-x="828"/><glyph d="M134 412H21q0 131 61 199.5T261 680h406V565H403V402h234V287H403V115h274V0H283v575h-17q-71 0-101.5-37.5T134 412zm495 460L526 752H425l96 166z" glyph-name="Eacute.alt" horiz-adv-x="725"/><glyph d="M134 412H21q0 131 61 199.5T261 680h406V565H403V402h234V287H403V115h274V0H283v575h-17q-71 0-101.5-37.5T134 412zm492 340h-93l-61 80-61-80h-89l96 161h112z" glyph-name="Ecircumflex.alt" horiz-adv-x="725"/><glyph d="M134 412H21q0 131 61 199.5T261 680h406V565H403V402h234V287H403V115h274V0H283v575h-17q-71 0-101.5-37.5T134 412zm299 477V782H324v107zm194 0V782H518v107z" glyph-name="Edieresis.alt" horiz-adv-x="725"/><glyph d="M134 412H21q0 131 61 199.5T261 680h406V565H403V402h234V287H403V115h274V0H283v575h-17q-71 0-101.5-37.5T134 412zm391 340H424L321 872l108 46z" glyph-name="Egrave.alt" horiz-adv-x="725"/><glyph d="M134 412H21q0 131 61 199.5T261 680h406V565H403V402h234V287H403V115h274V0H283v575h-17q-71 0-101.5-37.5T134 412zm341 427q23 0 34.5 15.5T522 904h87q-5-72-39-109t-95-37q-61 0-95 37t-39 109h87q1-33 12.5-49t34.5-16z" glyph-name="Ebreve.alt" horiz-adv-x="725"/><glyph d="M134 412H21q0 131 61 199.5T261 680h406V565H403V402h234V287H403V115h274V0H283v575h-17q-71 0-101.5-37.5T134 412zm403 501h89l-96-161H418l-96 161h93l61-80z" glyph-name="Ecaron.alt" horiz-adv-x="725"/><glyph d="M134 412H21q0 131 61 199.5T261 680h406V565H403V402h234V287H403V115h274V0H283v575h-17q-71 0-101.5-37.5T134 412zm402 483V776H415v119z" glyph-name="Edotaccent.alt" horiz-adv-x="725"/><glyph d="M134 412H21q0 131 61 199.5T261 680h406V565H403V402h234V287H403V115h274V0H283v575h-17q-71 0-101.5-37.5T134 412zm190 453h303v-83H324z" glyph-name="Emacron.alt" horiz-adv-x="725"/><glyph d="M134 412H21q0 131 61 199.5T261 680h406V565H403V402h234V287H403V115h274V0q-49-41-71-66.5T584-108q0-12 7.5-18.5T614-133q10 0 21.5 2t25.5 7l16-83q-20-8-40.5-12t-40.5-4q-52 0-82 24.5T484-132q0 32 20 63.5T568 0H283v575h-17q-71 0-101.5-37.5T134 412z" glyph-name="Eogonek.alt" horiz-adv-x="725"/><glyph d="M325 269v105h219V31q0-135-65.5-194.5T270-223v105q96 0 130.5 31T435 27q-26-8-54-12.5T324 10q-122 0-191.5 75T63 289v123q0 131 70.5 204.5T332 690q49 0 96-10.5t98-33.5l-37-105q-53 20-87.5 28t-67.5 8q-73 0-110.5-42T186 412V289q0-78 38-121t109-43q22 0 49.5 4t52.5 11v129zm2 570q23 0 34.5 15.5T374 904h87q-5-72-39-109t-95-37q-61 0-95 37t-39 109h87q1-33 12.5-49t34.5-16z" glyph-name="Gbreve.alt" horiz-adv-x="603"/><glyph d="M325 269v105h219V31q0-135-65.5-194.5T270-223v105q96 0 130.5 31T435 27q-26-8-54-12.5T324 10q-122 0-191.5 75T63 289v123q0 131 70.5 204.5T332 690q49 0 96-10.5t98-33.5l-37-105q-53 20-87.5 28t-67.5 8q-73 0-110.5-42T186 412V289q0-78 38-121t109-43q22 0 49.5 4t52.5 11v129zm153 483h-93l-61 80-61-80h-89l96 161h112z" glyph-name="Gcircumflex.alt" horiz-adv-x="603"/><glyph d="M325 269v105h219V31q0-135-65.5-194.5T270-223v105q96 0 130.5 31T435 27q-26-8-54-12.5T324 10q-122 0-191.5 75T63 289v123q0 131 70.5 204.5T332 690q49 0 96-10.5t98-33.5l-37-105q-53 20-87.5 28t-67.5 8q-73 0-110.5-42T186 412V289q0-78 38-121t109-43q22 0 49.5 4t52.5 11v129zm62 626V776H266v119z" glyph-name="Gdotaccent.alt" horiz-adv-x="603"/><glyph d="M134 412H21q0 131 61 199.5T261 680h142V402h254v278h120V0H657v287H403V0H283v575h-17q-71 0-101.5-37.5T134 412zm547 340h-93l-61 80-61-80h-89l96 161h112z" glyph-name="Hcircumflex.alt" horiz-adv-x="871"/><glyph d="M134 412H21q0 131 61 199.5T261 680h158V244q0-135-65.5-194.5T145-10v115q84 0 119 32t35 107v331h-33q-71 0-101.5-37.5T134 412zm376 340h-93l-61 80-61-80h-89l96 161h112z" glyph-name="Jcircumflex.alt" horiz-adv-x="495"/><glyph d="M134 412H21q0 131 61 199.5T261 680h142V357q75 86 129.5 164.5T626 680h131q-45-89-93.5-165T563 376L789 0H644L474 297q-4-5-29.5-32.5T403 220V0H283v575h-17q-71 0-101.5-37.5T134 412zM586-77l-73-179-73 17 26 162z" glyph-name="Kcommaaccent.alt" horiz-adv-x="805"/><glyph d="M134 412H21q0 131 61 199.5T261 680h142V115h272V0H283v575h-17q-71 0-101.5-37.5T134 412zm362 460L393 752H292l96 166z" glyph-name="Lacute.alt" horiz-adv-x="696"/><glyph d="M134 412H21q0 131 61 199.5T261 680h142V115h272V0H283v575h-17q-71 0-101.5-37.5T134 412zm457 268l-36-194h-77v194z" glyph-name="Lcaron.alt" horiz-adv-x="696"/><glyph d="M134 412H21q0 131 61 199.5T261 680h142V115h272V0H283v575h-17q-71 0-101.5-37.5T134 412zM543-77l-73-179-73 17 26 162z" glyph-name="Lcommaaccent.alt" horiz-adv-x="696"/><glyph d="M134 412H21q0 131 61 199.5T261 680h132q81-106 151.5-220.5T672 227l-9 203v250h115V0H668q-99 196-160 303.5T390 494l8-234V0H283v575h-17q-71 0-101.5-37.5T134 412zm456 349q-20 0-37.5 9.5T512 807q-14 17-20.5 21.5T478 833q-10 0-13.5-14t-4.5-50h-81q0 77 23 115.5t70 38.5q20 0 37.5-9.5T550 877q14-17 20.5-21.5T584 851q10 0 13.5 14t4.5 50h81q0-78-23-116t-70-38z" glyph-name="Ntilde.alt" horiz-adv-x="872"/><glyph d="M134 412H21q0 131 61 199.5T261 680h132q81-106 151.5-220.5T672 227l-9 203v250h115V0H668q-99 196-160 303.5T390 494l8-234V0H283v575h-17q-71 0-101.5-37.5T134 412zm551 460L582 752H481l96 166z" glyph-name="Nacute.alt" horiz-adv-x="872"/><glyph d="M134 412H21q0 131 61 199.5T261 680h132q81-106 151.5-220.5T672 227l-9 203v250h115V0H668q-99 196-160 303.5T390 494l8-234V0H283v575h-17q-71 0-101.5-37.5T134 412zm459 501h89l-96-161H474l-96 161h93l61-80z" glyph-name="Ncaron.alt" horiz-adv-x="872"/><glyph d="M134 412H21q0 131 61 199.5T261 680h132q81-106 151.5-220.5T672 227l-9 203v250h115V0H668q-99 196-160 303.5T390 494l8-234V0H283v575h-17q-71 0-101.5-37.5T134 412zM591-77l-73-179-73 17 26 162z" glyph-name="Ncommaaccent.alt" horiz-adv-x="872"/><glyph d="M663 430v250h115V31q0-135-65.5-194.5T504-223v115q82 0 118 27.5T662 11q-94 187-154.5 293.5T390 494l8-234V0H283v575h-17q-71 0-101.5-37.5T134 412H21q0 131 61 199.5T261 680h132q77-101 147-215.5T672 225z" glyph-name="Eng.alt" horiz-adv-x="872"/><glyph d="M511 250H403V0H283v575h-17q-71 0-101.5-37.5T134 412H21q0 131 61 199.5T261 680h249q100 0 157-51.5T724 487v-43q0-59-25-102.5T627 275q41-70 76-139T767 0H630q-25 62-54.5 125T511 250zm-1 320H403V360h107q43 0 67 22t24 62v43q0 39-24 61t-67 22zm138 302L545 752H444l96 166z" glyph-name="Racute.alt" horiz-adv-x="798"/><glyph d="M511 250H403V0H283v575h-17q-71 0-101.5-37.5T134 412H21q0 131 61 199.5T261 680h249q100 0 157-51.5T724 487v-43q0-59-25-102.5T627 275q41-70 76-139T767 0H630q-25 62-54.5 125T511 250zm-1 320H403V360h107q43 0 67 22t24 62v43q0 39-24 61t-67 22zm46 343h89l-96-161H437l-96 161h93l61-80z" glyph-name="Rcaron.alt" horiz-adv-x="798"/><glyph d="M511 250H403V0H283v575h-17q-71 0-101.5-37.5T134 412H21q0 131 61 199.5T261 680h249q100 0 157-51.5T724 487v-43q0-59-25-102.5T627 275q41-70 76-139T767 0H630q-25 62-54.5 125T511 250zm-1 320H403V360h107q43 0 67 22t24 62v43q0 39-24 61t-67 22zm58-647l-73-179-73 17 26 162z" glyph-name="Rcommaaccent.alt" horiz-adv-x="798"/><glyph d="M550 366v-87H438V0H318v279H206v87h112v199h-52q-71 0-101.5-35.5T134 412H21q0 131 61 199.5T261 680h367V565H438V366z" glyph-name="Tbar.alt" horiz-adv-x="641"/><glyph d="M134 412H21q0 131 61 199.5T261 680h367V565H438V0H318v565h-52q-71 0-101.5-35.5T134 412zm306 501h89l-96-161H321l-96 161h93l61-80z" glyph-name="Tcaron.alt" horiz-adv-x="641"/><glyph d="M134 412H21q0 131 61 199.5T261 680h367V565H438V0H318v565h-52q-71 0-101.5-35.5T134 412zM439-77l-73-179-73 17 26 162z" glyph-name="uni0162.alt" horiz-adv-x="641"/><glyph d="M134 412H21q0 131 61 199.5T261 680h367V565H438V0H318v565h-52q-71 0-101.5-35.5T134 412zM439-77l-73-179-73 17 26 162z" glyph-name="uni021A.alt" horiz-adv-x="641"/><glyph d="M134 412H21q0 131 61 199.5T261 680h143V244q0-70 30.5-105.5T526 103q61 0 91.5 35.5T648 244v436h123V244q0-121-63.5-187.5T526-10q-118 0-181.5 66T281 244v331h-15q-71 0-101.5-37.5T134 412zm546 460L577 752H476l96 166z" glyph-name="Uacute.alt" horiz-adv-x="849"/><glyph d="M134 412H21q0 131 61 199.5T261 680h143V244q0-70 30.5-105.5T526 103q61 0 91.5 35.5T648 244v436h123V244q0-121-63.5-187.5T526-10q-118 0-181.5 66T281 244v331h-15q-71 0-101.5-37.5T134 412zm543 340h-93l-61 80-61-80h-89l96 161h112z" glyph-name="Ucircumflex.alt" horiz-adv-x="849"/><glyph d="M134 412H21q0 131 61 199.5T261 680h143V244q0-70 30.5-105.5T526 103q61 0 91.5 35.5T648 244v436h123V244q0-121-63.5-187.5T526-10q-118 0-181.5 66T281 244v331h-15q-71 0-101.5-37.5T134 412zm350 477V782H375v107zm194 0V782H569v107z" glyph-name="Udieresis.alt" horiz-adv-x="849"/><glyph d="M134 412H21q0 131 61 199.5T261 680h143V244q0-70 30.5-105.5T526 103q61 0 91.5 35.5T648 244v436h123V244q0-121-63.5-187.5T526-10q-118 0-181.5 66T281 244v331h-15q-71 0-101.5-37.5T134 412zm442 340H475L372 872l108 46z" glyph-name="Ugrave.alt" horiz-adv-x="849"/><glyph d="M134 412H21q0 131 61 199.5T261 680h143V244q0-70 30.5-105.5T526 103q61 0 91.5 35.5T648 244v436h123V244q0-121-63.5-187.5T526-10q-118 0-181.5 66T281 244v331h-15q-71 0-101.5-37.5T134 412zm392 427q23 0 34.5 15.5T573 904h87q-5-72-39-109t-95-37q-61 0-95 37t-39 109h87q1-33 12.5-49t34.5-16z" glyph-name="Ubreve.alt" horiz-adv-x="849"/><glyph d="M134 412H21q0 131 61 199.5T261 680h143V244q0-70 30.5-105.5T526 103q61 0 91.5 35.5T648 244v436h123V244q0-121-63.5-187.5T526-10q-118 0-181.5 66T281 244v331h-15q-71 0-101.5-37.5T134 412zm436 460l-73-120h-91l76 166zm150 0l-73-120h-91l76 166z" glyph-name="Uhungarumlaut.alt" horiz-adv-x="849"/><glyph d="M134 412H21q0 131 61 199.5T261 680h143V244q0-70 30.5-105.5T526 103q61 0 91.5 35.5T648 244v436h123V244q0-121-63.5-187.5T526-10q-118 0-181.5 66T281 244v331h-15q-71 0-101.5-37.5T134 412zm241 453h303v-83H375z" glyph-name="Umacron.alt" horiz-adv-x="849"/><glyph d="M134 412H21q0 131 61 199.5T261 680h143V244q0-70 30.5-105.5T526 103q61 0 91.5 35.5T648 244v436h123V244q0-64-17.5-113T703 52Q609-31 583-60t-26-48q0-12 7.5-18.5T587-133q10 0 21.5 2t25.5 7l16-83q-20-8-40.5-12t-40.5-4q-52 0-82 25t-30 68q0 29 15.5 57.5T523-10Q406-9 343.5 57T281 244v331h-15q-71 0-101.5-37.5T134 412z" glyph-name="Uogonek.alt" horiz-adv-x="849"/><glyph d="M134 412H21q0 131 61 199.5T261 680h143V244q0-70 30.5-105.5T526 103q61 0 91.5 35.5T648 244v436h123V244q0-121-63.5-187.5T526-10q-118 0-181.5 66T281 244v331h-15q-71 0-101.5-37.5T134 412zm392 564q54 0 87-31.5t33-82.5v-11q0-52-33-83.5T526 736q-54 0-87 31.5T406 851v11q0 51 33 82.5t87 31.5zm49-125v11q0 22-13.5 35T526 910q-22 0-35.5-13T477 862v-11q0-22 13.5-35t35.5-13q22 0 35.5 13t13.5 35z" glyph-name="Uring.alt" horiz-adv-x="849"/><glyph d="M134 412H21q0 131 61 199.5T261 680h143V244q0-70 30.5-105.5T526 103q61 0 91.5 35.5T648 244v436h123V244q0-121-63.5-187.5T526-10q-118 0-181.5 66T281 244v331h-15q-71 0-101.5-37.5T134 412zm451 349q-20 0-37.5 9.5T507 807q-14 17-20.5 21.5T473 833q-10 0-13.5-14t-4.5-50h-81q0 77 23 115.5t70 38.5q20 0 37.5-9.5T545 877q14-17 20.5-21.5T579 851q10 0 13.5 14t4.5 50h81q0-78-23-116t-70-38z" glyph-name="Utilde.alt" horiz-adv-x="849"/><glyph d="M381 680l52-269 38-252 136 521h108l135-516 42 248 23 118q39 198 128 285.5t249 87.5V788q-112 0-172.5-68T1025 501L913 0H790L659 506 527 0H404L274 575h-8q-71 0-101.5-37.5T134 412H21q0 131 61 199.5T261 680zm432 192L710 752H609l96 166z" glyph-name="Wacute.alt" horiz-adv-x="1099"/><glyph d="M381 680l52-269 38-252 136 521h108l135-516 42 248 23 118q39 198 128 285.5t249 87.5V788q-112 0-172.5-68T1025 501L913 0H790L659 506 527 0H404L274 575h-8q-71 0-101.5-37.5T134 412H21q0 131 61 199.5T261 680zm429 72h-93l-61 80-61-80h-89l96 161h112z" glyph-name="Wcircumflex.alt" horiz-adv-x="1099"/><glyph d="M381 680l52-269 38-252 136 521h108l135-516 42 248 23 118q39 198 128 285.5t249 87.5V788q-112 0-172.5-68T1025 501L913 0H790L659 506 527 0H404L274 575h-8q-71 0-101.5-37.5T134 412H21q0 131 61 199.5T261 680zm235 209V782H507v107zm194 0V782H701v107z" glyph-name="Wdieresis.alt" horiz-adv-x="1099"/><glyph d="M381 680l52-269 38-252 136 521h108l135-516 42 248 23 118q39 198 128 285.5t249 87.5V788q-112 0-172.5-68T1025 501L913 0H790L659 506 527 0H404L274 575h-8q-71 0-101.5-37.5T134 412H21q0 131 61 199.5T261 680zm328 72H608L505 872l108 46z" glyph-name="Wgrave.alt" horiz-adv-x="1099"/><glyph d="M134 412H21q0 131 59 199.5T251 680h99l147-290 139 290h124L552 273V0H432v271L276 575h-20q-66 0-94-37.5T134 412zm515 460L546 752H445l96 166z" glyph-name="Yacute.alt" horiz-adv-x="763"/><glyph d="M134 412H21q0 131 59 199.5T251 680h99l147-290 139 290h124L552 273V0H432v271L276 575h-20q-66 0-94-37.5T134 412zm319 477V782H344v107zm194 0V782H538v107z" glyph-name="Ydieresis.alt" horiz-adv-x="763"/><glyph d="M134 412H21q0 131 59 199.5T251 680h99l147-290 139 290h124L552 273V0H432v271L276 575h-20q-66 0-94-37.5T134 412zm512 340h-93l-61 80-61-80h-89l96 161h112z" glyph-name="Ycircumflex.alt" horiz-adv-x="763"/><glyph d="M134 412H21q0 131 59 199.5T251 680h99l147-290 139 290h124L552 273V0H432v271L276 575h-20q-66 0-94-37.5T134 412zm411 340H444L341 872l108 46z" glyph-name="Ygrave.alt" horiz-adv-x="763"/></font>
</defs>
</svg>
