<svg xmlns="http://www.w3.org/2000/svg"><defs><font horiz-adv-x="0" id="font"><font-face ascent="650" bbox="-176 -248 1281 990" cap-height="680" descent="-200" font-family="Inria Sans" font-style="normal" font-weight="680" x-height="495"/><glyph glyph-name=".null" horiz-adv-x="0"/><glyph glyph-name="CR" horiz-adv-x="0"/><glyph glyph-name="space" horiz-adv-x="218"/><glyph glyph-name="uni00A0" horiz-adv-x="218"/><glyph d="M556 0h-90l-51 158H157L106 0H21l226 680h82zM286 564l-66-210-38-117h207l-38 117z" glyph-name="A" horiz-adv-x="577" unicode="A"/><glyph d="M331 0H106v680h200q93 0 142-45t49-130v-22q0-45-20-79t-58-53q52-17 80-55.5t28-92.5v-22q0-87-50.5-134T331 0zm-25 600H193V385h113q49 0 75 25t26 71v24q0 46-26 70.5T306 600zm25-295H193V79h138q51 0 78.5 26.5T437 181v24q0 48-27.5 74T331 305z" glyph-name="B" horiz-adv-x="585" unicode="B"/><glyph d="M165 415V265q0-97 38.5-146T318 70q35 0 68.5 8.5T464 106l29-74Q447 11 403 .5T315-10q-115 0-177.5 72T75 265v150q0 131 63 203t177 72q43 0 87.5-10.5T491 648l-28-75q-42 19-77 27.5t-68 8.5q-76 0-114.5-49T165 415z" glyph-name="C" horiz-adv-x="529" unicode="C"/><glyph d="M317 0H106v680h211q115 0 179-69.5T560 415V266q0-127-63.5-196.5T317 0zm-2 598H193V81h122q77 0 116 46.5T470 266v149q0 91-39 137t-116 46z" glyph-name="D" horiz-adv-x="637" unicode="D"/><glyph d="M193 81h293V0H106v680h370v-82H193V385h253v-82H193z" glyph-name="E" horiz-adv-x="531" unicode="E"/><glyph d="M440 368v-82H193V0h-87v680h364v-82H193V368z" glyph-name="F" horiz-adv-x="506" unicode="F"/><glyph d="M536 356V47q-42-27-96.5-42T325-10q-117 0-183 74T76 266v149q0 131 66 203t186 72q48 0 97.5-11t95.5-32l-28-75q-46 19-86 28t-78 9q-81 0-122-49t-41-145V266q0-94 42.5-145T331 70q31 0 65 7t60 19v183H329v77z" glyph-name="G" horiz-adv-x="604" unicode="G"/><glyph d="M577 0h-87v303H193V0h-87v680h87V385h297v295h87z" glyph-name="H" horiz-adv-x="683" unicode="H"/><glyph d="M193 680V0h-87v680z" glyph-name="I" horiz-adv-x="300" unicode="I"/><glyph d="M27-7v83q84 0 120 34.5T183 224v456h87V224q0-120-59-175.5T27-7z" glyph-name="J" horiz-adv-x="363" unicode="J"/><glyph d="M583 0H477L283 321q-19-20-41-42.5T193 230V0h-87v680h87V327q90 91 154 176.5T457 680h94q-44-86-92-157.5T347 378z" glyph-name="K" horiz-adv-x="596" unicode="K"/><glyph d="M193 81h285V0H106v680h87z" glyph-name="L" horiz-adv-x="506" unicode="L"/><glyph d="M106 680h102l207-504 208 504h99V0h-85v291l11 262L453 80h-82L180 555l11-264V0h-85z" glyph-name="M" horiz-adv-x="829" unicode="M"/><glyph d="M191 0h-85v680h91q91-130 167.5-262T508 144l-10 260v276h85V0h-91q-87 181-160 312T185 555l6-277z" glyph-name="N" horiz-adv-x="690" unicode="N"/><glyph d="M323 690q116 0 181-73t65-202V266q0-130-65-203T323-10q-116 0-181 73T77 266v149q0 129 65 202t181 73zm156-424v149q0 95-40 144.5T323 609q-76 0-116-50t-40-144V266q0-95 40-145.5T323 70q76 0 116 50.5T479 266z" glyph-name="O" horiz-adv-x="647" unicode="O"/><glyph d="M193 0h-87v680h212q95 0 148-50t53-139v-53q0-89-53-139.5T318 248H193zm125 598H193V329h125q53 0 82 28.5t29 80.5v53q0 51-29 79t-82 28z" glyph-name="P" horiz-adv-x="564" unicode="P"/><glyph d="M408 2q20-57 49.5-75.5T562-94v-89q-93 0-145 32T337-42l-11 32h-3q-116 0-181 73T77 266v149q0 129 65 202t181 73q116 0 181-73t65-202V266q0-103-41.5-171.5T408 2zm71 264v149q0 95-40 144.5T323 609q-76 0-116-50t-40-144V266q0-95 40-145.5T323 70q76 0 116 50.5T479 266z" glyph-name="Q" horiz-adv-x="647" unicode="Q"/><glyph d="M329 266H193V0h-87v680h213q94 0 147.5-49.5T520 495v-43q0-60-27.5-104T414 283q41-66 78-137T562 0H462q-28 68-61.5 134.5T329 266zm-10 334H193V346h126q51 0 81 28.5t30 77.5v43q0 49-29.5 77T319 600z" glyph-name="R" horiz-adv-x="601" unicode="R"/><glyph d="M245 68q64 0 97.5 27.5T376 176q0 46-24.5 75.5T276 296l-81 24q-74 22-111 68T47 504q0 89 53 137.5T253 690q46 0 94-11t96-33l-28-75q-47 21-85.5 30.5T255 611q-61 0-90.5-25T135 510q0-42 23-68t73-41l81-24q76-23 114-71t38-123q0-94-56-143.5T245-10q-51 0-103.5 12T37 38l27 74q52-23 94-33.5T245 68z" glyph-name="S" horiz-adv-x="506" unicode="S"/><glyph d="M211 598H13v82h483v-82H298V0h-87z" glyph-name="T" horiz-adv-x="509" unicode="T"/><glyph d="M92 244v436h90V244q0-86 36-130t106-44q71 0 106.5 44T466 244v436h90V244q0-123-59.5-188.5T324-10q-113 0-172.5 65T92 244z" glyph-name="U" horiz-adv-x="648" unicode="U"/><glyph d="M457 680h86L326 0h-88L20 680h92l108-345 65-218 66 219z" glyph-name="V" horiz-adv-x="563" unicode="V"/><glyph d="M127 680l59-288 48-275 157 563h81l157-560 50 272 59 288h86L674 0h-88L430 556 274 0h-89L36 680z" glyph-name="W" horiz-adv-x="860" unicode="W"/><glyph d="M527 0h-98L267 277 111 0H20l202 351L30 680h99l150-259 147 259h90L324 347z" glyph-name="X" horiz-adv-x="548" unicode="X"/><glyph d="M424 680h90L306 272V0h-87v272L10 680h94l163-322z" glyph-name="Y" horiz-adv-x="524" unicode="Y"/><glyph d="M144 81h326V0H41v70l315 528H51v82h409v-71z" glyph-name="Z" horiz-adv-x="508" unicode="Z"/><glyph d="M97 0H3l365 680h411v-82H496V385h253v-82H496V81h293V0H409v158H181zm312 590L222 237h187z" glyph-name="AE" horiz-adv-x="834" unicode="Æ"/><glyph d="M77 266v149q0 126 64 195.5T320 680h493v-82H531V385h252v-82H531V81h292V0H320Q204 0 140.5 69.5T77 266zM322 81h122v517H322q-77 0-116-46t-39-137V266q0-92 39-138.5T322 81z" glyph-name="OE" horiz-adv-x="868" unicode="Œ"/><glyph d="M203 81h285V0H116v277l-87-41v84l87 41v319h87V402l136 64v-84l-136-64z" glyph-name="Lslash" horiz-adv-x="516" unicode="Ł"/><glyph d="M323-10q-40 0-74.5 9T185 26l-31-56H77l57 102q-28 35-42.5 84.5T77 266v149q0 129 65 202t181 73q39 0 73.5-9t64.5-27l31 56h77l-57-102q28-37 42.5-85.5T569 415V266q0-130-65-203T323-10zM166 415V266q0-31 4.5-57.5T184 160l235 420q-19 15-43 22.5t-53 7.5q-76 0-116.5-50T166 415zm314-149v149q0 30-4.5 56.5T463 520L227 100q18-15 42.5-23t53.5-8q76 0 116.5 51T480 266z" glyph-name="Oslash" horiz-adv-x="647" unicode="Ø"/><glyph d="M29 305v79h87v296h211q115 0 178.5-69.5T569 415V266q0-127-63-196.5T327 0H116v305zm311 79v-79H203V81h122q77 0 115.5 46T479 266v149q0 92-38.5 137.5T325 598H203V384z" glyph-name="Eth" horiz-adv-x="647" unicode="Ð"/><glyph d="M318 128H193V0h-87v680h87V560h125q95 0 148-50t53-139v-53q0-89-53-139.5T318 128zm0 350H193V209h125q53 0 82 28.5t29 80.5v53q0 51-29 79t-82 28z" glyph-name="Thorn" horiz-adv-x="564" unicode="Þ"/><glyph d="M560 176v-16q0-79-46-124.5T387-10q-39 0-78.5 9.5T231 27l24 74q33-16 64.5-24t64.5-8q42 0 64.5 23.5T471 160v16q0 44-19 70t-66 45l-88 35v65l104 193q-23 13-49 19.5t-55 6.5q-59 0-90.5-36T176 469V0H89v469q0 104 54.5 162.5T295 690q56 0 104-17t83-49v-59L381 382l41-16q75-29 106.5-73.5T560 176z" glyph-name="uni1E9E" horiz-adv-x="603" unicode="ẞ"/><glyph d="M465-5h-15q-42 0-71 19t-41 54q-45-41-85.5-59.5T169-10q-60 0-93.5 38.5T42 135q0 71 41 106.5T205 277q24 0 55-3t69-9v67q0 51-22 74t-74 23q-32 0-67.5-8.5T90 394l-26 68q48 22 90 32.5t83 10.5q87 0 129.5-40.5T409 338V124q0-28 11-41t34-13h11zM209 212q-44 0-65-18.5T123 136q0-36 16.5-56T185 60q32 0 67 19t77 59v63q-32 5-63.5 8t-56.5 3z" glyph-name="a" horiz-adv-x="493" unicode="a"/><glyph d="M488 276v-58q0-108-54-168T283-10q-49 0-99.5 13.5T85 43v697h82V428q43 41 81 59t78 18q78 0 120-60t42-169zM306 428q-33 0-65-18t-74-59V89q31-13 57.5-19t53.5-6q62 0 93.5 38.5T403 218v58q0 77-24 114.5T306 428z" glyph-name="b" horiz-adv-x="552" unicode="b"/><glyph d="M263 429q-60 0-88.5-37T146 277v-59q0-78 28.5-115.5T263 65q30 0 62 8t67 23l25-69Q377 9 336.5-.5T258-10q-94 0-145 59.5T62 218v59q0 109 51 168.5T258 505q35 0 73.5-9t78.5-27l-25-70q-35 15-65.5 22.5T263 429z" glyph-name="c" horiz-adv-x="449" unicode="c"/><glyph d="M467 0h-78v69q-43-42-81-60.5T228-10q-78 0-121 59.5T64 218v58q0 108 54 168.5T269 505q26 0 54.5-5.5T385 482v258h82zM149 276v-58q0-77 24-114t74-37q34 0 65 17.5t73 57.5v264q-28 12-54.5 18t-54.5 6q-64 0-95.5-38T149 276z" glyph-name="d" horiz-adv-x="556" unicode="d"/><glyph d="M422 97l25-68q-39-19-84-29t-89-10q-103 0-157.5 58.5T62 218v60q0 105 53.5 166T263 505q85 0 136-50.5T450 316q0-21-3-45t-9-51H143v-2q0-79 32.5-116.5T276 64q35 0 73.5 8.5T422 97zm-52 227q0 51-29 80t-78 29q-56 0-86.5-36.5T143 290h224q1 9 2 17.5t1 16.5z" glyph-name="e" horiz-adv-x="504" unicode="e"/><glyph d="M348 495v-72H186V0h-82v423H18v72h86v82q0 82 41 127.5T263 750q30 0 62-7t60-19l-23-69q-25 10-47.5 15t-41.5 5q-44 0-65.5-24T186 578v-83z" glyph-name="f" horiz-adv-x="350" unicode="f"/><glyph d="M484-62q0-74-60-117.5T261-223q-57 0-112.5 15T46-164l28 64q45-26 91-38.5t96-12.5q67 0 104.5 21.5T403-70q0 28-19 42t-57 14H212q-57 0-90 27.5T89 85q0 25 11.5 50.5T135 187q-37 22-57 59.5T58 333q0 80 49.5 126T240 505h17q18 0 34-2.5t30-7.5h178v-73l-108 15q24-20 35.5-47t11.5-62q0-76-50-121.5T257 161h-17q-11 0-23 1t-26 4q-14-16-21.5-32t-7.5-31q0-20 14-30t42-10h112q73 0 113.5-32.5T484-62zM240 232h17q44 0 71.5 27.5T356 333q0 46-27.5 73.5T257 434h-17q-45 0-72.5-27.5T140 333q0-47 27.5-74t72.5-27z" glyph-name="g" horiz-adv-x="520" unicode="g"/><glyph d="M326 428q-35 0-73-17.5T170 357V0H88v740h82V429q47 39 89 57.5t87 18.5q68 0 105-43.5T488 338V0h-82v326q0 52-19.5 77T326 428z" glyph-name="h" horiz-adv-x="571" unicode="h"/><glyph d="M175 708v-92H83v92zm-5-213V0H88v495z" glyph-name="i" horiz-adv-x="259" unicode="i"/><glyph d="M175 708v-92H83v92zM-20-223v78q59 0 83.5 28.5T88-23v518h82V-23q0-102-47-151t-143-49z" glyph-name="j" horiz-adv-x="259" unicode="j"/><glyph d="M492 0h-99L254 229q-17-17-37.5-36.5T170 150V0H88v740h82V242q70 68 119.5 128T378 495h94q-35-59-72.5-109.5T314 282z" glyph-name="k" horiz-adv-x="508" unicode="k"/><glyph d="M87 120v620h82V124q0-31 10-42.5T212 70h16V-5h-23q-59 0-88.5 31T87 120z" glyph-name="l" horiz-adv-x="264" unicode="l"/><glyph d="M321 428q-33 0-69-17t-82-54V0H88v495h78v-69q50 41 91.5 60t83.5 19q45 0 77-21t47-62q51 43 95 63t89 20q65 0 100.5-43.5T785 338V0h-82v326q0 52-18 77t-56 25q-33 0-69-17t-83-54q1-3 1-7V0h-82v326q0 52-18.5 77T321 428z" glyph-name="m" horiz-adv-x="869" unicode="m"/><glyph d="M326 428q-35 0-73-17.5T170 357V0H88v495h78v-69q48 41 91.5 60t88.5 19q68 0 105-43.5T488 338V0h-82v326q0 52-19.5 77T326 428z" glyph-name="n" horiz-adv-x="571" unicode="n"/><glyph d="M270 505q99 0 154.5-60.5T480 278v-60q0-108-55.5-168T270-10q-99 0-154.5 60T60 218v60q0 106 55.5 166.5T270 505zm125-287v60q0 72-32.5 112T270 430q-59 0-92-40t-33-112v-60q0-74 32.5-114T270 64q61 0 93 39.5T395 218z" glyph-name="o" horiz-adv-x="541" unicode="o"/><glyph d="M286-10q-28 0-57 5.5T170 13v-226H88v708h78v-70q43 42 81.5 61t80.5 19q78 0 121-60t43-169v-58q0-107-54-167.5T286-10zm22 438q-33 0-64.5-17.5T170 352V88q28-12 54.5-18t54.5-6q64 0 96 38.5T407 218v58q0 77-24.5 114.5T308 428z" glyph-name="p" horiz-adv-x="556" unicode="p"/><glyph d="M269 505q48 0 98.5-13.5T467 451v-664h-82V67q-43-40-80.5-58.5T226-10q-77 0-119.5 59.5T64 218v58q0 108 54 168.5T269 505zM149 276v-58q0-77 24-114t73-37q34 0 65.5 17.5T385 143v262q-31 13-57.5 19t-53.5 6q-63 0-94-38.5T149 276z" glyph-name="q" horiz-adv-x="553" unicode="q"/><glyph d="M348 505v-82q-51 0-93-18.5T170 346V0H88v495h78v-80q48 48 91 69t91 21z" glyph-name="r" horiz-adv-x="367" unicode="r"/><glyph d="M209 63q50 0 75 17t25 51q0 30-19 47t-65 28l-55 14q-59 15-90 51.5T49 362q0 66 44 104.5T216 505q40 0 79.5-9.5T374 468l-26-69q-37 17-70 25t-62 8q-43 0-65-16.5T129 367q0-29 18-46t58-26l55-14q65-16 96.5-51.5T388 136q0-71-45-108.5T211-10q-45 0-87.5 9.5T38 28l22 68q43-17 78-25t71-8z" glyph-name="s" horiz-adv-x="431" unicode="s"/><glyph d="M335 85l25-67Q333 4 302.5-3T241-10q-70 0-105 40.5T101 153v270H15v72h86v138h82V495h162v-72H183V156q0-50 16-70.5T255 65q20 0 39.5 5T335 85z" glyph-name="t" horiz-adv-x="380" unicode="t"/><glyph d="M470 0h-77v70q-49-42-90-61t-85-19q-66 0-101 43T82 156v339h82V168q0-52 18-76.5T238 67q34 0 70 17t80 53v358h82z" glyph-name="u" horiz-adv-x="559" unicode="u"/><glyph d="M369 495h81L275 0h-77L21 495h85l83-241 50-151 49 151z" glyph-name="v" horiz-adv-x="472" unicode="v"/><glyph d="M604 495h81L558 0h-95L359 406 252 0h-95L31 495h84l50-207 45-205 107 412h87L511 81l44 206z" glyph-name="w" horiz-adv-x="716" unicode="w"/><glyph d="M440 0h-90L227 193 109 0H22l164 256L34 495h91l109-173 107 173h86L276 258z" glyph-name="x" horiz-adv-x="463" unicode="x"/><glyph d="M450 495L257-50q-34-94-81.5-133.5T49-223v81q58 1 86.5 25.5T189-28l10 25L21 495h84l83-241 51-154 49 154 81 241z" glyph-name="y" horiz-adv-x="472" unicode="y"/><glyph d="M131 71h248V0H35v64l237 359H45v72h324v-65z" glyph-name="z" horiz-adv-x="412" unicode="z"/><glyph d="M690 97l25-68q-41-19-86-29t-88-10q-64 0-109.5 22.5T361 80q-51-47-97-68.5T170-10q-60 0-94 39T42 135q0 71 41 106.5T205 277q24 0 55-3t69-9v67q0 51-22 74t-74 23q-32 0-67.5-8.5T90 394l-26 68q48 22 90 32.5t83 10.5q56 0 92-18t54-55q24 36 61.5 54.5T531 505q85 0 136-50.5T718 316q0-22-3-45.5T705 222H410v-4q0-78 33-116t101-38q35 0 73 8.5T690 97zm-53 227q0 51-29 80t-77 29q-56 0-87.5-37T410 289h224q2 10 2.5 18.5t.5 16.5zM209 212q-44 0-64.5-18.5T124 136q0-36 16-56t45-20q34 0 71.5 20.5T337 143q-3 15-5 29t-3 28q-31 6-62.5 9t-57.5 3z" glyph-name="ae" horiz-adv-x="771" unicode="æ"/><glyph d="M756 97l25-68q-41-19-86-29t-87-10q-60 0-103.5 23T437 81q-24-44-67-67.5T270-10q-99 0-154.5 60T60 218v60q0 106 55.5 166.5T270 505q57 0 99.5-24t67.5-69q24 45 65 69t95 24q85 0 136-50.5T784 316q0-21-3-44.5t-9-49.5H476v-4q0-78 33-116t101-38q35 0 73 8.5T756 97zm-53 227q0 51-28.5 80T597 433q-56 0-87.5-37T476 289h224q2 10 2.5 18.5t.5 16.5zM395 218v60q0 73-32.5 112.5T270 430q-60 0-92.5-40T145 278v-60q0-74 32.5-114T270 64q61 0 93 39.5T395 218z" glyph-name="oe" horiz-adv-x="838" unicode="œ"/><glyph d="M233 70h16V-5h-23q-60 0-89 30.5T108 120v187l-87-50v83l87 50v350h82V436l87 50v-83l-87-50V124q0-31 10-42.5T233 70z" glyph-name="lslash" horiz-adv-x="302" unicode="ł"/><glyph d="M270-10q-31 0-58 6t-50 18l-28-44H60l52 84q-26 29-39 71t-13 93v60q0 106 55.5 166.5T270 505q31 0 58.5-6.5T379 480l28 45h73l-52-84q26-29 39-70.5t13-92.5v-60q0-108-55.5-168T270-10zM143 278v-60q0-25 4-47.5t12-41.5l179 286q-15 9-31.5 13t-36.5 4q-60 0-93.5-40.5T143 278zm254-60v60q0 25-4.5 47.5T380 365L202 79q15-8 32-12.5t36-4.5q62 0 94.5 40T397 218z" glyph-name="oslash" horiz-adv-x="541" unicode="ø"/><glyph d="M480 294v-40q0-129-55.5-196.5T264-10q-100 0-154.5 53.5T55 196v36q0 96 51.5 153T245 442q38 0 71.5-12t67.5-37q-12 49-36 93t-60 83l-129-87v77l82 55q-25 21-50 38.5T139 686l33 64q38-23 71-46t60-47l138 93v-77l-91-62q65-70 97.5-149.5T480 294zm-340-62v-36q0-65 31.5-98.5T264 64q65 0 98 47.5T395 254v53q-37 31-69.5 45T259 366q-56 0-87.5-35.5T140 232z" glyph-name="eth" horiz-adv-x="538" unicode="ð"/><glyph d="M286-10q-28 0-57 5.5T170 13v-226H88v953h82V429q42 40 79.5 58t78.5 18q78 0 120-60t42-169v-58q0-108-53.5-168T286-10zm22 438q-33 0-64.5-17.5T170 352V88q28-12 54.5-18t54.5-6q63 0 94.5 38.5T405 218v58q0 77-24 114.5T308 428z" glyph-name="thorn" horiz-adv-x="554" unicode="þ"/><glyph d="M578 138q0-69-43-108.5T415-10q-35 0-72.5 8.5T268 23l22 71q34-16 64.5-24t59.5-8q40 0 62 18t22 52q0 26-13 46.5T444 219l-50 35q-40 28-58.5 58.5T317 381q0 23 7 47t28 68q20 40 26 60.5t6 39.5q0 37-26.5 58T285 675q-51 0-75-25.5T186 569V0h-82v423H18v72h86v74q0 86 46.5 133.5T284 750q84 0 132.5-39.5T465 600q0-26-7.5-52.5T427 478q-18-35-23.5-52.5T398 392q0-22 11-39t35-33l50-34q43-29 63.5-65.5T578 138z" glyph-name="germandbls" horiz-adv-x="608" unicode="ß"/><glyph d="M170 495V0H88v495z" glyph-name="dotlessi" horiz-adv-x="259" unicode="ı"/><glyph d="M-20-223v78q59 0 83.5 28.5T88-23v518h82V-23q0-102-47-151t-143-49z" glyph-name="dotlessj" horiz-adv-x="259" unicode="ȷ"/><glyph d="M302 675q-58 0-87-26.5T186 568v-73h307V0h-82v423H186V0h-82v423H18v72h86v72q0 88 50.5 135.5T300 750q44 0 89.5-10t89.5-30l-29-65q-39 15-76.5 22.5T302 675z" glyph-name="fi" horiz-adv-x="582" unicode="ﬁ"/><glyph d="M493 0h-82v423H186V0h-82v423H18v72h86v75q0 81 41 125.5T262 740q26 0 54-5.5t55-16.5l-24-70q-22 8-42.5 12.5T267 665q-41 0-61-23.5T186 570v-75h225v72q0 88 50.5 135.5T607 750q44 0 89-10t90-30l-29-65q-39 15-76.5 22.5T609 675q-59 0-87.5-26.5T493 568v-73h307V0h-82v423H493z" glyph-name="ffi" horiz-adv-x="889" unicode="ﬃ"/><glyph d="M541 70h16V-5h-22q-60 0-89.5 31T416 120v536q-35 10-63.5 14.5T297 675q-57 0-84-26t-27-81v-73h154v-72H186V0h-82v423H18v72h86v72q0 88 49 135.5T295 750q48 0 99.5-12T498 703V124q0-30 10-42t33-12z" glyph-name="fl" horiz-adv-x="593" unicode="ﬂ"/><glyph d="M267 665q-41 0-61-23.5T186 570v-75h225v72q0 88 49 135.5T602 750q48 0 99.5-12T805 703V124q0-30 10-42t33-12h16V-5h-22q-60 0-89.5 31T723 120v536q-35 10-63.5 14.5T604 675q-57 0-84-26t-27-81v-73h154v-72H493V0h-82v423H186V0h-82v423H18v72h86v75q0 81 41 125.5T262 740q26 0 54-5.5t55-16.5l-24-70q-22 8-42.5 12.5T267 665z" glyph-name="ffl" horiz-adv-x="900" unicode="ﬄ"/><glyph d="M552-10q-68 0-102 39.5T416 149v274H186V0h-82v423H18v72h86v72q0 88 49 135.5T295 750q48 0 99.5-12T498 703V495h162v-72H498V152q0-47 15-67t53-20q21 0 41.5 5.5T651 88l24-68Q646 5 614.5-2.5T552-10zM297 675q-57 0-84-26t-27-81v-73h230v161q-35 10-63.5 14.5T297 675z" glyph-name="ft" horiz-adv-x="695"/><glyph d="M267 665q-41 0-61-23.5T186 570v-75h225v72q0 88 49 135.5T602 750q48 0 99.5-12T805 703V495h162v-72H805V152q0-47 15-67t53-20q21 0 41.5 5.5T958 88l24-68Q953 5 921.5-2.5T859-10q-68 0-102 39.5T723 149v274H493V0h-82v423H186V0h-82v423H18v72h86v75q0 81 41 125.5T262 740q26 0 54-5.5t55-16.5l-24-70q-22 8-42.5 12.5T267 665zm337 10q-57 0-84-26t-27-81v-73h230v161q-35 10-63.5 14.5T604 675z" glyph-name="fft" horiz-adv-x="1002"/><glyph d="M820 276v-58q0-108-54-168T615-10q-49 0-99 13.5T416 43v613q-35 10-63.5 14.5T297 675q-57 0-84-26t-27-81v-73h154v-72H186V0h-82v423H18v72h86v72q0 88 49 135.5T295 750q48 0 99.5-12T498 703V427q43 41 80.5 59.5T657 505q78 0 120.5-60T820 276zM638 428q-33 0-64.5-18T498 350V89q30-13 57-19t54-6q63 0 94.5 38.5T735 218v58q0 77-24 114.5T638 428z" glyph-name="fb" horiz-adv-x="884"/><glyph d="M267 665q-41 0-61-23.5T186 570v-75h225v72q0 88 49 135.5T602 750q48 0 99.5-12T805 703V427q43 41 80.5 59.5T964 505q78 0 120.5-60t42.5-169v-58q0-108-54-168T922-10q-49 0-99 13.5T723 43v613q-35 10-63.5 14.5T604 675q-57 0-84-26t-27-81v-73h154v-72H493V0h-82v423H186V0h-82v423H18v72h86v75q0 81 41 125.5T262 740q26 0 54-5.5t55-16.5l-24-70q-22 8-42.5 12.5T267 665zm678-237q-33 0-64.5-18T805 350V89q30-13 57-19t54-6q63 0 94.5 38.5T1042 218v58q0 77-24 114.5T945 428z" glyph-name="ffb" horiz-adv-x="1191"/><glyph d="M493 0h-82v423H186V0h-82v423H18v72h86v75q0 81 41 125.5T262 740q26 0 54-5.5t55-16.5l-24-70q-22 8-42.5 12.5T267 665q-41 0-61-23.5T186 570v-75h225v82q0 82 41 127.5T570 750q30 0 61.5-7t60.5-19l-23-69q-25 10-47.5 15t-41.5 5q-44 0-65.5-24T493 578v-83h162v-72H493z" glyph-name="ff" horiz-adv-x="657" unicode="ﬀ"/><glyph d="M493 0h-82v423H186V0h-82v423H18v72h86v75q0 81 41 125.5T262 740q26 0 54-5.5t55-16.5l-24-70q-22 8-42.5 12.5T267 665q-41 0-61-23.5T186 570v-75h225v75q0 81 41 125.5T569 740q26 0 54-5.5t55-16.5l-24-70q-22 8-42.5 12.5T574 665q-41 0-61-23.5T493 570v-75h225v82q0 82 41 127.5T877 750q30 0 61.5-7t60.5-19l-23-69q-25 10-47.5 15t-41.5 5q-44 0-65.5-24T800 578v-83h162v-72H800V0h-82v423H493z" glyph-name="fff" horiz-adv-x="964"/><glyph d="M340 495v-72H186V0h-82v423H18v72h86v72q0 88 49 135.5T295 750q48 0 99.5-12T498 703V429q47 39 89.5 57.5T674 505q68 0 105-43.5T816 338V0h-82v326q0 52-19.5 77T654 428q-35 0-72.5-17.5T498 357V0h-82v656q-35 10-63.5 14.5T297 675q-57 0-84-26t-27-81v-73z" glyph-name="fh" horiz-adv-x="899"/><glyph d="M493 0h-82v423H186V0h-82v423H18v72h86v75q0 81 41 125.5T262 740q26 0 54-5.5t55-16.5l-24-70q-22 8-42.5 12.5T267 665q-41 0-61-23.5T186 570v-75h225v72q0 88 49 135.5T602 750q48 0 99.5-12T805 703V429q47 39 89.5 57.5T981 505q68 0 105-43.5t37-123.5V0h-82v326q0 52-19.5 77T961 428q-35 0-72.5-17.5T805 357V0h-82v656q-35 10-63.5 14.5T604 675q-57 0-84-26t-27-81v-73h154v-72H493z" glyph-name="ffh" horiz-adv-x="1206"/><glyph d="M302 675q-58 0-87-26.5T186 568v-73h307V-23q0-102-47-151t-144-49v78q59 0 84 28.5T411-23v446H186V0h-82v423H18v72h86v72q0 88 50.5 135.5T300 750q44 0 89.5-10t89.5-30l-29-65q-39 15-76.5 22.5T302 675z" glyph-name="fj" horiz-adv-x="582"/><glyph d="M609 675q-59 0-87.5-26.5T493 568v-73h307V-23q0-102-47-151t-144-49v78q59 0 84 28.5T718-23v446H493V0h-82v423H186V0h-82v423H18v72h86v75q0 81 41 125.5T262 740q26 0 54-5.5t55-16.5l-24-70q-22 8-42.5 12.5T267 665q-41 0-61-23.5T186 570v-75h225v72q0 88 50.5 135.5T607 750q44 0 89-10t90-30l-29-65q-39 15-76.5 22.5T609 675z" glyph-name="ffj" horiz-adv-x="889"/><glyph d="M340 495v-72H186V0h-82v423H18v72h86v72q0 88 49 135.5T295 750q48 0 99.5-12T498 703V242q70 68 119.5 128T706 495h94q-35-59-72.5-109.5T642 282L820 0h-99L582 229q-17-17-37.5-36.5T498 150V0h-82v656q-35 10-63.5 14.5T297 675q-57 0-84-26t-27-81v-73z" glyph-name="fk" horiz-adv-x="836"/><glyph d="M493 0h-82v423H186V0h-82v423H18v72h86v75q0 81 41 125.5T262 740q26 0 54-5.5t55-16.5l-24-70q-22 8-42.5 12.5T267 665q-41 0-61-23.5T186 570v-75h225v72q0 88 49 135.5T602 750q48 0 99.5-12T805 703V242q70 68 119.5 128t88.5 125h94q-35-59-72.5-109.5T949 282L1127 0h-99L889 229q-17-17-37.5-36.5T805 150V0h-82v656q-35 10-63.5 14.5T604 675q-57 0-84-26t-27-81v-73h154v-72H493z" glyph-name="ffk" horiz-adv-x="1143"/><glyph d="M556 0h-90l-51 158H157L106 0H21l226 680h82zM286 564l-66-210-38-117h207l-38 117zm135 330l-97-130h-71l90 166z" glyph-name="Aacute" horiz-adv-x="577" unicode="Á"/><glyph d="M556 0h-90l-51 158H157L106 0H21l226 680h82zM286 564l-66-210-38-117h207l-38 117zm136 200h-69l-67 95-67-95h-65l93 161h82z" glyph-name="Acircumflex" horiz-adv-x="577" unicode="Â"/><glyph d="M556 0h-90l-51 158H157L106 0H21l226 680h82zM286 564l-66-210-38-117h207l-38 117zm-51 326v-86h-86v86zm191 0v-86h-86v86z" glyph-name="Adieresis" horiz-adv-x="577" unicode="Ä"/><glyph d="M556 0h-90l-51 158H157L106 0H21l226 680h82zM286 564l-66-210-38-117h207l-38 117zm37 200h-71l-98 130 79 36z" glyph-name="Agrave" horiz-adv-x="577" unicode="À"/><glyph d="M415 158H157L106 0H21l212 637q-28 13-43 38t-15 59v11q0 49 31 78.5t83 29.5q51 0 82.5-30t31.5-78v-11q0-34-15.5-59.5T344 636L556 0h-90zm-72 576v11q0 24-15 38.5T289 798q-25 0-40-14.5T234 745v-11q0-25 15-39.5t40-14.5q24 0 39 15t15 39zm-57-170l-66-210-38-117h207l-38 117z" glyph-name="Aring" horiz-adv-x="577" unicode="Å"/><glyph d="M556 0h-90l-51 158H157L106 0H21l226 680h82zM286 564l-66-210-38-117h207l-38 117zm62 209q-21 0-38.5 10T268 824q-15 20-23 25.5t-16 5.5q-13 0-18.5-17t-5.5-53h-63q1 68 22.5 103t62.5 35q21 0 38.5-10.5T307 871q15-19 23-25t16-6q13 0 18.5 17t6.5 53h63q-1-69-22.5-103T348 773z" glyph-name="Atilde" horiz-adv-x="577" unicode="Ã"/><glyph d="M556 0h-90l-51 158H157L106 0H21l226 680h82zM286 564l-66-210-38-117h207l-38 117zm2 269q32 0 47 20t18 63h66q-5-72-38.5-109T288 770q-60 0-93 37t-38 109h65q3-43 18.5-63t47.5-20z" glyph-name="Abreve" horiz-adv-x="577" unicode="Ă"/><glyph d="M556 0h-90l-51 158H157L106 0H21l226 680h82zM286 564l-66-210-38-117h207l-38 117zM145 857h286v-63H145z" glyph-name="Amacron" horiz-adv-x="577" unicode="Ā"/><glyph d="M541-143l15-63q-21-9-40.5-13t-38.5-4q-47 0-74 23.5T376-136q0 33 21.5 65.5T466 1l-51 157H157L106 0H21l226 680h82L556 0q-59-45-82-72t-23-51q0-16 9.5-24t27.5-8q12 0 25.5 3t27.5 9zM286 564l-66-210-38-117h207l-38 117z" glyph-name="Aogonek" horiz-adv-x="577" unicode="Ą"/><glyph d="M412-132q0-42-30.5-66.5T299-223q-19 0-38.5 3.5T220-208l11 56q16-6 34-9t33-3q23 0 35 8t12 23q0 15-12 22.5t-36 7.5q-4 0-8-.5t-15-1.5l-24 38 11 62q-90 15-138 85.5T75 265v150q0 131 63 203t177 72q43 0 87.5-10.5T491 648l-28-75q-42 19-77 27.5t-68 8.5q-76 0-114.5-49T165 415V265q0-97 38.5-146T318 70q35 0 68.5 8.5T464 106l29-74q-44-20-87-30.5T320-10l-7-40q47 0 73-21.5t26-60.5z" glyph-name="Ccedilla" horiz-adv-x="529" unicode="Ç"/><glyph d="M165 415V265q0-97 38.5-146T318 70q35 0 68.5 8.5T464 106l29-74Q447 11 403 .5T315-10q-115 0-177.5 72T75 265v150q0 131 63 203t177 72q43 0 87.5-10.5T491 648l-28-75q-42 19-77 27.5t-68 8.5q-76 0-114.5-49T165 415zm281 479l-97-130h-71l90 166z" glyph-name="Cacute" horiz-adv-x="529" unicode="Ć"/><glyph d="M165 415V265q0-97 38.5-146T318 70q35 0 68.5 8.5T464 106l29-74Q447 11 403 .5T315-10q-115 0-177.5 72T75 265v150q0 131 63 203t177 72q43 0 87.5-10.5T491 648l-28-75q-42 19-77 27.5t-68 8.5q-76 0-114.5-49T165 415zm216 510h65l-93-161h-82l-93 161h69l67-95z" glyph-name="Ccaron" horiz-adv-x="529" unicode="Č"/><glyph d="M165 415V265q0-97 38.5-146T318 70q35 0 68.5 8.5T464 106l29-74Q447 11 403 .5T315-10q-115 0-177.5 72T75 265v150q0 131 63 203t177 72q43 0 87.5-10.5T491 648l-28-75q-42 19-77 27.5t-68 8.5q-76 0-114.5-49T165 415zm281 349h-69l-67 95-67-95h-65l93 161h82z" glyph-name="Ccircumflex" horiz-adv-x="529" unicode="Ĉ"/><glyph d="M165 415V265q0-97 38.5-146T318 70q35 0 68.5 8.5T464 106l29-74Q447 11 403 .5T315-10q-115 0-177.5 72T75 265v150q0 131 63 203t177 72q43 0 87.5-10.5T491 648l-28-75q-42 19-77 27.5t-68 8.5q-76 0-114.5-49T165 415zm194 478v-92h-92v92z" glyph-name="Cdotaccent" horiz-adv-x="529" unicode="Ċ"/><glyph d="M317 0H106v680h211q115 0 179-69.5T560 415V266q0-127-63.5-196.5T317 0zm-2 598H193V81h122q77 0 116 46.5T470 266v149q0 91-39 137t-116 46zm66 327h65l-93-161h-82l-93 161h69l67-95z" glyph-name="Dcaron" horiz-adv-x="637" unicode="Ď"/><glyph d="M29 305v79h87v296h211q115 0 178.5-69.5T569 415V266q0-127-63-196.5T327 0H116v305zm311 79v-79H203V81h122q77 0 115.5 46T479 266v149q0 92-38.5 137.5T325 598H203V384z" glyph-name="Dcroat" horiz-adv-x="647" unicode="Đ"/><glyph d="M193 81h293V0H106v680h370v-82H193V385h253v-82H193zm230 813l-97-130h-71l90 166z" glyph-name="Eacute" horiz-adv-x="531" unicode="É"/><glyph d="M193 81h293V0H106v680h370v-82H193V385h253v-82H193zm231 683h-69l-67 95-67-95h-65l93 161h82z" glyph-name="Ecircumflex" horiz-adv-x="531" unicode="Ê"/><glyph d="M193 81h293V0H106v680h370v-82H193V385h253v-82H193zm44 809v-86h-86v86zm191 0v-86h-86v86z" glyph-name="Edieresis" horiz-adv-x="531" unicode="Ë"/><glyph d="M193 81h293V0H106v680h370v-82H193V385h253v-82H193zm132 683h-71l-98 130 79 36z" glyph-name="Egrave" horiz-adv-x="531" unicode="È"/><glyph d="M193 81h293V0H106v680h370v-82H193V385h253v-82H193zm97 752q32 0 47 20t18 63h66q-5-72-38.5-109T290 770q-60 0-93 37t-38 109h65q3-43 18.5-63t47.5-20z" glyph-name="Ebreve" horiz-adv-x="531" unicode="Ĕ"/><glyph d="M193 81h293V0H106v680h370v-82H193V385h253v-82H193zm166 844h65l-93-161h-82l-93 161h69l67-95z" glyph-name="Ecaron" horiz-adv-x="531" unicode="Ě"/><glyph d="M193 81h293V0H106v680h370v-82H193V385h253v-82H193zm143 812v-92h-92v92z" glyph-name="Edotaccent" horiz-adv-x="531" unicode="Ė"/><glyph d="M193 81h293V0H106v680h370v-82H193V385h253v-82H193zm-46 776h286v-63H147z" glyph-name="Emacron" horiz-adv-x="531" unicode="Ē"/><glyph d="M471-143l15-63q-21-9-40.5-13t-38.5-4q-47 0-74 23.5T306-136q0 33 21.5 65T398 0H106v680h370v-82H193V385h253v-82H193V81h293V0q-58-46-81.5-73T381-123q0-16 9.5-24t27.5-8q12 0 25.5 3t27.5 9z" glyph-name="Eogonek" horiz-adv-x="531" unicode="Ę"/><glyph d="M536 356V47q-42-27-96.5-42T325-10q-117 0-183 74T76 266v149q0 131 66 203t186 72q48 0 97.5-11t95.5-32l-28-75q-46 19-86 28t-78 9q-81 0-122-49t-41-145V266q0-94 42.5-145T331 70q31 0 65 7t60 19v183H329v77zM328 833q32 0 47 20t18 63h66q-5-72-38.5-109T328 770q-60 0-93 37t-38 109h65q3-43 18.5-63t47.5-20z" glyph-name="Gbreve" horiz-adv-x="604" unicode="Ğ"/><glyph d="M536 356V47q-42-27-96.5-42T325-10q-117 0-183 74T76 266v149q0 131 66 203t186 72q48 0 97.5-11t95.5-32l-28-75q-46 19-86 28t-78 9q-81 0-122-49t-41-145V266q0-94 42.5-145T331 70q31 0 65 7t60 19v183H329v77zm-74 408h-69l-67 95-67-95h-65l93 161h82z" glyph-name="Gcircumflex" horiz-adv-x="604" unicode="Ĝ"/><glyph d="M536 356V47q-42-27-96.5-42T325-10q-117 0-183 74T76 266v149q0 131 66 203t186 72q48 0 97.5-11t95.5-32l-28-75q-46 19-86 28t-78 9q-81 0-122-49t-41-145V266q0-94 42.5-145T331 70q31 0 65 7t60 19v183H329v77zM372-77l-70-171-50 14 31 157z" glyph-name="Gcommaaccent" horiz-adv-x="604" unicode="Ģ"/><glyph d="M536 356V47q-42-27-96.5-42T325-10q-117 0-183 74T76 266v149q0 131 66 203t186 72q48 0 97.5-11t95.5-32l-28-75q-46 19-86 28t-78 9q-81 0-122-49t-41-145V266q0-94 42.5-145T331 70q31 0 65 7t60 19v183H329v77zM374 893v-92h-92v92z" glyph-name="Gdotaccent" horiz-adv-x="604" unicode="Ġ"/><glyph d="M499 303H202V0h-87v504H29v67h86v109h87V571h297v109h87V571h87v-67h-87V0h-87zM202 504V385h297v119z" glyph-name="Hbar" horiz-adv-x="703" unicode="Ħ"/><glyph d="M577 0h-87v303H193V0h-87v680h87V385h297v295h87zM475 764h-69l-67 95-67-95h-65l93 161h82z" glyph-name="Hcircumflex" horiz-adv-x="683" unicode="Ĥ"/><glyph d="M193 680V0h-87v680zm91 214l-97-130h-71l90 166z" glyph-name="Iacute" horiz-adv-x="300" unicode="Í"/><glyph d="M193 680V0h-87v680zm91 84h-69l-67 95-67-95H16l93 161h82z" glyph-name="Icircumflex" horiz-adv-x="300" unicode="Î"/><glyph d="M193 680V0h-87v680zM97 890v-86H11v86zm191 0v-86h-86v86z" glyph-name="Idieresis" horiz-adv-x="300" unicode="Ï"/><glyph d="M193 680V0h-87v680zm-7 84h-71L17 894l79 36z" glyph-name="Igrave" horiz-adv-x="300" unicode="Ì"/><glyph d="M193 680V0h-87v680zm-42 153q32 0 47 20t18 63h66q-5-72-38.5-109T151 770q-60 0-93 37T20 916h65q3-43 18.5-63t47.5-20z" glyph-name="Ibreve" horiz-adv-x="300" unicode="Ĭ"/><glyph d="M193 680V0h-87v680zm3 213v-92h-92v92z" glyph-name="Idotaccent" horiz-adv-x="300" unicode="İ"/><glyph d="M193 680V0h-87v680zM7 857h286v-63H7z" glyph-name="Imacron" horiz-adv-x="300" unicode="Ī"/><glyph d="M202-143l15-63q-21-9-40-13t-38-4q-47 0-74.5 23.5T37-136q0 30 17 62.5T106-4v684h87V0q-42-41-61.5-70T112-122q0-16 9.5-24.5T149-155q12 0 25.5 3t27.5 9z" glyph-name="Iogonek" horiz-adv-x="300" unicode="Į"/><glyph d="M193 680V0h-87v680zm18 93q-21 0-38.5 10T131 824q-15 20-23 25.5T92 855q-13 0-18.5-17T68 785H5q1 68 22.5 103T90 923q21 0 38.5-10.5T170 871q15-19 23-25t16-6q13 0 18.5 17t6.5 53h63q-1-69-22.5-103T211 773z" glyph-name="Itilde" horiz-adv-x="300" unicode="Ĩ"/><glyph d="M27-7v83q84 0 120 34.5T183 224v456h87V224q0-120-59-175.5T27-7zm333 771h-69l-67 95-67-95H92l93 161h82z" glyph-name="Jcircumflex" horiz-adv-x="363" unicode="Ĵ"/><glyph d="M193 680V0h-87v680zM327-7v83q84 0 120 34.5T483 224v456h87V224q0-120-59-175.5T327-7z" glyph-name="IJ" horiz-adv-x="663" unicode="Ĳ"/><glyph d="M583 0H477L283 321q-19-20-41-42.5T193 230V0h-87v680h87V327q90 91 154 176.5T457 680h94q-44-86-92-157.5T347 378zM369-77l-70-171-50 14 31 157z" glyph-name="Kcommaaccent" horiz-adv-x="596" unicode="Ķ"/><glyph d="M573 501l72 184 50-14-33-170zM583 0H477L283 321q-19-20-41-42.5T193 230V0h-87v680h87V327q90 91 154 176.5T457 680h94q-44-86-92-157.5T347 378z" glyph-name="kgreenlandic.case" horiz-adv-x="635"/><glyph d="M193 81h285V0H106v680h87zm95 813l-97-130h-71l90 166z" glyph-name="Lacute" horiz-adv-x="506" unicode="Ĺ"/><glyph d="M193 81h285V0H106v680h87zm169 599l-29-194h-55v194z" glyph-name="Lcaron" horiz-adv-x="506" unicode="Ľ"/><glyph d="M193 81h285V0H106v680h87zM338-77l-70-171-50 14 31 157z" glyph-name="Lcommaaccent" horiz-adv-x="506" unicode="Ļ"/><glyph d="M193 81h285V0H106v680h87zm255 349v-92h-92v92z" glyph-name="Ldot" horiz-adv-x="506" unicode="Ŀ"/><glyph d="M191 0h-85v680h91q91-130 167.5-262T508 144l-10 260v276h85V0h-91q-87 181-160 312T185 555l6-277zm214 773q-21 0-38.5 10T325 824q-15 20-23 25.5t-16 5.5q-13 0-18.5-17t-5.5-53h-63q1 68 22.5 103t62.5 35q21 0 38.5-10.5T364 871q15-19 23-25t16-6q13 0 18.5 17t6.5 53h63q-1-69-22.5-103T405 773z" glyph-name="Ntilde" horiz-adv-x="690" unicode="Ñ"/><glyph d="M191 0h-85v680h91q91-130 167.5-262T508 144l-10 260v276h85V0h-91q-87 181-160 312T185 555l6-277zm287 894l-97-130h-71l90 166z" glyph-name="Nacute" horiz-adv-x="690" unicode="Ń"/><glyph d="M191 0h-85v680h91q91-130 167.5-262T508 144l-10 260v276h85V0h-91q-87 181-160 312T185 555l6-277zm222 925h65l-93-161h-82l-93 161h69l67-95z" glyph-name="Ncaron" horiz-adv-x="690" unicode="Ň"/><glyph d="M191 0h-85v680h91q91-130 167.5-262T508 144l-10 260v276h85V0h-91q-87 181-160 312T185 555l6-277zm198-77l-70-171-50 14 31 157z" glyph-name="Ncommaaccent" horiz-adv-x="690" unicode="Ņ"/><glyph d="M498 404v276h85V8q0-120-59-175.5T340-223v84q83 0 119 31.5T498-3q-75 155-153 294.5T185 554l6-276V0h-85v680h91q92-131 168.5-260.5T508 154z" glyph-name="Eng" horiz-adv-x="690" unicode="Ŋ"/><glyph d="M274 0h-85v680h91q91-130 167.5-262T591 144l-10 260v276h85V0h-91q-87 181-160 312T268 555l6-277zM17 680h82v-19q0-60-17.5-116.5T25 420l-55 27q28 61 37.5 108T17 680z" glyph-name="napostrophe.case" horiz-adv-x="773"/><glyph d="M323 690q116 0 181-73t65-202V266q0-130-65-203T323-10q-116 0-181 73T77 266v149q0 129 65 202t181 73zm156-424v149q0 95-40 144.5T323 609q-76 0-116-50t-40-144V266q0-95 40-145.5T323 70q76 0 116 50.5T479 266zm-23 628l-97-130h-71l90 166z" glyph-name="Oacute" horiz-adv-x="647" unicode="Ó"/><glyph d="M323 690q116 0 181-73t65-202V266q0-130-65-203T323-10q-116 0-181 73T77 266v149q0 129 65 202t181 73zm156-424v149q0 95-40 144.5T323 609q-76 0-116-50t-40-144V266q0-95 40-145.5T323 70q76 0 116 50.5T479 266zm-23 498h-69l-67 95-67-95h-65l93 161h82z" glyph-name="Ocircumflex" horiz-adv-x="647" unicode="Ô"/><glyph d="M323 690q116 0 181-73t65-202V266q0-130-65-203T323-10q-116 0-181 73T77 266v149q0 129 65 202t181 73zm156-424v149q0 95-40 144.5T323 609q-76 0-116-50t-40-144V266q0-95 40-145.5T323 70q76 0 116 50.5T479 266zM270 890v-86h-86v86zm191 0v-86h-86v86z" glyph-name="Odieresis" horiz-adv-x="647" unicode="Ö"/><glyph d="M323 690q116 0 181-73t65-202V266q0-130-65-203T323-10q-116 0-181 73T77 266v149q0 129 65 202t181 73zm156-424v149q0 95-40 144.5T323 609q-76 0-116-50t-40-144V266q0-95 40-145.5T323 70q76 0 116 50.5T479 266zM358 764h-71l-98 130 79 36z" glyph-name="Ograve" horiz-adv-x="647" unicode="Ò"/><glyph d="M323 690q116 0 181-73t65-202V266q0-130-65-203T323-10q-116 0-181 73T77 266v149q0 129 65 202t181 73zm156-424v149q0 95-40 144.5T323 609q-76 0-116-50t-40-144V266q0-95 40-145.5T323 70q76 0 116 50.5T479 266zm-96 507q-21 0-38.5 10T303 824q-15 20-23 25.5t-16 5.5q-13 0-18.5-17t-5.5-53h-63q1 68 22.5 103t62.5 35q21 0 38.5-10.5T342 871q15-19 23-25t16-6q13 0 18.5 17t6.5 53h63q-1-69-22.5-103T383 773z" glyph-name="Otilde" horiz-adv-x="647" unicode="Õ"/><glyph d="M323 690q116 0 181-73t65-202V266q0-130-65-203T323-10q-116 0-181 73T77 266v149q0 129 65 202t181 73zm156-424v149q0 95-40 144.5T323 609q-76 0-116-50t-40-144V266q0-95 40-145.5T323 70q76 0 116 50.5T479 266zM323 833q32 0 47 20t18 63h66q-5-72-38.5-109T323 770q-60 0-93 37t-38 109h65q3-43 18.5-63t47.5-20z" glyph-name="Obreve" horiz-adv-x="647" unicode="Ŏ"/><glyph d="M323 690q116 0 181-73t65-202V266q0-130-65-203T323-10q-116 0-181 73T77 266v149q0 129 65 202t181 73zm156-424v149q0 95-40 144.5T323 609q-76 0-116-50t-40-144V266q0-95 40-145.5T323 70q76 0 116 50.5T479 266zM370 894l-82-130h-67l82 166zm138 0l-82-130h-67l82 166z" glyph-name="Ohungarumlaut" horiz-adv-x="647" unicode="Ő"/><glyph d="M323 690q116 0 181-73t65-202V266q0-130-65-203T323-10q-116 0-181 73T77 266v149q0 129 65 202t181 73zm156-424v149q0 95-40 144.5T323 609q-76 0-116-50t-40-144V266q0-95 40-145.5T323 70q76 0 116 50.5T479 266zM180 857h286v-63H180z" glyph-name="Omacron" horiz-adv-x="647" unicode="Ō"/><glyph d="M329 266H193V0h-87v680h213q94 0 147.5-49.5T520 495v-43q0-60-27.5-104T414 283q41-66 78-137T562 0H462q-28 68-61.5 134.5T329 266zm-10 334H193V346h126q51 0 81 28.5t30 77.5v43q0 49-29.5 77T319 600zm115 294l-97-130h-71l90 166z" glyph-name="Racute" horiz-adv-x="601" unicode="Ŕ"/><glyph d="M329 266H193V0h-87v680h213q94 0 147.5-49.5T520 495v-43q0-60-27.5-104T414 283q41-66 78-137T562 0H462q-28 68-61.5 134.5T329 266zm-10 334H193V346h126q51 0 81 28.5t30 77.5v43q0 49-29.5 77T319 600zm50 325h65l-93-161h-82l-93 161h69l67-95z" glyph-name="Rcaron" horiz-adv-x="601" unicode="Ř"/><glyph d="M329 266H193V0h-87v680h213q94 0 147.5-49.5T520 495v-43q0-60-27.5-104T414 283q41-66 78-137T562 0H462q-28 68-61.5 134.5T329 266zm-10 334H193V346h126q51 0 81 28.5t30 77.5v43q0 49-29.5 77T319 600zm49-677l-70-171-50 14 31 157z" glyph-name="Rcommaaccent" horiz-adv-x="601" unicode="Ŗ"/><glyph d="M245 68q64 0 97.5 27.5T376 176q0 46-24.5 75.5T276 296l-81 24q-74 22-111 68T47 504q0 89 53 137.5T253 690q46 0 94-11t96-33l-28-75q-47 21-85.5 30.5T255 611q-61 0-90.5-25T135 510q0-42 23-68t73-41l81-24q76-23 114-71t38-123q0-94-56-143.5T245-10q-51 0-103.5 12T37 38l27 74q52-23 94-33.5T245 68zm81 857h65l-93-161h-82l-93 161h69l67-95z" glyph-name="Scaron" horiz-adv-x="506" unicode="Š"/><glyph d="M245 68q64 0 97.5 27.5T376 176q0 46-24.5 75.5T276 296l-81 24q-74 22-111 68T47 504q0 89 53 137.5T253 690q46 0 94-11t96-33l-28-75q-47 21-85.5 30.5T255 611q-61 0-90.5-25T135 510q0-42 23-68t73-41l81-24q76-23 114-71t38-123q0-94-56-143.5T245-10q-51 0-103.5 12T37 38l27 74q52-23 94-33.5T245 68zm146 826l-97-130h-71l90 166z" glyph-name="Sacute" horiz-adv-x="506" unicode="Ś"/><glyph d="M349-132q0-42-30.5-66.5T236-223q-19 0-38.5 3.5T157-208l11 56q16-6 34-9t33-3q23 0 35 8t12 23q0 15-12 22.5t-36 7.5q-4 0-8-.5t-15-1.5l-24 38 11 60q-41 4-81 15.5T37 38l27 74q52-23 94-33.5T245 68q64 0 97.5 27.5T376 176q0 46-24.5 75.5T276 296l-81 24q-74 22-111 68T47 504q0 89 53 137.5T253 690q46 0 94-11t96-33l-28-75q-47 21-85.5 30.5T255 611q-61 0-90.5-25T135 510q0-42 23-68t73-41l81-24q76-23 114-71t38-123q0-91-53-140.5T257-10l-7-40q47 0 73-21.5t26-60.5z" glyph-name="Scedilla" horiz-adv-x="506" unicode="Ş"/><glyph d="M245 68q64 0 97.5 27.5T376 176q0 46-24.5 75.5T276 296l-81 24q-74 22-111 68T47 504q0 89 53 137.5T253 690q46 0 94-11t96-33l-28-75q-47 21-85.5 30.5T255 611q-61 0-90.5-25T135 510q0-42 23-68t73-41l81-24q76-23 114-71t38-123q0-94-56-143.5T245-10q-51 0-103.5 12T37 38l27 74q52-23 94-33.5T245 68zm146 696h-69l-67 95-67-95h-65l93 161h82z" glyph-name="Scircumflex" horiz-adv-x="506" unicode="Ŝ"/><glyph d="M245 68q64 0 97.5 27.5T376 176q0 46-24.5 75.5T276 296l-81 24q-74 22-111 68T47 504q0 89 53 137.5T253 690q46 0 94-11t96-33l-28-75q-47 21-85.5 30.5T255 611q-61 0-90.5-25T135 510q0-42 23-68t73-41l81-24q76-23 114-71t38-123q0-94-56-143.5T245-10q-51 0-103.5 12T37 38l27 74q52-23 94-33.5T245 68zm47-145l-70-171-50 14 31 157z" glyph-name="uni0218" horiz-adv-x="506" unicode="Ș"/><glyph d="M427 365v-67H298V0h-87v298H82v67h129v233H13v82h483v-82H298V365z" glyph-name="Tbar" horiz-adv-x="509" unicode="Ŧ"/><glyph d="M211 598H13v82h483v-82H298V0h-87zm112 327h65l-93-161h-82l-93 161h69l67-95z" glyph-name="Tcaron" horiz-adv-x="509" unicode="Ť"/><glyph d="M211 598H13v82h483v-82H298V0h-87zm88-675l-70-171-50 14 31 157z" glyph-name="uni0162" horiz-adv-x="509" unicode="Ţ"/><glyph d="M211 598H13v82h483v-82H298V0h-87zm88-675l-70-171-50 14 31 157z" glyph-name="uni021A" horiz-adv-x="509" unicode="Ț"/><glyph d="M92 244v436h90V244q0-86 36-130t106-44q71 0 106.5 44T466 244v436h90V244q0-123-59.5-188.5T324-10q-113 0-172.5 65T92 244zm365 650l-97-130h-71l90 166z" glyph-name="Uacute" horiz-adv-x="648" unicode="Ú"/><glyph d="M92 244v436h90V244q0-86 36-130t106-44q71 0 106.5 44T466 244v436h90V244q0-123-59.5-188.5T324-10q-113 0-172.5 65T92 244zm365 520h-69l-67 95-67-95h-65l93 161h82z" glyph-name="Ucircumflex" horiz-adv-x="648" unicode="Û"/><glyph d="M92 244v436h90V244q0-86 36-130t106-44q71 0 106.5 44T466 244v436h90V244q0-123-59.5-188.5T324-10q-113 0-172.5 65T92 244zm178 646v-86h-86v86zm191 0v-86h-86v86z" glyph-name="Udieresis" horiz-adv-x="648" unicode="Ü"/><glyph d="M92 244v436h90V244q0-86 36-130t106-44q71 0 106.5 44T466 244v436h90V244q0-123-59.5-188.5T324-10q-113 0-172.5 65T92 244zm267 520h-71l-98 130 79 36z" glyph-name="Ugrave" horiz-adv-x="648" unicode="Ù"/><glyph d="M92 244v436h90V244q0-86 36-130t106-44q71 0 106.5 44T466 244v436h90V244q0-123-59.5-188.5T324-10q-113 0-172.5 65T92 244zm232 589q32 0 47 20t18 63h66q-5-72-38.5-109T324 770q-60 0-93 37t-38 109h65q3-43 18.5-63t47.5-20z" glyph-name="Ubreve" horiz-adv-x="648" unicode="Ŭ"/><glyph d="M92 244v436h90V244q0-86 36-130t106-44q71 0 106.5 44T466 244v436h90V244q0-123-59.5-188.5T324-10q-113 0-172.5 65T92 244zm279 650l-82-130h-67l82 166zm138 0l-82-130h-67l82 166z" glyph-name="Uhungarumlaut" horiz-adv-x="648" unicode="Ű"/><glyph d="M92 244v436h90V244q0-86 36-130t106-44q71 0 106.5 44T466 244v436h90V244q0-123-59.5-188.5T324-10q-113 0-172.5 65T92 244zm88 613h286v-63H180z" glyph-name="Umacron" horiz-adv-x="648" unicode="Ū"/><glyph d="M441-143l15-63q-21-9-40-13t-38-4q-47 0-74.5 23.5T276-136q0 29 16 59t52 68q-3-1-7-1h-13q-113 0-172.5 65T92 244v436h90V244q0-86 36-130t106-44q71 0 106.5 44T466 244v436h90V244q0-67-17.5-116T486 46Q410-25 380.5-61.5T351-123q0-16 9.5-24t27.5-8q12 0 25.5 3t27.5 9z" glyph-name="Uogonek" horiz-adv-x="648" unicode="Ų"/><glyph d="M92 244v436h90V244q0-86 36-130t106-44q71 0 106.5 44T466 244v436h90V244q0-123-59.5-188.5T324-10q-113 0-172.5 65T92 244zm232 732q51 0 82.5-30t31.5-78v-11q0-49-31.5-79T324 748q-52 0-83 30t-31 79v11q0 49 31 78.5t83 29.5zm54-119v11q0 24-15 38.5T324 921q-25 0-40-14.5T269 868v-11q0-25 15-39.5t40-14.5q24 0 39 15t15 39z" glyph-name="Uring" horiz-adv-x="648" unicode="Ů"/><glyph d="M92 244v436h90V244q0-86 36-130t106-44q71 0 106.5 44T466 244v436h90V244q0-123-59.5-188.5T324-10q-113 0-172.5 65T92 244zm292 529q-21 0-38.5 10T304 824q-15 20-23 25.5t-16 5.5q-13 0-18.5-17t-5.5-53h-63q1 68 22.5 103t62.5 35q21 0 38.5-10.5T343 871q15-19 23-25t16-6q13 0 18.5 17t6.5 53h63q-1-69-22.5-103T384 773z" glyph-name="Utilde" horiz-adv-x="648" unicode="Ũ"/><glyph d="M127 680l59-288 48-275 157 563h81l157-560 50 272 59 288h86L674 0h-88L430 556 274 0h-89L36 680zm436 214l-97-130h-71l90 166z" glyph-name="Wacute" horiz-adv-x="860" unicode="Ẃ"/><glyph d="M127 680l59-288 48-275 157 563h81l157-560 50 272 59 288h86L674 0h-88L430 556 274 0h-89L36 680zm436 84h-69l-67 95-67-95h-65l93 161h82z" glyph-name="Wcircumflex" horiz-adv-x="860" unicode="Ŵ"/><glyph d="M127 680l59-288 48-275 157 563h81l157-560 50 272 59 288h86L674 0h-88L430 556 274 0h-89L36 680zm249 210v-86h-86v86zm191 0v-86h-86v86z" glyph-name="Wdieresis" horiz-adv-x="860" unicode="Ẅ"/><glyph d="M127 680l59-288 48-275 157 563h81l157-560 50 272 59 288h86L674 0h-88L430 556 274 0h-89L36 680zm338 84h-71l-98 130 79 36z" glyph-name="Wgrave" horiz-adv-x="860" unicode="Ẁ"/><glyph d="M424 680h90L306 272V0h-87v272L10 680h94l163-322zm-29 214l-97-130h-71l90 166z" glyph-name="Yacute" horiz-adv-x="524" unicode="Ý"/><glyph d="M424 680h90L306 272V0h-87v272L10 680h94l163-322zM208 890v-86h-86v86zm191 0v-86h-86v86z" glyph-name="Ydieresis" horiz-adv-x="524" unicode="Ÿ"/><glyph d="M424 680h90L306 272V0h-87v272L10 680h94l163-322zm-29 84h-69l-67 95-67-95h-65l93 161h82z" glyph-name="Ycircumflex" horiz-adv-x="524" unicode="Ŷ"/><glyph d="M424 680h90L306 272V0h-87v272L10 680h94l163-322zm-127 84h-71l-98 130 79 36z" glyph-name="Ygrave" horiz-adv-x="524" unicode="Ỳ"/><glyph d="M144 81h326V0H41v70l315 528H51v82h409v-71zm179 844h65l-93-161h-82l-93 161h69l67-95z" glyph-name="Zcaron" horiz-adv-x="508" unicode="Ž"/><glyph d="M144 81h326V0H41v70l315 528H51v82h409v-71zm244 813l-97-130h-71l90 166z" glyph-name="Zacute" horiz-adv-x="508" unicode="Ź"/><glyph d="M144 81h326V0H41v70l315 528H51v82h409v-71zm156 812v-92h-92v92z" glyph-name="Zdotaccent" horiz-adv-x="508" unicode="Ż"/><glyph d="M465-5h-15q-42 0-71 19t-41 54q-45-41-85.5-59.5T169-10q-60 0-93.5 38.5T42 135q0 71 41 106.5T205 277q24 0 55-3t69-9v67q0 51-22 74t-74 23q-32 0-67.5-8.5T90 394l-26 68q48 22 90 32.5t83 10.5q87 0 129.5-40.5T409 338V124q0-28 11-41t34-13h11zM209 212q-44 0-65-18.5T123 136q0-36 16.5-56T185 60q32 0 67 19t77 59v63q-32 5-63.5 8t-56.5 3zm155 497l-97-130h-71l90 166z" glyph-name="aacute" horiz-adv-x="493" unicode="á"/><glyph d="M465-5h-15q-42 0-71 19t-41 54q-45-41-85.5-59.5T169-10q-60 0-93.5 38.5T42 135q0 71 41 106.5T205 277q24 0 55-3t69-9v67q0 51-22 74t-74 23q-32 0-67.5-8.5T90 394l-26 68q48 22 90 32.5t83 10.5q87 0 129.5-40.5T409 338V124q0-28 11-41t34-13h11zM209 212q-44 0-65-18.5T123 136q0-36 16.5-56T185 60q32 0 67 19t77 59v63q-32 5-63.5 8t-56.5 3zm155 367h-69l-67 95-67-95H96l93 161h82z" glyph-name="acircumflex" horiz-adv-x="493" unicode="â"/><glyph d="M465-5h-15q-42 0-71 19t-41 54q-45-41-85.5-59.5T169-10q-60 0-93.5 38.5T42 135q0 71 41 106.5T205 277q24 0 55-3t69-9v67q0 51-22 74t-74 23q-32 0-67.5-8.5T90 394l-26 68q48 22 90 32.5t83 10.5q87 0 129.5-40.5T409 338V124q0-28 11-41t34-13h11zM209 212q-44 0-65-18.5T123 136q0-36 16.5-56T185 60q32 0 67 19t77 59v63q-32 5-63.5 8t-56.5 3zm-32 493v-86H91v86zm191 0v-86h-86v86z" glyph-name="adieresis" horiz-adv-x="493" unicode="ä"/><glyph d="M465-5h-15q-42 0-71 19t-41 54q-45-41-85.5-59.5T169-10q-60 0-93.5 38.5T42 135q0 71 41 106.5T205 277q24 0 55-3t69-9v67q0 51-22 74t-74 23q-32 0-67.5-8.5T90 394l-26 68q48 22 90 32.5t83 10.5q87 0 129.5-40.5T409 338V124q0-28 11-41t34-13h11zM209 212q-44 0-65-18.5T123 136q0-36 16.5-56T185 60q32 0 67 19t77 59v63q-32 5-63.5 8t-56.5 3zm57 367h-71L97 709l79 36z" glyph-name="agrave" horiz-adv-x="493" unicode="à"/><glyph d="M465-5h-15q-42 0-71 19t-41 54q-45-41-85.5-59.5T169-10q-60 0-93.5 38.5T42 135q0 71 41 106.5T205 277q24 0 55-3t69-9v67q0 51-22 74t-74 23q-32 0-67.5-8.5T90 394l-26 68q48 22 90 32.5t83 10.5q87 0 129.5-40.5T409 338V124q0-28 11-41t34-13h11zM209 212q-44 0-65-18.5T123 136q0-36 16.5-56T185 60q32 0 67 19t77 59v63q-32 5-63.5 8t-56.5 3zm22 579q51 0 82.5-30t31.5-78v-11q0-49-31.5-79T231 563q-52 0-83 30t-31 79v11q0 49 31 78.5t83 29.5zm54-119v11q0 24-15 38.5T231 736q-25 0-40-14.5T176 683v-11q0-25 15-39.5t40-14.5q24 0 39 15t15 39z" glyph-name="aring" horiz-adv-x="493" unicode="å"/><glyph d="M465-5h-15q-42 0-71 19t-41 54q-45-41-85.5-59.5T169-10q-60 0-93.5 38.5T42 135q0 71 41 106.5T205 277q24 0 55-3t69-9v67q0 51-22 74t-74 23q-32 0-67.5-8.5T90 394l-26 68q48 22 90 32.5t83 10.5q87 0 129.5-40.5T409 338V124q0-28 11-41t34-13h11zM209 212q-44 0-65-18.5T123 136q0-36 16.5-56T185 60q32 0 67 19t77 59v63q-32 5-63.5 8t-56.5 3zm82 376q-21 0-38.5 10T211 639q-15 20-23 25.5t-16 5.5q-13 0-18.5-17t-5.5-53H85q1 68 22.5 103t62.5 35q21 0 38.5-10.5T250 686q15-19 23-25t16-6q13 0 18.5 17t6.5 53h63q-1-69-22.5-103T291 588z" glyph-name="atilde" horiz-adv-x="493" unicode="ã"/><glyph d="M465-5h-15q-42 0-71 19t-41 54q-45-41-85.5-59.5T169-10q-60 0-93.5 38.5T42 135q0 71 41 106.5T205 277q24 0 55-3t69-9v67q0 51-22 74t-74 23q-32 0-67.5-8.5T90 394l-26 68q48 22 90 32.5t83 10.5q87 0 129.5-40.5T409 338V124q0-28 11-41t34-13h11zM209 212q-44 0-65-18.5T123 136q0-36 16.5-56T185 60q32 0 67 19t77 59v63q-32 5-63.5 8t-56.5 3zm22 436q32 0 47 20t18 63h66q-5-72-38.5-109T231 585q-60 0-93 37t-38 109h65q3-43 18.5-63t47.5-20z" glyph-name="abreve" horiz-adv-x="493" unicode="ă"/><glyph d="M465-5h-15q-42 0-71 19t-41 54q-45-41-85.5-59.5T169-10q-60 0-93.5 38.5T42 135q0 71 41 106.5T205 277q24 0 55-3t69-9v67q0 51-22 74t-74 23q-32 0-67.5-8.5T90 394l-26 68q48 22 90 32.5t83 10.5q87 0 129.5-40.5T409 338V124q0-28 11-41t34-13h11zM209 212q-44 0-65-18.5T123 136q0-36 16.5-56T185 60q32 0 67 19t77 59v63q-32 5-63.5 8t-56.5 3zM87 672h286v-63H87z" glyph-name="amacron" horiz-adv-x="493" unicode="ā"/><glyph d="M450-143l15-63q-21-9-40-13t-38-4q-47 0-74.5 23.5T285-136q0 36 25 70.5T389 8q-18 9-31 24.5T338 68q-45-41-85.5-59.5T169-10q-60 0-93.5 38.5T42 135q0 71 41 106.5T205 277q24 0 55-3t69-9v67q0 51-22 74t-74 23q-32 0-67.5-8.5T90 394l-26 68q48 22 90 32.5t83 10.5q87 0 129.5-40.5T409 338V124q0-28 11-41t34-13h11V-5q-56-40-80.5-67T360-123q0-16 9.5-24t27.5-8q12 0 25.5 3t27.5 9zM209 212q-44 0-65-18.5T123 136q0-36 16.5-56T185 60q32 0 67 19t77 59v63q-32 5-63.5 8t-56.5 3z" glyph-name="aogonek" horiz-adv-x="493" unicode="ą"/><glyph d="M359-132q0-42-30.5-66.5T246-223q-19 0-38.5 3.5T167-208l11 56q16-6 34-9t33-3q23 0 35 8t12 23q0 15-12 22.5t-36 7.5q-4 0-8-.5t-15-1.5l-24 38 11 62Q137 10 99.5 67.5T62 218v59q0 109 51 168.5T258 505q35 0 73.5-9t78.5-27l-25-70q-35 15-65.5 22.5T263 429q-60 0-88.5-37T146 277v-59q0-78 28.5-115.5T263 65q30 0 62 8t67 23l25-69q-36-17-74-26t-76-11l-7-40q47 0 73-21.5t26-60.5z" glyph-name="ccedilla" horiz-adv-x="449" unicode="ç"/><glyph d="M263 429q-60 0-88.5-37T146 277v-59q0-78 28.5-115.5T263 65q30 0 62 8t67 23l25-69Q377 9 336.5-.5T258-10q-94 0-145 59.5T62 218v59q0 109 51 168.5T258 505q35 0 73.5-9t78.5-27l-25-70q-35 15-65.5 22.5T263 429zm128 280l-97-130h-71l90 166z" glyph-name="cacute" horiz-adv-x="449" unicode="ć"/><glyph d="M263 429q-60 0-88.5-37T146 277v-59q0-78 28.5-115.5T263 65q30 0 62 8t67 23l25-69Q377 9 336.5-.5T258-10q-94 0-145 59.5T62 218v59q0 109 51 168.5T258 505q35 0 73.5-9t78.5-27l-25-70q-35 15-65.5 22.5T263 429zm64 311h65l-93-161h-82l-93 161h69l67-95z" glyph-name="ccaron" horiz-adv-x="449" unicode="č"/><glyph d="M263 429q-60 0-88.5-37T146 277v-59q0-78 28.5-115.5T263 65q30 0 62 8t67 23l25-69Q377 9 336.5-.5T258-10q-94 0-145 59.5T62 218v59q0 109 51 168.5T258 505q35 0 73.5-9t78.5-27l-25-70q-35 15-65.5 22.5T263 429zm129 150h-69l-67 95-67-95h-65l93 161h82z" glyph-name="ccircumflex" horiz-adv-x="449" unicode="ĉ"/><glyph d="M263 429q-60 0-88.5-37T146 277v-59q0-78 28.5-115.5T263 65q30 0 62 8t67 23l25-69Q377 9 336.5-.5T258-10q-94 0-145 59.5T62 218v59q0 109 51 168.5T258 505q35 0 73.5-9t78.5-27l-25-70q-35 15-65.5 22.5T263 429zm41 279v-92h-92v92z" glyph-name="cdotaccent" horiz-adv-x="449" unicode="ċ"/><glyph d="M467 0h-78v69q-43-42-81-60.5T228-10q-78 0-121 59.5T64 218v58q0 108 54 168.5T269 505q26 0 54.5-5.5T385 482v258h82zM149 276v-58q0-77 24-114t74-37q34 0 65 17.5t73 57.5v264q-28 12-54.5 18t-54.5 6q-64 0-95.5-38T149 276zm485 464l-29-194h-55v194z" glyph-name="dcaron" horiz-adv-x="618" unicode="ď"/><glyph d="M467 0h-78v69q-43-42-81-60.5T228-10q-78 0-121 59.5T64 218v58q0 108 54 168.5T269 505q26 0 54.5-5.5T385 482v104H231v62h154v92h82v-92h87v-62h-87zM149 276v-58q0-77 24-114t74-37q34 0 65 17.5t73 57.5v264q-28 12-54.5 18t-54.5 6q-64 0-95.5-38T149 276z" glyph-name="dcroat" horiz-adv-x="556" unicode="đ"/><glyph d="M422 97l25-68q-39-19-84-29t-89-10q-103 0-157.5 58.5T62 218v60q0 105 53.5 166T263 505q85 0 136-50.5T450 316q0-21-3-45t-9-51H143v-2q0-79 32.5-116.5T276 64q35 0 73.5 8.5T422 97zm-52 227q0 51-29 80t-78 29q-56 0-86.5-36.5T143 290h224q1 9 2 17.5t1 16.5zm26 385l-97-130h-71l90 166z" glyph-name="eacute" horiz-adv-x="504" unicode="é"/><glyph d="M422 97l25-68q-39-19-84-29t-89-10q-103 0-157.5 58.5T62 218v60q0 105 53.5 166T263 505q85 0 136-50.5T450 316q0-21-3-45t-9-51H143v-2q0-79 32.5-116.5T276 64q35 0 73.5 8.5T422 97zm-52 227q0 51-29 80t-78 29q-56 0-86.5-36.5T143 290h224q1 9 2 17.5t1 16.5zm26 255h-69l-67 95-67-95h-65l93 161h82z" glyph-name="ecircumflex" horiz-adv-x="504" unicode="ê"/><glyph d="M422 97l25-68q-39-19-84-29t-89-10q-103 0-157.5 58.5T62 218v60q0 105 53.5 166T263 505q85 0 136-50.5T450 316q0-21-3-45t-9-51H143v-2q0-79 32.5-116.5T276 64q35 0 73.5 8.5T422 97zm-52 227q0 51-29 80t-78 29q-56 0-86.5-36.5T143 290h224q1 9 2 17.5t1 16.5zM210 705v-86h-86v86zm191 0v-86h-86v86z" glyph-name="edieresis" horiz-adv-x="504" unicode="ë"/><glyph d="M422 97l25-68q-39-19-84-29t-89-10q-103 0-157.5 58.5T62 218v60q0 105 53.5 166T263 505q85 0 136-50.5T450 316q0-21-3-45t-9-51H143v-2q0-79 32.5-116.5T276 64q35 0 73.5 8.5T422 97zm-52 227q0 51-29 80t-78 29q-56 0-86.5-36.5T143 290h224q1 9 2 17.5t1 16.5zm-72 255h-71l-98 130 79 36z" glyph-name="egrave" horiz-adv-x="504" unicode="è"/><glyph d="M422 97l25-68q-39-19-84-29t-89-10q-103 0-157.5 58.5T62 218v60q0 105 53.5 166T263 505q85 0 136-50.5T450 316q0-21-3-45t-9-51H143v-2q0-79 32.5-116.5T276 64q35 0 73.5 8.5T422 97zm-52 227q0 51-29 80t-78 29q-56 0-86.5-36.5T143 290h224q1 9 2 17.5t1 16.5zM263 648q32 0 47 20t18 63h66q-5-72-38.5-109T263 585q-60 0-93 37t-38 109h65q3-43 18.5-63t47.5-20z" glyph-name="ebreve" horiz-adv-x="504" unicode="ĕ"/><glyph d="M422 97l25-68q-39-19-84-29t-89-10q-103 0-157.5 58.5T62 218v60q0 105 53.5 166T263 505q85 0 136-50.5T450 316q0-21-3-45t-9-51H143v-2q0-79 32.5-116.5T276 64q35 0 73.5 8.5T422 97zm-52 227q0 51-29 80t-78 29q-56 0-86.5-36.5T143 290h224q1 9 2 17.5t1 16.5zm-39 416h65l-93-161h-82l-93 161h69l67-95z" glyph-name="ecaron" horiz-adv-x="504" unicode="ě"/><glyph d="M422 97l25-68q-39-19-84-29t-89-10q-103 0-157.5 58.5T62 218v60q0 105 53.5 166T263 505q85 0 136-50.5T450 316q0-21-3-45t-9-51H143v-2q0-79 32.5-116.5T276 64q35 0 73.5 8.5T422 97zm-52 227q0 51-29 80t-78 29q-56 0-86.5-36.5T143 290h224q1 9 2 17.5t1 16.5zm-61 384v-92h-92v92z" glyph-name="edotaccent" horiz-adv-x="504" unicode="ė"/><glyph d="M422 97l25-68q-39-19-84-29t-89-10q-103 0-157.5 58.5T62 218v60q0 105 53.5 166T263 505q85 0 136-50.5T450 316q0-21-3-45t-9-51H143v-2q0-79 32.5-116.5T276 64q35 0 73.5 8.5T422 97zm-52 227q0 51-29 80t-78 29q-56 0-86.5-36.5T143 290h224q1 9 2 17.5t1 16.5zM120 672h286v-63H120z" glyph-name="emacron" horiz-adv-x="504" unicode="ē"/><glyph d="M430-143l15-63q-21-9-40.5-13t-38.5-4q-48 0-74.5 24T265-133q0 31 16 62.5T331-3q-14-3-30-5t-32-2q-100 0-153.5 59T62 218v60q0 105 53.5 166T263 505q85 0 136-50.5T450 316q0-21-3-44.5t-9-49.5H143v-4q0-79 32.5-116.5T276 64q35 0 73 8.5T422 97l25-68q-56-51-81.5-86.5T340-120q0-17 9.5-26t27.5-9q12 0 25.5 3t27.5 9zm-60 467q0 51-29 80t-78 29q-56 0-87-37t-33-107h224q2 10 2.5 18.5t.5 16.5z" glyph-name="eogonek" horiz-adv-x="504" unicode="ę"/><glyph d="M484-62q0-74-60-117.5T261-223q-57 0-112.5 15T46-164l28 64q45-26 91-38.5t96-12.5q67 0 104.5 21.5T403-70q0 28-19 42t-57 14H212q-57 0-90 27.5T89 85q0 25 11.5 50.5T135 187q-37 22-57 59.5T58 333q0 80 49.5 126T240 505h17q18 0 34-2.5t30-7.5h178v-73l-108 15q24-20 35.5-47t11.5-62q0-76-50-121.5T257 161h-17q-11 0-23 1t-26 4q-14-16-21.5-32t-7.5-31q0-20 14-30t42-10h112q73 0 113.5-32.5T484-62zM240 232h17q44 0 71.5 27.5T356 333q0 46-27.5 73.5T257 434h-17q-45 0-72.5-27.5T140 333q0-47 27.5-74t72.5-27zm8 416q32 0 47 20t18 63h66q-5-72-38.5-109T248 585q-60 0-93 37t-38 109h65q3-43 18.5-63t47.5-20z" glyph-name="gbreve" horiz-adv-x="520" unicode="ğ"/><glyph d="M484-62q0-74-60-117.5T261-223q-57 0-112.5 15T46-164l28 64q45-26 91-38.5t96-12.5q67 0 104.5 21.5T403-70q0 28-19 42t-57 14H212q-57 0-90 27.5T89 85q0 25 11.5 50.5T135 187q-37 22-57 59.5T58 333q0 80 49.5 126T240 505h17q18 0 34-2.5t30-7.5h178v-73l-108 15q24-20 35.5-47t11.5-62q0-76-50-121.5T257 161h-17q-11 0-23 1t-26 4q-14-16-21.5-32t-7.5-31q0-20 14-30t42-10h112q73 0 113.5-32.5T484-62zM240 232h17q44 0 71.5 27.5T356 333q0 46-27.5 73.5T257 434h-17q-45 0-72.5-27.5T140 333q0-47 27.5-74t72.5-27zm141 347h-69l-67 95-67-95h-65l93 161h82z" glyph-name="gcircumflex" horiz-adv-x="520" unicode="ĝ"/><glyph d="M484-62q0-74-60-117.5T261-223q-57 0-112.5 15T46-164l28 64q45-26 91-38.5t96-12.5q67 0 104.5 21.5T403-70q0 28-19 42t-57 14H212q-57 0-90 27.5T89 85q0 25 11.5 50.5T135 187q-37 22-57 59.5T58 333q0 80 49.5 126T240 505h17q18 0 34-2.5t30-7.5h178v-73l-108 15q24-20 35.5-47t11.5-62q0-76-50-121.5T257 161h-17q-11 0-23 1t-26 4q-14-16-21.5-32t-7.5-31q0-20 14-30t42-10h112q73 0 113.5-32.5T484-62zM240 232h17q44 0 71.5 27.5T356 333q0 46-27.5 73.5T257 434h-17q-45 0-72.5-27.5T140 333q0-47 27.5-74t72.5-27zm-37 347l70 171 50-14-31-157z" glyph-name="gcommaaccent" horiz-adv-x="520" unicode="ģ"/><glyph d="M484-62q0-74-60-117.5T261-223q-57 0-112.5 15T46-164l28 64q45-26 91-38.5t96-12.5q67 0 104.5 21.5T403-70q0 28-19 42t-57 14H212q-57 0-90 27.5T89 85q0 25 11.5 50.5T135 187q-37 22-57 59.5T58 333q0 80 49.5 126T240 505h17q18 0 34-2.5t30-7.5h178v-73l-108 15q24-20 35.5-47t11.5-62q0-76-50-121.5T257 161h-17q-11 0-23 1t-26 4q-14-16-21.5-32t-7.5-31q0-20 14-30t42-10h112q73 0 113.5-32.5T484-62zM240 232h17q44 0 71.5 27.5T356 333q0 46-27.5 73.5T257 434h-17q-45 0-72.5-27.5T140 333q0-47 27.5-74t72.5-27zm54 476v-92h-92v92z" glyph-name="gdotaccent" horiz-adv-x="520" unicode="ġ"/><glyph d="M326 428q-35 0-73-17.5T170 357V0H88v588H1v60h87v92h82v-92h155v-60H170V429q47 39 89 57.5t87 18.5q68 0 105-43.5T488 338V0h-82v326q0 52-19.5 77T326 428z" glyph-name="hbar" horiz-adv-x="571" unicode="ħ"/><glyph d="M326 428q-35 0-73-17.5T170 357V0H88v740h82V429q47 39 89 57.5t87 18.5q68 0 105-43.5T488 338V0h-82v326q0 52-19.5 77T326 428zm39 396h-69l-67 95-67-95H97l93 161h82z" glyph-name="hcircumflex" horiz-adv-x="571" unicode="ĥ"/><glyph d="M170 495V0H88v495zm93 214l-97-130H95l90 166z" glyph-name="iacute" horiz-adv-x="259" unicode="í"/><glyph d="M170 495V0H88v495zm94 84h-69l-67 95-67-95H-4l93 161h82z" glyph-name="icircumflex" horiz-adv-x="259" unicode="î"/><glyph d="M170 495V0H88v495zM77 705v-86H-9v86zm191 0v-86h-86v86z" glyph-name="idieresis" horiz-adv-x="259" unicode="ï"/><glyph d="M170 495V0H88v495zm-5 84H94L-4 709l79 36z" glyph-name="igrave" horiz-adv-x="259" unicode="ì"/><glyph d="M170 495V0H88v495zm-40 153q32 0 47 20t18 63h66q-5-72-38.5-109T130 585q-60 0-93 37T-1 731h65q3-43 18.5-63t47.5-20z" glyph-name="ibreve" horiz-adv-x="259" unicode="ĭ"/><glyph d="M175 708v-92H83v92zm-5-213V0H88v495z" glyph-name="i.dot" horiz-adv-x="259"/><glyph d="M170 495V0H88v495zM-13 672h286v-63H-13z" glyph-name="imacron" horiz-adv-x="259" unicode="ī"/><glyph d="M172 705v-86H86v86zm7-848l15-63q-21-9-40-13t-38-4q-47 0-74.5 23.5T14-136q0 31 18 65T88 1v494h82V0q-42-41-61.5-70T89-122q0-16 9.5-24.5T126-155q12 0 25.5 3t27.5 9z" glyph-name="iogonek" horiz-adv-x="259" unicode="į"/><glyph d="M170 495V0H88v495zm20 93q-21 0-38.5 10T110 639q-15 20-23 25.5T71 670q-13 0-18.5-17T47 600h-63q1 68 22.5 103T69 738q21 0 38.5-10.5T149 686q15-19 23-25t16-6q13 0 18.5 17t6.5 53h63q-1-69-22.5-103T190 588z" glyph-name="itilde" horiz-adv-x="259" unicode="ĩ"/><glyph d="M-20-223v78q59 0 83.5 28.5T88-23v518h82V-23q0-102-47-151t-143-49zm283 802h-69l-67 95-67-95H-5l93 161h82z" glyph-name="jcircumflex" horiz-adv-x="259" unicode="ĵ"/><glyph d="M175 708v-92H83v92zm-5-213V0H88v495zm264 213v-92h-92v92zM239-223v78q59 0 83.5 28.5T347-23v518h82V-23q0-102-47-151t-143-49z" glyph-name="ij" horiz-adv-x="519" unicode="ĳ"/><glyph d="M492 0h-99L254 229q-17-17-37.5-36.5T170 150V0H88v740h82V242q70 68 119.5 128T378 495h94q-35-59-72.5-109.5T314 282zM319-77l-70-171-50 14 31 157z" glyph-name="kcommaaccent" horiz-adv-x="508" unicode="ķ"/><glyph d="M492 0h-99L254 229q-17-17-37.5-36.5T170 150V0H88v495h82V242q70 68 119.5 128T378 495h94q-35-59-72.5-109.5T314 282z" glyph-name="kgreenlandic" horiz-adv-x="508" unicode="ĸ"/><glyph d="M87 120v620h82V124q0-31 10-42.5T212 70h16V-5h-23q-59 0-88.5 31T87 120zm180 834l-97-130H99l90 166z" glyph-name="lacute" horiz-adv-x="264" unicode="ĺ"/><glyph d="M87 120v620h82V124q0-31 10-42.5T212 70h16V-5h-23q-59 0-88.5 31T87 120zm252 620l-29-194h-55v194z" glyph-name="lcaron" horiz-adv-x="321" unicode="ľ"/><glyph d="M87 120v620h82V124q0-31 10-42.5T212 70h16V-5h-23q-59 0-88.5 31T87 120zM206-77l-70-171-50 14 31 157z" glyph-name="lcommaaccent" horiz-adv-x="264" unicode="ļ"/><glyph d="M87 120v620h82V124q0-31 10-42.5T212 70h16V-5h-23q-59 0-88.5 31T87 120zm231 310v-92h-92v92z" glyph-name="ldot" horiz-adv-x="288" unicode="ŀ"/><glyph d="M326 428q-35 0-73-17.5T170 357V0H88v495h78v-69q48 41 91.5 60t88.5 19q68 0 105-43.5T488 338V0h-82v326q0 52-19.5 77T326 428zm24 160q-21 0-38.5 10T270 639q-15 20-23 25.5t-16 5.5q-13 0-18.5-17t-5.5-53h-63q1 68 22.5 103t62.5 35q21 0 38.5-10.5T309 686q15-19 23-25t16-6q13 0 18.5 17t6.5 53h63q-1-69-22.5-103T350 588z" glyph-name="ntilde" horiz-adv-x="571" unicode="ñ"/><glyph d="M326 428q-35 0-73-17.5T170 357V0H88v495h78v-69q48 41 91.5 60t88.5 19q68 0 105-43.5T488 338V0h-82v326q0 52-19.5 77T326 428zm97 281l-97-130h-71l90 166z" glyph-name="nacute" horiz-adv-x="571" unicode="ń"/><glyph d="M326 428q-35 0-73-17.5T170 357V0H88v495h78v-69q48 41 91.5 60t88.5 19q68 0 105-43.5T488 338V0h-82v326q0 52-19.5 77T326 428zm33 312h65l-93-161h-82l-93 161h69l67-95z" glyph-name="ncaron" horiz-adv-x="571" unicode="ň"/><glyph d="M326 428q-35 0-73-17.5T170 357V0H88v495h78v-69q48 41 91.5 60t88.5 19q68 0 105-43.5T488 338V0h-82v326q0 52-19.5 77T326 428zm6-505l-70-171-50 14 31 157z" glyph-name="ncommaaccent" horiz-adv-x="571" unicode="ņ"/><glyph d="M346 505q68 0 105-43.5T488 338V-23q0-102-47.5-151T296-223v78q60 0 85 28.5T406-23v349q0 52-19.5 77T326 428q-35 0-73-17.5T170 357V0H88v495h78v-69q48 41 91.5 60t88.5 19z" glyph-name="eng" horiz-adv-x="571" unicode="ŋ"/><glyph d="M405 428q-35 0-73-17.5T249 357V0h-82v495h78v-69q48 41 91.5 60t88.5 19q68 0 105-43.5T567 338V0h-82v326q0 52-19.5 77T405 428zM32 680h82v-19q0-60-17.5-116.5T40 420l-55 27q28 61 37.5 108T32 680z" glyph-name="napostrophe" horiz-adv-x="650" unicode="ŉ"/><glyph d="M270 505q99 0 154.5-60.5T480 278v-60q0-108-55.5-168T270-10q-99 0-154.5 60T60 218v60q0 106 55.5 166.5T270 505zm125-287v60q0 72-32.5 112T270 430q-59 0-92-40t-33-112v-60q0-74 32.5-114T270 64q61 0 93 39.5T395 218zm8 491l-97-130h-71l90 166z" glyph-name="oacute" horiz-adv-x="541" unicode="ó"/><glyph d="M270 505q99 0 154.5-60.5T480 278v-60q0-108-55.5-168T270-10q-99 0-154.5 60T60 218v60q0 106 55.5 166.5T270 505zm125-287v60q0 72-32.5 112T270 430q-59 0-92-40t-33-112v-60q0-74 32.5-114T270 64q61 0 93 39.5T395 218zm9 361h-69l-67 95-67-95h-65l93 161h82z" glyph-name="ocircumflex" horiz-adv-x="541" unicode="ô"/><glyph d="M270 505q99 0 154.5-60.5T480 278v-60q0-108-55.5-168T270-10q-99 0-154.5 60T60 218v60q0 106 55.5 166.5T270 505zm125-287v60q0 72-32.5 112T270 430q-59 0-92-40t-33-112v-60q0-74 32.5-114T270 64q61 0 93 39.5T395 218zM217 705v-86h-86v86zm191 0v-86h-86v86z" glyph-name="odieresis" horiz-adv-x="541" unicode="ö"/><glyph d="M270 505q99 0 154.5-60.5T480 278v-60q0-108-55.5-168T270-10q-99 0-154.5 60T60 218v60q0 106 55.5 166.5T270 505zm125-287v60q0 72-32.5 112T270 430q-59 0-92-40t-33-112v-60q0-74 32.5-114T270 64q61 0 93 39.5T395 218zm-90 361h-71l-98 130 79 36z" glyph-name="ograve" horiz-adv-x="541" unicode="ò"/><glyph d="M270 505q99 0 154.5-60.5T480 278v-60q0-108-55.5-168T270-10q-99 0-154.5 60T60 218v60q0 106 55.5 166.5T270 505zm125-287v60q0 72-32.5 112T270 430q-59 0-92-40t-33-112v-60q0-74 32.5-114T270 64q61 0 93 39.5T395 218zm-65 370q-21 0-38.5 10T250 639q-15 20-23 25.5t-16 5.5q-13 0-18.5-17t-5.5-53h-63q1 68 22.5 103t62.5 35q21 0 38.5-10.5T289 686q15-19 23-25t16-6q13 0 18.5 17t6.5 53h63q-1-69-22.5-103T330 588z" glyph-name="otilde" horiz-adv-x="541" unicode="õ"/><glyph d="M270 505q99 0 154.5-60.5T480 278v-60q0-108-55.5-168T270-10q-99 0-154.5 60T60 218v60q0 106 55.5 166.5T270 505zm125-287v60q0 72-32.5 112T270 430q-59 0-92-40t-33-112v-60q0-74 32.5-114T270 64q61 0 93 39.5T395 218zM270 648q32 0 47 20t18 63h66q-5-72-38.5-109T270 585q-60 0-93 37t-38 109h65q3-43 18.5-63t47.5-20z" glyph-name="obreve" horiz-adv-x="541" unicode="ŏ"/><glyph d="M270 505q99 0 154.5-60.5T480 278v-60q0-108-55.5-168T270-10q-99 0-154.5 60T60 218v60q0 106 55.5 166.5T270 505zm125-287v60q0 72-32.5 112T270 430q-59 0-92-40t-33-112v-60q0-74 32.5-114T270 64q61 0 93 39.5T395 218zm-78 491l-82-130h-67l82 166zm138 0l-82-130h-67l82 166z" glyph-name="ohungarumlaut" horiz-adv-x="541" unicode="ő"/><glyph d="M270 505q99 0 154.5-60.5T480 278v-60q0-108-55.5-168T270-10q-99 0-154.5 60T60 218v60q0 106 55.5 166.5T270 505zm125-287v60q0 72-32.5 112T270 430q-59 0-92-40t-33-112v-60q0-74 32.5-114T270 64q61 0 93 39.5T395 218zM127 672h286v-63H127z" glyph-name="omacron" horiz-adv-x="541" unicode="ō"/><glyph d="M348 505v-82q-51 0-93-18.5T170 346V0H88v495h78v-80q48 48 91 69t91 21zm5 204l-97-130h-71l90 166z" glyph-name="racute" horiz-adv-x="367" unicode="ŕ"/><glyph d="M348 505v-82q-51 0-93-18.5T170 346V0H88v495h78v-80q48 48 91 69t91 21zm-60 235h65l-93-161h-82L85 740h69l67-95z" glyph-name="rcaron" horiz-adv-x="367" unicode="ř"/><glyph d="M348 505v-82q-51 0-93-18.5T170 346V0H88v495h78v-80q48 48 91 69t91 21zM174-77l-70-171-50 14L85-77z" glyph-name="rcommaaccent" horiz-adv-x="367" unicode="ŗ"/><glyph d="M209 63q50 0 75 17t25 51q0 30-19 47t-65 28l-55 14q-59 15-90 51.5T49 362q0 66 44 104.5T216 505q40 0 79.5-9.5T374 468l-26-69q-37 17-70 25t-62 8q-43 0-65-16.5T129 367q0-29 18-46t58-26l55-14q65-16 96.5-51.5T388 136q0-71-45-108.5T211-10q-45 0-87.5 9.5T38 28l22 68q43-17 78-25t71-8zm77 677h65l-93-161h-82L83 740h69l67-95z" glyph-name="scaron" horiz-adv-x="431" unicode="š"/><glyph d="M209 63q50 0 75 17t25 51q0 30-19 47t-65 28l-55 14q-59 15-90 51.5T49 362q0 66 44 104.5T216 505q40 0 79.5-9.5T374 468l-26-69q-37 17-70 25t-62 8q-43 0-65-16.5T129 367q0-29 18-46t58-26l55-14q65-16 96.5-51.5T388 136q0-71-45-108.5T211-10q-45 0-87.5 9.5T38 28l22 68q43-17 78-25t71-8zm142 646l-97-130h-71l90 166z" glyph-name="sacute" horiz-adv-x="431" unicode="ś"/><glyph d="M311-132q0-42-30.5-66.5T198-223q-19 0-38.5 3.5T119-208l11 56q16-6 34-9t33-3q23 0 35 8t12 23q0 15-12 22.5t-36 7.5q-4 0-8-.5t-15-1.5l-24 38 11 60Q129-3 98.5 5.5T38 28l22 68q43-17 78-25t71-8q50 0 75 17t25 51q0 30-19 47t-65 28l-55 14q-59 15-90 51.5T49 362q0 66 44 104.5T216 505q40 0 79.5-9.5T374 468l-26-69q-37 17-70 25t-62 8q-43 0-65-16.5T129 367q0-29 18-46t58-26l55-14q65-16 96.5-51.5T388 136q0-69-43-106.5T219-10l-7-40q47 0 73-21.5t26-60.5z" glyph-name="scedilla" horiz-adv-x="431" unicode="ş"/><glyph d="M209 63q50 0 75 17t25 51q0 30-19 47t-65 28l-55 14q-59 15-90 51.5T49 362q0 66 44 104.5T216 505q40 0 79.5-9.5T374 468l-26-69q-37 17-70 25t-62 8q-43 0-65-16.5T129 367q0-29 18-46t58-26l55-14q65-16 96.5-51.5T388 136q0-71-45-108.5T211-10q-45 0-87.5 9.5T38 28l22 68q43-17 78-25t71-8zm142 516h-69l-67 95-67-95H83l93 161h82z" glyph-name="scircumflex" horiz-adv-x="431" unicode="ŝ"/><glyph d="M209 63q50 0 75 17t25 51q0 30-19 47t-65 28l-55 14q-59 15-90 51.5T49 362q0 66 44 104.5T216 505q40 0 79.5-9.5T374 468l-26-69q-37 17-70 25t-62 8q-43 0-65-16.5T129 367q0-29 18-46t58-26l55-14q65-16 96.5-51.5T388 136q0-71-45-108.5T211-10q-45 0-87.5 9.5T38 28l22 68q43-17 78-25t71-8zm42-140l-70-171-50 14 31 157z" glyph-name="uni0219" horiz-adv-x="431" unicode="ș"/><glyph d="M352 85l25-67Q350 4 319.5-3T258-10q-70 0-105 40.5T118 153v79H32v60h86v131H32v72h86v138h82V495h162v-72H200V292h131v-60H200v-76q0-50 16-70.5T272 65q20 0 39.5 5T352 85z" glyph-name="tbar" horiz-adv-x="399" unicode="ŧ"/><glyph d="M335 85l25-67Q333 4 302.5-3T241-10q-70 0-105 40.5T101 153v270H15v72h86v138h82V495h162v-72H183V156q0-50 16-70.5T255 65q20 0 39.5 5T335 85zm4 677l-29-194h-55v194z" glyph-name="tcaron" horiz-adv-x="380" unicode="ť"/><glyph d="M335 85l25-67Q333 4 302.5-3T241-10q-70 0-105 40.5T101 153v270H15v72h86v138h82V495h162v-72H183V156q0-50 16-70.5T255 65q20 0 39.5 5T335 85zM266-77l-70-171-50 14 31 157z" glyph-name="uni0163" horiz-adv-x="380" unicode="ţ"/><glyph d="M335 85l25-67Q333 4 302.5-3T241-10q-70 0-105 40.5T101 153v270H15v72h86v138h82V495h162v-72H183V156q0-50 16-70.5T255 65q20 0 39.5 5T335 85zM266-77l-70-171-50 14 31 157z" glyph-name="uni021B" horiz-adv-x="380" unicode="ț"/><glyph d="M470 0h-77v70q-49-42-90-61t-85-19q-66 0-101 43T82 156v339h82V168q0-52 18-76.5T238 67q34 0 70 17t80 53v358h82zm-61 709l-97-130h-71l90 166z" glyph-name="uacute" horiz-adv-x="559" unicode="ú"/><glyph d="M470 0h-77v70q-49-42-90-61t-85-19q-66 0-101 43T82 156v339h82V168q0-52 18-76.5T238 67q34 0 70 17t80 53v358h82zm-60 579h-69l-67 95-67-95h-65l93 161h82z" glyph-name="ucircumflex" horiz-adv-x="559" unicode="û"/><glyph d="M470 0h-77v70q-49-42-90-61t-85-19q-66 0-101 43T82 156v339h82V168q0-52 18-76.5T238 67q34 0 70 17t80 53v358h82zM223 705v-86h-86v86zm191 0v-86h-86v86z" glyph-name="udieresis" horiz-adv-x="559" unicode="ü"/><glyph d="M470 0h-77v70q-49-42-90-61t-85-19q-66 0-101 43T82 156v339h82V168q0-52 18-76.5T238 67q34 0 70 17t80 53v358h82zM311 579h-71l-98 130 79 36z" glyph-name="ugrave" horiz-adv-x="559" unicode="ù"/><glyph d="M470 0h-77v70q-49-42-90-61t-85-19q-66 0-101 43T82 156v339h82V168q0-52 18-76.5T238 67q34 0 70 17t80 53v358h82zM276 648q32 0 47 20t18 63h66q-5-72-38.5-109T276 585q-60 0-93 37t-38 109h65q3-43 18.5-63t47.5-20z" glyph-name="ubreve" horiz-adv-x="559" unicode="ŭ"/><glyph d="M470 0h-77v70q-49-42-90-61t-85-19q-66 0-101 43T82 156v339h82V168q0-52 18-76.5T238 67q34 0 70 17t80 53v358h82zM323 709l-82-130h-67l82 166zm138 0l-82-130h-67l82 166z" glyph-name="uhungarumlaut" horiz-adv-x="559" unicode="ű"/><glyph d="M470 0h-77v70q-49-42-90-61t-85-19q-66 0-101 43T82 156v339h82V168q0-52 18-76.5T238 67q34 0 70 17t80 53v358h82zM133 672h286v-63H133z" glyph-name="umacron" horiz-adv-x="559" unicode="ū"/><glyph d="M455-143l15-63q-21-9-40.5-13t-38.5-4q-47 0-74 23.5T290-136q0 36 24.5 70.5T393 11v59q-49-42-90-61t-85-19q-66 0-101 43T82 156v339h82V168q0-52 18-76.5T238 67q34 0 70 17t80 53v358h82V0q-59-45-82-72t-23-51q0-16 9.5-24t27.5-8q12 0 25.5 3t27.5 9z" glyph-name="uogonek" horiz-adv-x="559" unicode="ų"/><glyph d="M470 0h-77v70q-49-42-90-61t-85-19q-66 0-101 43T82 156v339h82V168q0-52 18-76.5T238 67q34 0 70 17t80 53v358h82zM276 791q51 0 82.5-30t31.5-78v-11q0-49-31.5-79T276 563q-52 0-83 30t-31 79v11q0 49 31 78.5t83 29.5zm54-119v11q0 24-15 38.5T276 736q-25 0-40-14.5T221 683v-11q0-25 15-39.5t40-14.5q24 0 39 15t15 39z" glyph-name="uring" horiz-adv-x="559" unicode="ů"/><glyph d="M470 0h-77v70q-49-42-90-61t-85-19q-66 0-101 43T82 156v339h82V168q0-52 18-76.5T238 67q34 0 70 17t80 53v358h82zM336 588q-21 0-38.5 10T256 639q-15 20-23 25.5t-16 5.5q-13 0-18.5-17t-5.5-53h-63q1 68 22.5 103t62.5 35q21 0 38.5-10.5T295 686q15-19 23-25t16-6q13 0 18.5 17t6.5 53h63q-1-69-22.5-103T336 588z" glyph-name="utilde" horiz-adv-x="559" unicode="ũ"/><glyph d="M604 495h81L558 0h-95L359 406 252 0h-95L31 495h84l50-207 45-205 107 412h87L511 81l44 206zM491 709l-97-130h-71l90 166z" glyph-name="wacute" horiz-adv-x="716" unicode="ẃ"/><glyph d="M604 495h81L558 0h-95L359 406 252 0h-95L31 495h84l50-207 45-205 107 412h87L511 81l44 206zm-113 84h-69l-67 95-67-95h-65l93 161h82z" glyph-name="wcircumflex" horiz-adv-x="716" unicode="ŵ"/><glyph d="M604 495h81L558 0h-95L359 406 252 0h-95L31 495h84l50-207 45-205 107 412h87L511 81l44 206zM304 705v-86h-86v86zm191 0v-86h-86v86z" glyph-name="wdieresis" horiz-adv-x="716" unicode="ẅ"/><glyph d="M604 495h81L558 0h-95L359 406 252 0h-95L31 495h84l50-207 45-205 107 412h87L511 81l44 206zm-211 84h-71l-98 130 79 36z" glyph-name="wgrave" horiz-adv-x="716" unicode="ẁ"/><glyph d="M450 495L257-50q-34-94-81.5-133.5T49-223v81q58 1 86.5 25.5T189-28l10 25L21 495h84l83-241 51-154 49 154 81 241zm-80 214l-97-130h-71l90 166z" glyph-name="yacute" horiz-adv-x="472" unicode="ý"/><glyph d="M450 495L257-50q-34-94-81.5-133.5T49-223v81q58 1 86.5 25.5T189-28l10 25L21 495h84l83-241 51-154 49 154 81 241zM183 705v-86H97v86zm191 0v-86h-86v86z" glyph-name="ydieresis" horiz-adv-x="472" unicode="ÿ"/><glyph d="M450 495L257-50q-34-94-81.5-133.5T49-223v81q58 1 86.5 25.5T189-28l10 25L21 495h84l83-241 51-154 49 154 81 241zm-80 84h-69l-67 95-67-95h-65l93 161h82z" glyph-name="ycircumflex" horiz-adv-x="472" unicode="ŷ"/><glyph d="M450 495L257-50q-34-94-81.5-133.5T49-223v81q58 1 86.5 25.5T189-28l10 25L21 495h84l83-241 51-154 49 154 81 241zm-178 84h-71l-98 130 79 36z" glyph-name="ygrave" horiz-adv-x="472" unicode="ỳ"/><glyph d="M131 71h248V0H35v64l237 359H45v72h324v-65zm144 669h65l-93-161h-82L72 740h69l67-95z" glyph-name="zcaron" horiz-adv-x="412" unicode="ž"/><glyph d="M131 71h248V0H35v64l237 359H45v72h324v-65zm209 638l-97-130h-71l90 166z" glyph-name="zacute" horiz-adv-x="412" unicode="ź"/><glyph d="M131 71h248V0H35v64l237 359H45v72h324v-65zm121 637v-92h-92v92z" glyph-name="zdotaccent" horiz-adv-x="412" unicode="ż"/><glyph d="M340 709l-97-130h-71l90 166z" glyph-name="acute" horiz-adv-x="500" unicode="´"/><glyph d="M272 579h-71l-98 130 79 36z" glyph-name="grave" horiz-adv-x="500" unicode="`"/><glyph d="M370 579h-69l-67 95-67-95h-65l93 161h82z" glyph-name="circumflex" horiz-adv-x="500" unicode="ˆ"/><glyph d="M275 740h65l-93-161h-82L72 740h69l67-95z" glyph-name="caron" horiz-adv-x="500" unicode="ˇ"/><glyph d="M336 588q-21 0-38.5 10T256 639q-15 20-23 25.5t-16 5.5q-13 0-18.5-17t-5.5-53h-63q1 68 22.5 103t62.5 35q21 0 38.5-10.5T295 686q15-19 23-25t16-6q13 0 18.5 17t6.5 53h63q-1-69-22.5-103T336 588z" glyph-name="tilde" horiz-adv-x="500" unicode="˜"/><glyph d="M183 705v-86H97v86zm191 0v-86h-86v86z" glyph-name="dieresis" horiz-adv-x="500" unicode="¨"/><glyph d="M276 791q51 0 82.5-30t31.5-78v-11q0-49-31.5-79T276 563q-52 0-83 30t-31 79v11q0 49 31 78.5t83 29.5zm54-119v11q0 24-15 38.5T276 736q-25 0-40-14.5T221 683v-11q0-25 15-39.5t40-14.5q24 0 39 15t15 39z" glyph-name="ring" horiz-adv-x="500" unicode="˚"/><glyph d="M349-132q0-42-30.5-66.5T236-223q-19 0-38.5 3.5T157-208l11 56q16-6 34-9t33-3q23 0 35 8t12 23q0 15-12 22.5t-36 7.5q-4 0-8-.5t-15-1.5l-24 38 12 67h60l-9-50q47 0 73-21.5t26-60.5z" glyph-name="cedilla" horiz-adv-x="500" unicode="¸"/><glyph d="M323 709l-82-130h-67l82 166zm138 0l-82-130h-67l82 166z" glyph-name="hungarumlaut" horiz-adv-x="500" unicode="˝"/><glyph d="M276 648q32 0 47 20t18 63h66q-5-72-38.5-109T276 585q-60 0-93 37t-38 109h65q3-43 18.5-63t47.5-20z" glyph-name="breve" horiz-adv-x="500" unicode="˘"/><glyph d="M133 672h286v-63H133z" glyph-name="macron" horiz-adv-x="500" unicode="¯"/><glyph d="M252 708v-92h-92v92z" glyph-name="dotaccent" horiz-adv-x="500" unicode="˙"/><glyph d="M318 430v-92h-92v92z" glyph-name="periodcentered" horiz-adv-x="500" unicode="·"/><glyph d="M234-123q0-16 9.5-24t27.5-8q12 0 25.5 3t27.5 9l15-63q-21-9-40.5-13t-38.5-4q-47 0-74 23.5T159-136q0 42 34 83.5T306 43l33-43q-59-45-82-72t-23-51z" glyph-name="ogonek" horiz-adv-x="500" unicode="˛"/><glyph d="M266-77l-70-171-50 14 31 157z" glyph-name="commaaccent" horiz-adv-x="500" unicode=""/><glyph d="M339 762l-29-194h-55v194z" glyph-name="caron.alt" horiz-adv-x="500"/><glyph d="M203 579l70 171 50-14-31-157z" glyph-name="revcommaaccent" horiz-adv-x="500"/><glyph d="M142 91V0H50v91z" glyph-name="period" horiz-adv-x="192" unicode="."/><glyph d="M55 91h82V72q0-78-19.5-144T54-208L0-178q32 62 43.5 115T55 91z" glyph-name="comma" horiz-adv-x="192" unicode=","/><glyph d="M142 495v-92H50v92zm0-404V0H50v91z" glyph-name="colon" horiz-adv-x="192" unicode=":"/><glyph d="M142 495v-92H50v92zM55 91h82V72q0-78-19.5-144T54-208L0-178q32 62 43.5 115T55 91z" glyph-name="semicolon" horiz-adv-x="192" unicode=";"/><glyph d="M542 91V0h-92v91zm0 0V0h-92v91zm0 0V0h-92v91z" glyph-name="ellipsis" horiz-adv-x="592" unicode="…"/><glyph d="M197 614q-37 0-76-9.5T38 575l-28 72q46 21 94 32t96 11q96 0 148-44.5T400 521v-18q0-53-17-92t-56-74l-34-31q-29-27-40-48t-11-56v-20h-84v23q0 48 16 80.5t61 74.5l34 31q25 23 35.5 47.5T315 499v18q0 46-31 71.5T197 614zm50-523V0h-92v91z" glyph-name="question" horiz-adv-x="434" unicode="?"/><glyph d="M181 430l-8-248h-66l-8 248v250h82zm5-339V0H94v91z" glyph-name="exclam" horiz-adv-x="280" unicode="!"/><glyph d="M200 403v92h92v-92zm50-522q37 0 76 9.5T409-80l28-72q-46-21-94-32t-96-11q-96 0-148 44.5T47-26v18q0 52 17 91t56 74l34 31q29 27 40 48.5t11 56.5v19h84v-22q0-49-16-81.5T212 135l-34-31q-25-23-35.5-48T132-4v-18q0-46 31-71.5t87-25.5z" glyph-name="questiondown" horiz-adv-x="434" unicode="¿"/><glyph d="M94 403v92h92v-92zm4-338l9 247h66l7-247v-250H98z" glyph-name="exclamdown" horiz-adv-x="280" unicode="¡"/><glyph d="M60 280v37q0 125 49.5 234T257 750l55-56q-85-84-126-176t-41-201v-37q0-109 41-201.5T312-97l-55-56Q159-63 109.5 46T60 280z" glyph-name="parenleft" horiz-adv-x="315" unicode="("/><glyph d="M255 317v-37q0-125-49.5-234T58-153L2-97Q88-14 129 78t41 202v37q0 109-41 201.5T2 694l56 56q98-90 147.5-199T255 317z" glyph-name="parenright" horiz-adv-x="315" unicode=")"/><glyph d="M288-72h86v-72h-89q-91 0-130 50T135 49l20 98q13 61-4 88t-66 27H20v72h65q49 0 66 27t4 88l-20 98q-19 93 20 143t130 50h89v-72h-86q-45 0-63.5-27t-8.5-75l20-98q14-67-3-111t-62-59q45-15 62-59t3-111l-20-98q-10-48 8.5-75T288-72z" glyph-name="braceleft" horiz-adv-x="377" unicode="{"/><glyph d="M221 147l20-98q20-92-19-142.5T91-144H2v72h87q45 0 63.5 27t8.5 75l-20 98q-14 67 2.5 111t61.5 59q-45 16-61.5 59T141 468l20 98q10 48-8.5 75T89 668H2v72h89q92 0 131-50.5T241 547l-20-98q-13-62 4-89t66-27h65v-72h-65q-49 0-66-27t-4-87z" glyph-name="braceright" horiz-adv-x="377" unicode="}"/><glyph d="M188-71h155v-72H106v883h237v-72H188z" glyph-name="bracketleft" horiz-adv-x="346" unicode="["/><glyph d="M2 740h237v-883H2v72h155v739H2z" glyph-name="bracketright" horiz-adv-x="346" unicode="]"/><glyph d="M-39-143l328 883h84L44-143z" glyph-name="slash" horiz-adv-x="364" unicode="/"/><glyph d="M-9 740h83l329-883h-84z" glyph-name="backslash" horiz-adv-x="364" unicode="\"/><glyph d="M385-157H5v61h380z" glyph-name="underscore" horiz-adv-x="390" unicode="_"/><glyph d="M336 267H56v72h280z" glyph-name="hyphen" horiz-adv-x="392" unicode="-"/><glyph glyph-name="uni00AD" horiz-adv-x="0" unicode="­"/><glyph d="M536 267H56v72h480z" glyph-name="endash" horiz-adv-x="592" unicode="–"/><glyph d="M736 267H56v72h680z" glyph-name="emdash" horiz-adv-x="792" unicode="—"/><glyph d="M100 357v383h82V357zm0-570v383h82v-383z" glyph-name="brokenbar" horiz-adv-x="282" unicode="¦"/><glyph d="M106-213v953h82v-953z" glyph-name="bar" horiz-adv-x="295" unicode="|"/><glyph d="M120 248l202-143V14L38 221v53l284 204v-88zm290 0l202-143V14L328 221v53l284 204v-88z" glyph-name="guillemotleft" horiz-adv-x="667" unicode="«"/><glyph d="M628 271v-53L344 14v87l202 142-202 143v92zm-290 0v-53L54 14v87l202 142L54 386v92z" glyph-name="guillemotright" horiz-adv-x="667" unicode="»"/><glyph d="M120 248l202-143V14L38 221v53l284 204v-88z" glyph-name="guilsinglleft" horiz-adv-x="377" unicode="‹"/><glyph d="M338 271v-53L54 14v87l202 142L54 386v92z" glyph-name="guilsinglright" horiz-adv-x="377" unicode="›"/><glyph d="M55 91h82V72q0-59-17.5-115.5T63-168L8-141Q36-81 45.5-33.5T55 91z" glyph-name="quotesinglbase" horiz-adv-x="192" unicode="‚"/><glyph d="M55 91h82V72q0-59-17.5-115.5T63-168L8-141Q36-81 45.5-33.5T55 91zm164 0h82V72q0-59-17.5-115.5T227-168l-55 27q28 60 37.5 107.5T219 91z" glyph-name="quotedblbase" horiz-adv-x="356" unicode="„"/><glyph d="M119 430H37v19q0 59 17.5 115.5T111 690l54-28q-27-59-36.5-105.5T119 430z" glyph-name="quoteleft" horiz-adv-x="192" unicode="‘"/><glyph d="M283 430h-82v19q0 59 17.5 115.5T275 690l54-28q-27-59-36.5-105.5T283 430zm-164 0H37v19q0 59 17.5 115.5T111 690l54-28q-27-59-36.5-105.5T119 430z" glyph-name="quotedblleft" horiz-adv-x="356" unicode="“"/><glyph d="M32 680h82v-19q0-60-17.5-116.5T40 420l-55 27q28 61 37.5 108T32 680z" glyph-name="quoteright" horiz-adv-x="192" unicode="’"/><glyph d="M73 680h82v-19q0-60-17.5-116.5T81 420l-55 27q28 61 37.5 108T73 680zm164 0h82v-19q0-60-17.5-116.5T245 420l-55 27q28 61 37.5 108t9.5 125z" glyph-name="quotedblright" horiz-adv-x="356" unicode="”"/><glyph d="M136 602l-13-172H69L56 602v78h80z" glyph-name="quotesingle" horiz-adv-x="192" unicode="'"/><glyph d="M136 602l-13-172H69L56 602v78h80zm161 0l-13-172h-54l-13 172v78h80z" glyph-name="quotedbl" horiz-adv-x="353" unicode="&quot;"/><glyph d="M184 396V271H59v125z" glyph-name="bullet" horiz-adv-x="243" unicode="•"/><glyph d="M126 167q0-49 28.5-75.5T234 65q74 0 104.5 52T333 237l67 40L561 0h-92l-64 116q-9-57-56.5-91.5T229-10q-87 0-137 47.5T42 165q0 59 31 104.5T176 362q-48 41-71.5 83.5T81 534q0 70 47 113t127 43q79 0 124.5-42.5T425 531q0-57-29-100t-100-86l-71-43q-53-32-76-63.5T126 167zm130 449q-43 0-68-22t-25-62q0-33 18-66t54-68l21 13q49 31 67.5 57t18.5 62q0 41-22.5 63.5T256 616z" glyph-name="ampersand" horiz-adv-x="560" unicode="&amp;"/><glyph d="M43 438v53q0 89 53 139t148 50h298v-71h-87v-752h-87v752h-67V248h-57q-95 0-148 50.5T43 438z" glyph-name="paragraph" horiz-adv-x="562" unicode="¶"/><glyph d="M416 434h-36l-136 14 14-152v-66l-16-373h-55l-15 373v66l14 152-136-13H14v82h36l136-14-14 141v36h86v-36l-14-141 136 13h36z" glyph-name="dagger" horiz-adv-x="431" unicode="†"/><glyph d="M255 33l14-140v-36h-86v36l14 140L61 20H25v82h36l136-14-14 152v56l14 152-136-13H25v82h36l136-14-13 141v36h85v-36l-13-141 136 13h36v-82h-36l-136 14 13-152v-56L255 88l136 14h36V20h-36z" glyph-name="daggerdbl" horiz-adv-x="453" unicode="‡"/><glyph d="M376 90q36-25 54-60t18-80q0-81-54.5-127T239-223q-49 0-100 12T38-176l27 76q50-22 91.5-32.5T239-143q59 0 89.5 21.5T359-58q0 36-23.5 60.5T262 44l-78 25q-69 23-103.5 64T46 232q0 44 24 83.5t66 63.5q-32 24-48 59t-16 80q0 80 51 126t142 46q43 0 88-10t92-30l-27-75q-43 18-79 26.5t-72 8.5q-53 0-79.5-22T161 522q0-37 20.5-60.5T246 424l79-25q70-22 106-63.5t36-99.5q0-45-24-83t-67-63zM135 244q0-36 22-58.5t73-38.5l82-26q35 20 50.5 44.5T378 222q0 38-23 61t-77 39l-80 26q-32-20-47.5-45.5T135 244z" glyph-name="section" horiz-adv-x="509" unicode="§"/><glyph d="M324 387l19-26-60-44-19 26-62 116-62-117-19-25-60 44 19 25 91 94-129 24-31 10 23 71 30-11 118-56-17 130v32h74v-32l-18-130 118 57 31 10 22-70-30-11-129-23z" glyph-name="asterisk" horiz-adv-x="404" unicode="*"/><glyph d="M324 680h71l99-218 99 218h69V340h-60v97l3 146-91-199h-45l-88 198 3-145v-97h-60zm-215-59H5v59h271v-59H172V340h-63z" glyph-name="trademark" horiz-adv-x="716" unicode="™"/><glyph d="M505 479q0-102-67-170t-167-68q-100 0-167 68T37 479q0 103 66.5 170.5T271 717q101 0 167.5-67.5T505 479zm-415 0q0-82 51.5-135.5T271 290q79 0 130 53.5T452 479q0 82-51 135.5T271 668q-78 0-129.5-53.5T90 479zm151-126h-51v255h87q38 0 59.5-20.5T358 531v-14q0-23-9-40t-26-27q15-25 27.5-49t22.5-48h-57q-12 28-22 48t-20 38h-33zm36 206h-36v-71h36q13 0 20.5 8t7.5 21v14q0 13-7.5 20.5T277 559z" glyph-name="registered" horiz-adv-x="543" unicode="®"/><glyph d="M792 340q0-163-105.5-270T420-37Q259-37 153.5 70T48 340q0 163 105.5 270T420 717q161 0 266.5-107T792 340zm-680 0q0-140 86.5-229.5T420 21q134 0 221 90t87 229q0 138-87 228.5T420 659q-134 0-221-90t-87-229zm310 150q-52 0-77.5-32T319 361v-41q0-66 25-98t78-32q27 0 55.5 7t58.5 22l23-61q-33-17-69.5-26t-72.5-9q-84 0-128.5 51T244 320v41q0 94 44.5 145T417 557q35 0 69-8.5t64-23.5l-23-61q-30 13-56 19.5t-49 6.5z" glyph-name="copyright" horiz-adv-x="840" unicode="©"/><glyph d="M704-99l27-68q-60-27-128.5-41.5T466-223q-194 0-306 115T48 204q0 212 124.5 349T493 690q179 0 295-115t116-290q0-124-62.5-205.5T685-2q-50 0-80.5 21T565 81q-40-44-80.5-66T401-7q-69 0-102.5 59T280 206l8 55q15 102 69.5 155.5T500 470q45 0 91.5-15.5T686 408l-43-251q-9-46 3.5-68.5T692 66q56 0 95 62.5T826 285q0 145-93.5 240T493 620q-162 0-265-117T125 204q0-166 90.5-261.5T466-153q61 0 123.5 14T704-99zM372 261l-8-55q-10-67 5-103.5T423 66q33 0 69 27t73 80l33 196q-25 14-48 20.5t-45 6.5q-56 0-89.5-34T372 261z" glyph-name="at" horiz-adv-x="950" unicode="@"/><glyph d="M313 338h-7q-30 0-51 11t-30 32q-28-24-53-35t-50-11q-44 0-68.5 26T29 432q0 48 28.5 72.5T143 529q13 0 30.5-1.5T216 522v46q0 31-14.5 44T153 625q-22 0-45-6t-50-19l-19 55q31 15 59 22.5t56 7.5q62 0 93.5-27.5T279 575V431q0-18 6-25.5t19-7.5h9zM147 478q-28 0-41-10.5T93 434q0-21 10-32.5t28-11.5q19 0 39.5 9.5T216 430v42q-19 3-37.5 4.5T147 478z" glyph-name="ordfeminine" horiz-adv-x="335" unicode="ª"/><glyph d="M174 685q69 0 108-41t39-113v-42q0-73-38.5-113.5T174 335q-70 0-108.5 40T27 489v42q0 72 39 113t108 41zm82-196v42q0 44-21.5 69T174 625q-39 0-60.5-25T92 531v-42q0-46 21-70t61-24q40 0 61 24t21 70z" glyph-name="ordmasculine" horiz-adv-x="348" unicode="º"/><glyph d="M370 0h-71l61 195H188L127 0H56l61 195H16v66h121l49 157H86v66h120l61 196h72l-61-196h171l61 196h72l-61-196h101v-66H500l-49-157h101v-66H431zM257 418l-49-157h172l49 157z" glyph-name="numbersign" horiz-adv-x="638" unicode="#"/><glyph d="M884 685q72 0 115-45t43-119v-42q0-75-42.5-119.5T884 315q-74 0-116 44t-42 120v42q0 74 42.5 119T884 685zM191 0h-85v680h91q91-130 167.5-262T508 144l-10 260v276h85V0h-91q-87 181-160 312T185 555l6-277zm780 479v42q0 46-23 72t-64 26q-42 0-65-26t-23-72v-42q0-48 23-73.5t65-25.5q42 0 64.5 25.5T971 479zm52-315H745v65h278z" glyph-name="uni2116" horiz-adv-x="1088" unicode="№"/><glyph d="M511 106l29-74Q494 11 450 .5T362-10q-102 0-163.5 57T125 211H36v69h86v100H36v68h87q8 115 70 178.5T362 690q43 0 87.5-10.5T538 648l-28-75q-42 19-77 27.5t-68 8.5q-69 0-107.5-40.5T213 448h235l-13-68H212V280h207l-14-69H215q10-70 47.5-105.5T365 70q35 0 68.5 8.5T511 106z" glyph-name="Euro" horiz-adv-x="576" unicode="€"/><glyph d="M464 183q0-81-42.5-129.5T297-7v-126h-80V-9q-44 2-89 14T37 38l27 74q52-23 94-33.5T245 68q64 0 97.5 27.5T376 176q0 46-24.5 75.5T276 296l-81 24q-74 22-111 68T47 504q0 80 44 128t126 56v125h80V688q38-5 74.5-15.5T443 646l-28-75q-47 21-85.5 30.5T255 611q-61 0-90.5-25T135 510q0-42 23-68t73-41l81-24q76-23 114-71t38-123z" glyph-name="dollar" horiz-adv-x="506" unicode="$"/><glyph d="M503 232v-68H320V0h-87v164H52v68h181v40l-31 60H52v68h115L24 680h94l163-322 157 322h90L385 400h118v-68H351l-31-60v-40z" glyph-name="yen" horiz-adv-x="554" unicode="¥"/><glyph d="M460 81V0H69v69q50 52 72 90t22 76q0 11-1.5 22.5T157 279H61v76h65q-31 62-40.5 97T76 520q0 81 50.5 125.5T271 690q43 0 88-10.5t91-31.5l-28-76q-43 19-79 28t-70 9q-54 0-80.5-24T166 513q0-19 4-39t13-43q7-16 19.5-42.5T218 355h173v-76H245q2-8 3-17t1-19q0-39-18-78.5T174 81z" glyph-name="sterling" horiz-adv-x="486" unicode="£"/><glyph d="M392 96l25-69q-29-13-58-21.5T300-7v-118h-80V-7Q144 5 103 63T62 218v59q0 96 41 154.5T220 502v118h80V502q25-3 52.5-11.5T410 469l-25-70q-35 15-65.5 22.5T263 429q-60 0-88.5-37T146 277v-59q0-78 28.5-115.5T263 65q30 0 62 8t67 23z" glyph-name="cent" horiz-adv-x="449" unicode="¢"/><glyph d="M217 321L184-54q-9-91-44-130T38-223q-25 0-52 5.5T-64-202l24 69q18-8 34.5-11.5T27-148q35 0 51.5 21.5T100-54l34 375H13v72h127l17 188q8 90 43.5 129.5T303 750q25 0 52-5.5t50-15.5l-23-69q-19 8-36 11.5t-33 3.5q-35 0-51.5-21.5T240 581l-17-188h121v-72z" glyph-name="florin" horiz-adv-x="362" unicode="ƒ"/><glyph d="M459 0H345q-76 84-141 144.5T60 266v67h157q50 0 81 28.5t35 78.5H60v67h273q-4 50-34.5 78T217 613H60v67h445v-67H366q23-20 36.5-46.5T418 507h87v-67h-87q-4-81-57.5-127.5T217 266h-38q79-62 144.5-124T459 0z" glyph-name="uni20B9" horiz-adv-x="541" unicode="₹"/><glyph d="M446 184L547 79l-46-47-102 105q-24-17-52-25.5t-59-8.5q-32 0-60 8.5T176 137L74 32 28 79l102 105q-17 24-25.5 53.5T96 300q0 32 8.5 61t24.5 54L28 520l46 47 102-104q24 17 52 25.5t60 8.5q31 0 60-8.5t52-25.5l101 104 46-47-101-104q17-24 25.5-53.5T480 300q0-31-8.5-61T446 184zM168 300q0-58 33.5-94t86.5-36q53 0 86 36t33 94q0 57-33 93t-86 36q-53 0-86.5-35.5T168 300z" glyph-name="currency" horiz-adv-x="576" unicode="¤"/><glyph d="M306 690q111 0 171-71.5T537 415V266q0-133-60-204.5T306-10q-111 0-170.5 71.5T76 266v149q0 132 60 203.5T306 690zm143-424v149q0 98-35.5 147T306 611q-71 0-106.5-49T164 415V266q0-98 35.5-148T306 68q71 0 107 49.5T449 266z" glyph-name="zero" horiz-adv-x="613" unicode="0"/><glyph d="M57 520l-38 66 162 94h79V0h-85v588z" glyph-name="one" horiz-adv-x="366" unicode="1"/><glyph d="M435 79V0H47v66q0 97 34.5 162.5T186 330l65 33q60 32 80.5 59t20.5 66v17q0 54-30.5 80T228 611q-36 0-74-9t-82-28l-28 73q47 21 94 32t92 11q102 0 154.5-47.5T437 505v-17q0-63-32.5-108T291 294l-65-34q-47-25-69.5-68.5T132 79z" glyph-name="two" horiz-adv-x="493" unicode="2"/><glyph d="M432 193v-16q0-90-55-138.5T217-10q-48 0-96.5 11T23 34l26 72q49-20 88.5-29t77.5-9q66 0 98.5 27.5T346 179v16q0 53-30.5 81.5T228 305H128v76h100q54 0 82.5 27t28.5 79v14q0 56-30 83t-91 27q-36 0-73-9t-83-28l-28 73q47 21 93.5 32t92.5 11q100 0 153-48.5T426 503v-14q0-49-23-86.5T337 343q46-21 70.5-60t24.5-90z" glyph-name="three" horiz-adv-x="498" unicode="3"/><glyph d="M481 240v-77h-75V0h-82v163H32v67q94 144 151 250t92 200h92q-38-100-96-206.5T129 240h195v124h82V240z" glyph-name="four" horiz-adv-x="508" unicode="4"/><glyph d="M119 314l-51 40 20 326h338v-80H165l-12-195q22 8 45.5 11.5T248 420q98 0 152-51.5T454 222v-30q0-97-56.5-149.5T235-10q-48 0-96.5 11T41 34l27 72q46-20 86-29t80-9q67 0 99.5 30.5T366 192v30q0 58-33 89.5T239 343q-29 0-58-7t-62-22z" glyph-name="five" horiz-adv-x="507" unicode="5"/><glyph d="M512 223v-30q0-92-58-147.5T300-10q-107 0-165 72T77 267v148q0 134 61 204.5T314 690q44 0 89-10.5t90-31.5l-31-73q-39 18-75 27t-70 9q-80 0-118.5-48.5T160 415v-58q38 34 79 51t84 17q87 0 138-55t51-147zm-352 57v-13q0-99 35.5-149T300 68q60 0 94 33.5t34 91.5v30q0 58-30.5 91.5T313 348q-40 0-79-17t-74-51z" glyph-name="six" horiz-adv-x="564" unicode="6"/><glyph d="M435 680v-70q-77-157-128.5-309T229 0h-89q26 146 76.5 296T342 600H28v80z" glyph-name="seven" horiz-adv-x="470" unicode="7"/><glyph d="M384 348q58-29 85-70t27-99q0-88-58-138.5T274-10q-101 0-156.5 47T62 166q0 55 26.5 98t83.5 79q-48 27-72 68t-24 96q0 81 54.5 132T277 690q95 0 149.5-48T481 512q0-51-23.5-91T384 348zM161 507q0-43 23.5-69.5T263 393l55-19q41 31 59.5 62t18.5 68q0 52-30.5 81T279 614q-55 0-86.5-28.5T161 507zm-14-330q0-53 34-82.5T277 65q64 0 99 28.5t35 81.5q0 45-25 71t-90 48l-58 20q-48-34-69.5-66.5T147 177z" glyph-name="eight" horiz-adv-x="558" unicode="8"/><glyph d="M486 412V264q0-134-60.5-204T249-10q-45 0-89 10T71 31l30 73q40-18 77-27t69-9q79 0 118 48.5T404 264v59q-39-34-80.5-51.5T240 254q-86 0-137 55T52 456v30q0 91 58 147.5T264 690q106 0 164-72.5T486 412zm-351 74v-30q0-58 31-91.5t85-33.5q40 0 78.5 17.5T404 400v12q0 98-35.5 148.5T263 611q-58 0-93-34.5T135 486z" glyph-name="nine" horiz-adv-x="564" unicode="9"/><glyph d="M263 690q111 0 171-71.5T494 415V266q0-133-60-204.5T263-10Q152-10 92.5 61.5T33 266v149q0 132 60 203.5T263 690zm143-424v149q0 98-35.5 147T263 611q-71 0-106.5-49T121 415V266q0-98 35.5-148T263 68q71 0 107 49.5T406 266z" glyph-name="zero.tlf" horiz-adv-x="529"/><glyph d="M110 504l-39 68 185 108h79V80h121V0H93v80h156v503z" glyph-name="one.tlf" horiz-adv-x="529"/><glyph d="M454 79V0H66v66q0 97 34.5 162.5T205 330l65 33q60 32 80.5 59t20.5 66v17q0 54-30.5 80T247 611q-36 0-74-9t-82-28l-28 73q47 21 94 32t92 11q102 0 154.5-47.5T456 505v-17q0-63-32.5-108T310 294l-65-34q-47-25-69.5-68.5T151 79z" glyph-name="two.tlf" horiz-adv-x="529"/><glyph d="M448 193v-16q0-90-55-138.5T233-10q-48 0-96.5 11T39 34l26 72q49-20 88.5-29t77.5-9q66 0 98.5 27.5T362 179v16q0 53-30.5 81.5T244 305H144v76h100q54 0 82.5 27t28.5 79v14q0 56-30 83t-91 27q-36 0-73-9t-83-28l-28 73q47 21 93.5 32t92.5 11q100 0 153-48.5T442 503v-14q0-49-23-86.5T353 343q46-21 70.5-60t24.5-90z" glyph-name="three.tlf" horiz-adv-x="529"/><glyph d="M496 240v-77h-75V0h-82v163H47v67q94 144 151 250t92 200h92q-38-100-96-206.5T144 240h195v124h82V240z" glyph-name="four.tlf" horiz-adv-x="529"/><glyph d="M129 314l-51 40 20 326h338v-80H175l-12-195q22 8 45.5 11.5T258 420q98 0 152-51.5T464 222v-30q0-97-56.5-149.5T245-10q-48 0-96.5 11T51 34l27 72q46-20 86-29t80-9q67 0 99.5 30.5T376 192v30q0 58-33 89.5T249 343q-29 0-58-7t-62-22z" glyph-name="five.tlf" horiz-adv-x="529"/><glyph d="M492 223v-30q0-92-58-147.5T280-10q-107 0-165 72T57 267v148q0 134 61 204.5T294 690q44 0 89-10.5t90-31.5l-31-73q-39 18-75 27t-70 9q-80 0-118.5-48.5T140 415v-58q38 34 79 51t84 17q87 0 138-55t51-147zm-352 57v-13q0-99 35.5-149T280 68q60 0 94 33.5t34 91.5v30q0 58-30.5 91.5T293 348q-40 0-79-17t-74-51z" glyph-name="six.tlf" horiz-adv-x="529"/><glyph d="M468 680v-70q-77-157-128.5-309T262 0h-89q26 146 76.5 296T375 600H61v80z" glyph-name="seven.tlf" horiz-adv-x="529"/><glyph d="M370 348q58-29 85-70t27-99q0-88-58-138.5T260-10q-101 0-156.5 47T48 166q0 55 26.5 98t83.5 79q-48 27-72 68t-24 96q0 81 54.5 132T263 690q95 0 149.5-48T467 512q0-51-23.5-91T370 348zM147 507q0-43 23.5-69.5T249 393l55-19q41 31 59.5 62t18.5 68q0 52-30.5 81T265 614q-55 0-86.5-28.5T147 507zm-14-330q0-53 34-82.5T263 65q64 0 99 28.5t35 81.5q0 45-25 71t-90 48l-58 20q-48-34-69.5-66.5T133 177z" glyph-name="eight.tlf" horiz-adv-x="529"/><glyph d="M472 412V264q0-134-60.5-204T235-10q-45 0-89 10T57 31l30 73q40-18 77-27t69-9q79 0 118 48.5T390 264v59q-39-34-80.5-51.5T226 254q-86 0-137 55T38 456v30q0 91 58 147.5T250 690q106 0 164-72.5T472 412zm-351 74v-30q0-58 31-91.5t85-33.5q40 0 78.5 17.5T390 400v12q0 98-35.5 148.5T249 611q-58 0-93-34.5T121 486z" glyph-name="nine.tlf" horiz-adv-x="529"/><glyph d="M284 505q106 0 165-60.5T508 276v-56q0-109-58.5-169.5T284-10q-107 0-165.5 60T60 220v56q0 108 59 168.5T284 505zm138-285v56q0 75-35 114t-103 39q-68 0-103-39t-35-114v-56q0-77 34.5-116T284 65q69 0 103.5 39T422 220z" glyph-name="zero.posf" horiz-adv-x="568"/><glyph d="M57 335l-38 66 162 94h79V0h-85v403z" glyph-name="one.posf" horiz-adv-x="348"/><glyph d="M412 76V0H54v66q0 75 29 119.5t93 65.5l71 24q42 14 61 31.5t19 42.5v10q0 34-25.5 51.5T226 428q-37 0-71-8t-73-25l-28 70q44 20 87 30t88 10q88 0 135-37.5T411 361v-10q0-51-32-86.5T282 207l-71-24q-38-13-55-37.5T139 76z" glyph-name="two.posf" horiz-adv-x="470"/><glyph d="M414 8V-8q0-90-55-138.5T199-195q-48 0-96.5 11T5-151l26 72q49-20 88.5-29t77.5-9q66 0 98.5 27.5T328-6v16q0 53-30.5 81.5T210 120H110v76h100q54 0 82.5 27t28.5 79v14q0 56-30 83t-91 27q-36 0-73-9t-83-28l-28 73q47 21 93.5 32t92.5 11q100 0 153-48.5T408 318v-14q0-49-23-86.5T319 158q46-21 70.5-60T414 8z" glyph-name="three.posf" horiz-adv-x="469"/><glyph d="M470 76V0h-74v-185h-83V0H21v66q93 129 150.5 230.5T265 495h92q-37-97-93-196T119 76h194v103h83V76z" glyph-name="four.posf" horiz-adv-x="488"/><glyph d="M110 129l-51 40 20 326h338v-80H156l-12-195q22 8 45.5 11.5T239 235q98 0 152-51.5T445 37V7q0-97-56.5-149.5T226-195q-48 0-96.5 11T32-151l27 72q46-20 86-29t80-9q67 0 99.5 30.5T357 7v30q0 58-33 89.5T230 158q-29 0-58-7t-62-22z" glyph-name="five.posf" horiz-adv-x="487"/><glyph d="M500 223v-30q0-92-58-147.5T288-10q-107 0-165 72T65 267v148q0 134 61 204.5T302 690q44 0 89-10.5t90-31.5l-31-73q-39 18-75 27t-70 9q-80 0-118.5-48.5T148 415v-58q38 34 79 51t84 17q87 0 138-55t51-147zm-352 57v-13q0-99 35.5-149T288 68q60 0 94 33.5t34 91.5v30q0 58-30.5 91.5T301 348q-40 0-79-17t-74-51z" glyph-name="six.posf" horiz-adv-x="552"/><glyph d="M428 495v-70q-77-157-128.5-309T222-185h-89q26 146 76.5 296T335 415H21v80z" glyph-name="seven.posf" horiz-adv-x="452"/><glyph d="M368 348q58-29 85-70t27-99q0-88-58-138.5T258-10q-101 0-156.5 47T46 166q0 55 26.5 98t83.5 79q-48 27-72 68t-24 96q0 81 54.5 132T261 690q95 0 149.5-48T465 512q0-51-23.5-91T368 348zM145 507q0-43 23.5-69.5T247 393l55-19q41 31 59.5 62t18.5 68q0 52-30.5 81T263 614q-55 0-86.5-28.5T145 507zm-14-330q0-53 34-82.5T261 65q64 0 99 28.5t35 81.5q0 45-25 71t-90 48l-58 20q-48-34-69.5-66.5T131 177z" glyph-name="eight.posf" horiz-adv-x="525"/><glyph d="M484 227V79q0-134-60.5-204T247-195q-45 0-89 10t-89 31l30 73q40-18 77-27t69-9q79 0 118 48.5T402 79v59q-39-34-80.5-51.5T238 69q-86 0-137 55T50 271v30q0 91 58 147.5T262 505q106 0 164-72.5T484 227zm-351 74v-30q0-58 31-91.5t85-33.5q40 0 78.5 17.5T402 215v12q0 98-35.5 148.5T261 426q-58 0-93-34.5T133 301z" glyph-name="nine.posf" horiz-adv-x="548"/><glyph d="M338 528q0-71-44-116.5T181 366q-69 0-113 45T24 528q0 72 43.5 117T181 690q69 0 113-45t44-117zm-249 0q0-45 25-72.5t67-27.5q42 0 67 27.5t25 72.5q0 45-25 72.5T181 628q-42 0-67-27.5T89 528z" glyph-name="degree" horiz-adv-x="363" unicode="°"/><glyph d="M175 685q63 0 98.5-36.5T309 546v-31q0-66-35.5-103T175 375q-64 0-99 36.5T41 515v31q0 66 35 102.5t99 36.5zM170 0l348 680h71L241 0zm73 515v31q0 38-17.5 58T175 624q-33 0-50.5-20T107 546v-31q0-38 17.5-58.5T175 436q33 0 50.5 20.5T243 515zm341-210q64 0 99-36.5T718 166v-31q0-66-35.5-103T584-5q-64 0-99 36.5T450 135v31q0 66 35 102.5t99 36.5zm69-170v31q0 38-18 58t-51 20q-33 0-50.5-20T516 166v-31q0-38 17.5-58.5T584 56q33 0 51 20.5t18 58.5z" glyph-name="percent" horiz-adv-x="760" unicode="%"/><glyph d="M175 685q63 0 98.5-36.5T309 546v-31q0-66-35.5-103T175 375q-64 0-99 36.5T41 515v31q0 66 35 102.5t99 36.5zM170 0l348 680h71L241 0zm73 515v31q0 38-17.5 58T175 624q-33 0-50.5-20T107 546v-31q0-38 17.5-58.5T175 436q33 0 50.5 20.5T243 515zm341-210q64 0 99-36.5T718 166v-31q0-66-35.5-103T584-5q-64 0-99 36.5T450 135v31q0 66 35 102.5t99 36.5zm338 0q63 0 98.5-36.5T1056 166v-31q0-66-35.5-103T922-5q-64 0-99 36.5T788 135v31q0 66 35 102.5t99 36.5zM653 135v31q0 38-18 58t-51 20q-33 0-50.5-20T516 166v-31q0-38 17.5-58.5T584 56q33 0 51 20.5t18 58.5zm337 0v31q0 38-17.5 58T922 244q-33 0-50.5-20T854 166v-31q0-38 17.5-58.5T922 56q33 0 50.5 20.5T990 135z" glyph-name="perthousand" horiz-adv-x="1097" unicode="‰"/><glyph d="M-154 0l348 680h71L-83 0z" glyph-name="fraction" horiz-adv-x="111" unicode="⁄"/><glyph d="M-154 0l348 680h71L-83 0z" glyph-name="uni2215" horiz-adv-x="111" unicode="∕"/><glyph d="M168 790q62 0 95-35.5T296 652v-74q0-67-33-102.5T168 440q-62 0-95 35.5T40 578v74q0 67 33 102.5t95 35.5zm63-212v74q0 38-16 57.5T168 729q-31 0-46.5-19.5T106 652v-74q0-38 15.5-57.5T168 501q31 0 47 19.5t16 57.5z" glyph-name="zerosuperior" horiz-adv-x="336" unicode="⁰"/><glyph d="M48 684l-27 51 91 50h56V445h-64v269z" glyph-name="onesuperior" horiz-adv-x="222" unicode="¹"/><glyph d="M240 507v-62H24v41q0 49 18 79.5t61 51.5l33 16q23 12 31.5 23t8.5 27v7q0 19-13 29t-39 10q-19 0-40.5-5T37 709l-15 59q27 11 52 16.5t51 5.5q57 0 86.5-25.5T241 691v-9q0-34-18-57.5T160 580l-32-16q-19-9-28-22t-11-35z" glyph-name="twosuperior" horiz-adv-x="270" unicode="²"/><glyph d="M235 544v-8q0-46-30.5-71T116 440q-27 0-52 5.5T17 461l17 57q19-9 39-13t41-4q28 0 42 9.5t14 28.5v8q0 20-15 31t-42 11H70v55h43q26 0 40 10.5t14 29.5v7q0 19-13.5 28.5T115 729q-18 0-36-4t-37-13l-19 58q23 10 46.5 15t47.5 5q55 0 85-25t30-70v-7q0-24-12-42.5T185 616q25-10 37.5-28.5T235 544z" glyph-name="threesuperior" horiz-adv-x="274" unicode="³"/><glyph d="M256 579v-57h-37v-77h-59v77H12v46q50 76 77 124.5t43 92.5h68q-18-46-44.5-94.5T86 579h74v48h59v-48z" glyph-name="foursuperior" horiz-adv-x="267" unicode="⁴"/><glyph d="M69 591l-32 28 10 166h187v-59H102l-5-72q9 3 19.5 4.5T138 660q50 0 79.5-26.5T247 560v-15q0-50-32-77.5T124 440q-28 0-53 5t-48 16l19 58q20-9 39.5-13.5T122 501q30 0 44.5 11t14.5 33v15q0 21-14 32.5T126 604q-13 0-26.5-3T69 591z" glyph-name="fivesuperior" horiz-adv-x="274" unicode="⁵"/><glyph d="M276 561v-18q0-46-31-74.5T162 440q-58 0-89.5 36T41 579v73q0 68 33 103t96 35q24 0 47-5.5t48-16.5l-19-56q-18 9-36 13t-38 4q-35 0-52-19t-17-58v-19q17 16 36.5 23.5T182 664q42 0 68-28t26-75zm-109 44q-15 0-31-6.5T103 578q0-39 15-58.5t44-19.5q24 0 37.5 11.5T213 543v18q0 21-12.5 32.5T167 605z" glyph-name="sixsuperior" horiz-adv-x="304" unicode="⁶"/><glyph d="M225 785v-56q-36-74-59.5-145T130 445H63q12 69 36 139.5T158 724H9v61z" glyph-name="sevensuperior" horiz-adv-x="239" unicode="⁷"/><glyph d="M218 623q27-16 40-37t13-50q0-45-31-70.5T153 440q-54 0-84 24t-30 66q0 25 12.5 45T91 613q-22 15-33 36t-11 47q0 43 29 68.5t78 25.5q51 0 80.5-25t29.5-66q0-22-11.5-41T218 623zm-109 72q0-16 9.5-27t28.5-17l28-10q13 13 19.5 26t6.5 27q0 18-12 28.5T155 733q-21 0-33.5-10.5T109 695zm-8-158q0-19 14-29.5t39-10.5q27 0 41 10t14 29q0 16-10.5 26.5T164 582l-31 10q-16-13-24-27t-8-28z" glyph-name="eightsuperior" horiz-adv-x="307" unicode="⁸"/><glyph d="M263 650v-73q0-67-33-102t-97-35q-25 0-48 5t-47 16l20 57q17-9 35-13.5t38-4.5q35 0 52.5 19t17.5 58v20q-18-16-37.5-23.5T122 566q-43 0-68.5 27.5T28 668v18q0 47 31 75.5t83 28.5q58 0 89.5-36.5T263 650zM91 686v-18q0-21 12.5-32.5T137 624q15 0 31 6.5t33 20.5q0 39-15 58.5T142 729q-24 0-37.5-11.5T91 686z" glyph-name="ninesuperior" horiz-adv-x="304" unicode="⁹"/><glyph d="M168 240q62 0 95-35.5T296 102V28q0-67-33-102.5T168-110q-62 0-95 35.5T40 28v74q0 67 33 102.5t95 35.5zm63-212v74q0 38-16 57.5T168 179q-31 0-46.5-19.5T106 102V28q0-38 15.5-57.5T168-49q31 0 47 19.5T231 28z" glyph-name="zeroinferior" horiz-adv-x="336" unicode="₀"/><glyph d="M48 134l-27 51 91 50h56v-340h-64v269z" glyph-name="oneinferior" horiz-adv-x="222" unicode="₁"/><glyph d="M240-43v-62H24v41q0 49 18 79.5T103 67l33 16q23 12 31.5 23t8.5 27v7q0 19-13 29t-39 10q-19 0-40.5-5T37 159l-15 59q27 11 52 16.5t51 5.5q57 0 86.5-25.5T241 141v-9q0-34-18-57.5T160 30l-32-16q-19-9-28-22T89-43z" glyph-name="twoinferior" horiz-adv-x="270" unicode="₂"/><glyph d="M235-6v-8q0-46-30.5-71T116-110q-27 0-52 5.5T17-89l17 57q19-9 39-13t41-4q28 0 42 9.5T170-11v8q0 20-15 31t-42 11H70v55h43q26 0 40 10.5t14 29.5v7q0 19-13.5 28.5T115 179q-18 0-36-4t-37-13l-19 58q23 10 46.5 15t47.5 5q55 0 85-25t30-70v-7q0-24-12-42.5T185 66q25-10 37.5-28.5T235-6z" glyph-name="threeinferior" horiz-adv-x="274" unicode="₃"/><glyph d="M256 29v-57h-37v-77h-59v77H12v46q50 76 77 124.5t43 92.5h68q-18-46-44.5-94.5T86 29h74v48h59V29z" glyph-name="fourinferior" horiz-adv-x="267" unicode="₄"/><glyph d="M69 41L37 69l10 166h187v-59H102l-5-72q9 3 19.5 4.5T138 110q50 0 79.5-26.5T247 10V-5q0-50-32-77.5T124-110q-28 0-53 5T23-89l19 58q20-9 39.5-13.5T122-49q30 0 44.5 11T181-5v15q0 21-14 32.5T126 54q-13 0-26.5-3T69 41z" glyph-name="fiveinferior" horiz-adv-x="274" unicode="₅"/><glyph d="M276 11V-7q0-46-31-74.5T162-110q-58 0-89.5 36T41 29v73q0 68 33 103t96 35q24 0 47-5.5t48-16.5l-19-56q-18 9-36 13t-38 4q-35 0-52-19t-17-58V83q17 16 36.5 23.5T182 114q42 0 68-28t26-75zM167 55q-15 0-31-6.5T103 28q0-39 15-58.5T162-50q24 0 37.5 11.5T213-7v18q0 21-12.5 32.5T167 55z" glyph-name="sixinferior" horiz-adv-x="304" unicode="₆"/><glyph d="M225 235v-56q-36-74-59.5-145T130-105H63Q75-36 99 34.5T158 174H9v61z" glyph-name="seveninferior" horiz-adv-x="239" unicode="₇"/><glyph d="M218 73q27-16 40-37t13-50q0-45-31-70.5T153-110q-54 0-84 24T39-20q0 25 12.5 45T91 63Q69 78 58 99t-11 47q0 43 29 68.5t78 25.5q51 0 80.5-25t29.5-66q0-22-11.5-41T218 73zm-109 72q0-16 9.5-27t28.5-17l28-10q13 13 19.5 26t6.5 27q0 18-12 28.5T155 183q-21 0-33.5-10.5T109 145zm-8-158q0-19 14-29.5T154-53q27 0 41 10t14 29q0 16-10.5 26.5T164 32l-31 10q-16-13-24-27t-8-28z" glyph-name="eightinferior" horiz-adv-x="307" unicode="₈"/><glyph d="M263 100V27q0-67-33-102t-97-35q-25 0-48 5T38-89l20 57q17-9 35-13.5t38-4.5q35 0 52.5 19T201 27v20q-18-16-37.5-23.5T122 16q-43 0-68.5 27.5T28 118v18q0 47 31 75.5t83 28.5q58 0 89.5-36.5T263 100zM91 136v-18q0-21 12.5-32.5T137 74q15 0 31 6.5t33 20.5q0 39-15 58.5T142 179q-24 0-37.5-11.5T91 136z" glyph-name="nineinferior" horiz-adv-x="304" unicode="₉"/><glyph d="M168 240q62 0 95-35.5T296 102V28q0-67-33-102.5T168-110q-62 0-95 35.5T40 28v74q0 67 33 102.5t95 35.5zm63-212v74q0 38-16 57.5T168 179q-31 0-46.5-19.5T106 102V28q0-38 15.5-57.5T168-49q31 0 47 19.5T231 28z" glyph-name="zero.numerator" horiz-adv-x="336"/><glyph d="M48 134l-27 51 91 50h56v-340h-64v269z" glyph-name="one.numerator" horiz-adv-x="222"/><glyph d="M240-43v-62H24v41q0 49 18 79.5T103 67l33 16q23 12 31.5 23t8.5 27v7q0 19-13 29t-39 10q-19 0-40.5-5T37 159l-15 59q27 11 52 16.5t51 5.5q57 0 86.5-25.5T241 141v-9q0-34-18-57.5T160 30l-32-16q-19-9-28-22T89-43z" glyph-name="two.numerator" horiz-adv-x="270"/><glyph d="M235-6v-8q0-46-30.5-71T116-110q-27 0-52 5.5T17-89l17 57q19-9 39-13t41-4q28 0 42 9.5T170-11v8q0 20-15 31t-42 11H70v55h43q26 0 40 10.5t14 29.5v7q0 19-13.5 28.5T115 179q-18 0-36-4t-37-13l-19 58q23 10 46.5 15t47.5 5q55 0 85-25t30-70v-7q0-24-12-42.5T185 66q25-10 37.5-28.5T235-6z" glyph-name="three.numerator" horiz-adv-x="274"/><glyph d="M256 29v-57h-37v-77h-59v77H12v46q50 76 77 124.5t43 92.5h68q-18-46-44.5-94.5T86 29h74v48h59V29z" glyph-name="four.numerator" horiz-adv-x="267"/><glyph d="M69 41L37 69l10 166h187v-59H102l-5-72q9 3 19.5 4.5T138 110q50 0 79.5-26.5T247 10V-5q0-50-32-77.5T124-110q-28 0-53 5T23-89l19 58q20-9 39.5-13.5T122-49q30 0 44.5 11T181-5v15q0 21-14 32.5T126 54q-13 0-26.5-3T69 41z" glyph-name="five.numerator" horiz-adv-x="274"/><glyph d="M276 11V-7q0-46-31-74.5T162-110q-58 0-89.5 36T41 29v73q0 68 33 103t96 35q24 0 47-5.5t48-16.5l-19-56q-18 9-36 13t-38 4q-35 0-52-19t-17-58V83q17 16 36.5 23.5T182 114q42 0 68-28t26-75zM167 55q-15 0-31-6.5T103 28q0-39 15-58.5T162-50q24 0 37.5 11.5T213-7v18q0 21-12.5 32.5T167 55z" glyph-name="six.numerator" horiz-adv-x="304"/><glyph d="M225 235v-56q-36-74-59.5-145T130-105H63Q75-36 99 34.5T158 174H9v61z" glyph-name="seven.numerator" horiz-adv-x="239"/><glyph d="M218 73q27-16 40-37t13-50q0-45-31-70.5T153-110q-54 0-84 24T39-20q0 25 12.5 45T91 63Q69 78 58 99t-11 47q0 43 29 68.5t78 25.5q51 0 80.5-25t29.5-66q0-22-11.5-41T218 73zm-109 72q0-16 9.5-27t28.5-17l28-10q13 13 19.5 26t6.5 27q0 18-12 28.5T155 183q-21 0-33.5-10.5T109 145zm-8-158q0-19 14-29.5T154-53q27 0 41 10t14 29q0 16-10.5 26.5T164 32l-31 10q-16-13-24-27t-8-28z" glyph-name="eight.numerator" horiz-adv-x="307"/><glyph d="M263 100V27q0-67-33-102t-97-35q-25 0-48 5T38-89l20 57q17-9 35-13.5t38-4.5q35 0 52.5 19T201 27v20q-18-16-37.5-23.5T122 16q-43 0-68.5 27.5T28 118v18q0 47 31 75.5t83 28.5q58 0 89.5-36.5T263 100zM91 136v-18q0-21 12.5-32.5T137 74q15 0 31 6.5t33 20.5q0 39-15 58.5T142 179q-24 0-37.5-11.5T91 136z" glyph-name="nine.numerator" horiz-adv-x="304"/><glyph d="M168 345q62 0 95-35.5T296 207v-74q0-67-33-102.5T168-5q-62 0-95 35.5T40 133v74q0 67 33 102.5t95 35.5zm63-212v74q0 38-16 57.5T168 284q-31 0-46.5-19.5T106 207v-74q0-38 15.5-57.5T168 56q31 0 47 19.5t16 57.5z" glyph-name="zero.denominator" horiz-adv-x="336"/><glyph d="M48 239l-27 51 91 50h56V0h-64v269z" glyph-name="one.denominator" horiz-adv-x="222"/><glyph d="M240 62V0H24v41q0 49 18 79.5t61 51.5l33 16q23 12 31.5 23t8.5 27v7q0 19-13 29t-39 10q-19 0-40.5-5T37 264l-15 59q27 11 52 16.5t51 5.5q57 0 86.5-25.5T241 246v-9q0-34-18-57.5T160 135l-32-16q-19-9-28-22T89 62z" glyph-name="two.denominator" horiz-adv-x="270"/><glyph d="M235 99v-8q0-46-30.5-71T116-5Q89-5 64 .5T17 16l17 57q19-9 39-13t41-4q28 0 42 9.5T170 94v8q0 20-15 31t-42 11H70v55h43q26 0 40 10.5t14 29.5v7q0 19-13.5 28.5T115 284q-18 0-36-4t-37-13l-19 58q23 10 46.5 15t47.5 5q55 0 85-25t30-70v-7q0-24-12-42.5T185 171q25-10 37.5-28.5T235 99z" glyph-name="three.denominator" horiz-adv-x="274"/><glyph d="M256 134V77h-37V0h-59v77H12v46q50 76 77 124.5t43 92.5h68q-18-46-44.5-94.5T86 134h74v48h59v-48z" glyph-name="four.denominator" horiz-adv-x="267"/><glyph d="M69 146l-32 28 10 166h187v-59H102l-5-72q9 3 19.5 4.5T138 215q50 0 79.5-26.5T247 115v-15q0-50-32-77.5T124-5Q96-5 71 0T23 16l19 58q20-9 39.5-13.5T122 56q30 0 44.5 11t14.5 33v15q0 21-14 32.5T126 159q-13 0-26.5-3T69 146z" glyph-name="five.denominator" horiz-adv-x="274"/><glyph d="M276 116V98q0-46-31-74.5T162-5q-58 0-89.5 36T41 134v73q0 68 33 103t96 35q24 0 47-5.5t48-16.5l-19-56q-18 9-36 13t-38 4q-35 0-52-19t-17-58v-19q17 16 36.5 23.5T182 219q42 0 68-28t26-75zm-109 44q-15 0-31-6.5T103 133q0-39 15-58.5T162 55q24 0 37.5 11.5T213 98v18q0 21-12.5 32.5T167 160z" glyph-name="six.denominator" horiz-adv-x="304"/><glyph d="M225 340v-56q-36-74-59.5-145T130 0H63q12 69 36 139.5T158 279H9v61z" glyph-name="seven.denominator" horiz-adv-x="239"/><glyph d="M218 178q27-16 40-37t13-50q0-45-31-70.5T153-5Q99-5 69 19T39 85q0 25 12.5 45T91 168q-22 15-33 36t-11 47q0 43 29 68.5t78 25.5q51 0 80.5-25t29.5-66q0-22-11.5-41T218 178zm-109 72q0-16 9.5-27t28.5-17l28-10q13 13 19.5 26t6.5 27q0 18-12 28.5T155 288q-21 0-33.5-10.5T109 250zm-8-158q0-19 14-29.5T154 52q27 0 41 10t14 29q0 16-10.5 26.5T164 137l-31 10q-16-13-24-27t-8-28z" glyph-name="eight.denominator" horiz-adv-x="307"/><glyph d="M263 205v-73q0-67-33-102T133-5q-25 0-48 5T38 16l20 57q17-9 35-13.5t38-4.5q35 0 52.5 19t17.5 58v20q-18-16-37.5-23.5T122 121q-43 0-68.5 27.5T28 223v18q0 47 31 75.5t83 28.5q58 0 89.5-36.5T263 205zM91 241v-18q0-21 12.5-32.5T137 179q15 0 31 6.5t33 20.5q0 39-15 58.5T142 284q-24 0-37.5-11.5T91 241z" glyph-name="nine.denominator" horiz-adv-x="304"/><glyph d="M48 579l-27 51 91 50h56V340h-64v269zM87 0l348 680h71L158 0zm522 62V0H393v41q0 49 18 79.5t61 51.5l33 16q23 12 31.5 23t8.5 27v7q0 19-13 29t-39 10q-19 0-40.5-5T406 264l-15 59q27 11 52 16.5t51 5.5q57 0 86.5-25.5T610 246v-9q0-34-18-57.5T529 135l-32-16q-19-9-28-22t-11-35z" glyph-name="onehalf" horiz-adv-x="639" unicode="½"/><glyph d="M48 579l-27 51 91 50h56V340h-64v269zM87 0l348 680h71L158 0zm511 99v-8q0-46-30.5-71T479-5q-27 0-52 5.5T380 16l17 57q19-9 39-13t41-4q28 0 42 9.5T533 94v8q0 20-15 31t-42 11h-43v55h43q26 0 40 10.5t14 29.5v7q0 19-13.5 28.5T478 284q-18 0-36-4t-37-13l-19 58q23 10 46.5 15t47.5 5q55 0 85-25t30-70v-7q0-24-12-42.5T548 171q25-10 37.5-28.5T598 99z" glyph-name="onethird" horiz-adv-x="638" unicode="⅓"/><glyph d="M48 579l-27 51 91 50h56V340h-64v269zM87 0l348 680h71L158 0zm503 134V77h-37V0h-59v77H346v46q50 76 77 124.5t43 92.5h68q-18-46-44.5-94.5T420 134h74v48h59v-48z" glyph-name="onequarter" horiz-adv-x="596" unicode="¼"/><glyph d="M48 579l-27 51 91 50h56V340h-64v269zM87 0l348 680h71L158 0zm336 146l-32 28 10 166h187v-59H456l-5-72q9 3 19.5 4.5T492 215q50 0 79.5-26.5T601 115v-15q0-50-32-77.5T478-5q-28 0-53 5t-48 16l19 58q20-9 39.5-13.5T476 56q30 0 44.5 11t14.5 33v15q0 21-14 32.5T480 159q-13 0-26.5-3T423 146z" glyph-name="onefifth" horiz-adv-x="629"/><glyph d="M48 579l-27 51 91 50h56V340h-64v269zM87 0l348 680h71L158 0zm533 116V98q0-46-31-74.5T506-5q-58 0-89.5 36T385 134v73q0 68 33 103t96 35q24 0 47-5.5t48-16.5l-19-56q-18 9-36 13t-38 4q-35 0-52-19t-17-58v-19q17 16 36.5 23.5T526 219q42 0 68-28t26-75zm-109 44q-15 0-31-6.5T447 133q0-39 15-58.5T506 55q24 0 37.5 11.5T557 98v18q0 21-12.5 32.5T511 160z" glyph-name="onesixth" horiz-adv-x="648"/><glyph d="M48 579l-27 51 91 50h56V340h-64v269zM87 0l348 680h71L158 0zm530 340v-56q-36-74-59.5-145T522 0h-67q12 69 36 139.5T550 279H401v61z" glyph-name="oneseventh" horiz-adv-x="631"/><glyph d="M48 579l-27 51 91 50h56V340h-64v269zM87 0l348 680h71L158 0zm477 178q27-16 40-37t13-50q0-45-31-70.5T499-5q-54 0-84 24t-30 66q0 25 12.5 45t39.5 38q-22 15-33 36t-11 47q0 43 29 68.5t78 25.5q51 0 80.5-25t29.5-66q0-22-11.5-41T564 178zm-109 72q0-16 9.5-27t28.5-17l28-10q13 13 19.5 26t6.5 27q0 18-12 28.5T501 288q-21 0-33.5-10.5T455 250zm-8-158q0-19 14-29.5T500 52q27 0 41 10t14 29q0 16-10.5 26.5T510 137l-31 10q-16-13-24-27t-8-28z" glyph-name="oneeighth" horiz-adv-x="653" unicode="⅛"/><glyph d="M48 579l-27 51 91 50h56V340h-64v269zM87 0l348 680h71L158 0zm528 205v-73q0-67-33-102T485-5q-25 0-48 5t-47 16l20 57q17-9 35-13.5t38-4.5q35 0 52.5 19t17.5 58v20q-18-16-37.5-23.5T474 121q-43 0-68.5 27.5T380 223v18q0 47 31 75.5t83 28.5q58 0 89.5-36.5T615 205zm-172 36v-18q0-21 12.5-32.5T489 179q15 0 31 6.5t33 20.5q0 39-15 58.5T494 284q-24 0-37.5-11.5T443 241z" glyph-name="oneninth" horiz-adv-x="656"/><glyph d="M240 402v-62H24v41q0 49 18 79.5t61 51.5l33 16q23 12 31.5 23t8.5 27v7q0 19-13 29t-39 10q-19 0-40.5-5T37 604l-15 59q27 11 52 16.5t51 5.5q57 0 86.5-25.5T241 586v-9q0-34-18-57.5T160 475l-32-16q-19-9-28-22t-11-35zM135 0l348 680h71L206 0zm511 99v-8q0-46-30.5-71T527-5q-27 0-52 5.5T428 16l17 57q19-9 39-13t41-4q28 0 42 9.5T581 94v8q0 20-15 31t-42 11h-43v55h43q26 0 40 10.5t14 29.5v7q0 19-13.5 28.5T526 284q-18 0-36-4t-37-13l-19 58q23 10 46.5 15t47.5 5q55 0 85-25t30-70v-7q0-24-12-42.5T596 171q25-10 37.5-28.5T646 99z" glyph-name="twothirds" horiz-adv-x="685" unicode="⅔"/><glyph d="M240 402v-62H24v41q0 49 18 79.5t61 51.5l33 16q23 12 31.5 23t8.5 27v7q0 19-13 29t-39 10q-19 0-40.5-5T37 604l-15 59q27 11 52 16.5t51 5.5q57 0 86.5-25.5T241 586v-9q0-34-18-57.5T160 475l-32-16q-19-9-28-22t-11-35zM135 0l348 680h71L206 0zm336 146l-32 28 10 166h187v-59H504l-5-72q9 3 19.5 4.5T540 215q50 0 79.5-26.5T649 115v-15q0-50-32-77.5T526-5q-28 0-53 5t-48 16l19 58q20-9 39.5-13.5T524 56q30 0 44.5 11t14.5 33v15q0 21-14 32.5T528 159q-13 0-26.5-3T471 146z" glyph-name="twofifths" horiz-adv-x="676"/><glyph d="M240 402v-62H24v41q0 49 18 79.5t61 51.5l33 16q23 12 31.5 23t8.5 27v7q0 19-13 29t-39 10q-19 0-40.5-5T37 604l-15 59q27 11 52 16.5t51 5.5q57 0 86.5-25.5T241 586v-9q0-34-18-57.5T160 475l-32-16q-19-9-28-22t-11-35zM135 0l348 680h71L206 0zm530 340v-56q-36-74-59.5-145T570 0h-67q12 69 36 139.5T598 279H449v61z" glyph-name="twosevenths" horiz-adv-x="679"/><glyph d="M240 402v-62H24v41q0 49 18 79.5t61 51.5l33 16q23 12 31.5 23t8.5 27v7q0 19-13 29t-39 10q-19 0-40.5-5T37 604l-15 59q27 11 52 16.5t51 5.5q57 0 86.5-25.5T241 586v-9q0-34-18-57.5T160 475l-32-16q-19-9-28-22t-11-35zM135 0l348 680h71L206 0zm528 205v-73q0-67-33-102T533-5q-25 0-48 5t-47 16l20 57q17-9 35-13.5t38-4.5q35 0 52.5 19t17.5 58v20q-18-16-37.5-23.5T522 121q-43 0-68.5 27.5T428 223v18q0 47 31 75.5t83 28.5q58 0 89.5-36.5T663 205zm-172 36v-18q0-21 12.5-32.5T537 179q15 0 31 6.5t33 20.5q0 39-15 58.5T542 284q-24 0-37.5-11.5T491 241z" glyph-name="twoninths" horiz-adv-x="704"/><glyph d="M235 439v-8q0-46-30.5-71T116 335q-27 0-52 5.5T17 356l17 57q19-9 39-13t41-4q28 0 42 9.5t14 28.5v8q0 20-15 31t-42 11H70v55h43q26 0 40 10.5t14 29.5v7q0 19-13.5 28.5T115 624q-18 0-36-4t-37-13l-19 58q23 10 46.5 15t47.5 5q55 0 85-25t30-70v-7q0-24-12-42.5T185 511q25-10 37.5-28.5T235 439zM120 0l348 680h71L191 0zm503 134V77h-37V0h-59v77H379v46q50 76 77 124.5t43 92.5h68q-18-46-44.5-94.5T453 134h74v48h59v-48z" glyph-name="threequarters" horiz-adv-x="629" unicode="¾"/><glyph d="M235 439v-8q0-46-30.5-71T116 335q-27 0-52 5.5T17 356l17 57q19-9 39-13t41-4q28 0 42 9.5t14 28.5v8q0 20-15 31t-42 11H70v55h43q26 0 40 10.5t14 29.5v7q0 19-13.5 28.5T115 624q-18 0-36-4t-37-13l-19 58q23 10 46.5 15t47.5 5q55 0 85-25t30-70v-7q0-24-12-42.5T185 511q25-10 37.5-28.5T235 439zM120 0l348 680h71L191 0zm336 146l-32 28 10 166h187v-59H489l-5-72q9 3 19.5 4.5T525 215q50 0 79.5-26.5T634 115v-15q0-50-32-77.5T511-5q-28 0-53 5t-48 16l19 58q20-9 39.5-13.5T509 56q30 0 44.5 11t14.5 33v15q0 21-14 32.5T513 159q-13 0-26.5-3T456 146z" glyph-name="threefifths" horiz-adv-x="662"/><glyph d="M235 439v-8q0-46-30.5-71T116 335q-27 0-52 5.5T17 356l17 57q19-9 39-13t41-4q28 0 42 9.5t14 28.5v8q0 20-15 31t-42 11H70v55h43q26 0 40 10.5t14 29.5v7q0 19-13.5 28.5T115 624q-18 0-36-4t-37-13l-19 58q23 10 46.5 15t47.5 5q55 0 85-25t30-70v-7q0-24-12-42.5T185 511q25-10 37.5-28.5T235 439zM120 0l348 680h71L191 0zm530 340v-56q-36-74-59.5-145T555 0h-67q12 69 36 139.5T583 279H434v61z" glyph-name="threesevenths" horiz-adv-x="664"/><glyph d="M235 439v-8q0-46-30.5-71T116 335q-27 0-52 5.5T17 356l17 57q19-9 39-13t41-4q28 0 42 9.5t14 28.5v8q0 20-15 31t-42 11H70v55h43q26 0 40 10.5t14 29.5v7q0 19-13.5 28.5T115 624q-18 0-36-4t-37-13l-19 58q23 10 46.5 15t47.5 5q55 0 85-25t30-70v-7q0-24-12-42.5T185 511q25-10 37.5-28.5T235 439zM120 0l348 680h71L191 0zm477 178q27-16 40-37t13-50q0-45-31-70.5T532-5q-54 0-84 24t-30 66q0 25 12.5 45t39.5 38q-22 15-33 36t-11 47q0 43 29 68.5t78 25.5q51 0 80.5-25t29.5-66q0-22-11.5-41T597 178zm-109 72q0-16 9.5-27t28.5-17l28-10q13 13 19.5 26t6.5 27q0 18-12 28.5T534 288q-21 0-33.5-10.5T488 250zm-8-158q0-19 14-29.5T533 52q27 0 41 10t14 29q0 16-10.5 26.5T543 137l-31 10q-16-13-24-27t-8-28z" glyph-name="threeeighths" horiz-adv-x="686" unicode="⅜"/><glyph d="M256 474v-57h-37v-77h-59v77H12v46q50 76 77 124.5t43 92.5h68q-18-46-44.5-94.5T86 474h74v48h59v-48zM133 0l348 680h71L204 0zm336 146l-32 28 10 166h187v-59H502l-5-72q9 3 19.5 4.5T538 215q50 0 79.5-26.5T647 115v-15q0-50-32-77.5T524-5q-28 0-53 5t-48 16l19 58q20-9 39.5-13.5T522 56q30 0 44.5 11t14.5 33v15q0 21-14 32.5T526 159q-13 0-26.5-3T469 146z" glyph-name="fourfifths" horiz-adv-x="674"/><glyph d="M256 474v-57h-37v-77h-59v77H12v46q50 76 77 124.5t43 92.5h68q-18-46-44.5-94.5T86 474h74v48h59v-48zM133 0l348 680h71L204 0zm530 340v-56q-36-74-59.5-145T568 0h-67q12 69 36 139.5T596 279H447v61z" glyph-name="foursevenths" horiz-adv-x="677"/><glyph d="M256 474v-57h-37v-77h-59v77H12v46q50 76 77 124.5t43 92.5h68q-18-46-44.5-94.5T86 474h74v48h59v-48zM133 0l348 680h71L204 0zm528 205v-73q0-67-33-102T531-5q-25 0-48 5t-47 16l20 57q17-9 35-13.5t38-4.5q35 0 52.5 19t17.5 58v20q-18-16-37.5-23.5T520 121q-43 0-68.5 27.5T426 223v18q0 47 31 75.5t83 28.5q58 0 89.5-36.5T661 205zm-172 36v-18q0-21 12.5-32.5T535 179q15 0 31 6.5t33 20.5q0 39-15 58.5T540 284q-24 0-37.5-11.5T489 241z" glyph-name="fourninths" horiz-adv-x="702"/><glyph d="M69 486l-32 28 10 166h187v-59H102l-5-72q9 3 19.5 4.5T138 555q50 0 79.5-26.5T247 455v-15q0-50-32-77.5T124 335q-28 0-53 5t-48 16l19 58q20-9 39.5-13.5T122 396q30 0 44.5 11t14.5 33v15q0 21-14 32.5T126 499q-13 0-26.5-3T69 486zM120 0l348 680h71L191 0zm532 116V98q0-46-31-74.5T538-5q-58 0-89.5 36T417 134v73q0 68 33 103t96 35q24 0 47-5.5t48-16.5l-19-56q-18 9-36 13t-38 4q-35 0-52-19t-17-58v-19q17 16 36.5 23.5T558 219q42 0 68-28t26-75zm-109 44q-15 0-31-6.5T479 133q0-39 15-58.5T538 55q24 0 37.5 11.5T589 98v18q0 21-12.5 32.5T543 160z" glyph-name="fivesixths" horiz-adv-x="681"/><glyph d="M69 486l-32 28 10 166h187v-59H102l-5-72q9 3 19.5 4.5T138 555q50 0 79.5-26.5T247 455v-15q0-50-32-77.5T124 335q-28 0-53 5t-48 16l19 58q20-9 39.5-13.5T122 396q30 0 44.5 11t14.5 33v15q0 21-14 32.5T126 499q-13 0-26.5-3T69 486zM120 0l348 680h71L191 0zm530 340v-56q-36-74-59.5-145T555 0h-67q12 69 36 139.5T583 279H434v61z" glyph-name="fivesevenths" horiz-adv-x="664"/><glyph d="M69 486l-32 28 10 166h187v-59H102l-5-72q9 3 19.5 4.5T138 555q50 0 79.5-26.5T247 455v-15q0-50-32-77.5T124 335q-28 0-53 5t-48 16l19 58q20-9 39.5-13.5T122 396q30 0 44.5 11t14.5 33v15q0 21-14 32.5T126 499q-13 0-26.5-3T69 486zM120 0l348 680h71L191 0zm477 178q27-16 40-37t13-50q0-45-31-70.5T532-5q-54 0-84 24t-30 66q0 25 12.5 45t39.5 38q-22 15-33 36t-11 47q0 43 29 68.5t78 25.5q51 0 80.5-25t29.5-66q0-22-11.5-41T597 178zm-109 72q0-16 9.5-27t28.5-17l28-10q13 13 19.5 26t6.5 27q0 18-12 28.5T534 288q-21 0-33.5-10.5T488 250zm-8-158q0-19 14-29.5T533 52q27 0 41 10t14 29q0 16-10.5 26.5T543 137l-31 10q-16-13-24-27t-8-28z" glyph-name="fiveeighths" horiz-adv-x="686" unicode="⅝"/><glyph d="M69 486l-32 28 10 166h187v-59H102l-5-72q9 3 19.5 4.5T138 555q50 0 79.5-26.5T247 455v-15q0-50-32-77.5T124 335q-28 0-53 5t-48 16l19 58q20-9 39.5-13.5T122 396q30 0 44.5 11t14.5 33v15q0 21-14 32.5T126 499q-13 0-26.5-3T69 486zM120 0l348 680h71L191 0zm528 205v-73q0-67-33-102T518-5q-25 0-48 5t-47 16l20 57q17-9 35-13.5t38-4.5q35 0 52.5 19t17.5 58v20q-18-16-37.5-23.5T507 121q-43 0-68.5 27.5T413 223v18q0 47 31 75.5t83 28.5q58 0 89.5-36.5T648 205zm-172 36v-18q0-21 12.5-32.5T522 179q15 0 31 6.5t33 20.5q0 39-15 58.5T527 284q-24 0-37.5-11.5T476 241z" glyph-name="fiveninths" horiz-adv-x="689"/><glyph d="M276 456v-18q0-46-31-74.5T162 335q-58 0-89.5 36T41 474v73q0 68 33 103t96 35q24 0 47-5.5t48-16.5l-19-56q-18 9-36 13t-38 4q-35 0-52-19t-17-58v-19q17 16 36.5 23.5T182 559q42 0 68-28t26-75zm-109 44q-15 0-31-6.5T103 473q0-39 15-58.5t44-19.5q24 0 37.5 11.5T213 438v18q0 21-12.5 32.5T167 500zM150 0l348 680h71L221 0zm530 340v-56q-36-74-59.5-145T585 0h-67q12 69 36 139.5T613 279H464v61z" glyph-name="sixsevenths" horiz-adv-x="694"/><glyph d="M225 680v-56q-36-74-59.5-145T130 340H63q12 69 36 139.5T158 619H9v61zM79 0l348 680h71L150 0zm477 178q27-16 40-37t13-50q0-45-31-70.5T491-5q-54 0-84 24t-30 66q0 25 12.5 45t39.5 38q-22 15-33 36t-11 47q0 43 29 68.5t78 25.5q51 0 80.5-25t29.5-66q0-22-11.5-41T556 178zm-109 72q0-16 9.5-27t28.5-17l28-10q13 13 19.5 26t6.5 27q0 18-12 28.5T493 288q-21 0-33.5-10.5T447 250zm-8-158q0-19 14-29.5T492 52q27 0 41 10t14 29q0 16-10.5 26.5T502 137l-31 10q-16-13-24-27t-8-28z" glyph-name="seveneighths" horiz-adv-x="645" unicode="⅞"/><glyph d="M225 680v-56q-36-74-59.5-145T130 340H63q12 69 36 139.5T158 619H9v61zM79 0l348 680h71L150 0zm528 205v-73q0-67-33-102T477-5q-25 0-48 5t-47 16l20 57q17-9 35-13.5t38-4.5q35 0 52.5 19t17.5 58v20q-18-16-37.5-23.5T466 121q-43 0-68.5 27.5T372 223v18q0 47 31 75.5t83 28.5q58 0 89.5-36.5T607 205zm-172 36v-18q0-21 12.5-32.5T481 179q15 0 31 6.5t33 20.5q0 39-15 58.5T486 284q-24 0-37.5-11.5T435 241z" glyph-name="sevenninths" horiz-adv-x="648"/><glyph d="M218 518q27-16 40-37t13-50q0-45-31-70.5T153 335q-54 0-84 24t-30 66q0 25 12.5 45T91 508q-22 15-33 36t-11 47q0 43 29 68.5t78 25.5q51 0 80.5-25t29.5-66q0-22-11.5-41T218 518zm-109 72q0-16 9.5-27t28.5-17l28-10q13 13 19.5 26t6.5 27q0 18-12 28.5T155 628q-21 0-33.5-10.5T109 590zm-8-158q0-19 14-29.5t39-10.5q27 0 41 10t14 29q0 16-10.5 26.5T164 477l-31 10q-16-13-24-27t-8-28zM153 0l348 680h71L224 0zm528 205v-73q0-67-33-102T551-5q-25 0-48 5t-47 16l20 57q17-9 35-13.5t38-4.5q35 0 52.5 19t17.5 58v20q-18-16-37.5-23.5T540 121q-43 0-68.5 27.5T446 223v18q0 47 31 75.5t83 28.5q58 0 89.5-36.5T681 205zm-172 36v-18q0-21 12.5-32.5T555 179q15 0 31 6.5t33 20.5q0 39-15 58.5T560 284q-24 0-37.5-11.5T509 241z" glyph-name="eightninths" horiz-adv-x="722"/><glyph d="M501 334v-72H331V87h-75v175H87v72h169v175h75V334z" glyph-name="plus" horiz-adv-x="588" unicode="+"/><glyph d="M501 266H87v72h414z" glyph-name="minus" horiz-adv-x="588" unicode="−"/><glyph d="M344 303l149-150-51-50-148 149-149-149-51 50 149 150L94 452l51 51 149-149 148 149 51-51z" glyph-name="multiply" horiz-adv-x="588" unicode="×"/><glyph d="M340 547v-91h-92v91zm161-281H87v72h414zM340 145V53h-92v92z" glyph-name="divide" horiz-adv-x="588" unicode="÷"/><glyph d="M501 366H87v72h414zm0-200H87v72h414z" glyph-name="equal" horiz-adv-x="588" unicode="="/><glyph d="M426 376H87v72h414V205h-75z" glyph-name="logicalnot" horiz-adv-x="588" unicode="¬"/><glyph d="M382 208q-29 0-54.5 13.5T266 276q-24 28-37 36t-26 8q-22 0-36-24t-24-75l-66 16q14 78 45.5 116.5T204 392q29 0 54-13.5t61-53.5q25-29 38-37t26-8q22 0 36.5 24t25.5 76l66-16q-15-79-47-117.5T382 208z" glyph-name="asciitilde" horiz-adv-x="588" unicode="~"/><glyph d="M203 302l298-115v-83L87 272v55l414 165v-78z" glyph-name="less" horiz-adv-x="588" unicode="&lt;"/><glyph d="M501 324v-55L87 104v79l298 112L87 410v82z" glyph-name="greater" horiz-adv-x="588" unicode="&gt;"/><glyph d="M501 374v-72H331V131h-75v171H87v72h169v171h75V374zm0-374H87v71h414z" glyph-name="plusminus" horiz-adv-x="588" unicode="±"/><glyph d="M487 266h-82L291 563 178 266h-78l165 414h55z" glyph-name="asciicircum" horiz-adv-x="588" unicode="^"/><glyph d="M501 238v-72H257L191 40l-54 29 51 97H87v72h139l67 128H87v72h244l66 126 54-30-51-96h101v-72H363l-68-128z" glyph-name="notequal" horiz-adv-x="588" unicode="≠"/><glyph d="M382 312q-29 0-54.5 13.5T266 380q-24 28-37 36t-26 8q-22 0-36-24t-24-75l-66 16q14 78 45.5 116.5T204 496q29 0 54.5-13.5T320 428q24-28 37-36t26-8q22 0 36.5 24t25.5 76l66-16q-15-79-47-117.5T382 312zm0-208q-29 0-54.5 13.5T266 172q-24 28-37 36t-26 8q-22 0-36-24t-24-75l-66 16q14 78 45.5 116.5T204 288q29 0 54.5-13.5T320 220q24-28 37-36t26-8q22 0 36.5 24t25.5 76l66-16q-15-79-47-117.5T382 104z" glyph-name="approxequal" horiz-adv-x="588" unicode="≈"/><glyph d="M203 334l298-115v-82L87 305v54l414 165v-78zM501 0H87v71h414z" glyph-name="lessequal" horiz-adv-x="588" unicode="≤"/><glyph d="M501 356v-54L87 137v78l298 112L87 442v82zm0-356H87v71h414z" glyph-name="greaterequal" horiz-adv-x="588" unicode="≥"/><glyph d="M734 309q0-95-50-150t-133-55q-57 0-101 29.5T377 220q-30-59-70.5-88T214 103q-77 0-124 55T43 308q0 95 49.5 150T224 513q58 0 103-30t73-87q30 60 69.5 88.5T562 513q78 0 125-54.5T734 309zm-306 13l10-29q19-54 46-78.5t67-24.5q51 0 79.5 32t28.5 88q0 55-28 86t-76 31q-38 0-67.5-24.5T428 322zM224 426q-50 0-78-32t-28-87q0-56 28-86.5t78-30.5q37 0 66 24.5t59 79.5l-10 30q-19 53-46.5 77.5T224 426z" glyph-name="infinity" horiz-adv-x="777" unicode="∞"/><glyph d="M322 0h-53L101 340l165 340h53l168-340zm-31 575L183 343l113-238 110 232z" glyph-name="lozenge" horiz-adv-x="588" unicode="◊"/><glyph d="M134 299H32v72h157l96-251 217 560h79L310 0h-55z" glyph-name="radical" horiz-adv-x="588" unicode="√"/><glyph d="M238 581L182-54q-8-90-43.5-129.5T36-223q-25 0-51.5 5.5T-65-202l23 69q18-8 34.5-11.5T25-148q35 0 52 21.5T99-54l56 635q8 90 43.5 129.5T301 750q25 0 52-5.5t50-15.5l-23-69q-19 8-35.5 11.5T312 675q-35 0-52-21.5T238 581z" glyph-name="integral" horiz-adv-x="343" unicode="∫"/><glyph d="M473 287l-2-41q-8-120-68.5-188T243-10q-94 0-148 60.5T48 209l3 36q6 88 58.5 142.5T243 442q39 0 73-12.5t65-38.5q-18 89-75.5 164.5T159 682l37 68q143-84 214.5-204.5T473 287zm-337-45l-3-36q-4-65 26-103.5T243 64q62 0 100 49t43 137l3 53q-33 32-67 47.5T252 366q-50 0-81-33.5T136 242z" glyph-name="partialdiff" horiz-adv-x="537" unicode="∂"/><glyph d="M116 598H29v82h644v-82h-87v-741h-87v741H203v-741h-87z" glyph-name="product" horiz-adv-x="703" unicode="∏"/><glyph d="M104 423H25v72h508v-72h-79V131q0-34 11.5-47.5T504 70h29V-5h-33q-67 0-97.5 31.5T372 131v292H186V0h-82z" glyph-name="pi" horiz-adv-x="561" unicode="π"/><glyph d="M170-125v-88H88v708h82V168q0-52 18-76.5T244 67q34 0 70 17t80 53v358h82V124q0-28 11-41t34-13h12V-5h-15q-47 0-76.5 20T403 73q-50-43-91.5-63T230-10q-24 0-42.5 6.5T154 16z" glyph-name="mu" horiz-adv-x="566" unicode="µ"/><glyph d="M144-61h369v-82H30v71l270 342L33 609v71h462v-82H150l232-296v-59z" glyph-name="summation" horiz-adv-x="525" unicode="∑"/><glyph d="M275 185V0H62v79h134v54q-64 30-98 92T64 374v42q0 128 69.5 201T326 690q123 0 193-73.5T589 416v-42q0-85-33.5-147.5T459 134V79h134V0H380v186q58 15 88.5 63.5T499 374v42q0 93-45 143t-128 50q-83 0-127.5-50.5T154 416v-42q0-77 31.5-126t89.5-63z" glyph-name="Omega" horiz-adv-x="655" unicode="Ω"/><glyph d="M319 680L521 65V0H37v65l201 615zm-43-119l-65-207-87-278h305l-88 278z" glyph-name="Delta" horiz-adv-x="558" unicode="∆"/><glyph d="M300 88l22-69Q294 5 264.5-2.5T205-10q-66 0-100 35.5T71 131v400q0 72 38.5 115.5T215 690q67 0 105-39.5T358 538q0-74-45-145.5T153 214v-78q0-37 14-54t45-17q21 0 44 6t44 17zm-83 527q-31 0-47.5-21.5T153 532V310q65 66 94.5 119T277 534q0 39-16 60t-44 21z" glyph-name="uni2113" horiz-adv-x="383" unicode="ℓ"/><glyph d="M166 324l149-139-35-46L42 334v45l238 193 35-46-148-135h432v-67z" glyph-name="arrowleft" horiz-adv-x="651" unicode="←"/><glyph d="M539 397l-46-35-136 149V78h-67v433L152 362l-46 35 195 238h45z" glyph-name="arrowup" horiz-adv-x="651" unicode="↑"/><glyph d="M602 379v-45L364 141l-35 46 149 135H45v67h434L329 528l35 46z" glyph-name="arrowright" horiz-adv-x="651" unicode="→"/><glyph d="M493 353l46-36L344 79h-45L106 317l46 36 135-148v431h67V203z" glyph-name="arrowdown" horiz-adv-x="651" unicode="↓"/><glyph d="M166 324l149-139-35-46L42 334v45l238 193 35-46-148-135h447L465 529l36 46 238-195v-45L501 142l-36 46 149 136z" glyph-name="uni2194" horiz-adv-x="781" unicode="↔"/><glyph d="M497 283l46-36L348 9h-45L110 247l46 36 136-149v449L153 433l-46 35 195 238h45l193-238-46-35-135 149V134z" glyph-name="uni2195" horiz-adv-x="651" unicode="↕"/><glyph d="M236 490l306-306-47-47-306 306 8-204-58-8-31 307 32 32 305-32-7-58z" glyph-name="uni2196" horiz-adv-x="651" unicode="↖"/><glyph d="M504 232l-57 7 8 201-305-305-47 48 306 306-204-8-7 57 306 31 32-32z" glyph-name="uni2197" horiz-adv-x="651" unicode="↗"/><glyph d="M502 482l31-306-32-32-305 32 7 57 202-9L99 530l47 47 306-306-7 204z" glyph-name="uni2198" horiz-adv-x="651" unicode="↘"/><glyph d="M438 234l7-57-306-31-32 32 32 305 58-8-10-201 306 306 47-48-306-306z" glyph-name="uni2199" horiz-adv-x="651" unicode="↙"/><glyph d="M774 314v-9H191q-3 0-4-1t-1-3V125q0-6 2-11t6-9q44-46 101-71T415 9q67 0 127 28t105 79h52q-51-59-126-92.5T414-10q-149 0-254.5 95T54 314q0 134 105.5 229T414 638q149 0 254.5-95T774 314zm-132 14v178q0 6-2 11.5t-7 9.5q-44 44-100.5 68T415 619q-62 0-119-24.5T195 524q-5-5-7-10t-2-12V328q0-2 1.5-3.5t3.5-1.5h447q2 0 3 1.5t1 3.5z" glyph-name="estimated" horiz-adv-x="813" unicode="℮"/><glyph d="M704-21l27-68q-60-27-128.5-41.5T466-145q-194 0-306 115T48 282q0 212 124.5 349T493 768q179 0 295-115t116-290q0-124-62.5-205.5T685 76q-50 0-80.5 21T565 159q-40-44-80.5-66T401 71q-69 0-102.5 59T280 284l8 55q15 102 69.5 155.5T500 548q45 0 91.5-15.5T686 486l-43-251q-9-46 3.5-68.5T692 144q56 0 95 62.5T826 363q0 145-93.5 240T493 698q-162 0-265-117T125 282q0-166 90.5-261.5T466-75q61 0 123.5 14T704-21zM372 339l-8-55q-10-67 5-103.5t54-36.5q33 0 69 27t73 80l33 196q-25 14-48 20.5t-45 6.5q-56 0-89.5-34T372 339z" glyph-name="at.case" horiz-adv-x="950"/><glyph d="M185 588v92h92v-92zm50-522q37 0 76 9.5t83 29.5l28-72q-46-21-94-32t-96-11q-96 0-148 44.5T32 159v18q0 52 17 91t56 74l34 31q29 27 40 48.5t11 56.5v19h84v-22q0-49-16-81.5T197 320l-34-31q-25-23-35.5-48T117 181v-18q0-46 31-71.5T235 66z" glyph-name="questiondown.case" horiz-adv-x="434"/><glyph d="M94 588v92h92v-92zm4-338l9 247h66l7-247V0H98z" glyph-name="exclamdown.case" horiz-adv-x="280"/><glyph d="M60 322v37q0 125 49.5 234T257 792l55-56q-85-84-126-176t-41-201v-37q0-109 41-201.5T312-55l-55-56Q159-21 109.5 88T60 322z" glyph-name="parenleft.case" horiz-adv-x="315"/><glyph d="M255 358v-37q0-125-49.5-234T58-112L2-56q86 83 127 175t41 202v37q0 109-41 201.5T2 735l56 56q98-90 147.5-199T255 358z" glyph-name="parenright.case" horiz-adv-x="315"/><glyph d="M288-30h86v-72h-89q-91 0-130 50T135 91l20 98q13 61-4 88t-66 27H20v72h65q49 0 66 27t4 88l-20 98q-19 93 20 143t130 50h89v-72h-86q-45 0-63.5-27t-8.5-75l20-98q14-67-3-111t-62-59q45-15 62-59t3-111l-20-98q-10-48 8.5-75T288-30z" glyph-name="braceleft.case" horiz-adv-x="377"/><glyph d="M221 189l20-98q20-92-19-142.5T91-102H2v72h87q45 0 63.5 27t8.5 75l-20 98q-14 67 2.5 111t61.5 59q-45 16-61.5 59T141 510l20 98q10 48-8.5 75T89 710H2v72h89q92 0 131-50.5T241 589l-20-98q-13-62 4-89t66-27h65v-72h-65q-49 0-66-27t-4-87z" glyph-name="braceright.case" horiz-adv-x="377"/><glyph d="M188-30h155v-72H106v883h237v-72H188z" glyph-name="bracketleft.case" horiz-adv-x="346"/><glyph d="M2 781h237v-883H2v72h155v739H2z" glyph-name="bracketright.case" horiz-adv-x="346"/><glyph d="M336 287H56v72h280z" glyph-name="hyphen.case" horiz-adv-x="392"/><glyph d="M536 287H56v72h480z" glyph-name="endash.case" horiz-adv-x="592"/><glyph d="M736 287H56v72h680z" glyph-name="emdash.case" horiz-adv-x="792"/><glyph d="M100 433v383h82V433zm0-570v383h82v-383z" glyph-name="brokenbar.case" horiz-adv-x="282"/><glyph d="M106-137v953h82v-953z" glyph-name="bar.case" horiz-adv-x="295"/><glyph d="M120 338l202-143v-91L38 311v53l284 204v-88zm290 0l202-143v-91L328 311v53l284 204v-88z" glyph-name="guillemotleft.case" horiz-adv-x="667"/><glyph d="M628 361v-53L344 104v87l202 142-202 143v92zm-290 0v-53L54 104v87l202 142L54 476v92z" glyph-name="guillemotright.case" horiz-adv-x="667"/><glyph d="M120 338l202-143v-91L38 311v53l284 204v-88z" glyph-name="guilsinglleft.case" horiz-adv-x="377"/><glyph d="M338 361v-53L54 104v87l202 142L54 476v92z" glyph-name="guilsinglright.case" horiz-adv-x="377"/><glyph d="M106 418H22q0 129 63.5 195.5T272 680h183L682 0h-90l-51 158H284l-10-33Q211-71 137-147t-201-76v84q95 0 151 64t109 222l151 455h-73q-87 0-127.5-44.5T106 418zm306 146l-66-210-37-117h206l-38 117z" glyph-name="A.alt" horiz-adv-x="703"/><glyph d="M100 418H16q0 128 64 195t186 67h214q93 0 142-45t49-130v-22q0-45-20-79t-58-53q52-17 80-55.5t28-92.5v-22q0-87-50.5-134T505 0H280v602h-12q-87 0-127.5-44.5T100 418zm380 182H367V385h113q49 0 75 25t26 71v24q0 46-26 70.5T480 600zm25-295H367V79h138q51 0 78.5 26.5T611 181v24q0 48-27.5 74T505 305z" glyph-name="B.alt" horiz-adv-x="759"/><glyph d="M100 418H16q0 128 64 195t186 67h225q115 0 179-69.5T734 415V266q0-127-63.5-196.5T491 0H280v602h-12q-87 0-127.5-44.5T100 418zm389 180H367V81h122q77 0 116 46.5T644 266v149q0 91-39 137t-116 46z" glyph-name="D.alt" horiz-adv-x="811"/><glyph d="M100 418H16q0 128 64 195t186 67h384v-82H367V385h253v-82H367V81h293V0H280v602h-12q-87 0-127.5-44.5T100 418z" glyph-name="E.alt" horiz-adv-x="705"/><glyph d="M100 418H16q0 128 64 195t186 67h378v-82H367V368h247v-82H367V0h-87v602h-12q-87 0-127.5-44.5T100 418z" glyph-name="F.alt" horiz-adv-x="680"/><glyph d="M329 279v77h207V8q0-120-59.5-175.5T292-223v80q91 0 127.5 34T456 8v13q-31-11-64-17t-68-6Q208-2 142 72T76 274v141q0 131 66 203t186 72q48 0 97.5-11t95.5-32l-28-75q-46 19-86 28t-78 9q-81 0-122-49t-41-145V274q0-94 42.5-145T331 78q31 0 65 7t60 19v175z" glyph-name="G.alt" horiz-adv-x="604"/><glyph d="M100 418H16q0 128 64 195t186 67h101V385h297v295h87V0h-87v303H367V0h-87v602h-12q-87 0-127.5-44.5T100 418z" glyph-name="H.alt" horiz-adv-x="857"/><glyph d="M100 418H16q0 128 64 195t186 67h108V224q0-120-59-175.5T131-7v83q84 0 120 34.5T287 224v378h-19q-87 0-127.5-44.5T100 418z" glyph-name="J.alt" horiz-adv-x="467"/><glyph d="M100 418H16q0 128 64 195t186 67h101V327q90 91 154 176.5T631 680h94q-44-86-92-157.5T521 378L757 0H651L457 321q-19-20-41-42.5T367 230V0h-87v602h-12q-87 0-127.5-44.5T100 418z" glyph-name="K.alt" horiz-adv-x="770"/><glyph d="M100 418H16q0 128 64 195t186 67h101V81h285V0H280v602h-12q-87 0-127.5-44.5T100 418z" glyph-name="L.alt" horiz-adv-x="680"/><glyph d="M266 680h116l207-504 208 504h99V0h-85v291l11 262L627 80h-82L354 555l11-264V0h-85v602h-12q-87 0-127.5-44.5T100 418H16q0 128 64 195t186 67z" glyph-name="M.alt" horiz-adv-x="1003"/><glyph d="M100 418H16q0 128 64 195t186 67h105q91-130 167.5-262T682 144l-10 260v276h85V0h-91q-87 181-160 312T359 555l6-277V0h-85v602h-12q-87 0-127.5-44.5T100 418z" glyph-name="N.alt" horiz-adv-x="864"/><glyph d="M100 418H16q0 128 64 195t186 67h226q95 0 148-50t53-139v-53q0-89-53-139.5T492 248H367V0h-87v602h-12q-87 0-127.5-44.5T100 418zm392 180H367V329h125q53 0 82 28.5t29 80.5v53q0 51-29 79t-82 28z" glyph-name="P.alt" horiz-adv-x="738"/><glyph d="M503 266H367V0h-87v602h-12q-87 0-127.5-44.5T100 418H16q0 128 64 195t186 67h227q94 0 147.5-49.5T694 495v-43q0-60-27.5-104T588 283q41-66 78-137T736 0H636q-28 68-61.5 134.5T503 266zm-10 334H367V346h126q51 0 81 28.5t30 77.5v43q0 49-29.5 77T493 600z" glyph-name="R.alt" horiz-adv-x="775"/><glyph d="M100 418H16q0 128 64 195t186 67h339v-82H406V0h-87v598h-51q-87 0-127.5-43T100 418z" glyph-name="T.alt" horiz-adv-x="618"/><glyph d="M100 418H16q0 128 64 195t186 67h102V244q0-86 36-130t106-44q71 0 106.5 44T652 244v436h90V244q0-123-59.5-188.5T510-10q-113 0-172.5 65.5T278 244v358h-10q-87 0-127.5-44.5T100 418z" glyph-name="U.alt" horiz-adv-x="834"/><glyph d="M100 418H16q0 128 64 195t186 67h70l108-345 65-218 66 219 67 216q62 198 136.5 274.5T982 903v-84q-97 0-154-65T721 532L550 0h-88L269 602h-1q-87 0-127.5-44.5T100 418z" glyph-name="V.alt" horiz-adv-x="792"/><glyph d="M351 680l59-288 49-274 157 562h81l157-560 50 272 32 160q39 187 118 269t227 82v-84q-112 0-173.5-73.5T1010 508L899 0h-89L654 556 498 0h-89L277 602h-9q-87 0-127.5-44.5T100 418H16q0 128 64 195t186 67z" glyph-name="W.alt" horiz-adv-x="1087"/><glyph d="M100 418H16q0 128 62.5 195T262 680h45l150-259 147 259h91L503 348 705 0h-98L446 276 289 0h-91l202 350-146 252q-80-3-117-47.5T100 418z" glyph-name="X.alt" horiz-adv-x="726"/><glyph d="M100 418H16q0 128 63 195t183 67h64l163-322 157 322h90L528 272V0h-87v272L272 602h-8q-85 0-124.5-44.5T100 418z" glyph-name="Y.alt" horiz-adv-x="746"/><glyph d="M106 418H22q0 129 63.5 195.5T272 680h183L682 0h-90l-51 158H284l-10-33Q211-71 137-147t-201-76v84q95 0 151 64t109 222l151 455h-73q-87 0-127.5-44.5T106 418zm306 146l-66-210-37-117h206l-38 117zm136 330l-97-130h-71l90 166z" glyph-name="Aacute.alt" horiz-adv-x="703"/><glyph d="M106 418H22q0 129 63.5 195.5T272 680h183L682 0h-90l-51 158H284l-10-33Q211-71 137-147t-201-76v84q95 0 151 64t109 222l151 455h-73q-87 0-127.5-44.5T106 418zm306 146l-66-210-37-117h206l-38 117zm136 200h-69l-67 95-67-95h-65l93 161h82z" glyph-name="Acircumflex.alt" horiz-adv-x="703"/><glyph d="M106 418H22q0 129 63.5 195.5T272 680h183L682 0h-90l-51 158H284l-10-33Q211-71 137-147t-201-76v84q95 0 151 64t109 222l151 455h-73q-87 0-127.5-44.5T106 418zm306 146l-66-210-37-117h206l-38 117zm-51 326v-86h-86v86zm191 0v-86h-86v86z" glyph-name="Adieresis.alt" horiz-adv-x="703"/><glyph d="M106 418H22q0 129 63.5 195.5T272 680h183L682 0h-90l-51 158H284l-10-33Q211-71 137-147t-201-76v84q95 0 151 64t109 222l151 455h-73q-87 0-127.5-44.5T106 418zm306 146l-66-210-37-117h206l-38 117zm38 200h-71l-98 130 79 36z" glyph-name="Agrave.alt" horiz-adv-x="703"/><glyph d="M172 158l-3-11Q102-65 27-144t-203-79v84q95 0 151 64T84 147l163 489q-27 13-42.5 39T189 734v11q0 49 31 78.5t83 29.5q51 0 82.5-30t31.5-78v-11q0-34-15.5-59.5T358 636L570 0h-89l-52 158zm185 576v11q0 24-15 38.5T303 798q-25 0-40-14.5T248 745v-11q0-25 15-39.5t40-14.5q24 0 39 15t15 39zm-57-170l-66-210-37-117h206l-38 117z" glyph-name="Aring.alt" horiz-adv-x="592"/><glyph d="M106 418H22q0 129 63.5 195.5T272 680h183L682 0h-90l-51 158H284l-10-33Q211-71 137-147t-201-76v84q95 0 151 64t109 222l151 455h-73q-87 0-127.5-44.5T106 418zm306 146l-66-210-37-117h206l-38 117zm63 209q-21 0-38.5 10T395 824q-15 20-23 25.5t-16 5.5q-13 0-18.5-17t-5.5-53h-63q1 68 22.5 103t62.5 35q21 0 38.5-10.5T434 871q15-19 23-25t16-6q13 0 18.5 17t6.5 53h63q-1-69-22.5-103T475 773z" glyph-name="Atilde.alt" horiz-adv-x="703"/><glyph d="M106 418H22q0 129 63.5 195.5T272 680h183L682 0h-90l-51 158H284l-10-33Q211-71 137-147t-201-76v84q95 0 151 64t109 222l151 455h-73q-87 0-127.5-44.5T106 418zm306 146l-66-210-37-117h206l-38 117zm3 269q32 0 47 20t18 63h66q-5-72-38.5-109T415 770q-60 0-93 37t-38 109h65q3-43 18.5-63t47.5-20z" glyph-name="Abreve.alt" horiz-adv-x="703"/><glyph d="M106 418H22q0 129 63.5 195.5T272 680h183L682 0h-90l-51 158H284l-10-33Q211-71 137-147t-201-76v84q95 0 151 64t109 222l151 455h-73q-87 0-127.5-44.5T106 418zm306 146l-66-210-37-117h206l-38 117zM271 857h286v-63H271z" glyph-name="Amacron.alt" horiz-adv-x="703"/><glyph d="M106 418H22q0 129 63.5 195.5T272 680h183L682 0q-59-45-82-72t-23-51q0-16 9.5-24t27.5-8q12 0 25.5 3t27.5 9l15-63q-21-9-40.5-13t-38.5-4q-47 0-74 23.5T502-136q0 33 21.5 65.5T592 1l-51 157H284l-3-11Q213-65 138.5-144T-64-223v84q95 0 151 64t109 222l151 455h-73q-87 0-127.5-44.5T106 418zm306 146l-66-210-37-117h206l-38 117z" glyph-name="Aogonek.alt" horiz-adv-x="703"/><glyph d="M100 418H16q0 128 64 195t186 67h225q115 0 179-69.5T734 415V266q0-127-63.5-196.5T491 0H280v602h-12q-87 0-127.5-44.5T100 418zm389 180H367V81h122q77 0 116 46.5T644 266v149q0 91-39 137t-116 46zm66 327h65l-93-161h-82l-93 161h69l67-95z" glyph-name="Dcaron.alt" horiz-adv-x="811"/><glyph d="M100 418H16q0 128 64 195t186 67h384v-82H367V385h253v-82H367V81h293V0H280v602h-12q-87 0-127.5-44.5T100 418zm497 476l-97-130h-71l90 166z" glyph-name="Eacute.alt" horiz-adv-x="705"/><glyph d="M100 418H16q0 128 64 195t186 67h384v-82H367V385h253v-82H367V81h293V0H280v602h-12q-87 0-127.5-44.5T100 418zm498 346h-69l-67 95-67-95h-65l93 161h82z" glyph-name="Ecircumflex.alt" horiz-adv-x="705"/><glyph d="M100 418H16q0 128 64 195t186 67h384v-82H367V385h253v-82H367V81h293V0H280v602h-12q-87 0-127.5-44.5T100 418zm311 472v-86h-86v86zm191 0v-86h-86v86z" glyph-name="Edieresis.alt" horiz-adv-x="705"/><glyph d="M100 418H16q0 128 64 195t186 67h384v-82H367V385h253v-82H367V81h293V0H280v602h-12q-87 0-127.5-44.5T100 418zm399 346h-71l-98 130 79 36z" glyph-name="Egrave.alt" horiz-adv-x="705"/><glyph d="M100 418H16q0 128 64 195t186 67h384v-82H367V385h253v-82H367V81h293V0H280v602h-12q-87 0-127.5-44.5T100 418zm364 415q32 0 47 20t18 63h66q-5-72-38.5-109T464 770q-60 0-93 37t-38 109h65q3-43 18.5-63t47.5-20z" glyph-name="Ebreve.alt" horiz-adv-x="705"/><glyph d="M100 418H16q0 128 64 195t186 67h384v-82H367V385h253v-82H367V81h293V0H280v602h-12q-87 0-127.5-44.5T100 418zm433 507h65l-93-161h-82l-93 161h69l67-95z" glyph-name="Ecaron.alt" horiz-adv-x="705"/><glyph d="M100 418H16q0 128 64 195t186 67h384v-82H367V385h253v-82H367V81h293V0H280v602h-12q-87 0-127.5-44.5T100 418zm410 475v-92h-92v92z" glyph-name="Edotaccent.alt" horiz-adv-x="705"/><glyph d="M100 418H16q0 128 64 195t186 67h384v-82H367V385h253v-82H367V81h293V0H280v602h-12q-87 0-127.5-44.5T100 418zm221 439h286v-63H321z" glyph-name="Emacron.alt" horiz-adv-x="705"/><glyph d="M100 418H16q0 128 64 195t186 67h384v-82H367V385h253v-82H367V81h293V0q-58-46-81.5-73T555-123q0-16 9.5-24t27.5-8q12 0 25.5 3t27.5 9l15-63q-21-9-40.5-13t-38.5-4q-47 0-74 23.5T480-136q0 33 21.5 65T572 0H280v602h-12q-87 0-127.5-44.5T100 418z" glyph-name="Eogonek.alt" horiz-adv-x="705"/><glyph d="M329 279v77h207V8q0-120-59.5-175.5T292-223v80q91 0 127.5 34T456 8v13q-31-11-64-17t-68-6Q208-2 142 72T76 274v141q0 131 66 203t186 72q48 0 97.5-11t95.5-32l-28-75q-46 19-86 28t-78 9q-81 0-122-49t-41-145V274q0-94 42.5-145T331 78q31 0 65 7t60 19v175zm0 554q32 0 47 20t18 63h66q-5-72-38.5-109T329 770q-60 0-93 37t-38 109h65q3-43 18.5-63t47.5-20z" glyph-name="Gbreve.alt" horiz-adv-x="604"/><glyph d="M329 279v77h207V8q0-120-59.5-175.5T292-223v80q91 0 127.5 34T456 8v13q-31-11-64-17t-68-6Q208-2 142 72T76 274v141q0 131 66 203t186 72q48 0 97.5-11t95.5-32l-28-75q-46 19-86 28t-78 9q-81 0-122-49t-41-145V274q0-94 42.5-145T331 78q31 0 65 7t60 19v175zm133 485h-69l-67 95-67-95h-65l93 161h82z" glyph-name="Gcircumflex.alt" horiz-adv-x="604"/><glyph d="M329 279v77h207V8q0-120-59.5-175.5T292-223v80q91 0 127.5 34T456 8v13q-31-11-64-17t-68-6Q208-2 142 72T76 274v141q0 131 66 203t186 72q48 0 97.5-11t95.5-32l-28-75q-46 19-86 28t-78 9q-81 0-122-49t-41-145V274q0-94 42.5-145T331 78q31 0 65 7t60 19v175zm45 614v-92h-92v92z" glyph-name="Gdotaccent.alt" horiz-adv-x="604"/><glyph d="M100 418H16q0 128 64 195t186 67h101V385h297v295h87V0h-87v303H367V0h-87v602h-12q-87 0-127.5-44.5T100 418zm549 346h-69l-67 95-67-95h-65l93 161h82z" glyph-name="Hcircumflex.alt" horiz-adv-x="857"/><glyph d="M100 418H16q0 128 64 195t186 67h108V224q0-120-59-175.5T131-7v83q84 0 120 34.5T287 224v378h-19q-87 0-127.5-44.5T100 418zm363 346h-69l-67 95-67-95h-65l93 161h82z" glyph-name="Jcircumflex.alt" horiz-adv-x="467"/><glyph d="M100 418H16q0 128 64 195t186 67h101V327q90 91 154 176.5T631 680h94q-44-86-92-157.5T521 378L757 0H651L457 321q-19-20-41-42.5T367 230V0h-87v602h-12q-87 0-127.5-44.5T100 418zM544-77l-70-171-50 14 31 157z" glyph-name="Kcommaaccent.alt" horiz-adv-x="770"/><glyph d="M100 418H16q0 128 64 195t186 67h101V81h285V0H280v602h-12q-87 0-127.5-44.5T100 418zm361 476l-97-130h-71l90 166z" glyph-name="Lacute.alt" horiz-adv-x="680"/><glyph d="M100 418H16q0 128 64 195t186 67h101V81h285V0H280v602h-12q-87 0-127.5-44.5T100 418zm436 262l-29-194h-55v194z" glyph-name="Lcaron.alt" horiz-adv-x="680"/><glyph d="M100 418H16q0 128 64 195t186 67h101V81h285V0H280v602h-12q-87 0-127.5-44.5T100 418zM512-77l-70-171-50 14 31 157z" glyph-name="Lcommaaccent.alt" horiz-adv-x="680"/><glyph d="M100 418H16q0 128 64 195t186 67h105q91-130 167.5-262T682 144l-10 260v276h85V0h-91q-87 181-160 312T359 555l6-277V0h-85v602h-12q-87 0-127.5-44.5T100 418zm479 355q-21 0-38.5 10T499 824q-15 20-23 25.5t-16 5.5q-13 0-18.5-17t-5.5-53h-63q1 68 22.5 103t62.5 35q21 0 38.5-10.5T538 871q15-19 23-25t16-6q13 0 18.5 17t6.5 53h63q-1-69-22.5-103T579 773z" glyph-name="Ntilde.alt" horiz-adv-x="864"/><glyph d="M100 418H16q0 128 64 195t186 67h105q91-130 167.5-262T682 144l-10 260v276h85V0h-91q-87 181-160 312T359 555l6-277V0h-85v602h-12q-87 0-127.5-44.5T100 418zm552 476l-97-130h-71l90 166z" glyph-name="Nacute.alt" horiz-adv-x="864"/><glyph d="M100 418H16q0 128 64 195t186 67h105q91-130 167.5-262T682 144l-10 260v276h85V0h-91q-87 181-160 312T359 555l6-277V0h-85v602h-12q-87 0-127.5-44.5T100 418zm487 507h65l-93-161h-82l-93 161h69l67-95z" glyph-name="Ncaron.alt" horiz-adv-x="864"/><glyph d="M100 418H16q0 128 64 195t186 67h105q91-130 167.5-262T682 144l-10 260v276h85V0h-91q-87 181-160 312T359 555l6-277V0h-85v602h-12q-87 0-127.5-44.5T100 418zM563-77l-70-171-50 14 31 157z" glyph-name="Ncommaaccent.alt" horiz-adv-x="864"/><glyph d="M672 404v276h85V8q0-120-59-175.5T514-223v84q83 0 119 31.5T672-3q-75 155-153 294.5T359 554l6-276V0h-85v602h-12q-87 0-127.5-44.5T100 418H16q0 128 64 195t186 67h105q92-131 168.5-260.5T682 154z" glyph-name="Eng.alt" horiz-adv-x="864"/><glyph d="M503 266H367V0h-87v602h-12q-87 0-127.5-44.5T100 418H16q0 128 64 195t186 67h227q94 0 147.5-49.5T694 495v-43q0-60-27.5-104T588 283q41-66 78-137T736 0H636q-28 68-61.5 134.5T503 266zm-10 334H367V346h126q51 0 81 28.5t30 77.5v43q0 49-29.5 77T493 600zm115 294l-97-130h-71l90 166z" glyph-name="Racute.alt" horiz-adv-x="775"/><glyph d="M503 266H367V0h-87v602h-12q-87 0-127.5-44.5T100 418H16q0 128 64 195t186 67h227q94 0 147.5-49.5T694 495v-43q0-60-27.5-104T588 283q41-66 78-137T736 0H636q-28 68-61.5 134.5T503 266zm-10 334H367V346h126q51 0 81 28.5t30 77.5v43q0 49-29.5 77T493 600zm50 325h65l-93-161h-82l-93 161h69l67-95z" glyph-name="Rcaron.alt" horiz-adv-x="775"/><glyph d="M503 266H367V0h-87v602h-12q-87 0-127.5-44.5T100 418H16q0 128 64 195t186 67h227q94 0 147.5-49.5T694 495v-43q0-60-27.5-104T588 283q41-66 78-137T736 0H636q-28 68-61.5 134.5T503 266zm-10 334H367V346h126q51 0 81 28.5t30 77.5v43q0 49-29.5 77T493 600zm48-677l-70-171-50 14 31 157z" glyph-name="Rcommaaccent.alt" horiz-adv-x="775"/><glyph d="M536 365v-70H406V0h-87v295H190v70h129v233h-51q-87 0-127.5-43T100 418H16q0 128 64 195t186 67h339v-82H406V365z" glyph-name="Tbar.alt" horiz-adv-x="618"/><glyph d="M100 418H16q0 128 64 195t186 67h339v-82H406V0h-87v598h-51q-87 0-127.5-43T100 418zm331 507h65l-93-161h-82l-93 161h69l67-95z" glyph-name="Tcaron.alt" horiz-adv-x="618"/><glyph d="M100 418H16q0 128 64 195t186 67h339v-82H406V0h-87v598h-51q-87 0-127.5-43T100 418zM408-77l-70-171-50 14 31 157z" glyph-name="uni0162.alt" horiz-adv-x="618"/><glyph d="M100 418H16q0 128 64 195t186 67h339v-82H406V0h-87v598h-51q-87 0-127.5-43T100 418zM408-77l-70-171-50 14 31 157z" glyph-name="uni021A.alt" horiz-adv-x="618"/><glyph d="M100 418H16q0 128 64 195t186 67h102V244q0-86 36-130t106-44q71 0 106.5 44T652 244v436h90V244q0-123-59.5-188.5T510-10q-113 0-172.5 65.5T278 244v358h-10q-87 0-127.5-44.5T100 418zm543 476l-97-130h-71l90 166z" glyph-name="Uacute.alt" horiz-adv-x="834"/><glyph d="M100 418H16q0 128 64 195t186 67h102V244q0-86 36-130t106-44q71 0 106.5 44T652 244v436h90V244q0-123-59.5-188.5T510-10q-113 0-172.5 65.5T278 244v358h-10q-87 0-127.5-44.5T100 418zm544 346h-69l-67 95-67-95h-65l93 161h82z" glyph-name="Ucircumflex.alt" horiz-adv-x="834"/><glyph d="M100 418H16q0 128 64 195t186 67h102V244q0-86 36-130t106-44q71 0 106.5 44T652 244v436h90V244q0-123-59.5-188.5T510-10q-113 0-172.5 65.5T278 244v358h-10q-87 0-127.5-44.5T100 418zm357 472v-86h-86v86zm191 0v-86h-86v86z" glyph-name="Udieresis.alt" horiz-adv-x="834"/><glyph d="M100 418H16q0 128 64 195t186 67h102V244q0-86 36-130t106-44q71 0 106.5 44T652 244v436h90V244q0-123-59.5-188.5T510-10q-113 0-172.5 65.5T278 244v358h-10q-87 0-127.5-44.5T100 418zm445 346h-71l-98 130 79 36z" glyph-name="Ugrave.alt" horiz-adv-x="834"/><glyph d="M100 418H16q0 128 64 195t186 67h102V244q0-86 36-130t106-44q71 0 106.5 44T652 244v436h90V244q0-123-59.5-188.5T510-10q-113 0-172.5 65.5T278 244v358h-10q-87 0-127.5-44.5T100 418zm410 415q32 0 47 20t18 63h66q-5-72-38.5-109T510 770q-60 0-93 37t-38 109h65q3-43 18.5-63t47.5-20z" glyph-name="Ubreve.alt" horiz-adv-x="834"/><glyph d="M100 418H16q0 128 64 195t186 67h102V244q0-86 36-130t106-44q71 0 106.5 44T652 244v436h90V244q0-123-59.5-188.5T510-10q-113 0-172.5 65.5T278 244v358h-10q-87 0-127.5-44.5T100 418zm457 476l-82-130h-67l82 166zm138 0l-82-130h-67l82 166z" glyph-name="Uhungarumlaut.alt" horiz-adv-x="834"/><glyph d="M100 418H16q0 128 64 195t186 67h102V244q0-86 36-130t106-44q71 0 106.5 44T652 244v436h90V244q0-123-59.5-188.5T510-10q-113 0-172.5 65.5T278 244v358h-10q-87 0-127.5-44.5T100 418zm267 439h286v-63H367z" glyph-name="Umacron.alt" horiz-adv-x="834"/><glyph d="M100 418H16q0 128 64 195t186 67h102V244q0-86 36-130t106-44q71 0 106.5 44T652 244v436h90V244q0-68-17-117t-52-81Q595-28 566-63.5T537-123q0-16 9.5-24t28.5-8q11 0 24.5 3t28.5 9l14-63q-20-9-39.5-13t-38.5-4q-47 0-74 23.5T463-136q0 29 16 59t52 68q-4-1-8-1h-13q-113 0-172.5 65.5T278 244v358h-10q-87 0-127.5-44.5T100 418z" glyph-name="Uogonek.alt" horiz-adv-x="834"/><glyph d="M100 418H16q0 128 64 195t186 67h102V244q0-86 36-130t106-44q71 0 106.5 44T652 244v436h90V244q0-123-59.5-188.5T510-10q-113 0-172.5 65.5T278 244v358h-10q-87 0-127.5-44.5T100 418zm410 558q51 0 82.5-30t31.5-78v-11q0-49-31.5-79T510 748q-52 0-83 30t-31 79v11q0 49 31 78.5t83 29.5zm54-119v11q0 24-15 38.5T510 921q-25 0-40-14.5T455 868v-11q0-25 15-39.5t40-14.5q24 0 39 15t15 39z" glyph-name="Uring.alt" horiz-adv-x="834"/><glyph d="M100 418H16q0 128 64 195t186 67h102V244q0-86 36-130t106-44q71 0 106.5 44T652 244v436h90V244q0-123-59.5-188.5T510-10q-113 0-172.5 65.5T278 244v358h-10q-87 0-127.5-44.5T100 418zm470 355q-21 0-38.5 10T490 824q-15 20-23 25.5t-16 5.5q-13 0-18.5-17t-5.5-53h-63q1 68 22.5 103t62.5 35q21 0 38.5-10.5T529 871q15-19 23-25t16-6q13 0 18.5 17t6.5 53h63q-1-69-22.5-103T570 773z" glyph-name="Utilde.alt" horiz-adv-x="834"/><glyph d="M351 680l59-288 49-274 157 562h81l157-560 50 272 32 160q39 187 118 269t227 82v-84q-112 0-173.5-73.5T1010 508L899 0h-89L654 556 498 0h-89L277 602h-9q-87 0-127.5-44.5T100 418H16q0 128 64 195t186 67zm436 214l-97-130h-71l90 166z" glyph-name="Wacute.alt" horiz-adv-x="1087"/><glyph d="M351 680l59-288 49-274 157 562h81l157-560 50 272 32 160q39 187 118 269t227 82v-84q-112 0-173.5-73.5T1010 508L899 0h-89L654 556 498 0h-89L277 602h-9q-87 0-127.5-44.5T100 418H16q0 128 64 195t186 67zm437 84h-69l-67 95-67-95h-65l93 161h82z" glyph-name="Wcircumflex.alt" horiz-adv-x="1087"/><glyph d="M351 680l59-288 49-274 157 562h81l157-560 50 272 32 160q39 187 118 269t227 82v-84q-112 0-173.5-73.5T1010 508L899 0h-89L654 556 498 0h-89L277 602h-9q-87 0-127.5-44.5T100 418H16q0 128 64 195t186 67zm250 210v-86h-86v86zm191 0v-86h-86v86z" glyph-name="Wdieresis.alt" horiz-adv-x="1087"/><glyph d="M351 680l59-288 49-274 157 562h81l157-560 50 272 32 160q39 187 118 269t227 82v-84q-112 0-173.5-73.5T1010 508L899 0h-89L654 556 498 0h-89L277 602h-9q-87 0-127.5-44.5T100 418H16q0 128 64 195t186 67zm338 84h-71l-98 130 79 36z" glyph-name="Wgrave.alt" horiz-adv-x="1087"/><glyph d="M100 418H16q0 128 63 195t183 67h64l163-322 157 322h90L528 272V0h-87v272L272 602h-8q-85 0-124.5-44.5T100 418zm519 476l-97-130h-71l90 166z" glyph-name="Yacute.alt" horiz-adv-x="746"/><glyph d="M100 418H16q0 128 63 195t183 67h64l163-322 157 322h90L528 272V0h-87v272L272 602h-8q-85 0-124.5-44.5T100 418zm333 472v-86h-86v86zm191 0v-86h-86v86z" glyph-name="Ydieresis.alt" horiz-adv-x="746"/><glyph d="M100 418H16q0 128 63 195t183 67h64l163-322 157 322h90L528 272V0h-87v272L272 602h-8q-85 0-124.5-44.5T100 418zm519 346h-69l-67 95-67-95h-65l93 161h82z" glyph-name="Ycircumflex.alt" horiz-adv-x="746"/><glyph d="M100 418H16q0 128 63 195t183 67h64l163-322 157 322h90L528 272V0h-87v272L272 602h-8q-85 0-124.5-44.5T100 418zm421 346h-71l-98 130 79 36z" glyph-name="Ygrave.alt" horiz-adv-x="746"/></font>
</defs>
</svg>
