<svg version="1.0" xmlns="http://www.w3.org/2000/svg" width="1706.667" height="1066.667" viewBox="0 0 1280 800"><defs><linearGradient id="a" x1="0%" y1="0%" x2="100%" y2="100%"><stop offset="0%" stop-color="#0e572b"/><stop offset="100%" stop-color="#38ef7d"/></linearGradient></defs><path d="M2 5228c2-1525 5-2630 8-2454l5 318 90-113c500-630 957-1109 1370-1435 893-707 1737-874 2502-497 125 61 267 151 422 267 118 87 196 130 325 175 302 107 720 161 1241 161 236 0 278-4 670-65 582-91 823-115 1145-115 388 0 643 46 1700 305 300 73 608 147 685 164 440 95 762 121 1026 85 152-21 413-20 554 1 336 50 669 178 967 373l88 57v5545H0l2-2772z" transform="matrix(.1 0 0 -.1 0 800)" fill="url(#a)"/></svg>