<svg xmlns="http://www.w3.org/2000/svg"><defs><font horiz-adv-x="0" id="font"><font-face ascent="650" bbox="-221 -238 1368 974" cap-height="680" descent="-200" font-family="Inria Serif Light" font-style="normal" font-weight="680" x-height="487"/><glyph glyph-name=".null" horiz-adv-x="0"/><glyph glyph-name="CR" horiz-adv-x="0"/><glyph glyph-name="space" horiz-adv-x="230"/><glyph glyph-name="uni00A0" horiz-adv-x="230"/><glyph d="M99 30l54-5-4-25H-43l4 25 56 5q17 2 23 8.5T63 79l301 601h47l91-601q5-34 8.5-40.5T529 30l54-5-4-25H361l4 25 56 5q17 2 19.5 9T438 79l-20 131H165L100 79Q84 46 83.5 39T99 30zm261 570L180 240h234z" glyph-name="A" horiz-adv-x="622" unicode="A"/><glyph d="M179 650l-55 5 5 25h265q82 0 126-47t32-121l-4-26q-8-52-42-87.5T417 349q60-14 88.5-56T525 190l-4-26q-12-76-69-120T309 0H9l4 25 56 5q17 2 21 8.5T100 79l92 522q6 34 4.5 40.5T179 650zm215 0H266l-51-290h127q56 0 91 30t45 86l8 46q11 61-13 94.5T394 650zm-32-320H209L156 30h153q58 0 94.5 32t47.5 92l8 46q11 62-14.5 96T362 330z" glyph-name="B" horiz-adv-x="598" unicode="B"/><glyph d="M284-10q-116 0-166.5 84.5T92 309l12 73q24 147 99.5 227.5T394 690q101 0 148.5-61.5T561 483l-68-16q27 93 1 143t-101 50q-85 0-136-56.5T186 432l-30-173q-21-122 11-180.5T287 20q60 0 102.5 33.5T450 150l56-19q-33-70-89-105.5T284-10z" glyph-name="C" horiz-adv-x="579" unicode="C"/><glyph d="M179 650l-55 5 5 25h252q121 0 180-86t35-222l-13-73Q558 159 480.5 79.5T291 0H9l4 25 56 5q17 2 21 8.5T100 79l92 522q6 34 4.5 40.5T179 650zm202 0H266L156 30h134q84 0 138 56t73 163l31 173q19 109-20 168.5T381 650z" glyph-name="D" horiz-adv-x="653" unicode="D"/><glyph d="M481 157h24L477 0H9l4 25 56 5q17 2 21 8.5T100 79l92 522q6 34 4.5 40.5T179 650l-55 5 5 25h454l-28-157h-24l-9 101q-2 19-10 22.5t-39 3.5H265l-51-291h148q33 0 42 3.5t17 22.5l29 71h24l-39-224h-24l-5 71q-1 19-8.5 22.5T357 329H209L157 30h220q32 0 41.5 3.5T436 56z" glyph-name="E" horiz-adv-x="565" unicode="E"/><glyph d="M178 30l74-5-4-25H9l4 25 56 5q17 2 21 8.5T100 79l92 522q6 34 4.5 40.5T179 650l-55 5 5 25h446l-28-157h-25l-9 101q-2 19-10 22.5t-39 3.5H266l-54-302h138q33 0 42 3.5t17 22.5l29 71h25l-39-224h-25l-5 71q-1 19-8.5 22.5T345 318H207L165 79q-6-36-4.5-42t17.5-7z" glyph-name="F" horiz-adv-x="537" unicode="F"/><glyph d="M497 12h-22q-3 12-9 23.5T451 57q-32-34-74-50.5T283-10q-116 0-166 85T92 309l12 73q24 146 102 227t196 81q106 0 155.5-60.5T578 483l-68-16q27 95-.5 144T401 660q-88 0-141.5-57T186 432l-30-173q-21-122 11-180.5T286 20q57 0 100 22.5t66 64.5l22 122q7 34 5 41t-19 8l-74 5 4 25h236l-4-25-56-5q-16-2-20-9.5T536 229z" glyph-name="G" horiz-adv-x="640" unicode="G"/><glyph d="M178 30l54-5-4-25H9l4 25 56 5q17 2 21 8.5T100 79l92 522q6 34 4.5 40.5T179 650l-55 5 5 25h219l-5-25-55-5q-17-2-21-8.5T257 601l-43-242h328l43 242q6 34 4.5 40.5T572 650l-55 5 5 25h219l-5-25-55-5q-17-2-21-8.5T650 601L558 79q-6-34-4.5-40.5T571 30l54-5-4-25H402l4 25 56 5q17 2 21 8.5T493 79l44 250H209L165 79q-6-34-4.5-40.5T178 30z" glyph-name="H" horiz-adv-x="716" unicode="H"/><glyph d="M179 650l-55 5 5 25h219l-5-25-55-5q-17-2-21-8.5T257 601L165 79q-6-34-4.5-40.5T178 30l54-5-4-25H9l4 25 56 5q17 2 21 8.5T100 79l92 522q6 34 4.5 40.5T179 650z" glyph-name="I" horiz-adv-x="323" unicode="I"/><glyph d="M320 650l-55 5 5 25h219l-5-25-55-5q-17-2-21-8.5T398 601l-70-399q-18-101-70.5-156.5T124-10q-65 0-98.5 36T-3 129l58 18q-8-63 9.5-95T124 20q56 0 89 44t50 138l70 399q6 33 4.5 40t-17.5 9z" glyph-name="J" horiz-adv-x="452" unicode="J"/><glyph d="M178 30l54-5-4-25H9l4 25 56 5q17 2 21 8.5T100 79l92 523q6 33 4.5 40t-17.5 9l-54 5 4 24h219l-4-24-56-5q-17-2-21-8.5T257 602l-53-300 307 310q23 24 26 30.5t-14 8.5l-48 5 4 24h188l-4-24-50-5q-13-1-19-4.5T557 612L349 402 493 79q15-33 20.5-40t21.5-9l49-5-4-25H452L300 352 194 246 165 79q-6-33-4.5-40t17.5-9z" glyph-name="K" horiz-adv-x="636" unicode="K"/><glyph d="M454 161h25L450 0H9l4 25 56 5q17 2 21 8.5T100 79l92 522q6 34 4.5 40.5T179 650l-55 5 5 25h219l-5-25-55-5q-17-2-21-8.5T257 601L156 30h193q32 0 41.5 3.5T408 56z" glyph-name="L" horiz-adv-x="504" unicode="L"/><glyph d="M129 680h162l121-524 302 524h164l-5-25-55-5q-17-2-21-9.5T787 601L695 79q-6-33-4.5-40t17.5-9l54-5-4-25H539l4 25 56 5q17 2 21 9.5T630 79l99 559L405 80h-42L232 647 135 79q-6-33-4.5-40t17.5-9l54-5-4-25H9l4 25 56 5q16 2 21 10.5T100 79l92 522q6 33 4.5 40t-17.5 9l-55 5z" glyph-name="M" horiz-adv-x="853" unicode="M"/><glyph d="M179 650l-55 5 5 25h150l233-571 87 492q6 33 4.5 40t-17.5 9l-55 5 5 25h189l-5-25-55-5q-17-2-21-8.5T634 601L528 0h-39L232 629 135 79q-6-33-4.5-40t17.5-9l54-5-4-25H9l4 25 56 5q17 2 21 8.5T100 79l92 522q6 33 4.5 40t-17.5 9z" glyph-name="N" horiz-adv-x="695" unicode="N"/><glyph d="M393 690q120 0 178.5-89.5T605 372l-13-73Q566 153 490 71.5T303-10q-121 0-179 88.5T91 309l13 73q25 144 101.5 226T393 690zm117-441l31 173q20 112-18.5 175T394 660q-82 0-135-58t-73-170l-31-173q-21-113 18-176t129-63q82 0 135 58t73 171z" glyph-name="O" horiz-adv-x="662" unicode="O"/><glyph d="M179 650l-55 5 5 25h267q89 0 135-51.5T562 495l-6-33q-15-84-71-128t-148-44H202L165 79q-6-36-4.5-42t17.5-7l74-5-4-25H9l4 25 56 5q17 2 21 8.5T100 79l92 522q6 34 4.5 40.5T179 650zm217 0H266l-58-330h129q64 0 100.5 32.5T486 452l9 53q12 74-12 109.5T396 650z" glyph-name="P" horiz-adv-x="558" unicode="P"/><glyph d="M325-9q13-55 50-77.5T494-109l-1-64q-80 0-132 42T292-10Q176-6 121.5 82.5T91 309l13 73q25 144 101.5 226T393 690q120 0 178.5-89.5T605 372l-13-73q-24-137-94.5-218.5T325-9zm185 258l31 173q20 112-18.5 175T394 660q-82 0-135-58t-73-170l-31-173q-21-113 18-176t129-63q82 0 135 58t73 171z" glyph-name="Q" horiz-adv-x="662" unicode="Q"/><glyph d="M179 650l-55 5 5 25h254q92 0 137.5-48T553 504l-6-35q-10-63-51.5-103.5T388 313l89-234q13-33 18-40t21-9l44-5-4-25H433L322 308H205L165 79q-6-33-4.5-40t17.5-9l54-5-4-25H9l4 25 56 5q17 2 21 8.5T100 79l92 522q6 33 4.5 40t-17.5 9zm207 0H266l-55-312h119q57 0 98 36t51 95l6 35q12 67-15 106.5T386 650z" glyph-name="R" horiz-adv-x="608" unicode="R"/><glyph d="M476 196q0-90-65.5-148T235-10q-93 0-144.5 46.5T34 173l58 18q-2-86 34-128.5T238 20q83 0 129 39.5T413 168q0 50-27 81.5T296 305l-63 24q-66 25-98 67t-32 103q0 85 59.5 138T324 690q110 0 161.5-61T507 483l-66-16q27 95-2.5 144.5T323 661q-74 0-115.5-38T166 517q0-48 26-78t86-53l63-24q70-27 102.5-67t32.5-99z" glyph-name="S" horiz-adv-x="540" unicode="S"/><glyph d="M88 523H63l28 157h521l-28-157h-25l-9 101q-2 19-10 22.5t-39 3.5H379L278 79q-6-34-4.5-40.5T291 30l54-5-4-25H122l4 25 56 5q17 2 21 8.5T213 79l101 571H192q-32 0-41.5-3.5T133 624z" glyph-name="T" horiz-adv-x="549" unicode="T"/><glyph d="M573 650l-55 5 5 25h189l-5-25-55-5q-17-2-21-9.5T621 601l-65-370q-21-119-84.5-180T305-10q-112 0-161.5 69T116 251l62 350q6 33 4.5 40t-17.5 9l-55 5 5 25h219l-5-25-55-5q-17-2-21-9.5T243 601l-65-370q-19-108 12.5-159.5T308 20q86 0 140.5 54T521 231l65 370q6 33 4.5 40t-17.5 9z" glyph-name="U" horiz-adv-x="673" unicode="U"/><glyph d="M596 611L291 0h-55l-89 611q-2 14-3 19t-2 8q-2 6-5.5 8.5T121 650l-49 5 5 25h206l-5-25-49-5q-17-2-19.5-7.5T211 611l77-545 271 545q13 26 12.5 31.5T555 650l-49 5 5 25h178l-5-25-49-5q-16-2-21-7.5T596 611z" glyph-name="V" horiz-adv-x="612" unicode="V"/><glyph d="M639 0h-50l-70 590L238 0h-51l-43 611q-2 26-5 31.5t-18 7.5l-49 5 5 25h202l-5-25-49-5q-17-2-19.5-7.5T205 611l37-525 281 594h48l70-590 220 521q11 26 10.5 31.5T855 650l-49 5 5 25h177l-5-25-49-5q-16-2-21-8t-15-31z" glyph-name="W" horiz-adv-x="911" unicode="W"/><glyph d="M98 30l48-5-4-25H-41l4 25 50 5q16 2 22.5 7.5T63 69l213 271-109 271q-11 26-15.5 31.5T133 650l-49 5 5 25h210l-5-25-49-5q-17-2-18-7.5t9-31.5l90-223 174 223q20 26 21 31.5t-14 7.5l-49 5 5 25h183l-5-25-49-5q-16-2-22.5-7.5T542 611L340 353 454 69q10-25 15-31t20-8l48-5-4-25H323l4 25 50 5q17 2 18 7.5T386 69l-96 237L105 69Q85 43 84 37.5T98 30z" glyph-name="X" horiz-adv-x="583" unicode="X"/><glyph d="M302 30l54-5-4-25H133l4 25 56 5q16 2 20 7t7 22l41 231-106 321q-8 25-13 31t-21 8l-49 5 5 25h211l-5-25-49-5q-16-2-17.5-7.5T224 611l91-283 192 283q17 26 18 31.5t-14 7.5l-49 5 5 25h180l-5-25-49-5q-17-1-23.5-6.5T545 611L326 289 289 79q-6-34-4.5-40.5T302 30z" glyph-name="Y" horiz-adv-x="570" unicode="Y"/><glyph d="M441 157h25L438 0H-2l4 20 461 630H229q-32 0-41.5-3.5T170 624l-45-101h-25l28 157h420l-4-20L83 30h254q32 0 41.5 3.5T396 56z" glyph-name="Z" horiz-adv-x="522" unicode="Z"/><glyph d="M454 650l-55 5 5 25h490l-28-157h-24l-9 101q-2 19-10 22.5t-39 3.5H575l-51-291h148q33 0 42 3.5t17 22.5l29 71h24l-39-224h-24l-5 71q-1 19-8.5 22.5T667 329H519L467 30h217q32 0 41.5 3.5T743 56l45 101h24L784 0H319l4 25 56 5q17 2 21 8.5T410 79l23 131H205L112 79Q88 46 86.5 39t14.5-9l54-5-4-25H-43l4 25 56 5q16 1 23.5 7.5T73 79l368 522q24 34 26 40.5t-13 8.5zm55-10L226 240h212z" glyph-name="AE" horiz-adv-x="875" unicode="Æ"/><glyph d="M90 308l13 73q25 140 102.5 219.5T395 680h518l-28-157h-24l-9 101q-2 19-10 22.5t-39 3.5H594l-51-291h148q33 0 42 3.5t17 22.5l29 71h24l-39-224h-24l-5 71q-1 19-8.5 22.5T686 329H538L486 30h217q32 0 41.5 3.5T762 56l45 101h24L803 0H305Q184 0 125 86T90 308zM305 30h115l110 620H396q-84 0-138-56t-73-163l-31-173q-19-109 20-168.5T305 30z" glyph-name="OE" horiz-adv-x="894" unicode="Œ"/><glyph d="M456 157h25L453 0H12l4 25 56 5q17 2 21 8.5T103 79l40 225-87-42-10 28 103 50 46 261q6 34 4.5 40.5T182 650l-55 5 5 25h219l-5-25-55-5q-17-2-21-8.5T260 601l-40-226 146 71 10-28-162-79-55-309h193q32 0 41.5 3.5T411 56z" glyph-name="Lslash" horiz-adv-x="507" unicode="Ł"/><glyph d="M605 372l-13-73Q566 153 490 71.5T303-10q-55 0-97.5 19T134 64L80 0H37l79 92q-23 43-29.5 98.5T91 309l13 73q25 144 101.5 226T393 690q53 0 96-19t72-56l55 65h43l-79-93q23-42 29.5-97.5T605 372zm-419 60l-31-173q-6-34-6.5-65t4.5-58l378 445q-18 39-52.5 59T394 660q-82 0-135-58t-73-170zm324-183l31 173q6 34 6.5 64.5T543 544L164 99q17-39 52.5-59T302 20q82 0 135 58t73 171z" glyph-name="Oslash" horiz-adv-x="662" unicode="Ø"/><glyph d="M182 650l-55 5 5 25h252q121 0 180-86t35-222l-13-73Q561 159 483.5 79.5T294 0H12l4 25 56 5q17 2 21 8.5T103 79l46 260H72l5 30h77l41 232q6 34 4.5 40.5T182 650zm199-281l-5-30H214L159 30h134q84 0 138 56t73 163l31 173q19 109-20 168.5T384 650H269l-50-281z" glyph-name="Eth" horiz-adv-x="656" unicode="Ð"/><glyph d="M178 30l74-5-4-25H9l4 25 56 5q17 2 21 8.5T100 79l92 522q6 34 4.5 40.5T179 650l-55 5 5 25h239l-5-25-75-5q-17-1-21-7.5T257 601l-11-65h125q89 0 135-51.5T537 351l-6-33q-15-84-71-128t-148-44H177l-12-67q-6-36-4.5-42t17.5-7zm193 476H240l-58-330h130q64 0 100.5 32.5T461 308l9 53q12 74-12 109.5T371 506z" glyph-name="Thorn" horiz-adv-x="558" unicode="Þ"/><glyph d="M588 167l-3-17q-13-74-67-117T385-10q-65 0-104.5 32.5T238 111l51 16q1-54 25-81t72-27q53 0 87 36t45 102l6 38q12 78-28.5 121.5T369 360h-8l5 24 172 216q-20 29-54.5 44.5T403 660q-74 0-117.5-41.5T227 491L140 0H-2l4 25 56 5q17 2 21 8.5T89 79l71 402q18 106 78.5 157.5T404 690q63 0 116-22t85-60l-3-17-166-208q83-16 124.5-75.5T588 167z" glyph-name="uni1E9E" horiz-adv-x="650" unicode="ẞ"/><glyph d="M443-5q-36 0-54 24t-17 71q-33-50-72.5-75T214-10q-84 0-124.5 76T70 256l4 22q17 98 80.5 158.5T301 497q42 0 74.5-16.5T430 431l14 28 14 28h40l-60-337q-12-67-9-96.5T451 24q18 0 36 21.5t30 59.5l33-22q-22-43-49-65.5T443-5zM142 286l-10-60q-15-92 9-149t78-57q44 0 83.5 33.5T379 156l41 229q-20 43-48 62.5T302 467q-63 0-104.5-47T142 286z" glyph-name="a" horiz-adv-x="578" unicode="a"/><glyph d="M490 231l-4-22q-17-98-81-158.5T257-10q-43 0-75.5 16.5T127 56q-14-14-25-27.5T79-5H57l117 666q6 33 4.5 40t-17.5 9l-54 5 4 25h137l-60-337q33 47 72 70.5t84 23.5q85 0 126-76t20-190zM339 467q-45 0-86-34.5T175 329l-39-225q19-44 48-64t72-20q64 0 105.5 46.5T418 201l10 60q15 93-9.5 149.5T339 467z" glyph-name="b" horiz-adv-x="560" unicode="b"/><glyph d="M306 467q-63 0-106.5-47.5T142 285l-10-60q-17-99 8.5-152T230 20q50 0 88.5 26.5T374 121l42-23q-31-53-79.5-80.5T226-10q-91 0-135 72T69 250l4 22q19 103 82 164t153 61q86 0 125-50t14-127l-60-16q25 79 4 121t-85 42z" glyph-name="c" horiz-adv-x="483" unicode="c"/><glyph d="M448-5q-36 0-54 24.5T377 91q-34-51-74-76t-87-25q-85 0-126 76T70 256l4 22q17 98 81 158.5T303 497q42 0 74.5-16t55.5-49l40 229q6 34 4.5 40.5T460 710l-54 5 4 25h137L443 150q-12-67-9-96.5T456 24q18 0 36 21.5t30 59.5l33-22q-22-43-49-65.5T448-5zM142 286l-10-60q-15-93 9.5-149.5T221 20q45 0 86 34.5T385 158l39 225q-20 44-48.5 64T304 467q-64 0-105.5-46.5T142 286z" glyph-name="d" horiz-adv-x="582" unicode="d"/><glyph d="M389 120l43-22q-30-53-79.5-80.5T241-10Q141-10 94 61.5T68 250l4 22q19 103 84.5 164T315 497q69 0 112.5-34.5T471 377q0-69-74.5-112.5T190 212l-62-4q-12-92 17-140t95-48q52 0 92 26t57 74zm-76 347q-66 0-112-47.5T141 285l-8-48 56 4q109 7 165.5 43t56.5 97q0 40-26 63t-72 23z" glyph-name="e" horiz-adv-x="506" unicode="e"/><glyph d="M375 487l-5-30H204L86-213H26l110 621q6 33 4.5 40t-17.5 9l-55 5 5 25h77l15 84q16 90 60.5 134.5T343 750q79 0 111.5-42.5T464 595l-61-16q23 70 8 105.5T344 720q-52 0-78.5-32T226 581l-17-94z" glyph-name="f" horiz-adv-x="328" unicode="f"/><glyph d="M502 487L417 9q-20-111-82-171.5T176-223q-76 0-116 42T28-68l57 10q-10-69 13-103t79-34q73 0 117 48T356-1l15 84q-33-47-71.5-70T216-10q-85 0-126 76T70 256l4 22q17 98 81 158.5T303 497q43 0 76-17t56-50q2 5 5 10.5t9 18.5q5 12 8 17.5t5 10.5zM142 286l-10-60q-15-93 9.5-149.5T221 20q45 0 85.5 34T384 157l40 226q-20 44-48.5 64T304 467q-64 0-105.5-46.5T142 286z" glyph-name="g" horiz-adv-x="559" unicode="g"/><glyph d="M546 105l33-22q-22-44-50-66T468-5q-44 0-60 30.5t-4 91.5l40 198q15 75-2 113.5T377 467q-52 0-102-39.5T177 309L123 0H63l116 661q6 33 4.5 40t-17.5 9l-55 5 5 25h137l-64-364q43 60 92 90.5T385 497q73 0 105.5-49T505 316l-44-209q-10-47-6-65t22-18q20 0 38 21t31 60z" glyph-name="h" horiz-adv-x="607" unicode="h"/><glyph d="M262 669q0-21-15-36.5T210 617q-19 0-30 10.5T169 657q0 21 15 36t36 15q19 0 30.5-10.5T262 669zM128 457l-54 5 4 25h137l-59-337q-12-67-9-96.5T169 24q18 0 36 21.5t30 59.5l33-22q-22-43-49-65.5T161-5q-45 0-62 37.5T95 142l46 266q6 33 4.5 40t-17.5 9z" glyph-name="i" horiz-adv-x="295" unicode="i"/><glyph d="M263 669q0-21-15-36.5T211 617q-19 0-30 10.5T170 657q0 21 15 36t36 15q19 0 30.5-10.5T263 669zM128 457l-54 5 4 25h137L118-64q-14-79-53.5-119T-39-223q-51 0-79.5 30t-24.5 82l52 12q-2-48 10.5-71t41.5-23q41 0 63 29.5T58-64l83 472q6 33 4.5 40t-17.5 9z" glyph-name="j" horiz-adv-x="273" unicode="j"/><glyph d="M485 0H367L239 271l-91-84L115 0H57l116 661q6 33 4.5 40t-17.5 9l-54 5 4 25h137l-90-505 125 118q69 65 114.5 95.5T496 497l15-61q-65-17-118.5-45T295 323l-12-11L402 69q14-27 19-32t20-7l48-5z" glyph-name="k" horiz-adv-x="509" unicode="k"/><glyph d="M161 710l-54 5 4 25h137L145 150q-12-67-9-96.5T158 24q18 0 36 21.5t30 59.5l33-22q-22-43-49-65.5T150-5q-45 0-62 37.5T84 142l90 519q6 33 4.5 40t-17.5 9z" glyph-name="l" horiz-adv-x="285" unicode="l"/><glyph d="M856 105l33-22q-22-44-50-66T778-5q-44 0-60 31t-4 91l40 198q15 74-1 113t-61 39q-49 0-96.5-38T501 314L445 0h-60l55 315q13 75-2.5 113.5T378 467q-50 0-98.5-39.5T184 310L129 0H69l72 408q6 33 4.5 40t-17.5 9l-55 5 5 25h137l-19-110q43 60 90.5 90t99.5 30q56 0 87-33t33-93q43 63 91.5 94.5T700 497q70 0 101.5-49.5T815 316l-44-209q-10-47-6-65t22-18q20 0 38 21t31 60z" glyph-name="m" horiz-adv-x="916" unicode="m"/><glyph d="M552 105l33-22q-22-44-50-66T474-5q-44 0-60 31t-4 91l40 198q15 75-2 113.5T383 467q-52 0-102-39.5T183 309L129 0H69l72 408q6 33 4.5 40t-17.5 9l-55 5 5 25h137l-20-111q43 60 92 90.5T391 497q73 0 105.5-49T511 316l-44-209q-10-47-6-65t22-18q20 0 38 21t31 60z" glyph-name="n" horiz-adv-x="612" unicode="n"/><glyph d="M307 497q98 0 147-72t30-183l-4-23q-19-109-80.5-169T243-10q-97 0-145.5 72.5T68 246l4 23q19 109 80 168.5T307 497zm102-293l10 60q16 96-15 150.5T302 469q-63 0-103.5-47T143 284l-10-60q-16-96 15-151t101-55q64 0 104.5 47T409 204z" glyph-name="o" horiz-adv-x="552" unicode="o"/><glyph d="M268-10q-42 0-74.5 16T138 55L91-213H31l110 621q6 33 4.5 40t-17.5 9l-54 6 4 24h137l-15-82q33 46 72 69t83 23q85 0 126-76t20-190l-4-22q-17-98-81-158.5T268-10zm82 477q-45 0-85.5-34T187 330l-40-227q20-44 48.5-63.5T267 20q64 0 105.5 46.5T429 201l10 60q15 93-9.5 149.5T350 467z" glyph-name="p" horiz-adv-x="571" unicode="p"/><glyph d="M482 492h22L379-213h-60l52 297q-33-47-71.5-70.5T216-10q-85 0-126 76T70 256l4 22q17 98 81 158.5T303 497q43 0 75.5-16.5T433 431q15 15 26 28.5t23 32.5zM142 286l-10-60q-15-93 9.5-149.5T221 20q46 0 86.5 34.5T385 158l39 225q-19 44-48 64t-72 20q-64 0-105.5-46.5T142 286z" glyph-name="q" horiz-adv-x="560" unicode="q"/><glyph d="M326 453q-38 0-72-34.5T185 312L130 0H70l72 408q6 33 4.5 40t-17.5 9l-55 5 5 25h137l-19-107q35 58 75.5 87.5T356 497q32 0 56-17.5t35-49.5l-51-45q-10 36-26 52t-44 16z" glyph-name="r" horiz-adv-x="410" unicode="r"/><glyph d="M376 136q0-64-50.5-105T189-10q-74 0-115.5 31.5T29 111l51 16q1-55 28-81.5T190 19q62 0 99.5 26.5T327 118q0 36-23 60t-68 36l-60 16q-45 12-70.5 44T80 350q0 65 46 106t126 41q88 0 127.5-45T396 340l-61-16q25 67 2 105t-88 38q-54 0-86-26.5T131 370q0-33 19-55t56-32l60-16q51-14 80.5-49t29.5-82z" glyph-name="s" horiz-adv-x="452" unicode="s"/><glyph d="M280 121l44-19q-25-56-58.5-84T189-10q-65 0-90 45T89 169l42 241q6 32 4 38.5t-18 8.5l-55 5 5 25h77l25 142 63 12-27-154h164l-5-30H199l-54-308q-12-65-.5-97T191 20q28 0 49.5 24t39.5 77z" glyph-name="t" horiz-adv-x="359" unicode="t"/><glyph d="M467-5q-40 0-58 30t-12 90q-43-63-91-94T204-10q-69 0-99.5 48T89 171l42 237q6 33 4.5 40t-17.5 9l-55 5 5 25h137l-55-315q-13-75 2.5-113.5T212 20q50 0 99 40t97 120l53 307h60l-59-337q-12-67-9-96.5T475 24q18 0 36 21.5t30 59.5l33-22q-22-43-49-65.5T467-5z" glyph-name="u" horiz-adv-x="602" unicode="u"/><glyph d="M112 457l-55 5 5 25h137l-46-262q-19-107-4-156t67-49q48 0 92 37t73 102q22 47 33 104t11 119q0 22-1.5 45t-4.5 46l75 24q-21-248-94.5-377.5T210-10q-78 0-108 60.5T92 224l33 184q6 33 4.5 40t-17.5 9z" glyph-name="v" horiz-adv-x="533" unicode="v"/><glyph d="M669 473l75 24q-22-251-88.5-379T479-10q-50 0-79 26t-37 78q-33-51-74-77.5T202-10q-76 0-103.5 58.5T93 224l34 184q6 33 4 40t-18 9l-55 5 5 25h137l-46-262q-20-112-7.5-158.5T208 20q46 0 87 36.5T362 158q1 14 3 30t5 36l47 263h60l-46-262q-20-112-7.5-158.5T485 20q81 0 136 100t55 252q0 20-1.5 44.5T669 473z" glyph-name="w" horiz-adv-x="787" unicode="w"/><glyph d="M236 218l-39-49q-56-70-87.5-106T40-10l-50 37q54 37 101.5 78t90.5 88l44 49-73 176q-10 24-16 30.5t-22 8.5l-49 5 5 25h114l81-194 20 25q56 70 87.5 106t69.5 73l50-37q-54-37-101.5-78T301 294l-24-27 82-198q10-24 16-30.5t22-8.5l48-5-4-25H327z" glyph-name="x" horiz-adv-x="485" unicode="x"/><glyph d="M521 487L437 9q-19-110-81.5-171T196-223q-76 0-116 42T48-68l57 10q-10-68 13.5-102.5T197-195q73 0 117 48T376-1l20 114q-42-61-90-92T204-10q-69 0-99.5 48T89 171l42 237q6 33 4.5 40t-17.5 9l-55 5 5 25h137l-55-315q-13-75 2.5-113.5T212 20q50 0 99 40t97 120l54 307z" glyph-name="y" horiz-adv-x="579" unicode="y"/><glyph d="M381 133l26-8q-10-65-39.5-100T293-10q-19 0-40 6.5T194 24q-33 17-49 22.5T116 52q-21 0-42-13T31 0L9 22l360 418H189q-36 0-44.5-3T131 419l-31-81H75l26 149h332l-5-25L99 79q13 7 25.5 10t26.5 3q15 0 31.5-5.5T229 64q30-17 46-22t31-5q29 0 46.5 22t28.5 74z" glyph-name="z" horiz-adv-x="458" unicode="z"/><glyph d="M692 120l43-22q-30-53-79.5-80.5T544-10q-66 0-110.5 33T373 116q-35-61-87-93.5T173-10q-61 0-94 29t-33 81q0 69 49.5 108T236 247h133l15 81q12 68-11.5 103.5T293 467q-60 0-92-35t-37-106l-59 10q7 71 59 116t129 45q54 0 90-23.5t49-66.5q34 44 82 67t104 23q69 0 112.5-34.5T774 377q0-73-76-116.5T493 217h-60q-14-96 14-146.5T543 20q52 0 92 26t57 74zm-76 347q-66 0-112-47.5T444 285l-6-38h54q110 0 166 34t56 100q0 40-26 63t-72 23zM109 103q0-38 19.5-58T185 25q52 0 97 34t84 101q-1 14-1 28t1 29H238q-64 0-96.5-28.5T109 103z" glyph-name="ae" horiz-adv-x="809" unicode="æ"/><glyph d="M739 120l43-22q-30-53-79.5-80.5T591-10q-59 0-100 29.5T432 105q-30-56-78-85.5T243-10q-97 0-145.5 72.5T68 246l4 23q19 109 80 168.5T307 497q60 0 102-31.5t60-89.5q32 58 82.5 89.5T665 497q70 0 113-34t43-86q0-69-74.5-112.5T540 212l-62-4q-12-92 17-140t95-48q52 0 92 26t57 74zm-330 84l10 60q16 96-15 150.5T302 469q-63 0-103.5-47T143 284l-10-60q-16-96 15-151t101-55q64 0 104.5 47T409 204zm254 263q-66 0-111.5-47.5T491 285l-8-48 56 4q109 7 165.5 43t56.5 97q0 40-26 63t-72 23z" glyph-name="oe" horiz-adv-x="856" unicode="œ"/><glyph d="M240 105l33-22q-22-43-49-65.5T166-5q-45 0-62 37.5T100 142l34 196-110-53-10 28 126 61 50 287q6 33 4.5 40t-17.5 9l-54 5 4 25h137l-58-334 109 53 10-28-126-61-38-220q-12-67-9-96.5T174 24q18 0 36 21.5t30 59.5z" glyph-name="lslash" horiz-adv-x="324" unicode="ł"/><glyph d="M485 242l-4-23q-19-109-80.5-169T244-10q-42 0-75.5 14.5T111 46L68 0H25l67 72q-19 34-25 79t2 95l4 23q19 109 80 168.5T308 497q41 0 75-14t59-41l42 45h43l-66-70q21-36 27-80.5t-3-94.5zm-341 42l-10-60q-5-31-5-58.5t5-50.5l275 292q-14 30-41 46t-65 16q-63 0-103.5-47T144 284zm266-80l10 60q5 32 5 59.5t-5 50.5L145 81q15-31 41.5-47T250 18q64 0 104.5 47T410 204z" glyph-name="oslash" horiz-adv-x="553" unicode="ø"/><glyph d="M492 284l-3-20q-24-134-87.5-204T240-10q-97 0-143.5 62T65 218l3 20q14 97 73 153t147 56q49 0 86.5-19.5T435 370q5 76-11 139t-53 112l-134-87-14 25 130 85q-20 23-46 43.5T249 726l14 24q34-17 64.5-38.5T383 664l133 86 15-25-128-83q61-72 84-164t5-194zm-354-35l-8-50q-14-86 15-132.5T242 20q70 0 112.5 54.5T417 244l10 60q1 6 1.5 9.5t.5 6.5q-19 48-53 72.5T296 417q-61 0-103-44.5T138 249z" glyph-name="eth" horiz-adv-x="558" unicode="ð"/><glyph d="M261-10q-42 0-74.5 16T131 54L84-213H24l155 874q6 33 4.5 40t-17.5 9l-54 6 4 24h137l-59-335q32 46 71 69t83 23q85 0 126-76t20-190l-4-22q-17-98-81-158.5T261-10zm82 477q-45 0-85.5-33.5T180 331l-40-228q20-44 48.5-63.5T260 20q64 0 105.5 46.5T422 201l10 60q15 93-9.5 149.5T343 467z" glyph-name="thorn" horiz-adv-x="565" unicode="þ"/><glyph d="M364 720q-62 0-93.5-32.5T226 581L86-213H26l110 621q6 34 4.5 40.5T123 457l-55 5 5 25h77l15 84q16 91 65 135t133 44q72 0 111-32.5t39-88.5q0-28-12.5-53.5T447 505q-41-44-53.5-69.5T381 383q0-23 12-41.5t43-44.5l38-31q34-28 48.5-58.5T537 135q0-64-46-104.5T372-10q-63 0-101.5 31.5T224 111l51 16q5-55 28.5-81.5T372 19q52 0 83 26t31 71q0 29-12.5 52T433 215l-36 31q-41 35-54.5 59T329 359q0 25 11 50.5t48 73.5q42 54 55 86.5t13 66.5q0 44-22 64t-70 20z" glyph-name="germandbls" horiz-adv-x="589" unicode="ß"/><glyph d="M128 457l-54 5 4 25h137l-59-337q-12-67-9-96.5T169 24q18 0 36 21.5t30 59.5l33-22q-22-43-49-65.5T161-5q-45 0-62 37.5T95 142l46 266q6 33 4.5 40t-17.5 9z" glyph-name="dotlessi" horiz-adv-x="295" unicode="ı"/><glyph d="M128 457l-54 5 4 25h137L118-64q-14-79-53.5-119T-39-223q-51 0-79.5 30t-24.5 82l52 12q-2-48 10.5-71t41.5-23q41 0 63 29.5T58-64l83 472q6 33 4.5 40t-17.5 9z" glyph-name="dotlessj" horiz-adv-x="273" unicode="ȷ"/><glyph d="M376 720q-69 0-104.5-42T219 541l-10-54h309l-59-337q-12-67-9-96.5T472 24q18 0 36 21.5t30 59.5l33-22q-22-43-49-65.5T464-5q-45 0-62 37.5T398 142l55 315H204L86-213H26l110 621q6 33 4.5 40t-17.5 9l-55 5 5 25h77l8 44q20 111 74.5 165T377 750q87 0 131.5-44T534 595l-61-16q19 71-5 106t-92 35z" glyph-name="fi" horiz-adv-x="598" unicode="ﬁ"/><glyph d="M686 720q-69 0-104.5-42T529 541l-10-54h309l-59-337q-12-67-9-96.5T782 24q18 0 36 21.5t30 59.5l33-22q-22-43-49-65.5T774-5q-45 0-62 37.5T708 142l55 315H514L433-3q-20-111-74.5-165.5T213-223q-74 0-115.5 33.5T57-98l61 16q-2-61 20-86t76-25q70 0 105.5 42T372-13l83 470H204L125 0H64l72 408q6 33 4.5 40t-17.5 9l-55 5 5 25h77l8 44q19 105 73.5 157T377 740q50 0 84.5-22t48.5-63q29 47 73 71t104 24q87 0 131.5-44T844 595l-61-16q19 71-5 106t-92 35zm-310-10q-70 0-105.5-39.5T219 541l-9-54h250l9 49q16 89-6.5 131.5T376 710z" glyph-name="ffi" horiz-adv-x="908" unicode="ﬃ"/><glyph d="M352 457H204L86-213H26l110 621q6 33 4.5 40t-17.5 9l-55 5 5 25h77l8 44q20 111 74.5 165T377 750q45 0 77-14t48-41q12 9 22.5 20.5T544 740h18L459 150q-12-67-9-96.5T472 24q18 0 36 21.5t30 59.5l33-22q-22-43-49-65.5T464-5q-45 0-62 37.5T398 142l75 437q13 75-9.5 108T376 720q-69 0-104.5-42T219 541l-10-54h148z" glyph-name="fl" horiz-adv-x="599" unicode="ﬂ"/><glyph d="M514 457L433-3q-20-111-74.5-165.5T213-223q-74 0-115.5 33.5T57-98l61 16q-2-61 20-86t76-25q70 0 105.5 42T372-13l83 470H204L125 0H64l72 408q6 33 4.5 40t-17.5 9l-55 5 5 25h77l8 44q19 105 73.5 157T377 740q50 0 84.5-22t48.5-63q29 47 73 71t104 24q45 0 77-14t48-41q12 9 22.5 20.5T854 740h18L769 150q-12-67-9-96.5T782 24q18 0 36 21.5t30 59.5l33-22q-22-43-49-65.5T774-5q-45 0-62 37.5T708 142l75 437q13 75-9.5 108T686 720q-69 0-104.5-42T529 541l-10-54h148l-5-30zM376 710q-70 0-105.5-39.5T219 541l-9-54h250l9 49q16 89-6.5 131.5T376 710z" glyph-name="ffl" horiz-adv-x="909" unicode="ﬄ"/><glyph d="M502-10q-65 0-90 45t-10 134l50 288H204L86-213H26l110 621q6 33 4.5 40t-17.5 9l-55 5 5 25h77l8 44q20 111 74.5 165T377 750q65 0 101-33t33-89l10.5 13.5q3.5 4.5 6.5 8.5h18l-29-163h165l-5-30H512l-54-308q-12-65-.5-97T504 20q28 0 49.5 24t39.5 77l44-19q-25-56-58.5-84T502-10zM219 541l-10-54h248l19 111q11 62-13.5 92T376 720q-69 0-104.5-42T219 541z" glyph-name="ft" horiz-adv-x="672"/><glyph d="M514 457L433-3q-20-111-74.5-165.5T213-223q-74 0-115.5 33.5T57-98l61 16q-2-61 20-86t76-25q70 0 105.5 42T372-13l83 470H204L125 0H64l72 408q6 33 4.5 40t-17.5 9l-55 5 5 25h77l8 44q19 105 73.5 157T377 740q50 0 84.5-22t48.5-63q29 47 73 71t104 24q65 0 101-33t33-89l10.5 13.5q3.5 4.5 6.5 8.5h18l-29-163h165l-5-30H822l-54-308q-12-65-.5-97T814 20q28 0 49.5 24t39.5 77l44-19q-25-56-58.5-84T812-10q-65 0-90 45t-10 134l50 288zm15 84l-10-54h248l19 111q11 62-13.5 92T686 720q-69 0-104.5-42T529 541zM376 710q-70 0-105.5-39.5T219 541l-9-54h250l9 49q16 89-6.5 131.5T376 710z" glyph-name="fft" horiz-adv-x="982"/><glyph d="M357 487l-5-30H204L86-213H26l110 621q6 33 4.5 40t-17.5 9l-55 5 5 25h77l8 44q20 111 74.5 165T377 750q45 0 77-14t48-41q12 9 22.5 20.5T544 740h18l-60-337q33 47 72 70.5t84 23.5q85 0 126-76t20-190l-4-22q-17-98-81-158.5T571-10q-43 0-75.5 16.5T441 56q-14-14-25-27.5T393-5h-22l104 595q12 68-11.5 99T376 720q-69 0-104.5-42T219 541l-10-54zm296-20q-45 0-86-34.5T489 329l-39-225q19-44 48-64t72-20q64 0 105.5 46.5T732 201l10 60q15 93-9.5 149.5T653 467z" glyph-name="fb" horiz-adv-x="874"/><glyph d="M514 457L433-3q-20-111-74.5-165.5T213-223q-74 0-115.5 33.5T57-98l61 16q-2-61 20-86t76-25q70 0 105.5 42T372-13l83 470H204L125 0H64l72 408q6 33 4.5 40t-17.5 9l-55 5 5 25h77l8 44q19 105 73.5 157T377 740q50 0 84.5-22t48.5-63q29 47 73 71t104 24q45 0 77-14t48-41q12 9 22.5 20.5T854 740h18l-60-337q33 47 72 70.5t84 23.5q85 0 126-76t20-190l-4-22q-17-98-81-158.5T881-10q-43 0-75.5 16.5T751 56q-14-14-25-27.5T703-5h-22l104 595q12 68-11.5 99T686 720q-69 0-104.5-42T529 541l-10-54h148l-5-30zM376 710q-70 0-105.5-39.5T219 541l-9-54h250l9 49q16 89-6.5 131.5T376 710zm587-243q-45 0-86-34.5T799 329l-39-225q19-44 48-64t72-20q64 0 105.5 46.5T1042 201l10 60q15 93-9.5 149.5T963 467z" glyph-name="ffb" horiz-adv-x="1184"/><glyph d="M514 457L433-3q-20-111-74.5-165.5T213-223q-74 0-115.5 33.5T57-98l61 16q-2-61 20-86t76-25q70 0 105.5 42T372-13l83 470H204L125 0H64l72 408q6 33 4.5 40t-17.5 9l-55 5 5 25h77l8 44q19 105 73.5 157T377 740q47 0 80.5-19.5T506 666q23 42 60 63t87 21q79 0 111.5-42.5T774 595l-61-16q23 70 8 105.5T654 720q-51 0-77.5-32T536 581l-17-94h166l-5-30zM376 710q-70 0-105.5-39.5T219 541l-9-54h250l10 57q15 84-8 125t-86 41z" glyph-name="ff" horiz-adv-x="638" unicode="ﬀ"/><glyph d="M524-213q-51 0-85.5 22T390-128q-29-48-73-71.5T213-223q-74 0-115.5 33.5T57-98l61 16q-2-61 20-86t76-25q70 0 105.5 42T372-13l83 470H204L125 0H64l72 408q6 33 4.5 40t-17.5 9l-55 5 5 25h77l8 44q19 105 73.5 157T377 740q51 0 86-23.5t48-65.5q28 44 72.5 66.5T687 740q47 0 80.5-19.5T816 666q23 42 60 63t87 21q79 0 111.5-42.5T1084 595l-61-16q23 70 8 105.5T964 720q-52 0-78.5-32T846 581l-17-94h166l-5-30H824L743-4q-19-105-73.5-157T524-213zm162 923q-70 0-105.5-39.5T529 541l-10-54h251l10 57q15 84-8 125t-86 41zm-310 0q-70 0-105.5-39.5T219 541l-9-54h250l8 45q16 92-6 135t-86 43zm138-253L433-3q-17-94 5-137t87-43q70 0 105.5 39.5T682-14l83 471z" glyph-name="fff" horiz-adv-x="948"/><glyph d="M357 487l-5-30H204L86-213H26l110 621q6 33 4.5 40t-17.5 9l-55 5 5 25h77l8 44q20 111 74.5 165T377 750q45 0 77-14t48-41q12 9 22.5 20.5T544 740h18l-64-364q43 60 92 90.5T694 497q73 0 105.5-49T814 316l-44-209q-10-47-6-65t22-18q20 0 38 21t31 60l33-22q-22-44-50-66T777-5q-44 0-60 30.5t-4 91.5l40 198q15 75-2 113.5T686 467q-52 0-102-39.5T486 309L432 0h-60l103 589q12 68-11.5 99.5T376 720q-69 0-104.5-42T219 541l-10-54z" glyph-name="fh" horiz-adv-x="916"/><glyph d="M514 457L433-3q-20-111-74.5-165.5T213-223q-74 0-115.5 33.5T57-98l61 16q-2-61 20-86t76-25q70 0 105.5 42T372-13l83 470H204L125 0H64l72 408q6 33 4.5 40t-17.5 9l-55 5 5 25h77l8 44q19 105 73.5 157T377 740q50 0 84.5-22t48.5-63q29 47 73 71t104 24q45 0 77-14t48-41q12 9 22.5 20.5T854 740h18l-64-364q43 60 92 90.5t104 30.5q73 0 105.5-49t14.5-132l-44-209q-10-47-6-65t22-18q20 0 38 21t31 60l33-22q-22-44-50-66t-61-22q-44 0-60 30.5t-4 91.5l40 198q15 75-2 113.5T996 467q-52 0-102-39.5T796 309L742 0h-60l103 589q12 68-11.5 99.5T686 720q-69 0-104.5-42T529 541l-10-54h148l-5-30zM376 710q-70 0-105.5-39.5T219 541l-9-54h250l9 49q16 89-6.5 131.5T376 710z" glyph-name="ffh" horiz-adv-x="1226"/><glyph d="M376 720q-69 0-105-42t-52-137l-9-54h308L432-3q-19-111-74-165.5T212-223q-74 0-115.5 33.5T56-98l61 16q-2-61 20-86t76-25q70 0 105.5 42T371-13l83 470H204L124 0H64l72 408q6 33 4.5 40t-17.5 9l-55 5 5 25h77l8 44q20 111 74.5 165T377 750q87 0 131.5-44T534 595l-61-16q19 71-5 106t-92 35z" glyph-name="fj" horiz-adv-x="560"/><glyph d="M686 720q-69 0-104.5-42T529 541l-10-54h308L740-4q-19-105-73.5-157T521-213q-50 0-84 22.5T390-128q-28-48-72.5-71.5T213-223q-74 0-115.5 33.5T57-98l61 16q-2-61 20-86t76-25q70 0 105.5 42T372-13l83 470H204L125 0H64l72 408q6 33 4.5 40t-17.5 9l-55 5 5 25h77l8 44q19 105 73.5 157T377 740q50 0 84.5-22t48.5-63q29 47 73 71t104 24q87 0 131.5-44T844 595l-61-16q19 71-5 106t-92 35zm-310-10q-70 0-105.5-39.5T219 541l-9-54h250l9 49q16 89-6.5 131.5T376 710zm138-253L433-3q-16-94 5-137t84-43q70 0 105.5 39.5T679-14l82 471z" glyph-name="ffj" horiz-adv-x="868"/><glyph d="M357 487l-5-30H204L86-213H26l110 621q6 33 4.5 40t-17.5 9l-55 5 5 25h77l8 44q20 111 74.5 165T377 750q45 0 77-14t48-41q12 9 22.5 20.5T544 740h18l-88-504 123 117q69 65 114.5 95.5T811 497l15-61q-65-17-118.5-45T610 323l-12-11L717 69q14-27 19-32t20-7l48-5-4-25H682L554 271l-89-82L432 0h-60l103 589q12 68-11.5 99.5T376 720q-69 0-104.5-42T219 541l-10-54z" glyph-name="fk" horiz-adv-x="824"/><glyph d="M514 457L433-3q-20-111-74.5-165.5T213-223q-74 0-115.5 33.5T57-98l61 16q-2-61 20-86t76-25q70 0 105.5 42T372-13l83 470H204L125 0H64l72 408q6 33 4.5 40t-17.5 9l-55 5 5 25h77l8 44q19 105 73.5 157T377 740q50 0 84.5-22t48.5-63q29 47 73 71t104 24q45 0 77-14t48-41q12 9 22.5 20.5T854 740h18l-88-504 123 117q69 65 114.5 95.5T1121 497l15-61q-65-17-118.5-45T920 323l-12-11 119-243q14-27 19-32t20-7l48-5-4-25H992L864 271l-89-82L742 0h-60l103 589q12 68-11.5 99.5T686 720q-69 0-104.5-42T529 541l-10-54h148l-5-30zM376 710q-70 0-105.5-39.5T219 541l-9-54h250l9 49q16 89-6.5 131.5T376 710z" glyph-name="ffk" horiz-adv-x="1134"/><glyph d="M99 30l54-5-4-25H-43l4 25 56 5q17 2 23 8.5T63 79l301 601h47l91-601q5-34 8.5-40.5T529 30l54-5-4-25H361l4 25 56 5q17 2 19.5 9T438 79l-20 131H165L100 79Q84 46 83.5 39T99 30zm261 570L180 240h234zm43 172l-17 21q32 33 52.5 63.5T479 933h80q-35-45-73.5-84.5T403 772z" glyph-name="Aacute" horiz-adv-x="622" unicode="Á"/><glyph d="M99 30l54-5-4-25H-43l4 25 56 5q17 2 23 8.5T63 79l301 601h47l91-601q5-34 8.5-40.5T529 30l54-5-4-25H361l4 25 56 5q17 2 19.5 9T438 79l-20 131H165L100 79Q84 46 83.5 39T99 30zm261 570L180 240h234zm174 190l-19-18q-29 29-51.5 55T423 878q-26-25-56-50.5T299 772l-18 21q48 43 71.5 69.5T406 933h52q14-44 29-72t47-71z" glyph-name="Acircumflex" horiz-adv-x="622" unicode="Â"/><glyph d="M99 30l54-5-4-25H-43l4 25 56 5q17 2 23 8.5T63 79l301 601h47l91-601q5-34 8.5-40.5T529 30l54-5-4-25H361l4 25 56 5q17 2 19.5 9T438 79l-20 131H165L100 79Q84 46 83.5 39T99 30zm261 570L180 240h234zm0 262q0-21-14.5-35.5T310 812q-17 0-28 10.5T271 850q0 21 14 35t35 14q19 0 29.5-10t10.5-27zm199 0q0-21-14.5-35.5T509 812q-17 0-28 10.5T470 850q0 21 14 35t35 14q19 0 29.5-10t10.5-27z" glyph-name="Adieresis" horiz-adv-x="622" unicode="Ä"/><glyph d="M99 30l54-5-4-25H-43l4 25 56 5q17 2 23 8.5T63 79l301 601h47l91-601q5-34 8.5-40.5T529 30l54-5-4-25H361l4 25 56 5q17 2 19.5 9T438 79l-20 131H165L100 79Q84 46 83.5 39T99 30zm261 570L180 240h234zm66 189l-21-17q-31 37-55.5 76.5T305 933h72q5-43 15.5-74.5T426 789z" glyph-name="Agrave" horiz-adv-x="622" unicode="À"/><glyph d="M99 30l54-5-4-25H-43l4 25 56 5q17 2 23 8.5T63 79l291 580q-38 10-58 41t-13 68l2 11q8 43 42 69.5t83 26.5q55 0 85-33.5t22-79.5l-2-11q-7-37-34-62.5T414 657l88-578q5-34 8.5-40.5T529 30l54-5-4-25H361l4 25 56 5q17 2 19.5 9T438 79l-20 131H165L100 79Q84 46 83.5 39T99 30zm289 650q30 0 50.5 19.5T464 752l4 25q5 34-10 53.5T411 850q-30 0-50-19t-25-53l-4-25q-5-33 10-53t46-20zm-28-80L180 240h234z" glyph-name="Aring" horiz-adv-x="622" unicode="Å"/><glyph d="M99 30l54-5-4-25H-43l4 25 56 5q17 2 23 8.5T63 79l301 601h47l91-601q5-34 8.5-40.5T529 30l54-5-4-25H361l4 25 56 5q17 2 19.5 9T438 79l-20 131H165L100 79Q84 46 83.5 39T99 30zm261 570L180 240h234zm125 186q-20 0-38 10.5T402 839q-20 25-31 32.5t-23 7.5q-20 0-35.5-20.5T289 801h-29q10 61 35.5 94t60.5 33q21 0 38.5-10.5T438 874q19-24 30-31.5t22-7.5q20 0 35.5 20.5T549 913h29q-10-60-35-93.5T485 786z" glyph-name="Atilde" horiz-adv-x="622" unicode="Ã"/><glyph d="M99 30l54-5-4-25H-43l4 25 56 5q17 2 23 8.5T63 79l301 601h47l91-601q5-34 8.5-40.5T529 30l54-5-4-25H361l4 25 56 5q17 2 19.5 9T438 79l-20 131H165L100 79Q84 46 83.5 39T99 30zm261 570L180 240h234zm54 225q46 0 76 25t54 83l26-7q-28-81-65-117.5T413 772q-58 0-87 37t-34 117l26 7q9-60 30.5-84t65.5-24z" glyph-name="Abreve" horiz-adv-x="622" unicode="Ă"/><glyph d="M99 30l54-5-4-25H-43l4 25 56 5q17 2 23 8.5T63 79l301 601h47l91-601q5-34 8.5-40.5T529 30l54-5-4-25H361l4 25 56 5q17 2 19.5 9T438 79l-20 131H165L100 79Q84 46 83.5 39T99 30zm261 570L180 240h234zm-84 255h287l-8-43H268z" glyph-name="Amacron" horiz-adv-x="622" unicode="Ā"/><glyph d="M515-112l42-13q-22-49-55.5-73.5T424-223q-45 0-71.5 22.5T326-138q0 46 35 89t87 62l-29 197H165L100 79Q84 46 83.5 39T99 30l54-5-4-25H-43l4 25 56 5q17 2 23.5 8.5T63 79l301 601h47l91-601q5-33 8.5-40t18.5-9l54-5-4-25h-63q-60 0-99-41t-39-99q0-28 11.5-42t34.5-14q29 0 52 21t39 63zM360 600L180 240h234z" glyph-name="Aogonek" horiz-adv-x="622" unicode="Ą"/><glyph d="M364-134q0-40-32.5-64.5T248-223q-45 0-70 20t-26 58l47 13q-3-34 9-50t41-16q27 0 44.5 18t17.5 46q0 27-12 37.5T259-86q-4 0-10-.5T233-89l-4 26 32 54Q157 0 112.5 84T92 309l12 73q24 147 99.5 227.5T394 690q101 0 148.5-61.5T561 483l-68-16q27 93 1 143t-101 50q-85 0-136-56.5T186 432l-30-173q-21-122 11-180.5T287 20q60 0 102.5 33.5T450 150l56-19q-32-68-86-103.5T292-10l-29-50h3q46 0 72-20t26-54z" glyph-name="Ccedilla" horiz-adv-x="579" unicode="Ç"/><glyph d="M284-10q-116 0-166.5 84.5T92 309l12 73q24 147 99.5 227.5T394 690q101 0 148.5-61.5T561 483l-68-16q27 93 1 143t-101 50q-85 0-136-56.5T186 432l-30-173q-21-122 11-180.5T287 20q60 0 102.5 33.5T450 150l56-19q-33-70-89-105.5T284-10zm124 782l-17 21q32 33 52.5 63.5T484 933h80q-35-45-73.5-84.5T408 772z" glyph-name="Cacute" horiz-adv-x="579" unicode="Ć"/><glyph d="M284-10q-116 0-166.5 84.5T92 309l12 73q24 147 99.5 227.5T394 690q101 0 148.5-61.5T561 483l-68-16q27 93 1 143t-101 50q-85 0-136-56.5T186 432l-30-173q-21-122 11-180.5T287 20q60 0 102.5 33.5T450 150l56-19q-33-70-89-105.5T284-10zm260 948l18-21q-48-43-71.5-69.5T437 777h-52q-14 44-29 72t-47 71l19 18q29-29 51.5-55t40.5-51q26 25 56 50.5t68 55.5z" glyph-name="Ccaron" horiz-adv-x="579" unicode="Č"/><glyph d="M284-10q-116 0-166.5 84.5T92 309l12 73q24 147 99.5 227.5T394 690q101 0 148.5-61.5T561 483l-68-16q27 93 1 143t-101 50q-85 0-136-56.5T186 432l-30-173q-21-122 11-180.5T287 20q60 0 102.5 33.5T450 150l56-19q-33-70-89-105.5T284-10zm255 800l-19-18q-29 29-51.5 55T428 878q-26-25-56-50.5T304 772l-18 21q48 43 71.5 69.5T411 933h52q14-44 29-72t47-71z" glyph-name="Ccircumflex" horiz-adv-x="579" unicode="Ĉ"/><glyph d="M284-10q-116 0-166.5 84.5T92 309l12 73q24 147 99.5 227.5T394 690q101 0 148.5-61.5T561 483l-68-16q27 93 1 143t-101 50q-85 0-136-56.5T186 432l-30-173q-21-122 11-180.5T287 20q60 0 102.5 33.5T450 150l56-19q-33-70-89-105.5T284-10zm187 872q0-21-15-36.5T419 810q-19 0-30 10.5T378 850q0 21 15 36t36 15q19 0 30.5-10.5T471 862z" glyph-name="Cdotaccent" horiz-adv-x="579" unicode="Ċ"/><glyph d="M179 650l-55 5 5 25h252q121 0 180-86t35-222l-13-73Q558 159 480.5 79.5T291 0H9l4 25 56 5q17 2 21 8.5T100 79l92 522q6 34 4.5 40.5T179 650zm202 0H266L156 30h134q84 0 138 56t73 163l31 173q19 109-20 168.5T381 650zm159 288l18-21q-48-43-71.5-69.5T433 777h-52q-14 44-29 72t-47 71l19 18q29-29 51.5-55t40.5-51q26 25 56 50.5t68 55.5z" glyph-name="Dcaron" horiz-adv-x="653" unicode="Ď"/><glyph d="M182 650l-55 5 5 25h252q121 0 180-86t35-222l-13-73Q561 159 483.5 79.5T294 0H12l4 25 56 5q17 2 21 8.5T103 79l46 260H72l5 30h77l41 232q6 34 4.5 40.5T182 650zm199-281l-5-30H214L159 30h134q84 0 138 56t73 163l31 173q19 109-20 168.5T384 650H269l-50-281z" glyph-name="Dcroat" horiz-adv-x="656" unicode="Đ"/><glyph d="M481 157h24L477 0H9l4 25 56 5q17 2 21 8.5T100 79l92 522q6 34 4.5 40.5T179 650l-55 5 5 25h454l-28-157h-24l-9 101q-2 19-10 22.5t-39 3.5H265l-51-291h148q33 0 42 3.5t17 22.5l29 71h24l-39-224h-24l-5 71q-1 19-8.5 22.5T357 329H209L157 30h220q32 0 41.5 3.5T436 56zm-87 615l-17 21q32 33 52.5 63.5T470 933h80q-35-45-73.5-84.5T394 772z" glyph-name="Eacute" horiz-adv-x="565" unicode="É"/><glyph d="M481 157h24L477 0H9l4 25 56 5q17 2 21 8.5T100 79l92 522q6 34 4.5 40.5T179 650l-55 5 5 25h454l-28-157h-24l-9 101q-2 19-10 22.5t-39 3.5H265l-51-291h148q33 0 42 3.5t17 22.5l29 71h24l-39-224h-24l-5 71q-1 19-8.5 22.5T357 329H209L157 30h220q32 0 41.5 3.5T436 56zm45 633l-19-18q-29 29-51.5 55T415 878q-26-25-56-50.5T291 772l-18 21q48 43 71.5 69.5T398 933h52q14-44 29-72t47-71z" glyph-name="Ecircumflex" horiz-adv-x="565" unicode="Ê"/><glyph d="M481 157h24L477 0H9l4 25 56 5q17 2 21 8.5T100 79l92 522q6 34 4.5 40.5T179 650l-55 5 5 25h454l-28-157h-24l-9 101q-2 19-10 22.5t-39 3.5H265l-51-291h148q33 0 42 3.5t17 22.5l29 71h24l-39-224h-24l-5 71q-1 19-8.5 22.5T357 329H209L157 30h220q32 0 41.5 3.5T436 56zM355 862q0-21-14.5-35.5T305 812q-17 0-28 10.5T266 850q0 21 14 35t35 14q19 0 29.5-10t10.5-27zm199 0q0-21-14.5-35.5T504 812q-17 0-28 10.5T465 850q0 21 14 35t35 14q19 0 29.5-10t10.5-27z" glyph-name="Edieresis" horiz-adv-x="565" unicode="Ë"/><glyph d="M481 157h24L477 0H9l4 25 56 5q17 2 21 8.5T100 79l92 522q6 34 4.5 40.5T179 650l-55 5 5 25h454l-28-157h-24l-9 101q-2 19-10 22.5t-39 3.5H265l-51-291h148q33 0 42 3.5t17 22.5l29 71h24l-39-224h-24l-5 71q-1 19-8.5 22.5T357 329H209L157 30h220q32 0 41.5 3.5T436 56zm-64 632l-21-17q-31 37-55.5 76.5T296 933h72q5-43 15.5-74.5T417 789z" glyph-name="Egrave" horiz-adv-x="565" unicode="È"/><glyph d="M481 157h24L477 0H9l4 25 56 5q17 2 21 8.5T100 79l92 522q6 34 4.5 40.5T179 650l-55 5 5 25h454l-28-157h-24l-9 101q-2 19-10 22.5t-39 3.5H265l-51-291h148q33 0 42 3.5t17 22.5l29 71h24l-39-224h-24l-5 71q-1 19-8.5 22.5T357 329H209L157 30h220q32 0 41.5 3.5T436 56zm-76 668q46 0 76 25t54 83l26-7q-28-81-65-117.5T404 772q-58 0-87 37t-34 117l26 7q9-60 30.5-84t65.5-24z" glyph-name="Ebreve" horiz-adv-x="565" unicode="Ĕ"/><glyph d="M481 157h24L477 0H9l4 25 56 5q17 2 21 8.5T100 79l92 522q6 34 4.5 40.5T179 650l-55 5 5 25h454l-28-157h-24l-9 101q-2 19-10 22.5t-39 3.5H265l-51-291h148q33 0 42 3.5t17 22.5l29 71h24l-39-224h-24l-5 71q-1 19-8.5 22.5T357 329H209L157 30h220q32 0 41.5 3.5T436 56zm48 781l18-21q-48-43-71.5-69.5T422 777h-52q-14 44-29 72t-47 71l19 18q29-29 51.5-55t40.5-51q26 25 56 50.5t68 55.5z" glyph-name="Ecaron" horiz-adv-x="565" unicode="Ě"/><glyph d="M481 157h24L477 0H9l4 25 56 5q17 2 21 8.5T100 79l92 522q6 34 4.5 40.5T179 650l-55 5 5 25h454l-28-157h-24l-9 101q-2 19-10 22.5t-39 3.5H265l-51-291h148q33 0 42 3.5t17 22.5l29 71h24l-39-224h-24l-5 71q-1 19-8.5 22.5T357 329H209L157 30h220q32 0 41.5 3.5T436 56zm-24 705q0-21-15-36.5T405 810q-19 0-30 10.5T364 850q0 21 15 36t36 15q19 0 30.5-10.5T457 862z" glyph-name="Edotaccent" horiz-adv-x="565" unicode="Ė"/><glyph d="M481 157h24L477 0H9l4 25 56 5q17 2 21 8.5T100 79l92 522q6 34 4.5 40.5T179 650l-55 5 5 25h454l-28-157h-24l-9 101q-2 19-10 22.5t-39 3.5H265l-51-291h148q33 0 42 3.5t17 22.5l29 71h24l-39-224h-24l-5 71q-1 19-8.5 22.5T357 329H209L157 30h220q32 0 41.5 3.5T436 56zM267 855h287l-8-43H259z" glyph-name="Emacron" horiz-adv-x="565" unicode="Ē"/><glyph d="M413-112l42-13q-22-49-55.5-73.5T322-223q-45 0-71.5 22.5T224-138q0 40 29.5 78T330 0H9l4 25 56 5q17 2 21 8.5T100 79l92 522q6 34 4.5 40.5T179 650l-55 5 5 25h454l-28-157h-24l-9 101q-2 19-10 22.5t-39 3.5H265l-51-291h148q33 0 42 3.5t17 22.5l29 71h24l-39-224h-24l-5 71q-1 19-8.5 22.5T357 329H209L157 30h220q32 0 41.5 3.5T436 56l45 101h24L477 0h-63q-60 0-99-41t-39-99q0-28 11.5-42t34.5-14q29 0 52 21t39 63z" glyph-name="Eogonek" horiz-adv-x="565" unicode="Ę"/><glyph d="M497 12h-22q-3 12-9 23.5T451 57q-32-34-74-50.5T283-10q-116 0-166 85T92 309l12 73q24 146 102 227t196 81q106 0 155.5-60.5T578 483l-68-16q27 95-.5 144T401 660q-88 0-141.5-57T186 432l-30-173q-21-122 11-180.5T286 20q57 0 100 22.5t66 64.5l22 122q7 34 5 41t-19 8l-74 5 4 25h236l-4-25-56-5q-16-2-20-9.5T536 229zm-71 813q46 0 76 25t54 83l26-7q-28-81-65-117.5T425 772q-58 0-87 37t-34 117l26 7q9-60 30.5-84t65.5-24z" glyph-name="Gbreve" horiz-adv-x="640" unicode="Ğ"/><glyph d="M497 12h-22q-3 12-9 23.5T451 57q-32-34-74-50.5T283-10q-116 0-166 85T92 309l12 73q24 146 102 227t196 81q106 0 155.5-60.5T578 483l-68-16q27 95-.5 144T401 660q-88 0-141.5-57T186 432l-30-173q-21-122 11-180.5T286 20q57 0 100 22.5t66 64.5l22 122q7 34 5 41t-19 8l-74 5 4 25h236l-4-25-56-5q-16-2-20-9.5T536 229zm49 778l-19-18q-29 29-51.5 55T435 878q-26-25-56-50.5T311 772l-18 21q48 43 71.5 69.5T418 933h52q14-44 29-72t47-71z" glyph-name="Gcircumflex" horiz-adv-x="640" unicode="Ĝ"/><glyph d="M497 12h-22q-3 12-9 23.5T451 57q-32-34-74-50.5T283-10q-116 0-166 85T92 309l12 73q24 146 102 227t196 81q106 0 155.5-60.5T578 483l-68-16q27 95-.5 144T401 660q-88 0-141.5-57T186 432l-30-173q-21-122 11-180.5T286 20q57 0 100 22.5t66 64.5l22 122q7 34 5 41t-19 8l-74 5 4 25h236l-4-25-56-5q-16-2-20-9.5T536 229zM207-238l-17 14q24 38 36.5 71T246-77h70q-21-50-44.5-85T207-238z" glyph-name="Gcommaaccent" horiz-adv-x="640" unicode="Ģ"/><glyph d="M497 12h-22q-3 12-9 23.5T451 57q-32-34-74-50.5T283-10q-116 0-166 85T92 309l12 73q24 146 102 227t196 81q106 0 155.5-60.5T578 483l-68-16q27 95-.5 144T401 660q-88 0-141.5-57T186 432l-30-173q-21-122 11-180.5T286 20q57 0 100 22.5t66 64.5l22 122q7 34 5 41t-19 8l-74 5 4 25h236l-4-25-56-5q-16-2-20-9.5T536 229zm-19 850q0-21-15-36.5T426 810q-19 0-30 10.5T385 850q0 21 15 36t36 15q19 0 30.5-10.5T478 862z" glyph-name="Gdotaccent" horiz-adv-x="640" unicode="Ġ"/><glyph d="M181 30l54-5-4-25H12l4 25 56 5q17 2 21 8.5T103 79l73 414H99l5 30h77l14 78q6 34 4.5 40.5T182 650l-55 5 5 25h219l-5-25-55-5q-17-2-21-8.5T260 601l-14-78h328l14 78q6 34 4.5 40.5T575 650l-55 5 5 25h219l-5-25-55-5q-17-2-21-8.5T653 601l-14-78h77l-5-30h-77L561 79q-6-34-4.5-40.5T574 30l54-5-4-25H405l4 25 56 5q17 2 21 8.5T496 79l44 250H212L168 79q-6-34-4.5-40.5T181 30zm60 463l-24-134h328l24 134z" glyph-name="Hbar" horiz-adv-x="722" unicode="Ħ"/><glyph d="M178 30l54-5-4-25H9l4 25 56 5q17 2 21 8.5T100 79l92 522q6 34 4.5 40.5T179 650l-55 5 5 25h219l-5-25-55-5q-17-2-21-8.5T257 601l-43-242h328l43 242q6 34 4.5 40.5T572 650l-55 5 5 25h219l-5-25-55-5q-17-2-21-8.5T650 601L558 79q-6-34-4.5-40.5T571 30l54-5-4-25H402l4 25 56 5q17 2 21 8.5T493 79l44 250H209L165 79q-6-34-4.5-40.5T178 30zm403 760l-19-18q-29 29-51.5 55T470 878q-26-25-56-50.5T346 772l-18 21q48 43 71.5 69.5T453 933h52q14-44 29-72t47-71z" glyph-name="Hcircumflex" horiz-adv-x="716" unicode="Ĥ"/><glyph d="M179 650l-55 5 5 25h219l-5-25-55-5q-17-2-21-8.5T257 601L165 79q-6-34-4.5-40.5T178 30l54-5-4-25H9l4 25 56 5q17 2 21 8.5T100 79l92 522q6 34 4.5 40.5T179 650zm75 122l-17 21q32 33 52.5 63.5T330 933h80q-35-45-73.5-84.5T254 772z" glyph-name="Iacute" horiz-adv-x="323" unicode="Í"/><glyph d="M179 650l-55 5 5 25h219l-5-25-55-5q-17-2-21-8.5T257 601L165 79q-6-34-4.5-40.5T178 30l54-5-4-25H9l4 25 56 5q17 2 21 8.5T100 79l92 522q6 34 4.5 40.5T179 650zm205 140l-19-18q-29 29-51.5 55T273 878q-26-25-56-50.5T149 772l-18 21q48 43 71.5 69.5T256 933h52q14-44 29-72t47-71z" glyph-name="Icircumflex" horiz-adv-x="323" unicode="Î"/><glyph d="M179 650l-55 5 5 25h219l-5-25-55-5q-17-2-21-8.5T257 601L165 79q-6-34-4.5-40.5T178 30l54-5-4-25H9l4 25 56 5q17 2 21 8.5T100 79l92 522q6 34 4.5 40.5T179 650zm36 212q0-21-14.5-35.5T165 812q-17 0-28 10.5T126 850q0 21 14 35t35 14q19 0 29.5-10t10.5-27zm199 0q0-21-14.5-35.5T364 812q-17 0-28 10.5T325 850q0 21 14 35t35 14q19 0 29.5-10t10.5-27z" glyph-name="Idieresis" horiz-adv-x="323" unicode="Ï"/><glyph d="M179 650l-55 5 5 25h219l-5-25-55-5q-17-2-21-8.5T257 601L165 79q-6-34-4.5-40.5T178 30l54-5-4-25H9l4 25 56 5q17 2 21 8.5T100 79l92 522q6 34 4.5 40.5T179 650zm98 139l-21-17q-31 37-55.5 76.5T156 933h72q5-43 15.5-74.5T277 789z" glyph-name="Igrave" horiz-adv-x="323" unicode="Ì"/><glyph d="M179 650l-55 5 5 25h219l-5-25-55-5q-17-2-21-8.5T257 601L165 79q-6-34-4.5-40.5T178 30l54-5-4-25H9l4 25 56 5q17 2 21 8.5T100 79l92 522q6 34 4.5 40.5T179 650zm86 175q46 0 76 25t54 83l26-7q-28-81-65-117.5T264 772q-58 0-87 37t-34 117l26 7q9-60 30.5-84t65.5-24z" glyph-name="Ibreve" horiz-adv-x="323" unicode="Ĭ"/><glyph d="M179 650l-55 5 5 25h219l-5-25-55-5q-17-2-21-8.5T257 601L165 79q-6-34-4.5-40.5T178 30l54-5-4-25H9l4 25 56 5q17 2 21 8.5T100 79l92 522q6 34 4.5 40.5T179 650zm138 212q0-21-15-36.5T265 810q-19 0-30 10.5T224 850q0 21 15 36t36 15q19 0 30.5-10.5T317 862z" glyph-name="Idotaccent" horiz-adv-x="323" unicode="İ"/><glyph d="M179 650l-55 5 5 25h219l-5-25-55-5q-17-2-21-8.5T257 601L165 79q-6-34-4.5-40.5T178 30l54-5-4-25H9l4 25 56 5q17 2 21 8.5T100 79l92 522q6 34 4.5 40.5T179 650zm-52 205h287l-8-43H119z" glyph-name="Imacron" horiz-adv-x="323" unicode="Ī"/><glyph d="M160-112l42-13q-22-49-55.5-73.5T69-223q-45 0-71.5 22.5T-29-138q0 44 32 85T84 9l104 592q6 34 4.5 40.5T175 650l-55 5 5 25h219l-5-25-55-5q-17-2-21-8.5T253 601L161 79q-6-34-4.5-40.5T174 30l54-5-4-25h-63q-60 0-99-41t-39-99q0-28 11.5-42T69-196q29 0 52 21t39 63z" glyph-name="Iogonek" horiz-adv-x="319" unicode="Į"/><glyph d="M179 650l-55 5 5 25h219l-5-25-55-5q-17-2-21-8.5T257 601L165 79q-6-34-4.5-40.5T178 30l54-5-4-25H9l4 25 56 5q17 2 21 8.5T100 79l92 522q6 34 4.5 40.5T179 650zm157 136q-20 0-38 10.5T253 839q-20 25-31 32.5t-23 7.5q-20 0-35.5-20.5T140 801h-29q10 61 35.5 94t60.5 33q21 0 38.5-10.5T289 874q19-24 30-31.5t22-7.5q20 0 35.5 20.5T400 913h29q-10-60-35-93.5T336 786z" glyph-name="Itilde" horiz-adv-x="323" unicode="Ĩ"/><glyph d="M320 650l-55 5 5 25h219l-5-25-55-5q-17-2-21-8.5T398 601l-70-399q-18-101-70.5-156.5T124-10q-65 0-98.5 36T-3 129l58 18q-8-63 9.5-95T124 20q56 0 89 44t50 138l70 399q6 33 4.5 40t-17.5 9zm205 140l-19-18q-29 29-51.5 55T414 878q-26-25-56-50.5T290 772l-18 21q48 43 71.5 69.5T397 933h52q14-44 29-72t47-71z" glyph-name="Jcircumflex" horiz-adv-x="452" unicode="Ĵ"/><glyph d="M179 650l-55 5 5 25h219l-5-25-55-5q-17-2-21-8.5T257 601L165 79q-6-34-4.5-40.5T178 30l54-5-4-25H9l4 25 56 5q17 2 21 8.5T100 79l92 522q6 34 4.5 40.5T179 650zm464 0l-55 5 5 25h219l-5-25-55-5q-17-2-21-8.5T721 601l-70-399q-18-101-70.5-156.5T447-10q-65 0-98.5 36T320 129l58 18q-8-63 9.5-95T447 20q56 0 89 44t50 138l70 399q6 33 4.5 40t-17.5 9z" glyph-name="IJ" horiz-adv-x="775" unicode="Ĳ"/><glyph d="M178 30l54-5-4-25H9l4 25 56 5q17 2 21 8.5T100 79l92 523q6 33 4.5 40t-17.5 9l-54 5 4 24h219l-4-24-56-5q-17-2-21-8.5T257 602l-53-300 307 310q23 24 26 30.5t-14 8.5l-48 5 4 24h188l-4-24-50-5q-13-1-19-4.5T557 612L349 402 493 79q15-33 20.5-40t21.5-9l49-5-4-25H452L300 352 194 246 165 79q-6-33-4.5-40t17.5-9zm28-268l-17 14q24 38 36.5 71T245-77h70q-21-50-44.5-85T206-238z" glyph-name="Kcommaaccent" horiz-adv-x="636" unicode="Ķ"/><glyph d="M778 685l18-14q-23-36-36-69t-21-78h-70q21 50 44.5 85t64.5 76zM178 30l54-5-4-25H9l4 25 56 5q17 2 21 8.5T100 79l92 523q6 33 4.5 40t-17.5 9l-54 5 4 24h219l-4-24-56-5q-17-2-21-8.5T257 602l-53-300 307 310q23 24 26 30.5t-14 8.5l-48 5 4 24h188l-4-24-50-5q-13-1-19-4.5T557 612L349 402 493 79q15-33 20.5-40t21.5-9l49-5-4-25H452L300 352 194 246 165 79q-6-33-4.5-40t17.5-9z" glyph-name="kgreenlandic.case" horiz-adv-x="738"/><glyph d="M454 161h25L450 0H9l4 25 56 5q17 2 21 8.5T100 79l92 522q6 34 4.5 40.5T179 650l-55 5 5 25h219l-5-25-55-5q-17-2-21-8.5T257 601L156 30h193q32 0 41.5 3.5T408 56zM264 772l-17 21q32 33 52.5 63.5T340 933h80q-35-45-73.5-84.5T264 772z" glyph-name="Lacute" horiz-adv-x="504" unicode="Ĺ"/><glyph d="M454 161h25L450 0H9l4 25 56 5q17 2 21 8.5T100 79l92 522q6 34 4.5 40.5T179 650l-55 5 5 25h219l-5-25-55-5q-17-2-21-8.5T257 601L156 30h193q32 0 41.5 3.5T408 56zm-42 305h-19l37 214h64q-21-61-41-113t-41-101z" glyph-name="Lcaron" horiz-adv-x="504" unicode="Ľ"/><glyph d="M454 161h25L450 0H9l4 25 56 5q17 2 21 8.5T100 79l92 522q6 34 4.5 40.5T179 650l-55 5 5 25h219l-5-25-55-5q-17-2-21-8.5T257 601L156 30h193q32 0 41.5 3.5T408 56zM168-238l-17 14q24 38 36.5 71T207-77h70q-21-50-44.5-85T168-238z" glyph-name="Lcommaaccent" horiz-adv-x="504" unicode="Ļ"/><glyph d="M454 161h25L450 0H9l4 25 56 5q17 2 21 8.5T100 79l92 522q6 34 4.5 40.5T179 650l-55 5 5 25h219l-5-25-55-5q-17-2-21-8.5T257 601L156 30h193q32 0 41.5 3.5T408 56zm31 230q0-21-15-36.5T433 339q-19 0-30 10.5T392 379q0 21 15 36t36 15q19 0 30.5-10.5T485 391z" glyph-name="Ldot" horiz-adv-x="504" unicode="Ŀ"/><glyph d="M179 650l-55 5 5 25h150l233-571 87 492q6 33 4.5 40t-17.5 9l-55 5 5 25h189l-5-25-55-5q-17-2-21-8.5T634 601L528 0h-39L232 629 135 79q-6-33-4.5-40t17.5-9l54-5-4-25H9l4 25 56 5q17 2 21 8.5T100 79l92 522q6 33 4.5 40t-17.5 9zm347 136q-20 0-38 10.5T443 839q-20 25-31 32.5t-23 7.5q-20 0-35.5-20.5T330 801h-29q10 61 35.5 94t60.5 33q21 0 38.5-10.5T479 874q19-24 30-31.5t22-7.5q20 0 35.5 20.5T590 913h29q-10-60-35-93.5T526 786z" glyph-name="Ntilde" horiz-adv-x="695" unicode="Ñ"/><glyph d="M179 650l-55 5 5 25h150l233-571 87 492q6 33 4.5 40t-17.5 9l-55 5 5 25h189l-5-25-55-5q-17-2-21-8.5T634 601L528 0h-39L232 629 135 79q-6-33-4.5-40t17.5-9l54-5-4-25H9l4 25 56 5q17 2 21 8.5T100 79l92 522q6 33 4.5 40t-17.5 9zm265 122l-17 21q32 33 52.5 63.5T520 933h80q-35-45-73.5-84.5T444 772z" glyph-name="Nacute" horiz-adv-x="695" unicode="Ń"/><glyph d="M179 650l-55 5 5 25h150l233-571 87 492q6 33 4.5 40t-17.5 9l-55 5 5 25h189l-5-25-55-5q-17-2-21-8.5T634 601L528 0h-39L232 629 135 79q-6-33-4.5-40t17.5-9l54-5-4-25H9l4 25 56 5q17 2 21 8.5T100 79l92 522q6 33 4.5 40t-17.5 9zm400 288l18-21q-48-43-71.5-69.5T472 777h-52q-14 44-29 72t-47 71l19 18q29-29 51.5-55t40.5-51q26 25 56 50.5t68 55.5z" glyph-name="Ncaron" horiz-adv-x="695" unicode="Ň"/><glyph d="M179 650l-55 5 5 25h150l233-571 87 492q6 33 4.5 40t-17.5 9l-55 5 5 25h189l-5-25-55-5q-17-2-21-8.5T634 601L528 0h-39L232 629 135 79q-6-33-4.5-40t17.5-9l54-5-4-25H9l4 25 56 5q17 2 21 8.5T100 79l92 522q6 33 4.5 40t-17.5 9zm38-888l-17 14q24 38 36.5 71T256-77h70q-21-50-44.5-85T217-238z" glyph-name="Ncommaaccent" horiz-adv-x="695" unicode="Ņ"/><glyph d="M179 650l-55 5 5 25h150l233-571 87 492q6 33 4.5 40t-17.5 9l-55 5 5 25h189l-5-25-55-5q-17-2-21-8.5T634 601L526-11q-18-102-68.5-157T330-223q-59 0-90 33.5T213-94l53 15q-8-56 8.5-85t55.5-29q52 0 83 43.5T461-11l10 56-239 584-97-550q-6-33-4.5-40t17.5-9l54-5-4-25H9l4 25 56 5q17 2 21 8.5T100 79l92 522q6 33 4.5 40t-17.5 9z" glyph-name="Eng" horiz-adv-x="695" unicode="Ŋ"/><glyph d="M306 650l-55 5 5 25h150l233-571 87 492q6 33 4.5 40t-17.5 9l-55 5 5 25h189l-5-25-55-5q-17-2-21-8.5T761 601L655 0h-39L359 629 262 79q-6-33-4.5-40t17.5-9l54-5-4-25H136l4 25 56 5q17 2 21 8.5T227 79l92 522q6 33 4.5 40t-17.5 9zm-164 40q19 0 30.5-13t11.5-34q0-39-32.5-92T65 449l-18 18q36 37 57.5 71t28.5 65q-17 1-27 11.5T96 642q0 21 13 34.5t33 13.5z" glyph-name="napostrophe.case" horiz-adv-x="822"/><glyph d="M393 690q120 0 178.5-89.5T605 372l-13-73Q566 153 490 71.5T303-10q-121 0-179 88.5T91 309l13 73q25 144 101.5 226T393 690zm117-441l31 173q20 112-18.5 175T394 660q-82 0-135-58t-73-170l-31-173q-21-113 18-176t129-63q82 0 135 58t73 171zm-87 523l-17 21q32 33 52.5 63.5T499 933h80q-35-45-73.5-84.5T423 772z" glyph-name="Oacute" horiz-adv-x="662" unicode="Ó"/><glyph d="M393 690q120 0 178.5-89.5T605 372l-13-73Q566 153 490 71.5T303-10q-121 0-179 88.5T91 309l13 73q25 144 101.5 226T393 690zm117-441l31 173q20 112-18.5 175T394 660q-82 0-135-58t-73-170l-31-173q-21-113 18-176t129-63q82 0 135 58t73 171zm44 541l-19-18q-29 29-51.5 55T443 878q-26-25-56-50.5T319 772l-18 21q48 43 71.5 69.5T426 933h52q14-44 29-72t47-71z" glyph-name="Ocircumflex" horiz-adv-x="662" unicode="Ô"/><glyph d="M393 690q120 0 178.5-89.5T605 372l-13-73Q566 153 490 71.5T303-10q-121 0-179 88.5T91 309l13 73q25 144 101.5 226T393 690zm117-441l31 173q20 112-18.5 175T394 660q-82 0-135-58t-73-170l-31-173q-21-113 18-176t129-63q82 0 135 58t73 171zM384 862q0-21-14.5-35.5T334 812q-17 0-28 10.5T295 850q0 21 14 35t35 14q19 0 29.5-10t10.5-27zm199 0q0-21-14.5-35.5T533 812q-17 0-28 10.5T494 850q0 21 14 35t35 14q19 0 29.5-10t10.5-27z" glyph-name="Odieresis" horiz-adv-x="662" unicode="Ö"/><glyph d="M393 690q120 0 178.5-89.5T605 372l-13-73Q566 153 490 71.5T303-10q-121 0-179 88.5T91 309l13 73q25 144 101.5 226T393 690zm117-441l31 173q20 112-18.5 175T394 660q-82 0-135-58t-73-170l-31-173q-21-113 18-176t129-63q82 0 135 58t73 171zm-64 540l-21-17q-31 37-55.5 76.5T325 933h72q5-43 15.5-74.5T446 789z" glyph-name="Ograve" horiz-adv-x="662" unicode="Ò"/><glyph d="M393 690q120 0 178.5-89.5T605 372l-13-73Q566 153 490 71.5T303-10q-121 0-179 88.5T91 309l13 73q25 144 101.5 226T393 690zm117-441l31 173q20 112-18.5 175T394 660q-82 0-135-58t-73-170l-31-173q-21-113 18-176t129-63q82 0 135 58t73 171zm-5 537q-20 0-38 10.5T422 839q-20 25-31 32.5t-23 7.5q-20 0-35.5-20.5T309 801h-29q10 61 35.5 94t60.5 33q21 0 38.5-10.5T458 874q19-24 30-31.5t22-7.5q20 0 35.5 20.5T569 913h29q-10-60-35-93.5T505 786z" glyph-name="Otilde" horiz-adv-x="662" unicode="Õ"/><glyph d="M393 690q120 0 178.5-89.5T605 372l-13-73Q566 153 490 71.5T303-10q-121 0-179 88.5T91 309l13 73q25 144 101.5 226T393 690zm117-441l31 173q20 112-18.5 175T394 660q-82 0-135-58t-73-170l-31-173q-21-113 18-176t129-63q82 0 135 58t73 171zm-76 576q46 0 76 25t54 83l26-7q-28-81-65-117.5T433 772q-58 0-87 37t-34 117l26 7q9-60 30.5-84t65.5-24z" glyph-name="Obreve" horiz-adv-x="662" unicode="Ŏ"/><glyph d="M393 690q120 0 178.5-89.5T605 372l-13-73Q566 153 490 71.5T303-10q-121 0-179 88.5T91 309l13 73q25 144 101.5 226T393 690zm117-441l31 173q20 112-18.5 175T394 660q-82 0-135-58t-73-170l-31-173q-21-113 18-176t129-63q82 0 135 58t73 171zM357 772l-18 15q20 27 37.5 60t39.5 86h74q-28-41-63-83.5T357 772zm140 0l-18 15q20 27 37.5 60t39.5 86h74q-28-41-63-83.5T497 772z" glyph-name="Ohungarumlaut" horiz-adv-x="662" unicode="Ő"/><glyph d="M393 690q120 0 178.5-89.5T605 372l-13-73Q566 153 490 71.5T303-10q-121 0-179 88.5T91 309l13 73q25 144 101.5 226T393 690zm117-441l31 173q20 112-18.5 175T394 660q-82 0-135-58t-73-170l-31-173q-21-113 18-176t129-63q82 0 135 58t73 171zM296 855h287l-8-43H288z" glyph-name="Omacron" horiz-adv-x="662" unicode="Ō"/><glyph d="M179 650l-55 5 5 25h254q92 0 137.5-48T553 504l-6-35q-10-63-51.5-103.5T388 313l89-234q13-33 18-40t21-9l44-5-4-25H433L322 308H205L165 79q-6-33-4.5-40t17.5-9l54-5-4-25H9l4 25 56 5q17 2 21 8.5T100 79l92 522q6 33 4.5 40t-17.5 9zm207 0H266l-55-312h119q57 0 98 36t51 95l6 35q12 67-15 106.5T386 650zm2 122l-17 21q32 33 52.5 63.5T464 933h80q-35-45-73.5-84.5T388 772z" glyph-name="Racute" horiz-adv-x="608" unicode="Ŕ"/><glyph d="M179 650l-55 5 5 25h254q92 0 137.5-48T553 504l-6-35q-10-63-51.5-103.5T388 313l89-234q13-33 18-40t21-9l44-5-4-25H433L322 308H205L165 79q-6-33-4.5-40t17.5-9l54-5-4-25H9l4 25 56 5q17 2 21 8.5T100 79l92 522q6 33 4.5 40t-17.5 9zm207 0H266l-55-312h119q57 0 98 36t51 95l6 35q12 67-15 106.5T386 650zm137 288l18-21q-48-43-71.5-69.5T416 777h-52q-14 44-29 72t-47 71l19 18q29-29 51.5-55t40.5-51q26 25 56 50.5t68 55.5z" glyph-name="Rcaron" horiz-adv-x="608" unicode="Ř"/><glyph d="M179 650l-55 5 5 25h254q92 0 137.5-48T553 504l-6-35q-10-63-51.5-103.5T388 313l89-234q13-33 18-40t21-9l44-5-4-25H433L322 308H205L165 79q-6-33-4.5-40t17.5-9l54-5-4-25H9l4 25 56 5q17 2 21 8.5T100 79l92 522q6 33 4.5 40t-17.5 9zm207 0H266l-55-312h119q57 0 98 36t51 95l6 35q12 67-15 106.5T386 650zM217-238l-17 14q24 38 36.5 71T256-77h70q-21-50-44.5-85T217-238z" glyph-name="Rcommaaccent" horiz-adv-x="608" unicode="Ŗ"/><glyph d="M476 196q0-90-65.5-148T235-10q-93 0-144.5 46.5T34 173l58 18q-2-86 34-128.5T238 20q83 0 129 39.5T413 168q0 50-27 81.5T296 305l-63 24q-66 25-98 67t-32 103q0 85 59.5 138T324 690q110 0 161.5-61T507 483l-66-16q27 95-2.5 144.5T323 661q-74 0-115.5-38T166 517q0-48 26-78t86-53l63-24q70-27 102.5-67t32.5-99zm15 742l18-21q-48-43-71.5-69.5T384 777h-52q-14 44-29 72t-47 71l19 18q29-29 51.5-55t40.5-51q26 25 56 50.5t68 55.5z" glyph-name="Scaron" horiz-adv-x="540" unicode="Š"/><glyph d="M476 196q0-90-65.5-148T235-10q-93 0-144.5 46.5T34 173l58 18q-2-86 34-128.5T238 20q83 0 129 39.5T413 168q0 50-27 81.5T296 305l-63 24q-66 25-98 67t-32 103q0 85 59.5 138T324 690q110 0 161.5-61T507 483l-66-16q27 95-2.5 144.5T323 661q-74 0-115.5-38T166 517q0-48 26-78t86-53l63-24q70-27 102.5-67t32.5-99zM356 772l-17 21q32 33 52.5 63.5T432 933h80q-35-45-73.5-84.5T356 772z" glyph-name="Sacute" horiz-adv-x="540" unicode="Ś"/><glyph d="M300-134q0-40-32.5-64.5T184-223q-45 0-70 20t-26 58l47 13q-3-34 9-50t41-16q27 0 44.5 18t17.5 46q0 27-12 37.5T195-86q-4 0-10-.5T169-89l-4 26 32 55Q121 1 79.5 47T34 173l58 18q-2-86 34-128.5T238 20q83 0 129 39.5T413 168q0 50-27 81.5T296 305l-63 24q-66 25-98 67t-32 103q0 85 59.5 138T324 690q110 0 161.5-61T507 483l-66-16q27 95-2.5 144.5T323 661q-74 0-115.5-38T166 517q0-48 26-78t86-53l63-24q70-27 102.5-67t32.5-99q0-90-65.5-148T235-10h-7l-29-50h3q46 0 72-20t26-54z" glyph-name="Scedilla" horiz-adv-x="540" unicode="Ş"/><glyph d="M476 196q0-90-65.5-148T235-10q-93 0-144.5 46.5T34 173l58 18q-2-86 34-128.5T238 20q83 0 129 39.5T413 168q0 50-27 81.5T296 305l-63 24q-66 25-98 67t-32 103q0 85 59.5 138T324 690q110 0 161.5-61T507 483l-66-16q27 95-2.5 144.5T323 661q-74 0-115.5-38T166 517q0-48 26-78t86-53l63-24q70-27 102.5-67t32.5-99zm11 594l-19-18q-29 29-51.5 55T376 878q-26-25-56-50.5T252 772l-18 21q48 43 71.5 69.5T359 933h52q14-44 29-72t47-71z" glyph-name="Scircumflex" horiz-adv-x="540" unicode="Ŝ"/><glyph d="M476 196q0-90-65.5-148T235-10q-93 0-144.5 46.5T34 173l58 18q-2-86 34-128.5T238 20q83 0 129 39.5T413 168q0 50-27 81.5T296 305l-63 24q-66 25-98 67t-32 103q0 85 59.5 138T324 690q110 0 161.5-61T507 483l-66-16q27 95-2.5 144.5T323 661q-74 0-115.5-38T166 517q0-48 26-78t86-53l63-24q70-27 102.5-67t32.5-99zM138-238l-17 14q24 38 36.5 71T177-77h70q-21-50-44.5-85T138-238z" glyph-name="uni0218" horiz-adv-x="540" unicode="Ș"/><glyph d="M291 30l54-5-4-25H122l4 25 56 5q17 2 21 8.5T213 79l44 246H110l6 30h146l52 295H192q-32 0-41.5-3.5T133 624L88 523H63l28 157h521l-28-157h-25l-9 101q-2 19-10 22.5t-39 3.5H379l-52-295h146l-6-30H322L278 79q-6-34-4.5-40.5T291 30z" glyph-name="Tbar" horiz-adv-x="549" unicode="Ŧ"/><glyph d="M88 523H63l28 157h521l-28-157h-25l-9 101q-2 19-10 22.5t-39 3.5H379L278 79q-6-34-4.5-40.5T291 30l54-5-4-25H122l4 25 56 5q17 2 21 8.5T213 79l101 571H192q-32 0-41.5-3.5T133 624zm413 415l18-21q-48-43-71.5-69.5T394 777h-52q-14 44-29 72t-47 71l19 18q29-29 51.5-55t40.5-51q26 25 56 50.5t68 55.5z" glyph-name="Tcaron" horiz-adv-x="549" unicode="Ť"/><glyph d="M88 523H63l28 157h521l-28-157h-25l-9 101q-2 19-10 22.5t-39 3.5H379L278 79q-6-34-4.5-40.5T291 30l54-5-4-25H122l4 25 56 5q17 2 21 8.5T213 79l101 571H192q-32 0-41.5-3.5T133 624zm55-761l-17 14q24 38 36.5 71T182-77h70q-21-50-44.5-85T143-238z" glyph-name="uni0162" horiz-adv-x="549" unicode="Ţ"/><glyph d="M88 523H63l28 157h521l-28-157h-25l-9 101q-2 19-10 22.5t-39 3.5H379L278 79q-6-34-4.5-40.5T291 30l54-5-4-25H122l4 25 56 5q17 2 21 8.5T213 79l101 571H192q-32 0-41.5-3.5T133 624zm55-761l-17 14q24 38 36.5 71T182-77h70q-21-50-44.5-85T143-238z" glyph-name="uni021A" horiz-adv-x="549" unicode="Ț"/><glyph d="M573 650l-55 5 5 25h189l-5-25-55-5q-17-2-21-9.5T621 601l-65-370q-21-119-84.5-180T305-10q-112 0-161.5 69T116 251l62 350q6 33 4.5 40t-17.5 9l-55 5 5 25h219l-5-25-55-5q-17-2-21-9.5T243 601l-65-370q-19-108 12.5-159.5T308 20q86 0 140.5 54T521 231l65 370q6 33 4.5 40t-17.5 9zM442 772l-17 21q32 33 52.5 63.5T518 933h80q-35-45-73.5-84.5T442 772z" glyph-name="Uacute" horiz-adv-x="673" unicode="Ú"/><glyph d="M573 650l-55 5 5 25h189l-5-25-55-5q-17-2-21-9.5T621 601l-65-370q-21-119-84.5-180T305-10q-112 0-161.5 69T116 251l62 350q6 33 4.5 40t-17.5 9l-55 5 5 25h219l-5-25-55-5q-17-2-21-9.5T243 601l-65-370q-19-108 12.5-159.5T308 20q86 0 140.5 54T521 231l65 370q6 33 4.5 40t-17.5 9zm0 140l-19-18q-29 29-51.5 55T462 878q-26-25-56-50.5T338 772l-18 21q48 43 71.5 69.5T445 933h52q14-44 29-72t47-71z" glyph-name="Ucircumflex" horiz-adv-x="673" unicode="Û"/><glyph d="M573 650l-55 5 5 25h189l-5-25-55-5q-17-2-21-9.5T621 601l-65-370q-21-119-84.5-180T305-10q-112 0-161.5 69T116 251l62 350q6 33 4.5 40t-17.5 9l-55 5 5 25h219l-5-25-55-5q-17-2-21-9.5T243 601l-65-370q-19-108 12.5-159.5T308 20q86 0 140.5 54T521 231l65 370q6 33 4.5 40t-17.5 9zM403 862q0-21-14.5-35.5T353 812q-17 0-28 10.5T314 850q0 21 14 35t35 14q19 0 29.5-10t10.5-27zm199 0q0-21-14.5-35.5T552 812q-17 0-28 10.5T513 850q0 21 14 35t35 14q19 0 29.5-10t10.5-27z" glyph-name="Udieresis" horiz-adv-x="673" unicode="Ü"/><glyph d="M573 650l-55 5 5 25h189l-5-25-55-5q-17-2-21-9.5T621 601l-65-370q-21-119-84.5-180T305-10q-112 0-161.5 69T116 251l62 350q6 33 4.5 40t-17.5 9l-55 5 5 25h219l-5-25-55-5q-17-2-21-9.5T243 601l-65-370q-19-108 12.5-159.5T308 20q86 0 140.5 54T521 231l65 370q6 33 4.5 40t-17.5 9zM465 789l-21-17q-31 37-55.5 76.5T344 933h72q5-43 15.5-74.5T465 789z" glyph-name="Ugrave" horiz-adv-x="673" unicode="Ù"/><glyph d="M573 650l-55 5 5 25h189l-5-25-55-5q-17-2-21-9.5T621 601l-65-370q-21-119-84.5-180T305-10q-112 0-161.5 69T116 251l62 350q6 33 4.5 40t-17.5 9l-55 5 5 25h219l-5-25-55-5q-17-2-21-9.5T243 601l-65-370q-19-108 12.5-159.5T308 20q86 0 140.5 54T521 231l65 370q6 33 4.5 40t-17.5 9zM453 825q46 0 76 25t54 83l26-7q-28-81-65-117.5T452 772q-58 0-87 37t-34 117l26 7q9-60 30.5-84t65.5-24z" glyph-name="Ubreve" horiz-adv-x="673" unicode="Ŭ"/><glyph d="M573 650l-55 5 5 25h189l-5-25-55-5q-17-2-21-9.5T621 601l-65-370q-21-119-84.5-180T305-10q-112 0-161.5 69T116 251l62 350q6 33 4.5 40t-17.5 9l-55 5 5 25h219l-5-25-55-5q-17-2-21-9.5T243 601l-65-370q-19-108 12.5-159.5T308 20q86 0 140.5 54T521 231l65 370q6 33 4.5 40t-17.5 9zM376 772l-18 15q20 27 37.5 60t39.5 86h74q-28-41-63-83.5T376 772zm140 0l-18 15q20 27 37.5 60t39.5 86h74q-28-41-63-83.5T516 772z" glyph-name="Uhungarumlaut" horiz-adv-x="673" unicode="Ű"/><glyph d="M573 650l-55 5 5 25h189l-5-25-55-5q-17-2-21-9.5T621 601l-65-370q-21-119-84.5-180T305-10q-112 0-161.5 69T116 251l62 350q6 33 4.5 40t-17.5 9l-55 5 5 25h219l-5-25-55-5q-17-2-21-9.5T243 601l-65-370q-19-108 12.5-159.5T308 20q86 0 140.5 54T521 231l65 370q6 33 4.5 40t-17.5 9zM315 855h287l-8-43H307z" glyph-name="Umacron" horiz-adv-x="673" unicode="Ū"/><glyph d="M421-112l42-13q-22-49-55.5-73.5T330-223q-45 0-71.5 22.5T232-138q0 36 22 63.5T349-7q-10-1-21.5-2T305-10q-112 0-161.5 69T116 251l62 350q6 33 4.5 40t-17.5 9l-55 5 5 25h219l-5-25-55-5q-17-2-21-9.5T243 601l-65-370q-19-108 12.5-159.5T308 20q86 0 140.5 54T521 231l65 370q6 33 4.5 40t-17.5 9l-55 5 5 25h189l-5-25-55-5q-17-2-21-9.5T621 601l-65-370q-12-67-37-114.5T456 38q-18-14-55.5-37T348-34q-34-24-49-49.5T284-140q0-28 11.5-42t34.5-14q29 0 52 21t39 63z" glyph-name="Uogonek" horiz-adv-x="673" unicode="Ų"/><glyph d="M573 650l-55 5 5 25h189l-5-25-55-5q-17-2-21-9.5T621 601l-65-370q-21-119-84.5-180T305-10q-112 0-161.5 69T116 251l62 350q6 33 4.5 40t-17.5 9l-55 5 5 25h219l-5-25-55-5q-17-2-21-9.5T243 601l-65-370q-19-108 12.5-159.5T308 20q86 0 140.5 54T521 231l65 370q6 33 4.5 40t-17.5 9zM470 974q55 0 85-33.5t22-79.5l-2-11q-8-43-42.5-69.5T449 754q-54 0-84 33.5T343 867l2 11q8 43 42 69.5t83 26.5zm-22-195q30 0 50.5 19.5T524 851l4 25q5 34-10 53.5T471 949q-30 0-50-19t-25-53l-4-25q-5-33 10-53t46-20z" glyph-name="Uring" horiz-adv-x="673" unicode="Ů"/><glyph d="M573 650l-55 5 5 25h189l-5-25-55-5q-17-2-21-9.5T621 601l-65-370q-21-119-84.5-180T305-10q-112 0-161.5 69T116 251l62 350q6 33 4.5 40t-17.5 9l-55 5 5 25h219l-5-25-55-5q-17-2-21-9.5T243 601l-65-370q-19-108 12.5-159.5T308 20q86 0 140.5 54T521 231l65 370q6 33 4.5 40t-17.5 9zm-49 136q-20 0-38 10.5T441 839q-20 25-31 32.5t-23 7.5q-20 0-35.5-20.5T328 801h-29q10 61 35.5 94t60.5 33q21 0 38.5-10.5T477 874q19-24 30-31.5t22-7.5q20 0 35.5 20.5T588 913h29q-10-60-35-93.5T524 786z" glyph-name="Utilde" horiz-adv-x="673" unicode="Ũ"/><glyph d="M639 0h-50l-70 590L238 0h-51l-43 611q-2 26-5 31.5t-18 7.5l-49 5 5 25h202l-5-25-49-5q-17-2-19.5-7.5T205 611l37-525 281 594h48l70-590 220 521q11 26 10.5 31.5T855 650l-49 5 5 25h177l-5-25-49-5q-16-2-21-8t-15-31zm-83 772l-17 21q32 33 52.5 63.5T632 933h80q-35-45-73.5-84.5T556 772z" glyph-name="Wacute" horiz-adv-x="911" unicode="Ẃ"/><glyph d="M639 0h-50l-70 590L238 0h-51l-43 611q-2 26-5 31.5t-18 7.5l-49 5 5 25h202l-5-25-49-5q-17-2-19.5-7.5T205 611l37-525 281 594h48l70-590 220 521q11 26 10.5 31.5T855 650l-49 5 5 25h177l-5-25-49-5q-16-2-21-8t-15-31zm48 790l-19-18q-29 29-51.5 55T576 878q-26-25-56-50.5T452 772l-18 21q48 43 71.5 69.5T559 933h52q14-44 29-72t47-71z" glyph-name="Wcircumflex" horiz-adv-x="911" unicode="Ŵ"/><glyph d="M639 0h-50l-70 590L238 0h-51l-43 611q-2 26-5 31.5t-18 7.5l-49 5 5 25h202l-5-25-49-5q-17-2-19.5-7.5T205 611l37-525 281 594h48l70-590 220 521q11 26 10.5 31.5T855 650l-49 5 5 25h177l-5-25-49-5q-16-2-21-8t-15-31zM517 862q0-21-14.5-35.5T467 812q-17 0-28 10.5T428 850q0 21 14 35t35 14q19 0 29.5-10t10.5-27zm199 0q0-21-14.5-35.5T666 812q-17 0-28 10.5T627 850q0 21 14 35t35 14q19 0 29.5-10t10.5-27z" glyph-name="Wdieresis" horiz-adv-x="911" unicode="Ẅ"/><glyph d="M639 0h-50l-70 590L238 0h-51l-43 611q-2 26-5 31.5t-18 7.5l-49 5 5 25h202l-5-25-49-5q-17-2-19.5-7.5T205 611l37-525 281 594h48l70-590 220 521q11 26 10.5 31.5T855 650l-49 5 5 25h177l-5-25-49-5q-16-2-21-8t-15-31zm-60 789l-21-17q-31 37-55.5 76.5T458 933h72q5-43 15.5-74.5T579 789z" glyph-name="Wgrave" horiz-adv-x="911" unicode="Ẁ"/><glyph d="M302 30l54-5-4-25H133l4 25 56 5q16 2 20 7t7 22l41 231-106 321q-8 25-13 31t-21 8l-49 5 5 25h211l-5-25-49-5q-16-2-17.5-7.5T224 611l91-283 192 283q17 26 18 31.5t-14 7.5l-49 5 5 25h180l-5-25-49-5q-17-1-23.5-6.5T545 611L326 289 289 79q-6-34-4.5-40.5T302 30zm82 742l-17 21q32 33 52.5 63.5T460 933h80q-35-45-73.5-84.5T384 772z" glyph-name="Yacute" horiz-adv-x="570" unicode="Ý"/><glyph d="M302 30l54-5-4-25H133l4 25 56 5q16 2 20 7t7 22l41 231-106 321q-8 25-13 31t-21 8l-49 5 5 25h211l-5-25-49-5q-16-2-17.5-7.5T224 611l91-283 192 283q17 26 18 31.5t-14 7.5l-49 5 5 25h180l-5-25-49-5q-17-1-23.5-6.5T545 611L326 289 289 79q-6-34-4.5-40.5T302 30zm43 832q0-21-14.5-35.5T295 812q-17 0-28 10.5T256 850q0 21 14 35t35 14q19 0 29.5-10t10.5-27zm199 0q0-21-14.5-35.5T494 812q-17 0-28 10.5T455 850q0 21 14 35t35 14q19 0 29.5-10t10.5-27z" glyph-name="Ydieresis" horiz-adv-x="570" unicode="Ÿ"/><glyph d="M302 30l54-5-4-25H133l4 25 56 5q16 2 20 7t7 22l41 231-106 321q-8 25-13 31t-21 8l-49 5 5 25h211l-5-25-49-5q-16-2-17.5-7.5T224 611l91-283 192 283q17 26 18 31.5t-14 7.5l-49 5 5 25h180l-5-25-49-5q-17-1-23.5-6.5T545 611L326 289 289 79q-6-34-4.5-40.5T302 30zm213 760l-19-18q-29 29-51.5 55T404 878q-26-25-56-50.5T280 772l-18 21q48 43 71.5 69.5T387 933h52q14-44 29-72t47-71z" glyph-name="Ycircumflex" horiz-adv-x="570" unicode="Ŷ"/><glyph d="M302 30l54-5-4-25H133l4 25 56 5q16 2 20 7t7 22l41 231-106 321q-8 25-13 31t-21 8l-49 5 5 25h211l-5-25-49-5q-16-2-17.5-7.5T224 611l91-283 192 283q17 26 18 31.5t-14 7.5l-49 5 5 25h180l-5-25-49-5q-17-1-23.5-6.5T545 611L326 289 289 79q-6-34-4.5-40.5T302 30zm105 759l-21-17q-31 37-55.5 76.5T286 933h72q5-43 15.5-74.5T407 789z" glyph-name="Ygrave" horiz-adv-x="570" unicode="Ỳ"/><glyph d="M441 157h25L438 0H-2l4 20 461 630H229q-32 0-41.5-3.5T170 624l-45-101h-25l28 157h420l-4-20L83 30h254q32 0 41.5 3.5T396 56zm37 781l18-21q-48-43-71.5-69.5T371 777h-52q-14 44-29 72t-47 71l19 18q29-29 51.5-55t40.5-51q26 25 56 50.5t68 55.5z" glyph-name="Zcaron" horiz-adv-x="522" unicode="Ž"/><glyph d="M441 157h25L438 0H-2l4 20 461 630H229q-32 0-41.5-3.5T170 624l-45-101h-25l28 157h420l-4-20L83 30h254q32 0 41.5 3.5T396 56zm-98 615l-17 21q32 33 52.5 63.5T419 933h80q-35-45-73.5-84.5T343 772z" glyph-name="Zacute" horiz-adv-x="522" unicode="Ź"/><glyph d="M441 157h25L438 0H-2l4 20 461 630H229q-32 0-41.5-3.5T170 624l-45-101h-25l28 157h420l-4-20L83 30h254q32 0 41.5 3.5T396 56zm-35 705q0-21-15-36.5T354 810q-19 0-30 10.5T313 850q0 21 15 36t36 15q19 0 30.5-10.5T406 862z" glyph-name="Zdotaccent" horiz-adv-x="522" unicode="Ż"/><glyph d="M443-5q-36 0-54 24t-17 71q-33-50-72.5-75T214-10q-84 0-124.5 76T70 256l4 22q17 98 80.5 158.5T301 497q42 0 74.5-16.5T430 431l14 28 14 28h40l-60-337q-12-67-9-96.5T451 24q18 0 36 21.5t30 59.5l33-22q-22-43-49-65.5T443-5zM142 286l-10-60q-15-92 9-149t78-57q44 0 83.5 33.5T379 156l41 229q-20 43-48 62.5T302 467q-63 0-104.5-47T142 286zm179 293l-17 21q32 33 52.5 63.5T397 740h80q-35-45-73.5-84.5T321 579z" glyph-name="aacute" horiz-adv-x="578" unicode="á"/><glyph d="M443-5q-36 0-54 24t-17 71q-33-50-72.5-75T214-10q-84 0-124.5 76T70 256l4 22q17 98 80.5 158.5T301 497q42 0 74.5-16.5T430 431l14 28 14 28h40l-60-337q-12-67-9-96.5T451 24q18 0 36 21.5t30 59.5l33-22q-22-43-49-65.5T443-5zM142 286l-10-60q-15-92 9-149t78-57q44 0 83.5 33.5T379 156l41 229q-20 43-48 62.5T302 467q-63 0-104.5-47T142 286zm310 311l-19-18q-29 29-51.5 55T341 685q-26-25-56-50.5T217 579l-18 21q48 43 71.5 69.5T324 740h52q14-44 29-72t47-71z" glyph-name="acircumflex" horiz-adv-x="578" unicode="â"/><glyph d="M443-5q-36 0-54 24t-17 71q-33-50-72.5-75T214-10q-84 0-124.5 76T70 256l4 22q17 98 80.5 158.5T301 497q42 0 74.5-16.5T430 431l14 28 14 28h40l-60-337q-12-67-9-96.5T451 24q18 0 36 21.5t30 59.5l33-22q-22-43-49-65.5T443-5zM142 286l-10-60q-15-92 9-149t78-57q44 0 83.5 33.5T379 156l41 229q-20 43-48 62.5T302 467q-63 0-104.5-47T142 286zm140 383q0-21-14.5-35.5T232 619q-17 0-28 10.5T193 657q0 21 14 35t35 14q19 0 29.5-10t10.5-27zm199 0q0-21-14.5-35.5T431 619q-17 0-28 10.5T392 657q0 21 14 35t35 14q19 0 29.5-10t10.5-27z" glyph-name="adieresis" horiz-adv-x="578" unicode="ä"/><glyph d="M443-5q-36 0-54 24t-17 71q-33-50-72.5-75T214-10q-84 0-124.5 76T70 256l4 22q17 98 80.5 158.5T301 497q42 0 74.5-16.5T430 431l14 28 14 28h40l-60-337q-12-67-9-96.5T451 24q18 0 36 21.5t30 59.5l33-22q-22-43-49-65.5T443-5zM142 286l-10-60q-15-92 9-149t78-57q44 0 83.5 33.5T379 156l41 229q-20 43-48 62.5T302 467q-63 0-104.5-47T142 286zm202 310l-21-17q-31 37-55.5 76.5T223 740h72q5-43 15.5-74.5T344 596z" glyph-name="agrave" horiz-adv-x="578" unicode="à"/><glyph d="M443-5q-36 0-54 24t-17 71q-33-50-72.5-75T214-10q-84 0-124.5 76T70 256l4 22q17 98 80.5 158.5T301 497q42 0 74.5-16.5T430 431l14 28 14 28h40l-60-337q-12-67-9-96.5T451 24q18 0 36 21.5t30 59.5l33-22q-22-43-49-65.5T443-5zM142 286l-10-60q-15-92 9-149t78-57q44 0 83.5 33.5T379 156l41 229q-20 43-48 62.5T302 467q-63 0-104.5-47T142 286zm207 495q55 0 85-33.5t22-79.5l-2-11q-8-43-42.5-69.5T328 561q-54 0-84 33.5T222 674l2 11q8 43 42 69.5t83 26.5zm-22-195q30 0 50.5 19.5T403 658l4 25q5 34-10 53.5T350 756q-30 0-50-19t-25-53l-4-25q-5-33 10-53t46-20z" glyph-name="aring" horiz-adv-x="578" unicode="å"/><glyph d="M443-5q-36 0-54 24t-17 71q-33-50-72.5-75T214-10q-84 0-124.5 76T70 256l4 22q17 98 80.5 158.5T301 497q42 0 74.5-16.5T430 431l14 28 14 28h40l-60-337q-12-67-9-96.5T451 24q18 0 36 21.5t30 59.5l33-22q-22-43-49-65.5T443-5zM142 286l-10-60q-15-92 9-149t78-57q44 0 83.5 33.5T379 156l41 229q-20 43-48 62.5T302 467q-63 0-104.5-47T142 286zm261 307q-20 0-38 10.5T320 646q-20 25-31 32.5t-23 7.5q-20 0-35.5-20.5T207 608h-29q10 61 35.5 94t60.5 33q21 0 38.5-10.5T356 681q19-24 30-31.5t22-7.5q20 0 35.5 20.5T467 720h29q-10-60-35-93.5T403 593z" glyph-name="atilde" horiz-adv-x="578" unicode="ã"/><glyph d="M443-5q-36 0-54 24t-17 71q-33-50-72.5-75T214-10q-84 0-124.5 76T70 256l4 22q17 98 80.5 158.5T301 497q42 0 74.5-16.5T430 431l14 28 14 28h40l-60-337q-12-67-9-96.5T451 24q18 0 36 21.5t30 59.5l33-22q-22-43-49-65.5T443-5zM142 286l-10-60q-15-92 9-149t78-57q44 0 83.5 33.5T379 156l41 229q-20 43-48 62.5T302 467q-63 0-104.5-47T142 286zm190 346q46 0 76 25t54 83l26-7q-28-81-65-117.5T331 579q-58 0-87 37t-34 117l26 7q9-60 30.5-84t65.5-24z" glyph-name="abreve" horiz-adv-x="578" unicode="ă"/><glyph d="M443-5q-36 0-54 24t-17 71q-33-50-72.5-75T214-10q-84 0-124.5 76T70 256l4 22q17 98 80.5 158.5T301 497q42 0 74.5-16.5T430 431l14 28 14 28h40l-60-337q-12-67-9-96.5T451 24q18 0 36 21.5t30 59.5l33-22q-22-43-49-65.5T443-5zM142 286l-10-60q-15-92 9-149t78-57q44 0 83.5 33.5T379 156l41 229q-20 43-48 62.5T302 467q-63 0-104.5-47T142 286zm52 376h287l-8-43H186z" glyph-name="amacron" horiz-adv-x="578" unicode="ā"/><glyph d="M473-112l42-13q-22-49-55.5-73.5T382-223q-44 0-71 21.5T284-144q0 36 25.5 65.5T422-3q-26 7-38.5 30.5T372 90q-33-50-72.5-75T214-10q-84 0-124.5 76T70 256l4 22q17 98 80.5 158.5T301 497q42 0 74.5-16.5T430 431l14 28 14 28h40l-60-337q-12-67-9-96.5T451 24q18 0 36 21.5t30 59.5l33-22q-13-31-37.5-55.5T430-29q-59-34-76.5-58T336-144q0-26 11.5-39t34.5-13q29 0 52 21t39 63zM142 286l-10-60q-15-92 9-149t78-57q44 0 83.5 33.5T379 156l41 229q-20 43-48 62.5T302 467q-63 0-104.5-47T142 286z" glyph-name="aogonek" horiz-adv-x="580" unicode="ą"/><glyph d="M319-134q0-40-32.5-64.5T203-223q-45 0-70 20t-26 58l47 13q-3-34 9-50t41-16q27 0 44.5 18t17.5 46q0 27-12 37.5T214-86q-4 0-10-.5T188-89l-4 26 31 53Q129-5 88.5 66.5T69 250l4 22q19 103 82 164t153 61q86 0 125-50t14-127l-60-16q25 79 4 121t-85 42q-63 0-106.5-47.5T142 285l-10-60q-17-99 8.5-152T230 20q50 0 88.5 26.5T374 121l42-23q-28-48-70.5-75.5T248-9l-30-51h3q46 0 72-20t26-54z" glyph-name="ccedilla" horiz-adv-x="483" unicode="ç"/><glyph d="M306 467q-63 0-106.5-47.5T142 285l-10-60q-17-99 8.5-152T230 20q50 0 88.5 26.5T374 121l42-23q-31-53-79.5-80.5T226-10q-91 0-135 72T69 250l4 22q19 103 82 164t153 61q86 0 125-50t14-127l-60-16q25 79 4 121t-85 42zm11 112l-17 21q32 33 52.5 63.5T393 740h80q-35-45-73.5-84.5T317 579z" glyph-name="cacute" horiz-adv-x="483" unicode="ć"/><glyph d="M306 467q-63 0-106.5-47.5T142 285l-10-60q-17-99 8.5-152T230 20q50 0 88.5 26.5T374 121l42-23q-31-53-79.5-80.5T226-10q-91 0-135 72T69 250l4 22q19 103 82 164t153 61q86 0 125-50t14-127l-60-16q25 79 4 121t-85 42zm146 278l18-21q-48-43-71.5-69.5T345 584h-52q-14 44-29 72t-47 71l19 18q29-29 51.5-55t40.5-51q26 25 56 50.5t68 55.5z" glyph-name="ccaron" horiz-adv-x="483" unicode="č"/><glyph d="M306 467q-63 0-106.5-47.5T142 285l-10-60q-17-99 8.5-152T230 20q50 0 88.5 26.5T374 121l42-23q-31-53-79.5-80.5T226-10q-91 0-135 72T69 250l4 22q19 103 82 164t153 61q86 0 125-50t14-127l-60-16q25 79 4 121t-85 42zm142 130l-19-18q-29 29-51.5 55T337 685q-26-25-56-50.5T213 579l-18 21q48 43 71.5 69.5T320 740h52q14-44 29-72t47-71z" glyph-name="ccircumflex" horiz-adv-x="483" unicode="ĉ"/><glyph d="M306 467q-63 0-106.5-47.5T142 285l-10-60q-17-99 8.5-152T230 20q50 0 88.5 26.5T374 121l42-23q-31-53-79.5-80.5T226-10q-91 0-135 72T69 250l4 22q19 103 82 164t153 61q86 0 125-50t14-127l-60-16q25 79 4 121t-85 42zm74 202q0-21-15-36.5T328 617q-19 0-30 10.5T287 657q0 21 15 36t36 15q19 0 30.5-10.5T380 669z" glyph-name="cdotaccent" horiz-adv-x="483" unicode="ċ"/><glyph d="M448-5q-36 0-54 24.5T377 91q-34-51-74-76t-87-25q-85 0-126 76T70 256l4 22q17 98 81 158.5T303 497q42 0 74.5-16t55.5-49l40 229q6 34 4.5 40.5T460 710l-54 5 4 25h137L443 150q-12-67-9-96.5T456 24q18 0 36 21.5t30 59.5l33-22q-22-43-49-65.5T448-5zM142 286l-10-60q-15-93 9.5-149.5T221 20q45 0 86 34.5T385 158l39 225q-20 44-48.5 64T304 467q-64 0-105.5-46.5T142 286zm479 240h-19l37 214h64q-21-61-41-113t-41-101z" glyph-name="dcaron" horiz-adv-x="647" unicode="ď"/><glyph d="M448-5q-36 0-54 24.5T377 91q-34-51-74-76t-87-25q-85 0-126 76T70 256l4 22q17 98 81 158.5T303 497q42 0 74.5-16t55.5-49l27 155H303l5 30h157l8 44q6 34 4.5 40.5T460 710l-54 5 4 25h137l-22-123h78l-5-30h-78l-77-437q-12-67-9-96.5T456 24q18 0 36 21.5t30 59.5l33-22q-22-43-49-65.5T448-5zM142 286l-10-60q-15-93 9.5-149.5T221 20q45 0 86 34.5T385 158l39 225q-20 44-48.5 64T304 467q-64 0-105.5-46.5T142 286z" glyph-name="dcroat" horiz-adv-x="582" unicode="đ"/><glyph d="M389 120l43-22q-30-53-79.5-80.5T241-10Q141-10 94 61.5T68 250l4 22q19 103 84.5 164T315 497q69 0 112.5-34.5T471 377q0-69-74.5-112.5T190 212l-62-4q-12-92 17-140t95-48q52 0 92 26t57 74zm-76 347q-66 0-112-47.5T141 285l-8-48 56 4q109 7 165.5 43t56.5 97q0 40-26 63t-72 23zm9 112l-17 21q32 33 52.5 63.5T398 740h80q-35-45-73.5-84.5T322 579z" glyph-name="eacute" horiz-adv-x="506" unicode="é"/><glyph d="M389 120l43-22q-30-53-79.5-80.5T241-10Q141-10 94 61.5T68 250l4 22q19 103 84.5 164T315 497q69 0 112.5-34.5T471 377q0-69-74.5-112.5T190 212l-62-4q-12-92 17-140t95-48q52 0 92 26t57 74zm-76 347q-66 0-112-47.5T141 285l-8-48 56 4q109 7 165.5 43t56.5 97q0 40-26 63t-72 23zm141 130l-19-18q-29 29-51.5 55T343 685q-26-25-56-50.5T219 579l-18 21q48 43 71.5 69.5T326 740h52q14-44 29-72t47-71z" glyph-name="ecircumflex" horiz-adv-x="506" unicode="ê"/><glyph d="M389 120l43-22q-30-53-79.5-80.5T241-10Q141-10 94 61.5T68 250l4 22q19 103 84.5 164T315 497q69 0 112.5-34.5T471 377q0-69-74.5-112.5T190 212l-62-4q-12-92 17-140t95-48q52 0 92 26t57 74zm-76 347q-66 0-112-47.5T141 285l-8-48 56 4q109 7 165.5 43t56.5 97q0 40-26 63t-72 23zm-30 202q0-21-14.5-35.5T233 619q-17 0-28 10.5T194 657q0 21 14 35t35 14q19 0 29.5-10t10.5-27zm199 0q0-21-14.5-35.5T432 619q-17 0-28 10.5T393 657q0 21 14 35t35 14q19 0 29.5-10t10.5-27z" glyph-name="edieresis" horiz-adv-x="506" unicode="ë"/><glyph d="M389 120l43-22q-30-53-79.5-80.5T241-10Q141-10 94 61.5T68 250l4 22q19 103 84.5 164T315 497q69 0 112.5-34.5T471 377q0-69-74.5-112.5T190 212l-62-4q-12-92 17-140t95-48q52 0 92 26t57 74zm-76 347q-66 0-112-47.5T141 285l-8-48 56 4q109 7 165.5 43t56.5 97q0 40-26 63t-72 23zm32 129l-21-17q-31 37-55.5 76.5T224 740h72q5-43 15.5-74.5T345 596z" glyph-name="egrave" horiz-adv-x="506" unicode="è"/><glyph d="M389 120l43-22q-30-53-79.5-80.5T241-10Q141-10 94 61.5T68 250l4 22q19 103 84.5 164T315 497q69 0 112.5-34.5T471 377q0-69-74.5-112.5T190 212l-62-4q-12-92 17-140t95-48q52 0 92 26t57 74zm-76 347q-66 0-112-47.5T141 285l-8-48 56 4q109 7 165.5 43t56.5 97q0 40-26 63t-72 23zm20 165q46 0 76 25t54 83l26-7q-28-81-65-117.5T332 579q-58 0-87 37t-34 117l26 7q9-60 30.5-84t65.5-24z" glyph-name="ebreve" horiz-adv-x="506" unicode="ĕ"/><glyph d="M389 120l43-22q-30-53-79.5-80.5T241-10Q141-10 94 61.5T68 250l4 22q19 103 84.5 164T315 497q69 0 112.5-34.5T471 377q0-69-74.5-112.5T190 212l-62-4q-12-92 17-140t95-48q52 0 92 26t57 74zm-76 347q-66 0-112-47.5T141 285l-8-48 56 4q109 7 165.5 43t56.5 97q0 40-26 63t-72 23zm144 278l18-21q-48-43-71.5-69.5T350 584h-52q-14 44-29 72t-47 71l19 18q29-29 51.5-55t40.5-51q26 25 56 50.5t68 55.5z" glyph-name="ecaron" horiz-adv-x="506" unicode="ě"/><glyph d="M389 120l43-22q-30-53-79.5-80.5T241-10Q141-10 94 61.5T68 250l4 22q19 103 84.5 164T315 497q69 0 112.5-34.5T471 377q0-69-74.5-112.5T190 212l-62-4q-12-92 17-140t95-48q52 0 92 26t57 74zm-76 347q-66 0-112-47.5T141 285l-8-48 56 4q109 7 165.5 43t56.5 97q0 40-26 63t-72 23zm72 202q0-21-15-36.5T333 617q-19 0-30 10.5T292 657q0 21 15 36t36 15q19 0 30.5-10.5T385 669z" glyph-name="edotaccent" horiz-adv-x="506" unicode="ė"/><glyph d="M389 120l43-22q-30-53-79.5-80.5T241-10Q141-10 94 61.5T68 250l4 22q19 103 84.5 164T315 497q69 0 112.5-34.5T471 377q0-69-74.5-112.5T190 212l-62-4q-12-92 17-140t95-48q52 0 92 26t57 74zm-76 347q-66 0-112-47.5T141 285l-8-48 56 4q109 7 165.5 43t56.5 97q0 40-26 63t-72 23zM195 662h287l-8-43H187z" glyph-name="emacron" horiz-adv-x="506" unicode="ē"/><glyph d="M347-112l42-13q-22-49-55.5-73.5T256-223q-45 0-71.5 22.5T158-138q0 35 22.5 64T267-9q-5-1-10-1h-16Q141-10 94 61.5T68 250l4 22q19 103 84.5 164T315 497q69 0 112.5-34.5T471 377q0-69-74.5-112.5T190 212l-62-4q-12-92 17-140t95-48q52 0 92 26t57 74l43-22q-14-26-37.5-49T315-9q-66-42-85.5-69.5T210-140q0-28 11.5-42t34.5-14q29 0 52 21t39 63zm-34 579q-66 0-112-47.5T141 285l-8-48 56 4q109 7 165.5 43t56.5 97q0 40-26 63t-72 23z" glyph-name="eogonek" horiz-adv-x="506" unicode="ę"/><glyph d="M502 487L417 9q-20-111-82-171.5T176-223q-76 0-116 42T28-68l57 10q-10-69 13-103t79-34q73 0 117 48T356-1l15 84q-33-47-71.5-70T216-10q-85 0-126 76T70 256l4 22q17 98 81 158.5T303 497q43 0 76-17t56-50q2 5 5 10.5t9 18.5q5 12 8 17.5t5 10.5zM142 286l-10-60q-15-93 9.5-149.5T221 20q45 0 85.5 34T384 157l40 226q-20 44-48.5 64T304 467q-64 0-105.5-46.5T142 286zm194 346q46 0 76 25t54 83l26-7q-28-81-65-117.5T335 579q-58 0-87 37t-34 117l26 7q9-60 30.5-84t65.5-24z" glyph-name="gbreve" horiz-adv-x="559" unicode="ğ"/><glyph d="M502 487L417 9q-20-111-82-171.5T176-223q-76 0-116 42T28-68l57 10q-10-69 13-103t79-34q73 0 117 48T356-1l15 84q-33-47-71.5-70T216-10q-85 0-126 76T70 256l4 22q17 98 81 158.5T303 497q43 0 76-17t56-50q2 5 5 10.5t9 18.5q5 12 8 17.5t5 10.5zM142 286l-10-60q-15-93 9.5-149.5T221 20q45 0 85.5 34T384 157l40 226q-20 44-48.5 64T304 467q-64 0-105.5-46.5T142 286zm314 311l-19-18q-29 29-51.5 55T345 685q-26-25-56-50.5T221 579l-18 21q48 43 71.5 69.5T328 740h52q14-44 29-72t47-71z" glyph-name="gcircumflex" horiz-adv-x="559" unicode="ĝ"/><glyph d="M502 487L417 9q-20-111-82-171.5T176-223q-76 0-116 42T28-68l57 10q-10-69 13-103t79-34q73 0 117 48T356-1l15 84q-33-47-71.5-70T216-10q-85 0-126 76T70 256l4 22q17 98 81 158.5T303 497q43 0 76-17t56-50q2 5 5 10.5t9 18.5q5 12 8 17.5t5 10.5zM142 286l-10-60q-15-93 9.5-149.5T221 20q45 0 85.5 34T384 157l40 226q-20 44-48.5 64T304 467q-64 0-105.5-46.5T142 286zm259 459l18-14q-23-36-36-69t-21-78h-70q21 50 44.5 85t64.5 76z" glyph-name="gcommaaccent" horiz-adv-x="559" unicode="ģ"/><glyph d="M502 487L417 9q-20-111-82-171.5T176-223q-76 0-116 42T28-68l57 10q-10-69 13-103t79-34q73 0 117 48T356-1l15 84q-33-47-71.5-70T216-10q-85 0-126 76T70 256l4 22q17 98 81 158.5T303 497q43 0 76-17t56-50q2 5 5 10.5t9 18.5q5 12 8 17.5t5 10.5zM142 286l-10-60q-15-93 9.5-149.5T221 20q45 0 85.5 34T384 157l40 226q-20 44-48.5 64T304 467q-64 0-105.5-46.5T142 286zm246 383q0-21-15-36.5T336 617q-19 0-30 10.5T295 657q0 21 15 36t36 15q19 0 30.5-10.5T388 669z" glyph-name="gdotaccent" horiz-adv-x="559" unicode="ġ"/><glyph d="M546 105l33-22q-22-44-50-66T468-5q-44 0-60 30.5t-4 91.5l40 198q15 75-2 113.5T377 467q-52 0-102-39.5T177 309L123 0H63l103 587H89l5 30h77l8 44q6 33 4.5 40t-17.5 9l-55 5 5 25h137l-22-123h158l-5-30H226l-37-211q43 60 92 90.5T385 497q73 0 105.5-49T505 316l-44-209q-10-47-6-65t22-18q20 0 38 21t31 60z" glyph-name="hbar" horiz-adv-x="607" unicode="ħ"/><glyph d="M546 105l33-22q-22-44-50-66T468-5q-44 0-60 30.5t-4 91.5l40 198q15 75-2 113.5T377 467q-52 0-102-39.5T177 309L123 0H63l116 661q6 33 4.5 40t-17.5 9l-55 5 5 25h137l-64-364q43 60 92 90.5T385 497q73 0 105.5-49T505 316l-44-209q-10-47-6-65t22-18q20 0 38 21t31 60zm-85 714l-19-18q-29 29-51.5 55T350 907q-26-25-56-50.5T226 801l-18 21q48 43 71.5 69.5T333 962h52q14-44 29-72t47-71z" glyph-name="hcircumflex" horiz-adv-x="607" unicode="ĥ"/><glyph d="M128 457l-54 5 4 25h137l-59-337q-12-67-9-96.5T169 24q18 0 36 21.5t30 59.5l33-22q-22-43-49-65.5T161-5q-45 0-62 37.5T95 142l46 266q6 33 4.5 40t-17.5 9zm52 122l-17 21q32 33 52.5 63.5T256 740h80q-35-45-73.5-84.5T180 579z" glyph-name="iacute" horiz-adv-x="295" unicode="í"/><glyph d="M128 457l-54 5 4 25h137l-59-337q-12-67-9-96.5T169 24q18 0 36 21.5t30 59.5l33-22q-22-43-49-65.5T161-5q-45 0-62 37.5T95 142l46 266q6 33 4.5 40t-17.5 9zm183 140l-19-18q-29 29-51.5 55T200 685q-26-25-56-50.5T76 579l-18 21q48 43 71.5 69.5T183 740h52q14-44 29-72t47-71z" glyph-name="icircumflex" horiz-adv-x="295" unicode="î"/><glyph d="M128 457l-54 5 4 25h137l-59-337q-12-67-9-96.5T169 24q18 0 36 21.5t30 59.5l33-22q-22-43-49-65.5T161-5q-45 0-62 37.5T95 142l46 266q6 33 4.5 40t-17.5 9zm13 212q0-21-14.5-35.5T91 619q-17 0-28 10.5T52 657q0 21 14 35t35 14q19 0 29.5-10t10.5-27zm199 0q0-21-14.5-35.5T290 619q-17 0-28 10.5T251 657q0 21 14 35t35 14q19 0 29.5-10t10.5-27z" glyph-name="idieresis" horiz-adv-x="295" unicode="ï"/><glyph d="M128 457l-54 5 4 25h137l-59-337q-12-67-9-96.5T169 24q18 0 36 21.5t30 59.5l33-22q-22-43-49-65.5T161-5q-45 0-62 37.5T95 142l46 266q6 33 4.5 40t-17.5 9zm75 139l-21-17q-31 37-55.5 76.5T82 740h72q5-43 15.5-74.5T203 596z" glyph-name="igrave" horiz-adv-x="295" unicode="ì"/><glyph d="M128 457l-54 5 4 25h137l-59-337q-12-67-9-96.5T169 24q18 0 36 21.5t30 59.5l33-22q-22-43-49-65.5T161-5q-45 0-62 37.5T95 142l46 266q6 33 4.5 40t-17.5 9zm63 175q46 0 76 25t54 83l26-7q-28-81-65-117.5T190 579q-58 0-87 37T69 733l26 7q9-60 30.5-84t65.5-24z" glyph-name="ibreve" horiz-adv-x="295" unicode="ĭ"/><glyph d="M262 669q0-21-15-36.5T210 617q-19 0-30 10.5T169 657q0 21 15 36t36 15q19 0 30.5-10.5T262 669zM128 457l-54 5 4 25h137l-59-337q-12-67-9-96.5T169 24q18 0 36 21.5t30 59.5l33-22q-22-43-49-65.5T161-5q-45 0-62 37.5T95 142l46 266q6 33 4.5 40t-17.5 9z" glyph-name="i.dot" horiz-adv-x="295"/><glyph d="M128 457l-54 5 4 25h137l-59-337q-12-67-9-96.5T169 24q18 0 36 21.5t30 59.5l33-22q-22-43-49-65.5T161-5q-45 0-62 37.5T95 142l46 266q6 33 4.5 40t-17.5 9zM53 662h287l-8-43H45z" glyph-name="imacron" horiz-adv-x="295" unicode="ī"/><glyph d="M250 669q0-21-15-36.5T198 617q-19 0-30 10.5T157 657q0 21 15 36t36 15q19 0 30.5-10.5T250 669zM116 457l-54 5 4 25h137l-59-337q-12-67-9-96.5T157 24q18 0 36 21.5t30 59.5l33-22q-13-28-35-51t-74-54Q90-57 73-83t-17-61q0-26 11.5-39t34.5-13q29 0 52 21t39 63l42-13q-22-49-55.5-73.5T102-223q-44 0-71 21.5T4-144q0 37 25 68T129-3Q95 5 83.5 41.5T83 142l46 266q6 33 4.5 40t-17.5 9z" glyph-name="iogonek" horiz-adv-x="283" unicode="į"/><glyph d="M128 457l-54 5 4 25h137l-59-337q-12-67-9-96.5T169 24q18 0 36 21.5t30 59.5l33-22q-22-43-49-65.5T161-5q-45 0-62 37.5T95 142l46 266q6 33 4.5 40t-17.5 9zm134 136q-20 0-38 10.5T179 646q-20 25-31 32.5t-23 7.5q-20 0-35.5-20.5T66 608H37q10 61 35.5 94t60.5 33q21 0 38.5-10.5T215 681q19-24 30-31.5t22-7.5q20 0 35.5 20.5T326 720h29q-10-60-35-93.5T262 593z" glyph-name="itilde" horiz-adv-x="295" unicode="ĩ"/><glyph d="M128 457l-54 5 4 25h137L118-64q-14-79-53.5-119T-39-223q-51 0-79.5 30t-24.5 82l52 12q-2-48 10.5-71t41.5-23q41 0 63 29.5T58-64l83 472q6 33 4.5 40t-17.5 9zm184 140l-19-18q-29 29-51.5 55T201 685q-26-25-56-50.5T77 579l-18 21q48 43 71.5 69.5T184 740h52q14-44 29-72t47-71z" glyph-name="jcircumflex" horiz-adv-x="273" unicode="ĵ"/><glyph d="M262 669q0-21-15-36.5T210 617q-19 0-30 10.5T169 657q0 21 15 36t36 15q19 0 30.5-10.5T262 669zM128 457l-54 5 4 25h137l-59-337q-12-67-9-96.5T169 24q18 0 36 21.5t30 59.5l33-22q-22-43-49-65.5T161-5q-45 0-62 37.5T95 142l46 266q6 33 4.5 40t-17.5 9zm429 212q0-21-15-36.5T505 617q-19 0-30 10.5T464 657q0 21 15 36t36 15q19 0 30.5-10.5T557 669zM422 457l-54 5 4 25h137L412-64q-14-79-53.5-119T255-223q-51 0-79.5 30T151-111l52 12q-2-48 10.5-71t41.5-23q41 0 63 29.5T352-64l83 472q6 33 4.5 40t-17.5 9z" glyph-name="ij" horiz-adv-x="574" unicode="ĳ"/><glyph d="M485 0H367L239 271l-91-84L115 0H57l116 661q6 33 4.5 40t-17.5 9l-54 5 4 25h137l-90-505 125 118q69 65 114.5 95.5T496 497l15-61q-65-17-118.5-45T295 323l-12-11L402 69q14-27 19-32t20-7l48-5zM170-238l-17 14q24 38 36.5 71T209-77h70q-21-50-44.5-85T170-238z" glyph-name="kcommaaccent" horiz-adv-x="509" unicode="ķ"/><glyph d="M497 0H379L251 271l-90-83L127 0H69l72 408q6 33 4.5 40t-17.5 9l-54 5 4 25h137l-45-252 124 118q69 65 114.5 95.5T508 497l15-61q-65-17-118.5-45T307 323l-12-11L414 69q14-27 19-32t20-7l48-5z" glyph-name="kgreenlandic" horiz-adv-x="521" unicode="ĸ"/><glyph d="M161 710l-54 5 4 25h137L145 150q-12-67-9-96.5T158 24q18 0 36 21.5t30 59.5l33-22q-22-43-49-65.5T150-5q-45 0-62 37.5T84 142l90 519q6 33 4.5 40t-17.5 9zm59 91l-17 21q32 33 52.5 63.5T296 962h80q-35-45-73.5-84.5T220 801z" glyph-name="lacute" horiz-adv-x="285" unicode="ĺ"/><glyph d="M161 710l-54 5 4 25h137L145 150q-12-67-9-96.5T158 24q18 0 36 21.5t30 59.5l33-22q-22-43-49-65.5T150-5q-45 0-62 37.5T84 142l90 519q6 33 4.5 40t-17.5 9zm155-184h-19l37 214h64q-21-61-41-113t-41-101z" glyph-name="lcaron" horiz-adv-x="342" unicode="ľ"/><glyph d="M161 710l-54 5 4 25h137L145 150q-12-67-9-96.5T158 24q18 0 36 21.5t30 59.5l33-22q-22-43-49-65.5T150-5q-45 0-62 37.5T84 142l90 519q6 33 4.5 40t-17.5 9zM43-238l-17 14q24 38 36.5 71T82-77h70q-21-50-44.5-85T43-238z" glyph-name="lcommaaccent" horiz-adv-x="288" unicode="ļ"/><glyph d="M161 710l-54 5 4 25h137L145 150q-12-67-9-96.5T158 24q18 0 36 21.5t30 59.5l33-22q-22-43-49-65.5T150-5q-45 0-62 37.5T84 142l90 519q6 33 4.5 40t-17.5 9zm186-319q0-21-15-36.5T295 339q-19 0-30 10.5T254 379q0 21 15 36t36 15q19 0 30.5-10.5T347 391z" glyph-name="ldot" horiz-adv-x="288" unicode="ŀ"/><glyph d="M552 105l33-22q-22-44-50-66T474-5q-44 0-60 31t-4 91l40 198q15 75-2 113.5T383 467q-52 0-102-39.5T183 309L129 0H69l72 408q6 33 4.5 40t-17.5 9l-55 5 5 25h137l-20-111q43 60 92 90.5T391 497q73 0 105.5-49T511 316l-44-209q-10-47-6-65t22-18q20 0 38 21t31 60zM451 593q-20 0-38 10.5T368 646q-20 25-31 32.5t-23 7.5q-20 0-35.5-20.5T255 608h-29q10 61 35.5 94t60.5 33q21 0 38.5-10.5T404 681q19-24 30-31.5t22-7.5q20 0 35.5 20.5T515 720h29q-10-60-35-93.5T451 593z" glyph-name="ntilde" horiz-adv-x="612" unicode="ñ"/><glyph d="M552 105l33-22q-22-44-50-66T474-5q-44 0-60 31t-4 91l40 198q15 75-2 113.5T383 467q-52 0-102-39.5T183 309L129 0H69l72 408q6 33 4.5 40t-17.5 9l-55 5 5 25h137l-20-111q43 60 92 90.5T391 497q73 0 105.5-49T511 316l-44-209q-10-47-6-65t22-18q20 0 38 21t31 60zM369 579l-17 21q32 33 52.5 63.5T445 740h80q-35-45-73.5-84.5T369 579z" glyph-name="nacute" horiz-adv-x="612" unicode="ń"/><glyph d="M552 105l33-22q-22-44-50-66T474-5q-44 0-60 31t-4 91l40 198q15 75-2 113.5T383 467q-52 0-102-39.5T183 309L129 0H69l72 408q6 33 4.5 40t-17.5 9l-55 5 5 25h137l-20-111q43 60 92 90.5T391 497q73 0 105.5-49T511 316l-44-209q-10-47-6-65t22-18q20 0 38 21t31 60zm-48 640l18-21q-48-43-71.5-69.5T397 584h-52q-14 44-29 72t-47 71l19 18q29-29 51.5-55t40.5-51q26 25 56 50.5t68 55.5z" glyph-name="ncaron" horiz-adv-x="612" unicode="ň"/><glyph d="M552 105l33-22q-22-44-50-66T474-5q-44 0-60 31t-4 91l40 198q15 75-2 113.5T383 467q-52 0-102-39.5T183 309L129 0H69l72 408q6 33 4.5 40t-17.5 9l-55 5 5 25h137l-20-111q43 60 92 90.5T391 497q73 0 105.5-49T511 316l-44-209q-10-47-6-65t22-18q20 0 38 21t31 60zM194-238l-17 14q24 38 36.5 71T233-77h70q-21-50-44.5-85T194-238z" glyph-name="ncommaaccent" horiz-adv-x="612" unicode="ņ"/><glyph d="M511 316L443-64q-14-79-53.5-119T286-223q-54 0-80.5 28.5T182-111l52 12q-2-50 9.5-72t42.5-22q41 0 63 30t34 99l67 379q13 76-3.5 114T383 467q-52 0-102-39.5T184 309L129 0H69l72 408q6 33 4.5 40t-17.5 9l-55 5 5 25h137l-20-112q43 61 92 91.5T391 497q72 0 104-48.5T511 316z" glyph-name="eng" horiz-adv-x="595" unicode="ŋ"/><glyph d="M643 105l33-22q-22-44-50-66T565-5q-44 0-60 31t-4 91l40 198q15 75-2 113.5T474 467q-52 0-102-39.5T274 309L220 0h-60l72 408q6 33 4.5 40t-17.5 9l-55 5 5 25h137l-20-111q43 60 92 90.5T482 497q73 0 105.5-49T602 316l-44-209q-10-47-6-65t22-18q20 0 38 21t31 60zM112 690q19 0 30.5-13t11.5-34q0-39-32.5-92T35 449l-18 18q36 37 57.5 71t28.5 65q-17 1-27 11.5T66 642q0 21 13 34.5t33 13.5z" glyph-name="napostrophe" horiz-adv-x="704" unicode="ŉ"/><glyph d="M307 497q98 0 147-72t30-183l-4-23q-19-109-80.5-169T243-10q-97 0-145.5 72.5T68 246l4 23q19 109 80 168.5T307 497zm102-293l10 60q16 96-15 150.5T302 469q-63 0-103.5-47T143 284l-10-60q-16-96 15-151t101-55q64 0 104.5 47T409 204zm-82 375l-17 21q32 33 52.5 63.5T403 740h80q-35-45-73.5-84.5T327 579z" glyph-name="oacute" horiz-adv-x="552" unicode="ó"/><glyph d="M307 497q98 0 147-72t30-183l-4-23q-19-109-80.5-169T243-10q-97 0-145.5 72.5T68 246l4 23q19 109 80 168.5T307 497zm102-293l10 60q16 96-15 150.5T302 469q-63 0-103.5-47T143 284l-10-60q-16-96 15-151t101-55q64 0 104.5 47T409 204zm49 393l-19-18q-29 29-51.5 55T347 685q-26-25-56-50.5T223 579l-18 21q48 43 71.5 69.5T330 740h52q14-44 29-72t47-71z" glyph-name="ocircumflex" horiz-adv-x="552" unicode="ô"/><glyph d="M307 497q98 0 147-72t30-183l-4-23q-19-109-80.5-169T243-10q-97 0-145.5 72.5T68 246l4 23q19 109 80 168.5T307 497zm102-293l10 60q16 96-15 150.5T302 469q-63 0-103.5-47T143 284l-10-60q-16-96 15-151t101-55q64 0 104.5 47T409 204zM288 669q0-21-14.5-35.5T238 619q-17 0-28 10.5T199 657q0 21 14 35t35 14q19 0 29.5-10t10.5-27zm199 0q0-21-14.5-35.5T437 619q-17 0-28 10.5T398 657q0 21 14 35t35 14q19 0 29.5-10t10.5-27z" glyph-name="odieresis" horiz-adv-x="552" unicode="ö"/><glyph d="M307 497q98 0 147-72t30-183l-4-23q-19-109-80.5-169T243-10q-97 0-145.5 72.5T68 246l4 23q19 109 80 168.5T307 497zm102-293l10 60q16 96-15 150.5T302 469q-63 0-103.5-47T143 284l-10-60q-16-96 15-151t101-55q64 0 104.5 47T409 204zm-59 392l-21-17q-31 37-55.5 76.5T229 740h72q5-43 15.5-74.5T350 596z" glyph-name="ograve" horiz-adv-x="552" unicode="ò"/><glyph d="M307 497q98 0 147-72t30-183l-4-23q-19-109-80.5-169T243-10q-97 0-145.5 72.5T68 246l4 23q19 109 80 168.5T307 497zm102-293l10 60q16 96-15 150.5T302 469q-63 0-103.5-47T143 284l-10-60q-16-96 15-151t101-55q64 0 104.5 47T409 204zm0 389q-20 0-38 10.5T326 646q-20 25-31 32.5t-23 7.5q-20 0-35.5-20.5T213 608h-29q10 61 35.5 94t60.5 33q21 0 38.5-10.5T362 681q19-24 30-31.5t22-7.5q20 0 35.5 20.5T473 720h29q-10-60-35-93.5T409 593z" glyph-name="otilde" horiz-adv-x="552" unicode="õ"/><glyph d="M307 497q98 0 147-72t30-183l-4-23q-19-109-80.5-169T243-10q-97 0-145.5 72.5T68 246l4 23q19 109 80 168.5T307 497zm102-293l10 60q16 96-15 150.5T302 469q-63 0-103.5-47T143 284l-10-60q-16-96 15-151t101-55q64 0 104.5 47T409 204zm-71 428q46 0 76 25t54 83l26-7q-28-81-65-117.5T337 579q-58 0-87 37t-34 117l26 7q9-60 30.5-84t65.5-24z" glyph-name="obreve" horiz-adv-x="552" unicode="ŏ"/><glyph d="M307 497q98 0 147-72t30-183l-4-23q-19-109-80.5-169T243-10q-97 0-145.5 72.5T68 246l4 23q19 109 80 168.5T307 497zm102-293l10 60q16 96-15 150.5T302 469q-63 0-103.5-47T143 284l-10-60q-16-96 15-151t101-55q64 0 104.5 47T409 204zM261 579l-18 15q20 27 37.5 60t39.5 86h74q-28-41-63-83.5T261 579zm140 0l-18 15q20 27 37.5 60t39.5 86h74q-28-41-63-83.5T401 579z" glyph-name="ohungarumlaut" horiz-adv-x="552" unicode="ő"/><glyph d="M307 497q98 0 147-72t30-183l-4-23q-19-109-80.5-169T243-10q-97 0-145.5 72.5T68 246l4 23q19 109 80 168.5T307 497zm102-293l10 60q16 96-15 150.5T302 469q-63 0-103.5-47T143 284l-10-60q-16-96 15-151t101-55q64 0 104.5 47T409 204zM200 662h287l-8-43H192z" glyph-name="omacron" horiz-adv-x="552" unicode="ō"/><glyph d="M326 453q-38 0-72-34.5T185 312L130 0H70l72 408q6 33 4.5 40t-17.5 9l-55 5 5 25h137l-19-107q35 58 75.5 87.5T356 497q32 0 56-17.5t35-49.5l-51-45q-10 36-26 52t-44 16zm-24 126l-17 21q32 33 52.5 63.5T378 740h80q-35-45-73.5-84.5T302 579z" glyph-name="racute" horiz-adv-x="410" unicode="ŕ"/><glyph d="M326 453q-38 0-72-34.5T185 312L130 0H70l72 408q6 33 4.5 40t-17.5 9l-55 5 5 25h137l-19-107q35 58 75.5 87.5T356 497q32 0 56-17.5t35-49.5l-51-45q-10 36-26 52t-44 16zm115 292l18-21q-48-43-71.5-69.5T334 584h-52q-14 44-29 72t-47 71l19 18q29-29 51.5-55t40.5-51q26 25 56 50.5t68 55.5z" glyph-name="rcaron" horiz-adv-x="410" unicode="ř"/><glyph d="M326 453q-38 0-72-34.5T185 312L130 0H70l72 408q6 33 4.5 40t-17.5 9l-55 5 5 25h137l-19-107q35 58 75.5 87.5T356 497q32 0 56-17.5t35-49.5l-51-45q-10 36-26 52t-44 16zM12-238l-17 14q24 38 36.5 71T51-77h70q-21-50-44.5-85T12-238z" glyph-name="rcommaaccent" horiz-adv-x="410" unicode="ŗ"/><glyph d="M376 136q0-64-50.5-105T189-10q-74 0-115.5 31.5T29 111l51 16q1-55 28-81.5T190 19q62 0 99.5 26.5T327 118q0 36-23 60t-68 36l-60 16q-45 12-70.5 44T80 350q0 65 46 106t126 41q88 0 127.5-45T396 340l-61-16q25 67 2 105t-88 38q-54 0-86-26.5T131 370q0-33 19-55t56-32l60-16q51-14 80.5-49t29.5-82zm25 609l18-21q-48-43-71.5-69.5T294 584h-52q-14 44-29 72t-47 71l19 18q29-29 51.5-55t40.5-51q26 25 56 50.5t68 55.5z" glyph-name="scaron" horiz-adv-x="452" unicode="š"/><glyph d="M376 136q0-64-50.5-105T189-10q-74 0-115.5 31.5T29 111l51 16q1-55 28-81.5T190 19q62 0 99.5 26.5T327 118q0 36-23 60t-68 36l-60 16q-45 12-70.5 44T80 350q0 65 46 106t126 41q88 0 127.5-45T396 340l-61-16q25 67 2 105t-88 38q-54 0-86-26.5T131 370q0-33 19-55t56-32l60-16q51-14 80.5-49t29.5-82zM266 579l-17 21q32 33 52.5 63.5T342 740h80q-35-45-73.5-84.5T266 579z" glyph-name="sacute" horiz-adv-x="452" unicode="ś"/><glyph d="M265-134q0-40-32.5-64.5T149-223q-45 0-70 20t-26 58l47 13q-3-34 9-50t41-16q27 0 44.5 18t17.5 46q0 27-12 37.5T160-86q-4 0-10-.5T134-89l-4 26 32 54q-62 5-96 36t-37 84l51 16q1-55 28-81.5T190 19q62 0 99.5 26.5T327 118q0 36-23 60t-68 36l-60 16q-45 12-70.5 44T80 350q0 65 46 106t126 41q88 0 127.5-45T396 340l-61-16q25 67 2 105t-88 38q-54 0-86-26.5T131 370q0-33 19-55t56-32l60-16q51-14 80.5-49t29.5-82q0-64-49.5-105T193-10l-29-50h3q46 0 72-20t26-54z" glyph-name="scedilla" horiz-adv-x="452" unicode="ş"/><glyph d="M376 136q0-64-50.5-105T189-10q-74 0-115.5 31.5T29 111l51 16q1-55 28-81.5T190 19q62 0 99.5 26.5T327 118q0 36-23 60t-68 36l-60 16q-45 12-70.5 44T80 350q0 65 46 106t126 41q88 0 127.5-45T396 340l-61-16q25 67 2 105t-88 38q-54 0-86-26.5T131 370q0-33 19-55t56-32l60-16q51-14 80.5-49t29.5-82zm21 461l-19-18q-29 29-51.5 55T286 685q-26-25-56-50.5T162 579l-18 21q48 43 71.5 69.5T269 740h52q14-44 29-72t47-71z" glyph-name="scircumflex" horiz-adv-x="452" unicode="ŝ"/><glyph d="M376 136q0-64-50.5-105T189-10q-74 0-115.5 31.5T29 111l51 16q1-55 28-81.5T190 19q62 0 99.5 26.5T327 118q0 36-23 60t-68 36l-60 16q-45 12-70.5 44T80 350q0 65 46 106t126 41q88 0 127.5-45T396 340l-61-16q25 67 2 105t-88 38q-54 0-86-26.5T131 370q0-33 19-55t56-32l60-16q51-14 80.5-49t29.5-82zM101-238l-17 14q24 38 36.5 71T140-77h70q-21-50-44.5-85T101-238z" glyph-name="uni0219" horiz-adv-x="452" unicode="ș"/><glyph d="M283 121l44-19q-25-56-58.5-84T192-10q-65 0-90 45T92 169l18 101H32l5 30h78l19 110q6 32 4 38.5t-18 8.5l-55 5 5 25h77l25 142 63 12-27-154h164l-5-30H202l-27-157h137l-5-30H169l-21-121q-12-65-.5-97T194 20q28 0 49.5 24t39.5 77z" glyph-name="tbar" horiz-adv-x="362" unicode="ŧ"/><glyph d="M280 121l44-19q-25-56-58.5-84T189-10q-65 0-90 45T89 169l42 241q6 32 4 38.5t-18 8.5l-55 5 5 25h77l25 142 63 12-27-154h164l-5-30H199l-54-308q-12-65-.5-97T191 20q28 0 49.5 24t39.5 77zm34 435h-19l37 214h64q-21-61-41-113t-41-101z" glyph-name="tcaron" horiz-adv-x="359" unicode="ť"/><glyph d="M280 121l44-19q-25-56-58.5-84T189-10q-65 0-90 45T89 169l42 241q6 32 4 38.5t-18 8.5l-55 5 5 25h77l25 142 63 12-27-154h164l-5-30H199l-54-308q-12-65-.5-97T191 20q28 0 49.5 24t39.5 77zM96-238l-17 14q24 38 36.5 71T135-77h70q-21-50-44.5-85T96-238z" glyph-name="uni0163" horiz-adv-x="359" unicode="ţ"/><glyph d="M280 121l44-19q-25-56-58.5-84T189-10q-65 0-90 45T89 169l42 241q6 32 4 38.5t-18 8.5l-55 5 5 25h77l25 142 63 12-27-154h164l-5-30H199l-54-308q-12-65-.5-97T191 20q28 0 49.5 24t39.5 77zM96-238l-17 14q24 38 36.5 71T135-77h70q-21-50-44.5-85T96-238z" glyph-name="uni021B" horiz-adv-x="359" unicode="ț"/><glyph d="M467-5q-40 0-58 30t-12 90q-43-63-91-94T204-10q-69 0-99.5 48T89 171l42 237q6 33 4.5 40t-17.5 9l-55 5 5 25h137l-55-315q-13-75 2.5-113.5T212 20q50 0 99 40t97 120l53 307h60l-59-337q-12-67-9-96.5T475 24q18 0 36 21.5t30 59.5l33-22q-22-43-49-65.5T467-5zM338 579l-17 21q32 33 52.5 63.5T414 740h80q-35-45-73.5-84.5T338 579z" glyph-name="uacute" horiz-adv-x="602" unicode="ú"/><glyph d="M467-5q-40 0-58 30t-12 90q-43-63-91-94T204-10q-69 0-99.5 48T89 171l42 237q6 33 4.5 40t-17.5 9l-55 5 5 25h137l-55-315q-13-75 2.5-113.5T212 20q50 0 99 40t97 120l53 307h60l-59-337q-12-67-9-96.5T475 24q18 0 36 21.5t30 59.5l33-22q-22-43-49-65.5T467-5zm2 602l-19-18q-29 29-51.5 55T358 685q-26-25-56-50.5T234 579l-18 21q48 43 71.5 69.5T341 740h52q14-44 29-72t47-71z" glyph-name="ucircumflex" horiz-adv-x="602" unicode="û"/><glyph d="M467-5q-40 0-58 30t-12 90q-43-63-91-94T204-10q-69 0-99.5 48T89 171l42 237q6 33 4.5 40t-17.5 9l-55 5 5 25h137l-55-315q-13-75 2.5-113.5T212 20q50 0 99 40t97 120l53 307h60l-59-337q-12-67-9-96.5T475 24q18 0 36 21.5t30 59.5l33-22q-22-43-49-65.5T467-5zM299 669q0-21-14.5-35.5T249 619q-17 0-28 10.5T210 657q0 21 14 35t35 14q19 0 29.5-10t10.5-27zm199 0q0-21-14.5-35.5T448 619q-17 0-28 10.5T409 657q0 21 14 35t35 14q19 0 29.5-10t10.5-27z" glyph-name="udieresis" horiz-adv-x="602" unicode="ü"/><glyph d="M467-5q-40 0-58 30t-12 90q-43-63-91-94T204-10q-69 0-99.5 48T89 171l42 237q6 33 4.5 40t-17.5 9l-55 5 5 25h137l-55-315q-13-75 2.5-113.5T212 20q50 0 99 40t97 120l53 307h60l-59-337q-12-67-9-96.5T475 24q18 0 36 21.5t30 59.5l33-22q-22-43-49-65.5T467-5zM361 596l-21-17q-31 37-55.5 76.5T240 740h72q5-43 15.5-74.5T361 596z" glyph-name="ugrave" horiz-adv-x="602" unicode="ù"/><glyph d="M467-5q-40 0-58 30t-12 90q-43-63-91-94T204-10q-69 0-99.5 48T89 171l42 237q6 33 4.5 40t-17.5 9l-55 5 5 25h137l-55-315q-13-75 2.5-113.5T212 20q50 0 99 40t97 120l53 307h60l-59-337q-12-67-9-96.5T475 24q18 0 36 21.5t30 59.5l33-22q-22-43-49-65.5T467-5zM349 632q46 0 76 25t54 83l26-7q-28-81-65-117.5T348 579q-58 0-87 37t-34 117l26 7q9-60 30.5-84t65.5-24z" glyph-name="ubreve" horiz-adv-x="602" unicode="ŭ"/><glyph d="M467-5q-40 0-58 30t-12 90q-43-63-91-94T204-10q-69 0-99.5 48T89 171l42 237q6 33 4.5 40t-17.5 9l-55 5 5 25h137l-55-315q-13-75 2.5-113.5T212 20q50 0 99 40t97 120l53 307h60l-59-337q-12-67-9-96.5T475 24q18 0 36 21.5t30 59.5l33-22q-22-43-49-65.5T467-5zM272 579l-18 15q20 27 37.5 60t39.5 86h74q-28-41-63-83.5T272 579zm140 0l-18 15q20 27 37.5 60t39.5 86h74q-28-41-63-83.5T412 579z" glyph-name="uhungarumlaut" horiz-adv-x="602" unicode="ű"/><glyph d="M467-5q-40 0-58 30t-12 90q-43-63-91-94T204-10q-69 0-99.5 48T89 171l42 237q6 33 4.5 40t-17.5 9l-55 5 5 25h137l-55-315q-13-75 2.5-113.5T212 20q50 0 99 40t97 120l53 307h60l-59-337q-12-67-9-96.5T475 24q18 0 36 21.5t30 59.5l33-22q-22-43-49-65.5T467-5zM211 662h287l-8-43H203z" glyph-name="umacron" horiz-adv-x="602" unicode="ū"/><glyph d="M118 457l-55 5 5 25h137l-55-315q-13-75 2.5-113.5T212 20q50 0 99 40t97 120l53 307h60l-59-337q-12-67-9-96.5T475 24q18 0 36 21.5t30 59.5l33-22q-14-30-38-54t-81-56q-60-34-77.5-58.5T360-144q0-26 11.5-39t34.5-13q29 0 52 21t39 63l42-13q-22-49-55.5-73.5T406-223q-44 0-71 21.5T308-144q0 36 25.5 65.5T446-3q-29 8-41.5 37.5T397 115q-43-63-91-94T204-10q-69 0-99.5 48T89 171l42 237q6 34 4.5 40.5T118 457z" glyph-name="uogonek" horiz-adv-x="602" unicode="ų"/><glyph d="M467-5q-40 0-58 30t-12 90q-43-63-91-94T204-10q-69 0-99.5 48T89 171l42 237q6 33 4.5 40t-17.5 9l-55 5 5 25h137l-55-315q-13-75 2.5-113.5T212 20q50 0 99 40t97 120l53 307h60l-59-337q-12-67-9-96.5T475 24q18 0 36 21.5t30 59.5l33-22q-22-43-49-65.5T467-5zM366 781q55 0 85-33.5t22-79.5l-2-11q-8-43-42.5-69.5T345 561q-54 0-84 33.5T239 674l2 11q8 43 42 69.5t83 26.5zm-22-195q30 0 50.5 19.5T420 658l4 25q5 34-10 53.5T367 756q-30 0-50-19t-25-53l-4-25q-5-33 10-53t46-20z" glyph-name="uring" horiz-adv-x="602" unicode="ů"/><glyph d="M467-5q-40 0-58 30t-12 90q-43-63-91-94T204-10q-69 0-99.5 48T89 171l42 237q6 33 4.5 40t-17.5 9l-55 5 5 25h137l-55-315q-13-75 2.5-113.5T212 20q50 0 99 40t97 120l53 307h60l-59-337q-12-67-9-96.5T475 24q18 0 36 21.5t30 59.5l33-22q-22-43-49-65.5T467-5zm-47 598q-20 0-38 10.5T337 646q-20 25-31 32.5t-23 7.5q-20 0-35.5-20.5T224 608h-29q10 61 35.5 94t60.5 33q21 0 38.5-10.5T373 681q19-24 30-31.5t22-7.5q20 0 35.5 20.5T484 720h29q-10-60-35-93.5T420 593z" glyph-name="utilde" horiz-adv-x="602" unicode="ũ"/><glyph d="M669 473l75 24q-22-251-88.5-379T479-10q-50 0-79 26t-37 78q-33-51-74-77.5T202-10q-76 0-103.5 58.5T93 224l34 184q6 33 4 40t-18 9l-55 5 5 25h137l-46-262q-20-112-7.5-158.5T208 20q46 0 87 36.5T362 158q1 14 3 30t5 36l47 263h60l-46-262q-20-112-7.5-158.5T485 20q81 0 136 100t55 252q0 20-1.5 44.5T669 473zM459 579l-17 21q32 33 52.5 63.5T535 740h80q-35-45-73.5-84.5T459 579z" glyph-name="wacute" horiz-adv-x="787" unicode="ẃ"/><glyph d="M669 473l75 24q-22-251-88.5-379T479-10q-50 0-79 26t-37 78q-33-51-74-77.5T202-10q-76 0-103.5 58.5T93 224l34 184q6 33 4 40t-18 9l-55 5 5 25h137l-46-262q-20-112-7.5-158.5T208 20q46 0 87 36.5T362 158q1 14 3 30t5 36l47 263h60l-46-262q-20-112-7.5-158.5T485 20q81 0 136 100t55 252q0 20-1.5 44.5T669 473zm-79 124l-19-18q-29 29-51.5 55T479 685q-26-25-56-50.5T355 579l-18 21q48 43 71.5 69.5T462 740h52q14-44 29-72t47-71z" glyph-name="wcircumflex" horiz-adv-x="787" unicode="ŵ"/><glyph d="M669 473l75 24q-22-251-88.5-379T479-10q-50 0-79 26t-37 78q-33-51-74-77.5T202-10q-76 0-103.5 58.5T93 224l34 184q6 33 4 40t-18 9l-55 5 5 25h137l-46-262q-20-112-7.5-158.5T208 20q46 0 87 36.5T362 158q1 14 3 30t5 36l47 263h60l-46-262q-20-112-7.5-158.5T485 20q81 0 136 100t55 252q0 20-1.5 44.5T669 473zM420 669q0-21-14.5-35.5T370 619q-17 0-28 10.5T331 657q0 21 14 35t35 14q19 0 29.5-10t10.5-27zm199 0q0-21-14.5-35.5T569 619q-17 0-28 10.5T530 657q0 21 14 35t35 14q19 0 29.5-10t10.5-27z" glyph-name="wdieresis" horiz-adv-x="787" unicode="ẅ"/><glyph d="M669 473l75 24q-22-251-88.5-379T479-10q-50 0-79 26t-37 78q-33-51-74-77.5T202-10q-76 0-103.5 58.5T93 224l34 184q6 33 4 40t-18 9l-55 5 5 25h137l-46-262q-20-112-7.5-158.5T208 20q46 0 87 36.5T362 158q1 14 3 30t5 36l47 263h60l-46-262q-20-112-7.5-158.5T485 20q81 0 136 100t55 252q0 20-1.5 44.5T669 473zM481 596l-21-17q-31 37-55.5 76.5T360 740h72q5-43 15.5-74.5T481 596z" glyph-name="wgrave" horiz-adv-x="787" unicode="ẁ"/><glyph d="M521 487L437 9q-19-110-81.5-171T196-223q-76 0-116 42T48-68l57 10q-10-68 13.5-102.5T197-195q73 0 117 48T376-1l20 114q-42-61-90-92T204-10q-69 0-99.5 48T89 171l42 237q6 33 4.5 40t-17.5 9l-55 5 5 25h137l-55-315q-13-75 2.5-113.5T212 20q50 0 99 40t97 120l54 307zm-186 92l-17 21q32 33 52.5 63.5T411 740h80q-35-45-73.5-84.5T335 579z" glyph-name="yacute" horiz-adv-x="579" unicode="ý"/><glyph d="M521 487L437 9q-19-110-81.5-171T196-223q-76 0-116 42T48-68l57 10q-10-68 13.5-102.5T197-195q73 0 117 48T376-1l20 114q-42-61-90-92T204-10q-69 0-99.5 48T89 171l42 237q6 33 4.5 40t-17.5 9l-55 5 5 25h137l-55-315q-13-75 2.5-113.5T212 20q50 0 99 40t97 120l54 307zM296 669q0-21-14.5-35.5T246 619q-17 0-28 10.5T207 657q0 21 14 35t35 14q19 0 29.5-10t10.5-27zm199 0q0-21-14.5-35.5T445 619q-17 0-28 10.5T406 657q0 21 14 35t35 14q19 0 29.5-10t10.5-27z" glyph-name="ydieresis" horiz-adv-x="579" unicode="ÿ"/><glyph d="M521 487L437 9q-19-110-81.5-171T196-223q-76 0-116 42T48-68l57 10q-10-68 13.5-102.5T197-195q73 0 117 48T376-1l20 114q-42-61-90-92T204-10q-69 0-99.5 48T89 171l42 237q6 33 4.5 40t-17.5 9l-55 5 5 25h137l-55-315q-13-75 2.5-113.5T212 20q50 0 99 40t97 120l54 307zm-55 110l-19-18q-29 29-51.5 55T355 685q-26-25-56-50.5T231 579l-18 21q48 43 71.5 69.5T338 740h52q14-44 29-72t47-71z" glyph-name="ycircumflex" horiz-adv-x="579" unicode="ŷ"/><glyph d="M521 487L437 9q-19-110-81.5-171T196-223q-76 0-116 42T48-68l57 10q-10-68 13.5-102.5T197-195q73 0 117 48T376-1l20 114q-42-61-90-92T204-10q-69 0-99.5 48T89 171l42 237q6 33 4.5 40t-17.5 9l-55 5 5 25h137l-55-315q-13-75 2.5-113.5T212 20q50 0 99 40t97 120l54 307zM358 596l-21-17q-31 37-55.5 76.5T237 740h72q5-43 15.5-74.5T358 596z" glyph-name="ygrave" horiz-adv-x="579" unicode="ỳ"/><glyph d="M381 133l26-8q-10-65-39.5-100T293-10q-19 0-40 6.5T194 24q-33 17-49 22.5T116 52q-21 0-42-13T31 0L9 22l360 418H189q-36 0-44.5-3T131 419l-31-81H75l26 149h332l-5-25L99 79q13 7 25.5 10t26.5 3q15 0 31.5-5.5T229 64q30-17 46-22t31-5q29 0 46.5 22t28.5 74zm33 612l18-21q-48-43-71.5-69.5T307 584h-52q-14 44-29 72t-47 71l19 18q29-29 51.5-55t40.5-51q26 25 56 50.5t68 55.5z" glyph-name="zcaron" horiz-adv-x="458" unicode="ž"/><glyph d="M381 133l26-8q-10-65-39.5-100T293-10q-19 0-40 6.5T194 24q-33 17-49 22.5T116 52q-21 0-42-13T31 0L9 22l360 418H189q-36 0-44.5-3T131 419l-31-81H75l26 149h332l-5-25L99 79q13 7 25.5 10t26.5 3q15 0 31.5-5.5T229 64q30-17 46-22t31-5q29 0 46.5 22t28.5 74zM279 579l-17 21q32 33 52.5 63.5T355 740h80q-35-45-73.5-84.5T279 579z" glyph-name="zacute" horiz-adv-x="458" unicode="ź"/><glyph d="M381 133l26-8q-10-65-39.5-100T293-10q-19 0-40 6.5T194 24q-33 17-49 22.5T116 52q-21 0-42-13T31 0L9 22l360 418H189q-36 0-44.5-3T131 419l-31-81H75l26 149h332l-5-25L99 79q13 7 25.5 10t26.5 3q15 0 31.5-5.5T229 64q30-17 46-22t31-5q29 0 46.5 22t28.5 74zm-39 536q0-21-15-36.5T290 617q-19 0-30 10.5T249 657q0 21 15 36t36 15q19 0 30.5-10.5T342 669z" glyph-name="zdotaccent" horiz-adv-x="458" unicode="ż"/><glyph d="M279 579l-17 21q32 33 52.5 63.5T355 740h80q-35-45-73.5-84.5T279 579z" glyph-name="acute" horiz-adv-x="500" unicode="´"/><glyph d="M358 596l-21-17q-31 37-55.5 76.5T237 740h72q5-43 15.5-74.5T358 596z" glyph-name="grave" horiz-adv-x="500" unicode="`"/><glyph d="M466 597l-19-18q-29 29-51.5 55T355 685q-26-25-56-50.5T231 579l-18 21q48 43 71.5 69.5T338 740h52q14-44 29-72t47-71z" glyph-name="circumflex" horiz-adv-x="500" unicode="ˆ"/><glyph d="M414 745l18-21q-48-43-71.5-69.5T307 584h-52q-14 44-29 72t-47 71l19 18q29-29 51.5-55t40.5-51q26 25 56 50.5t68 55.5z" glyph-name="caron" horiz-adv-x="500" unicode="ˇ"/><glyph d="M420 593q-20 0-38 10.5T337 646q-20 25-31 32.5t-23 7.5q-20 0-35.5-20.5T224 608h-29q10 61 35.5 94t60.5 33q21 0 38.5-10.5T373 681q19-24 30-31.5t22-7.5q20 0 35.5 20.5T484 720h29q-10-60-35-93.5T420 593z" glyph-name="tilde" horiz-adv-x="500" unicode="˜"/><glyph d="M296 669q0-21-14.5-35.5T246 619q-17 0-28 10.5T207 657q0 21 14 35t35 14q19 0 29.5-10t10.5-27zm199 0q0-21-14.5-35.5T445 619q-17 0-28 10.5T406 657q0 21 14 35t35 14q19 0 29.5-10t10.5-27z" glyph-name="dieresis" horiz-adv-x="500" unicode="¨"/><glyph d="M366 781q55 0 85-33.5t22-79.5l-2-11q-8-43-42.5-69.5T345 561q-54 0-84 33.5T239 674l2 11q8 43 42 69.5t83 26.5zm-22-195q30 0 50.5 19.5T420 658l4 25q5 34-10 53.5T367 756q-30 0-50-19t-25-53l-4-25q-5-33 10-53t46-20z" glyph-name="ring" horiz-adv-x="500" unicode="˚"/><glyph d="M288-134q0-40-32.5-64.5T172-223q-45 0-70 20t-26 58l47 13q-3-34 9-50t41-16q27 0 44.5 18t17.5 46q0 27-12 37.5T183-86q-4 0-10-.5T157-89l-4 26 37 63h32l-35-60h3q46 0 72-20t26-54z" glyph-name="cedilla" horiz-adv-x="500" unicode="¸"/><glyph d="M272 579l-18 15q20 27 37.5 60t39.5 86h74q-28-41-63-83.5T272 579zm140 0l-18 15q20 27 37.5 60t39.5 86h74q-28-41-63-83.5T412 579z" glyph-name="hungarumlaut" horiz-adv-x="500" unicode="˝"/><glyph d="M349 632q46 0 76 25t54 83l26-7q-28-81-65-117.5T348 579q-58 0-87 37t-34 117l26 7q9-60 30.5-84t65.5-24z" glyph-name="breve" horiz-adv-x="500" unicode="˘"/><glyph d="M211 662h287l-8-43H203z" glyph-name="macron" horiz-adv-x="500" unicode="¯"/><glyph d="M342 669q0-21-15-36.5T290 617q-19 0-30 10.5T249 657q0 21 15 36t36 15q19 0 30.5-10.5T342 669z" glyph-name="dotaccent" horiz-adv-x="500" unicode="˙"/><glyph d="M347 391q0-21-15-36.5T295 339q-19 0-30 10.5T254 379q0 21 15 36t36 15q19 0 30.5-10.5T347 391z" glyph-name="periodcentered" horiz-adv-x="500" unicode="·"/><glyph d="M167-223q-45 0-71.5 22.5T69-138q0 62 57.5 112.5T255 25l4-25q-60 0-99-41t-39-99q0-28 11.5-42t34.5-14q29 0 52 21t39 63l42-13q-22-49-55.5-73.5T167-223z" glyph-name="ogonek" horiz-adv-x="500" unicode="˛"/><glyph d="M96-238l-17 14q24 38 36.5 71T135-77h70q-21-50-44.5-85T96-238z" glyph-name="commaaccent" horiz-adv-x="500" unicode=""/><glyph d="M314 556h-19l37 214h64q-21-61-41-113t-41-101z" glyph-name="caron.alt" horiz-adv-x="500"/><glyph d="M401 745l18-14q-23-36-36-69t-21-78h-70q21 50 44.5 85t64.5 76z" glyph-name="revcommaaccent" horiz-adv-x="500"/><glyph d="M91-10Q70-10 58 1T46 32q0 22 14.5 37T98 84q21 0 33-11t12-31q0-22-14.5-37T91-10z" glyph-name="period" horiz-adv-x="261" unicode="."/><glyph d="M96 81q20 0 32-13t12-36q0-44-40-106T-8-199l-18 18q46 47 75.5 91.5T87-10Q69-9 58.5 2T48 31q0 22 13.5 36T96 81z" glyph-name="comma" horiz-adv-x="261" unicode=","/><glyph d="M215 455q0-22-14.5-37T163 403q-21 0-33 11t-12 31q0 22 14.5 37t37.5 15q21 0 33-11t12-31zM143 42q0-22-14.5-37T91-10Q70-10 58 1T46 32q0 22 14.5 37T98 84q21 0 33-11t12-31z" glyph-name="colon" horiz-adv-x="261" unicode=":"/><glyph d="M215 455q0-22-14.5-37T163 403q-21 0-33 11t-12 31q0 22 14.5 37t37.5 15q21 0 33-11t12-31zM96 81q20 0 32-13t12-36q0-44-40-106T-8-199l-18 18q46 47 75.5 91.5T87-10Q69-9 58.5 2T48 31q0 22 13.5 36T96 81z" glyph-name="semicolon" horiz-adv-x="261" unicode=";"/><glyph d="M491-10q-21 0-33 11t-12 31q0 22 14.5 37T498 84q21 0 33-11t12-31q0-22-14.5-37T491-10zm0 0q-21 0-33 11t-12 31q0 22 14.5 37T498 84q21 0 33-11t12-31q0-22-14.5-37T491-10zm0 0q-21 0-33 11t-12 31q0 22 14.5 37T498 84q21 0 33-11t12-31q0-22-14.5-37T491-10z" glyph-name="ellipsis" horiz-adv-x="661" unicode="…"/><glyph d="M238 199l-2-27h-43l5 26q9 45 30.5 80t76.5 80q60 48 78 86t18 91q0 61-27 93t-78 32q-69 0-106.5-48T145 467l-57 16q0 94 55.5 150.5T297 690q83 0 128.5-40.5T471 536q0-50-23-89t-96-92q-67-49-89-82t-25-74zm4-157q0-22-14.5-37T190-10q-21 0-33 11t-12 31q0 22 14.5 37T197 84q21 0 33-11t12-31z" glyph-name="question" horiz-adv-x="471" unicode="?"/><glyph d="M188 440q-21-89-32.5-146T132 172h-28q12 66 20.5 123.5T144 443q10 83 17 132.5T178 680h60q-10-56-20.5-106T188 440zM143 42q0-22-14.5-37T91-10Q70-10 58 1T46 32q0 22 14.5 37T98 84q21 0 33-11t12-31z" glyph-name="exclam" horiz-adv-x="261" unicode="!"/><glyph d="M230 445q0 22 14.5 37t37.5 15q21 0 33-11t12-31q0-22-14.5-37T275 403q-21 0-33 11t-12 31zm4-157l2 27h43l-5-26q-9-45-30.5-80T167 129q-60-48-78-86T71-48q0-61 27-93t78-32q69 0 106.5 48T327 20l57-16q0-94-55.5-150.5T175-203q-83 0-128.5 40.5T1-49Q1 1 24 40t96 92q67 49 89 82t25 74z" glyph-name="questiondown" horiz-adv-x="471" unicode="¿"/><glyph d="M118 445q0 22 14.5 37t37.5 15q21 0 33-11t12-31q0-22-14.5-37T163 403q-21 0-33 11t-12 31zM73 47q21 89 32.5 146T129 315h28q-12-66-20.5-123.5T117 44q-10-83-17-132.5T83-193H23q10 56 20.5 106T73 47z" glyph-name="exclamdown" horiz-adv-x="261" unicode="¡"/><glyph d="M90 279l6 42q17 120 88 228t194 201l21-26q-100-80-160-182t-79-222l-6-38q-21-130 1.5-235T243-131l-24-22Q140-72 106.5 42.5T90 279z" glyph-name="parenleft" horiz-adv-x="339" unicode="("/><glyph d="M269 318l-6-42q-17-120-88-228T-19-153l-21 26Q60-47 120 55t79 222l6 38q21 130-1.5 235T116 728l24 22q79-81 112.5-195.5T269 318z" glyph-name="parenright" horiz-adv-x="339" unicode=")"/><glyph d="M232-114h85l-5-30h-77q-81 0-116 52t-5 133l39 106q23 64 12 100t-55 36H37l5 30h73q44 0 68 36t23 100l-1 106q-1 93 41 139t128 46h93l-5-30h-85q-55 0-81.5-33.5T269 574l2-106q1-72-24.5-115.5T169 295q43-16 54-59.5T211 128L172 22q-25-69-10-102.5t70-33.5z" glyph-name="braceleft" horiz-adv-x="407" unicode="{"/><glyph d="M220 147l1-106q1-93-41-139T52-144h-93l5 30h85q55 0 81.5 33.5T157 22l-2 106q-1 72 24.5 115.5T257 301q-43 16-54 59.5T215 468l39 106q25 69 10 102.5T194 710h-85l5 30h77q81 0 116-52t5-133l-39-106q-23-64-12-100t55-36h73l-5-30h-73q-44 0-68-36t-23-100z" glyph-name="braceright" horiz-adv-x="407" unicode="}"/><glyph d="M105-113h165l-5-30H40l155 883h225l-5-30H250z" glyph-name="bracketleft" horiz-adv-x="360" unicode="["/><glyph d="M114 740h225L184-143H-41l5 30h165l145 823H109z" glyph-name="bracketright" horiz-adv-x="360" unicode="]"/><glyph d="M-80-127l496 867 33-16-496-867z" glyph-name="slash" horiz-adv-x="383" unicode="/"/><glyph d="M103 726l34 14 196-869-35-14z" glyph-name="backslash" horiz-adv-x="383" unicode="\"/><glyph d="M316-143H-48l6 34h364z" glyph-name="underscore" horiz-adv-x="404" unicode="_"/><glyph d="M354 318H90l6 34h264z" glyph-name="hyphen" horiz-adv-x="418" unicode="-"/><glyph glyph-name="uni00AD" horiz-adv-x="0" unicode="­"/><glyph d="M554 318H90l6 34h464z" glyph-name="endash" horiz-adv-x="618" unicode="–"/><glyph d="M754 318H90l6 34h664z" glyph-name="emdash" horiz-adv-x="818" unicode="—"/><glyph d="M121 357l67 383h35l-67-383zM20-213l68 383h35L55-213z" glyph-name="brokenbar" horiz-adv-x="237" unicode="¦"/><glyph d="M27-213l168 953h35L62-213z" glyph-name="bar" horiz-adv-x="251" unicode="|"/><glyph d="M133 239L293 24l-16-14L54 232l4 24 301 222 12-18zm250 0L543 24l-16-14-223 222 4 24 301 222 12-18z" glyph-name="guillemotleft" horiz-adv-x="642" unicode="«"/><glyph d="M588 257l-4-24L283 11l-12 18 238 221-160 215 16 14zm-250 0l-4-24L33 11 21 29l238 221L99 465l16 14z" glyph-name="guillemotright" horiz-adv-x="642" unicode="»"/><glyph d="M133 239L293 24l-16-14L54 232l4 24 301 222 12-18z" glyph-name="guilsinglleft" horiz-adv-x="392" unicode="‹"/><glyph d="M338 257l-4-24L33 11 21 29l238 221L99 465l16 14z" glyph-name="guilsinglright" horiz-adv-x="392" unicode="›"/><glyph d="M96 77q19 0 30.5-13T138 30q0-39-32.5-92T19-164L1-146q36 37 57.5 71T87-10Q70-9 60 1.5T50 29q0 21 13 34.5T96 77z" glyph-name="quotesinglbase" horiz-adv-x="261" unicode="‚"/><glyph d="M96 77q19 0 30.5-13T138 30q0-39-32.5-92T19-164L1-146q36 37 57.5 71T87-10Q70-9 60 1.5T50 29q0 21 13 34.5T96 77zm150 0q19 0 30.5-13T288 30q0-39-32.5-92T169-164l-18 18q36 37 57.5 71T237-10q-17 1-27 11.5T200 29q0 21 13 34.5T246 77z" glyph-name="quotedblbase" horiz-adv-x="411" unicode="„"/><glyph d="M178 536q17-1 27-11.5t10-27.5q0-21-13-34.5T169 449q-19 0-30.5 13T127 496q0 39 32.5 92T246 690l18-18q-36-37-57.5-71T178 536z" glyph-name="quoteleft" horiz-adv-x="261" unicode="‘"/><glyph d="M328 536q17-1 27-11.5t10-27.5q0-21-13-34.5T319 449q-19 0-30.5 13T277 496q0 39 32.5 92T396 690l18-18q-36-37-57.5-71T328 536zm-150 0q17-1 27-11.5t10-27.5q0-21-13-34.5T169 449q-19 0-30.5 13T127 496q0 39 32.5 92T246 690l18-18q-36-37-57.5-71T178 536z" glyph-name="quotedblleft" horiz-adv-x="411" unicode="“"/><glyph d="M112 690q19 0 30.5-13t11.5-34q0-39-32.5-92T35 449l-18 18q36 37 57.5 71t28.5 65q-17 1-27 11.5T66 642q0 21 13 34.5t33 13.5z" glyph-name="quoteright" horiz-adv-x="261" unicode="’"/><glyph d="M207 690q19 0 30.5-13t11.5-34q0-39-32.5-92T130 449l-18 18q36 37 57.5 71t28.5 65q-17 1-27 11.5T161 642q0 21 13 34.5t33 13.5zm150 0q19 0 30.5-13t11.5-34q0-39-32.5-92T280 449l-18 18q36 37 57.5 71t28.5 65q-17 1-27 11.5T311 642q0 21 13 34.5t33 13.5z" glyph-name="quotedblright" horiz-adv-x="411" unicode="”"/><glyph d="M228 611q-17-36-27.5-71T182 459h-28q6 32 8.5 58t2.5 48q0 10-.5 19.5T162 608q-1 10-1.5 14.5t-.5 9.5q0 28 12 43t33 15q17 0 26.5-9t9.5-25q0-10-2-18.5T228 611z" glyph-name="quotesingle" horiz-adv-x="260" unicode="'"/><glyph d="M228 611q-17-36-27.5-71T182 459h-28q6 32 8.5 58t2.5 48q0 10-.5 19.5T162 608q-1 10-1.5 14.5t-.5 9.5q0 28 12 43t33 15q17 0 26.5-9t9.5-25q0-10-2-18.5T228 611zm151 0q-17-36-27.5-71T333 459h-28q6 32 8.5 58t2.5 48q0 10-.5 19.5T313 608q-1 10-1.5 14.5t-.5 9.5q0 28 12 43t33 15q17 0 26.5-9t9.5-25q0-10-2-18.5T379 611z" glyph-name="quotedbl" horiz-adv-x="411" unicode="&quot;"/><glyph d="M216 341q0-32-21-53t-53-21q-29 0-46 16t-17 44q0 31 21 52t52 21q30 0 47-15.5t17-43.5z" glyph-name="bullet" horiz-adv-x="263" unicode="•"/><glyph d="M486 188q0-88-65-143T256-10q-102 0-155 41.5T48 153q0 72 53 124.5T253 355q-60 45-87.5 87T138 530q0 69 54.5 114.5T328 690q94 0 142-59.5T491 493l-64-15q24 84-3 133t-97 49q-54 0-88.5-34T204 534q0-46 21.5-89t64.5-82l140 26q55 11 96.5 29t77.5 47l17-71q-31-10-65.5-18T473 361l-71-10q41-36 62.5-77.5T486 188zm-372-37q0-64 36.5-97.5T257 20q80 0 127.5 46T432 190q0 46-17 85t-50 70l-62-9q-93-14-141-61t-48-124z" glyph-name="ampersand" horiz-adv-x="616" unicode="&amp;"/><glyph d="M82 475l6 33q15 84 71 128t148 44h276l-5-25-55-5q-17-2-21-8.5T492 601L375-64q-6-34-4.5-40.5T388-113l54-5-4-25H199l4 25 76 5q16 1 20 7.5T310-64l126 714h-71l-64-360h-53q-89 0-135 51.5T82 475z" glyph-name="paragraph" horiz-adv-x="555" unicode="¶"/><glyph d="M278 680h70q-4-21-9-40t-17-50q-13-34-19-55.5T293 488q24 0 45.5 2t56.5 9q31 6 50 8t39 2l-12-68q-20 0-38 2t-48 8q-32 7-53 9t-45 2q-4-25-6-46.5t-1-55.5q1-32 0-50.5t-5-39.5l-1-3q-5-27-11-54.5T243 132q-22-83-35.5-143.5T182-143h-28q12 70 20 129.5T189 129q4 54 7.5 82t8.5 56l1 3q4 21 9 40t17 50q12 34 18 55.5t10 46.5q-24 0-45.5-2t-55.5-9q-32-6-50.5-8T70 441l12 68q20 0 38-2t48-8q31-7 52-9t45-2q4 25 6 46.5t1 55.5q0 32 1 50.5t5 39.5z" glyph-name="dagger" horiz-adv-x="472" unicode="†"/><glyph d="M286 270l-1-3q-4-21-9-40t-17-50q-13-34-19-55.5T230 75q24 0 45.5 2t56.5 9q31 6 50 8t39 2l-12-68q-20 0-38 2t-48 8q-31 7-52 9t-45 2q-4-25-6-46.5T219-53q0-32-1-50.5t-5-39.5h-70q4 21 9 40t17 50q13 34 19 55.5T198 49q-24 0-45.5-2T96 38q-31-6-50-8T7 28l12 68q20 0 38-2t48-8q31-7 52-9t45-2q4 25 6 46.5t1 55.5q0 32 1 50.5t5 39.5l1 3q4 21 9 40t17 50q12 34 18 55.5t10 46.5q-24 0-45.5-2t-55.5-9q-32-6-50.5-8T80 441l12 68q20 0 38-2t48-8q31-7 52-9t45-2q4 25 6 46.5t1 55.5q0 32 1 50.5t5 39.5h70q-4-21-9-40t-17-50q-13-34-19-55.5T303 488q24 0 45.5 2t56.5 9q31 6 50 8t39 2l-12-68q-20 0-38 2t-48 8q-32 7-53 9t-45 2q-4-25-6-46.5t-1-55.5q1-32 0-50.5t-5-39.5z" glyph-name="daggerdbl" horiz-adv-x="492" unicode="‡"/><glyph d="M338 84q34-22 50.5-51.5T405-37q0-80-58.5-133T191-223q-85 0-135 45T3-50l58 18q-3-79 31-120t102-41q69 0 108.5 34.5T342-65q0 44-22.5 71T245 53l-63 24q-68 26-102.5 65.5T45 234q0 56 39 97.5T191 388q-34 21-51 54t-17 77q0 76 54 123.5T324 690q98 0 144.5-58.5T487 493l-66-16q25 88-.5 136T323 661q-64 0-100.5-32.5T186 537q0-44 22-70.5t70-43.5l71-24q65-22 100-62t35-93q0-57-38.5-99.5T338 84zM108 254q0-43 26.5-70.5T227 131l69-26q62 9 93.5 38t31.5 75q0 47-27 76.5T304 345l-64 22q-65-5-98.5-34T108 254z" glyph-name="section" horiz-adv-x="533" unicode="§"/><glyph d="M85 555l27 51q17-9 31-18t36-27q24-19 40.5-30t35.5-21q4 22 5.5 41.5T262 602q0 28 1.5 45t4.5 35l57-10q-3-19-7.5-35T303 594q-10-29-15-47.5t-9-40.5q21 3 39.5 7.5T366 527q28 9 45 13t36 7l8-57q-19-3-36-3.5t-46 .5q-30 1-49.5 0t-41.5-4q10-20 20-36.5t28-40.5q17-23 26-38t17-32l-52-25q-9 17-15 33t-14 44q-8 29-14.5 47T261 472q-16-15-28.5-29.5T202 403q-17-23-28-36t-25-26l-40 41q14 13 27 24t37 27q26 17 41 29.5t31 27.5q-19 10-37 17.5T160 524q-27 9-43 15.5T85 555z" glyph-name="asterisk" horiz-adv-x="440" unicode="*"/><glyph d="M421 680h93l57-246 142 246h97l-4-20-28-3q-8-1-10-4.5t-5-19.5l-44-245q-3-16-2-20t9-5l28-2-4-21H626l4 21 28 2q8 1 10 4.5t5 20.5l45 252-151-260h-29l-60 261-45-253q-3-16-2-20t9-5l28-2-4-21H361l4 21 28 2q8 1 10 4.5t5 20.5l44 245q3 16 2 19.5t-9 4.5l-28 3zm-305-76H96l13 76h274l-13-76h-20l-3 40q-1 10-4.5 11.5T322 657h-57l-48-269q-3-16-2-20t9-5l28-2-4-21H124l4 21 28 2q8 1 10 5t5 20l48 269h-57q-16 0-20.5-1.5T133 644z" glyph-name="trademark" horiz-adv-x="776" unicode="™"/><glyph d="M560 479q0-100-68-169t-166-69q-99 0-166.5 69T92 479q0 101 67.5 169.5T326 717q98 0 166-69t68-169zm-436 0q0-88 58.5-148.5T326 270q86 0 144 60.5T528 479q0 89-58 149t-144 60q-85 0-143.5-60T124 479zm120 107l-21 2v20h106q37 0 58.5-17.5T409 543v-16q0-23-11.5-39.5T365 464l43-70q1-1 6-10t12-9l18-1v-21h-63l-59 105h-28v-64q0-13 1-16t7-3l21-1v-21H223v21l21 1q6 0 7.5 3t1.5 16v174q0 11-1 14t-8 4zm85 0h-35V481h35q17 0 27 12t10 34v16q0 20-10 31.5T329 586z" glyph-name="registered" horiz-adv-x="570" unicode="®"/><glyph d="M818 340q0-159-107.5-268T446-37Q289-37 181.5 72T74 340q0 160 107 268.5T446 717q157 0 264.5-109T818 340zm-712 0q0-147 98-247T446-7Q590-7 688 93t98 247q0 147-98 247T446 687q-144 0-242-100t-98-247zm345 204q-63 0-93.5-43T327 371v-61q0-93 31-133.5T460 136q51 0 79 26.5t39 85.5l45-14q-17-62-60-94t-108-32q-94 0-145 58t-51 164v21q0 104 50.5 162.5T451 572q86 0 131.5-49T616 398l-57-9q10 75-18 115t-90 40z" glyph-name="copyright" horiz-adv-x="858" unicode="©"/><glyph d="M727-121l20-46q-51-26-119.5-41T493-223q-190 0-307.5 121.5T68 214q0 204 123.5 340T502 690q175 0 292.5-118.5T912 278q0-118-60.5-198T702 0q-50 0-81.5 26T584 98q-33-52-71-77.5T431-5q-78 0-115.5 71.5T297 246l4 22q17 91 74 147.5T507 472q40 0 70.5-17t54.5-53q2 5 13 26.5t17 33.5h40l-55-307q-12-63 2.5-94.5T706 29q72 0 123 72t51 177q0 163-108 272.5T502 660q-174 0-288-127.5T100 214q0-182 108-294.5T493-193q69 0 128.5 18T727-121zM369 276l-10-60q-14-85 7.5-138T436 25q43 0 79 32.5T588 160l35 199q-24 44-50.5 63.5T509 442q-55 0-91-42.5T369 276z" glyph-name="at" horiz-adv-x="976" unicode="@"/><glyph d="M361 338q-25 0-39 14t-16 43q-22-30-48-45t-55-15q-58 0-86 52t-14 131l3 15q12 68 56 110t101 42q27 0 48.5-10.5T349 643q2 3 4 6.5t7 11.5q5 7 7 10.5t4 6.5h28l-42-233q-8-44-6-63.5t15-19.5q12 0 23.5 14t19.5 38l26-15q-15-30-34-45.5T361 338zM159 539l-7-41q-10-61 5.5-100t48.5-39q28 0 53.5 20t49.5 61l31 173q-14 25-32.5 36T263 660q-41 0-67.5-31T159 539z" glyph-name="ordfeminine" horiz-adv-x="414" unicode="ª"/><glyph d="M267 685q68 0 102-50t21-126l-3-16q-13-75-55.5-116.5T223 335q-67 0-100.5 50T102 511l3 16q13 76 55 117t107 41zm65-203l7 42q11 63-9.5 100T264 661q-41 0-67.5-31T160 538l-7-42q-11-63 9-100t65-37q41 0 68 31t37 92z" glyph-name="ordmasculine" horiz-adv-x="398" unicode="º"/><glyph d="M553 243l-5-30H431L323-10 292 2l102 211H169L61-10 30 2l102 211H24l5 30h117l94 194H132l5 30h117l108 223 31-12-102-211h225l108 223 31-12-102-211h108l-5-30H539l-94-194zM277 437l-94-194h225l94 194z" glyph-name="numbersign" horiz-adv-x="651" unicode="#"/><glyph d="M952 685q76 0 114-55t23-137l-3-16q-14-77-60.5-118T906 318q-76 0-114.5 55T769 511l3 16q14 76 61 117t119 41zm-773-35l-55 5 5 25h150l233-571 87 492q6 33 4.5 40t-17.5 9l-55 5 5 25h189l-5-25-55-5q-17-2-21-8.5T634 601L528 0h-39L232 629 135 79q-6-33-4.5-40t17.5-9l54-5-4-25H9l4 25 56 5q17 2 21 8.5T100 79l92 522q6 33 4.5 40t-17.5 9zm841-176l7 42q11 66-10 103.5T949 657q-44 0-72.5-32.5T838 530l-7-42q-11-66 10-104t69-38q43 0 71.5 32.5T1020 474zm-10-290H736l6 30h274z" glyph-name="uni2116" horiz-adv-x="1086" unicode="№"/><glyph d="M474 150l56-19q-33-70-89-105.5T308-10q-102 0-154 66.5T108 244H27l5 30h79q1 6 2 13t3 22l12 73v2H52l5 30h77q29 133 102.5 204.5T418 690q101 0 148.5-61.5T585 483l-68-16q27 93 1 143t-101 50q-85 0-136-56.5T210 432l-3-18h241l-11-30H202l-19-110h212l-11-30H178q-17-114 15-169t118-55q60 0 102.5 33.5T474 150z" glyph-name="Euro" horiz-adv-x="603" unicode="€"/><glyph d="M476 196q0-89-64.5-147.5T240-10l-20-115h-35L206-9Q126-1 82 45T34 173l58 18q-2-78 27.5-120T211 22l52 296-30 11q-66 25-98 67t-32 103q0 85 59.5 138T324 690h5l20 115h35l-21-117q91-11 131-70t13-135l-66-16q24 84 3 133t-86 59l-50-284 33-13q70-27 102.5-67t32.5-99zM166 517q0-48 25.5-78t83.5-52l49 274h-2q-73 0-114.5-38T166 517zm247-349q0 50-27 81.5T296 305L246 20q79 2 123 41t44 107z" glyph-name="dollar" horiz-adv-x="540" unicode="$"/><glyph d="M314 30l54-5-4-25H145l4 25 56 5q16 2 20 7t7 22l28 155H67l5 30h193l8 46-21 64H91l6 30h145l-75 227q-8 25-13 31t-21 8l-49 5 5 25h211l-5-25-49-5q-16-2-17.5-7.5T236 611l91-283 192 283q17 26 18 31.5t-14 7.5l-49 5 5 25h180l-5-25-49-5q-17-1-23.5-6.5T557 611L403 384h145l-6-30H382l-44-65-8-45h193l-5-30H325L301 79q-6-34-4.5-40.5T314 30z" glyph-name="yen" horiz-adv-x="594" unicode="¥"/><glyph d="M412 160h25L409 0H24l8 46q72 67 105 118t33 100v13q0 4-1 8H66l6 30h91q-2 7-23.5 65.5T118 488q0 91 56.5 146.5T332 690q103 0 148.5-61T495 483l-68-16q27 95 3.5 144T334 660q-65 0-103.5-51T192 471q0-21 2.5-42.5T205 369q5-22 7-33t3-21h181l-6-30H217v-6q0-56-28.5-106.5T88 53h234q34 0 43 3.5T381 79z" glyph-name="sterling" horiz-adv-x="522" unicode="£"/><glyph d="M374 121l42-23q-29-49-73-76.5T243-9l-20-116h-35L208-9Q125-1 86.5 70T69 250l4 22q18 100 78.5 160.5T298 497l20 115h35l-21-116q75-7 106.5-56t8.5-120l-60-16q22 72 7 113t-67 49L249 21q43 5 76 31t49 69zM142 285l-10-60q-15-92 6-144.5T214 21l78 445q-58-5-97-52t-53-129z" glyph-name="cent" horiz-adv-x="483" unicode="¢"/><glyph d="M239 342L131-64q-25-93-59-126t-91-33q-52 0-75.5 29.5T-104-118l51 9q-14-43-5-64.5t40-21.5q32 0 50.5 26T69-74l111 416H54l6 30h128l58 219q25 93 59 126t91 33q52 0 75.5-29.5T481 645l-51-9q14 43 5 64.5T395 722q-33 0-51.5-26.5T308 601l-61-229h127l-6-30z" glyph-name="florin" horiz-adv-x="411" unicode="ƒ"/><glyph d="M414 30l44-5-4-25H337L67 308l5 30h156q57 0 98 36t51 95l2 10H97l6 30h281q10 65-17 103t-83 38H128l5 30h426l-5-30H397q34-23 48.5-60t6.5-81h77l-6-30h-76l-2-10q-13-76-69.5-118.5T231 308h-82L354 79q33-37 41-42.5t19-6.5z" glyph-name="uni20B9" horiz-adv-x="530" unicode="₹"/><glyph d="M437 161l74-94-23-24-77 97q-26-18-56.5-27.5T290 103q-38 0-70.5 12T162 149L40 43 19 67l122 107q-15 22-23 49.5t-8 58.5q0 46 17 86.5t48 70.5l-74 94 23 24 77-96q25 18 55.5 27t64.5 9q39 0 71.5-12t56.5-35l123 107 21-24-123-108q15-21 23-48.5t8-58.5q0-45-16.5-86T437 161zm27 156q0 69-38 108.5T321 465q-76 0-125-51.5T147 283q0-69 38-108.5T290 135q76 0 125 51.5T464 317z" glyph-name="currency" horiz-adv-x="592" unicode="¤"/><glyph d="M369 690q108 0 159-87.5T554 372l-13-73q-27-151-93.5-230T279-10q-109 0-160 88T94 309l13 73q27 151 93.5 229.5T369 690zm90-441l31 173q20 114-11.5 176T370 660q-72 0-116-55t-65-173l-31-173q-20-115 11-177t109-62q72 0 116 55.5T459 249z" glyph-name="zero" horiz-adv-x="614" unicode="0"/><glyph d="M114 576l-13 25 141 79h55L191 79q-6-33-4.5-40t17.5-9l54-5-4-25H15l4 25 76 5q17 1 21 7.5T126 79l99 558z" glyph-name="one" horiz-adv-x="345" unicode="1"/><glyph d="M424 184h25L416 0H26l8 43q15 80 60.5 139.5T244 303q68 40 91.5 57t39.5 35q29 30 42.5 66t13.5 81q0 62-26 90t-85 28q-70 0-108-48t-45-145l-62 16q0 92 59 149.5T321 690q87 0 135.5-43.5T505 527q0-50-20-89.5T422 365q-32-24-94.5-56T257 273q-83-45-126.5-96.5T72 57h248q32 0 41.5 3.5T379 83z" glyph-name="two" horiz-adv-x="543" unicode="2"/><glyph d="M313 351q70-14 106-54t36-104q0-87-63.5-145T220-10q-83 0-129 38.5T33 146l54 17q-2-71 30-107t97-36q77 0 121.5 49T380 201q0 69-37.5 102T227 336h-27l6 30h27q91 0 142.5 51T427 551q0 54-26.5 81.5T321 660q-72 0-111-47.5T164 467l-62 16q0 89 61 148t159 59q86 0 132.5-39.5T501 541q0-76-49-125.5T313 351z" glyph-name="three" horiz-adv-x="531" unicode="3"/><glyph d="M279 79l17 97H2l5 30q129 117 200.5 220.5T336 680h80q-56-129-145.5-244T48 206h253l29 161 66 10-30-171h77l-5-30h-77l-17-97q-6-33-4.5-40t17.5-9l54-5-4-25H168l4 25 76 5q17 1 21 7.5T279 79z" glyph-name="four" horiz-adv-x="484" unicode="4"/><glyph d="M114 344l-16 5 76 331h242q36 0 43 3t15 23l20 54h25l-24-139H195l-51-221q30 16 62.5 24.5T272 433q86 0 134-50t48-138q0-111-66.5-183T208-10q-75 0-117 39T37 146l54 17q-2-71 27-107t88-36q78 0 126.5 67T381 260q0 72-27 106t-84 34q-41 0-80-14t-76-42z" glyph-name="five" horiz-adv-x="509" unicode="5"/><glyph d="M499 188l-2-12q-13-82-77-134T269-10q-108 0-153.5 85.5T95 315l10 63q24 154 92.5 233T375 690q97 0 142.5-60.5T536 483l-68-16q27 95 2.5 144T371 660q-73 0-118.5-56T188 437l-19-112q37 36 80.5 55t90.5 19q85 0 130-59t29-152zm-338 90l-4-22q-20-118 8-177t105-59q63 0 103 40t53 116l2 12q14 84-13 131.5T326 367q-44 0-87.5-23.5T161 278z" glyph-name="six" horiz-adv-x="572" unicode="6"/><glyph d="M513 680l-9-51Q373 491 310.5 357.5T200 0h-80q60 213 135.5 351T461 621H196q-31 0-40.5-3.5T138 595L93 494H68l33 186z" glyph-name="seven" horiz-adv-x="452" unicode="7"/><glyph d="M352 357q56-29 85-73t29-101q0-84-60-138.5T247-10q-92 0-148.5 44.5T42 148q0 62 47.5 113.5T221 341q-52 29-77.5 68.5T118 501q0 84 56.5 136.5T324 690q85 0 137-43t52-113q0-59-42.5-106.5T352 357zM178 530q0-44 24-76t83-62l36-18q62 17 95 60t33 103q0 58-34 90.5T322 660q-64 0-104-35t-40-95zm-71-381q0-61 38-95t105-34q71 0 114 37.5t43 99.5q0 46-26.5 80.5T299 301l-47 24q-68-20-106.5-67T107 149z" glyph-name="eight" horiz-adv-x="538" unicode="8"/><glyph d="M511 365l-10-63q-24-151-95-231.5T226-10q-75 0-118 39T53 146l54 17q-2-71 27.5-107T224 20q75 0 125 57t69 166l16 94q-36-34-79-52.5T266 266q-86 0-130.5 61.5T107 485l2 12q14 86 77.5 139.5T337 690q108 0 153.5-85.5T511 365zM180 497l-2-12q-15-87 12-137t90-50q43 0 85.5 22t76.5 63l7 41q20 118-8 177t-105 59q-63 0-103-41.5T180 497z" glyph-name="nine" horiz-adv-x="572" unicode="9"/><glyph d="M320 690q108 0 159-87.5T505 372l-13-73q-27-151-93.5-230T230-10Q121-10 70 78T45 309l13 73q27 151 93.5 229.5T320 690zm90-441l31 173q20 114-11.5 176T321 660q-72 0-116-55t-65-173l-31-173Q89 144 120 82t109-62q72 0 116 55.5T410 249z" glyph-name="zero.tlf" horiz-adv-x="516"/><glyph d="M154 547l-13 25 188 108h55L278 79q-6-34-4-41t17-8l104-5-4-25H62l4 25 116 5q17 1 21 7.5T213 79l99 558z" glyph-name="one.tlf" horiz-adv-x="516"/><glyph d="M415 184h25L407 0H17l8 43q15 80 60.5 139.5T235 303q68 40 91.5 57t39.5 35q29 30 42.5 66t13.5 81q0 62-26 90t-85 28q-70 0-108-48t-45-145l-62 16q0 92 59 149.5T312 690q87 0 135.5-43.5T496 527q0-50-20-89.5T413 365q-32-24-94.5-56T248 273q-83-45-126.5-96.5T63 57h248q32 0 41.5 3.5T370 83z" glyph-name="two.tlf" horiz-adv-x="516"/><glyph d="M310 351q70-14 106-54t36-104q0-87-63.5-145T217-10q-83 0-129 38.5T30 146l54 17q-2-71 30-107t97-36q77 0 121.5 49T377 201q0 69-37.5 102T224 336h-27l6 30h27q91 0 142.5 51T424 551q0 54-26.5 81.5T318 660q-72 0-111-47.5T161 467l-62 16q0 89 61 148t159 59q86 0 132.5-39.5T498 541q0-76-49-125.5T310 351z" glyph-name="three.tlf" horiz-adv-x="516"/><glyph d="M295 79l17 97H18l5 30q129 117 200.5 220.5T352 680h80q-56-129-145.5-244T64 206h253l29 161 66 10-30-171h77l-5-30h-77l-17-97q-6-33-4.5-40t17.5-9l54-5-4-25H184l4 25 76 5q17 1 21 7.5T295 79z" glyph-name="four.tlf" horiz-adv-x="516"/><glyph d="M114 344l-16 5 76 331h242q36 0 43 3t15 23l20 54h25l-24-139H195l-51-221q30 16 62.5 24.5T272 433q86 0 134-50t48-138q0-111-66.5-183T208-10q-75 0-117 39T37 146l54 17q-2-71 27-107t88-36q78 0 126.5 67T381 260q0 72-27 106t-84 34q-41 0-80-14t-76-42z" glyph-name="five.tlf" horiz-adv-x="516"/><glyph d="M469 188l-2-12q-13-82-77-134T239-10Q131-10 85.5 75.5T65 315l10 63q24 154 92.5 233T345 690q97 0 142.5-60.5T506 483l-68-16q27 95 2.5 144T341 660q-73 0-118.5-56T158 437l-19-112q37 36 80.5 55t90.5 19q85 0 130-59t29-152zm-338 90l-4-22q-20-118 8-177t105-59q63 0 103 40t53 116l2 12q14 84-13 131.5T296 367q-44 0-87.5-23.5T131 278z" glyph-name="six.tlf" horiz-adv-x="516"/><glyph d="M540 680l-9-51Q400 491 337.5 357.5T227 0h-80q60 213 135.5 351T488 621H223q-31 0-40.5-3.5T165 595l-45-101H95l33 186z" glyph-name="seven.tlf" horiz-adv-x="516"/><glyph d="M341 357q56-29 85-73t29-101q0-84-60-138.5T236-10q-92 0-148.5 44.5T31 148q0 62 47.5 113.5T210 341q-52 29-77.5 68.5T107 501q0 84 56.5 136.5T313 690q85 0 137-43t52-113q0-59-42.5-106.5T341 357zM167 530q0-44 24-76t83-62l36-18q62 17 95 60t33 103q0 58-34 90.5T311 660q-64 0-104-35t-40-95zM96 149q0-61 38-95t105-34q71 0 114 37.5t43 99.5q0 46-26.5 80.5T288 301l-47 24q-68-20-106.5-67T96 149z" glyph-name="eight.tlf" horiz-adv-x="516"/><glyph d="M485 365l-10-63q-24-151-95-231.5T200-10q-75 0-118 39T27 146l54 17q-2-71 27.5-107T198 20q75 0 125 57t69 166l16 94q-36-34-79-52.5T240 266q-86 0-130.5 61.5T81 485l2 12q14 86 77.5 139.5T311 690q108 0 153.5-85.5T485 365zM154 497l-2-12q-15-87 12-137t90-50q43 0 85.5 22t76.5 63l7 41q20 118-8 177t-105 59q-63 0-103-41.5T154 497z" glyph-name="nine.tlf" horiz-adv-x="516"/><glyph d="M312 497q101 0 151-72t31-183l-4-23q-19-109-82-169T248-10Q148-10 98.5 62.5T68 246l4 23q20 109 82 168.5T312 497zm107-293l10 60q16 96-16 150.5T307 469q-65 0-106.5-47T143 284l-10-60q-16-96 16-151t105-55q66 0 108 47t57 139z" glyph-name="zero.posf" horiz-adv-x="562"/><glyph d="M74 383l-13 25 141 79h55L185 79q-6-33-4.5-40t17.5-9l54-5-4-25H9l4 25 76 5q16 1 20.5 7.5T120 79l65 365z" glyph-name="one.posf" horiz-adv-x="334"/><glyph d="M384 146h25L383 0H39l8 45q11 58 46 95.5T200 209q93 40 131.5 79.5T370 383q0 42-21.5 63T284 467q-59 0-91-41t-38-127l-62 16q-1 78 53.5 130T290 497q73 0 113.5-33.5T444 372q0-38-20-67t-65-56q-21-12-50.5-26T216 182q-65-28-94-55.5T83 59h214q33 0 41.5 3.5T356 85z" glyph-name="two.posf" horiz-adv-x="516"/><glyph d="M332 46q0 61-26.5 90T223 165h-27l5 29 212 234H198q-31 0-40.5-3.5T140 402L95 301H70l33 186h369l-9-51-220-242q75-4 119.5-44.5T407 43q0-105-64-175.5T171-203q-80 0-124 38T-10-47l60 17q0-71 30-107t90-36q74 0 118 60t44 159z" glyph-name="three.posf" horiz-adv-x="504"/><glyph d="M297-191l-67-12L266 0H-28l5 30q135 122 204.5 221T303 487h80q-52-118-138.5-227T18 30h254l25 142 66 12-27-154h77l-5-30h-77z" glyph-name="four.posf" horiz-adv-x="479"/><glyph d="M80 151l-16 5 76 331h242q36 0 43 3t15 23l20 54h25l-24-139H161l-51-221q30 16 62.5 24.5T238 240q86 0 134-50t48-138q0-111-66.5-183T174-203q-75 0-117 39T3-47l54 17q-2-71 27-107t88-36q78 0 126.5 67T347 67q0 72-27 106t-84 34q-41 0-80-14t-76-42z" glyph-name="five.posf" horiz-adv-x="512"/><glyph d="M498 188l-2-12q-13-82-77-134T268-10q-108 0-153.5 85.5T94 315l10 63q24 154 92.5 233T374 690q97 0 142.5-60.5T535 483l-68-16q27 95 2.5 144T370 660q-73 0-118.5-56T187 437l-19-112q37 36 80.5 55t90.5 19q85 0 130-59t29-152zm-338 90l-4-22q-20-118 8-177t105-59q63 0 103 40t53 116l2 12q14 84-13 131.5T325 367q-44 0-87.5-23.5T160 278z" glyph-name="six.posf" horiz-adv-x="576"/><glyph d="M491 487l-9-51Q351 298 288.5 164.5T178-193H98q60 213 135.5 351T439 428H174q-31 0-40.5-3.5T116 402L71 301H46l33 186z" glyph-name="seven.posf" horiz-adv-x="479"/><glyph d="M356 357q56-29 85-73t29-101q0-84-60-138.5T251-10q-92 0-148.5 44.5T46 148q0 62 47.5 113.5T225 341q-52 29-77.5 68.5T122 501q0 84 56.5 136.5T328 690q85 0 137-43t52-113q0-59-42.5-106.5T356 357zM182 530q0-44 24-76t83-62l36-18q62 17 95 60t33 103q0 58-34 90.5T326 660q-64 0-104-35t-40-95zm-71-381q0-61 38-95t105-34q71 0 114 37.5t43 99.5q0 46-26.5 80.5T303 301l-47 24q-68-20-106.5-67T111 149z" glyph-name="eight.posf" horiz-adv-x="545"/><glyph d="M480 172l-10-63q-24-151-95-231.5T195-203q-75 0-118 39T22-47l54 17q-2-71 27.5-107t89.5-36q75 0 125 57t69 166l16 94q-36-34-79-52.5T235 73q-86 0-130.5 61.5T76 292l2 12q14 86 77.5 139.5T306 497q108 0 153.5-85.5T480 172zM149 304l-2-12q-15-87 12-137t90-50q43 0 85.5 22t76.5 63l7 41q20 118-8 177t-105 59q-63 0-103-41.5T149 304z" glyph-name="nine.posf" horiz-adv-x="581"/><glyph d="M412 546q0-76-50.5-128T236 366q-65 0-105 39.5T91 510q0 76 50.5 128T267 690q65 0 105-39.5T412 546zm-37-1q0 53-28.5 83T267 658q-61 0-100-41.5T128 511q0-53 28.5-83t79.5-30q61 0 100 41.5T375 545z" glyph-name="degree" horiz-adv-x="402" unicode="°"/><glyph d="M244 685q64 0 96.5-44.5T362 529l-3-18q-11-64-50.5-100T211 375q-63 0-95.5 44T94 531l3 18q10 63 49.5 99.5T244 685zM117 17l491 663 23-17L141 0zm187 485l7 42q9 54-8.5 85.5T246 661q-37 0-61.5-26.5T152 558l-7-42q-9-55 8.5-86t57.5-31q37 0 61 26.5t32 76.5zm235-197q64 0 96.5-44.5T657 149l-3-18q-11-64-50.5-100T506-5q-63 0-95.5 44T389 151l3 18q10 63 49.5 99.5T539 305zm60-183l7 42q9 54-8.5 85.5T541 281q-37 0-61.5-26.5T447 178l-7-42q-9-55 8.5-86T506 19q37 0 61 26.5t32 76.5z" glyph-name="percent" horiz-adv-x="715" unicode="%"/><glyph d="M244 685q64 0 96.5-44.5T362 529l-3-18q-11-64-50.5-100T211 375q-63 0-95.5 44T94 531l3 18q10 63 49.5 99.5T244 685zM117 17l491 663 23-17L141 0zm187 485l7 42q9 54-8.5 85.5T246 661q-37 0-61.5-26.5T152 558l-7-42q-9-55 8.5-86t57.5-31q37 0 61 26.5t32 76.5zm235-197q64 0 96.5-44.5T657 149l-3-18q-11-64-50.5-100T506-5q-63 0-95.5 44T389 151l3 18q10 63 49.5 99.5T539 305zm352 0q64 0 96.5-44.5T1009 149l-3-18q-11-64-50.5-100T858-5q-63 0-95.5 44T741 151l3 18q10 63 49.5 99.5T891 305zM599 122l7 42q9 54-8.5 85.5T541 281q-37 0-61.5-26.5T447 178l-7-42q-9-55 8.5-86T506 19q37 0 61 26.5t32 76.5zm352 0l7 42q9 54-8.5 85.5T893 281q-37 0-61.5-26.5T799 178l-7-42q-9-55 8.5-86T858 19q37 0 61 26.5t32 76.5z" glyph-name="perthousand" horiz-adv-x="1067" unicode="‰"/><glyph d="M-215 17l491 663 23-17L-191 0z" glyph-name="fraction" horiz-adv-x="51" unicode="⁄"/><glyph d="M-215 17l491 663 23-17L-191 0z" glyph-name="uni2215" horiz-adv-x="51" unicode="∕"/><glyph d="M251 790q61 0 89-42t16-115l-6-38q-12-76-47.5-115.5T211 440q-61 0-89.5 43T106 598l7 38q14 78 48.5 116t89.5 38zm43-220l15 86q9 55-5 84.5T254 770q-34 0-54.5-26.5T169 661l-16-86q-10-55 4.5-85t50.5-30q35 0 55.5 27t30.5 83z" glyph-name="zerosuperior" horiz-adv-x="332" unicode="⁰"/><glyph d="M123 726l-10 20 71 39h42l-52-295q-3-16-2-20t8-5l28-2-3-18H70l3 18 38 2q9 1 11 5t5 20l46 264z" glyph-name="onesuperior" horiz-adv-x="201" unicode="¹"/><glyph d="M275 530h18l-15-85H67l4 23q9 50 30.5 77t88.5 60q44 22 63 47.5t19 62.5q0 28-11 41.5T227 770q-33 0-50.5-22T155 679l-46 8q0 46 31.5 74.5T226 790q47 0 72.5-21.5T324 710q0-39-29.5-68.5T190 575q-43-20-63-42t-26-56h130q17 0 21.5 2t7.5 11z" glyph-name="twosuperior" horiz-adv-x="285" unicode="²"/><glyph d="M239 620q32-9 48.5-28t16.5-48q0-45-34.5-74.5T177 440q-44 0-69.5 17.5T76 510l32 10q0-29 18-44.5t49-15.5q35 0 56 24.5t21 65.5q0 30-18 45t-54 15h-14l4 20h14q43 0 67 24.5t24 65.5q0 24-12.5 37T227 770q-33 0-51-22t-22-69l-46 8q0 47 31.5 75t86.5 28q48 0 74.5-21t26.5-58q0-36-22.5-59T239 620z" glyph-name="threesuperior" horiz-adv-x="291" unicode="³"/><glyph d="M203 490l7 38H58l3 20q71 65 106.5 117T225 785h55q-21-54-63-108T91 548h122l15 81 47 5-15-86h39l-3-20h-39l-7-38q-3-16-2-20t9-5l27-2-3-18H156l3 18 29 2q8 1 10 5t5 20z" glyph-name="foursuperior" horiz-adv-x="263" unicode="⁴"/><glyph d="M120 617l-13 3 38 165h152.5q3.5 0 5.5 1 4 0 6 2t4 10l9 27h13l-13-71H160l-24-103q16 8 32 12t33 4q48 0 75-26.5t27-73.5q0-56-35.5-91.5T170 440q-41 0-65 18t-29 53l31 8q0-29 16-44.5t44-15.5q37 0 60 33.5t23 86.5q0 35-12.5 51.5T199 647q-22 0-40.5-7T120 617z" glyph-name="fivesuperior" horiz-adv-x="275" unicode="⁵"/><glyph d="M329 541l-1-7q-6-43-39.5-68.5T206 440q-59 0-85 42t-14 116l5 31q13 79 49 120t94 41q54 0 81-30.5t13-72.5l-50-8q14 44 2.5 67.5T256 770q-36 0-56.5-27T169 659l-6-33q16 12 34.5 18t38.5 6q48 0 74-30.5t19-78.5zm-172 50l-4-23q-9-53 4-80.5t47-27.5q30 0 48.5 20t26.5 60l1 5q7 40-5.5 62T232 629q-21 0-40.5-9.5T157 591z" glyph-name="sixsuperior" horiz-adv-x="316" unicode="⁶"/><glyph d="M335 785l-5-27q-67-72-96.5-135.5T180 445h-55q29 99 68.5 169T301 754H171q-17 0-21.5-2t-7.5-11l-15-41h-18l15 85z" glyph-name="sevensuperior" horiz-adv-x="263" unicode="⁷"/><glyph d="M258 627q30-16 44-37t14-49q0-45-32-73t-88-28q-51 0-79.5 22T88 522q0 31 22 53t67 39q-27 15-39.5 33.5T125 691q0 45 30 72t83 27q46 0 73.5-22t27.5-56q0-27-20-48t-61-37zm-88 81q0-20 9.5-33t39.5-28l17-9q29 15 43 33.5t14 42.5q0 27-14.5 41.5T238 770q-30 0-49-17t-19-45zm-36-188q0-29 16-44.5t46-15.5q33 0 54 17.5t21 46.5q0 24-10 38t-39 29l-24 12q-33-15-48.5-35.5T134 520z" glyph-name="eightsuperior" horiz-adv-x="305" unicode="⁸"/><glyph d="M333 632l-5-31q-13-79-51-120t-98-41q-40 0-63.5 18T86 511l32 8q-1-28 15.5-43.5T178 460q39 0 61 27t32 84l6 33q-16-12-34.5-18t-38.5-6q-49 0-74.5 29.5T111 687l2 14q6 41 38 65t79 24q61 0 88-42t15-116zm-172 58l-1-7q-5-40 7-61t41-21q21 0 40 9.5t35 27.5l4 24q10 53-4.5 80.5T232 770q-29 0-47.5-20.5T161 690z" glyph-name="ninesuperior" horiz-adv-x="311" unicode="⁹"/><glyph d="M155 240q61 0 89-42t16-115l-6-38q-12-76-47.5-115.5T115-110q-61 0-89.5 43T10 48l7 38q14 78 48.5 116t89.5 38zm43-220l15 86q9 55-5 84.5T158 220q-34 0-54.5-26.5T73 111L57 25q-10-55 4.5-85T112-90q35 0 55.5 27T198 20z" glyph-name="zeroinferior" horiz-adv-x="332" unicode="₀"/><glyph d="M27 176l-10 20 71 39h42L78-60q-3-16-2-20t8-5l28-2-3-18H-26l3 18 38 2q9 1 11 5t5 20l46 264z" glyph-name="oneinferior" horiz-adv-x="201" unicode="₁"/><glyph d="M179-20h18l-15-85H-29l4 23q9 50 30.5 77T94 55q44 22 63 47.5t19 62.5q0 28-11 41.5T131 220q-33 0-50.5-22T59 129l-46 8q0 46 31.5 74.5T130 240q47 0 72.5-21.5T228 160q0-39-29.5-68.5T94 25Q51 5 31-17T5-73h130q17 0 21.5 2t7.5 11z" glyph-name="twoinferior" horiz-adv-x="285" unicode="₂"/><glyph d="M143 70q32-9 48.5-28T208-6q0-45-34.5-74.5T81-110q-44 0-69.5 17.5T-20-40l32 10q0-29 18-44.5T79-90q35 0 56 24.5T156 0q0 30-18 45T84 60H70l4 20h14q43 0 67 24.5t24 65.5q0 24-12.5 37T131 220q-33 0-51-22t-22-69l-46 8q0 47 31.5 75t86.5 28q48 0 74.5-21t26.5-58q0-36-22.5-59T143 70z" glyph-name="threeinferior" horiz-adv-x="291" unicode="₃"/><glyph d="M106-60l7 38H-39l3 20Q35 63 70.5 115T128 235h55q-21-54-63-108T-6-2h122l15 81 47 5-15-86h39l-3-20h-39l-7-38q-3-16-2-20t9-5l27-2-3-18H59l3 18 29 2q8 1 10 5t5 20z" glyph-name="fourinferior" horiz-adv-x="263" unicode="₄"/><glyph d="M24 67l-13 3 38 165h152.5q3.5 0 5.5 1 4 0 6 2t4 10l9 27h13l-13-71H64L40 101q16 8 32 12t33 4q48 0 75-26.5T207 17q0-56-35.5-91.5T74-110q-41 0-65 18t-29 53l31 8q0-29 16-44.5T71-91q37 0 60 33.5T154 29q0 35-12.5 51.5T103 97q-22 0-40.5-7T24 67z" glyph-name="fiveinferior" horiz-adv-x="275" unicode="₅"/><glyph d="M233-9l-1-7q-6-43-39.5-68.5T110-110q-59 0-85 42T11 48l5 31q13 79 49 120t94 41q54 0 81-30.5t13-72.5l-50-8q14 44 2.5 67.5T160 220q-36 0-56.5-27T73 109l-6-33q16 12 34.5 18t38.5 6q48 0 74-30.5T233-9zM61 41l-4-23q-9-53 4-80.5T108-90q30 0 48.5 20T183-10l1 5q7 40-5.5 62T136 79q-21 0-40.5-9.5T61 41z" glyph-name="sixinferior" horiz-adv-x="316" unicode="₆"/><glyph d="M239 235l-5-27q-67-72-96.5-135.5T84-105H29Q58-6 97.5 64T205 204H75q-17 0-21.5-2T46 191l-15-41H13l15 85z" glyph-name="seveninferior" horiz-adv-x="263" unicode="₇"/><glyph d="M162 77q30-16 44-37t14-49q0-45-32-73t-88-28q-51 0-79.5 22T-8-28q0 31 22 53t67 39Q54 79 41.5 97.5T29 141q0 45 30 72t83 27q46 0 73.5-22t27.5-56q0-27-20-48t-61-37zm-88 81q0-20 9.5-33T123 97l17-9q29 15 43 33.5t14 42.5q0 27-14.5 41.5T142 220q-30 0-49-17t-19-45zM38-30q0-29 16-44.5T100-90q33 0 54 17.5T175-26q0 24-10 38t-39 29l-24 12Q69 38 53.5 17.5T38-30z" glyph-name="eightinferior" horiz-adv-x="305" unicode="₈"/><glyph d="M237 82l-5-31q-13-79-51-120t-98-41q-40 0-63.5 18T-10-39l32 8q-1-28 15.5-43.5T82-90q39 0 61 27t32 84l6 33q-16-12-34.5-18T108 30q-49 0-74.5 29.5T15 137l2 14q6 41 38 65t79 24q61 0 88-42t15-116zM65 140l-1-7q-5-40 7-61t41-21q21 0 40 9.5T187 88l4 24q10 53-4.5 80.5T136 220q-29 0-47.5-20.5T65 140z" glyph-name="nineinferior" horiz-adv-x="311" unicode="₉"/><glyph d="M155 240q61 0 89-42t16-115l-6-38q-12-76-47.5-115.5T115-110q-61 0-89.5 43T10 48l7 38q14 78 48.5 116t89.5 38zm43-220l15 86q9 55-5 84.5T158 220q-34 0-54.5-26.5T73 111L57 25q-10-55 4.5-85T112-90q35 0 55.5 27T198 20z" glyph-name="zero.numerator" horiz-adv-x="332"/><glyph d="M27 176l-10 20 71 39h42L78-60q-3-16-2-20t8-5l28-2-3-18H-26l3 18 38 2q9 1 11 5t5 20l46 264z" glyph-name="one.numerator" horiz-adv-x="201"/><glyph d="M179-20h18l-15-85H-29l4 23q9 50 30.5 77T94 55q44 22 63 47.5t19 62.5q0 28-11 41.5T131 220q-33 0-50.5-22T59 129l-46 8q0 46 31.5 74.5T130 240q47 0 72.5-21.5T228 160q0-39-29.5-68.5T94 25Q51 5 31-17T5-73h130q17 0 21.5 2t7.5 11z" glyph-name="two.numerator" horiz-adv-x="285"/><glyph d="M143 70q32-9 48.5-28T208-6q0-45-34.5-74.5T81-110q-44 0-69.5 17.5T-20-40l32 10q0-29 18-44.5T79-90q35 0 56 24.5T156 0q0 30-18 45T84 60H70l4 20h14q43 0 67 24.5t24 65.5q0 24-12.5 37T131 220q-33 0-51-22t-22-69l-46 8q0 47 31.5 75t86.5 28q48 0 74.5-21t26.5-58q0-36-22.5-59T143 70z" glyph-name="three.numerator" horiz-adv-x="291"/><glyph d="M106-60l7 38H-39l3 20Q35 63 70.5 115T128 235h55q-21-54-63-108T-6-2h122l15 81 47 5-15-86h39l-3-20h-39l-7-38q-3-16-2-20t9-5l27-2-3-18H59l3 18 29 2q8 1 10 5t5 20z" glyph-name="four.numerator" horiz-adv-x="262"/><glyph d="M24 67l-13 3 38 165h152.5q3.5 0 5.5 1 4 0 6 2t4 10l9 27h13l-13-71H64L40 101q16 8 32 12t33 4q48 0 75-26.5T207 17q0-56-35.5-91.5T74-110q-41 0-65 18t-29 53l31 8q0-29 16-44.5T71-91q37 0 60 33.5T154 29q0 35-12.5 51.5T103 97q-22 0-40.5-7T24 67z" glyph-name="five.numerator" horiz-adv-x="275"/><glyph d="M233-9l-1-7q-6-43-39.5-68.5T110-110q-59 0-85 42T11 48l5 31q13 79 49 120t94 41q54 0 81-30.5t13-72.5l-50-8q14 44 2.5 67.5T160 220q-36 0-56.5-27T73 109l-6-33q16 12 34.5 18t38.5 6q48 0 74-30.5T233-9zM61 41l-4-23q-9-53 4-80.5T108-90q30 0 48.5 20T183-10l1 5q7 40-5.5 62T136 79q-21 0-40.5-9.5T61 41z" glyph-name="six.numerator" horiz-adv-x="316"/><glyph d="M239 235l-5-27q-67-72-96.5-135.5T84-105H29Q58-6 97.5 64T205 204H75q-17 0-21.5-2T46 191l-15-41H13l15 85z" glyph-name="seven.numerator" horiz-adv-x="263"/><glyph d="M162 77q30-16 44-37t14-49q0-45-32-73t-88-28q-51 0-79.5 22T-8-28q0 31 22 53t67 39Q54 79 41.5 97.5T29 141q0 45 30 72t83 27q46 0 73.5-22t27.5-56q0-27-20-48t-61-37zm-88 81q0-20 9.5-33T123 97l17-9q29 15 43 33.5t14 42.5q0 27-14.5 41.5T142 220q-30 0-49-17t-19-45zM38-30q0-29 16-44.5T100-90q33 0 54 17.5T175-26q0 24-10 38t-39 29l-24 12Q69 38 53.5 17.5T38-30z" glyph-name="eight.numerator" horiz-adv-x="305"/><glyph d="M237 82l-5-31q-13-79-51-120t-98-41q-40 0-63.5 18T-10-39l32 8q-1-28 15.5-43.5T82-90q39 0 61 27t32 84l6 33q-16-12-34.5-18T108 30q-49 0-74.5 29.5T15 137l2 14q6 41 38 65t79 24q61 0 88-42t15-116zM65 140l-1-7q-5-40 7-61t41-21q21 0 40 9.5T187 88l4 24q10 53-4.5 80.5T136 220q-29 0-47.5-20.5T65 140z" glyph-name="nine.numerator" horiz-adv-x="311"/><glyph d="M174 345q61 0 89-42t16-115l-6-38q-12-76-47.5-115.5T134-5Q73-5 44.5 38T29 153l7 38q14 78 48.5 116t89.5 38zm43-220l15 86q9 55-5 84.5T177 325q-34 0-54.5-26.5T92 216l-16-86q-10-55 4.5-85T131 15q35 0 55.5 27t30.5 83z" glyph-name="zero.denominator" horiz-adv-x="332"/><glyph d="M46 281l-10 20 71 39h42L97 45q-3-16-2-20t8-5l28-2-3-18H-7l3 18 38 2q9 1 11 5t5 20l46 264z" glyph-name="one.denominator" horiz-adv-x="201"/><glyph d="M198 85h18L201 0H-10l4 23q9 50 30.5 77t88.5 60q44 22 63 47.5t19 62.5q0 28-11 41.5T150 325q-33 0-50.5-22T78 234l-46 8q0 46 31.5 74.5T149 345q47 0 72.5-21.5T247 265q0-39-29.5-68.5T113 130q-43-20-63-42T24 32h130q17 0 21.5 2t7.5 11z" glyph-name="two.denominator" horiz-adv-x="285"/><glyph d="M162 175q32-9 48.5-28T227 99q0-45-34.5-74.5T100-5Q56-5 30.5 12.5T-1 65l32 10q0-29 18-44.5T98 15q35 0 56 24.5t21 65.5q0 30-18 45t-54 15H89l4 20h14q43 0 67 24.5t24 65.5q0 24-12.5 37T150 325q-33 0-51-22t-22-69l-46 8q0 47 31.5 75t86.5 28q48 0 74.5-21t26.5-58q0-36-22.5-59T162 175z" glyph-name="three.denominator" horiz-adv-x="291"/><glyph d="M124 45l7 38H-21l3 20q71 65 106.5 117T146 340h55q-21-54-63-108T12 103h122l15 81 47 5-15-86h39l-3-20h-39l-7-38q-3-16-2-20t9-5l27-2-3-18H77l3 18 29 2q8 1 10 5t5 20z" glyph-name="four.denominator" horiz-adv-x="262"/><glyph d="M43 172l-13 3 38 165h152.5q3.5 0 5.5 1 4 0 6 2t4 10l9 27h13l-13-71H83L59 206q16 8 32 12t33 4q48 0 75-26.5t27-73.5q0-56-35.5-91.5T93-5Q52-5 28 13T-1 66l31 8q0-29 16-44.5T90 14q37 0 60 33.5t23 86.5q0 35-12.5 51.5T122 202q-22 0-40.5-7T43 172z" glyph-name="five.denominator" horiz-adv-x="275"/><glyph d="M252 96l-1-7q-6-43-39.5-68.5T129-5Q70-5 44 37T30 153l5 31q13 79 49 120t94 41q54 0 81-30.5t13-72.5l-50-8q14 44 2.5 67.5T179 325q-36 0-56.5-27T92 214l-6-33q16 12 34.5 18t38.5 6q48 0 74-30.5T252 96zM80 146l-4-23q-9-53 4-80.5T127 15q30 0 48.5 20T202 95l1 5q7 40-5.5 62T155 184q-21 0-40.5-9.5T80 146z" glyph-name="six.denominator" horiz-adv-x="316"/><glyph d="M258 340l-5-27q-67-72-96.5-135.5T103 0H48q29 99 68.5 169T224 309H94q-17 0-21.5-2T65 296l-15-41H32l15 85z" glyph-name="seven.denominator" horiz-adv-x="263"/><glyph d="M181 182q30-16 44-37t14-49q0-45-32-73T119-5Q68-5 39.5 17T11 77q0 31 22 53t67 39q-27 15-39.5 33.5T48 246q0 45 30 72t83 27q46 0 73.5-22t27.5-56q0-27-20-48t-61-37zm-88 81q0-20 9.5-33t39.5-28l17-9q29 15 43 33.5t14 42.5q0 27-14.5 41.5T161 325q-30 0-49-17t-19-45zM57 75q0-29 16-44.5T119 15q33 0 54 17.5T194 79q0 24-10 38t-39 29l-24 12q-33-15-48.5-35.5T57 75z" glyph-name="eight.denominator" horiz-adv-x="305"/><glyph d="M256 187l-5-31q-13-79-51-120T102-5Q62-5 38.5 13T9 66l32 8q-1-28 15.5-43.5T101 15q39 0 61 27t32 84l6 33q-16-12-34.5-18t-38.5-6q-49 0-74.5 29.5T34 242l2 14q6 41 38 65t79 24q61 0 88-42t15-116zM84 245l-1-7q-5-40 7-61t41-21q21 0 40 9.5t35 27.5l4 24q10 53-4.5 80.5T155 325q-29 0-47.5-20.5T84 245z" glyph-name="nine.denominator" horiz-adv-x="311"/><glyph d="M105 621l-10 20 71 39h42l-52-295q-3-16-2-20t8-5l28-2-3-18H52l3 18 38 2q9 1 11 5t5 20l46 264zM31 17l491 663 23-17L55 0zm474 68h18L508 0H297l4 23q9 50 30.5 77t88.5 60q44 22 63 47.5t19 62.5q0 28-11 41.5T457 325q-33 0-50.5-22T385 234l-46 8q0 46 31.5 74.5T456 345q47 0 72.5-21.5T554 265q0-39-29.5-68.5T420 130q-43-20-63-42t-26-56h130q17 0 21.5 2t7.5 11z" glyph-name="onehalf" horiz-adv-x="592" unicode="½"/><glyph d="M105 621l-10 20 71 39h42l-52-295q-3-16-2-20t8-5l28-2-3-18H52l3 18 38 2q9 1 11 5t5 20l46 264zM31 17l491 663 23-17L55 0zm442 158q32-9 48.5-28T538 99q0-45-34.5-74.5T411-5q-44 0-69.5 17.5T310 65l32 10q0-29 18-44.5T409 15q35 0 56 24.5t21 65.5q0 30-18 45t-54 15h-14l4 20h14q43 0 67 24.5t24 65.5q0 24-12.5 37T461 325q-33 0-51-22t-22-69l-46 8q0 47 31.5 75t86.5 28q48 0 74.5-21t26.5-58q0-36-22.5-59T473 175z" glyph-name="onethird" horiz-adv-x="602" unicode="⅓"/><glyph d="M105 621l-10 20 71 39h42l-52-295q-3-16-2-20t8-5l28-2-3-18H52l3 18 38 2q9 1 11 5t5 20l46 264zM31 17l491 663 23-17L55 0zm401 28l7 38H287l3 20q71 65 106.5 117T454 340h55q-21-54-63-108T320 103h122l15 81 47 5-15-86h39l-3-20h-39l-7-38q-3-16-2-20t9-5l27-2-3-18H385l3 18 29 2q8 1 10 5t5 20z" glyph-name="onequarter" horiz-adv-x="564" unicode="¼"/><glyph d="M105 621l-10 20 71 39h42l-52-295q-3-16-2-20t8-5l28-2-3-18H52l3 18 38 2q9 1 11 5t5 20l46 264zM31 17l491 663 23-17L55 0zm339 155l-13 3 38 165h152.5q3.5 0 5.5 1 4 0 6 2t4 10l9 27h13l-13-71H410l-24-103q16 8 32 12t33 4q48 0 75-26.5t27-73.5q0-56-35.5-91.5T420-5q-41 0-65 18t-29 53l31 8q0-29 16-44.5T417 14q37 0 60 33.5t23 86.5q0 35-12.5 51.5T449 202q-22 0-40.5-7T370 172z" glyph-name="onefifth" horiz-adv-x="602"/><glyph d="M105 621l-10 20 71 39h42l-52-295q-3-16-2-20t8-5l28-2-3-18H52l3 18 38 2q9 1 11 5t5 20l46 264zM31 17l491 663 23-17L55 0zm518 79l-1-7q-6-43-39.5-68.5T426-5q-59 0-85 42t-14 116l5 31q13 79 49 120t94 41q54 0 81-30.5t13-72.5l-50-8q14 44 2.5 67.5T476 325q-36 0-56.5-27T389 214l-6-33q16 12 34.5 18t38.5 6q48 0 74-30.5T549 96zm-172 50l-4-23q-9-53 4-80.5T424 15q30 0 48.5 20T499 95l1 5q7 40-5.5 62T452 184q-21 0-40.5-9.5T377 146z" glyph-name="onesixth" horiz-adv-x="613"/><glyph d="M105 621l-10 20 71 39h42l-52-295q-3-16-2-20t8-5l28-2-3-18H52l3 18 38 2q9 1 11 5t5 20l46 264zM31 17l491 663 23-17L55 0zm559 323l-5-27q-67-72-96.5-135.5T435 0h-55q29 99 68.5 169T556 309H426q-17 0-21.5-2t-7.5-11l-15-41h-18l15 85z" glyph-name="oneseventh" horiz-adv-x="595"/><glyph d="M105 621l-10 20 71 39h42l-52-295q-3-16-2-20t8-5l28-2-3-18H52l3 18 38 2q9 1 11 5t5 20l46 264zM31 17l491 663 23-17L55 0zm457 165q30-16 44-37t14-49q0-45-32-73T426-5q-51 0-79.5 22T318 77q0 31 22 53t67 39q-27 15-39.5 33.5T355 246q0 45 30 72t83 27q46 0 73.5-22t27.5-56q0-27-20-48t-61-37zm-88 81q0-20 9.5-33t39.5-28l17-9q29 15 43 33.5t14 42.5q0 27-14.5 41.5T468 325q-30 0-49-17t-19-45zM364 75q0-29 16-44.5T426 15q33 0 54 17.5T501 79q0 24-10 38t-39 29l-24 12q-33-15-48.5-35.5T364 75z" glyph-name="oneeighth" horiz-adv-x="612" unicode="⅛"/><glyph d="M105 621l-10 20 71 39h42l-52-295q-3-16-2-20t8-5l28-2-3-18H52l3 18 38 2q9 1 11 5t5 20l46 264zM31 17l491 663 23-17L55 0zm542 170l-5-31q-13-79-51-120T419-5q-40 0-63.5 18T326 66l32 8q-1-28 15.5-43.5T418 15q39 0 61 27t32 84l6 33q-16-12-34.5-18t-38.5-6q-49 0-74.5 29.5T351 242l2 14q6 41 38 65t79 24q61 0 88-42t15-116zm-172 58l-1-7q-5-40 7-61t41-21q21 0 40 9.5t35 27.5l4 24q10 53-4.5 80.5T472 325q-29 0-47.5-20.5T401 245z" glyph-name="oneninth" horiz-adv-x="628"/><glyph d="M257 425h18l-15-85H49l4 23q9 50 30.5 77t88.5 60q44 22 63 47.5t19 62.5q0 28-11 41.5T209 665q-33 0-50.5-22T137 574l-46 8q0 46 31.5 74.5T208 685q47 0 72.5-21.5T306 605q0-39-29.5-68.5T172 470q-43-20-63-42t-26-56h130q17 0 21.5 2t7.5 11zM100 17l491 663 23-17L124 0zm442 158q32-9 48.5-28T607 99q0-45-34.5-74.5T480-5q-44 0-69.5 17.5T379 65l32 10q0-29 18-44.5T478 15q35 0 56 24.5t21 65.5q0 30-18 45t-54 15h-14l4 20h14q43 0 67 24.5t24 65.5q0 24-12.5 37T530 325q-33 0-51-22t-22-69l-46 8q0 47 31.5 75t86.5 28q48 0 74.5-21t26.5-58q0-36-22.5-59T542 175z" glyph-name="twothirds" horiz-adv-x="671" unicode="⅔"/><glyph d="M257 425h18l-15-85H49l4 23q9 50 30.5 77t88.5 60q44 22 63 47.5t19 62.5q0 28-11 41.5T209 665q-33 0-50.5-22T137 574l-46 8q0 46 31.5 74.5T208 685q47 0 72.5-21.5T306 605q0-39-29.5-68.5T172 470q-43-20-63-42t-26-56h130q17 0 21.5 2t7.5 11zM100 17l491 663 23-17L124 0zm339 155l-13 3 38 165h152.5q3.5 0 5.5 1 4 0 6 2t4 10l9 27h13l-13-71H479l-24-103q16 8 32 12t33 4q48 0 75-26.5t27-73.5q0-56-35.5-91.5T489-5q-41 0-65 18t-29 53l31 8q0-29 16-44.5T486 14q37 0 60 33.5t23 86.5q0 35-12.5 51.5T518 202q-22 0-40.5-7T439 172z" glyph-name="twofifths" horiz-adv-x="671"/><glyph d="M257 425h18l-15-85H49l4 23q9 50 30.5 77t88.5 60q44 22 63 47.5t19 62.5q0 28-11 41.5T209 665q-33 0-50.5-22T137 574l-46 8q0 46 31.5 74.5T208 685q47 0 72.5-21.5T306 605q0-39-29.5-68.5T172 470q-43-20-63-42t-26-56h130q17 0 21.5 2t7.5 11zM100 17l491 663 23-17L124 0zm559 323l-5-27q-67-72-96.5-135.5T504 0h-55q29 99 68.5 169T625 309H495q-17 0-21.5-2t-7.5-11l-15-41h-18l15 85z" glyph-name="twosevenths" horiz-adv-x="664"/><glyph d="M257 425h18l-15-85H49l4 23q9 50 30.5 77t88.5 60q44 22 63 47.5t19 62.5q0 28-11 41.5T209 665q-33 0-50.5-22T137 574l-46 8q0 46 31.5 74.5T208 685q47 0 72.5-21.5T306 605q0-39-29.5-68.5T172 470q-43-20-63-42t-26-56h130q17 0 21.5 2t7.5 11zM100 17l491 663 23-17L124 0zm542 170l-5-31q-13-79-51-120T488-5q-40 0-63.5 18T395 66l32 8q-1-28 15.5-43.5T487 15q39 0 61 27t32 84l6 33q-16-12-34.5-18t-38.5-6q-49 0-74.5 29.5T420 242l2 14q6 41 38 65t79 24q61 0 88-42t15-116zm-172 58l-1-7q-5-40 7-61t41-21q21 0 40 9.5t35 27.5l4 24q10 53-4.5 80.5T541 325q-29 0-47.5-20.5T470 245z" glyph-name="twoninths" horiz-adv-x="697"/><glyph d="M221 515q32-9 48.5-28t16.5-48q0-45-34.5-74.5T159 335q-44 0-69.5 17.5T58 405l32 10q0-29 18-44.5t49-15.5q35 0 56 24.5t21 65.5q0 30-18 45t-54 15h-14l4 20h14q43 0 67 24.5t24 65.5q0 24-12.5 37T209 665q-33 0-51-22t-22-69l-46 8q0 47 31.5 75t86.5 28q48 0 74.5-21t26.5-58q0-36-22.5-59T221 515zM96 17l491 663 23-17L120 0zm401 28l7 38H352l3 20q71 65 106.5 117T519 340h55q-21-54-63-108T385 103h122l15 81 47 5-15-86h39l-3-20h-39l-7-38q-3-16-2-20t9-5l27-2-3-18H450l3 18 29 2q8 1 10 5t5 20z" glyph-name="threequarters" horiz-adv-x="629" unicode="¾"/><glyph d="M221 515q32-9 48.5-28t16.5-48q0-45-34.5-74.5T159 335q-44 0-69.5 17.5T58 405l32 10q0-29 18-44.5t49-15.5q35 0 56 24.5t21 65.5q0 30-18 45t-54 15h-14l4 20h14q43 0 67 24.5t24 65.5q0 24-12.5 37T209 665q-33 0-51-22t-22-69l-46 8q0 47 31.5 75t86.5 28q48 0 74.5-21t26.5-58q0-36-22.5-59T221 515zM96 17l491 663 23-17L120 0zm339 155l-13 3 38 165h152.5q3.5 0 5.5 1 4 0 6 2t4 10l9 27h13l-13-71H475l-24-103q16 8 32 12t33 4q48 0 75-26.5t27-73.5q0-56-35.5-91.5T485-5q-41 0-65 18t-29 53l31 8q0-29 16-44.5T482 14q37 0 60 33.5t23 86.5q0 35-12.5 51.5T514 202q-22 0-40.5-7T435 172z" glyph-name="threefifths" horiz-adv-x="667"/><glyph d="M221 515q32-9 48.5-28t16.5-48q0-45-34.5-74.5T159 335q-44 0-69.5 17.5T58 405l32 10q0-29 18-44.5t49-15.5q35 0 56 24.5t21 65.5q0 30-18 45t-54 15h-14l4 20h14q43 0 67 24.5t24 65.5q0 24-12.5 37T209 665q-33 0-51-22t-22-69l-46 8q0 47 31.5 75t86.5 28q48 0 74.5-21t26.5-58q0-36-22.5-59T221 515zM96 17l491 663 23-17L120 0zm559 323l-5-27q-67-72-96.5-135.5T500 0h-55q29 99 68.5 169T621 309H491q-17 0-21.5-2t-7.5-11l-15-41h-18l15 85z" glyph-name="threesevenths" horiz-adv-x="660"/><glyph d="M231 515q32-9 48.5-28t16.5-48q0-45-34.5-74.5T169 335q-44 0-69.5 17.5T68 405l32 10q0-29 18-44.5t49-15.5q35 0 56 24.5t21 65.5q0 30-18 45t-54 15h-14l4 20h14q43 0 67 24.5t24 65.5q0 24-12.5 37T219 665q-33 0-51-22t-22-69l-46 8q0 47 31.5 75t86.5 28q48 0 74.5-21t26.5-58q0-36-22.5-59T231 515zM106 17l491 663 23-17L130 0zm457 165q30-16 44-37t14-49q0-45-32-73T501-5q-51 0-79.5 22T393 77q0 31 22 53t67 39q-27 15-39.5 33.5T430 246q0 45 30 72t83 27q46 0 73.5-22t27.5-56q0-27-20-48t-61-37zm-88 81q0-20 9.5-33t39.5-28l17-9q29 15 43 33.5t14 42.5q0 27-14.5 41.5T543 325q-30 0-49-17t-19-45zM439 75q0-29 16-44.5T501 15q33 0 54 17.5T576 79q0 24-10 38t-39 29l-24 12q-33-15-48.5-35.5T439 75z" glyph-name="threeeighths" horiz-adv-x="687" unicode="⅜"/><glyph d="M184 385l7 38H39l3 20q71 65 106.5 117T206 680h55q-21-54-63-108T72 443h122l15 81 47 5-15-86h39l-3-20h-39l-7-38q-3-16-2-20t9-5l27-2-3-18H137l3 18 29 2q8 1 10 5t5 20zM97 17l491 663 23-17L121 0zm339 155l-13 3 38 165h152.5q3.5 0 5.5 1 4 0 6 2t4 10l9 27h13l-13-71H476l-24-103q16 8 32 12t33 4q48 0 75-26.5t27-73.5q0-56-35.5-91.5T486-5q-41 0-65 18t-29 53l31 8q0-29 16-44.5T483 14q37 0 60 33.5t23 86.5q0 35-12.5 51.5T515 202q-22 0-40.5-7T436 172z" glyph-name="fourfifths" horiz-adv-x="668"/><glyph d="M184 385l7 38H39l3 20q71 65 106.5 117T206 680h55q-21-54-63-108T72 443h122l15 81 47 5-15-86h39l-3-20h-39l-7-38q-3-16-2-20t9-5l27-2-3-18H137l3 18 29 2q8 1 10 5t5 20zM97 17l491 663 23-17L121 0zm559 323l-5-27q-67-72-96.5-135.5T501 0h-55q29 99 68.5 169T622 309H492q-17 0-21.5-2t-7.5-11l-15-41h-18l15 85z" glyph-name="foursevenths" horiz-adv-x="661"/><glyph d="M184 385l7 38H39l3 20q71 65 106.5 117T206 680h55q-21-54-63-108T72 443h122l15 81 47 5-15-86h39l-3-20h-39l-7-38q-3-16-2-20t9-5l27-2-3-18H137l3 18 29 2q8 1 10 5t5 20zM97 17l491 663 23-17L121 0zm542 170l-5-31q-13-79-51-120T485-5q-40 0-63.5 18T392 66l32 8q-1-28 15.5-43.5T484 15q39 0 61 27t32 84l6 33q-16-12-34.5-18t-38.5-6q-49 0-74.5 29.5T417 242l2 14q6 41 38 65t79 24q61 0 88-42t15-116zm-172 58l-1-7q-5-40 7-61t41-21q21 0 40 9.5t35 27.5l4 24q10 53-4.5 80.5T538 325q-29 0-47.5-20.5T467 245z" glyph-name="fourninths" horiz-adv-x="694"/><glyph d="M102 512l-13 3 38 165h152.5q3.5 0 5.5 1 4 0 6 2t4 10l9 27h13l-13-71H142l-24-103q16 8 32 12t33 4q48 0 75-26.5t27-73.5q0-56-35.5-91.5T152 335q-41 0-65 18t-29 53l31 8q0-29 16-44.5t44-15.5q37 0 60 33.5t23 86.5q0 35-12.5 51.5T181 542q-22 0-40.5-7T102 512zM80 17l491 663 23-17L104 0zm518 79l-1-7q-6-43-39.5-68.5T475-5q-59 0-85 42t-14 116l5 31q13 79 49 120t94 41q54 0 81-30.5t13-72.5l-50-8q14 44 2.5 67.5T525 325q-36 0-56.5-27T438 214l-6-33q16 12 34.5 18t38.5 6q48 0 74-30.5T598 96zm-172 50l-4-23q-9-53 4-80.5T473 15q30 0 48.5 20T548 95l1 5q7 40-5.5 62T501 184q-21 0-40.5-9.5T426 146z" glyph-name="fivesixths" horiz-adv-x="662"/><glyph d="M102 512l-13 3 38 165h152.5q3.5 0 5.5 1 4 0 6 2t4 10l9 27h13l-13-71H142l-24-103q16 8 32 12t33 4q48 0 75-26.5t27-73.5q0-56-35.5-91.5T152 335q-41 0-65 18t-29 53l31 8q0-29 16-44.5t44-15.5q37 0 60 33.5t23 86.5q0 35-12.5 51.5T181 542q-22 0-40.5-7T102 512zM80 17l491 663 23-17L104 0zm559 323l-5-27q-67-72-96.5-135.5T484 0h-55q29 99 68.5 169T605 309H475q-17 0-21.5-2t-7.5-11l-15-41h-18l15 85z" glyph-name="fivesevenths" horiz-adv-x="644"/><glyph d="M102 512l-13 3 38 165h152.5q3.5 0 5.5 1 4 0 6 2t4 10l9 27h13l-13-71H142l-24-103q16 8 32 12t33 4q48 0 75-26.5t27-73.5q0-56-35.5-91.5T152 335q-41 0-65 18t-29 53l31 8q0-29 16-44.5t44-15.5q37 0 60 33.5t23 86.5q0 35-12.5 51.5T181 542q-22 0-40.5-7T102 512zM80 17l491 663 23-17L104 0zm457 165q30-16 44-37t14-49q0-45-32-73T475-5q-51 0-79.5 22T367 77q0 31 22 53t67 39q-27 15-39.5 33.5T404 246q0 45 30 72t83 27q46 0 73.5-22t27.5-56q0-27-20-48t-61-37zm-88 81q0-20 9.5-33t39.5-28l17-9q29 15 43 33.5t14 42.5q0 27-14.5 41.5T517 325q-30 0-49-17t-19-45zM413 75q0-29 16-44.5T475 15q33 0 54 17.5T550 79q0 24-10 38t-39 29l-24 12q-33-15-48.5-35.5T413 75z" glyph-name="fiveeighths" horiz-adv-x="660" unicode="⅝"/><glyph d="M102 512l-13 3 38 165h152.5q3.5 0 5.5 1 4 0 6 2t4 10l9 27h13l-13-71H142l-24-103q16 8 32 12t33 4q48 0 75-26.5t27-73.5q0-56-35.5-91.5T152 335q-41 0-65 18t-29 53l31 8q0-29 16-44.5t44-15.5q37 0 60 33.5t23 86.5q0 35-12.5 51.5T181 542q-22 0-40.5-7T102 512zM80 17l491 663 23-17L104 0zm542 170l-5-31q-13-79-51-120T468-5q-40 0-63.5 18T375 66l32 8q-1-28 15.5-43.5T467 15q39 0 61 27t32 84l6 33q-16-12-34.5-18t-38.5-6q-49 0-74.5 29.5T400 242l2 14q6 41 38 65t79 24q61 0 88-42t15-116zm-172 58l-1-7q-5-40 7-61t41-21q21 0 40 9.5t35 27.5l4 24q10 53-4.5 80.5T521 325q-29 0-47.5-20.5T450 245z" glyph-name="fiveninths" horiz-adv-x="676"/><glyph d="M311 436l-1-7q-6-43-39.5-68.5T188 335q-59 0-85 42T89 493l5 31q13 79 49 120t94 41q54 0 81-30.5t13-72.5l-50-8q14 44 2.5 67.5T238 665q-36 0-56.5-27T151 554l-6-33q16 12 34.5 18t38.5 6q48 0 74-30.5t19-78.5zm-172 50l-4-23q-9-53 4-80.5t47-27.5q30 0 48.5 20t26.5 60l1 5q7 40-5.5 62T214 524q-21 0-40.5-9.5T139 486zM116 17l491 663 23-17L140 0zm559 323l-5-27q-67-72-96.5-135.5T520 0h-55q29 99 68.5 169T641 309H511q-17 0-21.5-2t-7.5-11l-15-41h-18l15 85z" glyph-name="sixsevenths" horiz-adv-x="680"/><glyph d="M317 680l-5-27q-67-72-96.5-135.5T162 340h-55q29 99 68.5 169T283 649H153q-17 0-21.5-2t-7.5-11l-15-41H91l15 85zM55 17l491 663 23-17L79 0zm457 165q30-16 44-37t14-49q0-45-32-73T450-5q-51 0-79.5 22T342 77q0 31 22 53t67 39q-27 15-39.5 33.5T379 246q0 45 30 72t83 27q46 0 73.5-22t27.5-56q0-27-20-48t-61-37zm-88 81q0-20 9.5-33t39.5-28l17-9q29 15 43 33.5t14 42.5q0 27-14.5 41.5T492 325q-30 0-49-17t-19-45zM388 75q0-29 16-44.5T450 15q33 0 54 17.5T525 79q0 24-10 38t-39 29l-24 12q-33-15-48.5-35.5T388 75z" glyph-name="seveneighths" horiz-adv-x="636" unicode="⅞"/><glyph d="M317 680l-5-27q-67-72-96.5-135.5T162 340h-55q29 99 68.5 169T283 649H153q-17 0-21.5-2t-7.5-11l-15-41H91l15 85zM55 17l491 663 23-17L79 0zm542 170l-5-31q-13-79-51-120T443-5q-40 0-63.5 18T350 66l32 8q-1-28 15.5-43.5T442 15q39 0 61 27t32 84l6 33q-16-12-34.5-18t-38.5-6q-49 0-74.5 29.5T375 242l2 14q6 41 38 65t79 24q61 0 88-42t15-116zm-172 58l-1-7q-5-40 7-61t41-21q21 0 40 9.5t35 27.5l4 24q10 53-4.5 80.5T496 325q-29 0-47.5-20.5T425 245z" glyph-name="sevenninths" horiz-adv-x="652"/><glyph d="M240 522q30-16 44-37t14-49q0-45-32-73t-88-28q-51 0-79.5 22T70 417q0 31 22 53t67 39q-27 15-39.5 33.5T107 586q0 45 30 72t83 27q46 0 73.5-22t27.5-56q0-27-20-48t-61-37zm-88 81q0-20 9.5-33t39.5-28l17-9q29 15 43 33.5t14 42.5q0 27-14.5 41.5T220 665q-30 0-49-17t-19-45zm-36-188q0-29 16-44.5t46-15.5q33 0 54 17.5t21 46.5q0 24-10 38t-39 29l-24 12q-33-15-48.5-35.5T116 415zM105 17l491 663 23-17L129 0zm542 170l-5-31q-13-79-51-120T493-5q-40 0-63.5 18T400 66l32 8q-1-28 15.5-43.5T492 15q39 0 61 27t32 84l6 33q-16-12-34.5-18t-38.5-6q-49 0-74.5 29.5T425 242l2 14q6 41 38 65t79 24q61 0 88-42t15-116zm-172 58l-1-7q-5-40 7-61t41-21q21 0 40 9.5t35 27.5l4 24q10 53-4.5 80.5T546 325q-29 0-47.5-20.5T475 245z" glyph-name="eightninths" horiz-adv-x="701"/><glyph d="M520 350l-6-32H324l-34-194h-34l34 194H100l6 32h190l34 194h34l-34-194z" glyph-name="plus" horiz-adv-x="588" unicode="+"/><glyph d="M514 318H100l6 32h414z" glyph-name="minus" horiz-adv-x="588" unicode="−"/><glyph d="M332 332l133-162-25-23-134 163-192-163-21 25 192 163-133 162 25 23 134-163 192 164 22-25z" glyph-name="multiply" horiz-adv-x="588" unicode="×"/><glyph d="M343 494q-21 0-33 11t-12 31q0 22 14.5 37t37.5 15q21 0 33-11t12-31q0-22-14.5-37T343 494zm171-176H100l6 32h414zM271 81q-21 0-33 11t-12 31q0 22 14.5 37t37.5 15q21 0 33-11t12-31q0-22-14.5-37T271 81z" glyph-name="divide" horiz-adv-x="588" unicode="÷"/><glyph d="M532 418H118l5 32h414zm-36-200H82l6 32h414z" glyph-name="equal" horiz-adv-x="588" unicode="="/><glyph d="M500 429H120l5 32h414l-39-223h-34z" glyph-name="logicalnot" horiz-adv-x="588" unicode="¬"/><glyph d="M398 258q-28 0-50 12.5T295 323q-25 32-40.5 42T221 375q-27 0-49-21t-46-70l-29 14q29 58 57.5 84t66.5 26q27 0 49-12.5t53-51.5q25-33 40.5-43t34.5-10q28 0 49.5 21t45.5 70l30-14q-29-58-58-84t-67-26z" glyph-name="asciitilde" horiz-adv-x="588" unicode="~"/><glyph d="M150 332l339-145-15-29-374 161 5 28 431 161 8-30z" glyph-name="less" horiz-adv-x="588" unicode="&lt;"/><glyph d="M519 347l-5-28L83 158l-8 30 394 146-339 145 15 29z" glyph-name="greater" horiz-adv-x="588" unicode="&gt;"/><glyph d="M520 350l-6-32H324l-34-194h-34l34 194H100l6 32h190l34 194h34l-34-194zM458 0H44l6 32h414z" glyph-name="plusminus" horiz-adv-x="588" unicode="±"/><glyph d="M475 278l-30-11-81 366-210-367-29 12 232 402h28z" glyph-name="asciicircum" horiz-adv-x="588" unicode="^"/><glyph d="M502 250l-6-32H241L139 84l-27 17 89 117H82l6 32h138l128 168H118l5 32h256l102 134 27-17-89-117h118l-5-32H394L266 250z" glyph-name="notequal" horiz-adv-x="588" unicode="≠"/><glyph d="M415 358q-28 0-50 12.5T312 423q-25 32-40.5 42T238 475q-27 0-49-21t-46-70l-29 14q29 58 57.5 84t66.5 26q27 0 49-12.5t53-51.5q25-33 40.5-43t34.5-10q28 0 49.5 21t45.5 70l30-14q-29-58-58-84t-67-26zm-35-200q-28 0-50 12.5T277 223q-25 32-40.5 42T203 275q-27 0-49-21t-46-70l-29 14q29 58 57.5 84t66.5 26q27 0 49-12.5t53-51.5q25-33 40.5-43t34.5-10q28 0 49.5 21t45.5 70l30-14q-29-58-58-84t-67-26z" glyph-name="approxequal" horiz-adv-x="588" unicode="≈"/><glyph d="M150 332l339-145-15-29-374 161 5 28 431 161 8-30zM458 0H44l6 32h414z" glyph-name="lessequal" horiz-adv-x="588" unicode="≤"/><glyph d="M519 347l-5-28L83 158l-8 30 394 146-339 145 15 29zM458 0H44l6 32h414z" glyph-name="greaterequal" horiz-adv-x="588" unicode="≥"/><glyph d="M617 534q61 0 98.5-47T753 359q0-94-52-154t-129-60q-61 0-108.5 39.5T393 293q-45-74-93.5-110.5T199 146q-61 0-98.5 47T63 321q0 94 52 154t129 60q61 0 108.5-39.5T423 387q45 74 93.5 110.5T617 534zm-382-49q-62 0-102-46T93 323q0-59 31-93t82-34q48 0 90.5 31.5T382 324l-7 22q-24 73-58 106t-82 33zm199-129l7-22q24-73 58-106t82-33q62 0 102 46t40 116q0 59-31 93t-82 34q-48 0-90.5-31.5T434 356z" glyph-name="infinity" horiz-adv-x="782" unicode="∞"/><glyph d="M237 0L136 340l221 340h28l101-340L265 0zm129 638L170 334l86-292 196 304z" glyph-name="lozenge" horiz-adv-x="588" unicode="◊"/><glyph d="M166 317H70l6 32h117l65-299 362 630 30-12L265 0h-28z" glyph-name="radical" horiz-adv-x="588" unicode="√"/><glyph d="M-18-195q32 0 50.5 26T69-74l177 665q25 93 59 126t91 33q52 0 75.5-29.5T481 645l-51-9q14 43 5 64.5T395 722q-33 0-51.5-26.5T308 601L131-64q-25-93-59-126t-91-33q-52 0-75.5 29.5T-104-118l51 9q-14-43-5-64.5t40-21.5z" glyph-name="integral" horiz-adv-x="411" unicode="∫"/><glyph d="M495 284l-4-20q-27-136-90.5-205T239-10Q137-10 91 59T71 233l5 20q24 95 78 144.5T288 447q54 0 94-25t59-72q19 121-29.5 220.5T265 726l14 24q123-62 184-191t32-275zm-349-20l-13-50q-23-89 5-141.5T237 20q68 0 108 49t72 175l15 60q-18 55-53 84t-83 29q-54 0-92.5-39T146 264z" glyph-name="partialdiff" horiz-adv-x="563" unicode="∂"/><glyph d="M175 650l-55 5 5 25h612l-5-25-55-5q-17-2-21-8.5T646 601L529-64q-6-34-4.5-40.5T542-113l54-5-4-25H373l4 25 56 5q17 2 21 8.5T464-64l126 714H262L136-64q-6-34-4.5-40.5T149-113l54-5-4-25H-20l4 25 56 5q17 2 21 8.5T71-64l117 665q6 34 4.5 40.5T175 650z" glyph-name="product" horiz-adv-x="708" unicode="∏"/><glyph d="M139 457l-55 5 5 25h495l-5-30h-93l-55-307q-13-70-12.5-98T434 24q14 0 28.5 20.5T490 105l33-22q-24-46-47-67T426-5q-39 0-53.5 38T370 142l56 315H221L140 0H80l72 408q6 34 4.5 40.5T139 457z" glyph-name="pi" horiz-adv-x="588" unicode="π"/><glyph d="M115 37q-12-76-15-124t3-106l-72-20 110 621q6 34 4.5 40.5T128 457l-55 5 5 25h137l-55-315q-13-75 2.5-113.5T222 20q50 0 99 40t97 120l53 307h60l-59-337q-12-67-9-96.5T485 24q18 0 36 21.5t30 59.5l33-22q-22-43-49-65.5T477-5q-40 0-58 30t-12 90q-43-63-91-94T214-10q-33 0-58.5 12T115 37z" glyph-name="mu" horiz-adv-x="606" unicode="µ"/><glyph d="M-41-143l8 45 349 359-211 399 4 20h450l-24-137h-25l-13 81q-4 20-11.5 23t-37.5 3H183l192-362-3-16L20-90h314q30 0 39.5 3T393-64l41 81h25l-28-160z" glyph-name="summation" horiz-adv-x="555" unicode="∑"/><glyph d="M578 160L550 0H341l28 156q71 22 113 75.5T537 369l13 80q16 100-22.5 155.5T403 660q-84 0-139.5-52T191 462l-16-93q-14-83 8.5-135t85.5-78l-1-1L241 0H32l28 160h25l3-81q1-19 8.5-22.5T137 53h78l16 89q-74 36-105.5 106.5T111 411l6 33q21 114 96.5 180T401 690q117 0 177.5-78T619 420l-6-34q-16-90-70-153.5T400 136l-15-83h78q34 0 43 3.5T522 79l31 81z" glyph-name="Omega" horiz-adv-x="668" unicode="Ω"/><glyph d="M379 680L490 20l-4-20H-13l4 20 341 660zm-53-74L28 30h394z" glyph-name="Delta" horiz-adv-x="559" unicode="∆"/><glyph d="M280 58l14-24q-25-19-54.5-29T178-5q-61 0-86.5 36T78 137l66 374q17 92 57 135.5T308 690q57 0 88-29t31-81q0-77-69.5-170.5T150 207l-12-70q-10-57 3-84t53-27q23 0 43.5 7.5T280 58zm27 602q-41 0-65-33t-36-106l-48-271q101 82 154.5 168.5T366 583q0 40-14 58.5T307 660z" glyph-name="uni2113" horiz-adv-x="409" unicode="ℓ"/><glyph d="M140 344l149-161-15-15L60 346v24l214 178 15-15-149-161h139q56 0 102.5 2t109.5 8q42 4 64.5 5t45.5 1l-10-30 10-30q-23 0-45.5 1t-64.5 5q-63 6-109.5 8T279 344z" glyph-name="arrowleft" horiz-adv-x="651" unicode="←"/><glyph d="M350 549V410q0-56 2-102.5t8-109.5q4-42 5-64.5t1-45.5l-30 10-30-10q0 23 1 45.5t5 64.5q6 63 8 109.5t2 102.5v139L161 400l-15 15 178 214h24l178-214-15-15z" glyph-name="arrowup" horiz-adv-x="651" unicode="↑"/><glyph d="M601 371v-24L387 169l-15 15 149 161H382q-56 0-102.5-2T170 335q-42-4-64.5-5T60 329l10 30-10 30q23 0 45.5-1t64.5-5q63-6 109.5-8t102.5-2h139L372 534l15 15z" glyph-name="arrowright" horiz-adv-x="651" unicode="→"/><glyph d="M510 318l15-15L347 89h-24L145 303l15 15 161-149v139q0 56-2 102.5T311 520q-4 42-5 64.5t-1 45.5l30-10 30 10q0-23-1-45.5t-5-64.5q-6-63-8-109.5T349 308V169z" glyph-name="arrowdown" horiz-adv-x="651" unicode="↓"/><glyph d="M140 344l149-161-15-15L60 346v24l214 178 15-15-149-161h76q37 0 64 2.5t58 9.5q18 4 28 5t22 1h3q12 0 22-1t29-5q31-7 58-9.5t63-2.5h72L485 534l15 15 214-178v-24L500 169l-15 15 148 160h-70q-36 0-63-2.5t-58-9.5q-19-4-29-5t-22-1h-3q-12 0-22 1t-28 5q-31 7-58 9.5t-64 2.5z" glyph-name="uni2194" horiz-adv-x="754" unicode="↔"/><glyph d="M511 261l15-15L348 32h-24L146 246l15 15 160-148v70q0 36-2.5 63t-9.5 58q-4 19-5 29t-1 22v3q0 12 1 22t5 28q7 31 9.5 58t2.5 64v76L160 457l-15 15 178 214h24l178-214-15-15-161 149v-76q0-37 2.5-64t9.5-58q4-18 5-28t1-22v-3q0-12-1-22t-5-29q-7-31-9.5-58t-2.5-63v-72z" glyph-name="uni2195" horiz-adv-x="651" unicode="↕"/><glyph d="M543 188l-28-14-14-28q-16 16-31 32.5T429 227q-41 49-73 83.5T284 385l-98 98-8-219h-22l-25 277 17 17 277-25v-22l-219-8 98-98q40-40 74.5-72t83.5-73q32-26 48.5-41t32.5-31z" glyph-name="uni2196" horiz-adv-x="651" unicode="↖"/><glyph d="M476 484l-99-99q-40-40-71.5-74T234 228q-27-32-42-49t-31-33l-15 28-28 15q16 16 33 31t49 42q49 40 83 71.5t74 71.5l99 99-220 8v21l277 25 17-17-25-277h-21z" glyph-name="uni2197" horiz-adv-x="651" unicode="↗"/><glyph d="M505 454l25-277-17-17-277 25v21l220 8-99 99q-40 40-74 71.5T200 456q-32 27-49 42t-33 31l28 15 15 28q16-16 31-33t42-49q40-49 71.5-83t71.5-74l99-99 8 220z" glyph-name="uni2198" horiz-adv-x="651" unicode="↘"/><glyph d="M425 207v-22l-277-25-17 17 25 277h22l8-219 98 98q40 40 72 74.5t73 83.5q26 32 41 48.5t31 32.5l14-28 28-14q-16-16-32.5-31T462 458q-49-41-83.5-73T304 313l-98-98z" glyph-name="uni2199" horiz-adv-x="651" unicode="↙"/><glyph d="M796 314v-9H213q-3 0-4-1t-1-3V125q0-6 2-11t6-9q44-46 101-71T437 9q67 0 127 28t105 79h52q-51-59-126-92.5T436-10q-149 0-254.5 95T76 314q0 134 105.5 229T436 638q149 0 254.5-95T796 314zm-132 14v178q0 6-2 11.5t-7 9.5q-44 44-100.5 68T437 619q-62 0-119-24.5T217 524q-5-5-7-10t-2-12V328q0-2 1.5-3.5t3.5-1.5h447q2 0 3 1.5t1 3.5z" glyph-name="estimated" horiz-adv-x="833" unicode="℮"/><glyph d="M715-51l20-46q-51-26-119.5-41T481-153q-190 0-307.5 121.5T56 284q0 204 123.5 340T490 760q175 0 292.5-118.5T900 348q0-118-60.5-198T690 70q-50 0-81.5 26T572 168q-33-52-71-77.5T419 65q-78 0-115.5 71.5T285 316l4 22q17 91 74 147.5T495 542q40 0 70.5-17t54.5-53q2 5 13 26.5t17 33.5h40l-55-307q-12-63 2.5-94.5T694 99q72 0 123 72t51 177q0 163-108 272.5T490 730q-174 0-288-127.5T88 284q0-182 108-294.5T481-123q69 0 128.5 18T715-51zM357 346l-10-60q-14-85 7.5-138T424 95q43 0 79 32.5T576 230l35 199q-24 44-50.5 63.5T497 512q-55 0-91-42.5T357 346z" glyph-name="at.case" horiz-adv-x="976"/><glyph d="M197 638q0 22 14.5 37t37.5 15q21 0 33-11t12-31q0-22-14.5-37T242 596q-21 0-33 11t-12 31zm4-157l2 27h43l-5-26q-9-45-30.5-80T134 322q-60-48-78-86t-18-91q0-61 27-93t78-32q69 0 106.5 48T294 213l57-16q0-94-55.5-150.5T142-10Q59-10 13.5 30.5T-32 144q0 50 23 89t96 92q67 49 89 82t25 74z" glyph-name="questiondown.case" horiz-adv-x="471"/><glyph d="M84 638q0 22 14.5 37t37.5 15q21 0 33-11t12-31q0-22-14.5-37T129 596q-21 0-33 11t-12 31zM39 240q21 89 32.5 146T95 508h28q-12-66-20.5-123.5T83 237q-10-83-17-132.5T49 0h-60Q-1 56 9.5 106T39 240z" glyph-name="exclamdown.case" horiz-adv-x="261"/><glyph d="M83 321l6 42q17 120 88 228t194 201l21-26q-100-80-160-182t-79-222l-6-38q-21-130 1.5-235T236-89l-24-22Q133-30 99.5 84.5T83 321z" glyph-name="parenleft.case" horiz-adv-x="339"/><glyph d="M262 359l-6-42q-17-120-88-228T-26-112l-21 26Q53-6 113 96t79 222l6 38q21 130-1.5 235T109 769l24 22q79-81 112.5-195.5T262 359z" glyph-name="parenright.case" horiz-adv-x="339"/><glyph d="M225-72h85l-5-30h-77q-81 0-116 52t-5 133l39 106q23 64 12 100t-55 36H30l5 30h73q44 0 68 36t23 100l-1 106q-1 93 41 139t128 46h93l-5-30h-85q-55 0-81.5-33.5T262 616l2-106q1-72-24.5-115.5T162 337q43-16 54-59.5T204 170L165 64Q140-5 155-38.5T225-72z" glyph-name="braceleft.case" horiz-adv-x="407"/><glyph d="M213 189l1-106q1-93-41-139T45-102h-93l5 30h85q55 0 81.5 33.5T150 64l-2 106q-1 72 24.5 115.5T250 343q-43 16-54 59.5T208 510l39 106q25 69 10 102.5T187 752h-85l5 30h77q81 0 116-52t5-133l-39-106q-23-64-12-100t55-36h73l-5-30h-73q-44 0-68-36t-23-100z" glyph-name="braceright.case" horiz-adv-x="407"/><glyph d="M98-72h165l-5-30H33l155 883h225l-5-30H243z" glyph-name="bracketleft.case" horiz-adv-x="360"/><glyph d="M107 781h225L177-102H-48l5 30h165l145 823H102z" glyph-name="bracketright.case" horiz-adv-x="360"/><glyph d="M350 338H86l6 34h264z" glyph-name="hyphen.case" horiz-adv-x="418"/><glyph d="M550 338H86l6 34h464z" glyph-name="endash.case" horiz-adv-x="618"/><glyph d="M750 338H86l6 34h664z" glyph-name="emdash.case" horiz-adv-x="818"/><glyph d="M108 433l67 383h35l-67-383zM7-137l68 383h35L42-137z" glyph-name="brokenbar.case" horiz-adv-x="237"/><glyph d="M14-137l168 953h35L49-137z" glyph-name="bar.case" horiz-adv-x="251"/><glyph d="M117 329l160-215-16-14L38 322l4 24 301 222 12-18zm250 0l160-215-16-14-223 222 4 24 301 222 12-18z" glyph-name="guillemotleft.case" horiz-adv-x="642"/><glyph d="M572 347l-4-24-301-222-12 18 238 221-160 215 16 14zm-250 0l-4-24L17 101 5 119l238 221L83 555l16 14z" glyph-name="guillemotright.case" horiz-adv-x="642"/><glyph d="M117 329l160-215-16-14L38 322l4 24 301 222 12-18z" glyph-name="guilsinglleft.case" horiz-adv-x="392"/><glyph d="M322 347l-4-24L17 101 5 119l238 221L83 555l16 14z" glyph-name="guilsinglright.case" horiz-adv-x="392"/><glyph d="M140 417l-59 16q0 112 69.5 179.5T342 680h160l91-601q5-33 8.5-40t18.5-9l54-5-4-25H452l4 25 56 5q17 2 19.5 9T529 79l-20 131H256l-28-57q-40-79-74-138T89-86Q35-159-17-191t-120-32l12 68q88 0 161.5 75T193 160l247 490h-97q-94 0-145-58t-58-175zm311 183L271 240h234z" glyph-name="A.alt" horiz-adv-x="713"/><glyph d="M116 417l-59 16q0 112 69.5 179.5T318 680h230q82 0 126-47t32-121l-4-26q-8-52-42-87.5T571 349q60-14 88.5-56T679 190l-4-26q-12-76-69-120T463 0H163l4 25 56 5q17 2 21 8.5T254 79l101 571h-36q-94 0-145-58t-58-175zm432 233H420l-51-290h127q56 0 91 30t45 86l8 46q11 61-13 94.5T548 650zm-32-320H363L310 30h153q58 0 94.5 32t47.5 92l8 46q11 62-14.5 96T516 330z" glyph-name="B.alt" horiz-adv-x="752"/><glyph d="M116 417l-59 16q0 112 69.5 179.5T318 680h217q121 0 180-86t35-222l-13-73Q712 159 634.5 79.5T445 0H163l4 25 56 5q17 2 21 8.5T254 79l101 571h-36q-94 0-145-58t-58-175zm419 233H420L310 30h134q84 0 138 56t73 163l31 173q19 109-20 168.5T535 650z" glyph-name="D.alt" horiz-adv-x="807"/><glyph d="M116 417l-59 16q0 112 69.5 179.5T318 680h419l-28-157h-24l-9 101q-2 19-10 22.5t-39 3.5H420l-52-291h148q33 0 42 3.5t17 22.5l29 71h24l-39-224h-24l-5 71q-1 19-8.5 22.5T511 329H363L310 30h221q32 0 41.5 3.5T590 56l45 101h24L631 0H163l4 25 56 5q17 2 21 8.5T254 79l101 571h-36q-94 0-145-58t-58-175z" glyph-name="E.alt" horiz-adv-x="719"/><glyph d="M116 417l-59 16q0 112 69.5 179.5T318 680h411l-28-157h-25l-9 101q-2 19-10 22.5t-39 3.5H420l-54-302h138q33 0 42 3.5t17 22.5l29 71h25l-39-224h-25l-5 71q-1 19-8.5 22.5T499 318H361L319 79q-6-36-4.5-42t17.5-7l74-5-4-25H163l4 25 56 5q17 2 21 8.5T254 79l101 571h-36q-94 0-145-58t-58-175z" glyph-name="F.alt" horiz-adv-x="697"/><glyph d="M536 229L493-11q-18-103-65.5-157.5T307-223q-51 0-81 24t-27 65l53 15q-5-38 8.5-57t46.5-19q50 0 79 43.5T432-11l10 60q-31-29-71-44t-88-15q-116 0-166 85T92 309l12 73q24 146 102 227t196 81q106 0 155.5-60.5T578 483l-68-16q27 95-.5 144T401 660q-88 0-141.5-57T186 432l-30-173q-21-122 11-180.5T286 20q58 0 101 23t66 66l21 120q6 36 4 42t-18 7l-74 5 4 25h236l-4-25-56-5q-16-2-20-9.5T536 229z" glyph-name="G.alt" horiz-adv-x="640"/><glyph d="M116 417l-59 16q0 112 69.5 179.5T318 680h184l-5-25-55-5q-17-2-21-8.5T411 601l-43-242h328l43 242q6 34 4.5 40.5T726 650l-55 5 5 25h219l-5-25-55-5q-17-2-21-8.5T804 601L712 79q-6-34-4.5-40.5T725 30l54-5-4-25H556l4 25 56 5q17 2 21 8.5T647 79l44 250H363L319 79q-6-34-4.5-40.5T332 30l54-5-4-25H163l4 25 56 5q17 2 21 8.5T254 79l101 571h-36q-94 0-145-58t-58-175z" glyph-name="H.alt" horiz-adv-x="870"/><glyph d="M139 417l-59 16q0 112 69.5 179.5T341 680h201l-5-25-55-5q-17-2-21-8.5T451 601l-70-399q-18-101-70.5-156.5T177-10q-65 0-98.5 36T50 129l58 18q-8-63 9.5-95T177 20q56 0 89 44t50 138l79 448h-53q-94 0-145-58t-58-175z" glyph-name="J.alt" horiz-adv-x="505"/><glyph d="M116 417l-59 16q0 112 69.5 179.5T318 680h184l-4-24-56-5q-17-2-21-9.5T411 602l-53-300 307 310q23 24 26 30.5t-14 8.5l-48 5 4 24h188l-4-24-50-5q-13-1-19-4.5T711 612L503 402 647 79q15-33 20.5-40t21.5-9l49-5-4-25H606L454 352 348 246 319 79q-6-33-4.5-40t17.5-9l54-5-4-25H163l4 25 56 5q17 2 21 8.5T254 79l101 571h-36q-94 0-145-58t-58-175z" glyph-name="K.alt" horiz-adv-x="790"/><glyph d="M116 417l-59 16q0 112 69.5 179.5T318 680h184l-5-25-55-5q-17-2-21-8.5T411 601L310 30h193q32 0 41.5 3.5T562 56l46 105h25L604 0H163l4 25 56 5q17 2 21 8.5T254 79l101 571h-36q-94 0-145-58t-58-175z" glyph-name="L.alt" horiz-adv-x="658"/><glyph d="M318 680h127l121-524 302 524h164l-5-25-55-5q-17-2-21-9.5T941 601L849 79q-6-33-4.5-40t17.5-9l54-5-4-25H693l4 25 56 5q17 2 21 9.5T784 79l99 559L559 80h-42L386 647 289 79q-6-33-4.5-40t17.5-9l54-5-4-25H163l4 25 56 5q16 2 21 10.5T254 79l101 571h-36q-94 0-145-58t-58-175l-59 16q0 112 69.5 179.5T318 680z" glyph-name="M.alt" horiz-adv-x="1007"/><glyph d="M116 417l-59 16q0 112 69.5 179.5T318 680h115l233-571 87 492q6 33 4.5 40t-17.5 9l-55 5 5 25h189l-5-25-55-5q-17-2-21-8.5T788 601L682 0h-39L386 629 289 79q-6-33-4.5-40t17.5-9l54-5-4-25H163l4 25 56 5q17 2 21 8.5T254 79l101 571h-36q-94 0-145-58t-58-175z" glyph-name="N.alt" horiz-adv-x="849"/><glyph d="M116 417l-59 16q0 112 69.5 179.5T318 680h232q89 0 135-51.5T716 495l-6-33q-15-84-71-128t-148-44H356L319 79q-6-36-4.5-42t17.5-7l74-5-4-25H163l4 25 56 5q17 2 21 8.5T254 79l101 571h-36q-94 0-145-58t-58-175zm434 233H420l-58-330h129q64 0 100.5 32.5T640 452l9 53q12 74-12 109.5T550 650z" glyph-name="P.alt" horiz-adv-x="712"/><glyph d="M116 417l-59 16q0 112 69.5 179.5T318 680h219q92 0 137.5-48T707 504l-6-35q-10-63-51.5-103.5T542 313l89-234q13-33 18-40t21-9l44-5-4-25H587L476 308H359L319 79q-6-33-4.5-40t17.5-9l54-5-4-25H163l4 25 56 5q17 2 21 8.5T254 79l101 571h-36q-94 0-145-58t-58-175zm424 233H420l-55-312h119q57 0 98 36t51 95l6 35q12 67-15 106.5T540 650z" glyph-name="R.alt" horiz-adv-x="762"/><glyph d="M37-32l-59 16q0 94 60 150.5T202 191h74q-2-86 34-128.5T422 20q83 0 129 39.5T597 168q0 50-27 81.5T480 305l-63 24q-66 25-98 67t-32 103q0 85 59.5 138T508 690q110 0 161.5-61T691 483l-66-16q27 95-2.5 144.5T507 661q-74 0-115.5-38T350 517q0-48 26-78t86-53l63-24q70-27 102.5-67t32.5-99q0-90-65.5-148T419-10q-89 0-140.5 43.5T219 161h-16q-77 0-119-48.5T37-32z" glyph-name="S.alt" horiz-adv-x="724"/><glyph d="M111 417l-59 16q0 112 69.5 179.5T313 680h378l-28-157h-25l-9 101q-2 19-10 22.5t-39 3.5H458L357 79q-6-34-4.5-40.5T370 30l54-5-4-25H201l4 25 56 5q17 2 21 8.5T292 79l101 571h-79q-94 0-145-58t-58-175z" glyph-name="T.alt" horiz-adv-x="628"/><glyph d="M105 417l-59 16q0 112 69.5 179.5T307 680h184l-5-25-55-5q-17-2-21-9.5T400 601l-65-370q-19-108 12.5-159.5T465 20q86 0 140.5 54T678 231l65 370q6 33 4.5 40t-17.5 9l-55 5 5 25h189l-5-25-55-5q-17-2-21-9.5T778 601l-65-370q-21-119-84.5-180T462-10q-112 0-161.5 69T273 251l71 399h-36q-94 0-145-58t-58-175z" glyph-name="U.alt" horiz-adv-x="830"/><glyph d="M103 417l-59 16q0 112 69.5 179.5T305 680h149l-5-25-49-5q-17-2-19.5-7.5T382 611l77-545 253 507q89 178 165.5 254t173.5 76l-12-68q-88 0-162-75T721 520L462 0h-55l-94 650h-7q-94 0-145-58t-58-175z" glyph-name="V.alt" horiz-adv-x="783"/><glyph d="M103 417l-59 16q0 112 69.5 179.5T305 680h152l-5-25-49-5q-17-2-19.5-7.5T383 611l37-525 281 594h48l70-590 204 481q74 174 154.5 253t190.5 79l-12-68q-101 0-174.5-75T1038 520L817 0h-50l-70 590L416 0h-51l-46 650h-13q-94 0-145-58t-58-175z" glyph-name="W.alt" horiz-adv-x="1089"/><glyph d="M256 30l48-5-4-25H117l4 25 50 5q16 2 22.5 7.5T221 69l213 271-125 310h-3q-94 0-145-58t-58-175l-59 16q0 112 69.5 179.5T305 680h152l-5-25-49-5q-17-2-18-7.5t9-31.5l90-223 174 223q20 26 21 31.5t-14 7.5l-49 5 5 25h183l-5-25-49-5q-16-2-22.5-7.5T700 611L498 353 612 69q10-25 15-31t20-8l48-5-4-25H481l4 25 50 5q18 2 18.5 8T544 69l-96 236L263 69q-20-25-21.5-31t14.5-8z" glyph-name="X.alt" horiz-adv-x="741"/><glyph d="M460 30l54-5-4-25H291l4 25 56 5q16 2 20 7t7 22l41 231-120 360q-91-2-140-60.5T103 417l-59 16q0 112 69.5 179.5T305 680h141l-5-25-49-5q-16-2-17.5-7.5T382 611l91-283 192 283q17 26 18 31.5t-14 7.5l-49 5 5 25h180l-5-25-49-5q-17-1-23.5-6.5T703 611L484 289 447 79q-6-34-4.5-40.5T460 30z" glyph-name="Y.alt" horiz-adv-x="728"/><glyph d="M140 417l-59 16q0 112 69.5 179.5T342 680h160l91-601q5-33 8.5-40t18.5-9l54-5-4-25H452l4 25 56 5q17 2 19.5 9T529 79l-20 131H256l-28-57q-40-79-74-138T89-86Q35-159-17-191t-120-32l12 68q88 0 161.5 75T193 160l247 490h-97q-94 0-145-58t-58-175zm311 183L271 240h234zm30 172l-17 21q32 33 52.5 63.5T557 933h80q-35-45-73.5-84.5T481 772z" glyph-name="Aacute.alt" horiz-adv-x="713"/><glyph d="M140 417l-59 16q0 112 69.5 179.5T342 680h160l91-601q5-33 8.5-40t18.5-9l54-5-4-25H452l4 25 56 5q17 2 19.5 9T529 79l-20 131H256l-28-57q-40-79-74-138T89-86Q35-159-17-191t-120-32l12 68q88 0 161.5 75T193 160l247 490h-97q-94 0-145-58t-58-175zm311 183L271 240h234zm161 190l-19-18q-29 29-51.5 55T501 878q-26-25-56-50.5T377 772l-18 21q48 43 71.5 69.5T484 933h52q14-44 29-72t47-71z" glyph-name="Acircumflex.alt" horiz-adv-x="713"/><glyph d="M140 417l-59 16q0 112 69.5 179.5T342 680h160l91-601q5-33 8.5-40t18.5-9l54-5-4-25H452l4 25 56 5q17 2 19.5 9T529 79l-20 131H256l-28-57q-40-79-74-138T89-86Q35-159-17-191t-120-32l12 68q88 0 161.5 75T193 160l247 490h-97q-94 0-145-58t-58-175zm311 183L271 240h234zm-13 262q0-21-14.5-35.5T388 812q-17 0-28 10.5T349 850q0 21 14 35t35 14q19 0 29.5-10t10.5-27zm199 0q0-21-14.5-35.5T587 812q-17 0-28 10.5T548 850q0 21 14 35t35 14q19 0 29.5-10t10.5-27z" glyph-name="Adieresis.alt" horiz-adv-x="713"/><glyph d="M140 417l-59 16q0 112 69.5 179.5T342 680h160l91-601q5-33 8.5-40t18.5-9l54-5-4-25H452l4 25 56 5q17 2 19.5 9T529 79l-20 131H256l-28-57q-40-79-74-138T89-86Q35-159-17-191t-120-32l12 68q88 0 161.5 75T193 160l247 490h-97q-94 0-145-58t-58-175zm311 183L271 240h234zm53 189l-21-17q-31 37-55.5 76.5T383 933h72q5-43 15.5-74.5T504 789z" glyph-name="Agrave.alt" horiz-adv-x="713"/><glyph d="M172 210l-28-57Q104 74 70 15T5-86q-54-73-106-105t-120-32l12 68q88 0 161.5 75T109 160l252 499q-38 10-58 41t-13 68l2 11q8 43 42 69.5t83 26.5q55 0 85-33.5t22-79.5l-2-11q-7-37-34-62.5T421 657l88-578q5-33 8.5-40t18.5-9l54-5-4-25H368l4 25 56 5q17 2 19.5 9T445 79l-20 131zm223 470q30 0 50.5 19.5T471 752l4 25q5 34-10 53.5T418 850q-30 0-50-19t-25-53l-4-25q-5-33 10-53t46-20zm-28-80L187 240h234z" glyph-name="Aring.alt" horiz-adv-x="629"/><glyph d="M140 417l-59 16q0 112 69.5 179.5T342 680h160l91-601q5-33 8.5-40t18.5-9l54-5-4-25H452l4 25 56 5q17 2 19.5 9T529 79l-20 131H256l-28-57q-40-79-74-138T89-86Q35-159-17-191t-120-32l12 68q88 0 161.5 75T193 160l247 490h-97q-94 0-145-58t-58-175zm311 183L271 240h234zm112 186q-20 0-38 10.5T480 839q-20 25-31 32.5t-23 7.5q-20 0-35.5-20.5T367 801h-29q10 61 35.5 94t60.5 33q21 0 38.5-10.5T516 874q19-24 30-31.5t22-7.5q20 0 35.5 20.5T627 913h29q-10-60-35-93.5T563 786z" glyph-name="Atilde.alt" horiz-adv-x="713"/><glyph d="M140 417l-59 16q0 112 69.5 179.5T342 680h160l91-601q5-33 8.5-40t18.5-9l54-5-4-25H452l4 25 56 5q17 2 19.5 9T529 79l-20 131H256l-28-57q-40-79-74-138T89-86Q35-159-17-191t-120-32l12 68q88 0 161.5 75T193 160l247 490h-97q-94 0-145-58t-58-175zm311 183L271 240h234zm41 225q46 0 76 25t54 83l26-7q-28-81-65-117.5T491 772q-58 0-87 37t-34 117l26 7q9-60 30.5-84t65.5-24z" glyph-name="Abreve.alt" horiz-adv-x="713"/><glyph d="M140 417l-59 16q0 112 69.5 179.5T342 680h160l91-601q5-33 8.5-40t18.5-9l54-5-4-25H452l4 25 56 5q17 2 19.5 9T529 79l-20 131H256l-28-57q-40-79-74-138T89-86Q35-159-17-191t-120-32l12 68q88 0 161.5 75T193 160l247 490h-97q-94 0-145-58t-58-175zm311 183L271 240h234zm-97 255h287l-8-43H346z" glyph-name="Amacron.alt" horiz-adv-x="713"/><glyph d="M139 417l-59 16q0 112 69.5 179.5T341 680h160l91-601q5-33 8.5-40t18.5-9l54-5-4-25h-62q-60 0-99-41t-39-99q0-28 11.5-42t34.5-14q29 0 52 21t39 63l42-13q-22-49-55.5-73.5T515-223q-45 0-71.5 22.5T417-138q0 46 34 88.5T538 13l-29 197H255l-28-57q-40-79-74-138T88-86Q34-159-18-191t-120-32l12 68q88 0 161.5 75T192 160l247 490h-97q-94 0-145-58t-58-175zm311 183L270 240h234z" glyph-name="Aogonek.alt" horiz-adv-x="713"/><glyph d="M116 417l-59 16q0 112 69.5 179.5T318 680h217q121 0 180-86t35-222l-13-73Q712 159 634.5 79.5T445 0H163l4 25 56 5q17 2 21 8.5T254 79l101 571h-36q-94 0-145-58t-58-175zm419 233H420L310 30h134q84 0 138 56t73 163l31 173q19 109-20 168.5T535 650zm161 288l18-21q-48-43-71.5-69.5T589 777h-52q-14 44-29 72t-47 71l19 18q29-29 51.5-55t40.5-51q26 25 56 50.5t68 55.5z" glyph-name="Dcaron.alt" horiz-adv-x="807"/><glyph d="M116 417l-59 16q0 112 69.5 179.5T318 680h419l-28-157h-24l-9 101q-2 19-10 22.5t-39 3.5H420l-52-291h148q33 0 42 3.5t17 22.5l29 71h24l-39-224h-24l-5 71q-1 19-8.5 22.5T511 329H363L310 30h221q32 0 41.5 3.5T590 56l45 101h24L631 0H163l4 25 56 5q17 2 21 8.5T254 79l101 571h-36q-94 0-145-58t-58-175zm440 355l-17 21q32 33 52.5 63.5T632 933h80q-35-45-73.5-84.5T556 772z" glyph-name="Eacute.alt" horiz-adv-x="719"/><glyph d="M116 417l-59 16q0 112 69.5 179.5T318 680h419l-28-157h-24l-9 101q-2 19-10 22.5t-39 3.5H420l-52-291h148q33 0 42 3.5t17 22.5l29 71h24l-39-224h-24l-5 71q-1 19-8.5 22.5T511 329H363L310 30h221q32 0 41.5 3.5T590 56l45 101h24L631 0H163l4 25 56 5q17 2 21 8.5T254 79l101 571h-36q-94 0-145-58t-58-175zm571 373l-19-18q-29 29-51.5 55T576 878q-26-25-56-50.5T452 772l-18 21q48 43 71.5 69.5T559 933h52q14-44 29-72t47-71z" glyph-name="Ecircumflex.alt" horiz-adv-x="719"/><glyph d="M116 417l-59 16q0 112 69.5 179.5T318 680h419l-28-157h-24l-9 101q-2 19-10 22.5t-39 3.5H420l-52-291h148q33 0 42 3.5t17 22.5l29 71h24l-39-224h-24l-5 71q-1 19-8.5 22.5T511 329H363L310 30h221q32 0 41.5 3.5T590 56l45 101h24L631 0H163l4 25 56 5q17 2 21 8.5T254 79l101 571h-36q-94 0-145-58t-58-175zm401 445q0-21-14.5-35.5T467 812q-17 0-28 10.5T428 850q0 21 14 35t35 14q19 0 29.5-10t10.5-27zm199 0q0-21-14.5-35.5T666 812q-17 0-28 10.5T627 850q0 21 14 35t35 14q19 0 29.5-10t10.5-27z" glyph-name="Edieresis.alt" horiz-adv-x="719"/><glyph d="M116 417l-59 16q0 112 69.5 179.5T318 680h419l-28-157h-24l-9 101q-2 19-10 22.5t-39 3.5H420l-52-291h148q33 0 42 3.5t17 22.5l29 71h24l-39-224h-24l-5 71q-1 19-8.5 22.5T511 329H363L310 30h221q32 0 41.5 3.5T590 56l45 101h24L631 0H163l4 25 56 5q17 2 21 8.5T254 79l101 571h-36q-94 0-145-58t-58-175zm463 372l-21-17q-31 37-55.5 76.5T458 933h72q5-43 15.5-74.5T579 789z" glyph-name="Egrave.alt" horiz-adv-x="719"/><glyph d="M116 417l-59 16q0 112 69.5 179.5T318 680h419l-28-157h-24l-9 101q-2 19-10 22.5t-39 3.5H420l-52-291h148q33 0 42 3.5t17 22.5l29 71h24l-39-224h-24l-5 71q-1 19-8.5 22.5T511 329H363L310 30h221q32 0 41.5 3.5T590 56l45 101h24L631 0H163l4 25 56 5q17 2 21 8.5T254 79l101 571h-36q-94 0-145-58t-58-175zm451 408q46 0 76 25t54 83l26-7q-28-81-65-117.5T566 772q-58 0-87 37t-34 117l26 7q9-60 30.5-84t65.5-24z" glyph-name="Ebreve.alt" horiz-adv-x="719"/><glyph d="M116 417l-59 16q0 112 69.5 179.5T318 680h419l-28-157h-24l-9 101q-2 19-10 22.5t-39 3.5H420l-52-291h148q33 0 42 3.5t17 22.5l29 71h24l-39-224h-24l-5 71q-1 19-8.5 22.5T511 329H363L310 30h221q32 0 41.5 3.5T590 56l45 101h24L631 0H163l4 25 56 5q17 2 21 8.5T254 79l101 571h-36q-94 0-145-58t-58-175zm575 521l18-21q-48-43-71.5-69.5T584 777h-52q-14 44-29 72t-47 71l19 18q29-29 51.5-55t40.5-51q26 25 56 50.5t68 55.5z" glyph-name="Ecaron.alt" horiz-adv-x="719"/><glyph d="M116 417l-59 16q0 112 69.5 179.5T318 680h419l-28-157h-24l-9 101q-2 19-10 22.5t-39 3.5H420l-52-291h148q33 0 42 3.5t17 22.5l29 71h24l-39-224h-24l-5 71q-1 19-8.5 22.5T511 329H363L310 30h221q32 0 41.5 3.5T590 56l45 101h24L631 0H163l4 25 56 5q17 2 21 8.5T254 79l101 571h-36q-94 0-145-58t-58-175zm503 445q0-21-15-36.5T567 810q-19 0-30 10.5T526 850q0 21 15 36t36 15q19 0 30.5-10.5T619 862z" glyph-name="Edotaccent.alt" horiz-adv-x="719"/><glyph d="M116 417l-59 16q0 112 69.5 179.5T318 680h419l-28-157h-24l-9 101q-2 19-10 22.5t-39 3.5H420l-52-291h148q33 0 42 3.5t17 22.5l29 71h24l-39-224h-24l-5 71q-1 19-8.5 22.5T511 329H363L310 30h221q32 0 41.5 3.5T590 56l45 101h24L631 0H163l4 25 56 5q17 2 21 8.5T254 79l101 571h-36q-94 0-145-58t-58-175zm313 438h287l-8-43H421z" glyph-name="Emacron.alt" horiz-adv-x="719"/><glyph d="M116 417l-59 16q0 112 69.5 179.5T318 680h419l-28-157h-24l-9 101q-2 19-10 22.5t-39 3.5H420l-52-291h148q33 0 42 3.5t17 22.5l29 71h24l-39-224h-24l-5 71q-1 19-8.5 22.5T511 329H363L310 30h221q32 0 41.5 3.5T590 56l45 101h24L631 0h-63q-60 0-99-41t-39-99q0-28 11.5-42t34.5-14q29 0 52 21t39 63l42-13q-22-49-55.5-73.5T476-223q-45 0-71.5 22.5T378-138q0 40 29.5 78T484 0H163l4 25 56 5q17 2 21 8.5T254 79l101 571h-36q-94 0-145-58t-58-175z" glyph-name="Eogonek.alt" horiz-adv-x="719"/><glyph d="M536 229L493-11q-18-103-65.5-157.5T307-223q-51 0-81 24t-27 65l53 15q-5-38 8.5-57t46.5-19q50 0 79 43.5T432-11l10 60q-31-29-71-44t-88-15q-116 0-166 85T92 309l12 73q24 146 102 227t196 81q106 0 155.5-60.5T578 483l-68-16q27 95-.5 144T401 660q-88 0-141.5-57T186 432l-30-173q-21-122 11-180.5T286 20q58 0 101 23t66 66l21 120q6 36 4 42t-18 7l-74 5 4 25h236l-4-25-56-5q-16-2-20-9.5T536 229zM428 825q46 0 76 25t54 83l26-7q-28-81-65-117.5T427 772q-58 0-87 37t-34 117l26 7q9-60 30.5-84t65.5-24z" glyph-name="Gbreve.alt" horiz-adv-x="640"/><glyph d="M536 229L493-11q-18-103-65.5-157.5T307-223q-51 0-81 24t-27 65l53 15q-5-38 8.5-57t46.5-19q50 0 79 43.5T432-11l10 60q-31-29-71-44t-88-15q-116 0-166 85T92 309l12 73q24 146 102 227t196 81q106 0 155.5-60.5T578 483l-68-16q27 95-.5 144T401 660q-88 0-141.5-57T186 432l-30-173q-21-122 11-180.5T286 20q58 0 101 23t66 66l21 120q6 36 4 42t-18 7l-74 5 4 25h236l-4-25-56-5q-16-2-20-9.5T536 229zm12 561l-19-18q-29 29-51.5 55T437 878q-26-25-56-50.5T313 772l-18 21q48 43 71.5 69.5T420 933h52q14-44 29-72t47-71z" glyph-name="Gcircumflex.alt" horiz-adv-x="640"/><glyph d="M536 229L493-11q-18-103-65.5-157.5T307-223q-51 0-81 24t-27 65l53 15q-5-38 8.5-57t46.5-19q50 0 79 43.5T432-11l10 60q-31-29-71-44t-88-15q-116 0-166 85T92 309l12 73q24 146 102 227t196 81q106 0 155.5-60.5T578 483l-68-16q27 95-.5 144T401 660q-88 0-141.5-57T186 432l-30-173q-21-122 11-180.5T286 20q58 0 101 23t66 66l21 120q6 36 4 42t-18 7l-74 5 4 25h236l-4-25-56-5q-16-2-20-9.5T536 229zm-56 633q0-21-15-36.5T428 810q-19 0-30 10.5T387 850q0 21 15 36t36 15q19 0 30.5-10.5T480 862z" glyph-name="Gdotaccent.alt" horiz-adv-x="640"/><glyph d="M116 417l-59 16q0 112 69.5 179.5T318 680h184l-5-25-55-5q-17-2-21-8.5T411 601l-43-242h328l43 242q6 34 4.5 40.5T726 650l-55 5 5 25h219l-5-25-55-5q-17-2-21-8.5T804 601L712 79q-6-34-4.5-40.5T725 30l54-5-4-25H556l4 25 56 5q17 2 21 8.5T647 79l44 250H363L319 79q-6-34-4.5-40.5T332 30l54-5-4-25H163l4 25 56 5q17 2 21 8.5T254 79l101 571h-36q-94 0-145-58t-58-175zm611 373l-19-18q-29 29-51.5 55T616 878q-26-25-56-50.5T492 772l-18 21q48 43 71.5 69.5T599 933h52q14-44 29-72t47-71z" glyph-name="Hcircumflex.alt" horiz-adv-x="870"/><glyph d="M139 417l-59 16q0 112 69.5 179.5T341 680h201l-5-25-55-5q-17-2-21-8.5T451 601l-70-399q-18-101-70.5-156.5T177-10q-65 0-98.5 36T50 129l58 18q-8-63 9.5-95T177 20q56 0 89 44t50 138l79 448h-53q-94 0-145-58t-58-175zm429 373l-19-18q-29 29-51.5 55T457 878q-26-25-56-50.5T333 772l-18 21q48 43 71.5 69.5T440 933h52q14-44 29-72t47-71z" glyph-name="Jcircumflex.alt" horiz-adv-x="505"/><glyph d="M116 417l-59 16q0 112 69.5 179.5T318 680h184l-4-24-56-5q-17-2-21-9.5T411 602l-53-300 307 310q23 24 26 30.5t-14 8.5l-48 5 4 24h188l-4-24-50-5q-13-1-19-4.5T711 612L503 402 647 79q15-33 20.5-40t21.5-9l49-5-4-25H606L454 352 348 246 319 79q-6-33-4.5-40t17.5-9l54-5-4-25H163l4 25 56 5q17 2 21 8.5T254 79l101 571h-36q-94 0-145-58t-58-175zm264-655l-17 14q24 38 36.5 71T419-77h70q-21-50-44.5-85T380-238z" glyph-name="Kcommaaccent.alt" horiz-adv-x="790"/><glyph d="M116 417l-59 16q0 112 69.5 179.5T318 680h184l-5-25-55-5q-17-2-21-8.5T411 601L310 30h193q32 0 41.5 3.5T562 56l46 105h25L604 0H163l4 25 56 5q17 2 21 8.5T254 79l101 571h-36q-94 0-145-58t-58-175zm296 355l-17 21q32 33 52.5 63.5T488 933h80q-35-45-73.5-84.5T412 772z" glyph-name="Lacute.alt" horiz-adv-x="658"/><glyph d="M116 417l-59 16q0 112 69.5 179.5T318 680h184l-5-25-55-5q-17-2-21-8.5T411 601L310 30h193q32 0 41.5 3.5T562 56l46 105h25L604 0H163l4 25 56 5q17 2 21 8.5T254 79l101 571h-36q-94 0-145-58t-58-175zm450 49h-19l37 214h64q-21-61-41-113t-41-101z" glyph-name="Lcaron.alt" horiz-adv-x="658"/><glyph d="M116 417l-59 16q0 112 69.5 179.5T318 680h184l-5-25-55-5q-17-2-21-8.5T411 601L310 30h193q32 0 41.5 3.5T562 56l46 105h25L604 0H163l4 25 56 5q17 2 21 8.5T254 79l101 571h-36q-94 0-145-58t-58-175zm211-655l-17 14q24 38 36.5 71T366-77h70q-21-50-44.5-85T327-238z" glyph-name="Lcommaaccent.alt" horiz-adv-x="658"/><glyph d="M116 417l-59 16q0 112 69.5 179.5T318 680h115l233-571 87 492q6 33 4.5 40t-17.5 9l-55 5 5 25h189l-5-25-55-5q-17-2-21-8.5T788 601L682 0h-39L386 629 289 79q-6-33-4.5-40t17.5-9l54-5-4-25H163l4 25 56 5q17 2 21 8.5T254 79l101 571h-36q-94 0-145-58t-58-175zm571 369q-20 0-38 10.5T604 839q-20 25-31 32.5t-23 7.5q-20 0-35.5-20.5T491 801h-29q10 61 35.5 94t60.5 33q21 0 38.5-10.5T640 874q19-24 30-31.5t22-7.5q20 0 35.5 20.5T751 913h29q-10-60-35-93.5T687 786z" glyph-name="Ntilde.alt" horiz-adv-x="849"/><glyph d="M116 417l-59 16q0 112 69.5 179.5T318 680h115l233-571 87 492q6 33 4.5 40t-17.5 9l-55 5 5 25h189l-5-25-55-5q-17-2-21-8.5T788 601L682 0h-39L386 629 289 79q-6-33-4.5-40t17.5-9l54-5-4-25H163l4 25 56 5q17 2 21 8.5T254 79l101 571h-36q-94 0-145-58t-58-175zm489 355l-17 21q32 33 52.5 63.5T681 933h80q-35-45-73.5-84.5T605 772z" glyph-name="Nacute.alt" horiz-adv-x="849"/><glyph d="M116 417l-59 16q0 112 69.5 179.5T318 680h115l233-571 87 492q6 33 4.5 40t-17.5 9l-55 5 5 25h189l-5-25-55-5q-17-2-21-8.5T788 601L682 0h-39L386 629 289 79q-6-33-4.5-40t17.5-9l54-5-4-25H163l4 25 56 5q17 2 21 8.5T254 79l101 571h-36q-94 0-145-58t-58-175zm624 521l18-21q-48-43-71.5-69.5T633 777h-52q-14 44-29 72t-47 71l19 18q29-29 51.5-55t40.5-51q26 25 56 50.5t68 55.5z" glyph-name="Ncaron.alt" horiz-adv-x="849"/><glyph d="M116 417l-59 16q0 112 69.5 179.5T318 680h115l233-571 87 492q6 33 4.5 40t-17.5 9l-55 5 5 25h189l-5-25-55-5q-17-2-21-8.5T788 601L682 0h-39L386 629 289 79q-6-33-4.5-40t17.5-9l54-5-4-25H163l4 25 56 5q17 2 21 8.5T254 79l101 571h-36q-94 0-145-58t-58-175zm255-655l-17 14q24 38 36.5 71T410-77h70q-21-50-44.5-85T371-238z" glyph-name="Ncommaaccent.alt" horiz-adv-x="849"/><glyph d="M116 417l-59 16q0 112 69.5 179.5T318 680h115l233-571 87 492q6 33 4.5 40t-17.5 9l-55 5 5 25h189l-5-25-55-5q-17-2-21-8.5T788 601L680-11q-18-102-68.5-157T484-223q-59 0-90 33.5T367-94l53 15q-8-56 8.5-85t55.5-29q52 0 83 43.5T615-11l10 56-239 584-97-550q-6-33-4.5-40t17.5-9l54-5-4-25H163l4 25 56 5q17 2 21 8.5T254 79l101 571h-36q-94 0-145-58t-58-175z" glyph-name="Eng.alt" horiz-adv-x="849"/><glyph d="M116 417l-59 16q0 112 69.5 179.5T318 680h219q92 0 137.5-48T707 504l-6-35q-10-63-51.5-103.5T542 313l89-234q13-33 18-40t21-9l44-5-4-25H587L476 308H359L319 79q-6-33-4.5-40t17.5-9l54-5-4-25H163l4 25 56 5q17 2 21 8.5T254 79l101 571h-36q-94 0-145-58t-58-175zm424 233H420l-55-312h119q57 0 98 36t51 95l6 35q12 67-15 106.5T540 650zm-6 122l-17 21q32 33 52.5 63.5T610 933h80q-35-45-73.5-84.5T534 772z" glyph-name="Racute.alt" horiz-adv-x="762"/><glyph d="M116 417l-59 16q0 112 69.5 179.5T318 680h219q92 0 137.5-48T707 504l-6-35q-10-63-51.5-103.5T542 313l89-234q13-33 18-40t21-9l44-5-4-25H587L476 308H359L319 79q-6-33-4.5-40t17.5-9l54-5-4-25H163l4 25 56 5q17 2 21 8.5T254 79l101 571h-36q-94 0-145-58t-58-175zm424 233H420l-55-312h119q57 0 98 36t51 95l6 35q12 67-15 106.5T540 650zm129 288l18-21q-48-43-71.5-69.5T562 777h-52q-14 44-29 72t-47 71l19 18q29-29 51.5-55t40.5-51q26 25 56 50.5t68 55.5z" glyph-name="Rcaron.alt" horiz-adv-x="762"/><glyph d="M116 417l-59 16q0 112 69.5 179.5T318 680h219q92 0 137.5-48T707 504l-6-35q-10-63-51.5-103.5T542 313l89-234q13-33 18-40t21-9l44-5-4-25H587L476 308H359L319 79q-6-33-4.5-40t17.5-9l54-5-4-25H163l4 25 56 5q17 2 21 8.5T254 79l101 571h-36q-94 0-145-58t-58-175zm424 233H420l-55-312h119q57 0 98 36t51 95l6 35q12 67-15 106.5T540 650zM371-238l-17 14q24 38 36.5 71T410-77h70q-21-50-44.5-85T371-238z" glyph-name="Rcommaaccent.alt" horiz-adv-x="762"/><glyph d="M37-32l-59 16q0 94 60 150.5T202 191h74q-2-86 34-128.5T422 20q83 0 129 39.5T597 168q0 50-27 81.5T480 305l-63 24q-66 25-98 67t-32 103q0 85 59.5 138T508 690q110 0 161.5-61T691 483l-66-16q27 95-2.5 144.5T507 661q-74 0-115.5-38T350 517q0-48 26-78t86-53l63-24q70-27 102.5-67t32.5-99q0-90-65.5-148T419-10q-89 0-140.5 43.5T219 161h-16q-77 0-119-48.5T37-32zm631 970l18-21q-48-43-71.5-69.5T561 777h-52q-14 44-29 72t-47 71l19 18q29-29 51.5-55t40.5-51q26 25 56 50.5t68 55.5z" glyph-name="Scaron.alt" horiz-adv-x="724"/><glyph d="M37-32l-59 16q0 94 60 150.5T202 191h74q-2-86 34-128.5T422 20q83 0 129 39.5T597 168q0 50-27 81.5T480 305l-63 24q-66 25-98 67t-32 103q0 85 59.5 138T508 690q110 0 161.5-61T691 483l-66-16q27 95-2.5 144.5T507 661q-74 0-115.5-38T350 517q0-48 26-78t86-53l63-24q70-27 102.5-67t32.5-99q0-90-65.5-148T419-10q-89 0-140.5 43.5T219 161h-16q-77 0-119-48.5T37-32zm496 804l-17 21q32 33 52.5 63.5T609 933h80q-35-45-73.5-84.5T533 772z" glyph-name="Sacute.alt" horiz-adv-x="724"/><glyph d="M485-134q0-40-32.5-64.5T369-223q-45 0-70 20t-26 58l47 13q-3-34 9-50t41-16q27 0 44.5 18t17.5 46q0 27-12 37.5T380-86q-4 0-10-.5T354-89l-4 26 32 55q-73 8-114.5 51T219 161h-16q-77 0-119-48.5T37-32l-59 16q0 94 60 150.5T202 191h74q-2-86 34-128.5T422 20q83 0 129 39.5T597 168q0 50-27 81.5T480 305l-63 24q-66 25-98 67t-32 103q0 85 59.5 138T508 690q110 0 161.5-61T691 483l-66-16q27 95-2.5 144.5T507 661q-74 0-115.5-38T350 517q0-48 26-78t86-53l63-24q70-27 102.5-67t32.5-99q0-90-65.5-148T419-10h-6l-29-50h3q46 0 72-20t26-54z" glyph-name="Scedilla.alt" horiz-adv-x="724"/><glyph d="M37-32l-59 16q0 94 60 150.5T202 191h74q-2-86 34-128.5T422 20q83 0 129 39.5T597 168q0 50-27 81.5T480 305l-63 24q-66 25-98 67t-32 103q0 85 59.5 138T508 690q110 0 161.5-61T691 483l-66-16q27 95-2.5 144.5T507 661q-74 0-115.5-38T350 517q0-48 26-78t86-53l63-24q70-27 102.5-67t32.5-99q0-90-65.5-148T419-10q-89 0-140.5 43.5T219 161h-16q-77 0-119-48.5T37-32zm627 822l-19-18q-29 29-51.5 55T553 878q-26-25-56-50.5T429 772l-18 21q48 43 71.5 69.5T536 933h52q14-44 29-72t47-71z" glyph-name="Scircumflex.alt" horiz-adv-x="724"/><glyph d="M37-32l-59 16q0 94 60 150.5T202 191h74q-2-86 34-128.5T422 20q83 0 129 39.5T597 168q0 50-27 81.5T480 305l-63 24q-66 25-98 67t-32 103q0 85 59.5 138T508 690q110 0 161.5-61T691 483l-66-16q27 95-2.5 144.5T507 661q-74 0-115.5-38T350 517q0-48 26-78t86-53l63-24q70-27 102.5-67t32.5-99q0-90-65.5-148T419-10q-89 0-140.5 43.5T219 161h-16q-77 0-119-48.5T37-32zm286-206l-17 14q24 38 36.5 71T362-77h70q-21-50-44.5-85T323-238z" glyph-name="uni0218.alt" horiz-adv-x="724"/><glyph d="M370 30l54-5-4-25H201l4 25 56 5q17 2 21 8.5T292 79l44 246H189l6 30h146l52 295h-79q-94 0-145-58t-58-175l-59 16q0 112 69.5 179.5T313 680h378l-28-157h-25l-9 101q-2 19-10 22.5t-39 3.5H458l-52-295h146l-6-30H401L357 79q-6-34-4.5-40.5T370 30z" glyph-name="Tbar.alt" horiz-adv-x="628"/><glyph d="M111 417l-59 16q0 112 69.5 179.5T313 680h378l-28-157h-25l-9 101q-2 19-10 22.5t-39 3.5H458L357 79q-6-34-4.5-40.5T370 30l54-5-4-25H201l4 25 56 5q17 2 21 8.5T292 79l101 571h-79q-94 0-145-58t-58-175zm467 521l18-21q-48-43-71.5-69.5T471 777h-52q-14 44-29 72t-47 71l19 18q29-29 51.5-55t40.5-51q26 25 56 50.5t68 55.5z" glyph-name="Tcaron.alt" horiz-adv-x="628"/></font>
</defs>
</svg>
