<svg xmlns="http://www.w3.org/2000/svg"><defs><font horiz-adv-x="0" id="font"><font-face ascent="650" bbox="-175 -238 1252 974" cap-height="680" descent="-200" font-family="Inria Serif Light" font-style="normal" font-weight="680" x-height="487"/><glyph glyph-name=".null" horiz-adv-x="0"/><glyph glyph-name="CR" horiz-adv-x="0"/><glyph glyph-name="space" horiz-adv-x="230"/><glyph glyph-name="uni00A0" horiz-adv-x="230"/><glyph d="M134 30l55-5V0H0v25l55 5q17 2 21.5 8.5T92 79l195 601h47L531 79q11-33 15.5-40t20.5-9l55-5V0H401v25l55 5q17 2 18 9t-10 40l-43 131H168L126 79q-11-33-10-40t18-9zm161 570L178 240h234z" glyph-name="A" horiz-adv-x="622" unicode="A"/><glyph d="M107 650l-55 5v25h270q83 0 133-44.5T505 517v-26q0-51-29-88t-82-53q66-11 103.5-52.5T535 195v-26q0-76-51.5-122.5T347 0H52v25l55 5q16 2 19 8.5t3 40.5v522q0 34-3 40.5t-19 8.5zm215 0H194V360h128q56 0 85.5 31t29.5 90v46q0 59-29.5 91T322 650zm25-320H194V30h153q58 0 89 33.5t31 95.5v46q0 60-31.5 92.5T347 330z" glyph-name="B" horiz-adv-x="598" unicode="B"/><glyph d="M323-10q-116 0-179.5 81T80 299v83q0 144 64 226t176 82q103 0 158.5-59.5T519 483l-65-16q10 93-24 143t-108 50q-87 0-128-55.5T153 432V249q0-117 42-173t131-56q61 0 99 32t45 92l56-13q-20-69-72-105T323-10z" glyph-name="C" horiz-adv-x="579" unicode="C"/><glyph d="M107 650l-55 5v25h277q114 0 178.5-80T572 382v-83q0-139-64.5-219T329 0H52v25l55 5q16 2 19 8.5t3 40.5v522q0 34-3 40.5t-19 8.5zm222 0H194V30h135q87 0 128.5 53.5T499 249v183q0 112-41.5 165T329 650z" glyph-name="D" horiz-adv-x="652" unicode="D"/><glyph d="M469 56l27 101h24V0H52v25l55 5q16 2 19 8.5t3 40.5v522q0 34-3 40.5t-19 8.5l-55 5v25h454V523h-24l-27 101q-5 19-13.5 22.5T401 650H194V359h148q33 0 41 3.5t13 22.5l17 71h24V232h-24l-17 71q-5 19-13 22.5t-41 3.5H194V30h221q32 0 40.5 3.5T469 56z" glyph-name="E" horiz-adv-x="565" unicode="E"/><glyph d="M386 374l17 71h25V221h-25l-17 71q-5 19-13 22.5t-41 3.5H194V79q0-34 3-41t19-8l75-5V0H52v25l55 5q16 2 19 8.5t3 40.5v522q0 34-3 40.5t-19 8.5l-55 5v25h446V523h-25l-27 101q-5 19-13.5 22.5T392 650H194V348h138q33 0 41 3.5t13 22.5z" glyph-name="F" horiz-adv-x="537" unicode="F"/><glyph d="M455 278l-75 5v25h236v-25l-55-5q-16-2-19-8.5t-3-40.5V0h-22q-6 13-14.5 24.5T482 47q-30-29-69-43t-89-14q-114 0-179 82.5T80 299v83q0 143 66 225.5T328 690q108 0 166-59.5T537 483l-65-16q11 94-26 144t-116 50q-91 0-134-55.5T153 432V249q0-117 43-173t133-56q50 0 86 17.5T477 91v138q0 34-3 41t-19 8z" glyph-name="G" horiz-adv-x="640" unicode="G"/><glyph d="M609 30l55-5V0H445v25l55 5q16 2 19 8.5t3 40.5v250H194V79q0-34 3-40.5t19-8.5l55-5V0H52v25l55 5q16 2 19 8.5t3 40.5v522q0 34-3 40.5t-19 8.5l-55 5v25h219v-25l-55-5q-16-2-19-8.5t-3-40.5V359h328v242q0 34-3 40.5t-19 8.5l-55 5v25h219v-25l-55-5q-16-2-19-8.5t-3-40.5V79q0-34 3-40.5t19-8.5z" glyph-name="H" horiz-adv-x="716" unicode="H"/><glyph d="M107 650l-55 5v25h219v-25l-55-5q-16-2-19-8.5t-3-40.5V79q0-34 3-40.5t19-8.5l55-5V0H52v25l55 5q16 2 19 8.5t3 40.5v522q0 34-3 40.5t-19 8.5z" glyph-name="I" horiz-adv-x="323" unicode="I"/><glyph d="M248 650l-55 5v25h219v-25l-55-5q-16-2-19-8.5t-3-40.5V202q0-102-43-157T167-10q-66 0-105 35.5T17 129l50 15q2-62 26.5-93T165 20q55 0 80 44.5T270 202v399q0 34-3 40.5t-19 8.5z" glyph-name="J" horiz-adv-x="452" unicode="J"/><glyph d="M107 651l-55 5v24h219v-24l-55-5q-16-2-19-8.5t-3-40.5V290l258 322q21 26 22 31.5t-17 7.5l-49 5v24h182v-24l-49-5q-14-1-20.5-6.5T492 612L324 403 526 79q21-33 27.5-40t23.5-9l50-5V0H495L282 351l-88-109V79q0-34 3-40.5t19-8.5l55-5V0H52v25l55 5q16 2 19 8.5t3 40.5v523q0 34-3 40.5t-19 8.5z" glyph-name="K" horiz-adv-x="636" unicode="K"/><glyph d="M441 56l27 105h25V0H52v25l55 5q16 2 19 8.5t3 40.5v522q0 34-3 40.5t-19 8.5l-55 5v25h219v-25l-55-5q-16-2-19-8.5t-3-40.5V30h193q32 0 40.5 3.5T441 56z" glyph-name="L" horiz-adv-x="504" unicode="L"/><glyph d="M746 30l55-5V0H582v25l55 5q16 2 19 8.5t3 40.5v559L434 80h-42L164 638V79q0-34 3-40.5t19-8.5l55-5V0H52v25l55 5q16 2 19 8.5t3 40.5v522q0 34-3 40.5t-19 8.5l-55 5v25h164l215-526 210 526h160v-25l-55-5q-16-2-19-8.5t-3-40.5V79q0-34 3-40.5t19-8.5z" glyph-name="M" horiz-adv-x="853" unicode="M"/><glyph d="M514 650l-55 5v25h189v-25l-55-5q-16-2-19-8.5t-3-40.5V0h-45L164 630V79q0-34 3-40.5t19-8.5l55-5V0H52v25l55 5q16 2 19 8.5t3 40.5v522q0 34-3 40.5t-19 8.5l-55 5v25h154l330-574v495q0 34-3 40.5t-19 8.5z" glyph-name="N" horiz-adv-x="695" unicode="N"/><glyph d="M331 690q117 0 184-82.5T582 382v-83q0-144-67-226.5T331-10q-118 0-184.5 82.5T80 299v83q0 144 66.5 226T331 690zm178-441v183q0 116-43.5 172T331 660q-91 0-134.5-56T153 432V249q0-116 44-172.5T331 20q90 0 134 56.5T509 249z" glyph-name="O" horiz-adv-x="662" unicode="O"/><glyph d="M107 650l-55 5v25h272q90 0 141.5-47.5T517 502v-33q0-83-51.5-131T324 290H194V79q0-34 3-41t19-8l75-5V0H52v25l55 5q16 2 19 8.5t3 40.5v522q0 34-3 40.5t-19 8.5zm217 0H194V320h130q64 0 94.5 34T449 459v53q0 70-31 104t-94 34z" glyph-name="P" horiz-adv-x="558" unicode="P"/><glyph d="M369-8q24-55 64.5-78T556-109l11-64q-88 0-144.5 40T336-10h-5q-118 0-184.5 82.5T80 299v83q0 144 66.5 226T331 690q117 0 184-82.5T582 382v-83q0-131-56.5-212.5T369-8zm140 257v183q0 116-43.5 172T331 660q-91 0-134.5-56T153 432V249q0-116 44-172.5T331 20q90 0 134 56.5T509 249z" glyph-name="Q" horiz-adv-x="662" unicode="Q"/><glyph d="M107 650l-55 5v25h262q90 0 141.5-45T507 512v-35q0-64-34.5-106.5T375 314L506 79q19-34 25-40.5t23-8.5l45-5V0H472L307 308H194V79q0-34 3-40.5t19-8.5l55-5V0H52v25l55 5q16 2 19 8.5t3 40.5v522q0 34-3 40.5t-19 8.5zm207 0H194V338h120q57 0 91 37.5T439 477v35q0 64-33.5 101T314 650z" glyph-name="R" horiz-adv-x="608" unicode="R"/><glyph d="M267 20q74 0 115.5 36.5T424 159q0 59-36 95.5T274 311l-53 14q-80 21-121.5 69T58 512q0 80 54.5 129T262 690q108 0 163-58.5T464 483l-63-16q11 97-23.5 145.5T263 661q-69 0-107-35t-38-99q0-56 32.5-89T255 386l53-14q86-23 131-73.5T484 174q0-84-58-134T267-10q-95 0-150.5 46T46 173l55 18q7-85 49-128t117-43z" glyph-name="S" horiz-adv-x="540" unicode="S"/><glyph d="M14 523v157h521V523h-25l-27 101q-5 19-13.5 22.5T429 650H307V79q0-34 3-40.5t19-8.5l55-5V0H165v25l55 5q16 2 19 8.5t3 40.5v571H120q-32 0-40.5-3.5T66 624L39 523z" glyph-name="T" horiz-adv-x="549" unicode="T"/><glyph d="M501 650l-55 5v25h189v-25l-55-5q-16-2-19-8.5t-3-40.5V231q0-116-56-178.5T341-10q-109 0-167.5 67.5T115 251v350q0 34-3 40.5T93 650l-55 5v25h219v-25l-55-5q-16-2-19-8.5t-3-40.5V231q0-107 41-158.5T347 21q86 0 131 53.5T523 231v370q0 34-3 40.5t-19 8.5z" glyph-name="U" horiz-adv-x="673" unicode="U"/><glyph d="M531 611L334 0h-55L82 611q-5 14-6.5 19t-3.5 8q-3 6-6.5 8.5T49 650l-49 5v25h209v-25l-49-5q-16-2-17.5-7.5T149 611L323 66l174 545q9 26 7.5 31.5T486 650l-49 5v25h175v-25l-49-5q-15-2-19-7.5T531 611z" glyph-name="V" horiz-adv-x="612" unicode="V"/><glyph d="M682 0h-50L458 591 281 0h-51L79 611q-7 27-11 32t-19 7l-49 5v25h205v-25l-49-5q-16-2-18-7.5t5-31.5L272 86l177 594h48L671 90l128 521q7 26 5 31.5t-18 7.5l-49 5v25h174v-25l-49-5q-15-2-19-8t-10-31z" glyph-name="W" horiz-adv-x="911" unicode="W"/><glyph d="M133 30l49-5V0H3v25l49 5q16 2 22 8t21 31l165 270-158 272q-15 26-20.5 31.5T61 650l-49 5v25h214v-25l-49-5q-17-2-16.5-8t14.5-31l129-222 135 222q16 25 16 31t-16 8l-49 5v25h179v-25l-49-5q-16-2-22-8t-21-31L322 358 489 69q16-27 21.5-32.5T531 30l49-5V0H366v25l49 5q17 2 16.5 8T417 69L278 308 133 69q-16-26-16-31.5t16-7.5z" glyph-name="X" horiz-adv-x="583" unicode="X"/><glyph d="M340 30l55-5V0H176v25l55 5q16 2 19 8.5t3 40.5v211L90 611q-13 26-19 31.5T49 650l-49 5v25h214v-25l-49-5q-16-2-16-7.5t13-31.5l141-283 141 283q13 26 13 31.5t-16 7.5l-49 5v25h178v-25l-49-5q-16-1-21.5-6.5T480 611L318 290V79q0-34 3-40.5t19-8.5z" glyph-name="Y" horiz-adv-x="570" unicode="Y"/><glyph d="M429 56l27 101h25V0H41v20l354 630H157q-32 0-40.5-3.5T103 624L76 523H51v157h420v-20L117 30h258q32 0 40.5 3.5T429 56z" glyph-name="Z" horiz-adv-x="522" unicode="Z"/><glyph d="M803 157h24V0H362v25l55 5q16 2 19 8.5t3 40.5v131H211L140 79q-18-34-18.5-40.5T138 30l55-5V0H0v25l55 5q16 2 22 8.5T102 79l282 522q19 34 19.5 40.5T388 650l-55 5v25h484V523h-24l-27 101q-5 19-13.5 22.5T712 650H504V359h148q33 0 41 3.5t13 22.5l17 71h24V232h-24l-17 71q-5 19-13 22.5t-41 3.5H504V30h218q32 0 40.5 3.5T776 56zM439 632L227 240h212z" glyph-name="AE" horiz-adv-x="875" unicode="Æ"/><glyph d="M795 56l27 101h24V0H323Q209 0 144.5 80T80 299v83q0 138 64.5 218T323 680h513V523h-24l-27 101q-5 19-13.5 22.5T731 650H523V359h148q33 0 41 3.5t13 22.5l17 71h24V232h-24l-17 71q-5 19-13 22.5t-41 3.5H523V30h218q32 0 40.5 3.5T795 56zM323 30h135v620H323q-87 0-128.5-53T153 432V249q0-112 41.5-165.5T323 30z" glyph-name="OE" horiz-adv-x="894" unicode="Œ"/><glyph d="M444 56l27 105h25V0H55v25l55 5q16 2 19 8.5t3 40.5v225l-79-42-15 28 94 50v261q0 34-3 40.5t-19 8.5l-55 5v25h219v-25l-55-5q-16-2-19-8.5t-3-40.5V375l133 71 15-28-148-79V30h193q32 0 40.5 3.5T444 56z" glyph-name="Lslash" horiz-adv-x="507" unicode="Ł"/><glyph d="M582 382v-83q0-144-67-226.5T331-10q-53 0-96.5 17T159 58L120 0H80l57 85q-28 40-42.5 94.5T80 299v83q0 144 66.5 226T331 690q53 0 96-17t75-51l40 58h40l-58-85q29-40 43.5-94T582 382zm-429 50V249q0-36 4-65.5t12-52.5l309 454q-22 38-58.5 56.5T331 660q-91 0-134.5-56T153 432zm356-183v183q0 36-4 65t-12 52L185 95q21-38 57.5-56.5T331 20q90 0 134 56.5T509 249z" glyph-name="Oslash" horiz-adv-x="662" unicode="Ø"/><glyph d="M110 650l-55 5v25h277q114 0 178.5-80T575 382v-83q0-139-64.5-219T332 0H55v25l55 5q16 2 19 8.5t3 40.5v260H55v30h77v232q0 34-3 40.5t-19 8.5zm249-281v-30H197V30h135q87 0 128.5 53.5T502 249v183q0 112-41.5 165T332 650H197V369z" glyph-name="Eth" horiz-adv-x="655" unicode="Ð"/><glyph d="M107 650l-55 5v25h239v-25l-75-5q-16-1-19-8t-3-41v-65h130q90 0 141.5-47.5T517 358v-33q0-83-51.5-131T324 146H194V79q0-34 3-41t19-8l75-5V0H52v25l55 5q16 2 19 8.5t3 40.5v522q0 34-3 40.5t-19 8.5zm217-144H194V176h130q64 0 94.5 34T449 315v53q0 70-31 104t-94 34z" glyph-name="Thorn" horiz-adv-x="558" unicode="Þ"/><glyph d="M325 660q-71 0-106.5-42T183 491V0H41v25l55 5q16 2 19 8.5t3 40.5v402q0 100 53.5 154.5T325 690q62 0 119-23.5t97-64.5v-17L411 384q88-14 139-67.5T601 185v-16q0-81-48-130T426-10q-65 0-108 31.5T261 111l49 16q11-54 39.5-81T426 19q52 0 79.5 36T533 159v36q0 79-48 122t-136 43h-8v24l136 210q-28 32-66.5 49T325 660z" glyph-name="uni1E9E" horiz-adv-x="650" unicode="ẞ"/><glyph d="M452-5q-34 0-56 19.5T369 69q-34-39-76.5-59T204-10q-63 0-99 35.5T69 122q0 64 42 94.5T241 247h127v81q0 72-27.5 105.5T253 467q-63 0-87.5-34T149 326l-58 10q-6 74 38 117.5T255 497q87 0 130-42t43-127V107q0-40 10-58.5T471 30q10 0 20.5 4.5T512 48l18-24Q514 9 494.5 2T452-5zM132 127q0-50 22.5-76T221 25q40 0 76.5 21.5T368 112v105H249q-61 0-89-21.5T132 127z" glyph-name="a" horiz-adv-x="542" unicode="a"/><glyph d="M85 710l-55 5v25h137V417q29 40 67 60t85 20q87 0 133.5-63T499 254v-20q0-113-54-178.5T296-10q-39 0-72 14t-58 42q-9-7-16.5-17T129-5h-22v666q0 34-3 40.5T85 710zm230-243q-45 0-81.5-25T167 367V96q24-39 55.5-57.5T296 20q67 0 101 46.5T431 204v80q0 91-29 137t-87 46z" glyph-name="b" horiz-adv-x="571" unicode="b"/><glyph d="M269 467q-66 0-98-48t-32-145v-60q0-104 32.5-149T279 20q51 0 79.5 25t40.5 79l46-13q-16-59-60.5-90T274-10q-98 0-150.5 64T71 234v20q0 114 52 178.5T269 497q88 0 134.5-50T438 318l-57-9q10 76-18.5 117T269 467z" glyph-name="c" horiz-adv-x="502" unicode="c"/><glyph d="M486 30l55-6V0H408v76q-29-43-68-64.5T252-10q-87 0-133.5 63T72 233v20q0 113 54 178.5T275 497q39 0 71.5-14t57.5-41v219q0 34-3 40.5t-19 8.5l-55 5v25h137V79q0-34 3-40.5t19-8.5zM140 283v-80q0-91 29-137t87-46q45 0 81.5 25t66.5 75v271q-24 39-55.5 57.5T275 467q-67 0-101-46.5T140 283z" glyph-name="d" horiz-adv-x="578" unicode="d"/><glyph d="M407 124l46-13q-16-59-61.5-90T278-10q-100 0-153.5 63.5T71 234v20q0 115 52 179t146 64q85 0 137-51.5T458 306q0-14-1.5-29t-4.5-32H139v-31q0-104 33.5-149T283 20q53 0 82.5 25t41.5 79zm-12 190q0 75-32 114t-94 39q-68 0-99-46t-31-146h254q1 16 1.5 26t.5 13z" glyph-name="e" horiz-adv-x="523" unicode="e"/><glyph d="M203 30l75-5V0H44v25l55 5q16 2 19 8.5t3 40.5v351.5q0 5.5-1 9.5-1 9-4 12.5T99 457l-55 5v25h77v84q0 89 38.5 134T274 750q75 0 114-43t28-112l-57-9q9 66-12.5 100T274 720q-52 0-72.5-32T181 581v-94h165v-30H181V79q0-34 3-41t19-8z" glyph-name="f" horiz-adv-x="355" unicode="f"/><glyph d="M495-63q0-77-56-118.5T280-223q-103 0-157 36.5T70-82l52 15q-3-63 36.5-94.5T280-193q82 0 128 29.5T454-80q0 43-28.5 63.5T337 4H215q-52 0-81 24t-29 65q0 28 13 52t41 47q-41 21-63 57t-22 84q0 76 50 120t134 44h17q27 0 52-5.5t46-15.5l145 37 10-59H407q25-21 38-52t13-69q0-74-50.5-118T275 171h-17q-18 0-35 2.5t-32 6.5q-20-14-30-30.5T151 114q0-25 15.5-38T212 63h130q75 0 114-32t39-94zM258 201h17q57 0 86 33t29 99q0 67-29 100.5T275 467h-17q-58 0-87-33.5T142 333q0-66 29-99t87-33z" glyph-name="g" horiz-adv-x="546" unicode="g"/><glyph d="M521 30l55-5V0H362v25l55 5q16 2 19 8.5t3 40.5v247q0 71-23.5 104T339 463q-46 0-87-22.5T174 372V79q0-34 3-40.5t19-8.5l55-5V0H37v25l55 5q16 2 19 8.5t3 40.5v582q0 34-3 40.5T92 710l-55 5v25h137V414q37 41 81 62t93 21q73 0 112-44t39-126V79q0-34 3-40.5t19-8.5z" glyph-name="h" horiz-adv-x="607" unicode="h"/><glyph d="M195 663q0-20-13-33t-33-13q-20 0-32.5 13T104 663q0 20 13 32.5t32 12.5q20 0 33-12.5t13-32.5zM98 457l-55 5v25h137V79q0-34 3-40.5t19-8.5l55-5V0H43v25l55 5q16 2 19 8.5t3 40.5v329q0 34-3 40.5T98 457z" glyph-name="i" horiz-adv-x="294" unicode="i"/><glyph d="M188 663q0-20-13-33t-33-13q-20 0-32.5 13T97 663q0 20 13 32.5t32 12.5q20 0 33-12.5t13-32.5zM91 457l-55 5v25h137V-64q0-75-34.5-117T41-223q-51 0-81.5 28T-80-111l49 12q3-49 19.5-71.5T38-193q42 0 58.5 30T113-64v472q0 34-3 40.5T91 457z" glyph-name="j" horiz-adv-x="280" unicode="j"/><glyph d="M92 710l-55 5v25h137V210l198 208q24 26 26 31.5t-15 7.5l-49 5v25h186v-25l-49-5q-14-1-21-6t-34-33L297 294 447 69q18-27 24-32.5t22-6.5l49-5V0H419L256 251l-82-86V79q0-34 3-40.5t19-8.5l55-5V0H37v25l55 5q16 2 19 8.5t3 40.5v582q0 34-3 40.5T92 710z" glyph-name="k" horiz-adv-x="546" unicode="k"/><glyph d="M92 710l-55 5v25h137V79q0-34 3-40.5t19-8.5l55-5V0H37v25l55 5q16 2 19 8.5t3 40.5v582q0 34-3 40.5T92 710z" glyph-name="l" horiz-adv-x="288" unicode="l"/><glyph d="M517 30l55-5V0H358v25l55 5q16 2 19 8.5t3 40.5v247q0 71-22.5 104T340 463q-44 0-84-22.5T180 372V79q0-34 3-40.5t19-8.5l55-5V0H43v25l55 5q16 2 19 8.5t3 40.5v329q0 34-3 40.5T98 457l-55 5v25h133v-78q37 43 81 65.5t92 22.5q52 0 86.5-24t49.5-71q38 47 83.5 71t95.5 24q70 0 108-44t38-126V79q0-34 3-40.5t19-8.5l55-5V0H673v25l55 5q16 2 19 8.5t3 40.5v247q0 71-22.5 104T655 463q-44 0-85-23.5T492 369q2-10 2.5-20.5t.5-21.5V79q0-34 3-40.5t19-8.5z" glyph-name="m" horiz-adv-x="918" unicode="m"/><glyph d="M527 30l55-5V0H368v25l55 5q16 2 19 8.5t3 40.5v247q0 71-23.5 104T345 463q-46 0-87-22.5T180 372V79q0-34 3-40.5t19-8.5l55-5V0H43v25l55 5q16 2 19 8.5t3 40.5v329q0 34-3 40.5T98 457l-55 5v25h133v-78q38 43 83 65.5t95 22.5q73 0 112-44t39-126V79q0-34 3-40.5t19-8.5z" glyph-name="n" horiz-adv-x="613" unicode="n"/><glyph d="M277 497q97 0 152.5-65T485 254v-20q0-113-55.5-178.5T277-10q-97 0-152.5 65T69 234v20q0 114 55 178.5T277 497zm140-283v60q0 98-34.5 145.5T277 467q-71 0-105.5-47.5T137 274v-60q0-98 34.5-146T277 20q71 0 105.5 48T417 214z" glyph-name="o" horiz-adv-x="554" unicode="o"/><glyph d="M91 457l-55 6v24h133v-76q29 43 68 64.5t88 21.5q87 0 133.5-63T505 254v-20q0-113-54-178.5T302-10q-39 0-71.5 14T173 45v-179q0-34 3-41t19-8l75-5v-25H36v25l55 5q16 2 19 8.5t3 40.5v542q0 34-3 40.5T91 457zm230 10q-45 0-81.5-25T173 367V96q24-39 55.5-57.5T302 20q67 0 101 46.5T437 204v80q0 91-29 137t-87 46z" glyph-name="p" horiz-adv-x="577" unicode="p"/><glyph d="M486-183l55-5v-25H307v25l75 5q16 1 19 8t3 41V70q-29-40-67-60t-85-20q-87 0-133.5 63T72 233v20q0 113 54 178.5T275 497q39 0 72-14t58-42q10 9 18.5 20.5T442 492h22v-626q0-34 3-40.5t19-8.5zM140 283v-80q0-91 29-137t87-46q45 0 81.5 25t66.5 75v271q-24 39-55.5 57.5T275 467q-67 0-101-46.5T140 283z" glyph-name="q" horiz-adv-x="571" unicode="q"/><glyph d="M98 457l-55 5v25h133v-78q36 45 71 66.5t71 21.5q33 0 60.5-18.5T424 426l-49-34q-15 32-34 46.5T296 453q-30 0-56-19.5T180 368V79q0-34 3-41t19-8l75-5V0H43v25l55 5q16 2 19 8.5t3 40.5v329q0 34-3 40.5T98 457z" glyph-name="r" horiz-adv-x="425" unicode="r"/><glyph d="M356 113q0 36-26.5 59T244 211l-57 15q-59 16-89.5 50T67 361q0 60 43 98t116 38q86 0 130-42t35-111l-57-10q11 65-17 99t-92 34q-53 0-82-24.5T114 374q0-35 22.5-56.5T207 284l58-15q69-18 103.5-53.5T403 126q0-63-44.5-99.5T237-10q-70 0-118 32t-64 89l49 16q13-54 46.5-81T239 19q51 0 84 25t33 69z" glyph-name="s" horiz-adv-x="470" unicode="s"/><glyph d="M309 114l47-12q-16-59-45.5-85.5T234-10q-59 0-92 38t-33 101v301.5q0 5.5-1 9.5-1 9-4 12.5T87 457l-55 5v25h77v142l60 12V487h165v-30H169V129q0-57 16-83t52-26q30 0 46.5 21t25.5 73z" glyph-name="t" horiz-adv-x="382" unicode="t"/><glyph d="M503 30l55-5V0H425v78q-37-43-81-65.5T252-10q-70 0-108 44t-38 126v248q0 34-3 40.5T84 457l-55 5v25h137V161q0-71 22.5-104T261 24q44 0 84 22.5t76 68.5v293q0 34-3 41t-19 8l-75 5v25h157V79q0-34 3-40.5t19-8.5z" glyph-name="u" horiz-adv-x="595" unicode="u"/><glyph d="M430 418L282 0h-48L84 418q-10 27-14.5 32T49 457l-49 5v25h201v-25l-49-5q-16-2-17-7.5t8-31.5L270 61l126 357q9 26 7.5 31.5T386 457l-49 5v25h176v-25l-49-5q-16-2-20.5-7T430 418z" glyph-name="v" horiz-adv-x="513" unicode="v"/><glyph d="M679 418L565 0h-48L379 422 242 0h-48L81 418q-7 27-11.5 32T49 457l-49 5v25h201v-25l-49-5q-16-2-17.5-7.5T140 418l92-348 135 417h49L552 69l92 349q7 26 5.5 31.5T632 457l-49 5v25h176v-25l-49-5q-15-2-19.5-7T679 418z" glyph-name="w" horiz-adv-x="759" unicode="w"/><glyph d="M147 30l49-5V0H12v25l49 5q16 1 22 6.5T108 69l120 173-113 176q-17 27-23 32.5T70 457l-49 5v25h207v-25l-49-5q-16-2-15.5-7.5T180 418l84-131 90 131q16 23 17.5 30t-15.5 9l-49 5v25h184v-25l-49-5q-16-1-22-6.5T395 418L283 257 404 69q17-27 23-32.5t22-6.5l49-5V0H291v25l49 5q17 2 16 8t-17 31l-93 145v-4L149 69q-16-23-17.5-30t15.5-9z" glyph-name="x" horiz-adv-x="510" unicode="x"/><glyph d="M431 418L265-50q-35-97-76.5-135T77-223v60q66 0 99 26.5T233-43l15 43h-14L84 418q-9 24-13.5 30T49 456l-49 6v25h201v-25l-49-6q-16-2-17-7t8-31L270 62l126 356q9 25 7.5 30.5T386 456l-49 6v25h177v-25l-49-6q-15-2-19.5-7T431 418z" glyph-name="y" horiz-adv-x="514" unicode="y"/><glyph d="M356 56l27 81h25V0H51v25l278 432H167q-30 0-38.5-3T113 431l-27-81H61v137h337v-25L120 30h182q30 0 38.5 3T356 56z" glyph-name="z" horiz-adv-x="459" unicode="z"/><glyph d="M704 124l46-13q-16-59-61.5-90T575-10q-65 0-111 27.5T394 98q-39-53-87.5-80.5T204-10q-63 0-99 35.5T69 122q0 64 42 94.5T241 247h127v81q0 72-27.5 105.5T253 467q-63 0-87.5-34T149 326l-58 10q-6 74 38 117.5T255 497q61 0 99.5-22.5T409 406q24 44 64 67.5t93 23.5q85 0 137-51.5T755 306q0-14-1.5-29t-4.5-32H436v-31q0-104 33.5-149T580 20q53 0 82.5 25t41.5 79zm-12 190q0 75-32 114t-94 39q-68 0-99-46t-31-146h254v4q1 15 1.5 22t.5 13zM132 127q0-50 22.5-76T221 25q44 0 84 26t77 78q-5 18-8.5 39.5T368 217H249q-61 0-89-21.5T132 127z" glyph-name="ae" horiz-adv-x="820" unicode="æ"/><glyph d="M753 124l46-13q-16-59-61.5-90T624-10q-62 0-106.5 27.5T450 97q-25-52-69.5-79.5T277-10q-97 0-152.5 65T69 234v20q0 114 55 178.5T277 497q60 0 104-27t69-79q22 52 64.5 79T615 497q85 0 137-51.5T804 306q0-14-1.5-29t-4.5-32H485v-31q0-104 33.5-149T629 20q53 0 82.5 25t41.5 79zm-336 90v60q0 98-34.5 145.5T277 467q-71 0-105.5-47.5T137 274v-60q0-98 34.5-146T277 20q71 0 105.5 48T417 214zm324 100q0 75-32 114t-94 39q-68 0-99-46t-31-146h254v4q1 15 1.5 22t.5 13z" glyph-name="oe" horiz-adv-x="869" unicode="œ"/><glyph d="M113 710l-55 5v25h137V406l100 53 15-28-115-61V79q0-34 3-40.5t19-8.5l55-5V0H58v25l55 5q16 2 19 8.5t3 40.5v259L35 285l-15 28 115 61v287q0 34-3 40.5t-19 8.5z" glyph-name="lslash" horiz-adv-x="330" unicode="ł"/><glyph d="M485 254v-20q0-113-55.5-178.5T277-10q-41 0-76 12.5T139 39L109 0H69l49 63q-24 32-36.5 75.5T69 234v20q0 114 55 178.5T277 497q41 0 76-12.5t62-36.5l30 39h40l-49-63q24-32 36.5-75t12.5-95zm-348 20v-60q0-33 3.5-59.5T152 107l235 305q-17 27-44.5 41T277 467q-71 0-105.5-47.5T137 274zm280-60v60q0 31-3.5 57.5T403 380L167 75q17-27 44.5-41T277 20q71 0 105.5 48T417 214z" glyph-name="oslash" horiz-adv-x="554" unicode="ø"/><glyph d="M485 284v-20q0-130-55-202T275-10q-96 0-151 58.5T69 209v20q0 101 54 159.5T271 447q40 0 75-14t65-41q-10 69-37 126.5T304 623l-121-89-16 25 116 85q-25 24-54.5 44.5T164 726l10 24q40-19 74.5-40t62.5-45l116 85 16-25-109-80q74-69 112.5-161T485 284zm-348-35v-60q0-85 34-127t104-42q74 0 108 53.5T417 244v85.5q0 8.5-1 15.5-30 37-65 54.5T271 417q-68 0-101-41.5T137 249z" glyph-name="eth" horiz-adv-x="558" unicode="ð"/><glyph d="M89 710l-55 6v24h137V415q31 41 68.5 61.5T323 497q87 0 133.5-63T503 254v-20q0-113-54-178.5T300-10q-39 0-71.5 14T171 45v-179q0-34 3-41t19-8l75-5v-25H34v25l55 5q16 2 19 8.5t3 40.5v795q0 34-3 40.5T89 710zm230-243q-45 0-81.5-25T171 367V96q24-39 55.5-57.5T300 20q67 0 101 46.5T435 204v80q0 91-29 137t-87 46z" glyph-name="thorn" horiz-adv-x="575" unicode="þ"/><glyph d="M294 720q-62 0-87.5-32.5T181 581V0H44v25l55 5q16 2 19 8.5t3 40.5v329q0 34-3 40.5T99 457l-55 5v25h77v84q0 89 43.5 134T294 750q77 0 121-35.5t44-93.5q0-24-8.5-48T414 507q-27-41-35.5-64.5T370 396q0-24 11-41.5t60-54.5l43-32q44-33 65-69t21-78q0-60-38.5-95.5T427-10q-68 0-110 31t-56 90l49 16q11-56 38.5-82T426 19q43 0 70 24t27 65q0 27-16.5 51T453 211l-42 32q-57 43-72.5 68.5T323 370q0 22 6.5 43.5T359 475q26 48 34.5 78t8.5 62q0 54-26.5 79.5T294 720z" glyph-name="germandbls" horiz-adv-x="615" unicode="ß"/><glyph d="M98 457l-55 5v25h137V79q0-34 3-40.5t19-8.5l55-5V0H43v25l55 5q16 2 19 8.5t3 40.5v329q0 34-3 40.5T98 457z" glyph-name="dotlessi" horiz-adv-x="294" unicode="ı"/><glyph d="M91 457l-55 5v25h137V-64q0-75-34.5-117T41-223q-51 0-81.5 28T-80-111l49 12q3-49 19.5-71.5T38-193q42 0 58.5 30T113-64v472q0 34-3 40.5T91 457z" glyph-name="dotlessj" horiz-adv-x="280" unicode="ȷ"/><glyph d="M513 30l55-5V0H354v25l55 5q16 2 19 8.5t3 40.5v378H181V79q0-34 3-40.5t19-8.5l55-5V0H44v25l55 5q16 2 19 8.5t3 40.5v351.5q0 5.5-1 9.5-1 9-4 12.5T99 457l-55 5v25h77v44q0 104 51 161.5T318 750q88 0 134-45.5T486 585l-57-9q10 72-18 108t-93 36q-73 0-105-43t-32-136v-54h310V79q0-34 3-40.5t19-8.5z" glyph-name="fi" horiz-adv-x="605" unicode="ﬁ"/><glyph d="M513 30l55-5V0H354v25l55 5q16 2 19 8.5t3 40.5v378H181V79q0-34 3-40.5t19-8.5l55-5V0H44v25l55 5q16 2 19 8.5t3 40.5v351.5q0 5.5-1 9.5-1 9-4 12.5T99 457l-55 5v25h77v44q0 98 49 153.5T309 740q55 0 92-22t55-65q23 48 66.5 72.5T628 750q88 0 134-45.5T796 585l-57-9q10 72-18 108t-93 36q-73 0-105-43t-32-136v-54h310V79q0-34 3-40.5t19-8.5l55-5V0H664v25l55 5q16 2 19 8.5t3 40.5v378H491V79q0-34 3-40.5t19-8.5zM181 541v-54h250v49q0 92-28.5 133T309 710q-65 0-96.5-41.5T181 541z" glyph-name="ffi" horiz-adv-x="915" unicode="ﬃ"/><glyph d="M529 30l55-5V0H370v25l55 5q16 2 19 8.5t3 40.5v467q0 91-30.5 132.5T317 720q-70 0-103-41.5T181 551v-64h165v-30H181V79q0-34 3-40.5t19-8.5l55-5V0H44v25l55 5q16 2 19 8.5t3 40.5v351.5q0 5.5-1 9.5-1 9-4 12.5T99 457l-55 5v25h77v54q0 98 51 153.5T317 750q46 0 80.5-14t55.5-41q12 11 20.5 22t15.5 23h18V79q0-34 3-40.5t19-8.5z" glyph-name="fl" horiz-adv-x="621" unicode="ﬂ"/><glyph d="M513 30l55-5V0H354v25l55 5q16 2 19 8.5t3 40.5v378H181V79q0-34 3-40.5t19-8.5l55-5V0H44v25l55 5q16 2 19 8.5t3 40.5v351.5q0 5.5-1 9.5-1 9-4 12.5T99 457l-55 5v25h77v44q0 98 49 153.5T309 740q54 0 90.5-21.5T455 655q23 46 67 70.5T627 750q46 0 80.5-14t55.5-41q14 14 22 24t14 21h18V79q0-34 3-40.5t19-8.5l55-5V0H680v25l55 5q16 2 19 8.5t3 40.5v467q0 91-30.5 132.5T627 720q-70 0-103-41.5T491 551v-64h165v-30H491V79q0-34 3-40.5t19-8.5zM309 710q-65 0-96.5-41.5T181 541v-54h250v49q0 92-28.5 133T309 710z" glyph-name="ffl" horiz-adv-x="931" unicode="ﬄ"/><glyph d="M203 30l75-5V0H44v25l55 5q16 2 19 8.5t3 40.5v351.5q0 5.5-1 9.5-1 9-4 12.5T99 457l-55 5v25h77v54q0 97 46 153t130 56q61 0 98-30t49-90q4 3 8 7t11 13h18V487h165v-30H481V129q0-57 16-83t52-26q30 0 46.5 21t25.5 73l47-12q-16-59-45.5-85.5T546-10q-59 0-92 38t-33 101v328H181V79q0-34 3-41t19-8zm101 690q-63 0-93-41.5T181 551v-64h240v59q0 91-27.5 132.5T304 720z" glyph-name="ft" horiz-adv-x="694"/><glyph d="M203 30l55-5V0H44v25l55 5q16 2 19 8.5t3 40.5v351.5q0 5.5-1 9.5-1 9-4 12.5T99 457l-55 5v25h77v44q0 98 49 153.5T309 740q53 0 90-20.5t55-61.5q22 45 61 68.5t92 23.5q61 0 98-30t49-90q4 3 8 7t11 13h18V487h165v-30H791V129q0-57 16-83t52-26q30 0 46.5 21t25.5 73l47-12q-16-59-45.5-85.5T856-10q-59 0-92 38t-33 101v328H491V79q0-34 3-41t19-8l75-5V0H354v25l55 5q16 2 19 8.5t3 40.5v378H181V79q0-34 3-40.5t19-8.5zm411 690q-63 0-93-41.5T491 551v-64h240v59q0 91-27.5 132.5T614 720zm-305-10q-65 0-96.5-41.5T181 541v-54h250v49q0 92-28.5 133T309 710z" glyph-name="fft" horiz-adv-x="1004"/><glyph d="M203 30l75-5V0H44v25l55 5q16 2 19 8.5t3 40.5v351.5q0 5.5-1 9.5-1 9-4 12.5T99 457l-55 5v25h77v54q0 98 51 153.5T317 750q46 0 80.5-14t55.5-41q8 9 15.5 19.5T485 740h22V415q31 41 68.5 61.5T659 497q87 0 133.5-63T839 254v-20q0-113-54-178.5T636-10q-39 0-72 14t-58 42q-10-9-18.5-20.5T469-5h-22v551q0 91-30.5 132.5T317 720q-70 0-103-41.5T181 551v-64h165v-30H181V79q0-34 3-41t19-8zm452 437q-45 0-81.5-25T507 367V96q24-39 55.5-57.5T636 20q67 0 101 46.5T771 204v80q0 91-29 137t-87 46z" glyph-name="fb" horiz-adv-x="911"/><glyph d="M203 30l55-5V0H44v25l55 5q16 2 19 8.5t3 40.5v351.5q0 5.5-1 9.5-1 9-4 12.5T99 457l-55 5v25h77v44q0 98 49 153.5T309 740q54 0 90.5-21.5T455 655q23 46 67 70.5T627 750q46 0 80.5-14t55.5-41q8 9 15.5 19.5T795 740h22V415q31 41 68.5 61.5T969 497q87 0 133.5-63t46.5-180v-20q0-113-54-178.5T946-10q-39 0-72 14t-58 42q-10-9-18.5-20.5T779-5h-22v551q0 91-30.5 132.5T627 720q-70 0-103-41.5T491 551v-64h165v-30H491V79q0-34 3-41t19-8l75-5V0H354v25l55 5q16 2 19 8.5t3 40.5v378H181V79q0-34 3-40.5t19-8.5zm106 680q-65 0-96.5-41.5T181 541v-54h250v49q0 92-28.5 133T309 710zm656-243q-45 0-81.5-25T817 367V96q24-39 55.5-57.5T946 20q67 0 101 46.5t34 137.5v80q0 91-29 137t-87 46z" glyph-name="ffb" horiz-adv-x="1221"/><glyph d="M513 30l75-5V0H354v25l55 5q16 2 19 8.5t3 40.5v378H181V79q0-34 3-40.5t19-8.5l55-5V0H44v25l55 5q16 2 19 8.5t3 40.5v351.5q0 5.5-1 9.5-1 9-4 12.5T99 457l-55 5v25h77v44q0 98 49 153.5T309 740q49 0 84-17.5t55-52.5q17 40 51 60t85 20q75 0 114-43t28-112l-57-9q9 66-12.5 100T584 720q-52 0-72.5-32T491 581v-94h165v-30H491V79q0-34 3-41t19-8zM309 710q-65 0-96.5-41.5T181 541v-54h250v49q0 92-28.5 133T309 710z" glyph-name="ff" horiz-adv-x="665" unicode="ﬀ"/><glyph d="M513 30l55-5V0H354v25l55 5q16 2 19 8.5t3 40.5v378H181V79q0-34 3-40.5t19-8.5l55-5V0H44v25l55 5q16 2 19 8.5t3 40.5v351.5q0 5.5-1 9.5-1 9-4 12.5T99 457l-55 5v25h77v44q0 98 49 153.5T309 740q55 0 92.5-22.5T457 651q23 44 64 66.5t98 22.5q49 0 84-17.5t55-52.5q17 40 51 60t85 20q75 0 114-43t28-112l-57-9q9 66-12.5 100T894 720q-52 0-72.5-32T801 581v-94h165v-30H801V79q0-34 3-41t19-8l75-5V0H664v25l55 5q16 2 19 8.5t3 40.5v378H491V79q0-34 3-40.5t19-8.5zM181 541v-54h250v49q0 92-28.5 133T309 710q-65 0-96.5-41.5T181 541zm438 169q-65 0-96.5-41.5T491 541v-54h250v49q0 92-28.5 133T619 710z" glyph-name="fff" horiz-adv-x="975"/><glyph d="M529 30l55-5V0H370v25l55 5q16 2 19 8.5t3 40.5v467q0 91-30.5 132.5T317 720q-70 0-103-41.5T181 551v-64h165v-30H181V79q0-34 3-40.5t19-8.5l55-5V0H44v25l55 5q16 2 19 8.5t3 40.5v351.5q0 5.5-1 9.5-1 9-4 12.5T99 457l-55 5v25h77v54q0 98 51 153.5T317 750q46 0 80.5-14t55.5-41q8 9 15.5 19.5T485 740h22V414q37 41 81 62t93 21q73 0 112-44t39-126V79q0-34 3-40.5t19-8.5l55-5V0H695v25l55 5q16 2 19 8.5t3 40.5v247q0 71-23.5 104T672 463q-46 0-87-22.5T507 372V79q0-34 3-40.5t19-8.5z" glyph-name="fh" horiz-adv-x="940"/><glyph d="M513 30l55-5V0H354v25l55 5q16 2 19 8.5t3 40.5v378H181V79q0-34 3-40.5t19-8.5l55-5V0H44v25l55 5q16 2 19 8.5t3 40.5v351.5q0 5.5-1 9.5-1 9-4 12.5T99 457l-55 5v25h77v44q0 98 49 153.5T309 740q54 0 90.5-21.5T455 655q23 46 67 70.5T627 750q46 0 80.5-14t55.5-41q8 9 15.5 19.5T795 740h22V414q37 41 81 62t93 21q73 0 112-44t39-126V79q0-34 3-40.5t19-8.5l55-5V0h-214v25l55 5q16 2 19 8.5t3 40.5v247q0 71-23.5 104T982 463q-46 0-87-22.5T817 372V79q0-34 3-40.5t19-8.5l55-5V0H680v25l55 5q16 2 19 8.5t3 40.5v467q0 91-30.5 132.5T627 720q-70 0-103-41.5T491 551v-64h165v-30H491V79q0-34 3-40.5t19-8.5zM309 710q-65 0-96.5-41.5T181 541v-54h250v49q0 92-28.5 133T309 710z" glyph-name="ffh" horiz-adv-x="1250"/><glyph d="M318 720q-73 0-105-43t-32-136v-54h310V-64q0-75-34.5-117T359-223q-51 0-81.5 28T238-111l49 12q3-49 19.5-71.5T356-193q42 0 58.5 30T431-64v521H181V79q0-34 3-41t19-8l75-5V0H44v25l55 5q16 2 19 8.5t3 40.5v351.5q0 5.5-1 9.5-1 9-4 12.5T99 457l-55 5v25h77v44q0 104 51 161.5T318 750q88 0 134-45.5T486 585l-57-9q10 72-18 108t-93 36z" glyph-name="fj" horiz-adv-x="583"/><glyph d="M628 720q-73 0-105-43t-32-136v-54h310V-64q0-75-34.5-117T669-223q-51 0-81.5 28T548-111l49 12q3-49 19.5-71.5T666-193q42 0 58.5 30T741-64v521H491V79q0-34 3-41t19-8l75-5V0H354v25l55 5q16 2 19 8.5t3 40.5v378H181V79q0-34 3-40.5t19-8.5l55-5V0H44v25l55 5q16 2 19 8.5t3 40.5v351.5q0 5.5-1 9.5-1 9-4 12.5T99 457l-55 5v25h77v44q0 98 49 153.5T309 740q55 0 92-22t55-65q23 48 66.5 72.5T628 750q88 0 134-45.5T796 585l-57-9q10 72-18 108t-93 36zM181 541v-54h250v49q0 92-28.5 133T309 710q-65 0-96.5-41.5T181 541z" glyph-name="ffj" horiz-adv-x="893"/><glyph d="M529 30l55-5V0H370v25l55 5q16 2 19 8.5t3 40.5v467q0 91-30.5 132.5T317 720q-70 0-103-41.5T181 551v-64h165v-30H181V79q0-34 3-40.5t19-8.5l55-5V0H44v25l55 5q16 2 19 8.5t3 40.5v351.5q0 5.5-1 9.5-1 9-4 12.5T99 457l-55 5v25h77v54q0 98 51 153.5T317 750q46 0 80.5-14t55.5-41q8 9 15.5 19.5T485 740h22V213l198 205q24 26 26 31.5t-15 7.5l-49 5v25h186v-25l-49-5q-14-1-21-6t-34-33L630 294 780 69q18-27 24-32.5t22-6.5l49-5V0H752L589 251l-82-86V79q0-34 3-40.5t19-8.5z" glyph-name="fk" horiz-adv-x="879"/><glyph d="M513 30l55-5V0H354v25l55 5q16 2 19 8.5t3 40.5v378H181V79q0-34 3-40.5t19-8.5l55-5V0H44v25l55 5q16 2 19 8.5t3 40.5v351.5q0 5.5-1 9.5-1 9-4 12.5T99 457l-55 5v25h77v44q0 98 49 153.5T309 740q54 0 90.5-21.5T455 655q23 46 67 70.5T627 750q46 0 80.5-14t55.5-41q8 9 15.5 19.5T795 740h22V213l198 205q24 26 26 31.5t-15 7.5l-49 5v25h186v-25l-49-5q-14-1-21-6t-34-33L940 294l150-225q18-27 24-32.5t22-6.5l49-5V0h-123L899 251l-82-86V79q0-34 3-40.5t19-8.5l55-5V0H680v25l55 5q16 2 19 8.5t3 40.5v467q0 91-30.5 132.5T627 720q-70 0-103-41.5T491 551v-64h165v-30H491V79q0-34 3-40.5t19-8.5zM309 710q-65 0-96.5-41.5T181 541v-54h250v49q0 92-28.5 133T309 710z" glyph-name="ffk" horiz-adv-x="1189"/><glyph d="M134 30l55-5V0H0v25l55 5q17 2 21.5 8.5T92 79l195 601h47L531 79q11-33 15.5-40t20.5-9l55-5V0H401v25l55 5q17 2 18 9t-10 40l-43 131H168L126 79q-11-33-10-40t18-9zm161 570L178 240h234zm15 172l-19 19q28 35 43.5 66t27.5 76h76q-27-45-58.5-84.5T310 772z" glyph-name="Aacute" horiz-adv-x="622" unicode="Á"/><glyph d="M134 30l55-5V0H0v25l55 5q17 2 21.5 8.5T92 79l195 601h47L531 79q11-33 15.5-40t20.5-9l55-5V0H401v25l55 5q17 2 18 9t-10 40l-43 131H168L126 79q-11-33-10-40t18-9zm161 570L178 240h234zm143 191l-19-19q-34 29-61 55t-50 51q-19-22-43-46.5T203 772l-19 19q40 42 59.5 70t41.5 72h52q22-44 41.5-72t59.5-70z" glyph-name="Acircumflex" horiz-adv-x="622" unicode="Â"/><glyph d="M134 30l55-5V0H0v25l55 5q17 2 21.5 8.5T92 79l195 601h47L531 79q11-33 15.5-40t20.5-9l55-5V0H401v25l55 5q17 2 18 9t-10 40l-43 131H168L126 79q-11-33-10-40t18-9zm161 570L178 240h234zm-44 256q0-19-12-31.5T207 812q-19 0-31 12.5T164 856q0 19 12 31t31 12q19 0 31.5-12t12.5-31zm199 0q0-19-12-31.5T406 812q-19 0-31 12.5T363 856q0 19 12 31t31 12q19 0 31.5-12t12.5-31z" glyph-name="Adieresis" horiz-adv-x="622" unicode="Ä"/><glyph d="M134 30l55-5V0H0v25l55 5q17 2 21.5 8.5T92 79l195 601h47L531 79q11-33 15.5-40t20.5-9l55-5V0H401v25l55 5q17 2 18 9t-10 40l-43 131H168L126 79q-11-33-10-40t18-9zm161 570L178 240h234zm36 191l-19-19q-38 37-69.5 76.5T184 933h76q12-45 27.5-76t43.5-66z" glyph-name="Agrave" horiz-adv-x="622" unicode="À"/><glyph d="M134 30l55-5V0H0v25l55 5q17 2 21.5 8.5T92 79l188 579q-39 8-63.5 37T192 760v11q0 43 33.5 73.5T310 875q51 0 84.5-30.5T428 771v-11q0-35-24-64t-63-38L531 79q11-33 15.5-40t20.5-9l55-5V0H401v25l55 5q17 2 18 9t-10 40l-43 131H168L126 79q-11-33-10-40t18-9zm243 723v25q0 34-18 53t-49 19q-31 0-48.5-19T244 778v-25q0-34 17.5-53.5T310 680q31 0 49 19.5t18 53.5zm-82-153L178 240h234z" glyph-name="Aring" horiz-adv-x="622" unicode="Å"/><glyph d="M134 30l55-5V0H0v25l55 5q17 2 21.5 8.5T92 79l195 601h47L531 79q11-33 15.5-40t20.5-9l55-5V0H401v25l55 5q17 2 18 9t-10 40l-43 131H168L126 79q-11-33-10-40t18-9zm161 570L178 240h234zm87 186q-19 0-37.5 10.5T296 839q-24 25-36.5 32.5T236 879q-20 0-32-20.5T191 801h-29q1 61 22 94t58 33q19 0 37.5-10.5T328 875q23-25 35-32.5t23-7.5q20 0 32 20.5t13 57.5h29q-1-60-22-93.5T382 786z" glyph-name="Atilde" horiz-adv-x="622" unicode="Ã"/><glyph d="M134 30l55-5V0H0v25l55 5q17 2 21.5 8.5T92 79l195 601h47L531 79q11-33 15.5-40t20.5-9l55-5V0H401v25l55 5q17 2 18 9t-10 40l-43 131H168L126 79q-11-33-10-40t18-9zm161 570L178 240h234zm16 225q47 0 73 24.5t40 83.5l26-7q-14-80-47.5-117T311 772q-58 0-91.5 37T172 926l26 7q14-59 40-83.5t73-24.5z" glyph-name="Abreve" horiz-adv-x="622" unicode="Ă"/><glyph d="M134 30l55-5V0H0v25l55 5q17 2 21.5 8.5T92 79l195 601h47L531 79q11-33 15.5-40t20.5-9l55-5V0H401v25l55 5q17 2 18 9t-10 40l-43 131H168L126 79q-11-33-10-40t18-9zm161 570L178 240h234zM168 855h287v-43H168z" glyph-name="Amacron" horiz-adv-x="622" unicode="Ā"/><glyph d="M578-112l44-13q-13-47-45.5-72.5T499-223q-48 0-77 26t-29 70q0 47 25 84t68 55l-64 198H168L126 79q-11-33-10-40t18-9l55-5V0H0v25l55 5q17 2 21.5 8.5T92 79l195 601h47L531 79q11-33 15.5-40t20.5-9l55-5V0h-63q-53 0-83.5-34T445-127q0-34 14.5-51.5T503-196q29 0 47.5 21t27.5 63zM295 600L178 240h234z" glyph-name="Aogonek" horiz-adv-x="622" unicode="Ą"/><glyph d="M431-141q0-38-28.5-60T326-223q-44 0-71 20t-34 58l44 13q4-34 18-50t41-16q26 0 40 15t14 42q0 28-15 41.5T317-86q-6 0-13.5-.5T292-88l-9 25 22 54Q197-3 138.5 77T80 299v83q0 144 64 226t176 82q103 0 158.5-59.5T519 483l-65-16q10 93-24 143t-108 50q-87 0-128-55.5T153 432V249q0-117 42-173t131-56q61 0 99 32t45 92l56-13q-19-66-67-102T337-10l-21-50h4q51 0 81-21.5t30-59.5z" glyph-name="Ccedilla" horiz-adv-x="579" unicode="Ç"/><glyph d="M323-10q-116 0-179.5 81T80 299v83q0 144 64 226t176 82q103 0 158.5-59.5T519 483l-65-16q10 93-24 143t-108 50q-87 0-128-55.5T153 432V249q0-117 42-173t131-56q61 0 99 32t45 92l56-13q-20-69-72-105T323-10zm-8 782l-19 19q28 35 43.5 66t27.5 76h76q-27-45-58.5-84.5T315 772z" glyph-name="Cacute" horiz-adv-x="579" unicode="Ć"/><glyph d="M323-10q-116 0-179.5 81T80 299v83q0 144 64 226t176 82q103 0 158.5-59.5T519 483l-65-16q10 93-24 143t-108 50q-87 0-128-55.5T153 432V249q0-117 42-173t131-56q61 0 99 32t45 92l56-13q-20-69-72-105T323-10zm102 948l19-19q-40-42-59.5-70T343 777h-52q-22 44-41.5 72T190 919l19 19q34-29 61-55t50-51q22 25 47 50.5t58 55.5z" glyph-name="Ccaron" horiz-adv-x="579" unicode="Č"/><glyph d="M323-10q-116 0-179.5 81T80 299v83q0 144 64 226t176 82q103 0 158.5-59.5T519 483l-65-16q10 93-24 143t-108 50q-87 0-128-55.5T153 432V249q0-117 42-173t131-56q61 0 99 32t45 92l56-13q-20-69-72-105T323-10zm120 801l-19-19q-34 29-61 55t-50 51q-19-22-43-46.5T208 772l-19 19q40 42 59.5 70t41.5 72h52q22-44 41.5-72t59.5-70z" glyph-name="Ccircumflex" horiz-adv-x="579" unicode="Ĉ"/><glyph d="M323-10q-116 0-179.5 81T80 299v83q0 144 64 226t176 82q103 0 158.5-59.5T519 483l-65-16q10 93-24 143t-108 50q-87 0-128-55.5T153 432V249q0-117 42-173t131-56q61 0 99 32t45 92l56-13q-20-69-72-105T323-10zm39 866q0-20-13-33t-33-13q-20 0-32.5 13T271 856q0 20 13 32.5t32 12.5q20 0 33-12.5t13-32.5z" glyph-name="Cdotaccent" horiz-adv-x="579" unicode="Ċ"/><glyph d="M107 650l-55 5v25h277q114 0 178.5-80T572 382v-83q0-139-64.5-219T329 0H52v25l55 5q16 2 19 8.5t3 40.5v522q0 34-3 40.5t-19 8.5zm222 0H194V30h135q87 0 128.5 53.5T499 249v183q0 112-41.5 165T329 650zm92 288l19-19q-40-42-59.5-70T339 777h-52q-22 44-41.5 72T186 919l19 19q34-29 61-55t50-51q22 25 47 50.5t58 55.5z" glyph-name="Dcaron" horiz-adv-x="652" unicode="Ď"/><glyph d="M110 650l-55 5v25h277q114 0 178.5-80T575 382v-83q0-139-64.5-219T332 0H55v25l55 5q16 2 19 8.5t3 40.5v260H55v30h77v232q0 34-3 40.5t-19 8.5zm249-281v-30H197V30h135q87 0 128.5 53.5T502 249v183q0 112-41.5 165T332 650H197V369z" glyph-name="Dcroat" horiz-adv-x="655" unicode="Đ"/><glyph d="M469 56l27 101h24V0H52v25l55 5q16 2 19 8.5t3 40.5v522q0 34-3 40.5t-19 8.5l-55 5v25h454V523h-24l-27 101q-5 19-13.5 22.5T401 650H194V359h148q33 0 41 3.5t13 22.5l17 71h24V232h-24l-17 71q-5 19-13 22.5t-41 3.5H194V30h221q32 0 40.5 3.5T469 56zM301 772l-19 19q28 35 43.5 66t27.5 76h76q-27-45-58.5-84.5T301 772z" glyph-name="Eacute" horiz-adv-x="565" unicode="É"/><glyph d="M469 56l27 101h24V0H52v25l55 5q16 2 19 8.5t3 40.5v522q0 34-3 40.5t-19 8.5l-55 5v25h454V523h-24l-27 101q-5 19-13.5 22.5T401 650H194V359h148q33 0 41 3.5t13 22.5l17 71h24V232h-24l-17 71q-5 19-13 22.5t-41 3.5H194V30h221q32 0 40.5 3.5T469 56zm-39 735l-19-19q-34 29-61 55t-50 51q-19-22-43-46.5T195 772l-19 19q40 42 59.5 70t41.5 72h52q22-44 41.5-72t59.5-70z" glyph-name="Ecircumflex" horiz-adv-x="565" unicode="Ê"/><glyph d="M469 56l27 101h24V0H52v25l55 5q16 2 19 8.5t3 40.5v522q0 34-3 40.5t-19 8.5l-55 5v25h454V523h-24l-27 101q-5 19-13.5 22.5T401 650H194V359h148q33 0 41 3.5t13 22.5l17 71h24V232h-24l-17 71q-5 19-13 22.5t-41 3.5H194V30h221q32 0 40.5 3.5T469 56zM246 856q0-19-12-31.5T202 812q-19 0-31 12.5T159 856q0 19 12 31t31 12q19 0 31.5-12t12.5-31zm199 0q0-19-12-31.5T401 812q-19 0-31 12.5T358 856q0 19 12 31t31 12q19 0 31.5-12t12.5-31z" glyph-name="Edieresis" horiz-adv-x="565" unicode="Ë"/><glyph d="M469 56l27 101h24V0H52v25l55 5q16 2 19 8.5t3 40.5v522q0 34-3 40.5t-19 8.5l-55 5v25h454V523h-24l-27 101q-5 19-13.5 22.5T401 650H194V359h148q33 0 41 3.5t13 22.5l17 71h24V232h-24l-17 71q-5 19-13 22.5t-41 3.5H194V30h221q32 0 40.5 3.5T469 56zM322 791l-19-19q-38 37-69.5 76.5T175 933h76q12-45 27.5-76t43.5-66z" glyph-name="Egrave" horiz-adv-x="565" unicode="È"/><glyph d="M469 56l27 101h24V0H52v25l55 5q16 2 19 8.5t3 40.5v522q0 34-3 40.5t-19 8.5l-55 5v25h454V523h-24l-27 101q-5 19-13.5 22.5T401 650H194V359h148q33 0 41 3.5t13 22.5l17 71h24V232h-24l-17 71q-5 19-13 22.5t-41 3.5H194V30h221q32 0 40.5 3.5T469 56zM302 825q47 0 73 24.5t40 83.5l26-7q-14-80-47.5-117T302 772q-58 0-91.5 37T163 926l26 7q14-59 40-83.5t73-24.5z" glyph-name="Ebreve" horiz-adv-x="565" unicode="Ĕ"/><glyph d="M469 56l27 101h24V0H52v25l55 5q16 2 19 8.5t3 40.5v522q0 34-3 40.5t-19 8.5l-55 5v25h454V523h-24l-27 101q-5 19-13.5 22.5T401 650H194V359h148q33 0 41 3.5t13 22.5l17 71h24V232h-24l-17 71q-5 19-13 22.5t-41 3.5H194V30h221q32 0 40.5 3.5T469 56zm-59 882l19-19q-40-42-59.5-70T328 777h-52q-22 44-41.5 72T175 919l19 19q34-29 61-55t50-51q22 25 47 50.5t58 55.5z" glyph-name="Ecaron" horiz-adv-x="565" unicode="Ě"/><glyph d="M469 56l27 101h24V0H52v25l55 5q16 2 19 8.5t3 40.5v522q0 34-3 40.5t-19 8.5l-55 5v25h454V523h-24l-27 101q-5 19-13.5 22.5T401 650H194V359h148q33 0 41 3.5t13 22.5l17 71h24V232h-24l-17 71q-5 19-13 22.5t-41 3.5H194V30h221q32 0 40.5 3.5T469 56zM348 856q0-20-13-33t-33-13q-20 0-32.5 13T257 856q0 20 13 32.5t32 12.5q20 0 33-12.5t13-32.5z" glyph-name="Edotaccent" horiz-adv-x="565" unicode="Ė"/><glyph d="M469 56l27 101h24V0H52v25l55 5q16 2 19 8.5t3 40.5v522q0 34-3 40.5t-19 8.5l-55 5v25h454V523h-24l-27 101q-5 19-13.5 22.5T401 650H194V359h148q33 0 41 3.5t13 22.5l17 71h24V232h-24l-17 71q-5 19-13 22.5t-41 3.5H194V30h221q32 0 40.5 3.5T469 56zM159 855h287v-43H159z" glyph-name="Emacron" horiz-adv-x="565" unicode="Ē"/><glyph d="M476-112l44-13q-13-47-45.5-72.5T397-223q-48 0-77 26t-29 70q0 42 22.5 75.5T375 0H52v25l55 5q16 2 19 8.5t3 40.5v522q0 34-3 40.5t-19 8.5l-55 5v25h454V523h-24l-27 101q-5 19-13.5 22.5T401 650H194V359h148q33 0 41 3.5t13 22.5l17 71h24V232h-24l-17 71q-5 19-13 22.5t-41 3.5H194V30h221q32 0 40.5 3.5T469 56l27 101h24V0h-63q-53 0-83.5-34T343-127q0-34 14.5-51.5T401-196q29 0 47.5 21t27.5 63z" glyph-name="Eogonek" horiz-adv-x="565" unicode="Ę"/><glyph d="M455 278l-75 5v25h236v-25l-55-5q-16-2-19-8.5t-3-40.5V0h-22q-6 13-14.5 24.5T482 47q-30-29-69-43t-89-14q-114 0-179 82.5T80 299v83q0 143 66 225.5T328 690q108 0 166-59.5T537 483l-65-16q11 94-26 144t-116 50q-91 0-134-55.5T153 432V249q0-117 43-173t133-56q50 0 86 17.5T477 91v138q0 34-3 41t-19 8zM323 825q47 0 73 24.5t40 83.5l26-7q-14-80-47.5-117T323 772q-58 0-91.5 37T184 926l26 7q14-59 40-83.5t73-24.5z" glyph-name="Gbreve" horiz-adv-x="640" unicode="Ğ"/><glyph d="M455 278l-75 5v25h236v-25l-55-5q-16-2-19-8.5t-3-40.5V0h-22q-6 13-14.5 24.5T482 47q-30-29-69-43t-89-14q-114 0-179 82.5T80 299v83q0 143 66 225.5T328 690q108 0 166-59.5T537 483l-65-16q11 94-26 144t-116 50q-91 0-134-55.5T153 432V249q0-117 43-173t133-56q50 0 86 17.5T477 91v138q0 34-3 41t-19 8zm-5 513l-19-19q-34 29-61 55t-50 51q-19-22-43-46.5T215 772l-19 19q40 42 59.5 70t41.5 72h52q22-44 41.5-72t59.5-70z" glyph-name="Gcircumflex" horiz-adv-x="640" unicode="Ĝ"/><glyph d="M455 278l-75 5v25h236v-25l-55-5q-16-2-19-8.5t-3-40.5V0h-22q-6 13-14.5 24.5T482 47q-30-29-69-43t-89-14q-114 0-179 82.5T80 299v83q0 143 66 225.5T328 690q108 0 166-59.5T537 483l-65-16q11 94-26 144t-116 50q-91 0-134-55.5T153 432V249q0-117 43-173t133-56q50 0 86 17.5T477 91v138q0 34-3 41t-19 8zM294-238l-20 14q17 37 24 70.5t7 76.5h66q-14-55-31-89.5T294-238z" glyph-name="Gcommaaccent" horiz-adv-x="640" unicode="Ģ"/><glyph d="M455 278l-75 5v25h236v-25l-55-5q-16-2-19-8.5t-3-40.5V0h-22q-6 13-14.5 24.5T482 47q-30-29-69-43t-89-14q-114 0-179 82.5T80 299v83q0 143 66 225.5T328 690q108 0 166-59.5T537 483l-65-16q11 94-26 144t-116 50q-91 0-134-55.5T153 432V249q0-117 43-173t133-56q50 0 86 17.5T477 91v138q0 34-3 41t-19 8zm-86 578q0-20-13-33t-33-13q-20 0-32.5 13T278 856q0 20 13 32.5t32 12.5q20 0 33-12.5t13-32.5z" glyph-name="Gdotaccent" horiz-adv-x="640" unicode="Ġ"/><glyph d="M219 30l55-5V0H55v25l55 5q16 2 19 8.5t3 40.5v415H55v29h77v78q0 34-3 40.5t-19 8.5l-55 5v25h219v-25l-55-5q-16-2-19-8.5t-3-40.5v-78h328v78q0 34-3 40.5t-19 8.5l-55 5v25h219v-25l-55-5q-16-2-19-8.5t-3-40.5v-78h77v-29h-77V79q0-34 3-40.5t19-8.5l55-5V0H448v25l55 5q16 2 19 8.5t3 40.5v250H197V79q0-34 3-40.5t19-8.5zm-22 464V359h328v135z" glyph-name="Hbar" horiz-adv-x="722" unicode="Ħ"/><glyph d="M609 30l55-5V0H445v25l55 5q16 2 19 8.5t3 40.5v250H194V79q0-34 3-40.5t19-8.5l55-5V0H52v25l55 5q16 2 19 8.5t3 40.5v522q0 34-3 40.5t-19 8.5l-55 5v25h219v-25l-55-5q-16-2-19-8.5t-3-40.5V359h328v242q0 34-3 40.5t-19 8.5l-55 5v25h219v-25l-55-5q-16-2-19-8.5t-3-40.5V79q0-34 3-40.5t19-8.5zM485 791l-19-19q-34 29-61 55t-50 51q-19-22-43-46.5T250 772l-19 19q40 42 59.5 70t41.5 72h52q22-44 41.5-72t59.5-70z" glyph-name="Hcircumflex" horiz-adv-x="716" unicode="Ĥ"/><glyph d="M107 650l-55 5v25h219v-25l-55-5q-16-2-19-8.5t-3-40.5V79q0-34 3-40.5t19-8.5l55-5V0H52v25l55 5q16 2 19 8.5t3 40.5v522q0 34-3 40.5t-19 8.5zm54 122l-19 19q28 35 43.5 66t27.5 76h76q-27-45-58.5-84.5T161 772z" glyph-name="Iacute" horiz-adv-x="323" unicode="Í"/><glyph d="M107 650l-55 5v25h219v-25l-55-5q-16-2-19-8.5t-3-40.5V79q0-34 3-40.5t19-8.5l55-5V0H52v25l55 5q16 2 19 8.5t3 40.5v522q0 34-3 40.5t-19 8.5zm182 141l-19-19q-34 29-61 55t-50 51q-19-22-43-46.5T54 772l-19 19q40 42 59.5 70t41.5 72h52q22-44 41.5-72t59.5-70z" glyph-name="Icircumflex" horiz-adv-x="323" unicode="Î"/><glyph d="M107 650l-55 5v25h219v-25l-55-5q-16-2-19-8.5t-3-40.5V79q0-34 3-40.5t19-8.5l55-5V0H52v25l55 5q16 2 19 8.5t3 40.5v522q0 34-3 40.5t-19 8.5zm-1 206q0-19-12-31.5T62 812q-19 0-31 12.5T19 856q0 19 12 31t31 12q19 0 31.5-12t12.5-31zm199 0q0-19-12-31.5T261 812q-19 0-31 12.5T218 856q0 19 12 31t31 12q19 0 31.5-12t12.5-31z" glyph-name="Idieresis" horiz-adv-x="323" unicode="Ï"/><glyph d="M107 650l-55 5v25h219v-25l-55-5q-16-2-19-8.5t-3-40.5V79q0-34 3-40.5t19-8.5l55-5V0H52v25l55 5q16 2 19 8.5t3 40.5v522q0 34-3 40.5t-19 8.5zm75 141l-19-19q-38 37-69.5 76.5T35 933h76q12-45 27.5-76t43.5-66z" glyph-name="Igrave" horiz-adv-x="323" unicode="Ì"/><glyph d="M107 650l-55 5v25h219v-25l-55-5q-16-2-19-8.5t-3-40.5V79q0-34 3-40.5t19-8.5l55-5V0H52v25l55 5q16 2 19 8.5t3 40.5v522q0 34-3 40.5t-19 8.5zm55 175q47 0 73 24.5t40 83.5l26-7q-14-80-47.5-117T162 772q-58 0-91.5 37T23 926l26 7q14-59 40-83.5t73-24.5z" glyph-name="Ibreve" horiz-adv-x="323" unicode="Ĭ"/><glyph d="M107 650l-55 5v25h219v-25l-55-5q-16-2-19-8.5t-3-40.5V79q0-34 3-40.5t19-8.5l55-5V0H52v25l55 5q16 2 19 8.5t3 40.5v522q0 34-3 40.5t-19 8.5zm101 206q0-20-13-33t-33-13q-20 0-32.5 13T117 856q0 20 13 32.5t32 12.5q20 0 33-12.5t13-32.5z" glyph-name="Idotaccent" horiz-adv-x="323" unicode="İ"/><glyph d="M107 650l-55 5v25h219v-25l-55-5q-16-2-19-8.5t-3-40.5V79q0-34 3-40.5t19-8.5l55-5V0H52v25l55 5q16 2 19 8.5t3 40.5v522q0 34-3 40.5t-19 8.5zM19 855h287v-43H19z" glyph-name="Imacron" horiz-adv-x="323" unicode="Ī"/><glyph d="M103 650l-55 5v25h219v-25l-55-5q-16-2-19-8.5t-3-40.5V79q0-34 3-40.5t19-8.5l55-5V0h-63q-53 0-83.5-34T90-127q0-34 14.5-51.5T148-196q29 0 47.5 21t27.5 63l44-13q-13-47-45.5-72.5T144-223q-48 0-77 26t-29 70q0 45 23 81t64 55v592q0 34-3 40.5t-19 8.5z" glyph-name="Iogonek" horiz-adv-x="319" unicode="Į"/><glyph d="M107 650l-55 5v25h219v-25l-55-5q-16-2-19-8.5t-3-40.5V79q0-34 3-40.5t19-8.5l55-5V0H52v25l55 5q16 2 19 8.5t3 40.5v522q0 34-3 40.5t-19 8.5zm126 136q-19 0-37.5 10.5T147 839q-24 25-36.5 32.5T87 879q-20 0-32-20.5T42 801H13q1 61 22 94t58 33q19 0 37.5-10.5T179 875q23-25 35-32.5t23-7.5q20 0 32 20.5t13 57.5h29q-1-60-22-93.5T233 786z" glyph-name="Itilde" horiz-adv-x="323" unicode="Ĩ"/><glyph d="M248 650l-55 5v25h219v-25l-55-5q-16-2-19-8.5t-3-40.5V202q0-102-43-157T167-10q-66 0-105 35.5T17 129l50 15q2-62 26.5-93T165 20q55 0 80 44.5T270 202v399q0 34-3 40.5t-19 8.5zm181 141l-19-19q-34 29-61 55t-50 51q-19-22-43-46.5T194 772l-19 19q40 42 59.5 70t41.5 72h52q22-44 41.5-72t59.5-70z" glyph-name="Jcircumflex" horiz-adv-x="452" unicode="Ĵ"/><glyph d="M107 650l-55 5v25h219v-25l-55-5q-16-2-19-8.5t-3-40.5V79q0-34 3-40.5t19-8.5l55-5V0H52v25l55 5q16 2 19 8.5t3 40.5v522q0 34-3 40.5t-19 8.5zm464 0l-55 5v25h219v-25l-55-5q-16-2-19-8.5t-3-40.5V202q0-102-43-157T490-10q-66 0-105 35.5T340 129l50 15q2-62 26.5-93T488 20q55 0 80 44.5T593 202v399q0 34-3 40.5t-19 8.5z" glyph-name="IJ" horiz-adv-x="775" unicode="Ĳ"/><glyph d="M107 651l-55 5v24h219v-24l-55-5q-16-2-19-8.5t-3-40.5V290l258 322q21 26 22 31.5t-17 7.5l-49 5v24h182v-24l-49-5q-14-1-20.5-6.5T492 612L324 403 526 79q21-33 27.5-40t23.5-9l50-5V0H495L282 351l-88-109V79q0-34 3-40.5t19-8.5l55-5V0H52v25l55 5q16 2 19 8.5t3 40.5v523q0 34-3 40.5t-19 8.5zm186-889l-20 14q17 37 24 70.5t7 76.5h66q-14-55-31-89.5T293-238z" glyph-name="Kcommaaccent" horiz-adv-x="636" unicode="Ķ"/><glyph d="M700 685l20-14q-17-37-24-70.5t-7-76.5h-66q14 55 31 89.5t46 71.5zm-593-34l-55 5v24h219v-24l-55-5q-16-2-19-8.5t-3-40.5V290l258 322q21 26 22 31.5t-17 7.5l-49 5v24h182v-24l-49-5q-14-1-20.5-6.5T492 612L324 403 526 79q21-33 27.5-40t23.5-9l50-5V0H495L282 351l-88-109V79q0-34 3-40.5t19-8.5l55-5V0H52v25l55 5q16 2 19 8.5t3 40.5v523q0 34-3 40.5t-19 8.5z" glyph-name="kgreenlandic.case" horiz-adv-x="738"/><glyph d="M441 56l27 105h25V0H52v25l55 5q16 2 19 8.5t3 40.5v522q0 34-3 40.5t-19 8.5l-55 5v25h219v-25l-55-5q-16-2-19-8.5t-3-40.5V30h193q32 0 40.5 3.5T441 56zM171 772l-19 19q28 35 43.5 66t27.5 76h76q-27-45-58.5-84.5T171 772z" glyph-name="Lacute" horiz-adv-x="504" unicode="Ĺ"/><glyph d="M441 56l27 105h25V0H52v25l55 5q16 2 19 8.5t3 40.5v522q0 34-3 40.5t-19 8.5l-55 5v25h219v-25l-55-5q-16-2-19-8.5t-3-40.5V30h193q32 0 40.5 3.5T441 56zm-69 410h-19v214h64q-10-60-21-112t-24-102z" glyph-name="Lcaron" horiz-adv-x="504" unicode="Ľ"/><glyph d="M441 56l27 105h25V0H52v25l55 5q16 2 19 8.5t3 40.5v522q0 34-3 40.5t-19 8.5l-55 5v25h219v-25l-55-5q-16-2-19-8.5t-3-40.5V30h193q32 0 40.5 3.5T441 56zM250-238l-20 14q17 37 24 70.5t7 76.5h66q-14-55-31-89.5T250-238z" glyph-name="Lcommaaccent" horiz-adv-x="504" unicode="Ļ"/><glyph d="M441 56l27 105h25V0H52v25l55 5q16 2 19 8.5t3 40.5v522q0 34-3 40.5t-19 8.5l-55 5v25h219v-25l-55-5q-16-2-19-8.5t-3-40.5V30h193q32 0 40.5 3.5T441 56zm18 329q0-20-13-33t-33-13q-20 0-32.5 13T368 385q0 20 13 32.5t32 12.5q20 0 33-12.5t13-32.5z" glyph-name="Ldot" horiz-adv-x="504" unicode="Ŀ"/><glyph d="M514 650l-55 5v25h189v-25l-55-5q-16-2-19-8.5t-3-40.5V0h-45L164 630V79q0-34 3-40.5t19-8.5l55-5V0H52v25l55 5q16 2 19 8.5t3 40.5v522q0 34-3 40.5t-19 8.5l-55 5v25h154l330-574v495q0 34-3 40.5t-19 8.5zm-91 136q-19 0-37.5 10.5T337 839q-24 25-36.5 32.5T277 879q-20 0-32-20.5T232 801h-29q1 61 22 94t58 33q19 0 37.5-10.5T369 875q23-25 35-32.5t23-7.5q20 0 32 20.5t13 57.5h29q-1-60-22-93.5T423 786z" glyph-name="Ntilde" horiz-adv-x="695" unicode="Ñ"/><glyph d="M514 650l-55 5v25h189v-25l-55-5q-16-2-19-8.5t-3-40.5V0h-45L164 630V79q0-34 3-40.5t19-8.5l55-5V0H52v25l55 5q16 2 19 8.5t3 40.5v522q0 34-3 40.5t-19 8.5l-55 5v25h154l330-574v495q0 34-3 40.5t-19 8.5zM351 772l-19 19q28 35 43.5 66t27.5 76h76q-27-45-58.5-84.5T351 772z" glyph-name="Nacute" horiz-adv-x="695" unicode="Ń"/><glyph d="M514 650l-55 5v25h189v-25l-55-5q-16-2-19-8.5t-3-40.5V0h-45L164 630V79q0-34 3-40.5t19-8.5l55-5V0H52v25l55 5q16 2 19 8.5t3 40.5v522q0 34-3 40.5t-19 8.5l-55 5v25h154l330-574v495q0 34-3 40.5t-19 8.5zm-54 288l19-19q-40-42-59.5-70T378 777h-52q-22 44-41.5 72T225 919l19 19q34-29 61-55t50-51q22 25 47 50.5t58 55.5z" glyph-name="Ncaron" horiz-adv-x="695" unicode="Ň"/><glyph d="M514 650l-55 5v25h189v-25l-55-5q-16-2-19-8.5t-3-40.5V0h-45L164 630V79q0-34 3-40.5t19-8.5l55-5V0H52v25l55 5q16 2 19 8.5t3 40.5v522q0 34-3 40.5t-19 8.5l-55 5v25h154l330-574v495q0 34-3 40.5t-19 8.5zM304-238l-20 14q17 37 24 70.5t7 76.5h66q-14-55-31-89.5T304-238z" glyph-name="Ncommaaccent" horiz-adv-x="695" unicode="Ņ"/><glyph d="M648 655l-55-5q-16-2-19-8.5t-3-40.5V-31q0-92-40.5-142T413-223q-62 0-98 33t-42 96l50 15q2-57 24-85.5t64-28.5q49 0 72 39.5T506-31v66L164 630V79q0-34 3-40.5t19-8.5l55-5V0H52v25l55 5q16 2 19 8.5t3 40.5v522q0 34-3 40.5t-19 8.5l-55 5v25h154l330-574v495q0 34-3 40.5t-19 8.5l-55 5v25h189z" glyph-name="Eng" horiz-adv-x="695" unicode="Ŋ"/><glyph d="M645 650l-55 5v25h189v-25l-55-5q-16-2-19-8.5t-3-40.5V0h-45L295 630V79q0-34 3-40.5t19-8.5l55-5V0H183v25l55 5q16 2 19 8.5t3 40.5v522q0 34-3 40.5t-19 8.5l-55 5v25h154l330-574v495q0 34-3 40.5t-19 8.5zM68 690q20 0 32-14t12-38q0-38-22.5-89T29 449L8 467q31 44 45.5 75.5T70 603h-2q-19 0-31 12.5T25 647q0 19 12 31t31 12z" glyph-name="napostrophe.case" horiz-adv-x="826"/><glyph d="M331 690q117 0 184-82.5T582 382v-83q0-144-67-226.5T331-10q-118 0-184.5 82.5T80 299v83q0 144 66.5 226T331 690zm178-441v183q0 116-43.5 172T331 660q-91 0-134.5-56T153 432V249q0-116 44-172.5T331 20q90 0 134 56.5T509 249zM330 772l-19 19q28 35 43.5 66t27.5 76h76q-27-45-58.5-84.5T330 772z" glyph-name="Oacute" horiz-adv-x="662" unicode="Ó"/><glyph d="M331 690q117 0 184-82.5T582 382v-83q0-144-67-226.5T331-10q-118 0-184.5 82.5T80 299v83q0 144 66.5 226T331 690zm178-441v183q0 116-43.5 172T331 660q-91 0-134.5-56T153 432V249q0-116 44-172.5T331 20q90 0 134 56.5T509 249zm-51 542l-19-19q-34 29-61 55t-50 51q-19-22-43-46.5T223 772l-19 19q40 42 59.5 70t41.5 72h52q22-44 41.5-72t59.5-70z" glyph-name="Ocircumflex" horiz-adv-x="662" unicode="Ô"/><glyph d="M331 690q117 0 184-82.5T582 382v-83q0-144-67-226.5T331-10q-118 0-184.5 82.5T80 299v83q0 144 66.5 226T331 690zm178-441v183q0 116-43.5 172T331 660q-91 0-134.5-56T153 432V249q0-116 44-172.5T331 20q90 0 134 56.5T509 249zM275 856q0-19-12-31.5T231 812q-19 0-31 12.5T188 856q0 19 12 31t31 12q19 0 31.5-12t12.5-31zm199 0q0-19-12-31.5T430 812q-19 0-31 12.5T387 856q0 19 12 31t31 12q19 0 31.5-12t12.5-31z" glyph-name="Odieresis" horiz-adv-x="662" unicode="Ö"/><glyph d="M331 690q117 0 184-82.5T582 382v-83q0-144-67-226.5T331-10q-118 0-184.5 82.5T80 299v83q0 144 66.5 226T331 690zm178-441v183q0 116-43.5 172T331 660q-91 0-134.5-56T153 432V249q0-116 44-172.5T331 20q90 0 134 56.5T509 249zM351 791l-19-19q-38 37-69.5 76.5T204 933h76q12-45 27.5-76t43.5-66z" glyph-name="Ograve" horiz-adv-x="662" unicode="Ò"/><glyph d="M331 690q117 0 184-82.5T582 382v-83q0-144-67-226.5T331-10q-118 0-184.5 82.5T80 299v83q0 144 66.5 226T331 690zm178-441v183q0 116-43.5 172T331 660q-91 0-134.5-56T153 432V249q0-116 44-172.5T331 20q90 0 134 56.5T509 249zM402 786q-19 0-37.5 10.5T316 839q-24 25-36.5 32.5T256 879q-20 0-32-20.5T211 801h-29q1 61 22 94t58 33q19 0 37.5-10.5T348 875q23-25 35-32.5t23-7.5q20 0 32 20.5t13 57.5h29q-1-60-22-93.5T402 786z" glyph-name="Otilde" horiz-adv-x="662" unicode="Õ"/><glyph d="M331 690q117 0 184-82.5T582 382v-83q0-144-67-226.5T331-10q-118 0-184.5 82.5T80 299v83q0 144 66.5 226T331 690zm178-441v183q0 116-43.5 172T331 660q-91 0-134.5-56T153 432V249q0-116 44-172.5T331 20q90 0 134 56.5T509 249zM331 825q47 0 73 24.5t40 83.5l26-7q-14-80-47.5-117T331 772q-58 0-91.5 37T192 926l26 7q14-59 40-83.5t73-24.5z" glyph-name="Obreve" horiz-adv-x="662" unicode="Ŏ"/><glyph d="M331 690q117 0 184-82.5T582 382v-83q0-144-67-226.5T331-10q-118 0-184.5 82.5T80 299v83q0 144 66.5 226T331 690zm178-441v183q0 116-43.5 172T331 660q-91 0-134.5-56T153 432V249q0-116 44-172.5T331 20q90 0 134 56.5T509 249zM264 772l-21 15q17 32 30 66t25 80h71q-21-41-48.5-83T264 772zm140 0l-21 15q17 32 30 66t25 80h71q-21-41-48.5-83T404 772z" glyph-name="Ohungarumlaut" horiz-adv-x="662" unicode="Ő"/><glyph d="M331 690q117 0 184-82.5T582 382v-83q0-144-67-226.5T331-10q-118 0-184.5 82.5T80 299v83q0 144 66.5 226T331 690zm178-441v183q0 116-43.5 172T331 660q-91 0-134.5-56T153 432V249q0-116 44-172.5T331 20q90 0 134 56.5T509 249zM188 855h287v-43H188z" glyph-name="Omacron" horiz-adv-x="662" unicode="Ō"/><glyph d="M107 650l-55 5v25h262q90 0 141.5-45T507 512v-35q0-64-34.5-106.5T375 314L506 79q19-34 25-40.5t23-8.5l45-5V0H472L307 308H194V79q0-34 3-40.5t19-8.5l55-5V0H52v25l55 5q16 2 19 8.5t3 40.5v522q0 34-3 40.5t-19 8.5zm207 0H194V338h120q57 0 91 37.5T439 477v35q0 64-33.5 101T314 650zm-19 122l-19 19q28 35 43.5 66t27.5 76h76q-27-45-58.5-84.5T295 772z" glyph-name="Racute" horiz-adv-x="608" unicode="Ŕ"/><glyph d="M107 650l-55 5v25h262q90 0 141.5-45T507 512v-35q0-64-34.5-106.5T375 314L506 79q19-34 25-40.5t23-8.5l45-5V0H472L307 308H194V79q0-34 3-40.5t19-8.5l55-5V0H52v25l55 5q16 2 19 8.5t3 40.5v522q0 34-3 40.5t-19 8.5zm207 0H194V338h120q57 0 91 37.5T439 477v35q0 64-33.5 101T314 650zm90 288l19-19q-40-42-59.5-70T322 777h-52q-22 44-41.5 72T169 919l19 19q34-29 61-55t50-51q22 25 47 50.5t58 55.5z" glyph-name="Rcaron" horiz-adv-x="608" unicode="Ř"/><glyph d="M107 650l-55 5v25h262q90 0 141.5-45T507 512v-35q0-64-34.5-106.5T375 314L506 79q19-34 25-40.5t23-8.5l45-5V0H472L307 308H194V79q0-34 3-40.5t19-8.5l55-5V0H52v25l55 5q16 2 19 8.5t3 40.5v522q0 34-3 40.5t-19 8.5zm207 0H194V338h120q57 0 91 37.5T439 477v35q0 64-33.5 101T314 650zm-18-888l-20 14q17 37 24 70.5t7 76.5h66q-14-55-31-89.5T296-238z" glyph-name="Rcommaaccent" horiz-adv-x="608" unicode="Ŗ"/><glyph d="M267 20q74 0 115.5 36.5T424 159q0 59-36 95.5T274 311l-53 14q-80 21-121.5 69T58 512q0 80 54.5 129T262 690q108 0 163-58.5T464 483l-63-16q11 97-23.5 145.5T263 661q-69 0-107-35t-38-99q0-56 32.5-89T255 386l53-14q86-23 131-73.5T484 174q0-84-58-134T267-10q-95 0-150.5 46T46 173l55 18q7-85 49-128t117-43zm105 918l19-19q-40-42-59.5-70T290 777h-52q-22 44-41.5 72T137 919l19 19q34-29 61-55t50-51q22 25 47 50.5t58 55.5z" glyph-name="Scaron" horiz-adv-x="540" unicode="Š"/><glyph d="M267 20q74 0 115.5 36.5T424 159q0 59-36 95.5T274 311l-53 14q-80 21-121.5 69T58 512q0 80 54.5 129T262 690q108 0 163-58.5T464 483l-63-16q11 97-23.5 145.5T263 661q-69 0-107-35t-38-99q0-56 32.5-89T255 386l53-14q86-23 131-73.5T484 174q0-84-58-134T267-10q-95 0-150.5 46T46 173l55 18q7-85 49-128t117-43zm-4 752l-19 19q28 35 43.5 66t27.5 76h76q-27-45-58.5-84.5T263 772z" glyph-name="Sacute" horiz-adv-x="540" unicode="Ś"/><glyph d="M367-141q0-38-28.5-60T262-223q-44 0-71 20t-34 58l44 13q4-34 18-50t41-16q26 0 40 15t14 42q0 28-15 41.5T253-86q-6 0-13.5-.5T228-88l-9 25 22 54q-82 5-131.5 51T46 173l55 18q7-85 49-128t117-43q74 0 115.5 36.5T424 159q0 59-36 95.5T274 311l-53 14q-80 21-121.5 69T58 512q0 80 54.5 129T262 690q108 0 163-58.5T464 483l-63-16q11 97-23.5 145.5T263 661q-69 0-107-35t-38-99q0-56 32.5-89T255 386l53-14q86-23 131-73.5T484 174q0-84-56.5-134T273-10l-21-50h4q51 0 81-21.5t30-59.5z" glyph-name="Scedilla" horiz-adv-x="540" unicode="Ş"/><glyph d="M267 20q74 0 115.5 36.5T424 159q0 59-36 95.5T274 311l-53 14q-80 21-121.5 69T58 512q0 80 54.5 129T262 690q108 0 163-58.5T464 483l-63-16q11 97-23.5 145.5T263 661q-69 0-107-35t-38-99q0-56 32.5-89T255 386l53-14q86-23 131-73.5T484 174q0-84-58-134T267-10q-95 0-150.5 46T46 173l55 18q7-85 49-128t117-43zm124 771l-19-19q-34 29-61 55t-50 51q-19-22-43-46.5T156 772l-19 19q40 42 59.5 70t41.5 72h52q22-44 41.5-72t59.5-70z" glyph-name="Scircumflex" horiz-adv-x="540" unicode="Ŝ"/><glyph d="M267 20q74 0 115.5 36.5T424 159q0 59-36 95.5T274 311l-53 14q-80 21-121.5 69T58 512q0 80 54.5 129T262 690q108 0 163-58.5T464 483l-63-16q11 97-23.5 145.5T263 661q-69 0-107-35t-38-99q0-56 32.5-89T255 386l53-14q86-23 131-73.5T484 174q0-84-58-134T267-10q-95 0-150.5 46T46 173l55 18q7-85 49-128t117-43zm-42-258l-20 14q17 37 24 70.5t7 76.5h66q-14-55-31-89.5T225-238z" glyph-name="uni0218" horiz-adv-x="540" unicode="Ș"/><glyph d="M329 30l55-5V0H165v25l55 5q16 2 19 8.5t3 40.5v247H96v29h146v295H120q-32 0-40.5-3.5T66 624L39 523H14v157h521V523h-25l-27 101q-5 19-13.5 22.5T429 650H307V355h146v-29H307V79q0-34 3-40.5t19-8.5z" glyph-name="Tbar" horiz-adv-x="549" unicode="Ŧ"/><glyph d="M14 523v157h521V523h-25l-27 101q-5 19-13.5 22.5T429 650H307V79q0-34 3-40.5t19-8.5l55-5V0H165v25l55 5q16 2 19 8.5t3 40.5v571H120q-32 0-40.5-3.5T66 624L39 523zm368 415l19-19q-40-42-59.5-70T300 777h-52q-22 44-41.5 72T147 919l19 19q34-29 61-55t50-51q22 25 47 50.5t58 55.5z" glyph-name="Tcaron" horiz-adv-x="549" unicode="Ť"/><glyph d="M14 523v157h521V523h-25l-27 101q-5 19-13.5 22.5T429 650H307V79q0-34 3-40.5t19-8.5l55-5V0H165v25l55 5q16 2 19 8.5t3 40.5v571H120q-32 0-40.5-3.5T66 624L39 523zm216-761l-20 14q17 37 24 70.5t7 76.5h66q-14-55-31-89.5T230-238z" glyph-name="uni0162" horiz-adv-x="549" unicode="Ţ"/><glyph d="M14 523v157h521V523h-25l-27 101q-5 19-13.5 22.5T429 650H307V79q0-34 3-40.5t19-8.5l55-5V0H165v25l55 5q16 2 19 8.5t3 40.5v571H120q-32 0-40.5-3.5T66 624L39 523zm216-761l-20 14q17 37 24 70.5t7 76.5h66q-14-55-31-89.5T230-238z" glyph-name="uni021A" horiz-adv-x="549" unicode="Ț"/><glyph d="M501 650l-55 5v25h189v-25l-55-5q-16-2-19-8.5t-3-40.5V231q0-116-56-178.5T341-10q-109 0-167.5 67.5T115 251v350q0 34-3 40.5T93 650l-55 5v25h219v-25l-55-5q-16-2-19-8.5t-3-40.5V231q0-107 41-158.5T347 21q86 0 131 53.5T523 231v370q0 34-3 40.5t-19 8.5zM349 772l-19 19q28 35 43.5 66t27.5 76h76q-27-45-58.5-84.5T349 772z" glyph-name="Uacute" horiz-adv-x="673" unicode="Ú"/><glyph d="M501 650l-55 5v25h189v-25l-55-5q-16-2-19-8.5t-3-40.5V231q0-116-56-178.5T341-10q-109 0-167.5 67.5T115 251v350q0 34-3 40.5T93 650l-55 5v25h219v-25l-55-5q-16-2-19-8.5t-3-40.5V231q0-107 41-158.5T347 21q86 0 131 53.5T523 231v370q0 34-3 40.5t-19 8.5zm-24 141l-19-19q-34 29-61 55t-50 51q-19-22-43-46.5T242 772l-19 19q40 42 59.5 70t41.5 72h52q22-44 41.5-72t59.5-70z" glyph-name="Ucircumflex" horiz-adv-x="673" unicode="Û"/><glyph d="M501 650l-55 5v25h189v-25l-55-5q-16-2-19-8.5t-3-40.5V231q0-116-56-178.5T341-10q-109 0-167.5 67.5T115 251v350q0 34-3 40.5T93 650l-55 5v25h219v-25l-55-5q-16-2-19-8.5t-3-40.5V231q0-107 41-158.5T347 21q86 0 131 53.5T523 231v370q0 34-3 40.5t-19 8.5zM294 856q0-19-12-31.5T250 812q-19 0-31 12.5T207 856q0 19 12 31t31 12q19 0 31.5-12t12.5-31zm199 0q0-19-12-31.5T449 812q-19 0-31 12.5T406 856q0 19 12 31t31 12q19 0 31.5-12t12.5-31z" glyph-name="Udieresis" horiz-adv-x="673" unicode="Ü"/><glyph d="M501 650l-55 5v25h189v-25l-55-5q-16-2-19-8.5t-3-40.5V231q0-116-56-178.5T341-10q-109 0-167.5 67.5T115 251v350q0 34-3 40.5T93 650l-55 5v25h219v-25l-55-5q-16-2-19-8.5t-3-40.5V231q0-107 41-158.5T347 21q86 0 131 53.5T523 231v370q0 34-3 40.5t-19 8.5zM370 791l-19-19q-38 37-69.5 76.5T223 933h76q12-45 27.5-76t43.5-66z" glyph-name="Ugrave" horiz-adv-x="673" unicode="Ù"/><glyph d="M501 650l-55 5v25h189v-25l-55-5q-16-2-19-8.5t-3-40.5V231q0-116-56-178.5T341-10q-109 0-167.5 67.5T115 251v350q0 34-3 40.5T93 650l-55 5v25h219v-25l-55-5q-16-2-19-8.5t-3-40.5V231q0-107 41-158.5T347 21q86 0 131 53.5T523 231v370q0 34-3 40.5t-19 8.5zM350 825q47 0 73 24.5t40 83.5l26-7q-14-80-47.5-117T350 772q-58 0-91.5 37T211 926l26 7q14-59 40-83.5t73-24.5z" glyph-name="Ubreve" horiz-adv-x="673" unicode="Ŭ"/><glyph d="M501 650l-55 5v25h189v-25l-55-5q-16-2-19-8.5t-3-40.5V231q0-116-56-178.5T341-10q-109 0-167.5 67.5T115 251v350q0 34-3 40.5T93 650l-55 5v25h219v-25l-55-5q-16-2-19-8.5t-3-40.5V231q0-107 41-158.5T347 21q86 0 131 53.5T523 231v370q0 34-3 40.5t-19 8.5zM283 772l-21 15q17 32 30 66t25 80h71q-21-41-48.5-83T283 772zm140 0l-21 15q17 32 30 66t25 80h71q-21-41-48.5-83T423 772z" glyph-name="Uhungarumlaut" horiz-adv-x="673" unicode="Ű"/><glyph d="M501 650l-55 5v25h189v-25l-55-5q-16-2-19-8.5t-3-40.5V231q0-116-56-178.5T341-10q-109 0-167.5 67.5T115 251v350q0 34-3 40.5T93 650l-55 5v25h219v-25l-55-5q-16-2-19-8.5t-3-40.5V231q0-107 41-158.5T347 21q86 0 131 53.5T523 231v370q0 34-3 40.5t-19 8.5zM207 855h287v-43H207z" glyph-name="Umacron" horiz-adv-x="673" unicode="Ū"/><glyph d="M501 650l-55 5v25h189v-25l-55-5q-16-2-19-8.5t-3-40.5V231q0-65-17.5-112.5T487 38q-15-14-45-36.5T400-31q-26-23-37.5-46T351-127q0-34 14.5-51.5T409-196q29 0 47.5 21t27.5 63l44-13q-13-47-45.5-72.5T405-223q-48 0-77 26t-29 70q0 31 19 57.5T393-6q-11-2-24-3t-28-1q-109 0-167.5 67.5T115 251v350q0 34-3 40.5T93 650l-55 5v25h219v-25l-55-5q-16-2-19-8.5t-3-40.5V231q0-107 41-158.5T347 21q86 0 131 53.5T523 231v370q0 34-3 40.5t-19 8.5z" glyph-name="Uogonek" horiz-adv-x="673" unicode="Ų"/><glyph d="M501 650l-55 5v25h189v-25l-55-5q-16-2-19-8.5t-3-40.5V231q0-116-56-178.5T341-10q-109 0-167.5 67.5T115 251v350q0 34-3 40.5T93 650l-55 5v25h219v-25l-55-5q-16-2-19-8.5t-3-40.5V231q0-107 41-158.5T347 21q86 0 131 53.5T523 231v370q0 34-3 40.5t-19 8.5zM350 974q51 0 84.5-30.5T468 870v-11q0-43-33.5-74T350 754q-51 0-84.5 30.5T232 859v11q0 43 33.5 73.5T350 974zm67-122v25q0 34-18 53t-49 19q-31 0-48.5-19T284 877v-25q0-34 17.5-53.5T350 779q31 0 49 19.5t18 53.5z" glyph-name="Uring" horiz-adv-x="673" unicode="Ů"/><glyph d="M501 650l-55 5v25h189v-25l-55-5q-16-2-19-8.5t-3-40.5V231q0-116-56-178.5T341-10q-109 0-167.5 67.5T115 251v350q0 34-3 40.5T93 650l-55 5v25h219v-25l-55-5q-16-2-19-8.5t-3-40.5V231q0-107 41-158.5T347 21q86 0 131 53.5T523 231v370q0 34-3 40.5t-19 8.5zm-80 136q-19 0-37.5 10.5T335 839q-24 25-36.5 32.5T275 879q-20 0-32-20.5T230 801h-29q1 61 22 94t58 33q19 0 37.5-10.5T367 875q23-25 35-32.5t23-7.5q20 0 32 20.5t13 57.5h29q-1-60-22-93.5T421 786z" glyph-name="Utilde" horiz-adv-x="673" unicode="Ũ"/><glyph d="M682 0h-50L458 591 281 0h-51L79 611q-7 27-11 32t-19 7l-49 5v25h205v-25l-49-5q-16-2-18-7.5t5-31.5L272 86l177 594h48L671 90l128 521q7 26 5 31.5t-18 7.5l-49 5v25h174v-25l-49-5q-15-2-19-8t-10-31zM463 772l-19 19q28 35 43.5 66t27.5 76h76q-27-45-58.5-84.5T463 772z" glyph-name="Wacute" horiz-adv-x="911" unicode="Ẃ"/><glyph d="M682 0h-50L458 591 281 0h-51L79 611q-7 27-11 32t-19 7l-49 5v25h205v-25l-49-5q-16-2-18-7.5t5-31.5L272 86l177 594h48L671 90l128 521q7 26 5 31.5t-18 7.5l-49 5v25h174v-25l-49-5q-15-2-19-8t-10-31zm-91 791l-19-19q-34 29-61 55t-50 51q-19-22-43-46.5T356 772l-19 19q40 42 59.5 70t41.5 72h52q22-44 41.5-72t59.5-70z" glyph-name="Wcircumflex" horiz-adv-x="911" unicode="Ŵ"/><glyph d="M682 0h-50L458 591 281 0h-51L79 611q-7 27-11 32t-19 7l-49 5v25h205v-25l-49-5q-16-2-18-7.5t5-31.5L272 86l177 594h48L671 90l128 521q7 26 5 31.5t-18 7.5l-49 5v25h174v-25l-49-5q-15-2-19-8t-10-31zM408 856q0-19-12-31.5T364 812q-19 0-31 12.5T321 856q0 19 12 31t31 12q19 0 31.5-12t12.5-31zm199 0q0-19-12-31.5T563 812q-19 0-31 12.5T520 856q0 19 12 31t31 12q19 0 31.5-12t12.5-31z" glyph-name="Wdieresis" horiz-adv-x="911" unicode="Ẅ"/><glyph d="M682 0h-50L458 591 281 0h-51L79 611q-7 27-11 32t-19 7l-49 5v25h205v-25l-49-5q-16-2-18-7.5t5-31.5L272 86l177 594h48L671 90l128 521q7 26 5 31.5t-18 7.5l-49 5v25h174v-25l-49-5q-15-2-19-8t-10-31zM484 791l-19-19q-38 37-69.5 76.5T337 933h76q12-45 27.5-76t43.5-66z" glyph-name="Wgrave" horiz-adv-x="911" unicode="Ẁ"/><glyph d="M340 30l55-5V0H176v25l55 5q16 2 19 8.5t3 40.5v211L90 611q-13 26-19 31.5T49 650l-49 5v25h214v-25l-49-5q-16-2-16-7.5t13-31.5l141-283 141 283q13 26 13 31.5t-16 7.5l-49 5v25h178v-25l-49-5q-16-1-21.5-6.5T480 611L318 290V79q0-34 3-40.5t19-8.5zm-41 742l-19 19q28 35 43.5 66t27.5 76h76q-27-45-58.5-84.5T299 772z" glyph-name="Yacute" horiz-adv-x="570" unicode="Ý"/><glyph d="M340 30l55-5V0H176v25l55 5q16 2 19 8.5t3 40.5v211L90 611q-13 26-19 31.5T49 650l-49 5v25h214v-25l-49-5q-16-2-16-7.5t13-31.5l141-283 141 283q13 26 13 31.5t-16 7.5l-49 5v25h178v-25l-49-5q-16-1-21.5-6.5T480 611L318 290V79q0-34 3-40.5t19-8.5zm-96 826q0-19-12-31.5T200 812q-19 0-31 12.5T157 856q0 19 12 31t31 12q19 0 31.5-12t12.5-31zm199 0q0-19-12-31.5T399 812q-19 0-31 12.5T356 856q0 19 12 31t31 12q19 0 31.5-12t12.5-31z" glyph-name="Ydieresis" horiz-adv-x="570" unicode="Ÿ"/><glyph d="M340 30l55-5V0H176v25l55 5q16 2 19 8.5t3 40.5v211L90 611q-13 26-19 31.5T49 650l-49 5v25h214v-25l-49-5q-16-2-16-7.5t13-31.5l141-283 141 283q13 26 13 31.5t-16 7.5l-49 5v25h178v-25l-49-5q-16-1-21.5-6.5T480 611L318 290V79q0-34 3-40.5t19-8.5zm87 761l-19-19q-34 29-61 55t-50 51q-19-22-43-46.5T192 772l-19 19q40 42 59.5 70t41.5 72h52q22-44 41.5-72t59.5-70z" glyph-name="Ycircumflex" horiz-adv-x="570" unicode="Ŷ"/><glyph d="M340 30l55-5V0H176v25l55 5q16 2 19 8.5t3 40.5v211L90 611q-13 26-19 31.5T49 650l-49 5v25h214v-25l-49-5q-16-2-16-7.5t13-31.5l141-283 141 283q13 26 13 31.5t-16 7.5l-49 5v25h178v-25l-49-5q-16-1-21.5-6.5T480 611L318 290V79q0-34 3-40.5t19-8.5zm-20 761l-19-19q-38 37-69.5 76.5T173 933h76q12-45 27.5-76t43.5-66z" glyph-name="Ygrave" horiz-adv-x="570" unicode="Ỳ"/><glyph d="M429 56l27 101h25V0H41v20l354 630H157q-32 0-40.5-3.5T103 624L76 523H51v157h420v-20L117 30h258q32 0 40.5 3.5T429 56zm-60 882l19-19q-40-42-59.5-70T287 777h-52q-22 44-41.5 72T134 919l19 19q34-29 61-55t50-51q22 25 47 50.5t58 55.5z" glyph-name="Zcaron" horiz-adv-x="522" unicode="Ž"/><glyph d="M429 56l27 101h25V0H41v20l354 630H157q-32 0-40.5-3.5T103 624L76 523H51v157h420v-20L117 30h258q32 0 40.5 3.5T429 56zM260 772l-19 19q28 35 43.5 66t27.5 76h76q-27-45-58.5-84.5T260 772z" glyph-name="Zacute" horiz-adv-x="522" unicode="Ź"/><glyph d="M429 56l27 101h25V0H41v20l354 630H157q-32 0-40.5-3.5T103 624L76 523H51v157h420v-20L117 30h258q32 0 40.5 3.5T429 56zM307 856q0-20-13-33t-33-13q-20 0-32.5 13T216 856q0 20 13 32.5t32 12.5q20 0 33-12.5t13-32.5z" glyph-name="Zdotaccent" horiz-adv-x="522" unicode="Ż"/><glyph d="M452-5q-34 0-56 19.5T369 69q-34-39-76.5-59T204-10q-63 0-99 35.5T69 122q0 64 42 94.5T241 247h127v81q0 72-27.5 105.5T253 467q-63 0-87.5-34T149 326l-58 10q-6 74 38 117.5T255 497q87 0 130-42t43-127V107q0-40 10-58.5T471 30q10 0 20.5 4.5T512 48l18-24Q514 9 494.5 2T452-5zM132 127q0-50 22.5-76T221 25q40 0 76.5 21.5T368 112v105H249q-61 0-89-21.5T132 127zm128 452l-19 19q28 35 43.5 66t27.5 76h76q-27-45-58.5-84.5T260 579z" glyph-name="aacute" horiz-adv-x="542" unicode="á"/><glyph d="M452-5q-34 0-56 19.5T369 69q-34-39-76.5-59T204-10q-63 0-99 35.5T69 122q0 64 42 94.5T241 247h127v81q0 72-27.5 105.5T253 467q-63 0-87.5-34T149 326l-58 10q-6 74 38 117.5T255 497q87 0 130-42t43-127V107q0-40 10-58.5T471 30q10 0 20.5 4.5T512 48l18-24Q514 9 494.5 2T452-5zM132 127q0-50 22.5-76T221 25q40 0 76.5 21.5T368 112v105H249q-61 0-89-21.5T132 127zm256 471l-19-19q-34 29-61 55t-50 51q-19-22-43-46.5T153 579l-19 19q40 42 59.5 70t41.5 72h52q22-44 41.5-72t59.5-70z" glyph-name="acircumflex" horiz-adv-x="542" unicode="â"/><glyph d="M452-5q-34 0-56 19.5T369 69q-34-39-76.5-59T204-10q-63 0-99 35.5T69 122q0 64 42 94.5T241 247h127v81q0 72-27.5 105.5T253 467q-63 0-87.5-34T149 326l-58 10q-6 74 38 117.5T255 497q87 0 130-42t43-127V107q0-40 10-58.5T471 30q10 0 20.5 4.5T512 48l18-24Q514 9 494.5 2T452-5zM132 127q0-50 22.5-76T221 25q40 0 76.5 21.5T368 112v105H249q-61 0-89-21.5T132 127zm73 536q0-19-12-31.5T161 619q-19 0-31 12.5T118 663q0 19 12 31t31 12q19 0 31.5-12t12.5-31zm199 0q0-19-12-31.5T360 619q-19 0-31 12.5T317 663q0 19 12 31t31 12q19 0 31.5-12t12.5-31z" glyph-name="adieresis" horiz-adv-x="542" unicode="ä"/><glyph d="M452-5q-34 0-56 19.5T369 69q-34-39-76.5-59T204-10q-63 0-99 35.5T69 122q0 64 42 94.5T241 247h127v81q0 72-27.5 105.5T253 467q-63 0-87.5-34T149 326l-58 10q-6 74 38 117.5T255 497q87 0 130-42t43-127V107q0-40 10-58.5T471 30q10 0 20.5 4.5T512 48l18-24Q514 9 494.5 2T452-5zM132 127q0-50 22.5-76T221 25q40 0 76.5 21.5T368 112v105H249q-61 0-89-21.5T132 127zm149 471l-19-19q-38 37-69.5 76.5T134 740h76q12-45 27.5-76t43.5-66z" glyph-name="agrave" horiz-adv-x="542" unicode="à"/><glyph d="M452-5q-34 0-56 19.5T369 69q-34-39-76.5-59T204-10q-63 0-99 35.5T69 122q0 64 42 94.5T241 247h127v81q0 72-27.5 105.5T253 467q-63 0-87.5-34T149 326l-58 10q-6 74 38 117.5T255 497q87 0 130-42t43-127V107q0-40 10-58.5T471 30q10 0 20.5 4.5T512 48l18-24Q514 9 494.5 2T452-5zM132 127q0-50 22.5-76T221 25q40 0 76.5 21.5T368 112v105H249q-61 0-89-21.5T132 127zm129 654q51 0 84.5-30.5T379 677v-11q0-43-33.5-74T261 561q-51 0-84.5 30.5T143 666v11q0 43 33.5 73.5T261 781zm67-122v25q0 34-18 53t-49 19q-31 0-48.5-19T195 684v-25q0-34 17.5-53.5T261 586q31 0 49 19.5t18 53.5z" glyph-name="aring" horiz-adv-x="542" unicode="å"/><glyph d="M452-5q-34 0-56 19.5T369 69q-34-39-76.5-59T204-10q-63 0-99 35.5T69 122q0 64 42 94.5T241 247h127v81q0 72-27.5 105.5T253 467q-63 0-87.5-34T149 326l-58 10q-6 74 38 117.5T255 497q87 0 130-42t43-127V107q0-40 10-58.5T471 30q10 0 20.5 4.5T512 48l18-24Q514 9 494.5 2T452-5zM132 127q0-50 22.5-76T221 25q40 0 76.5 21.5T368 112v105H249q-61 0-89-21.5T132 127zm200 466q-19 0-37.5 10.5T246 646q-24 25-36.5 32.5T186 686q-20 0-32-20.5T141 608h-29q1 61 22 94t58 33q19 0 37.5-10.5T278 682q23-25 35-32.5t23-7.5q20 0 32 20.5t13 57.5h29q-1-60-22-93.5T332 593z" glyph-name="atilde" horiz-adv-x="542" unicode="ã"/><glyph d="M452-5q-34 0-56 19.5T369 69q-34-39-76.5-59T204-10q-63 0-99 35.5T69 122q0 64 42 94.5T241 247h127v81q0 72-27.5 105.5T253 467q-63 0-87.5-34T149 326l-58 10q-6 74 38 117.5T255 497q87 0 130-42t43-127V107q0-40 10-58.5T471 30q10 0 20.5 4.5T512 48l18-24Q514 9 494.5 2T452-5zM132 127q0-50 22.5-76T221 25q40 0 76.5 21.5T368 112v105H249q-61 0-89-21.5T132 127zm129 505q47 0 73 24.5t40 83.5l26-7q-14-80-47.5-117T261 579q-58 0-91.5 37T122 733l26 7q14-59 40-83.5t73-24.5z" glyph-name="abreve" horiz-adv-x="542" unicode="ă"/><glyph d="M452-5q-34 0-56 19.5T369 69q-34-39-76.5-59T204-10q-63 0-99 35.5T69 122q0 64 42 94.5T241 247h127v81q0 72-27.5 105.5T253 467q-63 0-87.5-34T149 326l-58 10q-6 74 38 117.5T255 497q87 0 130-42t43-127V107q0-40 10-58.5T471 30q10 0 20.5 4.5T512 48l18-24Q514 9 494.5 2T452-5zM132 127q0-50 22.5-76T221 25q40 0 76.5 21.5T368 112v105H249q-61 0-89-21.5T132 127zm-14 535h287v-43H118z" glyph-name="amacron" horiz-adv-x="542" unicode="ā"/><glyph d="M486-112l44-13q-13-47-45.5-72.5T407-223q-48 0-77 25t-29 67q0 39 30 70t96 59q-24 6-38.5 24T369 69q-34-39-76.5-59T204-10q-63 0-99 35.5T69 122q0 64 42 94.5T241 247h127v81q0 72-27.5 105.5T253 467q-63 0-87.5-34T149 326l-58 10q-6 74 38 117.5T255 497q87 0 130-42t43-127V107q0-40 10-58.5T471 30q10 0 20.5 4.5T512 48l18-24q-20-17-61-36.5T422-35q-37-19-53-41t-16-51q0-34 14.5-51.5T411-196q29 0 47.5 21t27.5 63zM132 127q0-50 22.5-76T221 25q40 0 76.5 21.5T368 112v105H249q-61 0-89-21.5T132 127z" glyph-name="aogonek" horiz-adv-x="542" unicode="ą"/><glyph d="M386-141q0-38-28.5-60T281-223q-44 0-71 20t-34 58l44 13q4-34 18-50t41-16q26 0 40 15t14 42q0 28-15 41.5T272-86q-6 0-13.5-.5T247-88l-9 25 22 53q-91 5-140 68.5T71 234v20q0 114 52 178.5T269 497q88 0 134.5-50T438 318l-57-9q10 76-18.5 117T269 467q-66 0-98-48t-32-145v-60q0-104 32.5-149T279 20q51 0 79.5 25t40.5 79l46-13q-15-54-54-85T292-9l-21-51h4q51 0 81-21.5t30-59.5z" glyph-name="ccedilla" horiz-adv-x="502" unicode="ç"/><glyph d="M269 467q-66 0-98-48t-32-145v-60q0-104 32.5-149T279 20q51 0 79.5 25t40.5 79l46-13q-16-59-60.5-90T274-10q-98 0-150.5 64T71 234v20q0 114 52 178.5T269 497q88 0 134.5-50T438 318l-57-9q10 76-18.5 117T269 467zm-5 112l-19 19q28 35 43.5 66t27.5 76h76q-27-45-58.5-84.5T264 579z" glyph-name="cacute" horiz-adv-x="502" unicode="ć"/><glyph d="M269 467q-66 0-98-48t-32-145v-60q0-104 32.5-149T279 20q51 0 79.5 25t40.5 79l46-13q-16-59-60.5-90T274-10q-98 0-150.5 64T71 234v20q0 114 52 178.5T269 497q88 0 134.5-50T438 318l-57-9q10 76-18.5 117T269 467zm104 278l19-19q-40-42-59.5-70T291 584h-52q-22 44-41.5 72T138 726l19 19q34-29 61-55t50-51q22 25 47 50.5t58 55.5z" glyph-name="ccaron" horiz-adv-x="502" unicode="č"/><glyph d="M269 467q-66 0-98-48t-32-145v-60q0-104 32.5-149T279 20q51 0 79.5 25t40.5 79l46-13q-16-59-60.5-90T274-10q-98 0-150.5 64T71 234v20q0 114 52 178.5T269 497q88 0 134.5-50T438 318l-57-9q10 76-18.5 117T269 467zm123 131l-19-19q-34 29-61 55t-50 51q-19-22-43-46.5T157 579l-19 19q40 42 59.5 70t41.5 72h52q22-44 41.5-72t59.5-70z" glyph-name="ccircumflex" horiz-adv-x="502" unicode="ĉ"/><glyph d="M269 467q-66 0-98-48t-32-145v-60q0-104 32.5-149T279 20q51 0 79.5 25t40.5 79l46-13q-16-59-60.5-90T274-10q-98 0-150.5 64T71 234v20q0 114 52 178.5T269 497q88 0 134.5-50T438 318l-57-9q10 76-18.5 117T269 467zm42 196q0-20-13-33t-33-13q-20 0-32.5 13T220 663q0 20 13 32.5t32 12.5q20 0 33-12.5t13-32.5z" glyph-name="cdotaccent" horiz-adv-x="502" unicode="ċ"/><glyph d="M486 30l55-6V0H408v76q-29-43-68-64.5T252-10q-87 0-133.5 63T72 233v20q0 113 54 178.5T275 497q39 0 71.5-14t57.5-41v219q0 34-3 40.5t-19 8.5l-55 5v25h137V79q0-34 3-40.5t19-8.5zM140 283v-80q0-91 29-137t87-46q45 0 81.5 25t66.5 75v271q-24 39-55.5 57.5T275 467q-67 0-101-46.5T140 283zm435 243h-19v214h64q-10-60-21-112t-24-102z" glyph-name="dcaron" horiz-adv-x="632" unicode="ď"/><glyph d="M486 30l55-6V0H408v76q-29-43-68-64.5T252-10q-87 0-133.5 63T72 233v20q0 113 54 178.5T275 497q39 0 71.5-14t57.5-41v145H246v30h158v44q0 34-3 40.5t-19 8.5l-55 5v25h137V617h77v-30h-77V79q0-34 3-40.5t19-8.5zM140 283v-80q0-91 29-137t87-46q45 0 81.5 25t66.5 75v271q-24 39-55.5 57.5T275 467q-67 0-101-46.5T140 283z" glyph-name="dcroat" horiz-adv-x="578" unicode="đ"/><glyph d="M407 124l46-13q-16-59-61.5-90T278-10q-100 0-153.5 63.5T71 234v20q0 115 52 179t146 64q85 0 137-51.5T458 306q0-14-1.5-29t-4.5-32H139v-31q0-104 33.5-149T283 20q53 0 82.5 25t41.5 79zm-12 190q0 75-32 114t-94 39q-68 0-99-46t-31-146h254q1 16 1.5 26t.5 13zM265 579l-19 19q28 35 43.5 66t27.5 76h76q-27-45-58.5-84.5T265 579z" glyph-name="eacute" horiz-adv-x="523" unicode="é"/><glyph d="M407 124l46-13q-16-59-61.5-90T278-10q-100 0-153.5 63.5T71 234v20q0 115 52 179t146 64q85 0 137-51.5T458 306q0-14-1.5-29t-4.5-32H139v-31q0-104 33.5-149T283 20q53 0 82.5 25t41.5 79zm-12 190q0 75-32 114t-94 39q-68 0-99-46t-31-146h254q1 16 1.5 26t.5 13zm-1 284l-19-19q-34 29-61 55t-50 51q-19-22-43-46.5T159 579l-19 19q40 42 59.5 70t41.5 72h52q22-44 41.5-72t59.5-70z" glyph-name="ecircumflex" horiz-adv-x="523" unicode="ê"/><glyph d="M407 124l46-13q-16-59-61.5-90T278-10q-100 0-153.5 63.5T71 234v20q0 115 52 179t146 64q85 0 137-51.5T458 306q0-14-1.5-29t-4.5-32H139v-31q0-104 33.5-149T283 20q53 0 82.5 25t41.5 79zm-12 190q0 75-32 114t-94 39q-68 0-99-46t-31-146h254q1 16 1.5 26t.5 13zM210 663q0-19-12-31.5T166 619q-19 0-31 12.5T123 663q0 19 12 31t31 12q19 0 31.5-12t12.5-31zm199 0q0-19-12-31.5T365 619q-19 0-31 12.5T322 663q0 19 12 31t31 12q19 0 31.5-12t12.5-31z" glyph-name="edieresis" horiz-adv-x="523" unicode="ë"/><glyph d="M407 124l46-13q-16-59-61.5-90T278-10q-100 0-153.5 63.5T71 234v20q0 115 52 179t146 64q85 0 137-51.5T458 306q0-14-1.5-29t-4.5-32H139v-31q0-104 33.5-149T283 20q53 0 82.5 25t41.5 79zm-12 190q0 75-32 114t-94 39q-68 0-99-46t-31-146h254q1 16 1.5 26t.5 13zM286 598l-19-19q-38 37-69.5 76.5T139 740h76q12-45 27.5-76t43.5-66z" glyph-name="egrave" horiz-adv-x="523" unicode="è"/><glyph d="M407 124l46-13q-16-59-61.5-90T278-10q-100 0-153.5 63.5T71 234v20q0 115 52 179t146 64q85 0 137-51.5T458 306q0-14-1.5-29t-4.5-32H139v-31q0-104 33.5-149T283 20q53 0 82.5 25t41.5 79zm-12 190q0 75-32 114t-94 39q-68 0-99-46t-31-146h254q1 16 1.5 26t.5 13zM266 632q47 0 73 24.5t40 83.5l26-7q-14-80-47.5-117T266 579q-58 0-91.5 37T127 733l26 7q14-59 40-83.5t73-24.5z" glyph-name="ebreve" horiz-adv-x="523" unicode="ĕ"/><glyph d="M407 124l46-13q-16-59-61.5-90T278-10q-100 0-153.5 63.5T71 234v20q0 115 52 179t146 64q85 0 137-51.5T458 306q0-14-1.5-29t-4.5-32H139v-31q0-104 33.5-149T283 20q53 0 82.5 25t41.5 79zm-12 190q0 75-32 114t-94 39q-68 0-99-46t-31-146h254q1 16 1.5 26t.5 13zm-21 431l19-19q-40-42-59.5-70T292 584h-52q-22 44-41.5 72T139 726l19 19q34-29 61-55t50-51q22 25 47 50.5t58 55.5z" glyph-name="ecaron" horiz-adv-x="523" unicode="ě"/><glyph d="M407 124l46-13q-16-59-61.5-90T278-10q-100 0-153.5 63.5T71 234v20q0 115 52 179t146 64q85 0 137-51.5T458 306q0-14-1.5-29t-4.5-32H139v-31q0-104 33.5-149T283 20q53 0 82.5 25t41.5 79zm-12 190q0 75-32 114t-94 39q-68 0-99-46t-31-146h254q1 16 1.5 26t.5 13zm-83 349q0-20-13-33t-33-13q-20 0-32.5 13T221 663q0 20 13 32.5t32 12.5q20 0 33-12.5t13-32.5z" glyph-name="edotaccent" horiz-adv-x="523" unicode="ė"/><glyph d="M407 124l46-13q-16-59-61.5-90T278-10q-100 0-153.5 63.5T71 234v20q0 115 52 179t146 64q85 0 137-51.5T458 306q0-14-1.5-29t-4.5-32H139v-31q0-104 33.5-149T283 20q53 0 82.5 25t41.5 79zm-12 190q0 75-32 114t-94 39q-68 0-99-46t-31-146h254q1 16 1.5 26t.5 13zM123 662h287v-43H123z" glyph-name="emacron" horiz-adv-x="523" unicode="ē"/><glyph d="M409-112l44-13q-13-48-45-73t-78-25q-47 0-76.5 25T224-133q0 33 19 61t73 65q-10-2-19.5-2.5T278-10q-100 0-153.5 63.5T71 234v20q0 115 52 179t146 64q85 0 137-51.5T458 306q0-14-1.5-29t-4.5-32H139v-31q0-104 33.5-149T283 20q53 0 82.5 25t41.5 79l46-13q-6-24-17.5-43T406 32q-14-12-42.5-34T322-35q-24-22-35-44t-11-48q0-33 15-51t43-18q29 0 47.5 21t27.5 63zm-14 426q0 75-32 114t-94 39q-68 0-99-46t-31-146h254v4q1 15 1.5 22t.5 13z" glyph-name="eogonek" horiz-adv-x="523" unicode="ę"/><glyph d="M495-63q0-77-56-118.5T280-223q-103 0-157 36.5T70-82l52 15q-3-63 36.5-94.5T280-193q82 0 128 29.5T454-80q0 43-28.5 63.5T337 4H215q-52 0-81 24t-29 65q0 28 13 52t41 47q-41 21-63 57t-22 84q0 76 50 120t134 44h17q27 0 52-5.5t46-15.5l145 37 10-59H407q25-21 38-52t13-69q0-74-50.5-118T275 171h-17q-18 0-35 2.5t-32 6.5q-20-14-30-30.5T151 114q0-25 15.5-38T212 63h130q75 0 114-32t39-94zM258 201h17q57 0 86 33t29 99q0 67-29 100.5T275 467h-17q-58 0-87-33.5T142 333q0-66 29-99t87-33zm13 431q47 0 73 24.5t40 83.5l26-7q-14-80-47.5-117T271 579q-58 0-91.5 37T132 733l26 7q14-59 40-83.5t73-24.5z" glyph-name="gbreve" horiz-adv-x="546" unicode="ğ"/><glyph d="M495-63q0-77-56-118.5T280-223q-103 0-157 36.5T70-82l52 15q-3-63 36.5-94.5T280-193q82 0 128 29.5T454-80q0 43-28.5 63.5T337 4H215q-52 0-81 24t-29 65q0 28 13 52t41 47q-41 21-63 57t-22 84q0 76 50 120t134 44h17q27 0 52-5.5t46-15.5l145 37 10-59H407q25-21 38-52t13-69q0-74-50.5-118T275 171h-17q-18 0-35 2.5t-32 6.5q-20-14-30-30.5T151 114q0-25 15.5-38T212 63h130q75 0 114-32t39-94zM258 201h17q57 0 86 33t29 99q0 67-29 100.5T275 467h-17q-58 0-87-33.5T142 333q0-66 29-99t87-33zm140 397l-19-19q-34 29-61 55t-50 51q-19-22-43-46.5T163 579l-19 19q40 42 59.5 70t41.5 72h52q22-44 41.5-72t59.5-70z" glyph-name="gcircumflex" horiz-adv-x="546" unicode="ĝ"/><glyph d="M495-63q0-77-56-118.5T280-223q-103 0-157 36.5T70-82l52 15q-3-63 36.5-94.5T280-193q82 0 128 29.5T454-80q0 43-28.5 63.5T337 4H215q-52 0-81 24t-29 65q0 28 13 52t41 47q-41 21-63 57t-22 84q0 76 50 120t134 44h17q27 0 52-5.5t46-15.5l145 37 10-59H407q25-21 38-52t13-69q0-74-50.5-118T275 171h-17q-18 0-35 2.5t-32 6.5q-20-14-30-30.5T151 114q0-25 15.5-38T212 63h130q75 0 114-32t39-94zM258 201h17q57 0 86 33t29 99q0 67-29 100.5T275 467h-17q-58 0-87-33.5T142 333q0-66 29-99t87-33zm57 544l20-14q-17-37-24-70.5t-7-76.5h-66q14 55 31 89.5t46 71.5z" glyph-name="gcommaaccent" horiz-adv-x="546" unicode="ģ"/><glyph d="M495-63q0-77-56-118.5T280-223q-103 0-157 36.5T70-82l52 15q-3-63 36.5-94.5T280-193q82 0 128 29.5T454-80q0 43-28.5 63.5T337 4H215q-52 0-81 24t-29 65q0 28 13 52t41 47q-41 21-63 57t-22 84q0 76 50 120t134 44h17q27 0 52-5.5t46-15.5l145 37 10-59H407q25-21 38-52t13-69q0-74-50.5-118T275 171h-17q-18 0-35 2.5t-32 6.5q-20-14-30-30.5T151 114q0-25 15.5-38T212 63h130q75 0 114-32t39-94zM258 201h17q57 0 86 33t29 99q0 67-29 100.5T275 467h-17q-58 0-87-33.5T142 333q0-66 29-99t87-33zm59 462q0-20-13-33t-33-13q-20 0-32.5 13T226 663q0 20 13 32.5t32 12.5q20 0 33-12.5t13-32.5z" glyph-name="gdotaccent" horiz-adv-x="546" unicode="ġ"/><glyph d="M196 30l55-5V0H37v25l55 5q16 2 19 8.5t3 40.5v508H37v30h77v44q0 34-3 40.5T92 710l-55 5v25h137V617h158v-30H174V414q37 41 81 62t93 21q73 0 112-44t39-126V79q0-34 3-40.5t19-8.5l55-5V0H362v25l55 5q16 2 19 8.5t3 40.5v247q0 71-23.5 104T339 463q-46 0-87-22.5T174 372V79q0-34 3-40.5t19-8.5z" glyph-name="hbar" horiz-adv-x="607" unicode="ħ"/><glyph d="M521 30l55-5V0H362v25l55 5q16 2 19 8.5t3 40.5v247q0 71-23.5 104T339 463q-46 0-87-22.5T174 372V79q0-34 3-40.5t19-8.5l55-5V0H37v25l55 5q16 2 19 8.5t3 40.5v582q0 34-3 40.5T92 710l-55 5v25h137V414q37 41 81 62t93 21q73 0 112-44t39-126V79q0-34 3-40.5t19-8.5zM372 820l-19-19q-34 29-61 55t-50 51q-19-22-43-46.5T137 801l-19 19q40 42 59.5 70t41.5 72h52q22-44 41.5-72t59.5-70z" glyph-name="hcircumflex" horiz-adv-x="607" unicode="ĥ"/><glyph d="M98 457l-55 5v25h137V79q0-34 3-40.5t19-8.5l55-5V0H43v25l55 5q16 2 19 8.5t3 40.5v329q0 34-3 40.5T98 457zm45 122l-19 19q28 35 43.5 66t27.5 76h76q-27-45-58.5-84.5T143 579z" glyph-name="iacute" horiz-adv-x="294" unicode="í"/><glyph d="M98 457l-55 5v25h137V79q0-34 3-40.5t19-8.5l55-5V0H43v25l55 5q16 2 19 8.5t3 40.5v329q0 34-3 40.5T98 457zm173 141l-19-19q-34 29-61 55t-50 51q-19-22-43-46.5T36 579l-19 19q40 42 59.5 70t41.5 72h52q22-44 41.5-72t59.5-70z" glyph-name="icircumflex" horiz-adv-x="294" unicode="î"/><glyph d="M98 457l-55 5v25h137V79q0-34 3-40.5t19-8.5l55-5V0H43v25l55 5q16 2 19 8.5t3 40.5v329q0 34-3 40.5T98 457zM88 663q0-19-12-31.5T44 619q-19 0-31 12.5T1 663q0 19 12 31t31 12q19 0 31.5-12T88 663zm199 0q0-19-12-31.5T243 619q-19 0-31 12.5T200 663q0 19 12 31t31 12q19 0 31.5-12t12.5-31z" glyph-name="idieresis" horiz-adv-x="294" unicode="ï"/><glyph d="M98 457l-55 5v25h137V79q0-34 3-40.5t19-8.5l55-5V0H43v25l55 5q16 2 19 8.5t3 40.5v329q0 34-3 40.5T98 457zm66 141l-19-19q-38 37-69.5 76.5T17 740h76q12-45 27.5-76t43.5-66z" glyph-name="igrave" horiz-adv-x="294" unicode="ì"/><glyph d="M98 457l-55 5v25h137V79q0-34 3-40.5t19-8.5l55-5V0H43v25l55 5q16 2 19 8.5t3 40.5v329q0 34-3 40.5T98 457zm46 175q47 0 73 24.5t40 83.5l26-7q-14-80-47.5-117T144 579q-58 0-91.5 37T5 733l26 7q14-59 40-83.5t73-24.5z" glyph-name="ibreve" horiz-adv-x="294" unicode="ĭ"/><glyph d="M195 663q0-20-13-33t-33-13q-20 0-32.5 13T104 663q0 20 13 32.5t32 12.5q20 0 33-12.5t13-32.5zM98 457l-55 5v25h137V79q0-34 3-40.5t19-8.5l55-5V0H43v25l55 5q16 2 19 8.5t3 40.5v329q0 34-3 40.5T98 457z" glyph-name="i.dot" horiz-adv-x="294"/><glyph d="M98 457l-55 5v25h137V79q0-34 3-40.5t19-8.5l55-5V0H43v25l55 5q16 2 19 8.5t3 40.5v329q0 34-3 40.5T98 457zM1 662h287v-43H1z" glyph-name="imacron" horiz-adv-x="294" unicode="ī"/><glyph d="M193 663q0-20-13-33t-33-13q-20 0-32.5 13T102 663q0 20 13 32.5t32 12.5q20 0 33-12.5t13-32.5zM96 457l-55 5v25h137V79q0-34 3-40.5t19-8.5l55-5V0h-58q-53 0-83.5-34T83-127q0-34 14.5-51.5T141-196q29 0 47.5 21t27.5 63l44-13q-13-47-45.5-72.5T137-223q-48 0-77 26t-29 70q0 45 23 81t64 55v399q0 34-3 40.5T96 457z" glyph-name="iogonek" horiz-adv-x="292" unicode="į"/><glyph d="M98 457l-55 5v25h137V79q0-34 3-40.5t19-8.5l55-5V0H43v25l55 5q16 2 19 8.5t3 40.5v329q0 34-3 40.5T98 457zm117 136q-19 0-37.5 10.5T129 646q-24 25-36.5 32.5T69 686q-20 0-32-20.5T24 608H-5q1 61 22 94t58 33q19 0 37.5-10.5T161 682q23-25 35-32.5t23-7.5q20 0 32 20.5t13 57.5h29q-1-60-22-93.5T215 593z" glyph-name="itilde" horiz-adv-x="294" unicode="ĩ"/><glyph d="M91 457l-55 5v25h137V-64q0-75-34.5-117T41-223q-51 0-81.5 28T-80-111l49 12q3-49 19.5-71.5T38-193q42 0 58.5 30T113-64v472q0 34-3 40.5T91 457zm160 141l-19-19q-34 29-61 55t-50 51q-19-22-43-46.5T16 579l-19 19q40 42 59.5 70T98 740h52q22-44 41.5-72t59.5-70z" glyph-name="jcircumflex" horiz-adv-x="280" unicode="ĵ"/><glyph d="M195 663q0-20-13-33t-33-13q-20 0-32.5 13T104 663q0 20 13 32.5t32 12.5q20 0 33-12.5t13-32.5zM98 457l-55 5v25h137V79q0-34 3-40.5t19-8.5l55-5V0H43v25l55 5q16 2 19 8.5t3 40.5v329q0 34-3 40.5T98 457zm384 206q0-20-13-33t-33-13q-20 0-32.5 13T391 663q0 20 13 32.5t32 12.5q20 0 33-12.5t13-32.5zm-97-206l-55 5v25h137V-64q0-75-34.5-117T335-223q-51 0-81.5 28T214-111l49 12q3-49 19.5-71.5T332-193q42 0 58.5 30T407-64v472q0 34-3 40.5t-19 8.5z" glyph-name="ij" horiz-adv-x="574" unicode="ĳ"/><glyph d="M92 710l-55 5v25h137V210l198 208q24 26 26 31.5t-15 7.5l-49 5v25h186v-25l-49-5q-14-1-21-6t-34-33L297 294 447 69q18-27 24-32.5t22-6.5l49-5V0H419L256 251l-82-86V79q0-34 3-40.5t19-8.5l55-5V0H37v25l55 5q16 2 19 8.5t3 40.5v582q0 34-3 40.5T92 710zm165-948l-20 14q17 37 24 70.5t7 76.5h66q-14-55-31-89.5T257-238z" glyph-name="kcommaaccent" horiz-adv-x="546" unicode="ķ"/><glyph d="M98 457l-55 5v25h137V210l198 208q24 26 26 31.5t-15 7.5l-49 5v25h186v-25l-49-5q-14-1-21-6t-34-33L303 294 453 69q18-27 24-32.5t22-6.5l49-5V0H425L262 251l-82-86V79q0-34 3-40.5t19-8.5l55-5V0H43v25l55 5q16 2 19 8.5t3 40.5v329q0 34-3 40.5T98 457z" glyph-name="kgreenlandic" horiz-adv-x="552" unicode="ĸ"/><glyph d="M92 710l-55 5v25h137V79q0-34 3-40.5t19-8.5l55-5V0H37v25l55 5q16 2 19 8.5t3 40.5v582q0 34-3 40.5T92 710zm54 91l-19 19q28 35 43.5 66t27.5 76h76q-27-45-58.5-84.5T146 801z" glyph-name="lacute" horiz-adv-x="288" unicode="ĺ"/><glyph d="M92 710l-55 5v25h137V79q0-34 3-40.5t19-8.5l55-5V0H37v25l55 5q16 2 19 8.5t3 40.5v582q0 34-3 40.5T92 710zm193-184h-19v214h64q-10-60-21-112t-24-102z" glyph-name="lcaron" horiz-adv-x="342" unicode="ľ"/><glyph d="M92 710l-55 5v25h137V79q0-34 3-40.5t19-8.5l55-5V0H37v25l55 5q16 2 19 8.5t3 40.5v582q0 34-3 40.5T92 710zm8-948l-20 14q17 37 24 70.5t7 76.5h66q-14-55-31-89.5T100-238z" glyph-name="lcommaaccent" horiz-adv-x="288" unicode="ļ"/><glyph d="M92 710l-55 5v25h137V79q0-34 3-40.5t19-8.5l55-5V0H37v25l55 5q16 2 19 8.5t3 40.5v582q0 34-3 40.5T92 710zm242-325q0-20-13-33t-33-13q-20 0-32.5 13T243 385q0 20 13 32.5t32 12.5q20 0 33-12.5t13-32.5z" glyph-name="ldot" horiz-adv-x="288" unicode="ŀ"/><glyph d="M527 30l55-5V0H368v25l55 5q16 2 19 8.5t3 40.5v247q0 71-23.5 104T345 463q-46 0-87-22.5T180 372V79q0-34 3-40.5t19-8.5l55-5V0H43v25l55 5q16 2 19 8.5t3 40.5v329q0 34-3 40.5T98 457l-55 5v25h133v-78q38 43 83 65.5t95 22.5q73 0 112-44t39-126V79q0-34 3-40.5t19-8.5zM384 593q-19 0-37.5 10.5T298 646q-24 25-36.5 32.5T238 686q-20 0-32-20.5T193 608h-29q1 61 22 94t58 33q19 0 37.5-10.5T330 682q23-25 35-32.5t23-7.5q20 0 32 20.5t13 57.5h29q-1-60-22-93.5T384 593z" glyph-name="ntilde" horiz-adv-x="613" unicode="ñ"/><glyph d="M527 30l55-5V0H368v25l55 5q16 2 19 8.5t3 40.5v247q0 71-23.5 104T345 463q-46 0-87-22.5T180 372V79q0-34 3-40.5t19-8.5l55-5V0H43v25l55 5q16 2 19 8.5t3 40.5v329q0 34-3 40.5T98 457l-55 5v25h133v-78q38 43 83 65.5t95 22.5q73 0 112-44t39-126V79q0-34 3-40.5t19-8.5zM312 579l-19 19q28 35 43.5 66t27.5 76h76q-27-45-58.5-84.5T312 579z" glyph-name="nacute" horiz-adv-x="613" unicode="ń"/><glyph d="M527 30l55-5V0H368v25l55 5q16 2 19 8.5t3 40.5v247q0 71-23.5 104T345 463q-46 0-87-22.5T180 372V79q0-34 3-40.5t19-8.5l55-5V0H43v25l55 5q16 2 19 8.5t3 40.5v329q0 34-3 40.5T98 457l-55 5v25h133v-78q38 43 83 65.5t95 22.5q73 0 112-44t39-126V79q0-34 3-40.5t19-8.5zM421 745l19-19q-40-42-59.5-70T339 584h-52q-22 44-41.5 72T186 726l19 19q34-29 61-55t50-51q22 25 47 50.5t58 55.5z" glyph-name="ncaron" horiz-adv-x="613" unicode="ň"/><glyph d="M527 30l55-5V0H368v25l55 5q16 2 19 8.5t3 40.5v247q0 71-23.5 104T345 463q-46 0-87-22.5T180 372V79q0-34 3-40.5t19-8.5l55-5V0H43v25l55 5q16 2 19 8.5t3 40.5v329q0 34-3 40.5T98 457l-55 5v25h133v-78q38 43 83 65.5t95 22.5q73 0 112-44t39-126V79q0-34 3-40.5t19-8.5zM269-238l-20 14q17 37 24 70.5t7 76.5h66q-14-55-31-89.5T269-238z" glyph-name="ncommaaccent" horiz-adv-x="613" unicode="ņ"/><glyph d="M98 457l-55 5v25h133v-78q38 43 83 65.5t95 22.5q73 0 112-44t39-126V-64q0-75-34.5-117T373-223q-51 0-81.5 28T252-111l49 12q3-49 19.5-71.5T370-193q42 0 58.5 30T445-64v390q0 71-23.5 104T345 463q-46 0-87-22.5T180 372V79q0-34 3-40.5t19-8.5l55-5V0H43v25l55 5q16 2 19 8.5t3 40.5v329q0 34-3 40.5T98 457z" glyph-name="eng" horiz-adv-x="610" unicode="ŋ"/><glyph d="M604 30l55-5V0H445v25l55 5q16 2 19 8.5t3 40.5v247q0 71-23.5 104T422 463q-46 0-87-22.5T257 372V79q0-34 3-40.5t19-8.5l55-5V0H120v25l55 5q16 2 19 8.5t3 40.5v329q0 34-3 40.5t-19 8.5l-55 5v25h133v-78q38 43 83 65.5t95 22.5q73 0 112-44t39-126V79q0-34 3-40.5t19-8.5zM43 690q20 0 32-14t12-38q0-38-22.5-89T4 449l-21 18q31 44 45.5 75.5T45 603h-2q-19 0-31 12.5T0 647q0 19 12 31t31 12z" glyph-name="napostrophe" horiz-adv-x="690" unicode="ŉ"/><glyph d="M277 497q97 0 152.5-65T485 254v-20q0-113-55.5-178.5T277-10q-97 0-152.5 65T69 234v20q0 114 55 178.5T277 497zm140-283v60q0 98-34.5 145.5T277 467q-71 0-105.5-47.5T137 274v-60q0-98 34.5-146T277 20q71 0 105.5 48T417 214zM276 579l-19 19q28 35 43.5 66t27.5 76h76q-27-45-58.5-84.5T276 579z" glyph-name="oacute" horiz-adv-x="554" unicode="ó"/><glyph d="M277 497q97 0 152.5-65T485 254v-20q0-113-55.5-178.5T277-10q-97 0-152.5 65T69 234v20q0 114 55 178.5T277 497zm140-283v60q0 98-34.5 145.5T277 467q-71 0-105.5-47.5T137 274v-60q0-98 34.5-146T277 20q71 0 105.5 48T417 214zm-13 384l-19-19q-34 29-61 55t-50 51q-19-22-43-46.5T169 579l-19 19q40 42 59.5 70t41.5 72h52q22-44 41.5-72t59.5-70z" glyph-name="ocircumflex" horiz-adv-x="554" unicode="ô"/><glyph d="M277 497q97 0 152.5-65T485 254v-20q0-113-55.5-178.5T277-10q-97 0-152.5 65T69 234v20q0 114 55 178.5T277 497zm140-283v60q0 98-34.5 145.5T277 467q-71 0-105.5-47.5T137 274v-60q0-98 34.5-146T277 20q71 0 105.5 48T417 214zM221 663q0-19-12-31.5T177 619q-19 0-31 12.5T134 663q0 19 12 31t31 12q19 0 31.5-12t12.5-31zm199 0q0-19-12-31.5T376 619q-19 0-31 12.5T333 663q0 19 12 31t31 12q19 0 31.5-12t12.5-31z" glyph-name="odieresis" horiz-adv-x="554" unicode="ö"/><glyph d="M277 497q97 0 152.5-65T485 254v-20q0-113-55.5-178.5T277-10q-97 0-152.5 65T69 234v20q0 114 55 178.5T277 497zm140-283v60q0 98-34.5 145.5T277 467q-71 0-105.5-47.5T137 274v-60q0-98 34.5-146T277 20q71 0 105.5 48T417 214zM297 598l-19-19q-38 37-69.5 76.5T150 740h76q12-45 27.5-76t43.5-66z" glyph-name="ograve" horiz-adv-x="554" unicode="ò"/><glyph d="M277 497q97 0 152.5-65T485 254v-20q0-113-55.5-178.5T277-10q-97 0-152.5 65T69 234v20q0 114 55 178.5T277 497zm140-283v60q0 98-34.5 145.5T277 467q-71 0-105.5-47.5T137 274v-60q0-98 34.5-146T277 20q71 0 105.5 48T417 214zm-69 379q-19 0-37.5 10.5T262 646q-24 25-36.5 32.5T202 686q-20 0-32-20.5T157 608h-29q1 61 22 94t58 33q19 0 37.5-10.5T294 682q23-25 35-32.5t23-7.5q20 0 32 20.5t13 57.5h29q-1-60-22-93.5T348 593z" glyph-name="otilde" horiz-adv-x="554" unicode="õ"/><glyph d="M277 497q97 0 152.5-65T485 254v-20q0-113-55.5-178.5T277-10q-97 0-152.5 65T69 234v20q0 114 55 178.5T277 497zm140-283v60q0 98-34.5 145.5T277 467q-71 0-105.5-47.5T137 274v-60q0-98 34.5-146T277 20q71 0 105.5 48T417 214zM277 632q47 0 73 24.5t40 83.5l26-7q-14-80-47.5-117T277 579q-58 0-91.5 37T138 733l26 7q14-59 40-83.5t73-24.5z" glyph-name="obreve" horiz-adv-x="554" unicode="ŏ"/><glyph d="M277 497q97 0 152.5-65T485 254v-20q0-113-55.5-178.5T277-10q-97 0-152.5 65T69 234v20q0 114 55 178.5T277 497zm140-283v60q0 98-34.5 145.5T277 467q-71 0-105.5-47.5T137 274v-60q0-98 34.5-146T277 20q71 0 105.5 48T417 214zM210 579l-21 15q17 32 30 66t25 80h71q-21-41-48.5-83T210 579zm140 0l-21 15q17 32 30 66t25 80h71q-21-41-48.5-83T350 579z" glyph-name="ohungarumlaut" horiz-adv-x="554" unicode="ő"/><glyph d="M277 497q97 0 152.5-65T485 254v-20q0-113-55.5-178.5T277-10q-97 0-152.5 65T69 234v20q0 114 55 178.5T277 497zm140-283v60q0 98-34.5 145.5T277 467q-71 0-105.5-47.5T137 274v-60q0-98 34.5-146T277 20q71 0 105.5 48T417 214zM134 662h287v-43H134z" glyph-name="omacron" horiz-adv-x="554" unicode="ō"/><glyph d="M98 457l-55 5v25h133v-78q36 45 71 66.5t71 21.5q33 0 60.5-18.5T424 426l-49-34q-15 32-34 46.5T296 453q-30 0-56-19.5T180 368V79q0-34 3-41t19-8l75-5V0H43v25l55 5q16 2 19 8.5t3 40.5v329q0 34-3 40.5T98 457zm147 122l-19 19q28 35 43.5 66t27.5 76h76q-27-45-58.5-84.5T245 579z" glyph-name="racute" horiz-adv-x="425" unicode="ŕ"/><glyph d="M98 457l-55 5v25h133v-78q36 45 71 66.5t71 21.5q33 0 60.5-18.5T424 426l-49-34q-15 32-34 46.5T296 453q-30 0-56-19.5T180 368V79q0-34 3-41t19-8l75-5V0H43v25l55 5q16 2 19 8.5t3 40.5v329q0 34-3 40.5T98 457zm260 288l19-19q-40-42-59.5-70T276 584h-52q-22 44-41.5 72T123 726l19 19q34-29 61-55t50-51q22 25 47 50.5t58 55.5z" glyph-name="rcaron" horiz-adv-x="425" unicode="ř"/><glyph d="M98 457l-55 5v25h133v-78q36 45 71 66.5t71 21.5q33 0 60.5-18.5T424 426l-49-34q-15 32-34 46.5T296 453q-30 0-56-19.5T180 368V79q0-34 3-41t19-8l75-5V0H43v25l55 5q16 2 19 8.5t3 40.5v329q0 34-3 40.5T98 457zm8-695l-20 14q17 37 24 70.5t7 76.5h66q-14-55-31-89.5T106-238z" glyph-name="rcommaaccent" horiz-adv-x="425" unicode="ŗ"/><glyph d="M356 113q0 36-26.5 59T244 211l-57 15q-59 16-89.5 50T67 361q0 60 43 98t116 38q86 0 130-42t35-111l-57-10q11 65-17 99t-92 34q-53 0-82-24.5T114 374q0-35 22.5-56.5T207 284l58-15q69-18 103.5-53.5T403 126q0-63-44.5-99.5T237-10q-70 0-118 32t-64 89l49 16q13-54 46.5-81T239 19q51 0 84 25t33 69zm-11 632l19-19q-40-42-59.5-70T263 584h-52q-22 44-41.5 72T110 726l19 19q34-29 61-55t50-51q22 25 47 50.5t58 55.5z" glyph-name="scaron" horiz-adv-x="470" unicode="š"/><glyph d="M356 113q0 36-26.5 59T244 211l-57 15q-59 16-89.5 50T67 361q0 60 43 98t116 38q86 0 130-42t35-111l-57-10q11 65-17 99t-92 34q-53 0-82-24.5T114 374q0-35 22.5-56.5T207 284l58-15q69-18 103.5-53.5T403 126q0-63-44.5-99.5T237-10q-70 0-118 32t-64 89l49 16q13-54 46.5-81T239 19q51 0 84 25t33 69zM236 579l-19 19q28 35 43.5 66t27.5 76h76q-27-45-58.5-84.5T236 579z" glyph-name="sacute" horiz-adv-x="470" unicode="ś"/><glyph d="M332-141q0-38-28.5-60T227-223q-44 0-71 20t-34 58l44 13q4-34 18-50t41-16q26 0 40 15t14 42q0 28-15 41.5T218-86q-6 0-13.5-.5T193-88l-9 25 23 55q-59 7-98.5 38T55 111l49 16q13-54 46.5-81T239 19q51 0 84 25t33 69q0 36-26.5 59T244 211l-57 15q-59 16-89.5 50T67 361q0 60 43 98t116 38q86 0 130-42t35-111l-57-10q11 65-17 99t-92 34q-53 0-82-24.5T114 374q0-35 22.5-56.5T207 284l58-15q69-18 103.5-53.5T403 126q0-62-44.5-99T238-10l-21-50h4q51 0 81-21.5t30-59.5z" glyph-name="scedilla" horiz-adv-x="470" unicode="ş"/><glyph d="M356 113q0 36-26.5 59T244 211l-57 15q-59 16-89.5 50T67 361q0 60 43 98t116 38q86 0 130-42t35-111l-57-10q11 65-17 99t-92 34q-53 0-82-24.5T114 374q0-35 22.5-56.5T207 284l58-15q69-18 103.5-53.5T403 126q0-63-44.5-99.5T237-10q-70 0-118 32t-64 89l49 16q13-54 46.5-81T239 19q51 0 84 25t33 69zm8 485l-19-19q-34 29-61 55t-50 51q-19-22-43-46.5T129 579l-19 19q40 42 59.5 70t41.5 72h52q22-44 41.5-72t59.5-70z" glyph-name="scircumflex" horiz-adv-x="470" unicode="ŝ"/><glyph d="M356 113q0 36-26.5 59T244 211l-57 15q-59 16-89.5 50T67 361q0 60 43 98t116 38q86 0 130-42t35-111l-57-10q11 65-17 99t-92 34q-53 0-82-24.5T114 374q0-35 22.5-56.5T207 284l58-15q69-18 103.5-53.5T403 126q0-63-44.5-99.5T237-10q-70 0-118 32t-64 89l49 16q13-54 46.5-81T239 19q51 0 84 25t33 69zM188-238l-20 14q17 37 24 70.5t7 76.5h66q-14-55-31-89.5T188-238z" glyph-name="uni0219" horiz-adv-x="470" unicode="ș"/><glyph d="M312 114l47-12q-16-59-45.5-85.5T237-10q-59 0-92 38t-33 101v141H35v30h77v130.5q0 5.5-1 9.5-1 9-4 12.5T90 457l-55 5v25h77v142l60 12V487h165v-30H172V300h138v-30H172V129q0-57 16-83t52-26q30 0 46.5 21t25.5 73z" glyph-name="tbar" horiz-adv-x="385" unicode="ŧ"/><glyph d="M309 114l47-12q-16-59-45.5-85.5T234-10q-59 0-92 38t-33 101v301.5q0 5.5-1 9.5-1 9-4 12.5T87 457l-55 5v25h77v142l60 12V487h165v-30H169V129q0-57 16-83t52-26q30 0 46.5 21t25.5 73zm-44 442h-19v214h64q-10-60-21-112t-24-102z" glyph-name="tcaron" horiz-adv-x="382" unicode="ť"/><glyph d="M309 114l47-12q-16-59-45.5-85.5T234-10q-59 0-92 38t-33 101v301.5q0 5.5-1 9.5-1 9-4 12.5T87 457l-55 5v25h77v142l60 12V487h165v-30H169V129q0-57 16-83t52-26q30 0 46.5 21t25.5 73zM183-238l-20 14q17 37 24 70.5t7 76.5h66q-14-55-31-89.5T183-238z" glyph-name="uni0163" horiz-adv-x="382" unicode="ţ"/><glyph d="M309 114l47-12q-16-59-45.5-85.5T234-10q-59 0-92 38t-33 101v301.5q0 5.5-1 9.5-1 9-4 12.5T87 457l-55 5v25h77v142l60 12V487h165v-30H169V129q0-57 16-83t52-26q30 0 46.5 21t25.5 73zM183-238l-20 14q17 37 24 70.5t7 76.5h66q-14-55-31-89.5T183-238z" glyph-name="uni021B" horiz-adv-x="382" unicode="ț"/><glyph d="M503 30l55-5V0H425v78q-37-43-81-65.5T252-10q-70 0-108 44t-38 126v248q0 34-3 40.5T84 457l-55 5v25h137V161q0-71 22.5-104T261 24q44 0 84 22.5t76 68.5v293q0 34-3 41t-19 8l-75 5v25h157V79q0-34 3-40.5t19-8.5zM293 579l-19 19q28 35 43.5 66t27.5 76h76q-27-45-58.5-84.5T293 579z" glyph-name="uacute" horiz-adv-x="595" unicode="ú"/><glyph d="M503 30l55-5V0H425v78q-37-43-81-65.5T252-10q-70 0-108 44t-38 126v248q0 34-3 40.5T84 457l-55 5v25h137V161q0-71 22.5-104T261 24q44 0 84 22.5t76 68.5v293q0 34-3 41t-19 8l-75 5v25h157V79q0-34 3-40.5t19-8.5zm-82 568l-19-19q-34 29-61 55t-50 51q-19-22-43-46.5T186 579l-19 19q40 42 59.5 70t41.5 72h52q22-44 41.5-72t59.5-70z" glyph-name="ucircumflex" horiz-adv-x="595" unicode="û"/><glyph d="M503 30l55-5V0H425v78q-37-43-81-65.5T252-10q-70 0-108 44t-38 126v248q0 34-3 40.5T84 457l-55 5v25h137V161q0-71 22.5-104T261 24q44 0 84 22.5t76 68.5v293q0 34-3 41t-19 8l-75 5v25h157V79q0-34 3-40.5t19-8.5zM238 663q0-19-12-31.5T194 619q-19 0-31 12.5T151 663q0 19 12 31t31 12q19 0 31.5-12t12.5-31zm199 0q0-19-12-31.5T393 619q-19 0-31 12.5T350 663q0 19 12 31t31 12q19 0 31.5-12t12.5-31z" glyph-name="udieresis" horiz-adv-x="595" unicode="ü"/><glyph d="M503 30l55-5V0H425v78q-37-43-81-65.5T252-10q-70 0-108 44t-38 126v248q0 34-3 40.5T84 457l-55 5v25h137V161q0-71 22.5-104T261 24q44 0 84 22.5t76 68.5v293q0 34-3 41t-19 8l-75 5v25h157V79q0-34 3-40.5t19-8.5zM314 598l-19-19q-38 37-69.5 76.5T167 740h76q12-45 27.5-76t43.5-66z" glyph-name="ugrave" horiz-adv-x="595" unicode="ù"/><glyph d="M503 30l55-5V0H425v78q-37-43-81-65.5T252-10q-70 0-108 44t-38 126v248q0 34-3 40.5T84 457l-55 5v25h137V161q0-71 22.5-104T261 24q44 0 84 22.5t76 68.5v293q0 34-3 41t-19 8l-75 5v25h157V79q0-34 3-40.5t19-8.5zM294 632q47 0 73 24.5t40 83.5l26-7q-14-80-47.5-117T294 579q-58 0-91.5 37T155 733l26 7q14-59 40-83.5t73-24.5z" glyph-name="ubreve" horiz-adv-x="595" unicode="ŭ"/><glyph d="M503 30l55-5V0H425v78q-37-43-81-65.5T252-10q-70 0-108 44t-38 126v248q0 34-3 40.5T84 457l-55 5v25h137V161q0-71 22.5-104T261 24q44 0 84 22.5t76 68.5v293q0 34-3 41t-19 8l-75 5v25h157V79q0-34 3-40.5t19-8.5zM227 579l-21 15q17 32 30 66t25 80h71q-21-41-48.5-83T227 579zm140 0l-21 15q17 32 30 66t25 80h71q-21-41-48.5-83T367 579z" glyph-name="uhungarumlaut" horiz-adv-x="595" unicode="ű"/><glyph d="M503 30l55-5V0H425v78q-37-43-81-65.5T252-10q-70 0-108 44t-38 126v248q0 34-3 40.5T84 457l-55 5v25h137V161q0-71 22.5-104T261 24q44 0 84 22.5t76 68.5v293q0 34-3 41t-19 8l-75 5v25h157V79q0-34 3-40.5t19-8.5zM151 662h287v-43H151z" glyph-name="umacron" horiz-adv-x="595" unicode="ū"/><glyph d="M399 457l-75 5v25h157V79q0-34 3-40.5t19-8.5l55-5V0h-63q-53 0-83.5-34T381-127q0-34 14.5-51.5T439-196q29 0 47.5 21t27.5 63l44-13q-13-47-45.5-72.5T435-223q-48 0-77 26t-29 70q0 48 26 85.5T425 13v65q-37-43-81-65.5T252-10q-70 0-108 44t-38 126v248q0 34-3 40.5T84 457l-55 5v25h137V161q0-71 22.5-104T261 24q44 0 84 22.5t76 68.5v293q0 34-3 41t-19 8z" glyph-name="uogonek" horiz-adv-x="595" unicode="ų"/><glyph d="M503 30l55-5V0H425v78q-37-43-81-65.5T252-10q-70 0-108 44t-38 126v248q0 34-3 40.5T84 457l-55 5v25h137V161q0-71 22.5-104T261 24q44 0 84 22.5t76 68.5v293q0 34-3 41t-19 8l-75 5v25h157V79q0-34 3-40.5t19-8.5zM294 781q51 0 84.5-30.5T412 677v-11q0-43-33.5-74T294 561q-51 0-84.5 30.5T176 666v11q0 43 33.5 73.5T294 781zm67-122v25q0 34-18 53t-49 19q-31 0-48.5-19T228 684v-25q0-34 17.5-53.5T294 586q31 0 49 19.5t18 53.5z" glyph-name="uring" horiz-adv-x="595" unicode="ů"/><glyph d="M503 30l55-5V0H425v78q-37-43-81-65.5T252-10q-70 0-108 44t-38 126v248q0 34-3 40.5T84 457l-55 5v25h137V161q0-71 22.5-104T261 24q44 0 84 22.5t76 68.5v293q0 34-3 41t-19 8l-75 5v25h157V79q0-34 3-40.5t19-8.5zM365 593q-19 0-37.5 10.5T279 646q-24 25-36.5 32.5T219 686q-20 0-32-20.5T174 608h-29q1 61 22 94t58 33q19 0 37.5-10.5T311 682q23-25 35-32.5t23-7.5q20 0 32 20.5t13 57.5h29q-1-60-22-93.5T365 593z" glyph-name="utilde" horiz-adv-x="595" unicode="ũ"/><glyph d="M679 418L565 0h-48L379 422 242 0h-48L81 418q-7 27-11.5 32T49 457l-49 5v25h201v-25l-49-5q-16-2-17.5-7.5T140 418l92-348 135 417h49L552 69l92 349q7 26 5.5 31.5T632 457l-49 5v25h176v-25l-49-5q-15-2-19.5-7T679 418zM388 579l-19 19q28 35 43.5 66t27.5 76h76q-27-45-58.5-84.5T388 579z" glyph-name="wacute" horiz-adv-x="759" unicode="ẃ"/><glyph d="M679 418L565 0h-48L379 422 242 0h-48L81 418q-7 27-11.5 32T49 457l-49 5v25h201v-25l-49-5q-16-2-17.5-7.5T140 418l92-348 135 417h49L552 69l92 349q7 26 5.5 31.5T632 457l-49 5v25h176v-25l-49-5q-15-2-19.5-7T679 418zM516 598l-19-19q-34 29-61 55t-50 51q-19-22-43-46.5T281 579l-19 19q40 42 59.5 70t41.5 72h52q22-44 41.5-72t59.5-70z" glyph-name="wcircumflex" horiz-adv-x="759" unicode="ŵ"/><glyph d="M679 418L565 0h-48L379 422 242 0h-48L81 418q-7 27-11.5 32T49 457l-49 5v25h201v-25l-49-5q-16-2-17.5-7.5T140 418l92-348 135 417h49L552 69l92 349q7 26 5.5 31.5T632 457l-49 5v25h176v-25l-49-5q-15-2-19.5-7T679 418zM333 663q0-19-12-31.5T289 619q-19 0-31 12.5T246 663q0 19 12 31t31 12q19 0 31.5-12t12.5-31zm199 0q0-19-12-31.5T488 619q-19 0-31 12.5T445 663q0 19 12 31t31 12q19 0 31.5-12t12.5-31z" glyph-name="wdieresis" horiz-adv-x="759" unicode="ẅ"/><glyph d="M679 418L565 0h-48L379 422 242 0h-48L81 418q-7 27-11.5 32T49 457l-49 5v25h201v-25l-49-5q-16-2-17.5-7.5T140 418l92-348 135 417h49L552 69l92 349q7 26 5.5 31.5T632 457l-49 5v25h176v-25l-49-5q-15-2-19.5-7T679 418zM408 598l-19-19q-38 37-69.5 76.5T261 740h76q12-45 27.5-76t43.5-66z" glyph-name="wgrave" horiz-adv-x="759" unicode="ẁ"/><glyph d="M431 418L265-50q-35-97-76.5-135T77-223v60q66 0 99 26.5T233-43l15 43h-14L84 418q-9 24-13.5 30T49 456l-49 6v25h201v-25l-49-6q-16-2-17-7t8-31L270 62l126 356q9 25 7.5 30.5T386 456l-49 6v25h177v-25l-49-6q-15-2-19.5-7T431 418zM268 579l-19 19q28 35 43.5 66t27.5 76h76q-27-45-58.5-84.5T268 579z" glyph-name="yacute" horiz-adv-x="514" unicode="ý"/><glyph d="M431 418L265-50q-35-97-76.5-135T77-223v60q66 0 99 26.5T233-43l15 43h-14L84 418q-9 24-13.5 30T49 456l-49 6v25h201v-25l-49-6q-16-2-17-7t8-31L270 62l126 356q9 25 7.5 30.5T386 456l-49 6v25h177v-25l-49-6q-15-2-19.5-7T431 418zM213 663q0-19-12-31.5T169 619q-19 0-31 12.5T126 663q0 19 12 31t31 12q19 0 31.5-12t12.5-31zm199 0q0-19-12-31.5T368 619q-19 0-31 12.5T325 663q0 19 12 31t31 12q19 0 31.5-12t12.5-31z" glyph-name="ydieresis" horiz-adv-x="514" unicode="ÿ"/><glyph d="M431 418L265-50q-35-97-76.5-135T77-223v60q66 0 99 26.5T233-43l15 43h-14L84 418q-9 24-13.5 30T49 456l-49 6v25h201v-25l-49-6q-16-2-17-7t8-31L270 62l126 356q9 25 7.5 30.5T386 456l-49 6v25h177v-25l-49-6q-15-2-19.5-7T431 418zm-35 180l-19-19q-34 29-61 55t-50 51q-19-22-43-46.5T161 579l-19 19q40 42 59.5 70t41.5 72h52q22-44 41.5-72t59.5-70z" glyph-name="ycircumflex" horiz-adv-x="514" unicode="ŷ"/><glyph d="M431 418L265-50q-35-97-76.5-135T77-223v60q66 0 99 26.5T233-43l15 43h-14L84 418q-9 24-13.5 30T49 456l-49 6v25h201v-25l-49-6q-16-2-17-7t8-31L270 62l126 356q9 25 7.5 30.5T386 456l-49 6v25h177v-25l-49-6q-15-2-19.5-7T431 418zM289 598l-19-19q-38 37-69.5 76.5T142 740h76q12-45 27.5-76t43.5-66z" glyph-name="ygrave" horiz-adv-x="514" unicode="ỳ"/><glyph d="M356 56l27 81h25V0H51v25l278 432H167q-30 0-38.5-3T113 431l-27-81H61v137h337v-25L120 30h182q30 0 38.5 3T356 56zm-19 689l19-19q-40-42-59.5-70T255 584h-52q-22 44-41.5 72T102 726l19 19q34-29 61-55t50-51q22 25 47 50.5t58 55.5z" glyph-name="zcaron" horiz-adv-x="459" unicode="ž"/><glyph d="M356 56l27 81h25V0H51v25l278 432H167q-30 0-38.5-3T113 431l-27-81H61v137h337v-25L120 30h182q30 0 38.5 3T356 56zM228 579l-19 19q28 35 43.5 66t27.5 76h76q-27-45-58.5-84.5T228 579z" glyph-name="zacute" horiz-adv-x="459" unicode="ź"/><glyph d="M356 56l27 81h25V0H51v25l278 432H167q-30 0-38.5-3T113 431l-27-81H61v137h337v-25L120 30h182q30 0 38.5 3T356 56zm-81 607q0-20-13-33t-33-13q-20 0-32.5 13T184 663q0 20 13 32.5t32 12.5q20 0 33-12.5t13-32.5z" glyph-name="zdotaccent" horiz-adv-x="459" unicode="ż"/><glyph d="M228 579l-19 19q28 35 43.5 66t27.5 76h76q-27-45-58.5-84.5T228 579z" glyph-name="acute" horiz-adv-x="500" unicode="´"/><glyph d="M289 598l-19-19q-38 37-69.5 76.5T142 740h76q12-45 27.5-76t43.5-66z" glyph-name="grave" horiz-adv-x="500" unicode="`"/><glyph d="M396 598l-19-19q-34 29-61 55t-50 51q-19-22-43-46.5T161 579l-19 19q40 42 59.5 70t41.5 72h52q22-44 41.5-72t59.5-70z" glyph-name="circumflex" horiz-adv-x="500" unicode="ˆ"/><glyph d="M337 745l19-19q-40-42-59.5-70T255 584h-52q-22 44-41.5 72T102 726l19 19q34-29 61-55t50-51q22 25 47 50.5t58 55.5z" glyph-name="caron" horiz-adv-x="500" unicode="ˇ"/><glyph d="M365 593q-19 0-37.5 10.5T279 646q-24 25-36.5 32.5T219 686q-20 0-32-20.5T174 608h-29q1 61 22 94t58 33q19 0 37.5-10.5T311 682q23-25 35-32.5t23-7.5q20 0 32 20.5t13 57.5h29q-1-60-22-93.5T365 593z" glyph-name="tilde" horiz-adv-x="500" unicode="˜"/><glyph d="M213 663q0-19-12-31.5T169 619q-19 0-31 12.5T126 663q0 19 12 31t31 12q19 0 31.5-12t12.5-31zm199 0q0-19-12-31.5T368 619q-19 0-31 12.5T325 663q0 19 12 31t31 12q19 0 31.5-12t12.5-31z" glyph-name="dieresis" horiz-adv-x="500" unicode="¨"/><glyph d="M294 781q51 0 84.5-30.5T412 677v-11q0-43-33.5-74T294 561q-51 0-84.5 30.5T176 666v11q0 43 33.5 73.5T294 781zm67-122v25q0 34-18 53t-49 19q-31 0-48.5-19T228 684v-25q0-34 17.5-53.5T294 586q31 0 49 19.5t18 53.5z" glyph-name="ring" horiz-adv-x="500" unicode="˚"/><glyph d="M355-141q0-38-28.5-60T250-223q-44 0-71 20t-34 58l44 13q4-34 18-50t41-16q26 0 40 15t14 42q0 28-15 41.5T241-86q-6 0-13.5-.5T216-88l-9 25 26 63h32l-25-60h4q51 0 81-21.5t30-59.5z" glyph-name="cedilla" horiz-adv-x="500" unicode="¸"/><glyph d="M227 579l-21 15q17 32 30 66t25 80h71q-21-41-48.5-83T227 579zm140 0l-21 15q17 32 30 66t25 80h71q-21-41-48.5-83T367 579z" glyph-name="hungarumlaut" horiz-adv-x="500" unicode="˝"/><glyph d="M294 632q47 0 73 24.5t40 83.5l26-7q-14-80-47.5-117T294 579q-58 0-91.5 37T155 733l26 7q14-59 40-83.5t73-24.5z" glyph-name="breve" horiz-adv-x="500" unicode="˘"/><glyph d="M151 662h287v-43H151z" glyph-name="macron" horiz-adv-x="500" unicode="¯"/><glyph d="M275 663q0-20-13-33t-33-13q-20 0-32.5 13T184 663q0 20 13 32.5t32 12.5q20 0 33-12.5t13-32.5z" glyph-name="dotaccent" horiz-adv-x="500" unicode="˙"/><glyph d="M334 385q0-20-13-33t-33-13q-20 0-32.5 13T243 385q0 20 13 32.5t32 12.5q20 0 33-12.5t13-32.5z" glyph-name="periodcentered" horiz-adv-x="500" unicode="·"/><glyph d="M242-223q-48 0-77 26t-29 70q0 66 46 109t112 43l8-25q-53 0-83.5-34T188-127q0-34 14.5-51.5T246-196q29 0 47.5 21t27.5 63l44-13q-13-47-45.5-72.5T242-223z" glyph-name="ogonek" horiz-adv-x="500" unicode="˛"/><glyph d="M183-238l-20 14q17 37 24 70.5t7 76.5h66q-14-55-31-89.5T183-238z" glyph-name="commaaccent" horiz-adv-x="500" unicode=""/><glyph d="M265 556h-19v214h64q-10-60-21-112t-24-102z" glyph-name="caron.alt" horiz-adv-x="500"/><glyph d="M315 745l20-14q-17-37-24-70.5t-7-76.5h-66q14 55 31 89.5t46 71.5z" glyph-name="revcommaaccent" horiz-adv-x="500"/><glyph d="M178 38q0-21-13.5-34.5T130-10q-20 0-33.5 13.5T83 38q0 20 13.5 33.5T130 85q21 0 34.5-13.5T178 38z" glyph-name="period" horiz-adv-x="261" unicode="."/><glyph d="M130 81q21 0 33.5-14.5T176 27q0-48-28.5-109T70-199l-21 18q36 44 56.5 88T130-10q-20 0-32.5 13T85 36q0 20 13 32.5T130 81z" glyph-name="comma" horiz-adv-x="261" unicode=","/><glyph d="M178 450q0-21-13.5-34.5T130 402q-20 0-33.5 13.5T83 450q0 20 13.5 33.5T130 497q21 0 34.5-13.5T178 450zm0-412q0-21-13.5-34.5T130-10q-20 0-33.5 13.5T83 38q0 20 13.5 33.5T130 85q21 0 34.5-13.5T178 38z" glyph-name="colon" horiz-adv-x="261" unicode=":"/><glyph d="M178 450q0-21-13.5-34.5T130 402q-20 0-33.5 13.5T83 450q0 20 13.5 33.5T130 497q21 0 34.5-13.5T178 450zM130 81q21 0 33.5-14.5T176 27q0-48-28.5-109T70-199l-21 18q36 44 56.5 88T130-10q-20 0-32.5 13T85 36q0 20 13 32.5T130 81z" glyph-name="semicolon" horiz-adv-x="261" unicode=";"/><glyph d="M578 38q0-21-13.5-34.5T530-10q-20 0-33.5 13.5T483 38q0 20 13.5 33.5T530 85q21 0 34.5-13.5T578 38zm0 0q0-21-13.5-34.5T530-10q-20 0-33.5 13.5T483 38q0 20 13.5 33.5T530 85q21 0 34.5-13.5T578 38zm0 0q0-21-13.5-34.5T530-10q-20 0-33.5 13.5T483 38q0 20 13.5 33.5T530 85q21 0 34.5-13.5T578 38z" glyph-name="ellipsis" horiz-adv-x="661" unicode="…"/><glyph d="M249 199l3-27h-43v26q0 40 13 70.5t56 73.5q46 45 60.5 80t14.5 81q0 78-30.5 117.5T232 660q-72 0-102.5-48T109 467l-60 16q-16 88 35 147.5T233 690q90 0 140-47.5T423 514q0-52-19-90t-79-84q-53-41-66.5-71t-9.5-70zm28-161q0-21-13.5-34.5T229-10q-20 0-33.5 13.5T182 38q0 20 13.5 33.5T229 85q21 0 34.5-13.5T277 38z" glyph-name="question" horiz-adv-x="471" unicode="?"/><glyph d="M153 442q-5-90-6.5-147.5T145 172h-28q0 65-1.5 122.5T109 442q-5 83-6.5 133T101 680h60q0-55-1.5-105T153 442zm25-404q0-21-13.5-34.5T130-10q-20 0-33.5 13.5T83 38q0 20 13.5 33.5T130 85q21 0 34.5-13.5T178 38z" glyph-name="exclam" horiz-adv-x="261" unicode="!"/><glyph d="M195 449q0 21 13.5 34.5T243 497q20 0 33.5-13.5T290 449q0-20-13.5-33.5T243 402q-21 0-34.5 13.5T195 449zm28-161l-3 27h43v-26q0-40-13-70.5T194 145q-46-45-60.5-80T119-16q0-78 30.5-117.5T240-173q72 0 102.5 48T363 20l60-16q16-88-35-147.5T239-203q-90 0-140 47.5T49-27q0 52 19 90t79 84q53 41 66.5 71t9.5 70z" glyph-name="questiondown" horiz-adv-x="471" unicode="¿"/><glyph d="M83 449q0 21 13.5 34.5T131 497q20 0 33.5-13.5T178 449q0-20-13.5-33.5T131 402q-21 0-34.5 13.5T83 449zm25-404q5 90 6.5 147.5T116 315h28q0-65 1.5-122.5T152 45q5-83 6.5-133t1.5-105h-60q0 55 1.5 105T108 45z" glyph-name="exclamdown" horiz-adv-x="261" unicode="¡"/><glyph d="M82 280v37q0 125 52 234.5T289 750l23-24q-81-77-123-181t-42-228v-37q0-124 42-228t123-181l-23-24Q186-64 134 45.5T82 280z" glyph-name="parenleft" horiz-adv-x="339" unicode="("/><glyph d="M257 317v-37q0-125-52-234.5T50-153l-23 24q81 77 123 181t42 228v37q0 124-42 228T27 726l23 24q103-89 155-198.5T257 317z" glyph-name="parenright" horiz-adv-x="339" unicode=")"/><glyph d="M295-114h85v-30h-85q-84 0-122.5 49T150 41l20 106q12 64-5.5 100T103 283H30v30h73q44 0 61.5 36t5.5 100l-20 106q-16 87 22.5 136T295 740h85v-30h-85q-55 0-76-33.5T211 574l20-106q12-65-7.5-109.5T156 298q48-16 67.5-60t7.5-110L211 22q-13-69 8-102.5t76-33.5z" glyph-name="braceleft" horiz-adv-x="407" unicode="{"/><glyph d="M237 147l20-106q16-87-22.5-136T112-144H27v30h85q55 0 76 33.5T196 22l-20 106q-12 65 7.5 109.5T251 298q-48 16-67.5 60T176 468l20 106q13 69-8 102.5T112 710H27v30h85q84 0 122.5-49T257 555l-20-106q-12-64 5.5-100t61.5-36h73v-30h-73q-44 0-61.5-36T237 147z" glyph-name="braceright" horiz-adv-x="407" unicode="}"/><glyph d="M333 740v-30H168v-823h165v-30H108v883z" glyph-name="bracketleft" horiz-adv-x="360" unicode="["/><glyph d="M27 710v30h225v-883H27v30h165v823z" glyph-name="bracketright" horiz-adv-x="360" unicode="]"/><glyph d="M-15-128l346 868 34-15L19-143z" glyph-name="slash" horiz-adv-x="383" unicode="/"/><glyph d="M18 725l34 15 346-868-34-15z" glyph-name="backslash" horiz-adv-x="383" unicode="\"/><glyph d="M384-143H20v34h364z" glyph-name="underscore" horiz-adv-x="404" unicode="_"/><glyph d="M341 318H77v34h264z" glyph-name="hyphen" horiz-adv-x="418" unicode="-"/><glyph glyph-name="uni00AD" horiz-adv-x="0" unicode="­"/><glyph d="M541 318H77v34h464z" glyph-name="endash" horiz-adv-x="618" unicode="–"/><glyph d="M741 318H77v34h664z" glyph-name="emdash" horiz-adv-x="818" unicode="—"/><glyph d="M101 357v383h35V357zm0-570v383h35v-383z" glyph-name="brokenbar" horiz-adv-x="237" unicode="¦"/><glyph d="M108-213v953h35v-953z" glyph-name="bar" horiz-adv-x="251" unicode="|"/><glyph d="M383 244L583 26l-15-16-262 222v24l262 222 15-16zm-250 0L333 26l-15-16L56 232v24l262 222 15-16z" glyph-name="guillemotleft" horiz-adv-x="642" unicode="«"/><glyph d="M259 245L59 463l15 16 262-222v-24L74 11 59 27zm250 0L309 463l15 16 262-222v-24L324 11l-15 16z" glyph-name="guillemotright" horiz-adv-x="642" unicode="»"/><glyph d="M133 244L333 26l-15-16L56 232v24l262 222 15-16z" glyph-name="guilsinglleft" horiz-adv-x="392" unicode="‹"/><glyph d="M259 245L59 463l15 16 262-222v-24L74 11 59 27z" glyph-name="guilsinglright" horiz-adv-x="392" unicode="›"/><glyph d="M130 77q20 0 32-14t12-38q0-38-22.5-89T91-164l-21 18q31 44 45.5 75.5T132-10h-2q-19 0-31 12.5T87 34q0 19 12 31t31 12z" glyph-name="quotesinglbase" horiz-adv-x="261" unicode="‚"/><glyph d="M130 77q20 0 32-14t12-38q0-38-22.5-89T91-164l-21 18q31 44 45.5 75.5T132-10h-2q-19 0-31 12.5T87 34q0 19 12 31t31 12zm150 0q20 0 32-14t12-38q0-38-22.5-89T241-164l-21 18q31 44 45.5 75.5T282-10h-2q-19 0-31 12.5T237 34q0 19 12 31t31 12z" glyph-name="quotedblbase" horiz-adv-x="411" unicode="„"/><glyph d="M171 492q0-19-12-31t-31-12q-20 0-32 14t-12 38q0 38 22.5 89T167 690l21-18q-31-44-45.5-75.5T126 536h2q19 0 31-12.5t12-31.5z" glyph-name="quoteleft" horiz-adv-x="261" unicode="‘"/><glyph d="M321 492q0-19-12-31t-31-12q-20 0-32 14t-12 38q0 38 22.5 89T317 690l21-18q-31-44-45.5-75.5T276 536h2q19 0 31-12.5t12-31.5zm-150 0q0-19-12-31t-31-12q-20 0-32 14t-12 38q0 38 22.5 89T167 690l21-18q-31-44-45.5-75.5T126 536h2q19 0 31-12.5t12-31.5z" glyph-name="quotedblleft" horiz-adv-x="411" unicode="“"/><glyph d="M43 690q20 0 32-14t12-38q0-38-22.5-89T4 449l-21 18q31 44 45.5 75.5T45 603h-2q-19 0-31 12.5T0 647q0 19 12 31t31 12z" glyph-name="quoteright" horiz-adv-x="261" unicode="’"/><glyph d="M133 690q20 0 32-14t12-38q0-38-22.5-89T94 449l-21 18q31 44 45.5 75.5T135 603h-2q-19 0-31 12.5T90 647q0 19 12 31t31 12zm150 0q20 0 32-14t12-38q0-38-22.5-89T244 449l-21 18q31 44 45.5 75.5T285 603h-2q-19 0-31 12.5T240 647q0 19 12 31t31 12z" glyph-name="quotedblright" horiz-adv-x="411" unicode="”"/><glyph d="M162 608q-10-32-14-66.5t-4-82.5h-28q0 48-4 82.5T98 608q-5 14-6 21t-1 14q0 22 10.5 34.5T130 690q18 0 28.5-12.5T169 643q0-7-1-14t-6-21z" glyph-name="quotesingle" horiz-adv-x="260" unicode="'"/><glyph d="M162 608q-10-32-14-66.5t-4-82.5h-28q0 48-4 82.5T98 608q-5 14-6 21t-1 14q0 22 10.5 34.5T130 690q18 0 28.5-12.5T169 643q0-7-1-14t-6-21zm151 0q-10-32-14-66.5t-4-82.5h-28q0 48-4 82.5T249 608q-5 14-6 21t-1 14q0 22 10.5 34.5T281 690q18 0 28.5-12.5T320 643q0-7-1-14t-6-21z" glyph-name="quotedbl" horiz-adv-x="411" unicode="&quot;"/><glyph d="M198 334q0-29-19-48t-48-19q-29 0-47.5 19T65 334q0 29 19 47.5t47 18.5q29 0 48-18.5t19-47.5z" glyph-name="bullet" horiz-adv-x="263" unicode="•"/><glyph d="M124 146q0-60 33-93t91-33q83 0 117 67t-9 149l49 30L529 69q15-25 22-31t24-8l49-5V0H500l-90 148q1-68-45-113T246-10q-85 0-136 42T59 146q0 51 29.5 95T211 349l19 13q-67 45-98.5 88T100 541q0 61 47 105t117 44q72 0 118.5-43.5T429 538q0-41-22.5-74.5T303 375l-71-48q-55-38-81.5-82.5T124 146zm141 514q-47 0-73.5-30T165 545q0-48 22.5-88.5T255 380l28 19q42 29 61.5 64t19.5 81q0 54-26.5 85T265 660z" glyph-name="ampersand" horiz-adv-x="616" unicode="&amp;"/><glyph d="M41 469v33q0 83 51.5 130.5T234 680h272v-25l-55-5q-16-2-19-8.5t-3-40.5V-64q0-34 3-40.5t19-8.5l55-5v-25H267v25l75 5q16 1 19 8t3 41v714h-71V290h-59q-90 0-141.5 48T41 469z" glyph-name="paragraph" horiz-adv-x="555" unicode="¶"/><glyph d="M201 680h70q0-21-2-40t-8-50q-7-34-9-55.5t-2-46.5q24 0 45.5 2t54.5 9q30 6 48.5 8t38.5 2v-68q-20 0-38.5 2t-48.5 8q-33 7-54.5 9t-45.5 2q0-25 2-46.5t9-55.5q6-31 8-50t2-40v-3q0-28-1.5-55.5T263 130q-8-82-10.5-142T250-143h-28q0 71-2.5 131T209 130q-5 54-6.5 81.5T201 267v3q0 21 2 40t8 50q7 34 9 55.5t2 46.5q-24 0-45.5-2t-54.5-9q-30-6-48.5-8T35 441v68q20 0 38.5-2t48.5-8q33-7 54.5-9t45.5-2q0 25-2 46.5t-9 55.5q-6 31-8 50t-2 40z" glyph-name="dagger" horiz-adv-x="472" unicode="†"/><glyph d="M281 270v-3q0-21-2-40t-8-50q-7-34-9-55.5T260 75q24 0 45.5 2t54.5 9q30 6 48.5 8t38.5 2V28q-20 0-38.5 2T360 38q-33 7-54.5 9T260 49q0-25 2-46.5t9-55.5q6-31 8-50t2-40h-70q0 21 2 40t8 50q7 34 9 55.5t2 46.5q-24 0-45.5-2T132 38q-30-6-48.5-8T45 28v68q20 0 38.5-2t48.5-8q33-7 54.5-9t45.5-2q0 25-2 46.5t-9 55.5q-6 31-8 50t-2 40v3q0 21 2 40t8 50q7 34 9 55.5t2 46.5q-24 0-45.5-2t-54.5-9q-30-6-48.5-8T45 441v68q20 0 38.5-2t48.5-8q33-7 54.5-9t45.5-2q0 25-2 46.5t-9 55.5q-6 31-8 50t-2 40h70q0-21-2-40t-8-50q-7-34-9-55.5t-2-46.5q24 0 45.5 2t54.5 9q30 6 48.5 8t38.5 2v-68q-20 0-38.5 2t-48.5 8q-33 7-54.5 9t-45.5 2q0-25 2-46.5t9-55.5q6-31 8-50t2-40z" glyph-name="daggerdbl" horiz-adv-x="492" unicode="‡"/><glyph d="M369 90q43-23 64.5-60T455-56q0-76-52-121.5T260-223q-89 0-139.5 43T55-50l55 18q6-80 43.5-120.5T260-193q64 0 101.5 32T399-74q0 52-29.5 83T275 58l-66 18q-76 21-117.5 62T50 235q0 51 31.5 90.5T169 382q-45 23-68.5 62T77 532q0 72 48.5 115T260 690q99 0 148.5-55T443 493l-63-16q10 93-19.5 138.5T260 661q-61 0-94-29.5T133 547q0-51 27.5-81t87.5-46l66-18q84-23 126.5-64t42.5-99q0-52-30-91t-84-58zm-126 41l66-18q4-1 10.5-3t9.5-3q48 12 73 40.5t25 71.5q0 48-34 77.5T280 347l-66 18q-53-8-80.5-36T106 254q0-47 31.5-75T243 131z" glyph-name="section" horiz-adv-x="533" unicode="§"/><glyph d="M32 523l18 55q18-6 33.5-12.5T124 545q27-14 45-22t39-15q0 22-1.5 41.5T199 599q-5 28-6.5 45t-1.5 36h58q0-19-1.5-36t-6.5-45q-6-30-7.5-49.5T232 508q21 7 38.5 14.5T314 545q26 13 42 20t34 13l18-55q-18-6-35-10t-45-8q-30-4-49-8t-40-11q13-18 26-32.5t35-36.5q21-19 32-32t22-28l-47-34q-11 15-19.5 29.5T266 393q-13 27-23 43.5T220 471q-13-18-23-34.5T174 393q-13-26-21.5-40.5T133 323l-47 34q11 15 22.5 28t31.5 33q22 21 35 35.5t26 32.5q-21 7-40 11t-49 8q-29 4-45.5 8T32 523z" glyph-name="asterisk" horiz-adv-x="440" unicode="*"/><glyph d="M32 604v76h274v-76h-20l-10 40q-2 10-6.5 11.5T249 657h-57V388q0-16 1.5-20t9.5-5l28-2v-21H107v21l28 2q8 1 9.5 5t1.5 20v269H89q-16 0-20.5-1.5T62 644l-10-40zm673-241l28-2v-21H609v21l28 2q8 1 9.5 5t1.5 20v252L543 380h-29L408 641V388q0-16 1.5-20t9.5-5l28-2v-21H344v21l28 2q8 1 9.5 5t1.5 20v245q0 16-1.5 19.5T372 657l-28 3v20h96l101-246 98 246h94v-20l-28-3q-8-1-9.5-4.5T694 633V388q0-16 1.5-20t9.5-5z" glyph-name="trademark" horiz-adv-x="776" unicode="™"/><glyph d="M519 479q0-100-68-169t-166-69q-99 0-166.5 69T51 479q0 101 67.5 169.5T285 717q98 0 166-69t68-169zm-436 0q0-88 58.5-148.5T285 270q86 0 144 60.5T487 479q0 89-58 149t-144 60q-85 0-143.5-60T83 479zm120 107l-21 2v20h106q37 0 58.5-17.5T368 543v-16q0-23-11.5-39.5T324 464l43-70q1-1 6-10t12-9l18-1v-21h-63l-59 105h-28v-64q0-13 1-16t7-3l21-1v-21H182v21l21 1q6 0 7.5 3t1.5 16v174q0 11-1 14t-8 4zm85 0h-35V481h35q17 0 27 12t10 34v16q0 20-10 31.5T288 586z" glyph-name="registered" horiz-adv-x="570" unicode="®"/><glyph d="M801 340q0-159-107.5-268T429-37Q272-37 164.5 72T57 340q0 160 107 268.5T429 717q157 0 264.5-109T801 340zm-712 0q0-147 98-247T429-7Q573-7 671 93t98 247q0 147-98 247T429 687q-144 0-242-100T89 340zm345 204q-63 0-93.5-43T310 371v-61q0-93 31-133.5T443 136q51 0 79 26.5t39 85.5l45-14q-17-62-60-94t-108-32q-94 0-145 58t-51 164v21q0 104 50.5 162.5T434 572q86 0 131.5-49T599 398l-57-9q10 75-18 115t-90 40z" glyph-name="copyright" horiz-adv-x="858" unicode="©"/><glyph d="M727-121l20-46q-51-26-119.5-41T493-223q-190 0-307.5 121.5T68 214q0 204 123.5 340T502 690q175 0 292.5-118.5T912 278q0-118-60.5-198T702 0q-50 0-81.5 26T584 98q-33-52-71-77.5T431-5q-78 0-115.5 71.5T297 246l4 22q17 91 74 147.5T507 472q40 0 70.5-17t54.5-53q2 5 13 26.5t17 33.5h40l-55-307q-12-63 2.5-94.5T706 29q72 0 123 72t51 177q0 163-108 272.5T502 660q-174 0-288-127.5T100 214q0-182 108-294.5T493-193q69 0 128.5 18T727-121zM369 276l-10-60q-14-85 7.5-138T436 25q43 0 79 32.5T588 160l35 199q-24 44-50.5 63.5T509 442q-55 0-91-42.5T369 276z" glyph-name="at" horiz-adv-x="976" unicode="@"/><glyph d="M311 339q-24 0-40 12.5T251 386q-23-25-50.5-38T143 335q-43 0-67 24.5T52 426q0 45 29 66t89 21h79v55q0 49-16.5 71T177 661q-41 0-56-22.5t-9-71.5l-44 7q-5 50 25 80.5t85 30.5q58 0 87.5-29.5T295 568V416q0-26 6-38t23-12q7 0 14.5 3t14.5 9l12-19q-11-10-24.5-15t-29.5-5zm-211 91q0-33 13.5-50.5T154 362q25 0 48.5 13.5T249 417v72h-74q-40 0-57.5-14T100 430z" glyph-name="ordfeminine" horiz-adv-x="387" unicode="ª"/><glyph d="M199 685q67 0 105.5-45T343 517v-13q0-79-38.5-124T199 335q-68 0-106 45T55 504v13q0 78 38.5 123T199 685zm91-195v41q0 69-21.5 99.5T199 661q-48 0-69.5-30.5T108 531v-41q0-69 21.5-100t69.5-31q48 0 69.5 31T290 490z" glyph-name="ordmasculine" horiz-adv-x="398" unicode="º"/><glyph d="M553 243v-30H435L366-10 334 0l66 213H173L104-10 72 0l66 213H29v30h118l60 194H98v30h118l69 223 32-10-66-213h227l69 223 32-10-66-213h109v-30H504l-60-194zM242 437l-60-194h227l60 194z" glyph-name="numbersign" horiz-adv-x="651" unicode="#"/><glyph d="M884 685q76 0 119-46t43-127v-20q0-81-43.5-127.5T884 318q-76 0-119 46.5T722 492v20q0 81 43 127t119 46zm-370-35l-55 5v25h189v-25l-55-5q-16-2-19-8.5t-3-40.5V0h-45L164 630V79q0-34 3-40.5t19-8.5l55-5V0H52v25l55 5q16 2 19 8.5t3 40.5v522q0 34-3 40.5t-19 8.5l-55 5v25h154l330-574v495q0 34-3 40.5t-19 8.5zm466-178v60q0 63-23.5 94T884 657q-49 0-72.5-31T788 532v-60q0-64 23.5-95t72.5-31q49 0 72.5 31t23.5 95zm41-288H747v30h274z" glyph-name="uni2116" horiz-adv-x="1086" unicode="№"/><glyph d="M494 144l56-13q-20-69-72-105T347-10q-105 0-167 66t-73 188H27v30h78q-1 4-1 9v101H27v30h78q7 130 70 203t169 73q103 0 158.5-59.5T543 483l-65-16q10 93-24 143t-108 50q-87 0-128-55.5T177 432v-18h241l-6-30H177V274h213l-6-30H177q1-115 43-169.5T350 20q61 0 99 32t45 92z" glyph-name="Euro" horiz-adv-x="603" unicode="€"/><glyph d="M484 174q0-80-52.5-129.5T286-10v-115h-35v115q-87 4-138.5 50T46 173l55 18q6-81 44-123.5T251 21v296l-30 8q-80 21-121.5 69T58 512q0 77 51.5 126T251 690v115h35V689q96-6 144.5-64T464 483l-63-16q10 89-18.5 137.5T286 660V378l22-6q86-23 131-73.5T484 174zM118 527q0-56 31.5-88.5T251 387v274q-63-3-98-38t-35-96zm306-368q0 57-33 92.5T286 308V21q65 5 101.5 41t36.5 97z" glyph-name="dollar" horiz-adv-x="540" unicode="$"/><glyph d="M352 30l55-5V0H188v25l55 5q16 2 19 8.5t3 40.5v135H72v30h193v46l-33 64H72v30h145L102 611q-13 26-19 31.5T61 650l-49 5v25h214v-25l-49-5q-16-2-16-7.5t13-31.5l141-283 141 283q13 26 13 31.5t-16 7.5l-49 5v25h178v-25l-49-5q-16-1-21.5-6.5T492 611L378 384h145v-30H362l-32-64v-46h193v-30H330V79q0-34 3-40.5t19-8.5z" glyph-name="yen" horiz-adv-x="594" unicode="¥"/><glyph d="M410 79l17 81h25V0H67v46q58 65 80 104.5t22 82.5q0 13-2 26t-6 26H59v30h91q-2 5-39 71.5T74 511q0 79 51.5 129T265 690q100 0 152-59.5T453 483l-65-16q10 98-20 145.5T266 660q-56 0-86.5-37.5T149 516q0-57 25.5-124t28.5-77h180v-30H210q1-9 2-18.5t1-19.5q0-44-22-88T114 53h242q34 0 42 3.5T410 79z" glyph-name="sterling" horiz-adv-x="522" unicode="£"/><glyph d="M399 124l46-13q-15-56-56-86.5T287-10v-115h-35V-9q-87 7-134 70.5T71 234v20q0 108 47.5 172T252 496v116h35V496q79-5 120.5-54.5T438 318l-57-9q10 71-14 111.5T287 466V20q47 2 74 27t38 77zM139 274v-60q0-95 27-140t86-52v444q-57-6-85-53.5T139 274z" glyph-name="cent" horiz-adv-x="502" unicode="¢"/><glyph d="M222 342L185-64q-8-88-38-123.5T59-223q-54 0-80.5 28.5T-40-118l49 9q-6-42 6.5-64T59-195q32 0 46 26t20 95l38 416H36v30h129l20 219q8 88 38 123.5t88 35.5q53 0 79.5-28.5T410 645l-49-9q6 43-6.5 64.5T311 722q-33 0-46.5-26.5T245 601l-21-229h126v-30z" glyph-name="florin" horiz-adv-x="411" unicode="ƒ"/><glyph d="M497 25V0H370L56 308v30h156q57 0 91 37.5T337 477v2H56v30h281v3q0 64-33.5 101T212 650H56v30h426v-30H333q35-22 53.5-57t18.5-81v-3h77v-30h-77v-2q0-78-51.5-123.5T212 308h-67L383 79q35-34 46-41t23-8z" glyph-name="uni20B9" horiz-adv-x="530" unicode="₹"/><glyph d="M442 171L542 67l-22-24-102 104q-26-21-57.5-32.5T296 103q-34 0-65.5 11.5T174 147L72 43 50 67l100 104q-22 26-34 59t-12 70q0 37 12 70t34 59L50 533l22 24 101-104q25 21 56.5 32.5T296 497q34 0 65.5-11t56.5-33l102 104 22-24-100-104q22-26 34-59t12-70q0-37-12-70t-34-59zM136 300q0-70 46-118.5T296 133q68 0 114 48.5T456 300q0 70-46 118.5T296 467q-68 0-114-48.5T136 300z" glyph-name="currency" horiz-adv-x="592" unicode="¤"/><glyph d="M307 690q104 0 164-85.5T531 372v-63q0-148-60-233.5T307-10q-105 0-164.5 85.5T83 309v63q0 148 59.5 233T307 690zm151-451v203q0 111-37 164.5T307 660q-77 0-114-53.5T156 442V239q0-111 37-165t114-54q77 0 114 54t37 165z" glyph-name="zero" horiz-adv-x="614" unicode="0"/><glyph d="M54 576l-16 25 127 79h55V79q0-34 3-40.5t19-8.5l55-5V0H58v25l75 5q16 1 19 8t3 41v559z" glyph-name="one" horiz-adv-x="345" unicode="1"/><glyph d="M407 83l27 101h25V0H69v43q0 47 11.5 86t36.5 71q18 25 44.5 48.5T243 308q56 38 71.5 51.5T342 386q22 25 32.5 53.5T385 502q0 79-31.5 118.5T259 660q-74 0-105-47.5T133 467l-65 16q-16 89 37 148t155 59q94 0 147-50t53-135q0-31-7.5-57T431 400q-13-20-32.5-37.5T351 327q-19-11-53-29t-45-24q-77-44-111.5-95T104 57h249q32 0 40.5 3.5T407 83z" glyph-name="two" horiz-adv-x="543" unicode="2"/><glyph d="M389 170q0 82-45 124t-133 42h-27v30h27q81 0 122.5 38T375 516q0 70-32 107t-93 37q-74 0-104.5-47.5T125 467l-65 16q-16 89 37 148t154 59q94 0 146.5-47T450 516q0-68-38.5-109.5T297 351q83-15 125-60.5T464 170q0-83-55-131.5T255-10q-80 0-130 38T50 146l57 17q11-71 48-107t98-36q67 0 101.5 38T389 170z" glyph-name="three" horiz-adv-x="531" unicode="3"/><glyph d="M314 79v97H20v30q107 116 160.5 220T265 680h80q-33-125-102-238.5T56 206h258v161l65 10V206h77v-30h-77V79q0-34 3-40.5t19-8.5l55-5V0H217v25l75 5q16 1 19 8t3 41z" glyph-name="four" horiz-adv-x="490" unicode="4"/><glyph d="M395 706l8 54h25V621H128l-12-227q28 19 61.5 29t70.5 10q96 0 152-61.5T456 205q0-99-55.5-157T246-10q-74 0-120.5 38T54 146l57 17q11-72 44.5-107.5T245 20q66 0 101 47.5T381 205q0 96-35 145.5T242 400q-41 0-77.5-14T96 344l-17 5 18 331h244q36 0 43.5 3.5T395 706z" glyph-name="five" horiz-adv-x="509" unicode="5"/><glyph d="M508 199v-10q0-90-56.5-144.5T303-10q-108 0-164.5 80.5T82 305v63q0 156 56.5 239T300 690q96 0 152-61t41-146l-65-16q11 94-22 143.5T299 660q-76 0-110-56.5T155 427V325q28 36 68 55t88 19q90 0 143.5-54.5T508 199zm-353 77v-30q0-118 34.5-172T303 20q67 0 99.5 42T435 189v10q0 80-34.5 124T302 367q-47 0-84.5-23T155 276z" glyph-name="six" horiz-adv-x="572" unicode="6"/><glyph d="M76 595L49 494H24v186h412v-51Q329 490 290 356.5T243 0h-80q23 207 76.5 346.5T401 621H130q-32 0-40.5-3.5T76 595z" glyph-name="seven" horiz-adv-x="452" unicode="7"/><glyph d="M330 361q76-29 112-76.5T478 166q0-82-54-129T274-10q-97 0-155.5 46.5T60 156q0 56 38 104t106 78q-65 28-97.5 71T74 511q0 80 52 129.5T265 690q87 0 142.5-47.5T463 523q0-54-33-94.5T330 361zM129 532q0-49 30-82t101-61l37-15q52 23 76.5 59t24.5 91q0 65-34.5 100.5T266 660q-62 0-99.5-34.5T129 532zm-4-375q0-65 39-101t110-36q71 0 110 33.5t39 95.5q0 55-30.5 90.5T289 304l-54 21q-52-23-81-67.5T125 157z" glyph-name="eight" horiz-adv-x="538" unicode="8"/><glyph d="M490 375v-63q0-156-59-239T263-10q-75 0-122 38T69 146l57 17q11-71 45.5-107T263 20q78 0 116 58t38 175v87q-28-36-68-55t-88-19q-90 0-143.5 54.5T64 466v25q0 90 56.5 144.5T269 690q108 0 164.5-80.5T490 375zM137 491v-25q0-80 34.5-124t98.5-44q47 0 84.5 23t62.5 68v45q0 118-34.5 172T269 660q-67 0-99.5-42T137 491z" glyph-name="nine" horiz-adv-x="572" unicode="9"/><glyph d="M258 690q104 0 164-85.5T482 372v-63q0-148-60-233.5T258-10Q153-10 93.5 75.5T34 309v63q0 148 59.5 233T258 690zm151-451v203q0 111-37 164.5T258 660q-77 0-114-53.5T107 442V239q0-111 37-165t114-54q77 0 114 54t37 165z" glyph-name="zero.tlf" horiz-adv-x="516"/><glyph d="M99 547l-16 25 169 108h55V81q0-34 3-41t19-8l105-7V0H105v25l115 7q16 1 19 8t3 41v557z" glyph-name="one.tlf" horiz-adv-x="516"/><glyph d="M398 83l27 101h25V0H60v43q0 47 11.5 86t36.5 71q18 25 44.5 48.5T234 308q56 38 71.5 51.5T333 386q22 25 32.5 53.5T376 502q0 79-31.5 118.5T250 660q-74 0-105-47.5T124 467l-65 16q-16 89 37 148t155 59q94 0 147-50t53-135q0-31-7.5-57T422 400q-13-20-32.5-37.5T342 327q-19-11-53-29t-45-24q-77-44-111.5-95T95 57h249q32 0 40.5 3.5T398 83z" glyph-name="two.tlf" horiz-adv-x="516"/><glyph d="M386 170q0 82-45 124t-133 42h-27v30h27q81 0 122.5 38T372 516q0 70-32 107t-93 37q-74 0-104.5-47.5T122 467l-65 16q-16 89 37 148t154 59q94 0 146.5-47T447 516q0-68-38.5-109.5T294 351q83-15 125-60.5T461 170q0-83-55-131.5T252-10q-80 0-130 38T47 146l57 17q11-71 48-107t98-36q67 0 101.5 38T386 170z" glyph-name="three.tlf" horiz-adv-x="516"/><glyph d="M330 79v97H36v30q107 116 160.5 220T281 680h80q-33-125-102-238.5T72 206h258v161l65 10V206h77v-30h-77V79q0-34 3-40.5t19-8.5l55-5V0H233v25l75 5q16 1 19 8t3 41z" glyph-name="four.tlf" horiz-adv-x="516"/><glyph d="M395 706l8 54h25V621H128l-12-227q28 19 61.5 29t70.5 10q96 0 152-61.5T456 205q0-99-55.5-157T246-10q-74 0-120.5 38T54 146l57 17q11-72 44.5-107.5T245 20q66 0 101 47.5T381 205q0 96-35 145.5T242 400q-41 0-77.5-14T96 344l-17 5 18 331h244q36 0 43.5 3.5T395 706z" glyph-name="five.tlf" horiz-adv-x="516"/><glyph d="M478 199v-10q0-90-56.5-144.5T273-10q-108 0-164.5 80.5T52 305v63q0 156 56.5 239T270 690q96 0 152-61t41-146l-65-16q11 94-22 143.5T269 660q-76 0-110-56.5T125 427V325q28 36 68 55t88 19q90 0 143.5-54.5T478 199zm-353 77v-30q0-118 34.5-172T273 20q67 0 99.5 42T405 189v10q0 80-34.5 124T272 367q-47 0-84.5-23T125 276z" glyph-name="six.tlf" horiz-adv-x="516"/><glyph d="M103 595L76 494H51v186h412v-51Q356 490 317 356.5T270 0h-80q23 207 76.5 346.5T428 621H157q-32 0-40.5-3.5T103 595z" glyph-name="seven.tlf" horiz-adv-x="516"/><glyph d="M319 361q76-29 112-76.5T467 166q0-82-54-129T263-10q-97 0-155.5 46.5T49 156q0 56 38 104t106 78q-65 28-97.5 71T63 511q0 80 52 129.5T254 690q87 0 142.5-47.5T452 523q0-54-33-94.5T319 361zM118 532q0-49 30-82t101-61l37-15q52 23 76.5 59t24.5 91q0 65-34.5 100.5T255 660q-62 0-99.5-34.5T118 532zm-4-375q0-65 39-101t110-36q71 0 110 33.5t39 95.5q0 55-30.5 90.5T278 304l-54 21q-52-23-81-67.5T114 157z" glyph-name="eight.tlf" horiz-adv-x="516"/><glyph d="M464 375v-63q0-156-59-239T237-10q-75 0-122 38T43 146l57 17q11-71 45.5-107T237 20q78 0 116 58t38 175v87q-28-36-68-55t-88-19q-90 0-143.5 54.5T38 466v25q0 90 56.5 144.5T243 690q108 0 164.5-80.5T464 375zM111 491v-25q0-80 34.5-124t98.5-44q47 0 84.5 23t62.5 68v45q0 118-34.5 172T243 660q-67 0-99.5-42T111 491z" glyph-name="nine.tlf" horiz-adv-x="516"/><glyph d="M282 497q100 0 156.5-65T495 254v-20q0-113-57-178.5T282-10q-100 0-156.5 65T69 234v20q0 113 56.5 178T282 497zm142-283v60q0 99-34.5 146T282 467q-73 0-107.5-47T140 274v-60q0-99 34.5-146.5T282 20q73 0 107.5 47.5T424 214z" glyph-name="zero.posf" horiz-adv-x="564"/><glyph d="M48 383l-16 25 127 79h55V79q0-34 3-40.5t19-8.5l55-5V0H52v25l75 5q16 1 19 8t3 41v366z" glyph-name="one.posf" horiz-adv-x="334"/><glyph d="M384 85l17 61h25V0H82v45q0 57 29 95.5t95 68.5q56 25 71.5 34t27.5 18q24 19 35.5 42.5T352 357q0 54-26 82t-76 28q-59 0-84-41.5T150 299l-65 16q-14 78 32 130t134 52q83 0 129.5-37.5T427 358q0-37-17-65t-54-50q-26-16-76.5-36.5T226 185q-57-25-82.5-54T115 59h215q32 0 40 3t14 23z" glyph-name="two.posf" horiz-adv-x="514"/><glyph d="M112 402L85 301H60v186h370v-51L249 195q97-3 146.5-53T445-4q0-91-54-145t-150-54q-78 0-126.5 38T41-47l57 17q11-71 46.5-107t94.5-36q64 0 97.5 43T370-4q0 85-33.5 127.5T237 166h-27v29l175 233H166q-32 0-40.5-3.5T112 402z" glyph-name="three.posf" horiz-adv-x="502"/><glyph d="M384-191l-65-12V0H25v30q112 121 164 220t81 237h80q-30-114-96.5-220.5T61 30h258v142l65 12V30h77V0h-77z" glyph-name="four.posf" horiz-adv-x="489"/><glyph d="M395 513l8 54h25V428H128l-12-227q28 19 61.5 29t70.5 10q96 0 152-61.5T456 12q0-99-55.5-157T246-203q-74 0-120.5 38T54-47l57 17q11-72 44.5-107.5T245-173q66 0 101 47.5T381 12q0 96-35 145.5T242 207q-41 0-77.5-14T96 151l-17 5 18 331h244q36 0 43.5 3.5T395 513z" glyph-name="five.posf" horiz-adv-x="509"/><glyph d="M506 199v-10q0-90-56.5-144.5T301-10q-108 0-164.5 80.5T80 305v63q0 156 56.5 239T298 690q96 0 152-61t41-146l-65-16q11 94-22 143.5T297 660q-76 0-110-56.5T153 427V325q28 36 68 55t88 19q90 0 143.5-54.5T506 199zm-353 77v-30q0-118 34.5-172T301 20q67 0 99.5 42T433 189v10q0 80-34.5 124T300 367q-47 0-84.5-23T153 276z" glyph-name="six.posf" horiz-adv-x="574"/><glyph d="M88 402L61 301H36v186h412v-51Q341 297 302 163.5T255-193h-80q23 207 76.5 346.5T413 428H142q-32 0-40.5-3.5T88 402z" glyph-name="seven.posf" horiz-adv-x="479"/><glyph d="M331 361q76-29 112-76.5T479 166q0-82-54-129T275-10q-97 0-155.5 46.5T61 156q0 56 38 104t106 78q-65 28-97.5 71T75 511q0 80 52 129.5T266 690q87 0 142.5-47.5T464 523q0-54-33-94.5T331 361zM130 532q0-49 30-82t101-61l37-15q52 23 76.5 59t24.5 91q0 65-34.5 100.5T267 660q-62 0-99.5-34.5T130 532zm-4-375q0-65 39-101t110-36q71 0 110 33.5t39 95.5q0 55-30.5 90.5T290 304l-54 21q-52-23-81-67.5T126 157z" glyph-name="eight.posf" horiz-adv-x="540"/><glyph d="M493 182v-63q0-156-59-239t-168-83q-75 0-122 38T72-47l57 17q11-71 45.5-107t91.5-36q78 0 116 58t38 175v87q-28-36-68-55t-88-19q-90 0-143.5 54.5T67 273v25q0 90 56.5 144.5T272 497q108 0 164.5-80.5T493 182zM140 298v-25q0-80 34.5-124t98.5-44q47 0 84.5 23t62.5 68v45q0 118-34.5 172T272 467q-67 0-99.5-42T140 298z" glyph-name="nine.posf" horiz-adv-x="580"/><glyph d="M358 528q0-70-44.5-116T201 366q-68 0-112.5 46T44 528q0 70 44.5 116T201 690q68 0 112.5-46T358 528zm-278 0q0-57 34-93.5t87-36.5q53 0 87 36.5t34 93.5q0 57-34 93.5T201 658q-53 0-87-36.5T80 528z" glyph-name="degree" horiz-adv-x="402" unicode="°"/><glyph d="M176 685q58 0 95-39.5t37-99.5v-31q0-60-37-100t-95-40q-59 0-95.5 39.5T44 515v31q0 60 36.5 99.5T176 685zM157 16l376 664 25-16L182 0zm100 474v81q0 44-21.5 69T176 665q-37 0-58.5-25T96 571v-81q0-44 21-69.5t59-25.5q38 0 59.5 25.5T257 490zm282-185q58 0 95-39.5t37-99.5v-31q0-60-37-100T539-5q-59 0-95.5 39.5T407 135v31q0 60 36.5 99.5T539 305zm81-195v81q0 44-21.5 69T539 285q-37 0-58.5-25T459 191v-81q0-44 21-69.5T539 15q38 0 59.5 25.5T620 110z" glyph-name="percent" horiz-adv-x="715" unicode="%"/><glyph d="M176 685q58 0 95-39.5t37-99.5v-31q0-60-37-100t-95-40q-59 0-95.5 39.5T44 515v31q0 60 36.5 99.5T176 685zM157 16l376 664 25-16L182 0zm100 474v81q0 44-21.5 69T176 665q-37 0-58.5-25T96 571v-81q0-44 21-69.5t59-25.5q38 0 59.5 25.5T257 490zm282-185q58 0 95-39.5t37-99.5v-31q0-60-37-100T539-5q-59 0-95.5 39.5T407 135v31q0 60 36.5 99.5T539 305zm352 0q58 0 95-39.5t37-99.5v-31q0-60-37-100T891-5q-59 0-95.5 39.5T759 135v31q0 60 36.5 99.5T891 305zM620 110v81q0 44-21.5 69T539 285q-37 0-58.5-25T459 191v-81q0-44 21-69.5T539 15q38 0 59.5 25.5T620 110zm352 0v81q0 44-21.5 69T891 285q-37 0-58.5-25T811 191v-81q0-44 21-69.5T891 15q38 0 59.5 25.5T972 110z" glyph-name="perthousand" horiz-adv-x="1067" unicode="‰"/><glyph d="M-175 16l376 664 25-16L-150 0z" glyph-name="fraction" horiz-adv-x="51" unicode="⁄"/><glyph d="M-175 16l376 664 25-16L-150 0z" glyph-name="uni2215" horiz-adv-x="51" unicode="∕"/><glyph d="M166 790q57 0 89.5-43T288 631v-31q0-74-32.5-117T166 440q-57 0-89.5 42.5T44 600v31q0 74 32.5 116.5T166 790zm71-225v101q0 52-17.5 78T166 770q-36 0-53-25.5T96 666V565q0-53 17-79t53-26q36 0 53.5 26t17.5 79z" glyph-name="zerosuperior" horiz-adv-x="332" unicode="⁰"/><glyph d="M36 729l-11 17 64 39h42V490q0-16 1.5-20t9.5-5l28-2v-18H35v18l38 2q8 1 9.5 5t1.5 20v268z" glyph-name="onesuperior" horiz-adv-x="201" unicode="¹"/><glyph d="M217 490l8 40h18v-85H32v23q0 47 16 73.5t79 63.5q37 22 50.5 42t13.5 47q0 38-14 57t-42 19q-33 0-47-22.5T79 679l-48 8q-8 44 21 73.5t83 29.5q51 0 79.5-25t28.5-69q0-23-9-41.5T207 620q-7-6-26-16.5T132 578q-38-19-54-41.5T60 477h130q17 0 21 2t6 11z" glyph-name="twosuperior" horiz-adv-x="285" unicode="²"/><glyph d="M200 530q0 39-21 59.5T116 610h-14v20h14q38 0 57.5 18.5T193 703q0 33-15 50t-43 17q-34 0-48-22.5T78 679l-48 8q-8 45 21.5 74t84.5 29q52 0 80.5-23.5T245 703q0-32-18-53t-53-30q39-9 58.5-31.5T252 530q0-42-30-66t-84-24q-41 0-68.5 17.5T30 510l30 10q5-29 25.5-44.5T137 460q31 0 47 18t16 52z" glyph-name="threesuperior" horiz-adv-x="291" unicode="³"/><glyph d="M159 490v38H7v20q60 66 86 117.5T129 785h55q-11-52-43.5-104.5T30 548h129v81l47 5v-86h39v-20h-39v-38q0-16 1.5-20t9.5-5l28-2v-18H120v18l28 2q8 1 9.5 5t1.5 20z" glyph-name="foursuperior" horiz-adv-x="262" unicode="⁴"/><glyph d="M216 798l4 27h13v-71H70l-5-105q15 9 31.5 13.5T130 667q54 0 85.5-31.5T247 551q0-51-30.5-81T131 440q-38 0-64 18t-38 53l30 8q5-29 24-45t47-16q31 0 47.5 24t16.5 69q0 48-16.5 72.5T129 648q-20 0-38.5-7.5T55 617l-14 3 9 165h152q3 0 5 1 4 0 6 2t3 10z" glyph-name="fivesuperior" horiz-adv-x="275" unicode="⁵"/><glyph d="M278 545v-5q0-45-31-72.5T166 440q-59 0-90 40T45 598v31q0 78 31 119.5t88 41.5q52 0 83-30.5t24-72.5l-48-8q5 45-10 68t-49 23q-36 0-51.5-27T97 659v-40q14 15 32.5 23t40.5 8q49 0 78.5-28.5T278 545zM97 592v-24q0-57 16-82.5t53-25.5q30 0 45.5 20t15.5 60v5q0 40-16.5 62T165 629q-21 0-38.5-9.5T97 592z" glyph-name="sixsuperior" horiz-adv-x="316" unicode="⁶"/><glyph d="M55 741l-8-41H29v85h211v-27q-52-68-71.5-135.5T145 445H90q10 92 39.5 161T223 754H82q-17 0-21-2t-6-11z" glyph-name="sevensuperior" horiz-adv-x="263" unicode="⁷"/><glyph d="M193 629q37-17 54.5-41.5T265 528q0-41-29-64.5T155 440q-52 0-83.5 23.5T40 523q0 29 16.5 50.5T108 611q-31 16-46 38.5T47 701q0 40 28 64.5t75 24.5q47 0 77-23.5t30-59.5q0-29-15-46.5T193 629zM89 711q0-22 13-36t46-28l20-8q22 13 32 28.5t10 39.5q0 30-15.5 46.5T151 770q-29 0-45.5-15.5T89 711zm-2-187q0-30 17.5-47t50.5-17q32 0 49.5 15.5T222 520q0 25-13.5 40.5T162 589l-31 12q-22-13-33-32.5T87 524z" glyph-name="eightsuperior" horiz-adv-x="305" unicode="⁸"/><glyph d="M266 633v-32q0-78-32-119.5T142 440q-38 0-64.5 18T39 511l31 8q4-28 23.5-43.5T142 460q36 0 54 28t18 84v32q-14-15-32.5-23t-40.5-8q-50 0-79 28.5T33 678v13q0 44 31 71.5t81 27.5q59 0 90-40.5T266 633zM84 691v-13q0-40 16-62t46-22q21 0 38.5 9.5T214 631v31q0 56-16.5 82T145 770q-31 0-46-19.5T84 691z" glyph-name="ninesuperior" horiz-adv-x="311" unicode="⁹"/><glyph d="M166 240q57 0 89.5-43T288 81V50q0-74-32.5-117T166-110q-57 0-89.5 42.5T44 50v31q0 74 32.5 116.5T166 240zm71-225v101q0 52-17.5 78T166 220q-36 0-53-25.5T96 116V15q0-53 17-79t53-26q36 0 53.5 26T237 15z" glyph-name="zeroinferior" horiz-adv-x="332" unicode="₀"/><glyph d="M36 179l-11 17 64 39h42V-60q0-16 1.5-20t9.5-5l28-2v-18H35v18l38 2q8 1 9.5 5T84-60v268z" glyph-name="oneinferior" horiz-adv-x="201" unicode="₁"/><glyph d="M217-60l8 40h18v-85H32v23q0 47 16 73.5T127 55q37 22 50.5 42t13.5 47q0 38-14 57t-42 19q-33 0-47-22.5T79 129l-48 8q-8 44 21 73.5t83 29.5q51 0 79.5-25t28.5-69q0-23-9-41.5T207 70q-7-6-26-16.5T132 28Q94 9 78-13.5T60-73h130q17 0 21 2t6 11z" glyph-name="twoinferior" horiz-adv-x="285" unicode="₂"/><glyph d="M200-20q0 39-21 59.5T116 60h-14v20h14q38 0 57.5 18.5T193 153q0 33-15 50t-43 17q-34 0-48-22.5T78 129l-48 8q-8 45 21.5 74t84.5 29q52 0 80.5-23.5T245 153q0-32-18-53t-53-30q39-9 58.5-31.5T252-20q0-42-30-66t-84-24q-41 0-68.5 17.5T30-40l30 10q5-29 25.5-44.5T137-90q31 0 47 18t16 52z" glyph-name="threeinferior" horiz-adv-x="291" unicode="₃"/><glyph d="M159-60v38H7v20q60 66 86 117.5T129 235h55q-11-52-43.5-104.5T30-2h129v81l47 5V-2h39v-20h-39v-38q0-16 1.5-20t9.5-5l28-2v-18H120v18l28 2q8 1 9.5 5t1.5 20z" glyph-name="fourinferior" horiz-adv-x="262" unicode="₄"/><glyph d="M216 248l4 27h13v-71H70L65 99q15 9 31.5 13.5T130 117q54 0 85.5-31.5T247 1q0-51-30.5-81T131-110q-38 0-64 18T29-39l30 8q5-29 24-45t47-16q31 0 47.5 24T194 1q0 48-16.5 72.5T129 98q-20 0-38.5-7.5T55 67l-14 3 9 165h152q3 0 5 1 4 0 6 2t3 10z" glyph-name="fiveinferior" horiz-adv-x="275" unicode="₅"/><glyph d="M278-5v-5q0-45-31-72.5T166-110q-59 0-90 40T45 48v31q0 78 31 119.5t88 41.5q52 0 83-30.5t24-72.5l-48-8q5 45-10 68t-49 23q-36 0-51.5-27T97 109V69q14 15 32.5 23t40.5 8q49 0 78.5-28.5T278-5zM97 42V18q0-57 16-82.5T166-90q30 0 45.5 20T227-10v5q0 40-16.5 62T165 79q-21 0-38.5-9.5T97 42z" glyph-name="sixinferior" horiz-adv-x="316" unicode="₆"/><glyph d="M55 191l-8-41H29v85h211v-27q-52-68-71.5-135.5T145-105H90q10 92 39.5 161T223 204H82q-17 0-21-2t-6-11z" glyph-name="seveninferior" horiz-adv-x="263" unicode="₇"/><glyph d="M193 79q37-17 54.5-41.5T265-22q0-41-29-64.5T155-110q-52 0-83.5 23.5T40-27q0 29 16.5 50.5T108 61Q77 77 62 99.5T47 151q0 40 28 64.5t75 24.5q47 0 77-23.5t30-59.5q0-29-15-46.5T193 79zM89 161q0-22 13-36t46-28l20-8q22 13 32 28.5t10 39.5q0 30-15.5 46.5T151 220q-29 0-45.5-15.5T89 161zM87-26q0-30 17.5-47T155-90q32 0 49.5 15.5T222-30q0 25-13.5 40.5T162 39l-31 12q-22-13-33-32.5T87-26z" glyph-name="eightinferior" horiz-adv-x="305" unicode="₈"/><glyph d="M266 83V51q0-78-32-119.5T142-110q-38 0-64.5 18T39-39l31 8q4-28 23.5-43.5T142-90q36 0 54 28t18 84v32q-14-15-32.5-23T141 23q-50 0-79 28.5T33 128v13q0 44 31 71.5t81 27.5q59 0 90-40.5T266 83zM84 141v-13q0-40 16-62t46-22q21 0 38.5 9.5T214 81v31q0 56-16.5 82T145 220q-31 0-46-19.5T84 141z" glyph-name="nineinferior" horiz-adv-x="311" unicode="₉"/><glyph d="M166 240q57 0 89.5-43T288 81V50q0-74-32.5-117T166-110q-57 0-89.5 42.5T44 50v31q0 74 32.5 116.5T166 240zm71-225v101q0 52-17.5 78T166 220q-36 0-53-25.5T96 116V15q0-53 17-79t53-26q36 0 53.5 26T237 15z" glyph-name="zero.numerator" horiz-adv-x="332"/><glyph d="M36 179l-11 17 64 39h42V-60q0-16 1.5-20t9.5-5l28-2v-18H35v18l38 2q8 1 9.5 5T84-60v268z" glyph-name="one.numerator" horiz-adv-x="201"/><glyph d="M217-60l8 40h18v-85H32v23q0 47 16 73.5T127 55q37 22 50.5 42t13.5 47q0 38-14 57t-42 19q-33 0-47-22.5T79 129l-48 8q-8 44 21 73.5t83 29.5q51 0 79.5-25t28.5-69q0-23-9-41.5T207 70q-7-6-26-16.5T132 28Q94 9 78-13.5T60-73h130q17 0 21 2t6 11z" glyph-name="two.numerator" horiz-adv-x="285"/><glyph d="M200-20q0 39-21 59.5T116 60h-14v20h14q38 0 57.5 18.5T193 153q0 33-15 50t-43 17q-34 0-48-22.5T78 129l-48 8q-8 45 21.5 74t84.5 29q52 0 80.5-23.5T245 153q0-32-18-53t-53-30q39-9 58.5-31.5T252-20q0-42-30-66t-84-24q-41 0-68.5 17.5T30-40l30 10q5-29 25.5-44.5T137-90q31 0 47 18t16 52z" glyph-name="three.numerator" horiz-adv-x="291"/><glyph d="M159-60v38H7v20q60 66 86 117.5T129 235h55q-11-52-43.5-104.5T30-2h129v81l47 5V-2h39v-20h-39v-38q0-16 1.5-20t9.5-5l28-2v-18H120v18l28 2q8 1 9.5 5t1.5 20z" glyph-name="four.numerator" horiz-adv-x="262"/><glyph d="M216 248l4 27h13v-71H70L65 99q15 9 31.5 13.5T130 117q54 0 85.5-31.5T247 1q0-51-30.5-81T131-110q-38 0-64 18T29-39l30 8q5-29 24-45t47-16q31 0 47.5 24T194 1q0 48-16.5 72.5T129 98q-20 0-38.5-7.5T55 67l-14 3 9 165h152q3 0 5 1 4 0 6 2t3 10z" glyph-name="five.numerator" horiz-adv-x="275"/><glyph d="M278-5v-5q0-45-31-72.5T166-110q-59 0-90 40T45 48v31q0 78 31 119.5t88 41.5q52 0 83-30.5t24-72.5l-48-8q5 45-10 68t-49 23q-36 0-51.5-27T97 109V69q14 15 32.5 23t40.5 8q49 0 78.5-28.5T278-5zM97 42V18q0-57 16-82.5T166-90q30 0 45.5 20T227-10v5q0 40-16.5 62T165 79q-21 0-38.5-9.5T97 42z" glyph-name="six.numerator" horiz-adv-x="316"/><glyph d="M55 191l-8-41H29v85h211v-27q-52-68-71.5-135.5T145-105H90q10 92 39.5 161T223 204H82q-17 0-21-2t-6-11z" glyph-name="seven.numerator" horiz-adv-x="263"/><glyph d="M193 79q37-17 54.5-41.5T265-22q0-41-29-64.5T155-110q-52 0-83.5 23.5T40-27q0 29 16.5 50.5T108 61Q77 77 62 99.5T47 151q0 40 28 64.5t75 24.5q47 0 77-23.5t30-59.5q0-29-15-46.5T193 79zM89 161q0-22 13-36t46-28l20-8q22 13 32 28.5t10 39.5q0 30-15.5 46.5T151 220q-29 0-45.5-15.5T89 161zM87-26q0-30 17.5-47T155-90q32 0 49.5 15.5T222-30q0 25-13.5 40.5T162 39l-31 12q-22-13-33-32.5T87-26z" glyph-name="eight.numerator" horiz-adv-x="305"/><glyph d="M266 83V51q0-78-32-119.5T142-110q-38 0-64.5 18T39-39l31 8q4-28 23.5-43.5T142-90q36 0 54 28t18 84v32q-14-15-32.5-23T141 23q-50 0-79 28.5T33 128v13q0 44 31 71.5t81 27.5q59 0 90-40.5T266 83zM84 141v-13q0-40 16-62t46-22q21 0 38.5 9.5T214 81v31q0 56-16.5 82T145 220q-31 0-46-19.5T84 141z" glyph-name="nine.numerator" horiz-adv-x="311"/><glyph d="M166 345q57 0 89.5-43T288 186v-31q0-74-32.5-117T166-5q-57 0-89.5 42.5T44 155v31q0 74 32.5 116.5T166 345zm71-225v101q0 52-17.5 78T166 325q-36 0-53-25.5T96 221V120q0-53 17-79t53-26q36 0 53.5 26t17.5 79z" glyph-name="zero.denominator" horiz-adv-x="332"/><glyph d="M36 284l-11 17 64 39h42V45q0-16 1.5-20t9.5-5l28-2V0H35v18l38 2q8 1 9.5 5T84 45v268z" glyph-name="one.denominator" horiz-adv-x="201"/><glyph d="M217 45l8 40h18V0H32v23q0 47 16 73.5t79 63.5q37 22 50.5 42t13.5 47q0 38-14 57t-42 19q-33 0-47-22.5T79 234l-48 8q-8 44 21 73.5t83 29.5q51 0 79.5-25t28.5-69q0-23-9-41.5T207 175q-7-6-26-16.5T132 133q-38-19-54-41.5T60 32h130q17 0 21 2t6 11z" glyph-name="two.denominator" horiz-adv-x="285"/><glyph d="M200 85q0 39-21 59.5T116 165h-14v20h14q38 0 57.5 18.5T193 258q0 33-15 50t-43 17q-34 0-48-22.5T78 234l-48 8q-8 45 21.5 74t84.5 29q52 0 80.5-23.5T245 258q0-32-18-53t-53-30q39-9 58.5-31.5T252 85q0-42-30-66T138-5Q97-5 69.5 12.5T30 65l30 10q5-29 25.5-44.5T137 15q31 0 47 18t16 52z" glyph-name="three.denominator" horiz-adv-x="291"/><glyph d="M159 45v38H7v20q60 66 86 117.5T129 340h55q-11-52-43.5-104.5T30 103h129v81l47 5v-86h39V83h-39V45q0-16 1.5-20t9.5-5l28-2V0H120v18l28 2q8 1 9.5 5t1.5 20z" glyph-name="four.denominator" horiz-adv-x="262"/><glyph d="M216 353l4 27h13v-71H70l-5-105q15 9 31.5 13.5T130 222q54 0 85.5-31.5T247 106q0-51-30.5-81T131-5Q93-5 67 13T29 66l30 8q5-29 24-45t47-16q31 0 47.5 24t16.5 69q0 48-16.5 72.5T129 203q-20 0-38.5-7.5T55 172l-14 3 9 165h152q3 0 5 1 4 0 6 2t3 10z" glyph-name="five.denominator" horiz-adv-x="275"/><glyph d="M278 100v-5q0-45-31-72.5T166-5q-59 0-90 40T45 153v31q0 78 31 119.5t88 41.5q52 0 83-30.5t24-72.5l-48-8q5 45-10 68t-49 23q-36 0-51.5-27T97 214v-40q14 15 32.5 23t40.5 8q49 0 78.5-28.5T278 100zM97 147v-24q0-57 16-82.5T166 15q30 0 45.5 20T227 95v5q0 40-16.5 62T165 184q-21 0-38.5-9.5T97 147z" glyph-name="six.denominator" horiz-adv-x="316"/><glyph d="M55 296l-8-41H29v85h211v-27q-52-68-71.5-135.5T145 0H90q10 92 39.5 161T223 309H82q-17 0-21-2t-6-11z" glyph-name="seven.denominator" horiz-adv-x="263"/><glyph d="M193 184q37-17 54.5-41.5T265 83q0-41-29-64.5T155-5q-52 0-83.5 23.5T40 78q0 29 16.5 50.5T108 166q-31 16-46 38.5T47 256q0 40 28 64.5t75 24.5q47 0 77-23.5t30-59.5q0-29-15-46.5T193 184zM89 266q0-22 13-36t46-28l20-8q22 13 32 28.5t10 39.5q0 30-15.5 46.5T151 325q-29 0-45.5-15.5T89 266zM87 79q0-30 17.5-47T155 15q32 0 49.5 15.5T222 75q0 25-13.5 40.5T162 144l-31 12q-22-13-33-32.5T87 79z" glyph-name="eight.denominator" horiz-adv-x="305"/><glyph d="M266 188v-32q0-78-32-119.5T142-5q-38 0-64.5 18T39 66l31 8q4-28 23.5-43.5T142 15q36 0 54 28t18 84v32q-14-15-32.5-23t-40.5-8q-50 0-79 28.5T33 233v13q0 44 31 71.5t81 27.5q59 0 90-40.5T266 188zM84 246v-13q0-40 16-62t46-22q21 0 38.5 9.5T214 186v31q0 56-16.5 82T145 325q-31 0-46-19.5T84 246z" glyph-name="nine.denominator" horiz-adv-x="311"/><glyph d="M36 624l-11 17 64 39h42V385q0-16 1.5-20t9.5-5l28-2v-18H35v18l38 2q8 1 9.5 5t1.5 20v268zM56 16l376 664 25-16L81 0zm443 29l8 40h18V0H314v23q0 47 16 73.5t79 63.5q37 22 50.5 42t13.5 47q0 38-14 57t-42 19q-33 0-47-22.5t-9-68.5l-48 8q-8 44 21 73.5t83 29.5q51 0 79.5-25t28.5-69q0-23-9-41.5T489 175q-7-6-26-16.5T414 133q-38-19-54-41.5T342 32h130q17 0 21 2t6 11z" glyph-name="onehalf" horiz-adv-x="567" unicode="½"/><glyph d="M36 624l-11 17 64 39h42V385q0-16 1.5-20t9.5-5l28-2v-18H35v18l38 2q8 1 9.5 5t1.5 20v268zM56 16l376 664 25-16L81 0zm426 69q0 39-21 59.5T398 165h-14v20h14q38 0 57.5 18.5T475 258q0 33-15 50t-43 17q-34 0-48-22.5t-9-68.5l-48 8q-8 45 21.5 74t84.5 29q52 0 80.5-23.5T527 258q0-32-18-53t-53-30q39-9 58.5-31.5T534 85q0-42-30-66T420-5q-41 0-68.5 17.5T312 65l30 10q5-29 25.5-44.5T419 15q31 0 47 18t16 52z" glyph-name="onethird" horiz-adv-x="573" unicode="⅓"/><glyph d="M36 624l-11 17 64 39h42V385q0-16 1.5-20t9.5-5l28-2v-18H35v18l38 2q8 1 9.5 5t1.5 20v268zM56 16l376 664 25-16L81 0zm377 29v38H281v20q60 66 86 117.5T403 340h55q-11-52-43.5-104.5T304 103h129v81l47 5v-86h39V83h-39V45q0-16 1.5-20t9.5-5l28-2V0H394v18l28 2q8 1 9.5 5t1.5 20z" glyph-name="onequarter" horiz-adv-x="531" unicode="¼"/><glyph d="M36 624l-11 17 64 39h42V385q0-16 1.5-20t9.5-5l28-2v-18H35v18l38 2q8 1 9.5 5t1.5 20v268zM56 16l376 664 25-16L81 0zm462 337l4 27h13v-71H372l-5-105q15 9 31.5 13.5T432 222q54 0 85.5-31.5T549 106q0-51-30.5-81T433-5q-38 0-64 18t-38 53l30 8q5-29 24-45t47-16q31 0 47.5 24t16.5 69q0 48-16.5 72.5T431 203q-20 0-38.5-7.5T357 172l-14 3 9 165h152q3 0 5 1 4 0 6 2t3 10z" glyph-name="onefifth" horiz-adv-x="577"/><glyph d="M36 624l-11 17 64 39h42V385q0-16 1.5-20t9.5-5l28-2v-18H35v18l38 2q8 1 9.5 5t1.5 20v268zM56 16l376 664 25-16L81 0zm491 84v-5q0-45-31-72.5T435-5q-59 0-90 40t-31 118v31q0 78 31 119.5t88 41.5q52 0 83-30.5t24-72.5l-48-8q5 45-10 68t-49 23q-36 0-51.5-27T366 214v-40q14 15 32.5 23t40.5 8q49 0 78.5-28.5T547 100zm-181 47v-24q0-57 16-82.5T435 15q30 0 45.5 20T496 95v5q0 40-16.5 62T434 184q-21 0-38.5-9.5T366 147z" glyph-name="onesixth" horiz-adv-x="585"/><glyph d="M36 624l-11 17 64 39h42V385q0-16 1.5-20t9.5-5l28-2v-18H35v18l38 2q8 1 9.5 5t1.5 20v268zM56 16l376 664 25-16L81 0zm306 280l-8-41h-18v85h211v-27q-52-68-71.5-135.5T452 0h-55q10 92 39.5 161T530 309H389q-17 0-21-2t-6-11z" glyph-name="oneseventh" horiz-adv-x="570"/><glyph d="M36 624l-11 17 64 39h42V385q0-16 1.5-20t9.5-5l28-2v-18H35v18l38 2q8 1 9.5 5t1.5 20v268zM56 16l376 664 25-16L81 0zm419 168q37-17 54.5-41.5T547 83q0-41-29-64.5T437-5q-52 0-83.5 23.5T322 78q0 29 16.5 50.5T390 166q-31 16-46 38.5T329 256q0 40 28 64.5t75 24.5q47 0 77-23.5t30-59.5q0-29-15-46.5T475 184zm-104 82q0-22 13-36t46-28l20-8q22 13 32 28.5t10 39.5q0 30-15.5 46.5T433 325q-29 0-45.5-15.5T371 266zm-2-187q0-30 17.5-47T437 15q32 0 49.5 15.5T504 75q0 25-13.5 40.5T444 144l-31 12q-22-13-33-32.5T369 79z" glyph-name="oneeighth" horiz-adv-x="587" unicode="⅛"/><glyph d="M36 624l-11 17 64 39h42V385q0-16 1.5-20t9.5-5l28-2v-18H35v18l38 2q8 1 9.5 5t1.5 20v268zM56 16l376 664 25-16L81 0zm492 172v-32q0-78-32-119.5T424-5q-38 0-64.5 18T321 66l31 8q4-28 23.5-43.5T424 15q36 0 54 28t18 84v32q-14-15-32.5-23t-40.5-8q-50 0-79 28.5T315 233v13q0 44 31 71.5t81 27.5q59 0 90-40.5T548 188zm-182 58v-13q0-40 16-62t46-22q21 0 38.5 9.5T496 186v31q0 56-16.5 82T427 325q-31 0-46-19.5T366 246z" glyph-name="oneninth" horiz-adv-x="593"/><glyph d="M217 385l8 40h18v-85H32v23q0 47 16 73.5t79 63.5q37 22 50.5 42t13.5 47q0 38-14 57t-42 19q-33 0-47-22.5T79 574l-48 8q-8 44 21 73.5t83 29.5q51 0 79.5-25t28.5-69q0-23-9-41.5T207 515q-7-6-26-16.5T132 473q-38-19-54-41.5T60 372h130q17 0 21 2t6 11zM130 16l376 664 25-16L155 0zm426 69q0 39-21 59.5T472 165h-14v20h14q38 0 57.5 18.5T549 258q0 33-15 50t-43 17q-34 0-48-22.5t-9-68.5l-48 8q-8 45 21.5 74t84.5 29q52 0 80.5-23.5T601 258q0-32-18-53t-53-30q39-9 58.5-31.5T608 85q0-42-30-66T494-5q-41 0-68.5 17.5T386 65l30 10q5-29 25.5-44.5T493 15q31 0 47 18t16 52z" glyph-name="twothirds" horiz-adv-x="647" unicode="⅔"/><glyph d="M217 385l8 40h18v-85H32v23q0 47 16 73.5t79 63.5q37 22 50.5 42t13.5 47q0 38-14 57t-42 19q-33 0-47-22.5T79 574l-48 8q-8 44 21 73.5t83 29.5q51 0 79.5-25t28.5-69q0-23-9-41.5T207 515q-7-6-26-16.5T132 473q-38-19-54-41.5T60 372h130q17 0 21 2t6 11zM130 16l376 664 25-16L155 0zm452 337l4 27h13v-71H436l-5-105q15 9 31.5 13.5T496 222q54 0 85.5-31.5T613 106q0-51-30.5-81T497-5q-38 0-64 18t-38 53l30 8q5-29 24-45t47-16q31 0 47.5 24t16.5 69q0 48-16.5 72.5T495 203q-20 0-38.5-7.5T421 172l-14 3 9 165h152q3 0 5 1 4 0 6 2t3 10z" glyph-name="twofifths" horiz-adv-x="641"/><glyph d="M217 385l8 40h18v-85H32v23q0 47 16 73.5t79 63.5q37 22 50.5 42t13.5 47q0 38-14 57t-42 19q-33 0-47-22.5T79 574l-48 8q-8 44 21 73.5t83 29.5q51 0 79.5-25t28.5-69q0-23-9-41.5T207 515q-7-6-26-16.5T132 473q-38-19-54-41.5T60 372h130q17 0 21 2t6 11zM130 16l376 664 25-16L155 0zm306 280l-8-41h-18v85h211v-27q-52-68-71.5-135.5T526 0h-55q10 92 39.5 161T604 309H463q-17 0-21-2t-6-11z" glyph-name="twosevenths" horiz-adv-x="644"/><glyph d="M217 385l8 40h18v-85H32v23q0 47 16 73.5t79 63.5q37 22 50.5 42t13.5 47q0 38-14 57t-42 19q-33 0-47-22.5T79 574l-48 8q-8 44 21 73.5t83 29.5q51 0 79.5-25t28.5-69q0-23-9-41.5T207 515q-7-6-26-16.5T132 473q-38-19-54-41.5T60 372h130q17 0 21 2t6 11zM130 16l376 664 25-16L155 0zm492 172v-32q0-78-32-119.5T498-5q-38 0-64.5 18T395 66l31 8q4-28 23.5-43.5T498 15q36 0 54 28t18 84v32q-14-15-32.5-23t-40.5-8q-50 0-79 28.5T389 233v13q0 44 31 71.5t81 27.5q59 0 90-40.5T622 188zm-182 58v-13q0-40 16-62t46-22q21 0 38.5 9.5T570 186v31q0 56-16.5 82T501 325q-31 0-46-19.5T440 246z" glyph-name="twoninths" horiz-adv-x="667"/><glyph d="M200 425q0 39-21 59.5T116 505h-14v20h14q38 0 57.5 18.5T193 598q0 33-15 50t-43 17q-34 0-48-22.5T78 574l-48 8q-8 45 21.5 74t84.5 29q52 0 80.5-23.5T245 598q0-32-18-53t-53-30q39-9 58.5-31.5T252 425q0-42-30-66t-84-24q-41 0-68.5 17.5T30 405l30 10q5-29 25.5-44.5T137 355q31 0 47 18t16 52zM116 16l376 664 25-16L141 0zm377 29v38H341v20q60 66 86 117.5T463 340h55q-11-52-43.5-104.5T364 103h129v81l47 5v-86h39V83h-39V45q0-16 1.5-20t9.5-5l28-2V0H454v18l28 2q8 1 9.5 5t1.5 20z" glyph-name="threequarters" horiz-adv-x="591" unicode="¾"/><glyph d="M200 425q0 39-21 59.5T116 505h-14v20h14q38 0 57.5 18.5T193 598q0 33-15 50t-43 17q-34 0-48-22.5T78 574l-48 8q-8 45 21.5 74t84.5 29q52 0 80.5-23.5T245 598q0-32-18-53t-53-30q39-9 58.5-31.5T252 425q0-42-30-66t-84-24q-41 0-68.5 17.5T30 405l30 10q5-29 25.5-44.5T137 355q31 0 47 18t16 52zM116 16l376 664 25-16L141 0zm462 337l4 27h13v-71H432l-5-105q15 9 31.5 13.5T492 222q54 0 85.5-31.5T609 106q0-51-30.5-81T493-5q-38 0-64 18t-38 53l30 8q5-29 24-45t47-16q31 0 47.5 24t16.5 69q0 48-16.5 72.5T491 203q-20 0-38.5-7.5T417 172l-14 3 9 165h152q3 0 5 1 4 0 6 2t3 10z" glyph-name="threefifths" horiz-adv-x="637"/><glyph d="M200 425q0 39-21 59.5T116 505h-14v20h14q38 0 57.5 18.5T193 598q0 33-15 50t-43 17q-34 0-48-22.5T78 574l-48 8q-8 45 21.5 74t84.5 29q52 0 80.5-23.5T245 598q0-32-18-53t-53-30q39-9 58.5-31.5T252 425q0-42-30-66t-84-24q-41 0-68.5 17.5T30 405l30 10q5-29 25.5-44.5T137 355q31 0 47 18t16 52zM116 16l376 664 25-16L141 0zm306 280l-8-41h-18v85h211v-27q-52-68-71.5-135.5T512 0h-55q10 92 39.5 161T590 309H449q-17 0-21-2t-6-11z" glyph-name="threesevenths" horiz-adv-x="630"/><glyph d="M200 425q0 39-21 59.5T116 505h-14v20h14q38 0 57.5 18.5T193 598q0 33-15 50t-43 17q-34 0-48-22.5T78 574l-48 8q-8 45 21.5 74t84.5 29q52 0 80.5-23.5T245 598q0-32-18-53t-53-30q39-9 58.5-31.5T252 425q0-42-30-66t-84-24q-41 0-68.5 17.5T30 405l30 10q5-29 25.5-44.5T137 355q31 0 47 18t16 52zM116 16l376 664 25-16L141 0zm419 168q37-17 54.5-41.5T607 83q0-41-29-64.5T497-5q-52 0-83.5 23.5T382 78q0 29 16.5 50.5T450 166q-31 16-46 38.5T389 256q0 40 28 64.5t75 24.5q47 0 77-23.5t30-59.5q0-29-15-46.5T535 184zm-104 82q0-22 13-36t46-28l20-8q22 13 32 28.5t10 39.5q0 30-15.5 46.5T493 325q-29 0-45.5-15.5T431 266zm-2-187q0-30 17.5-47T497 15q32 0 49.5 15.5T564 75q0 25-13.5 40.5T504 144l-31 12q-22-13-33-32.5T429 79z" glyph-name="threeeighths" horiz-adv-x="647" unicode="⅜"/><glyph d="M159 385v38H7v20q60 66 86 117.5T129 680h55q-11-52-43.5-104.5T30 443h129v81l47 5v-86h39v-20h-39v-38q0-16 1.5-20t9.5-5l28-2v-18H120v18l28 2q8 1 9.5 5t1.5 20zM122 16l376 664 25-16L147 0zm462 337l4 27h13v-71H438l-5-105q15 9 31.5 13.5T498 222q54 0 85.5-31.5T615 106q0-51-30.5-81T499-5q-38 0-64 18t-38 53l30 8q5-29 24-45t47-16q31 0 47.5 24t16.5 69q0 48-16.5 72.5T497 203q-20 0-38.5-7.5T423 172l-14 3 9 165h152q3 0 5 1 4 0 6 2t3 10z" glyph-name="fourfifths" horiz-adv-x="643"/><glyph d="M159 385v38H7v20q60 66 86 117.5T129 680h55q-11-52-43.5-104.5T30 443h129v81l47 5v-86h39v-20h-39v-38q0-16 1.5-20t9.5-5l28-2v-18H120v18l28 2q8 1 9.5 5t1.5 20zM122 16l376 664 25-16L147 0zm306 280l-8-41h-18v85h211v-27q-52-68-71.5-135.5T518 0h-55q10 92 39.5 161T596 309H455q-17 0-21-2t-6-11z" glyph-name="foursevenths" horiz-adv-x="636"/><glyph d="M159 385v38H7v20q60 66 86 117.5T129 680h55q-11-52-43.5-104.5T30 443h129v81l47 5v-86h39v-20h-39v-38q0-16 1.5-20t9.5-5l28-2v-18H120v18l28 2q8 1 9.5 5t1.5 20zM122 16l376 664 25-16L147 0zm492 172v-32q0-78-32-119.5T490-5q-38 0-64.5 18T387 66l31 8q4-28 23.5-43.5T490 15q36 0 54 28t18 84v32q-14-15-32.5-23t-40.5-8q-50 0-79 28.5T381 233v13q0 44 31 71.5t81 27.5q59 0 90-40.5T614 188zm-182 58v-13q0-40 16-62t46-22q21 0 38.5 9.5T562 186v31q0 56-16.5 82T493 325q-31 0-46-19.5T432 246z" glyph-name="fourninths" horiz-adv-x="659"/><glyph d="M216 693l4 27h13v-71H70l-5-105q15 9 31.5 13.5T130 562q54 0 85.5-31.5T247 446q0-51-30.5-81T131 335q-38 0-64 18t-38 53l30 8q5-29 24-45t47-16q31 0 47.5 24t16.5 69q0 48-16.5 72.5T129 543q-20 0-38.5-7.5T55 512l-14 3 9 165h152q3 0 5 1 4 0 6 2t3 10zM110 16l376 664 25-16L135 0zm491 84v-5q0-45-31-72.5T489-5q-59 0-90 40t-31 118v31q0 78 31 119.5t88 41.5q52 0 83-30.5t24-72.5l-48-8q5 45-10 68t-49 23q-36 0-51.5-27T420 214v-40q14 15 32.5 23t40.5 8q49 0 78.5-28.5T601 100zm-181 47v-24q0-57 16-82.5T489 15q30 0 45.5 20T550 95v5q0 40-16.5 62T488 184q-21 0-38.5-9.5T420 147z" glyph-name="fivesixths" horiz-adv-x="639"/><glyph d="M216 693l4 27h13v-71H70l-5-105q15 9 31.5 13.5T130 562q54 0 85.5-31.5T247 446q0-51-30.5-81T131 335q-38 0-64 18t-38 53l30 8q5-29 24-45t47-16q31 0 47.5 24t16.5 69q0 48-16.5 72.5T129 543q-20 0-38.5-7.5T55 512l-14 3 9 165h152q3 0 5 1 4 0 6 2t3 10zM110 16l376 664 25-16L135 0zm306 280l-8-41h-18v85h211v-27q-52-68-71.5-135.5T506 0h-55q10 92 39.5 161T584 309H443q-17 0-21-2t-6-11z" glyph-name="fivesevenths" horiz-adv-x="624"/><glyph d="M216 693l4 27h13v-71H70l-5-105q15 9 31.5 13.5T130 562q54 0 85.5-31.5T247 446q0-51-30.5-81T131 335q-38 0-64 18t-38 53l30 8q5-29 24-45t47-16q31 0 47.5 24t16.5 69q0 48-16.5 72.5T129 543q-20 0-38.5-7.5T55 512l-14 3 9 165h152q3 0 5 1 4 0 6 2t3 10zM110 16l376 664 25-16L135 0zm419 168q37-17 54.5-41.5T601 83q0-41-29-64.5T491-5q-52 0-83.5 23.5T376 78q0 29 16.5 50.5T444 166q-31 16-46 38.5T383 256q0 40 28 64.5t75 24.5q47 0 77-23.5t30-59.5q0-29-15-46.5T529 184zm-104 82q0-22 13-36t46-28l20-8q22 13 32 28.5t10 39.5q0 30-15.5 46.5T487 325q-29 0-45.5-15.5T425 266zm-2-187q0-30 17.5-47T491 15q32 0 49.5 15.5T558 75q0 25-13.5 40.5T498 144l-31 12q-22-13-33-32.5T423 79z" glyph-name="fiveeighths" horiz-adv-x="641" unicode="⅝"/><glyph d="M216 693l4 27h13v-71H70l-5-105q15 9 31.5 13.5T130 562q54 0 85.5-31.5T247 446q0-51-30.5-81T131 335q-38 0-64 18t-38 53l30 8q5-29 24-45t47-16q31 0 47.5 24t16.5 69q0 48-16.5 72.5T129 543q-20 0-38.5-7.5T55 512l-14 3 9 165h152q3 0 5 1 4 0 6 2t3 10zM110 16l376 664 25-16L135 0zm492 172v-32q0-78-32-119.5T478-5q-38 0-64.5 18T375 66l31 8q4-28 23.5-43.5T478 15q36 0 54 28t18 84v32q-14-15-32.5-23t-40.5-8q-50 0-79 28.5T369 233v13q0 44 31 71.5t81 27.5q59 0 90-40.5T602 188zm-182 58v-13q0-40 16-62t46-22q21 0 38.5 9.5T550 186v31q0 56-16.5 82T481 325q-31 0-46-19.5T420 246z" glyph-name="fiveninths" horiz-adv-x="647"/><glyph d="M278 440v-5q0-45-31-72.5T166 335q-59 0-90 40T45 493v31q0 78 31 119.5t88 41.5q52 0 83-30.5t24-72.5l-48-8q5 45-10 68t-49 23q-36 0-51.5-27T97 554v-40q14 15 32.5 23t40.5 8q49 0 78.5-28.5T278 440zM97 487v-24q0-57 16-82.5t53-25.5q30 0 45.5 20t15.5 60v5q0 40-16.5 62T165 524q-21 0-38.5-9.5T97 487zm44-471l376 664 25-16L166 0zm306 280l-8-41h-18v85h211v-27q-52-68-71.5-135.5T537 0h-55q10 92 39.5 161T615 309H474q-17 0-21-2t-6-11z" glyph-name="sixsevenths" horiz-adv-x="655"/><glyph d="M55 636l-8-41H29v85h211v-27q-52-68-71.5-135.5T145 340H90q10 92 39.5 161T223 649H82q-17 0-21-2t-6-11zM78 16l376 664 25-16L103 0zm419 168q37-17 54.5-41.5T569 83q0-41-29-64.5T459-5q-52 0-83.5 23.5T344 78q0 29 16.5 50.5T412 166q-31 16-46 38.5T351 256q0 40 28 64.5t75 24.5q47 0 77-23.5t30-59.5q0-29-15-46.5T497 184zm-104 82q0-22 13-36t46-28l20-8q22 13 32 28.5t10 39.5q0 30-15.5 46.5T455 325q-29 0-45.5-15.5T393 266zm-2-187q0-30 17.5-47T459 15q32 0 49.5 15.5T526 75q0 25-13.5 40.5T466 144l-31 12q-22-13-33-32.5T391 79z" glyph-name="seveneighths" horiz-adv-x="609" unicode="⅞"/><glyph d="M55 636l-8-41H29v85h211v-27q-52-68-71.5-135.5T145 340H90q10 92 39.5 161T223 649H82q-17 0-21-2t-6-11zM78 16l376 664 25-16L103 0zm492 172v-32q0-78-32-119.5T446-5q-38 0-64.5 18T343 66l31 8q4-28 23.5-43.5T446 15q36 0 54 28t18 84v32q-14-15-32.5-23t-40.5-8q-50 0-79 28.5T337 233v13q0 44 31 71.5t81 27.5q59 0 90-40.5T570 188zm-182 58v-13q0-40 16-62t46-22q21 0 38.5 9.5T518 186v31q0 56-16.5 82T449 325q-31 0-46-19.5T388 246z" glyph-name="sevenninths" horiz-adv-x="615"/><glyph d="M193 524q37-17 54.5-41.5T265 423q0-41-29-64.5T155 335q-52 0-83.5 23.5T40 418q0 29 16.5 50.5T108 506q-31 16-46 38.5T47 596q0 40 28 64.5t75 24.5q47 0 77-23.5t30-59.5q0-29-15-46.5T193 524zM89 606q0-22 13-36t46-28l20-8q22 13 32 28.5t10 39.5q0 30-15.5 46.5T151 665q-29 0-45.5-15.5T89 606zm-2-187q0-30 17.5-47t50.5-17q32 0 49.5 15.5T222 415q0 25-13.5 40.5T162 484l-31 12q-22-13-33-32.5T87 419zm43-403l376 664 25-16L155 0zm492 172v-32q0-78-32-119.5T498-5q-38 0-64.5 18T395 66l31 8q4-28 23.5-43.5T498 15q36 0 54 28t18 84v32q-14-15-32.5-23t-40.5-8q-50 0-79 28.5T389 233v13q0 44 31 71.5t81 27.5q59 0 90-40.5T622 188zm-182 58v-13q0-40 16-62t46-22q21 0 38.5 9.5T570 186v31q0 56-16.5 82T501 325q-31 0-46-19.5T440 246z" glyph-name="eightninths" horiz-adv-x="667"/><glyph d="M501 350v-32H311V124h-34v194H87v32h190v194h34V350z" glyph-name="plus" horiz-adv-x="588" unicode="+"/><glyph d="M501 318H87v32h414z" glyph-name="minus" horiz-adv-x="588" unicode="−"/><glyph d="M318 334l163-163-24-24-163 163-163-163-24 24 163 163-163 163 24 24 163-163 163 163 24-24z" glyph-name="multiply" horiz-adv-x="588" unicode="×"/><glyph d="M342 541q0-21-13.5-34.5T294 493q-20 0-33.5 13.5T247 541q0 20 13.5 33.5T294 588q21 0 34.5-13.5T342 541zm159-223H87v32h414zM342 128q0-21-13.5-34.5T294 80q-20 0-33.5 13.5T247 128q0 20 13.5 33.5T294 175q21 0 34.5-13.5T342 128z" glyph-name="divide" horiz-adv-x="588" unicode="÷"/><glyph d="M501 418H87v32h414zm0-200H87v32h414z" glyph-name="equal" horiz-adv-x="588" unicode="="/><glyph d="M467 429H87v32h414V238h-34z" glyph-name="logicalnot" horiz-adv-x="588" unicode="¬"/><glyph d="M390 258q-27 0-50.5 12.5T281 321q-29 33-46.5 43T198 374q-28 0-47-21t-34-69l-30 14q21 57 47 83.5t64 26.5q27 0 50-12t57-51q30-33 48-43t37-10q28 0 47 21t34 69l30-14q-21-57-47-83.5T390 258z" glyph-name="asciitilde" horiz-adv-x="588" unicode="~"/><glyph d="M135 334l366-146-12-30L87 319v28l402 161 12-29z" glyph-name="less" horiz-adv-x="588" unicode="&lt;"/><glyph d="M501 347v-28L99 158l-12 29 366 146L87 478l12 30z" glyph-name="greater" horiz-adv-x="588" unicode="&gt;"/><glyph d="M501 350v-32H311V124h-34v194H87v32h190v194h34V350zm0-350H87v32h414z" glyph-name="plusminus" horiz-adv-x="588" unicode="±"/><glyph d="M308 680l161-402-31-12-145 365-145-365-29 12 161 402z" glyph-name="asciicircum" horiz-adv-x="588" unicode="^"/><glyph d="M501 250v-32H244L164 84l-27 17 70 117H87v32h139l99 168H87v32h257l80 134 27-17-70-117h120v-32H362l-99-168z" glyph-name="notequal" horiz-adv-x="588" unicode="≠"/><glyph d="M390 358q-27 0-50.5 12.5T281 421q-29 33-46.5 43T198 474q-28 0-47-21t-34-69l-30 14q21 57 47 83.5t64 26.5q27 0 50-12t57-51q30-33 48-43t37-10q28 0 47 21t34 69l30-14q-21-57-47-83.5T390 358zm0-200q-27 0-50.5 12.5T281 221q-29 33-46.5 43T198 274q-28 0-47-21t-34-69l-30 14q21 57 47 83.5t64 26.5q27 0 50-12t57-51q30-33 48-43t37-10q28 0 47 21t34 69l30-14q-21-57-47-83.5T390 158z" glyph-name="approxequal" horiz-adv-x="588" unicode="≈"/><glyph d="M135 334l366-146-12-30L87 319v28l402 161 12-29zM501 0H87v32h414z" glyph-name="lessequal" horiz-adv-x="588" unicode="≤"/><glyph d="M501 347v-28L99 158l-12 29 366 146L87 478l12 30zm0-347H87v32h414z" glyph-name="greaterequal" horiz-adv-x="588" unicode="≥"/><glyph d="M575 534q67 0 112-54.5T732 339q0-88-48-141t-124-53q-59 0-104.5 37.5T380 291q-32-72-76-108.5T207 146q-67 0-112 54.5T50 341q0 88 48 141t123 53q59 0 105-37.5T402 389q32 72 76 108.5t97 36.5zm-372-49q-57 0-90-40T80 340q0-68 33-106t93-38q52 0 90.5 30.5T367 323l-11 26q-30 71-67 103.5T203 485zm212-128l11-26q30-70 66.5-103t85.5-33q57 0 90.5 40T702 340q0 68-33 106t-93 38q-53 0-91.5-31T415 357z" glyph-name="infinity" horiz-adv-x="782" unicode="∞"/><glyph d="M280 0L119 340l161 340h28l161-340L308 0zm14 638L154 341 295 42l139 297z" glyph-name="lozenge" horiz-adv-x="588" unicode="◊"/><glyph d="M153 317H57v32h118L295 48l251 632 29-12L308 0h-28z" glyph-name="radical" horiz-adv-x="588" unicode="√"/><glyph d="M311 722q-33 0-46.5-26.5T245 601L185-64q-8-88-38-123.5T59-223q-54 0-80.5 28.5T-40-118l49 9q-6-42 6.5-64T59-195q32 0 46 26t20 95l60 665q8 88 38 123.5t88 35.5q53 0 79.5-28.5T410 645l-49-9q6 43-6.5 64.5T311 722z" glyph-name="integral" horiz-adv-x="411" unicode="∫"/><glyph d="M490 283l-2-25q-10-125-72-196.5T258-10q-96 0-146.5 64T72 223l2 20q9 94 64.5 149T277 447q46 0 84-17.5t63-50.5q-5 116-57 206T225 726l14 24q132-69 197.5-192T490 283zm-349-27l-4-43q-9-94 22.5-143.5T260 20q68 0 107 53.5T416 233l6 65q0 4 .5 12.5T424 323q-21 46-58.5 70T279 417q-63 0-96.5-40T141 256z" glyph-name="partialdiff" horiz-adv-x="563" unicode="∂"/><glyph d="M605-113l55-5v-25H441v25l55 5q16 2 19 8.5t3 40.5v714H190V-64q0-34 3-40.5t19-8.5l55-5v-25H48v25l55 5q16 2 19 8.5t3 40.5v665q0 34-3 40.5t-19 8.5l-55 5v25h612v-25l-55-5q-16-2-19-8.5t-3-40.5V-64q0-34 3-40.5t19-8.5z" glyph-name="product" horiz-adv-x="708" unicode="∏"/><glyph d="M101 457l-55 5v25h495v-30h-93V107q0-40 10-58.5T491 30q10 0 20.5 4.5T532 48l18-24Q534 9 514.5 2T472-5q-40 0-62 25t-22 71v366H183V0h-60v408q0 34-3 40.5t-19 8.5z" glyph-name="pi" horiz-adv-x="588" unicode="π"/><glyph d="M405 457l-75 5v25h157V107q0-40 10-58.5T530 30q10 0 20.5 4.5T571 48l18-24Q573 9 553.5 2T511-5q-36 0-57.5 20.5T428 74q-36-41-79.5-62.5T258-10q-34 0-60.5 10T152 31q1-74 6.5-121.5T180-193l-68-20v621q0 34-3 40.5T90 457l-55 5v25h137V161q0-70 22.5-102T267 27q44 0 84 22.5t76 68.5v290q0 34-3 41t-19 8z" glyph-name="mu" horiz-adv-x="606" unicode="µ"/><glyph d="M447-64l27 81h25v-160H27v45l285 352L32 660v20h450V543h-25l-27 81q-7 20-15.5 23t-38.5 3H117l250-362v-16L74-90h319q30 0 38.5 3T447-64z" glyph-name="summation" horiz-adv-x="555" unicode="∑"/><glyph d="M593 160V0H384v156q67 26 99 78t32 135v93q0 94-47.5 146T334 660q-86 0-133.5-52T153 462v-93q0-83 32-135t99-78V0H75v160h25l17-81q4-19 12-22.5t42-3.5h78v83q-81 35-125 103T80 399v33q0 112 70 185t184 73q113 0 183.5-73T588 432v-33q0-91-44-160T419 137V53h78q34 0 42 3.5T551 79l17 81z" glyph-name="Omega" horiz-adv-x="668" unicode="Ω"/><glyph d="M302 680L529 20V0H30v20l225 660zm-41-80L65 30h391z" glyph-name="Delta" horiz-adv-x="559" unicode="∆"/><glyph d="M313 58l18-24q-22-19-49.5-29T222-5q-59 0-92 33t-33 93v390q0 89 34.5 134T234 690q64 0 99.5-36T369 554q0-75-52.5-159.5T157 208v-71q0-57 17.5-84T232 26q23 0 42.5 7.5T313 58zm-79 602q-41 0-59-33t-18-106V250q76 72 113.5 147T308 553q0 54-18.5 80.5T234 660z" glyph-name="uni2113" horiz-adv-x="409" unicode="ℓ"/><glyph d="M130 344l149-161-15-15L50 346v24l214 178 15-15-149-161h139q56 0 102.5 2t109.5 8q42 4 64.5 5t45.5 1l-10-30 10-30q-23 0-45.5 1t-64.5 5q-63 6-109.5 8T269 344z" glyph-name="arrowleft" horiz-adv-x="651" unicode="←"/><glyph d="M340 549V410q0-56 2-102.5t8-109.5q4-42 5-64.5t1-45.5l-30 10-30-10q0 23 1 45.5t5 64.5q6 63 8 109.5t2 102.5v139L151 400l-15 15 178 214h24l178-214-15-15z" glyph-name="arrowup" horiz-adv-x="651" unicode="↑"/><glyph d="M591 371v-24L377 169l-15 15 149 161H372q-56 0-102.5-2T160 335q-42-4-64.5-5T50 329l10 30-10 30q23 0 45.5-1t64.5-5q63-6 109.5-8t102.5-2h139L362 534l15 15z" glyph-name="arrowright" horiz-adv-x="651" unicode="→"/><glyph d="M500 318l15-15L337 89h-24L135 303l15 15 161-149v139q0 56-2 102.5T301 520q-4 42-5 64.5t-1 45.5l30-10 30 10q0-23-1-45.5t-5-64.5q-6-63-8-109.5T339 308V169z" glyph-name="arrowdown" horiz-adv-x="651" unicode="↓"/><glyph d="M130 344l149-161-15-15L50 346v24l214 178 15-15-149-161h76q37 0 64 2.5t58 9.5q18 4 28 5t22 1h3q12 0 22-1t29-5q31-7 58-9.5t63-2.5h72L475 534l15 15 214-178v-24L490 169l-15 15 148 160h-70q-36 0-63-2.5t-58-9.5q-19-4-29-5t-22-1h-3q-12 0-22 1t-28 5q-31 7-58 9.5t-64 2.5z" glyph-name="uni2194" horiz-adv-x="754" unicode="↔"/><glyph d="M501 261l15-15L338 32h-24L136 246l15 15 160-148v70q0 36-2.5 63t-9.5 58q-4 19-5 29t-1 22v3q0 12 1 22t5 28q7 31 9.5 58t2.5 64v76L150 457l-15 15 178 214h24l178-214-15-15-161 149v-76q0-37 2.5-64t9.5-58q4-18 5-28t1-22v-3q0-12-1-22t-5-29q-7-31-9.5-58t-2.5-63v-72z" glyph-name="uni2195" horiz-adv-x="651" unicode="↕"/><glyph d="M533 188l-28-14-14-28q-16 16-31 32.5T419 227q-41 49-73 83.5T274 385l-98 98-8-219h-22l-25 277 17 17 277-25v-22l-219-8 98-98q40-40 74.5-72t83.5-73q32-26 48.5-41t32.5-31z" glyph-name="uni2196" horiz-adv-x="651" unicode="↖"/><glyph d="M466 484l-99-99q-40-40-71.5-74T224 228q-27-32-42-49t-31-33l-15 28-28 15q16 16 33 31t49 42q49 40 83 71.5t74 71.5l99 99-220 8v21l277 25 17-17-25-277h-21z" glyph-name="uni2197" horiz-adv-x="651" unicode="↗"/><glyph d="M495 454l25-277-17-17-277 25v21l220 8-99 99q-40 40-74 71.5T190 456q-32 27-49 42t-33 31l28 15 15 28q16-16 31-33t42-49q40-49 71.5-83t71.5-74l99-99 8 220z" glyph-name="uni2198" horiz-adv-x="651" unicode="↘"/><glyph d="M415 207v-22l-277-25-17 17 25 277h22l8-219 98 98q40 40 72 74.5t73 83.5q26 32 41 48.5t31 32.5l14-28 28-14q-16-16-32.5-31T452 458q-49-41-83.5-73T294 313l-98-98z" glyph-name="uni2199" horiz-adv-x="651" unicode="↙"/><glyph d="M784 314v-9H201q-3 0-4-1t-1-3V125q0-6 2-11t6-9q44-46 101-71T425 9q67 0 127 28t105 79h52q-51-59-126-92.5T424-10q-149 0-254.5 95T64 314q0 134 105.5 229T424 638q149 0 254.5-95T784 314zm-132 14v178q0 6-2 11.5t-7 9.5q-44 44-100.5 68T425 619q-62 0-119-24.5T205 524q-5-5-7-10t-2-12V328q0-2 1.5-3.5t3.5-1.5h447q2 0 3 1.5t1 3.5z" glyph-name="estimated" horiz-adv-x="833" unicode="℮"/><glyph d="M727-51l20-46q-51-26-119.5-41T493-153q-190 0-307.5 121.5T68 284q0 204 123.5 340T502 760q175 0 292.5-118.5T912 348q0-118-60.5-198T702 70q-50 0-81.5 26T584 168q-33-52-71-77.5T431 65q-78 0-115.5 71.5T297 316l4 22q17 91 74 147.5T507 542q40 0 70.5-17t54.5-53q2 5 13 26.5t17 33.5h40l-55-307q-12-63 2.5-94.5T706 99q72 0 123 72t51 177q0 163-108 272.5T502 730q-174 0-288-127.5T100 284q0-182 108-294.5T493-123q69 0 128.5 18T727-51zM369 346l-10-60q-14-85 7.5-138T436 95q43 0 79 32.5T588 230l35 199q-24 44-50.5 63.5T509 512q-55 0-91-42.5T369 346z" glyph-name="at.case" horiz-adv-x="976"/><glyph d="M196 642q0 21 13.5 34.5T244 690q20 0 33.5-13.5T291 642q0-20-13.5-33.5T244 595q-21 0-34.5 13.5T196 642zm28-161l-3 27h43v-26q0-40-13-70.5T195 338q-46-45-60.5-80T120 177q0-78 30.5-117.5T241 20q72 0 102.5 48T364 213l60-16q16-88-35-147.5T240-10q-90 0-140 47.5T50 166q0 52 19 90t79 84q53 41 66.5 71t9.5 70z" glyph-name="questiondown.case" horiz-adv-x="471"/><glyph d="M83 642q0 21 13.5 34.5T131 690q20 0 33.5-13.5T178 642q0-20-13.5-33.5T131 595q-21 0-34.5 13.5T83 642zm25-404q5 90 6.5 147.5T116 508h28q0-65 1.5-122.5T152 238q5-83 6.5-133T160 0h-60q0 55 1.5 105t6.5 133z" glyph-name="exclamdown.case" horiz-adv-x="261"/><glyph d="M82 322v37q0 125 52 234.5T289 792l23-24q-81-77-123-181t-42-228v-37q0-124 42-228T312-87l-23-24Q186-22 134 87.5T82 322z" glyph-name="parenleft.case" horiz-adv-x="339"/><glyph d="M257 358v-37q0-125-52-234.5T50-112L27-88q81 77 123 181t42 228v37q0 124-42 228T27 767l23 24q103-89 155-198.5T257 358z" glyph-name="parenright.case" horiz-adv-x="339"/><glyph d="M295-72h85v-30h-85q-84 0-122.5 49T150 83l20 106q12 64-5.5 100T103 325H30v30h73q44 0 61.5 36t5.5 100l-20 106q-16 87 22.5 136T295 782h85v-30h-85q-55 0-76-33.5T211 616l20-106q12-65-7.5-109.5T156 340q48-16 67.5-60t7.5-110L211 64q-13-69 8-102.5T295-72z" glyph-name="braceleft.case" horiz-adv-x="407"/><glyph d="M237 189l20-106q16-87-22.5-136T112-102H27v30h85q55 0 76 33.5T196 64l-20 106q-12 65 7.5 109.5T251 340q-48 16-67.5 60T176 510l20 106q13 69-8 102.5T112 752H27v30h85q84 0 122.5-49T257 597l-20-106q-12-64 5.5-100t61.5-36h73v-30h-73q-44 0-61.5-36T237 189z" glyph-name="braceright.case" horiz-adv-x="407"/><glyph d="M333 781v-30H168V-72h165v-30H108v883z" glyph-name="bracketleft.case" horiz-adv-x="360"/><glyph d="M27 751v30h225v-883H27v30h165v823z" glyph-name="bracketright.case" horiz-adv-x="360"/><glyph d="M341 338H77v34h264z" glyph-name="hyphen.case" horiz-adv-x="418"/><glyph d="M541 338H77v34h464z" glyph-name="endash.case" horiz-adv-x="618"/><glyph d="M741 338H77v34h664z" glyph-name="emdash.case" horiz-adv-x="818"/><glyph d="M101 433v383h35V433zm0-570v383h35v-383z" glyph-name="brokenbar.case" horiz-adv-x="237"/><glyph d="M108-137v953h35v-953z" glyph-name="bar.case" horiz-adv-x="251"/><glyph d="M383 334l200-218-15-16-262 222v24l262 222 15-16zm-250 0l200-218-15-16L56 322v24l262 222 15-16z" glyph-name="guillemotleft.case" horiz-adv-x="642"/><glyph d="M259 335L59 553l15 16 262-222v-24L74 101l-15 16zm250 0L309 553l15 16 262-222v-24L324 101l-15 16z" glyph-name="guillemotright.case" horiz-adv-x="642"/><glyph d="M133 334l200-218-15-16L56 322v24l262 222 15-16z" glyph-name="guilsinglleft.case" horiz-adv-x="392"/><glyph d="M259 335L59 553l15 16 262-222v-24L74 101l-15 16z" glyph-name="guilsinglright.case" horiz-adv-x="392"/><glyph d="M104 417l-61 16Q24 541 85 610.5T268 680h157L622 79q11-33 15.5-40t20.5-9l55-5V0H492v25l55 5q17 2 18 9t-10 40l-43 131H259l-18-57Q180-37 107-130t-163-93v68q88 0 148.5 75T207 160l161 490H266q-94 0-134.5-58T104 417zm281 186L269 240h234z" glyph-name="A.alt" horiz-adv-x="713"/><glyph d="M85 417l-61 16Q5 541 66 610.5T249 680h227q83 0 133-44.5T659 517v-26q0-51-29-88t-82-53q66-11 103.5-52.5T689 195v-26q0-76-51.5-122.5T501 0H206v25l55 5q16 2 19 8.5t3 40.5v571h-36q-94 0-134.5-58T85 417zm391 233H348V360h128q56 0 85.5 31t29.5 90v46q0 59-29.5 91T476 650zm25-320H348V30h153q58 0 89 33.5t31 95.5v46q0 60-31.5 92.5T501 330z" glyph-name="B.alt" horiz-adv-x="752"/><glyph d="M85 417l-61 16Q5 541 66 610.5T249 680h234q114 0 178.5-80T726 382v-83q0-139-64.5-219T483 0H206v25l55 5q16 2 19 8.5t3 40.5v571h-36q-94 0-134.5-58T85 417zm398 233H348V30h135q87 0 128.5 53.5T653 249v183q0 112-41.5 165T483 650z" glyph-name="D.alt" horiz-adv-x="806"/><glyph d="M623 56l27 101h24V0H206v25l55 5q16 2 19 8.5t3 40.5v571h-36q-94 0-134.5-58T85 417l-61 16Q5 541 66 610.5T249 680h411V523h-24l-27 101q-5 19-13.5 22.5T555 650H348V359h148q33 0 41 3.5t13 22.5l17 71h24V232h-24l-17 71q-5 19-13 22.5t-41 3.5H348V30h221q32 0 40.5 3.5T623 56z" glyph-name="E.alt" horiz-adv-x="719"/><glyph d="M540 374l17 71h25V221h-25l-17 71q-5 19-13 22.5t-41 3.5H348V79q0-34 3-41t19-8l75-5V0H206v25l55 5q16 2 19 8.5t3 40.5v571h-36q-94 0-134.5-58T85 417l-61 16Q5 541 66 610.5T249 680h403V523h-25l-27 101q-5 19-13.5 22.5T546 650H348V348h138q33 0 41 3.5t13 22.5z" glyph-name="F.alt" horiz-adv-x="691"/><glyph d="M455 278l-75 5v25h236v-25l-55-5q-16-2-19-8.5t-3-40.5V-11q0-102-38.5-157T389-223q-54 0-86.5 23T266-134l50 15q1-38 19-57t52-19q47 0 68.5 44.5T477-11v53q-30-26-67.5-39T324-10q-114 0-179 82.5T80 299v83q0 143 66 225.5T328 690q108 0 166-59.5T537 483l-65-16q11 94-26 144t-116 50q-91 0-134-55.5T153 432V249q0-117 43-173t133-56q50 0 86 17.5T477 91v138q0 34-3 41t-19 8z" glyph-name="G.alt" horiz-adv-x="640"/><glyph d="M763 30l55-5V0H599v25l55 5q16 2 19 8.5t3 40.5v250H348V79q0-34 3-40.5t19-8.5l55-5V0H206v25l55 5q16 2 19 8.5t3 40.5v571h-36q-94 0-134.5-58T85 417l-61 16Q5 541 66 610.5T249 680h176v-25l-55-5q-16-2-19-8.5t-3-40.5V359h328v242q0 34-3 40.5t-19 8.5l-55 5v25h219v-25l-55-5q-16-2-19-8.5t-3-40.5V79q0-34 3-40.5t19-8.5z" glyph-name="H.alt" horiz-adv-x="870"/><glyph d="M108 417l-61 16Q28 541 89 610.5T272 680h193v-25l-55-5q-16-2-19-8.5t-3-40.5V202q0-102-43-157T220-10q-66 0-105 35.5T70 129l50 15q2-62 26.5-93T218 20q55 0 80 44.5T323 202v448h-53q-94 0-134.5-58T108 417z" glyph-name="J.alt" horiz-adv-x="505"/><glyph d="M85 417l-61 16Q5 541 66 610.5T249 680h176v-24l-55-5q-16-2-19-8.5t-3-40.5V294l255 318q21 26 22 31.5t-17 7.5l-49 5v24h185v-24l-49-5q-14-1-20.5-6.5T646 612L478 403 680 79q21-33 27.5-40t23.5-9l50-5V0H649L436 351l-88-109V79q0-34 3-40.5t19-8.5l55-5V0H206v25l55 5q16 2 19 8.5t3 40.5v571h-36q-94 0-134.5-58T85 417z" glyph-name="K.alt" horiz-adv-x="790"/><glyph d="M595 56l27 105h25V0H206v25l55 5q16 2 19 8.5t3 40.5v571h-36q-94 0-134.5-58T85 417l-61 16Q5 541 66 610.5T249 680h176v-25l-55-5q-16-2-19-8.5t-3-40.5V30h193q32 0 40.5 3.5T595 56z" glyph-name="L.alt" horiz-adv-x="658"/><glyph d="M900 30l55-5V0H736v25l55 5q16 2 19 8.5t3 40.5v559L588 80h-42L318 638V79q0-34 3-40.5t19-8.5l55-5V0H206v25l55 5q16 2 19 8.5t3 40.5v571h-36q-94 0-134.5-58T85 417l-61 16Q5 541 66 610.5T249 680h121l215-526 210 526h160v-25l-55-5q-16-2-19-8.5t-3-40.5V79q0-34 3-40.5t19-8.5z" glyph-name="M.alt" horiz-adv-x="1007"/><glyph d="M668 650l-55 5v25h189v-25l-55-5q-16-2-19-8.5t-3-40.5V0h-45L318 630V79q0-34 3-40.5t19-8.5l55-5V0H206v25l55 5q16 2 19 8.5t3 40.5v571h-36q-94 0-134.5-58T85 417l-61 16Q5 541 66 610.5T249 680h111l330-574v495q0 34-3 40.5t-19 8.5z" glyph-name="N.alt" horiz-adv-x="849"/><glyph d="M85 417l-61 16Q5 541 66 610.5T249 680h229q90 0 141.5-47.5T671 502v-33q0-83-51.5-131T478 290H348V79q0-34 3-41t19-8l75-5V0H206v25l55 5q16 2 19 8.5t3 40.5v571h-36q-94 0-134.5-58T85 417zm393 233H348V320h130q64 0 94.5 34T603 459v53q0 70-31 104t-94 34z" glyph-name="P.alt" horiz-adv-x="712"/><glyph d="M85 417l-61 16Q5 541 66 610.5T249 680h219q90 0 141.5-45T661 512v-35q0-64-34.5-106.5T529 314L660 79q19-34 25-40.5t23-8.5l45-5V0H626L461 308H348V79q0-34 3-40.5t19-8.5l55-5V0H206v25l55 5q16 2 19 8.5t3 40.5v571h-36q-94 0-134.5-58T85 417zm383 233H348V338h120q57 0 91 37.5T593 477v35q0 64-33.5 101T468 650z" glyph-name="R.alt" horiz-adv-x="762"/><glyph d="M85-32L24-16Q9 72 63.5 131.5T219 191h67q7-85 49-128t117-43q74 0 115.5 36.5T609 159q0 59-36 95.5T459 311l-53 14q-80 21-121.5 69T243 512q0 80 54.5 129T447 690q108 0 163-58.5T649 483l-63-16q11 97-23.5 145.5T448 661q-69 0-107-35t-38-99q0-56 32.5-89T440 386l53-14q86-23 131-73.5T669 174q0-84-58-134T452-10q-92 0-146.5 43T233 161h-16q-74 0-108-50T85-32z" glyph-name="S.alt" horiz-adv-x="725"/><glyph d="M244 680h370V523h-25l-27 101q-5 19-13.5 22.5T508 650H386V79q0-34 3-40.5t19-8.5l55-5V0H244v25l55 5q16 2 19 8.5t3 40.5v571h-79q-94 0-134.5-58T80 417l-61 16Q0 541 61 610.5T244 680z" glyph-name="T.alt" horiz-adv-x="628"/><glyph d="M658 650l-55 5v25h189v-25l-55-5q-16-2-19-8.5t-3-40.5V231q0-116-56-178.5T498-10q-109 0-167.5 67.5T272 251v399h-36q-94 0-134.5-58T74 417l-61 16Q-6 541 55 610.5T238 680h176v-25l-55-5q-16-2-19-8.5t-3-40.5V231q0-107 41-158.5T504 21q86 0 131 53.5T680 231v370q0 34-3 40.5t-19 8.5z" glyph-name="U.alt" horiz-adv-x="830"/><glyph d="M72 417l-61 16Q-8 541 53 610.5T236 680h151v-25l-55-5q-16-1-17.5-8t9.5-41L494 66l158 497q55 172 124.5 256T935 903v-68q-89 0-149.5-75T672 520L505 0h-55L242 650h-8q-94 0-134.5-58T72 417z" glyph-name="V.alt" horiz-adv-x="783"/><glyph d="M72 417l-61 16Q-8 541 53 610.5T236 680h147v-25l-49-5q-16-2-18-7.5t5-31.5L450 86l177 594h48L849 90l121 492q40 161 110 241t172 80v-68q-101 0-161.5-75.5T989 520L860 0h-50L636 591 459 0h-51L247 650h-13q-94 0-134.5-58T72 417z" glyph-name="W.alt" horiz-adv-x="1089"/><glyph d="M72 417l-61 16Q-8 541 53 610.5T236 680h148v-25l-49-5q-17-2-16.5-8t14.5-31l129-222 135 222q16 25 16 31t-16 8l-49 5v25h179v-25l-49-5q-16-2-22-8t-21-31L480 358 647 69q16-27 21.5-32.5T689 30l49-5V0H524v25l49 5q17 2 16.5 8T575 69L437 307 291 69q-16-26-16-31.5t16-7.5l49-5V0H161v25l49 5q16 2 22 8t21 31l165 270-181 311h-3q-94 0-134.5-58T72 417z" glyph-name="X.alt" horiz-adv-x="741"/><glyph d="M72 417l-61 16Q-8 541 53 610.5T236 680h136v-25l-49-5q-16-2-16-7.5t13-31.5l141-283 141 283q13 26 13 31.5t-16 7.5l-49 5v25h178v-25l-49-5q-16-1-21.5-6.5T638 611L476 290V79q0-34 3-40.5t19-8.5l55-5V0H334v25l55 5q16 2 19 8.5t3 40.5v211L228 650q-91-2-130-60.5T72 417z" glyph-name="Y.alt" horiz-adv-x="728"/><glyph d="M104 417l-61 16Q24 541 85 610.5T268 680h157L622 79q11-33 15.5-40t20.5-9l55-5V0H492v25l55 5q17 2 18 9t-10 40l-43 131H259l-18-57Q180-37 107-130t-163-93v68q88 0 148.5 75T207 160l161 490H266q-94 0-134.5-58T104 417zm281 186L269 240h234zm16 169l-19 19q28 35 43.5 66t27.5 76h76q-27-45-58.5-84.5T401 772z" glyph-name="Aacute.alt" horiz-adv-x="713"/><glyph d="M104 417l-61 16Q24 541 85 610.5T268 680h157L622 79q11-33 15.5-40t20.5-9l55-5V0H492v25l55 5q17 2 18 9t-10 40l-43 131H259l-18-57Q180-37 107-130t-163-93v68q88 0 148.5 75T207 160l161 490H266q-94 0-134.5-58T104 417zm281 186L269 240h234zm144 188l-19-19q-34 29-61 55t-50 51q-19-22-43-46.5T294 772l-19 19q40 42 59.5 70t41.5 72h52q22-44 41.5-72t59.5-70z" glyph-name="Acircumflex.alt" horiz-adv-x="713"/><glyph d="M104 417l-61 16Q24 541 85 610.5T268 680h157L622 79q11-33 15.5-40t20.5-9l55-5V0H492v25l55 5q17 2 18 9t-10 40l-43 131H259l-18-57Q180-37 107-130t-163-93v68q88 0 148.5 75T207 160l161 490H266q-94 0-134.5-58T104 417zm281 186L269 240h234zm-43 253q0-19-12-31.5T298 812q-19 0-31 12.5T255 856q0 19 12 31t31 12q19 0 31.5-12t12.5-31zm199 0q0-19-12-31.5T497 812q-19 0-31 12.5T454 856q0 19 12 31t31 12q19 0 31.5-12t12.5-31z" glyph-name="Adieresis.alt" horiz-adv-x="713"/><glyph d="M104 417l-61 16Q24 541 85 610.5T268 680h157L622 79q11-33 15.5-40t20.5-9l55-5V0H492v25l55 5q17 2 18 9t-10 40l-43 131H259l-18-57Q180-37 107-130t-163-93v68q88 0 148.5 75T207 160l161 490H266q-94 0-134.5-58T104 417zm281 186L269 240h234zm37 188l-19-19q-38 37-69.5 76.5T275 933h76q12-45 27.5-76t43.5-66z" glyph-name="Agrave.alt" horiz-adv-x="713"/><glyph d="M176 210l-18-57Q97-37 24-130t-163-93v68q88 0 148.5 75T124 160l164 498q-39 8-63.5 37T200 760v11q0 43 33.5 73.5T318 875q51 0 84.5-30.5T436 771v-11q0-35-24-64t-63-38L539 79q11-33 15.5-40t20.5-9l55-5V0H409v25l55 5q17 2 18 9t-10 40l-43 131zm209 543v25q0 34-18 53t-49 19q-31 0-48.5-19T252 778v-25q0-34 17.5-53.5T318 680q31 0 49 19.5t18 53.5zm-83-150L186 240h234z" glyph-name="Aring.alt" horiz-adv-x="630"/><glyph d="M104 417l-61 16Q24 541 85 610.5T268 680h157L622 79q11-33 15.5-40t20.5-9l55-5V0H492v25l55 5q17 2 18 9t-10 40l-43 131H259l-18-57Q180-37 107-130t-163-93v68q88 0 148.5 75T207 160l161 490H266q-94 0-134.5-58T104 417zm281 186L269 240h234zm88 183q-19 0-37.5 10.5T387 839q-24 25-36.5 32.5T327 879q-20 0-32-20.5T282 801h-29q1 61 22 94t58 33q19 0 37.5-10.5T419 875q23-25 35-32.5t23-7.5q20 0 32 20.5t13 57.5h29q-1-60-22-93.5T473 786z" glyph-name="Atilde.alt" horiz-adv-x="713"/><glyph d="M104 417l-61 16Q24 541 85 610.5T268 680h157L622 79q11-33 15.5-40t20.5-9l55-5V0H492v25l55 5q17 2 18 9t-10 40l-43 131H259l-18-57Q180-37 107-130t-163-93v68q88 0 148.5 75T207 160l161 490H266q-94 0-134.5-58T104 417zm281 186L269 240h234zm17 222q47 0 73 24.5t40 83.5l26-7q-14-80-47.5-117T402 772q-58 0-91.5 37T263 926l26 7q14-59 40-83.5t73-24.5z" glyph-name="Abreve.alt" horiz-adv-x="713"/><glyph d="M104 417l-61 16Q24 541 85 610.5T268 680h157L622 79q11-33 15.5-40t20.5-9l55-5V0H492v25l55 5q17 2 18 9t-10 40l-43 131H259l-18-57Q180-37 107-130t-163-93v68q88 0 148.5 75T207 160l161 490H266q-94 0-134.5-58T104 417zm281 186L269 240h234zM259 855h287v-43H259z" glyph-name="Amacron.alt" horiz-adv-x="713"/><glyph d="M104 417l-61 16Q24 541 85 610.5T268 680h157L622 79q11-33 15.5-40t20.5-9l55-5V0h-63q-53 0-83.5-34T536-127q0-34 14.5-51.5T594-196q29 0 47.5 21t27.5 63l44-13q-13-47-45.5-72.5T590-223q-48 0-77 26t-29 70q0 47 24.5 84T576 12l-64 198H259l-18-57Q180-37 107-130t-163-93v68q88 0 148.5 75T207 160l161 490H266q-94 0-134.5-58T104 417zm281 186L269 240h233z" glyph-name="Aogonek.alt" horiz-adv-x="713"/><glyph d="M85 417l-61 16Q5 541 66 610.5T249 680h234q114 0 178.5-80T726 382v-83q0-139-64.5-219T483 0H206v25l55 5q16 2 19 8.5t3 40.5v571h-36q-94 0-134.5-58T85 417zm398 233H348V30h135q87 0 128.5 53.5T653 249v183q0 112-41.5 165T483 650zm92 288l19-19q-40-42-59.5-70T493 777h-52q-22 44-41.5 72T340 919l19 19q34-29 61-55t50-51q22 25 47 50.5t58 55.5z" glyph-name="Dcaron.alt" horiz-adv-x="806"/><glyph d="M623 56l27 101h24V0H206v25l55 5q16 2 19 8.5t3 40.5v571h-36q-94 0-134.5-58T85 417l-61 16Q5 541 66 610.5T249 680h411V523h-24l-27 101q-5 19-13.5 22.5T555 650H348V359h148q33 0 41 3.5t13 22.5l17 71h24V232h-24l-17 71q-5 19-13 22.5t-41 3.5H348V30h221q32 0 40.5 3.5T623 56zM456 772l-19 19q28 35 43.5 66t27.5 76h76q-27-45-58.5-84.5T456 772z" glyph-name="Eacute.alt" horiz-adv-x="719"/><glyph d="M623 56l27 101h24V0H206v25l55 5q16 2 19 8.5t3 40.5v571h-36q-94 0-134.5-58T85 417l-61 16Q5 541 66 610.5T249 680h411V523h-24l-27 101q-5 19-13.5 22.5T555 650H348V359h148q33 0 41 3.5t13 22.5l17 71h24V232h-24l-17 71q-5 19-13 22.5t-41 3.5H348V30h221q32 0 40.5 3.5T623 56zm-39 735l-19-19q-34 29-61 55t-50 51q-19-22-43-46.5T349 772l-19 19q40 42 59.5 70t41.5 72h52q22-44 41.5-72t59.5-70z" glyph-name="Ecircumflex.alt" horiz-adv-x="719"/><glyph d="M623 56l27 101h24V0H206v25l55 5q16 2 19 8.5t3 40.5v571h-36q-94 0-134.5-58T85 417l-61 16Q5 541 66 610.5T249 680h411V523h-24l-27 101q-5 19-13.5 22.5T555 650H348V359h148q33 0 41 3.5t13 22.5l17 71h24V232h-24l-17 71q-5 19-13 22.5t-41 3.5H348V30h221q32 0 40.5 3.5T623 56zM401 856q0-19-12-31.5T357 812q-19 0-31 12.5T314 856q0 19 12 31t31 12q19 0 31.5-12t12.5-31zm199 0q0-19-12-31.5T556 812q-19 0-31 12.5T513 856q0 19 12 31t31 12q19 0 31.5-12t12.5-31z" glyph-name="Edieresis.alt" horiz-adv-x="719"/><glyph d="M623 56l27 101h24V0H206v25l55 5q16 2 19 8.5t3 40.5v571h-36q-94 0-134.5-58T85 417l-61 16Q5 541 66 610.5T249 680h411V523h-24l-27 101q-5 19-13.5 22.5T555 650H348V359h148q33 0 41 3.5t13 22.5l17 71h24V232h-24l-17 71q-5 19-13 22.5t-41 3.5H348V30h221q32 0 40.5 3.5T623 56zM477 791l-19-19q-38 37-69.5 76.5T330 933h76q12-45 27.5-76t43.5-66z" glyph-name="Egrave.alt" horiz-adv-x="719"/><glyph d="M623 56l27 101h24V0H206v25l55 5q16 2 19 8.5t3 40.5v571h-36q-94 0-134.5-58T85 417l-61 16Q5 541 66 610.5T249 680h411V523h-24l-27 101q-5 19-13.5 22.5T555 650H348V359h148q33 0 41 3.5t13 22.5l17 71h24V232h-24l-17 71q-5 19-13 22.5t-41 3.5H348V30h221q32 0 40.5 3.5T623 56zM457 825q47 0 73 24.5t40 83.5l26-7q-14-80-47.5-117T457 772q-58 0-91.5 37T318 926l26 7q14-59 40-83.5t73-24.5z" glyph-name="Ebreve.alt" horiz-adv-x="719"/><glyph d="M623 56l27 101h24V0H206v25l55 5q16 2 19 8.5t3 40.5v571h-36q-94 0-134.5-58T85 417l-61 16Q5 541 66 610.5T249 680h411V523h-24l-27 101q-5 19-13.5 22.5T555 650H348V359h148q33 0 41 3.5t13 22.5l17 71h24V232h-24l-17 71q-5 19-13 22.5t-41 3.5H348V30h221q32 0 40.5 3.5T623 56zm-58 882l19-19q-40-42-59.5-70T483 777h-52q-22 44-41.5 72T330 919l19 19q34-29 61-55t50-51q22 25 47 50.5t58 55.5z" glyph-name="Ecaron.alt" horiz-adv-x="719"/><glyph d="M623 56l27 101h24V0H206v25l55 5q16 2 19 8.5t3 40.5v571h-36q-94 0-134.5-58T85 417l-61 16Q5 541 66 610.5T249 680h411V523h-24l-27 101q-5 19-13.5 22.5T555 650H348V359h148q33 0 41 3.5t13 22.5l17 71h24V232h-24l-17 71q-5 19-13 22.5t-41 3.5H348V30h221q32 0 40.5 3.5T623 56zM503 856q0-20-13-33t-33-13q-20 0-32.5 13T412 856q0 20 13 32.5t32 12.5q20 0 33-12.5t13-32.5z" glyph-name="Edotaccent.alt" horiz-adv-x="719"/><glyph d="M623 56l27 101h24V0H206v25l55 5q16 2 19 8.5t3 40.5v571h-36q-94 0-134.5-58T85 417l-61 16Q5 541 66 610.5T249 680h411V523h-24l-27 101q-5 19-13.5 22.5T555 650H348V359h148q33 0 41 3.5t13 22.5l17 71h24V232h-24l-17 71q-5 19-13 22.5t-41 3.5H348V30h221q32 0 40.5 3.5T623 56zM314 855h287v-43H314z" glyph-name="Emacron.alt" horiz-adv-x="719"/><glyph d="M623 56l27 101h24V0h-63q-53 0-83-34t-30-93q0-34 14.5-51.5T555-196q29 0 47.5 21t27.5 63l44-13q-13-47-45.5-72.5T551-223q-48 0-77 26t-29 70q0 42 22.5 75.5T529 0H206v25l55 5q16 2 19 8.5t3 40.5v571h-36q-94 0-134.5-58T85 417l-61 16Q5 541 66 610.5T249 680h411V523h-24l-27 101q-5 19-13.5 22.5T555 650H348V359h148q33 0 41 3.5t13 22.5l17 71h24V232h-24l-17 71q-5 19-13 22.5t-41 3.5H348V30h221q32 0 40.5 3.5T623 56z" glyph-name="Eogonek.alt" horiz-adv-x="719"/><glyph d="M455 278l-75 5v25h236v-25l-55-5q-16-2-19-8.5t-3-40.5V-11q0-102-38.5-157T389-223q-54 0-86.5 23T266-134l50 15q1-38 19-57t52-19q47 0 68.5 44.5T477-11v53q-30-26-67.5-39T324-10q-114 0-179 82.5T80 299v83q0 143 66 225.5T328 690q108 0 166-59.5T537 483l-65-16q11 94-26 144t-116 50q-91 0-134-55.5T153 432V249q0-117 43-173t133-56q50 0 86 17.5T477 91v138q0 34-3 41t-19 8zM323 825q47 0 73 24.5t40 83.5l26-7q-14-80-47.5-117T323 772q-58 0-91.5 37T184 926l26 7q14-59 40-83.5t73-24.5z" glyph-name="Gbreve.alt" horiz-adv-x="640"/><glyph d="M455 278l-75 5v25h236v-25l-55-5q-16-2-19-8.5t-3-40.5V-11q0-102-38.5-157T389-223q-54 0-86.5 23T266-134l50 15q1-38 19-57t52-19q47 0 68.5 44.5T477-11v53q-30-26-67.5-39T324-10q-114 0-179 82.5T80 299v83q0 143 66 225.5T328 690q108 0 166-59.5T537 483l-65-16q11 94-26 144t-116 50q-91 0-134-55.5T153 432V249q0-117 43-173t133-56q50 0 86 17.5T477 91v138q0 34-3 41t-19 8zm-5 513l-19-19q-34 29-61 55t-50 51q-19-22-43-46.5T215 772l-19 19q40 42 59.5 70t41.5 72h52q22-44 41.5-72t59.5-70z" glyph-name="Gcircumflex.alt" horiz-adv-x="640"/><glyph d="M455 278l-75 5v25h236v-25l-55-5q-16-2-19-8.5t-3-40.5V-11q0-102-38.5-157T389-223q-54 0-86.5 23T266-134l50 15q1-38 19-57t52-19q47 0 68.5 44.5T477-11v53q-30-26-67.5-39T324-10q-114 0-179 82.5T80 299v83q0 143 66 225.5T328 690q108 0 166-59.5T537 483l-65-16q11 94-26 144t-116 50q-91 0-134-55.5T153 432V249q0-117 43-173t133-56q50 0 86 17.5T477 91v138q0 34-3 41t-19 8zm-86 578q0-20-13-33t-33-13q-20 0-32.5 13T278 856q0 20 13 32.5t32 12.5q20 0 33-12.5t13-32.5z" glyph-name="Gdotaccent.alt" horiz-adv-x="640"/><glyph d="M763 30l55-5V0H599v25l55 5q16 2 19 8.5t3 40.5v250H348V79q0-34 3-40.5t19-8.5l55-5V0H206v25l55 5q16 2 19 8.5t3 40.5v571h-36q-94 0-134.5-58T85 417l-61 16Q5 541 66 610.5T249 680h176v-25l-55-5q-16-2-19-8.5t-3-40.5V359h328v242q0 34-3 40.5t-19 8.5l-55 5v25h219v-25l-55-5q-16-2-19-8.5t-3-40.5V79q0-34 3-40.5t19-8.5zM639 791l-19-19q-34 29-61 55t-50 51q-19-22-43-46.5T404 772l-19 19q40 42 59.5 70t41.5 72h52q22-44 41.5-72t59.5-70z" glyph-name="Hcircumflex.alt" horiz-adv-x="870"/><glyph d="M108 417l-61 16Q28 541 89 610.5T272 680h193v-25l-55-5q-16-2-19-8.5t-3-40.5V202q0-102-43-157T220-10q-66 0-105 35.5T70 129l50 15q2-62 26.5-93T218 20q55 0 80 44.5T323 202v448h-53q-94 0-134.5-58T108 417zm374 374l-19-19q-34 29-61 55t-50 51q-19-22-43-46.5T247 772l-19 19q40 42 59.5 70t41.5 72h52q22-44 41.5-72t59.5-70z" glyph-name="Jcircumflex.alt" horiz-adv-x="505"/><glyph d="M85 417l-61 16Q5 541 66 610.5T249 680h176v-24l-55-5q-16-2-19-8.5t-3-40.5V294l255 318q21 26 22 31.5t-17 7.5l-49 5v24h185v-24l-49-5q-14-1-20.5-6.5T646 612L478 403 680 79q21-33 27.5-40t23.5-9l50-5V0H649L436 351l-88-109V79q0-34 3-40.5t19-8.5l55-5V0H206v25l55 5q16 2 19 8.5t3 40.5v571h-36q-94 0-134.5-58T85 417zm362-655l-20 14q17 37 24 70.5t7 76.5h66q-14-55-31-89.5T447-238z" glyph-name="Kcommaaccent.alt" horiz-adv-x="790"/><glyph d="M595 56l27 105h25V0H206v25l55 5q16 2 19 8.5t3 40.5v571h-36q-94 0-134.5-58T85 417l-61 16Q5 541 66 610.5T249 680h176v-25l-55-5q-16-2-19-8.5t-3-40.5V30h193q32 0 40.5 3.5T595 56zM325 772l-19 19q28 35 43.5 66t27.5 76h76q-27-45-58.5-84.5T325 772z" glyph-name="Lacute.alt" horiz-adv-x="658"/><glyph d="M595 56l27 105h25V0H206v25l55 5q16 2 19 8.5t3 40.5v571h-36q-94 0-134.5-58T85 417l-61 16Q5 541 66 610.5T249 680h176v-25l-55-5q-16-2-19-8.5t-3-40.5V30h193q32 0 40.5 3.5T595 56zm-69 410h-19v214h64q-10-60-21-112t-24-102z" glyph-name="Lcaron.alt" horiz-adv-x="658"/><glyph d="M595 56l27 105h25V0H206v25l55 5q16 2 19 8.5t3 40.5v571h-36q-94 0-134.5-58T85 417l-61 16Q5 541 66 610.5T249 680h176v-25l-55-5q-16-2-19-8.5t-3-40.5V30h193q32 0 40.5 3.5T595 56zM404-238l-20 14q17 37 24 70.5t7 76.5h66q-14-55-31-89.5T404-238z" glyph-name="Lcommaaccent.alt" horiz-adv-x="658"/><glyph d="M668 650l-55 5v25h189v-25l-55-5q-16-2-19-8.5t-3-40.5V0h-45L318 630V79q0-34 3-40.5t19-8.5l55-5V0H206v25l55 5q16 2 19 8.5t3 40.5v571h-36q-94 0-134.5-58T85 417l-61 16Q5 541 66 610.5T249 680h111l330-574v495q0 34-3 40.5t-19 8.5zm-91 136q-19 0-37.5 10.5T491 839q-24 25-36.5 32.5T431 879q-20 0-32-20.5T386 801h-29q1 61 22 94t58 33q19 0 37.5-10.5T523 875q23-25 35-32.5t23-7.5q20 0 32 20.5t13 57.5h29q-1-60-22-93.5T577 786z" glyph-name="Ntilde.alt" horiz-adv-x="849"/><glyph d="M668 650l-55 5v25h189v-25l-55-5q-16-2-19-8.5t-3-40.5V0h-45L318 630V79q0-34 3-40.5t19-8.5l55-5V0H206v25l55 5q16 2 19 8.5t3 40.5v571h-36q-94 0-134.5-58T85 417l-61 16Q5 541 66 610.5T249 680h111l330-574v495q0 34-3 40.5t-19 8.5zM505 772l-19 19q28 35 43.5 66t27.5 76h76q-27-45-58.5-84.5T505 772z" glyph-name="Nacute.alt" horiz-adv-x="849"/><glyph d="M668 650l-55 5v25h189v-25l-55-5q-16-2-19-8.5t-3-40.5V0h-45L318 630V79q0-34 3-40.5t19-8.5l55-5V0H206v25l55 5q16 2 19 8.5t3 40.5v571h-36q-94 0-134.5-58T85 417l-61 16Q5 541 66 610.5T249 680h111l330-574v495q0 34-3 40.5t-19 8.5zm-54 288l19-19q-40-42-59.5-70T532 777h-52q-22 44-41.5 72T379 919l19 19q34-29 61-55t50-51q22 25 47 50.5t58 55.5z" glyph-name="Ncaron.alt" horiz-adv-x="849"/><glyph d="M668 650l-55 5v25h189v-25l-55-5q-16-2-19-8.5t-3-40.5V0h-45L318 630V79q0-34 3-40.5t19-8.5l55-5V0H206v25l55 5q16 2 19 8.5t3 40.5v571h-36q-94 0-134.5-58T85 417l-61 16Q5 541 66 610.5T249 680h111l330-574v495q0 34-3 40.5t-19 8.5zM458-238l-20 14q17 37 24 70.5t7 76.5h66q-14-55-31-89.5T458-238z" glyph-name="Ncommaaccent.alt" horiz-adv-x="849"/><glyph d="M802 655l-55-5q-16-2-19-8.5t-3-40.5V-31q0-92-40.5-142T567-223q-62 0-98 33t-42 96l50 15q2-57 24-85.5t64-28.5q49 0 72 39.5T660-31v66L318 630V79q0-34 3-40.5t19-8.5l55-5V0H206v25l55 5q16 2 19 8.5t3 40.5v571h-36q-94 0-134.5-58T85 417l-61 16Q5 541 66 610.5T249 680h111l330-574v495q0 34-3 40.5t-19 8.5l-55 5v25h189z" glyph-name="Eng.alt" horiz-adv-x="849"/><glyph d="M85 417l-61 16Q5 541 66 610.5T249 680h219q90 0 141.5-45T661 512v-35q0-64-34.5-106.5T529 314L660 79q19-34 25-40.5t23-8.5l45-5V0H626L461 308H348V79q0-34 3-40.5t19-8.5l55-5V0H206v25l55 5q16 2 19 8.5t3 40.5v571h-36q-94 0-134.5-58T85 417zm383 233H348V338h120q57 0 91 37.5T593 477v35q0 64-33.5 101T468 650zm-19 122l-19 19q28 35 43.5 66t27.5 76h76q-27-45-58.5-84.5T449 772z" glyph-name="Racute.alt" horiz-adv-x="762"/><glyph d="M85 417l-61 16Q5 541 66 610.5T249 680h219q90 0 141.5-45T661 512v-35q0-64-34.5-106.5T529 314L660 79q19-34 25-40.5t23-8.5l45-5V0H626L461 308H348V79q0-34 3-40.5t19-8.5l55-5V0H206v25l55 5q16 2 19 8.5t3 40.5v571h-36q-94 0-134.5-58T85 417zm383 233H348V338h120q57 0 91 37.5T593 477v35q0 64-33.5 101T468 650zm90 288l19-19q-40-42-59.5-70T476 777h-52q-22 44-41.5 72T323 919l19 19q34-29 61-55t50-51q22 25 47 50.5t58 55.5z" glyph-name="Rcaron.alt" horiz-adv-x="762"/><glyph d="M85 417l-61 16Q5 541 66 610.5T249 680h219q90 0 141.5-45T661 512v-35q0-64-34.5-106.5T529 314L660 79q19-34 25-40.5t23-8.5l45-5V0H626L461 308H348V79q0-34 3-40.5t19-8.5l55-5V0H206v25l55 5q16 2 19 8.5t3 40.5v571h-36q-94 0-134.5-58T85 417zm383 233H348V338h120q57 0 91 37.5T593 477v35q0 64-33.5 101T468 650zm-19-888l-20 14q17 37 24 70.5t7 76.5h66q-14-55-31-89.5T449-238z" glyph-name="Rcommaaccent.alt" horiz-adv-x="762"/><glyph d="M85-32L24-16Q9 72 63.5 131.5T219 191h67q7-85 49-128t117-43q74 0 115.5 36.5T609 159q0 59-36 95.5T459 311l-53 14q-80 21-121.5 69T243 512q0 80 54.5 129T447 690q108 0 163-58.5T649 483l-63-16q11 97-23.5 145.5T448 661q-69 0-107-35t-38-99q0-56 32.5-89T440 386l53-14q86-23 131-73.5T669 174q0-84-58-134T452-10q-92 0-146.5 43T233 161h-16q-74 0-108-50T85-32zm472 970l19-19q-40-42-59.5-70T475 777h-52q-22 44-41.5 72T322 919l19 19q34-29 61-55t50-51q22 25 47 50.5t58 55.5z" glyph-name="Scaron.alt" horiz-adv-x="725"/><glyph d="M85-32L24-16Q9 72 63.5 131.5T219 191h67q7-85 49-128t117-43q74 0 115.5 36.5T609 159q0 59-36 95.5T459 311l-53 14q-80 21-121.5 69T243 512q0 80 54.5 129T447 690q108 0 163-58.5T649 483l-63-16q11 97-23.5 145.5T448 661q-69 0-107-35t-38-99q0-56 32.5-89T440 386l53-14q86-23 131-73.5T669 174q0-84-58-134T452-10q-92 0-146.5 43T233 161h-16q-74 0-108-50T85-32zm363 804l-19 19q28 35 43.5 66t27.5 76h76q-27-45-58.5-84.5T448 772z" glyph-name="Sacute.alt" horiz-adv-x="725"/><glyph d="M552-141q0-38-28.5-60T447-223q-44 0-71 20t-34 58l44 13q4-34 18-50t41-16q26 0 40 15t14 42q0 28-15 41.5T438-86q-6 0-13.5-.5T413-88l-9 25 22 54q-79 5-127.5 48T233 161h-16q-74 0-108-50T85-32L24-16Q9 72 63.5 131.5T219 191h67q7-85 49-128t117-43q74 0 115.5 36.5T609 159q0 59-36 95.5T459 311l-53 14q-80 21-121.5 69T243 512q0 80 54.5 129T447 690q108 0 163-58.5T649 483l-63-16q11 97-23.5 145.5T448 661q-69 0-107-35t-38-99q0-56 32.5-89T440 386l53-14q86-23 131-73.5T669 174q0-84-56.5-134T458-10l-21-50h4q51 0 81-21.5t30-59.5z" glyph-name="Scedilla.alt" horiz-adv-x="725"/><glyph d="M85-32L24-16Q9 72 63.5 131.5T219 191h67q7-85 49-128t117-43q74 0 115.5 36.5T609 159q0 59-36 95.5T459 311l-53 14q-80 21-121.5 69T243 512q0 80 54.5 129T447 690q108 0 163-58.5T649 483l-63-16q11 97-23.5 145.5T448 661q-69 0-107-35t-38-99q0-56 32.5-89T440 386l53-14q86-23 131-73.5T669 174q0-84-58-134T452-10q-92 0-146.5 43T233 161h-16q-74 0-108-50T85-32zm491 823l-19-19q-34 29-61 55t-50 51q-19-22-43-46.5T341 772l-19 19q40 42 59.5 70t41.5 72h52q22-44 41.5-72t59.5-70z" glyph-name="Scircumflex.alt" horiz-adv-x="725"/><glyph d="M85-32L24-16Q9 72 63.5 131.5T219 191h67q7-85 49-128t117-43q74 0 115.5 36.5T609 159q0 59-36 95.5T459 311l-53 14q-80 21-121.5 69T243 512q0 80 54.5 129T447 690q108 0 163-58.5T649 483l-63-16q11 97-23.5 145.5T448 661q-69 0-107-35t-38-99q0-56 32.5-89T440 386l53-14q86-23 131-73.5T669 174q0-84-58-134T452-10q-92 0-146.5 43T233 161h-16q-74 0-108-50T85-32zm325-206l-20 14q17 37 24 70.5t7 76.5h66q-14-55-31-89.5T410-238z" glyph-name="uni0218.alt" horiz-adv-x="725"/><glyph d="M408 30l55-5V0H244v25l55 5q16 2 19 8.5t3 40.5v247H175v29h146v295h-79q-94 0-134.5-58T80 417l-61 16Q0 541 61 610.5T244 680h370V523h-25l-27 101q-5 19-13.5 22.5T508 650H386V355h146v-29H386V79q0-34 3-40.5t19-8.5z" glyph-name="Tbar.alt" horiz-adv-x="628"/><glyph d="M244 680h370V523h-25l-27 101q-5 19-13.5 22.5T508 650H386V79q0-34 3-40.5t19-8.5l55-5V0H244v25l55 5q16 2 19 8.5t3 40.5v571h-79q-94 0-134.5-58T80 417l-61 16Q0 541 61 610.5T244 680zm218 258l19-19q-40-42-59.5-70T380 777h-52q-22 44-41.5 72T227 919l19 19q34-29 61-55t50-51q22 25 47 50.5t58 55.5z" glyph-name="Tcaron.alt" horiz-adv-x="628"/><glyph d="M244 680h370V523h-25l-27 101q-5 19-13.5 22.5T508 650H386V79q0-34 3-40.5t19-8.5l55-5V0H244v25l55 5q16 2 19 8.5t3 40.5v571h-79q-94 0-134.5-58T80 417l-61 16Q0 541 61 610.5T244 680zm66-918l-20 14q17 37 24 70.5t7 76.5h66q-14-55-31-89.5T310-238z" glyph-name="uni0162.alt" horiz-adv-x="628"/><glyph d="M244 680h370V523h-25l-27 101q-5 19-13.5 22.5T508 650H386V79q0-34 3-40.5t19-8.5l55-5V0H244v25l55 5q16 2 19 8.5t3 40.5v571h-79q-94 0-134.5-58T80 417l-61 16Q0 541 61 610.5T244 680zm66-918l-20 14q17 37 24 70.5t7 76.5h66q-14-55-31-89.5T310-238z" glyph-name="uni021A.alt" horiz-adv-x="628"/><glyph d="M658 650l-55 5v25h189v-25l-55-5q-16-2-19-8.5t-3-40.5V231q0-116-56-178.5T498-10q-109 0-167.5 67.5T272 251v399h-36q-94 0-134.5-58T74 417l-61 16Q-6 541 55 610.5T238 680h176v-25l-55-5q-16-2-19-8.5t-3-40.5V231q0-107 41-158.5T504 21q86 0 131 53.5T680 231v370q0 34-3 40.5t-19 8.5zM506 772l-19 19q28 35 43.5 66t27.5 76h76q-27-45-58.5-84.5T506 772z" glyph-name="Uacute.alt" horiz-adv-x="830"/><glyph d="M658 650l-55 5v25h189v-25l-55-5q-16-2-19-8.5t-3-40.5V231q0-116-56-178.5T498-10q-109 0-167.5 67.5T272 251v399h-36q-94 0-134.5-58T74 417l-61 16Q-6 541 55 610.5T238 680h176v-25l-55-5q-16-2-19-8.5t-3-40.5V231q0-107 41-158.5T504 21q86 0 131 53.5T680 231v370q0 34-3 40.5t-19 8.5zm-24 141l-19-19q-34 29-61 55t-50 51q-19-22-43-46.5T399 772l-19 19q40 42 59.5 70t41.5 72h52q22-44 41.5-72t59.5-70z" glyph-name="Ucircumflex.alt" horiz-adv-x="830"/><glyph d="M658 650l-55 5v25h189v-25l-55-5q-16-2-19-8.5t-3-40.5V231q0-116-56-178.5T498-10q-109 0-167.5 67.5T272 251v399h-36q-94 0-134.5-58T74 417l-61 16Q-6 541 55 610.5T238 680h176v-25l-55-5q-16-2-19-8.5t-3-40.5V231q0-107 41-158.5T504 21q86 0 131 53.5T680 231v370q0 34-3 40.5t-19 8.5zM451 856q0-19-12-31.5T407 812q-19 0-31 12.5T364 856q0 19 12 31t31 12q19 0 31.5-12t12.5-31zm199 0q0-19-12-31.5T606 812q-19 0-31 12.5T563 856q0 19 12 31t31 12q19 0 31.5-12t12.5-31z" glyph-name="Udieresis.alt" horiz-adv-x="830"/><glyph d="M658 650l-55 5v25h189v-25l-55-5q-16-2-19-8.5t-3-40.5V231q0-116-56-178.5T498-10q-109 0-167.5 67.5T272 251v399h-36q-94 0-134.5-58T74 417l-61 16Q-6 541 55 610.5T238 680h176v-25l-55-5q-16-2-19-8.5t-3-40.5V231q0-107 41-158.5T504 21q86 0 131 53.5T680 231v370q0 34-3 40.5t-19 8.5zM527 791l-19-19q-38 37-69.5 76.5T380 933h76q12-45 27.5-76t43.5-66z" glyph-name="Ugrave.alt" horiz-adv-x="830"/><glyph d="M658 650l-55 5v25h189v-25l-55-5q-16-2-19-8.5t-3-40.5V231q0-116-56-178.5T498-10q-109 0-167.5 67.5T272 251v399h-36q-94 0-134.5-58T74 417l-61 16Q-6 541 55 610.5T238 680h176v-25l-55-5q-16-2-19-8.5t-3-40.5V231q0-107 41-158.5T504 21q86 0 131 53.5T680 231v370q0 34-3 40.5t-19 8.5zM507 825q47 0 73 24.5t40 83.5l26-7q-14-80-47.5-117T507 772q-58 0-91.5 37T368 926l26 7q14-59 40-83.5t73-24.5z" glyph-name="Ubreve.alt" horiz-adv-x="830"/><glyph d="M658 650l-55 5v25h189v-25l-55-5q-16-2-19-8.5t-3-40.5V231q0-116-56-178.5T498-10q-109 0-167.5 67.5T272 251v399h-36q-94 0-134.5-58T74 417l-61 16Q-6 541 55 610.5T238 680h176v-25l-55-5q-16-2-19-8.5t-3-40.5V231q0-107 41-158.5T504 21q86 0 131 53.5T680 231v370q0 34-3 40.5t-19 8.5zM440 772l-21 15q17 32 30 66t25 80h71q-21-41-48.5-83T440 772zm140 0l-21 15q17 32 30 66t25 80h71q-21-41-48.5-83T580 772z" glyph-name="Uhungarumlaut.alt" horiz-adv-x="830"/><glyph d="M658 650l-55 5v25h189v-25l-55-5q-16-2-19-8.5t-3-40.5V231q0-116-56-178.5T498-10q-109 0-167.5 67.5T272 251v399h-36q-94 0-134.5-58T74 417l-61 16Q-6 541 55 610.5T238 680h176v-25l-55-5q-16-2-19-8.5t-3-40.5V231q0-107 41-158.5T504 21q86 0 131 53.5T680 231v370q0 34-3 40.5t-19 8.5zM364 855h287v-43H364z" glyph-name="Umacron.alt" horiz-adv-x="830"/><glyph d="M658 650l-55 5v25h189v-25l-55-5q-16-2-19-8.5t-3-40.5V231q0-65-17.5-112.5T644 38q-15-14-45-36.5T557-31q-26-23-37.5-46T508-127q0-34 14.5-51.5T566-196q29 0 47.5 21t27.5 63l44-13q-13-47-45.5-72.5T562-223q-48 0-77 26t-29 70q0 31 19 57.5T550-6q-11-2-24-3t-28-1q-109 0-167.5 67.5T272 251v399h-36q-94 0-134.5-58T74 417l-61 16Q-6 541 55 610.5T238 680h176v-25l-55-5q-16-2-19-8.5t-3-40.5V231q0-107 41-158.5T504 21q86 0 131 53.5T680 231v370q0 34-3 40.5t-19 8.5z" glyph-name="Uogonek.alt" horiz-adv-x="830"/><glyph d="M658 650l-55 5v25h189v-25l-55-5q-16-2-19-8.5t-3-40.5V231q0-116-56-178.5T498-10q-109 0-167.5 67.5T272 251v399h-36q-94 0-134.5-58T74 417l-61 16Q-6 541 55 610.5T238 680h176v-25l-55-5q-16-2-19-8.5t-3-40.5V231q0-107 41-158.5T504 21q86 0 131 53.5T680 231v370q0 34-3 40.5t-19 8.5zM507 974q51 0 84.5-30.5T625 870v-11q0-43-33.5-74T507 754q-51 0-84.5 30.5T389 859v11q0 43 33.5 73.5T507 974zm67-122v25q0 34-18 53t-49 19q-31 0-48.5-19T441 877v-25q0-34 17.5-53.5T507 779q31 0 49 19.5t18 53.5z" glyph-name="Uring.alt" horiz-adv-x="830"/><glyph d="M658 650l-55 5v25h189v-25l-55-5q-16-2-19-8.5t-3-40.5V231q0-116-56-178.5T498-10q-109 0-167.5 67.5T272 251v399h-36q-94 0-134.5-58T74 417l-61 16Q-6 541 55 610.5T238 680h176v-25l-55-5q-16-2-19-8.5t-3-40.5V231q0-107 41-158.5T504 21q86 0 131 53.5T680 231v370q0 34-3 40.5t-19 8.5zm-80 136q-19 0-37.5 10.5T492 839q-24 25-36.5 32.5T432 879q-20 0-32-20.5T387 801h-29q1 61 22 94t58 33q19 0 37.5-10.5T524 875q23-25 35-32.5t23-7.5q20 0 32 20.5t13 57.5h29q-1-60-22-93.5T578 786z" glyph-name="Utilde.alt" horiz-adv-x="830"/><glyph d="M72 417l-61 16Q-8 541 53 610.5T236 680h147v-25l-49-5q-16-2-18-7.5t5-31.5L450 86l177 594h48L849 90l121 492q40 161 110 241t172 80v-68q-101 0-161.5-75.5T989 520L860 0h-50L636 591 459 0h-51L247 650h-13q-94 0-134.5-58T72 417zm569 355l-19 19q28 35 43.5 66t27.5 76h76q-27-45-58.5-84.5T641 772z" glyph-name="Wacute.alt" horiz-adv-x="1089"/><glyph d="M72 417l-61 16Q-8 541 53 610.5T236 680h147v-25l-49-5q-16-2-18-7.5t5-31.5L450 86l177 594h48L849 90l121 492q40 161 110 241t172 80v-68q-101 0-161.5-75.5T989 520L860 0h-50L636 591 459 0h-51L247 650h-13q-94 0-134.5-58T72 417zm697 374l-19-19q-34 29-61 55t-50 51q-19-22-43-46.5T534 772l-19 19q40 42 59.5 70t41.5 72h52q22-44 41.5-72t59.5-70z" glyph-name="Wcircumflex.alt" horiz-adv-x="1089"/><glyph d="M72 417l-61 16Q-8 541 53 610.5T236 680h147v-25l-49-5q-16-2-18-7.5t5-31.5L450 86l177 594h48L849 90l121 492q40 161 110 241t172 80v-68q-101 0-161.5-75.5T989 520L860 0h-50L636 591 459 0h-51L247 650h-13q-94 0-134.5-58T72 417zm514 439q0-19-12-31.5T542 812q-19 0-31 12.5T499 856q0 19 12 31t31 12q19 0 31.5-12t12.5-31zm199 0q0-19-12-31.5T741 812q-19 0-31 12.5T698 856q0 19 12 31t31 12q19 0 31.5-12t12.5-31z" glyph-name="Wdieresis.alt" horiz-adv-x="1089"/></font>
</defs>
</svg>
