<svg xmlns="http://www.w3.org/2000/svg"><defs><font horiz-adv-x="0" id="font"><font-face ascent="650" bbox="-176 -248 1283 976" cap-height="680" descent="-200" font-family="Inria Serif" font-style="normal" font-weight="680" x-height="507"/><glyph glyph-name=".null" horiz-adv-x="0"/><glyph glyph-name="CR" horiz-adv-x="0"/><glyph glyph-name="space" horiz-adv-x="224"/><glyph glyph-name="uni00A0" horiz-adv-x="224"/><glyph d="M132 35l55-7V0H-6v28l55 7q16 2 20.5 8T85 84l191 596h86L554 84q10-32 15-39.5t21-9.5l55-7V0H369v28l55 7q16 2 17 9.5T432 84l-38 124H163L124 84q-10-32-9-39.5t17-9.5zm148 540L175 243h208z" glyph-name="A" horiz-adv-x="639" unicode="A"/><glyph d="M98 645l-55 7v28h276q105 0 160-41.5T534 520v-27q0-53-33-90t-94-53q75-13 116-54t41-103v-28q0-79-56.5-122T344 0H43v28l55 7q16 2 19 9t3 40v512q0 33-3 40t-19 9zm221 0h-79V365h79q44 0 65.5 30.5T406 488v32q0 63-21.5 94T319 645zm25-315H240V35h104q47 0 69.5 32t22.5 98v33q0 66-23 99t-69 33z" glyph-name="B" horiz-adv-x="616" unicode="B"/><glyph d="M352-10q-135 0-210.5 85T66 309v63q0 151 69.5 234.5T332 690q106 0 168-60t55-153l-117-29q10 97-20 152t-91 55q-68 0-100.5-57T194 422V259q0-122 38-178t120-56q61 0 94 34t40 103l72-19q-19-75-72-114T352-10z" glyph-name="C" horiz-adv-x="597" unicode="C"/><glyph d="M98 645l-55 7v28h295q132 0 198.5-77.5T603 372v-63q0-154-66.5-231.5T338 0H43v28l55 7q16 2 19 9t3 40v512q0 33-3 40t-19 9zm235 0h-93V35h93q83 0 112.5 49T475 259v163q0 126-29.5 174.5T333 645z" glyph-name="D" horiz-adv-x="669" unicode="D"/><glyph d="M478 61l32 111h28V0H43v28l55 7q16 2 19 9t3 40v512q0 33-3 40t-19 9l-55 7v28h485V508h-28l-32 111q-6 20-14 23t-40 3H240V361h114q33 0 41 3.5t13 22.5l22 81h28V219h-28l-22 81q-5 19-13 22.5t-41 3.5H240V35h184q32 0 40 3t14 23z" glyph-name="E" horiz-adv-x="603" unicode="E"/><glyph d="M397 381l22 81h28V213h-28l-22 81q-5 19-13 22.5t-41 3.5H240V84q0-34 3-40.5t19-8.5l75-7V0H43v28l55 7q16 2 19 9t3 40v512q0 33-3 40t-19 9l-55 7v28h474V508h-28l-32 111q-6 20-14 23t-40 3H240V355h103q33 0 41 3.5t13 22.5z" glyph-name="F" horiz-adv-x="554" unicode="F"/><glyph d="M436 273l-75 7v28h284v-28l-55-7q-16-2-19-9t-3-40V0h-27q-13 14-28 26t-32 21q-33-29-71-43t-83-14q-120 0-190.5 88.5T66 314v63q0 144 72 228.5T335 690q114 0 178.5-60.5T568 477l-117-29q11 97-21 152t-99 55q-69 0-103-60t-34-183V269q0-121 36.5-182.5T339 25q35 0 67 13.5T458 76v148q0 34-3 40.5t-19 8.5z" glyph-name="G" horiz-adv-x="663" unicode="G"/><glyph d="M645 35l55-7V0H426v28l55 7q16 2 19 9t3 40v242H240V84q0-33 3-40t19-9l55-7V0H43v28l55 7q16 2 19 9t3 40v512q0 33-3 40t-19 9l-55 7v28h274v-28l-55-7q-16-2-19-9t-3-40V361h263v235q0 33-3 40t-19 9l-55 7v28h274v-28l-55-7q-16-2-19-9t-3-40V84q0-33 3-40t19-9z" glyph-name="H" horiz-adv-x="743" unicode="H"/><glyph d="M98 645l-55 7v28h274v-28l-55-7q-16-2-19-9t-3-40V84q0-33 3-40t19-9l55-7V0H43v28l55 7q16 2 19 9t3 40v512q0 33-3 40t-19 9z" glyph-name="I" horiz-adv-x="360" unicode="I"/><glyph d="M227 645l-55 7v28h274v-28l-55-7q-16-2-19-9t-3-40V194q0-99-50-151.5T173-10q-73 0-115 38T6 142l69 20q3-69 25.5-103T167 25q43 0 62.5 36.5T249 174v422q0 33-3 40t-19 9z" glyph-name="J" horiz-adv-x="476" unicode="J"/><glyph d="M98 645l-55 7v28h274v-28l-55-7q-16-2-19-9t-3-40V327l237 269q26 30 29.5 38.5T493 645l-55 7v28h203v-28l-55-7q-14-2-21-7.5T526 596L386 438 559 84q15-31 23-38.5T612 35l45-7V0H467L305 346l-65-74V84q0-33 3-40t19-9l55-7V0H43v28l55 7q16 2 19 9t3 40v512q0 33-3 40t-19 9z" glyph-name="K" horiz-adv-x="656" unicode="K"/><glyph d="M458 61l32 111h28V0H43v28l55 7q16 2 19 9t3 40v512q0 33-3 40t-19 9l-55 7v28h274v-28l-55-7q-16-2-19-9t-3-40V35h164q32 0 40 3t14 23z" glyph-name="L" horiz-adv-x="532" unicode="L"/><glyph d="M773 35l55-7V0H554v28l55 7q16 2 19 9t3 40v514L448 80H341L160 595V84q0-33 3-40t19-9l55-7V0H43v28l55 7q16 2 19 9t3 40v512q0 33-3 40t-19 9l-55 7v28h211l183-520 186 520h205v-28l-55-7q-16-2-19-9t-3-40V84q0-33 3-40t19-9z" glyph-name="M" horiz-adv-x="871" unicode="M"/><glyph d="M520 645l-55 7v28h194v-28l-55-7q-16-2-19-9t-3-40V0h-55L160 593V84q0-33 3-40t19-9l55-7V0H43v28l55 7q16 2 19 9t3 40v512q0 33-3 40t-19 9l-55 7v28h201l298-479v395q0 33-3 40t-19 9z" glyph-name="N" horiz-adv-x="687" unicode="N"/><glyph d="M337 690q132 0 201.5-81.5T608 372v-63q0-155-69.5-237T337-10q-132 0-201.5 81.5T66 309v63q0 156 69 237t202 81zm143-431v163q0 125-32.5 179T337 655q-78 0-110.5-54T194 422V259q0-125 33-179.5T337 25q77 0 110 54.5T480 259z" glyph-name="O" horiz-adv-x="674" unicode="O"/><glyph d="M98 645l-55 7v28h301q105 0 162-48.5T563 495v-23q0-88-57-137t-162-49H240V84q0-34 3-40.5t19-8.5l75-7V0H43v28l55 7q16 2 19 9t3 40v512q0 33-3 40t-19 9zm246 0H240V321h104q44 0 67.5 34t23.5 97v63q0 62-24 96t-67 34z" glyph-name="P" horiz-adv-x="598" unicode="P"/><glyph d="M387-7q20-41 64-58.5T575-83l17-125q-90 0-148.5 48T348-10h-9q-133 0-203 81.5T66 309v63q0 155 69.5 236.5T339 690q133 0 203-81.5T612 372v-63q0-141-57.5-221.5T387-7zm97 266v163q0 125-33 179t-112 54q-79 0-112-54t-33-179V259q0-125 33.5-179.5T339 25q78 0 111.5 54.5T484 259z" glyph-name="Q" horiz-adv-x="678" unicode="Q"/><glyph d="M98 645l-55 7v28h302q103 0 161-46t58-127v-23q0-60-33-102t-95-60L561 84q19-35 24.5-41t20.5-8l45-7V0H464L313 310h-73V84q0-33 3-40t19-9l55-7V0H43v28l55 7q16 2 19 9t3 40v512q0 33-3 40t-19 9zm247 0H240V345h105q49 0 70 30.5t21 98.5v43q0 67-21 97.5T345 645z" glyph-name="R" horiz-adv-x="651" unicode="R"/><glyph d="M275 25q65 0 102 31t37 87q0 48-28.5 77T293 268l-93 28q-70 21-107.5 73T55 497q0 87 58.5 140T273 690q111 0 169-58.5T484 483l-115-21q16 92-13 142.5T260 655q-52 0-82-31t-30-85q0-50 28.5-84t85.5-51l93-28q79-24 115.5-69.5T507 186q0-90-61.5-143T276-10q-101 0-161 44.5T44 164l67 24q6-82 47-122.5T275 25z" glyph-name="S" horiz-adv-x="562" unicode="S"/><glyph d="M12 508v172h550V508h-28l-32 111q-4 16-7.5 20t-11.5 5q-4 0-10.5.5t-24.5.5H347V84q0-33 3-40t19-9l55-7V0H150v28l55 7q16 2 19 9t3 40v561H126q-18 0-24.5-.5T91 644q-8-1-11.5-5T72 619L40 508z" glyph-name="T" horiz-adv-x="574" unicode="T"/><glyph d="M516 645l-55 7v28h194v-28l-55-7q-16-2-19-9t-3-40V231q0-121-51-181T373-10q-126 0-197.5 68T104 246v350q0 33-3 40t-19 9l-55 7v28h274v-28l-55-7q-16-2-19-9t-3-40V239q0-107 39-159.5T382 27q78 0 117 50.5T538 229v367q0 33-3 40t-19 9z" glyph-name="U" horiz-adv-x="684" unicode="U"/><glyph d="M549 596L360 0h-86L84 596q-10 33-15 40t-21 9l-55 7v28h278v-28l-55-7q-16-2-17-9.5t9-39.5l152-477 150 477q10 32 9 39.5t-17 9.5l-55 7v28h192v-28l-55-7q-15-2-19.5-8T549 596z" glyph-name="V" horiz-adv-x="632" unicode="V"/><glyph d="M716 0h-88L464 546 309 0h-87L83 596q-7 33-11.5 40T50 645l-55 7v28h277v-28l-55-7q-14-2-16-5.5t-1-12.5q0-4 1.5-9.5T206 596l104-466 153 550h83l163-540 106 456q7 31 6 39t-17 10l-55 7v28h194v-28l-55-7q-17-2-21.5-9T855 596z" glyph-name="W" horiz-adv-x="938" unicode="W"/><glyph d="M143 35l55-7V0H1v28l55 7q16 2 22.5 9T106 84l151 240-148 272q-18 34-24 40.5T63 645l-55 7v28h286v-28l-55-7q-16-2-15-9.5t18-39.5l100-184 115 184q20 32 21.5 39.5T463 645l-55 7v28h197v-28l-55-7q-16-2-22.5-9T500 596L362 375 519 84q18-34 24-40.5t22-8.5l55-7V0H335v28l55 7q16 2 15.5 9T387 84L276 288 149 84q-20-32-21.5-39.5T143 35z" glyph-name="X" horiz-adv-x="621" unicode="X"/><glyph d="M391 35l55-7V0H172v28l55 7q16 2 19 9t3 40v207L90 596q-17 33-23 40t-22 9l-55 7v28h285v-28l-55-7q-16-2-15.5-9.5T221 596l129-258 134 258q16 30 16.5 38.5T485 645l-55 7v28h195v-28l-55-7q-15-2-21-8.5T526 596L369 293V84q0-33 3-40t19-9z" glyph-name="Y" horiz-adv-x="615" unicode="Y"/><glyph d="M448 61l32 111h28V0H38v25l324 620H168q-32 0-40-3t-14-23L82 508H54v172h444v-25L174 35h220q32 0 40 3t14 23z" glyph-name="Z" horiz-adv-x="546" unicode="Z"/><glyph d="M815 172h28V0H348v28l55 7q16 2 19 9t3 40v124H206L139 84q-19-35-19-41t15-8l55-7V0H-6v28l55 7q17 2 24 9.5T97 84l276 512q17 32 17.5 39.5T375 645l-55 7v28h513V508h-28l-32 111q-6 20-14 23t-40 3H545V361h114q33 0 41 3.5t13 22.5l22 81h28V219h-28l-22 81q-5 19-13 22.5t-41 3.5H545V35h184q32 0 40 3t14 23zM425 617L224 243h201z" glyph-name="AE" horiz-adv-x="908" unicode="Æ"/><glyph d="M787 61l32 111h28V0H331Q199 0 132.5 77.5T66 309v63q0 153 66.5 230.5T331 680h506V508h-28l-32 111q-6 20-14 23t-40 3H549V361h114q34 0 42 3.5t12 22.5l17 81h33V219h-28l-22 81q-5 19-13 22.5t-41 3.5H549V35h184q32 0 40 3t14 23zM336 35h93v610h-93q-83 0-112.5-48.5T194 422V259q0-126 29.5-175T336 35z" glyph-name="OE" horiz-adv-x="912" unicode="Œ"/><glyph d="M461 61l32 111h28V0H46v28l55 7q16 2 19 9t3 40v207l-78-37-14 34 92 43v265q0 33-3 40t-19 9l-55 7v28h274v-28l-55-7q-16-2-19-9t-3-40V387l125 59 14-34-139-65V35h164q32 0 40 3t14 23z" glyph-name="Lslash" horiz-adv-x="535" unicode="Ł"/><glyph d="M608 372v-63q0-155-69.5-237T337-10q-57 0-103 15.5T155 51L118 0H66l60 83q-30 40-45 97T66 309v63q0 156 69 237t202 81q57 0 103-15.5t79-45.5l37 51h52l-60-83q30-40 45-96.5T608 372zm-414 50V259q0-24 1-42.5t3-33.5l268 372q-14 52-45 76t-84 24q-78 0-110.5-54T194 422zm286-163v163q0 21-.5 40t-2.5 36L208 125q14-52 45-76t84-24q77 0 110 54.5T480 259z" glyph-name="Oslash" horiz-adv-x="674" unicode="Ø"/><glyph d="M103 645l-55 7v28h295q132 0 198.5-77.5T608 372v-63q0-154-66.5-231.5T343 0H48v28l55 7q16 2 19 9t3 40v253H48v35h77v224q0 33-3 40t-19 9zm282-273v-35H245V35h93q83 0 112.5 49T480 259v163q0 126-29.5 174.5T338 645h-93V372z" glyph-name="Eth" horiz-adv-x="674" unicode="Ð"/><glyph d="M98 645l-55 7v28h294v-28l-75-7q-16-2-19-8.5t-3-40.5v-55h104q105 0 162-48.5T563 356v-23q0-88-57-137t-162-49H240V84q0-34 3-40.5t19-8.5l75-7V0H43v28l55 7q16 2 19 9t3 40v512q0 33-3 40t-19 9zm246-139H240V182h104q44 0 67.5 34t23.5 97v63q0 62-24 96t-67 34z" glyph-name="Thorn" horiz-adv-x="598" unicode="Þ"/><glyph d="M348 655q-62 0-93-41t-31-123V0H27v28l55 7q16 2 19 9t3 40v397q0 99 63 154t179 55q68 0 125-20.5T572 608v-22L452 380q80-21 125-72.5T622 185v-16q0-81-53-130T429-10q-64 0-106.5 29T272 100l72 19q7-46 27-70t50-24q35 0 54 34.5t19 99.5v36q0 87-37 126t-117 39h-8v29l128 219q-23 24-51 35.5T348 655z" glyph-name="uni1E9E" horiz-adv-x="660" unicode="ẞ"/><glyph d="M515 51l18-26Q513 7 490.5-1.5T440-10q-41 0-68.5 18T335 59q-31-34-70-51.5T182-10q-64 0-100.5 36.5T45 125q0 67 48.5 99.5T240 257h91v81q0 74-19.5 109T250 482q-50 0-68.5-38.5T177 327L67 343q-13 75 38.5 124.5T252 517q97 0 145.5-44.5T446 338V107q0-40 6.5-58.5T475 30q9 0 18.5 5T515 51zm-352 76q0-41 16-62.5T226 43q30 0 55 15.5t50 48.5v115h-75q-49 0-71-22.5T163 127z" glyph-name="a" horiz-adv-x="538" unicode="a"/><glyph d="M63 705l-55 7v28h192V433q28 43 61.5 63.5T338 517q85 0 134-67.5T521 264v-20q0-117-57.5-185.5T306-10q-38 0-70 12t-56 34q-15-6-31-15.5T112-5H85v661q0 33-3 40t-19 9zm249-232q-31 0-58-25.5T200 369V67q19-19 42.5-28.5T293 29q52 0 78.5 46.5T398 214v80q0 88-22 133.5T312 473z" glyph-name="b" horiz-adv-x="577" unicode="b"/><glyph d="M271 482q-50 0-72.5-47.5T176 284v-60q0-106 26.5-152.5T291 25q50 0 76 27.5t30 84.5l64-18q-16-64-61-96.5T284-10q-111 0-171 66.5T53 244v20q0 118 57.5 185.5T271 517q97 0 149.5-56.5T458 322l-110-16q11 85-9 130.5T271 482z" glyph-name="c" horiz-adv-x="503" unicode="c"/><glyph d="M514 35l55-7V0H383v83q-30-49-64.5-71T239-10q-85 0-134 67.5T56 243v20q0 117 57.5 185.5T271 517q29 0 56.5-7.5T377 487v169q0 33-3 40t-19 9l-55 7v28h192V84q0-33 3-40t19-9zM179 293v-80q0-88 22-133.5T265 34q31 0 58 25.5t54 78.5v302q-19 19-42.5 28.5T284 478q-52 0-78.5-46.5T179 293z" glyph-name="d" horiz-adv-x="585" unicode="d"/><glyph d="M410 137l64-18q-16-64-62-96.5T293-10q-115 0-177.5 66.5T53 244v20q0 119 58 186t162 67q93 0 149.5-53.5T479 319q0-17-2-33.5t-5-32.5H176v-29q0-106 29.5-152.5T303 25q49 0 76 28.5t31 83.5zm-46 221q0 60-23.5 92T273 482q-50 0-73.5-47T176 288h181q3 18 5 36t2 34z" glyph-name="e" horiz-adv-x="529" unicode="e"/><glyph d="M237 35l75-7V0H23v28l55 7q16 2 19 9t3 40v339q0 33-3 40t-19 9l-55 7v28h77v54q0 89 46.5 139T279 750q85 0 131.5-43.5T447 597l-110-16q9 70-4.5 102T279 715q-35 0-49.5-31.5T215 581v-74h150v-35H215V84q0-34 3-40.5t19-8.5z" glyph-name="f" horiz-adv-x="363" unicode="f"/><glyph d="M511-52q0-81-60.5-126T281-223q-108 0-170.5 35.5T42-89l107 17q-5-58 28-87t104-29q75 0 118 28t43 77q0 38-28 55.5T328-10H214q-67 0-102.5 26T76 89q0 32 17.5 60t53.5 54q-47 20-72 58.5T50 351q0 77 53 121.5T244 517h17q29 0 54-5t46-14l144 71 12-98H403q25-22 38-52t13-68q0-76-53.5-121T261 185h-17q-15 0-30 1.5t-29 4.5q-22-15-33-30.5T141 129q0-16 15-24t47-8h130q86 0 132-38.5T511-52zM244 220h17q38 0 58 33t20 98q0 65-20 98t-58 33h-17q-39 0-59-33t-20-98q0-65 20-98t59-33z" glyph-name="g" horiz-adv-x="532" unicode="g"/><glyph d="M550 35l55-7V0H336v28l55 7q16 2 19 9t3 40v252q0 67-20 99.5T332 468q-39 0-72-27t-52-77V84q0-33 3-40t19-9l55-7V0H16v28l55 7q16 2 19 9t3 40v572q0 33-3 40t-19 9l-55 7v28h192V429q26 42 68.5 65t91.5 23q75 0 117.5-48T528 337V84q0-33 3-40t19-9z" glyph-name="h" horiz-adv-x="616" unicode="h"/><glyph d="M227 663q0-31-19.5-50.5T157 593q-31 0-50 19.5T88 663q0 31 19 50t50 19q31 0 50.5-19.5T227 663zM78 472l-55 7v28h192V84q0-33 3-40t19-9l55-7V0H23v28l55 7q16 2 19 9t3 40v339q0 33-3 40t-19 9z" glyph-name="i" horiz-adv-x="308" unicode="i"/><glyph d="M220 663q0-31-19.5-50.5T150 593q-31 0-50 19.5T81 663q0 31 19 50t50 19q31 0 50.5-19.5T220 663zM71 472l-55 7v28h192V-34q0-89-45-139T35-223q-62 0-98 31t-44 92l62 19q4-55 20-81t48-26q37 0 53.5 32.5T93-54v477q0 33-3 40t-19 9z" glyph-name="j" horiz-adv-x="293" unicode="j"/><glyph d="M71 705l-55 7v28h192V255l176 168q33 32 37 39.5t-14 9.5l-55 7v28h205v-28l-55-7q-14-2-23.5-9.5T435 423l-96-92L481 84q18-30 25.5-38T532 35l55-7V0H396L257 253l-49-47V84q0-33 3-40t19-9l55-7V0H16v28l55 7q16 2 19 9t3 40v572q0 33-3 40t-19 9z" glyph-name="k" horiz-adv-x="588" unicode="k"/><glyph d="M71 705l-55 7v28h192V84q0-33 3-40t19-9l55-7V0H16v28l55 7q16 2 19 9t3 40v572q0 33-3 40t-19 9z" glyph-name="l" horiz-adv-x="301" unicode="l"/><glyph d="M547 35l55-7V0H333v28l55 7q16 2 19 9t3 40v252q0 67-18.5 99.5T334 468q-37 0-68.5-27T215 364V84q0-33 3-40t19-9l55-7V0H23v28l55 7q16 2 19 9t3 40v339q0 33-3 40t-19 9l-55 7v28h186v-88q25 47 68 72.5t93 25.5q54 0 91.5-27.5T515 411q24 50 68 78t97 28q72 0 113.5-48T835 337V84q0-33 3-40t19-9l55-7V0H643v28l55 7q16 2 19 9t3 40v252q0 67-18.5 99.5T644 468q-37 0-69-28t-51-79q1-4 1-9V84q0-33 3-40t19-9z" glyph-name="m" horiz-adv-x="923" unicode="m"/><glyph d="M557 35l55-7V0H343v28l55 7q16 2 19 9t3 40v252q0 67-20 99.5T339 468q-39 0-72-27t-52-77V84q0-33 3-40t19-9l55-7V0H23v28l55 7q16 2 19 9t3 40v339q0 33-3 40t-19 9l-55 7v28h186v-88q26 47 70 72.5t96 25.5q75 0 117.5-48T535 337V84q0-33 3-40t19-9z" glyph-name="n" horiz-adv-x="623" unicode="n"/><glyph d="M281 517q107 0 168-67.5T510 264v-20q0-118-61-186T281-10q-107 0-168 67.5T52 244v20q0 118 61 185.5T281 517zm106-293v60q0 101-25.5 149.5T281 482q-54 0-80-48.5T175 284v-60q0-101 26-150t80-49q54 0 80 48.5T387 224z" glyph-name="o" horiz-adv-x="562" unicode="o"/><glyph d="M71 472l-55 7v28h186v-83q30 49 64.5 71t79.5 22q85 0 134-67.5T529 264v-20q0-117-57.5-185.5T314-10q-29 0-56.5 7.5T208 20v-149q0-34 3-40.5t19-8.5l75-7v-28H16v28l55 7q16 2 19 9t3 40v552q0 33-3 40t-19 9zm249 1q-31 0-58-25.5T208 369V67q19-19 42.5-28.5T301 29q52 0 78.5 46.5T406 214v80q0 88-22 133.5T320 473z" glyph-name="p" horiz-adv-x="585" unicode="p"/><glyph d="M514-178l55-7v-28H280v28l75 7q16 2 19 8.5t3 40.5V74q-28-43-61.5-63.5T239-10q-85 0-134 67.5T56 243v20q0 117 57.5 185.5T271 517q38 0 70-12t56-34q15 6 31 15.5t37 25.5h27v-641q0-33 3-40t19-9zM179 293v-80q0-88 22-133.5T265 34q31 0 58 25.5t54 78.5v302q-19 19-42.5 28.5T284 478q-52 0-78.5-46.5T179 293z" glyph-name="q" horiz-adv-x="577" unicode="q"/><glyph d="M78 472l-55 7v28h186v-82q31 46 67 69t78 23q37 0 64.5-23.5T462 425l-89-48q-13 36-30.5 53T301 447q-25 0-46-16t-40-50V84q0-34 3-40.5t19-8.5l75-7V0H23v28l55 7q16 2 19 9t3 40v339q0 33-3 40t-19 9z" glyph-name="r" horiz-adv-x="462" unicode="r"/><glyph d="M338 105q0 32-21.5 53T251 189l-69 16q-64 15-98 55.5T50 361q0 72 47.5 114T231 517q94 0 145-44.5T415 360l-110-20q14 66-7 104t-72 38q-37 0-59-21t-22-58q0-37 21-62.5t58-34.5l69-16q71-17 105.5-52.5T433 146q0-72-52.5-114T236-10q-75 0-127 33t-70 96l65 26q6-58 40.5-89T236 25q47 0 74.5 21.5T338 105z" glyph-name="s" horiz-adv-x="480" unicode="s"/><glyph d="M319 119l60-15q-12-57-47-85.5T241-10q-72 0-112.5 46T88 159v264q0 33-3 40t-19 9l-55 7v28h77v116l115 23V507h160v-35H203V139q0-57 14-85t43-28q28 0 41.5 22t17.5 71z" glyph-name="t" horiz-adv-x="395" unicode="t"/><glyph d="M535 35l55-7V0H404v88q-25-47-68-72.5T243-10q-72 0-113.5 48T88 170v253q0 33-3 40t-19 9l-55 7v28h192V171q0-67 18.5-99.5T279 39q37 0 68.5 27t50.5 77v280q0 34-3 40.5t-19 8.5l-75 7v28h212V84q0-33 3-40t19-9z" glyph-name="u" horiz-adv-x="606" unicode="u"/><glyph d="M463 423L321 0h-91L88 423q-11 32-16 39.5T50 472l-55 7v28h270v-28l-55-7q-16-2-16.5-9t10.5-40L314 91l111 332q5 15 6.5 21t2.5 9q3 10 1 13.5t-16 5.5l-55 7v28h191v-28l-55-7q-17-2-21.5-9T463 423z" glyph-name="v" horiz-adv-x="550" unicode="v"/><glyph d="M715 423L606 0h-91L395 402 274 0h-83L83 423q-9 33-13.5 40T50 472l-55 7v28h266v-28l-55-7q-17-2-18-10t7-39l78-301 115 385h88l119-402 81 318q8 31 7 39t-18 10l-55 7v28h193v-28l-55-7q-15-2-19.5-9T715 423z" glyph-name="w" horiz-adv-x="798" unicode="w"/><glyph d="M150 35l55-7V0H5v28l55 7q15 2 22 8.5T112 84l107 156-107 183q-18 31-25 39t-24 10l-55 7v28h277v-28l-55-7q-14-2-15-5.5t4-14.5q2-4 5.5-9.5T236 423l67-114 77 114q21 31 23 39t-15 10l-55 7v28h200v-28l-55-7q-15-2-22-8.5T426 423L324 273 434 84q18-31 25-39t24-10l55-7V0H261v28l55 7q14 2 15 5.5T327 55q-2 4-5.5 9.5T310 84l-70 121-82-121q-21-31-23-39t15-10z" glyph-name="x" horiz-adv-x="543" unicode="x"/><glyph d="M464 427L303-50q-36-98-83.5-135.5T85-223v110q86 0 128 18.5T272-30l10 30h-52L88 423q-11 32-16 39.5T50 472l-55 7v28h270v-28l-55-7q-15-2-15-11.5t9-37.5L313 93l113 334q10 30 9.5 36.5T419 472l-55 7v28h191v-28l-55-7q-16-2-21-9t-15-36z" glyph-name="y" horiz-adv-x="550" unicode="y"/><glyph d="M370 61l27 91h28V0H38v25l251 447H159q-32 0-40-3t-14-23l-27-91H50v152h365v-25L164 35h152q32 0 40 3t14 23z" glyph-name="z" horiz-adv-x="465" unicode="z"/><glyph d="M688 137l64-18q-16-64-62-96.5T571-10q-72 0-124 26.5T365 95q-34-51-81-78T182-10q-64 0-100.5 36.5T45 125q0 67 48.5 99.5T240 257h91v81q0 74-19.5 109T250 482q-50 0-68.5-38.5T177 327L67 343q-13 75 38.5 124.5T252 517q54 0 91.5-17.5T401 446q26 35 64 53t86 18q93 0 149.5-53.5T757 319q0-17-2-33.5t-5-32.5H454v-29q0-106 29.5-152.5T581 25q49 0 76 28.5t31 83.5zm-46 221q0 60-23.5 92T551 482q-50 0-73.5-47T454 288h181q4 19 5.5 36.5T642 358zM163 127q0-41 16-62.5T226 43q34 0 63 21.5t59 67.5q-7 22-11 44.5t-5 45.5h-76q-49 0-71-22.5T163 127z" glyph-name="ae" horiz-adv-x="807" unicode="æ"/><glyph d="M744 137l64-18q-16-64-62-96.5T627-10q-59 0-104 20.5T449 72q-29-40-71.5-61T281-10q-107 0-168 67.5T52 244v20q0 118 61 185.5T281 517q54 0 96-20.5t70-59.5q27 40 67.5 60t92.5 20q93 0 149.5-53.5T813 319q0-17-2-33.5t-5-32.5H510v-29q0-106 29.5-152.5T637 25q49 0 76 28.5t31 83.5zm-357 87v60q0 101-25.5 149.5T281 482q-54 0-80-48.5T175 284v-60q0-101 26-150t80-49q54 0 80 48.5T387 224zm311 134q0 60-23.5 92T607 482q-50 0-73.5-47T510 288h181q4 19 5.5 36.5T698 358z" glyph-name="oe" horiz-adv-x="863" unicode="œ"/><glyph d="M104 705l-55 7v28h192V415l97 45 14-34-111-51V84q0-33 3-40t19-9l55-7V0H49v28l55 7q16 2 19 9t3 40v238l-97-45-14 34 111 51v294q0 33-3 40t-19 9z" glyph-name="lslash" horiz-adv-x="362" unicode="ł"/><glyph d="M510 264v-20q0-118-61-186T281-10q-44 0-80.5 12T135 37L106 0H52l53 67q-26 32-39.5 77T52 244v20q0 118 61 185.5T281 517q44 0 80.5-12t65.5-35l29 37h54l-53-67q26-32 39.5-77t13.5-99zm-335 20v-60q0-18 1-34.5t2-30.5l195 244q-11 40-34 59.5T281 482q-54 0-80-48.5T175 284zm212-60v60q0 18-1 34.5t-2 30.5L189 104q12-40 35-59.5T281 25q54 0 80 48.5T387 224z" glyph-name="oslash" horiz-adv-x="562" unicode="ø"/><glyph d="M507 292v-40q0-126-60-194T277-10q-107 0-167.5 59.5T49 214v20q0 101 60 162t157 61q29 0 56-7.5t51-22.5q-10 53-31.5 98T287 609l-109-80-22 30 105 77q-23 23-51 44t-60 39l13 31q37-17 71.5-38t66.5-46l115 84 22-30-107-79q84-74 130-165t46-184zm-335-38v-60q0-86 26-127.5T277 25q57 0 82 49t25 158v80q0 17-.5 33.5T381 379q-23 21-50 32t-56 11q-52 0-77.5-41.5T172 254z" glyph-name="eth" horiz-adv-x="561" unicode="ð"/><glyph d="M68 705l-55 7v28h192V433q28 43 61.5 63.5T343 517q85 0 134-67.5T526 264v-20q0-117-57.5-185.5T311-10q-29 0-56.5 7.5T205 20v-149q0-34 3-40.5t19-8.5l75-7v-28H13v28l55 7q16 2 19 9t3 40v785q0 33-3 40t-19 9zm249-232q-31 0-58-25.5T205 369V67q19-19 42.5-28.5T298 29q52 0 78.5 46.5T403 214v80q0 88-22 133.5T317 473z" glyph-name="thorn" horiz-adv-x="582" unicode="þ"/><glyph d="M314 715q-52 0-75.5-32T215 581V0H23v28l55 7q16 2 19 9t3 40v339q0 33-3 40t-19 9l-55 7v28h77v54q0 89 55 139t159 50q83 0 132.5-33.5T496 631q0-20-9-40.5T448 534q-31-37-40.5-58.5T398 432q0-29 15.5-51.5T482 320l39-28q42-30 64-69.5t22-85.5q0-65-44.5-106T446-10q-65 0-107.5 32.5T278 119l65 26q6-60 31.5-90T445 25q34 0 52.5 19.5T516 99q0 26-13.5 45.5T453 190l-39 28q-62 45-79 74t-17 68q0 26 8 50t34 66q29 47 38 76t9 61q0 51-23 76.5T314 715z" glyph-name="germandbls" horiz-adv-x="631" unicode="ß"/><glyph d="M78 472l-55 7v28h192V84q0-33 3-40t19-9l55-7V0H23v28l55 7q16 2 19 9t3 40v339q0 33-3 40t-19 9z" glyph-name="dotlessi" horiz-adv-x="308" unicode="ı"/><glyph d="M73 472l-55 7v28h192V-34q0-91-44.5-140T37-223q-63 0-99.5 31t-44.5 91l64 20q5-54 21-80.5T23-188q39 0 55.5 31.5T95-54v477q0 33-3 40t-19 9z" glyph-name="dotlessj" horiz-adv-x="295" unicode="ȷ"/><glyph d="M560 35l55-7V0H346v28l55 7q16 2 19 9t3 40v388H215V84q0-33 3-40t19-9l55-7V0H23v28l55 7q16 2 19 9t3 40v339q0 33-3 40t-19 9l-55 7v28h77v34q0 98 57.5 153.5T322 750q99 0 157.5-44.5T527 597l-110-16q10 67-14 100.5T322 715q-56 0-81.5-37T215 561v-54h323V84q0-33 3-40t19-9z" glyph-name="fi" horiz-adv-x="631" unicode="ﬁ"/><glyph d="M560 35l55-7V0H346v28l55 7q16 2 19 9t3 40v388H215V84q0-33 3-40t19-9l55-7V0H23v28l55 7q16 2 19 9t3 40v339q0 33-3 40t-19 9l-55 7v28h77v24q0 97 58 153t164 56q46 0 83.5-15t63.5-43q29 34 73 51t103 17q99 0 157.5-44.5T850 597l-110-16q10 67-14 100.5T645 715q-56 0-81.5-37T538 561v-54h323V84q0-33 3-40t19-9l55-7V0H669v28l55 7q16 2 19 9t3 40v388H538V84q0-33 3-40t19-9zM215 551v-44h208v44q0 83-22.5 118.5T322 705q-57 0-82-37t-25-117z" glyph-name="ffi" horiz-adv-x="954" unicode="ﬃ"/><glyph d="M560 35l55-7V0H346v28l55 7q16 2 19 9t3 40v506q0 65-24 95t-77 30q-57 0-82-37t-25-117v-54h150v-35H215V84q0-33 3-40t19-9l55-7V0H23v28l55 7q16 2 19 9t3 40v339q0 33-3 40t-19 9l-55 7v28h77v34q0 97 58 153t164 56q40 0 74-10t61-30q15 7 28.5 14.5T511 740h27V84q0-33 3-40t19-9z" glyph-name="fl" horiz-adv-x="631" unicode="ﬂ"/><glyph d="M560 35l55-7V0H346v28l55 7q16 2 19 9t3 40v388H215V84q0-33 3-40t19-9l55-7V0H23v28l55 7q16 2 19 9t3 40v339q0 33-3 40t-19 9l-55 7v28h77v24q0 97 58 153t164 56q46 0 83.5-14.5T470 682q29 34 73 51t102 17q40 0 74-10t61-30q15 7 28.5 14.5T834 740h27V84q0-33 3-40t19-9l55-7V0H669v28l55 7q16 2 19 9t3 40v506q0 65-24 95t-77 30q-57 0-82-37t-25-117v-54h129v-35H538V84q0-33 3-40t19-9zM215 551v-44h208v44q0 83-22.5 118.5T322 705q-57 0-82-37t-25-117z" glyph-name="ffl" horiz-adv-x="954" unicode="ﬄ"/><glyph d="M237 35l75-7V0H23v28l55 7q16 2 19 9t3 40v339q0 33-3 40t-19 9l-55 7v28h77v34q0 95 54 152t150 57q69 0 111-30.5t55-90.5q15 9 22 13t13 8h27V507h160v-35H532V139q0-57 14-85t43-28q28 0 41.5 22t17.5 71l60-15q-12-57-47-85.5T570-10q-72 0-112.5 46T417 159v313H215V84q0-34 3-40.5t19-8.5zm82 678q-55 0-79.5-36.5T215 561v-54h202v54q0 81-22.5 116.5T319 713z" glyph-name="ft" horiz-adv-x="724"/><glyph d="M237 35l55-7V0H23v28l55 7q16 2 19 9t3 40v339q0 33-3 40t-19 9l-55 7v28h77v24q0 97 58 153t164 56q46 0 83-14.5t63-42.5q27 33 67.5 50t91.5 17q68 0 109.5-29.5T792 634q10 5 19 10t17 11h27V507h160v-35H855V139q0-57 14-85t43-28q28 0 41.5 22t17.5 71l60-15q-12-57-47-85.5T893-10q-72 0-112.5 46T740 159v313H538V84q0-34 3-40.5t19-8.5l75-7V0H346v28l55 7q16 2 19 9t3 40v388H215V84q0-33 3-40t19-9zm405 678q-55 0-79.5-36.5T538 561v-54h202v54q0 81-22.5 116.5T642 713zM215 551v-44h208v44q0 83-22.5 118.5T322 705q-57 0-82-37t-25-117z" glyph-name="fft" horiz-adv-x="1047"/><glyph d="M237 35l75-7V0H23v28l55 7q16 2 19 9t3 40v339q0 33-3 40t-19 9l-55 7v28h77v34q0 97 58 153t164 56q40 0 74-10t61-30q15 7 28.5 14.5T511 740h27V433q28 43 61.5 63.5T676 517q85 0 134-67.5T859 264v-20q0-117-57.5-185.5T644-10q-38 0-70 12t-56 34q-15-6-31-15.5T450-5h-27v595q0 65-24 95t-77 30q-57 0-82-37t-25-117v-54h150v-35H215V84q0-34 3-40.5t19-8.5zm413 438q-31 0-58-25.5T538 369V67q19-19 42.5-28.5T631 29q52 0 78.5 46.5T736 214v80q0 88-22 133.5T650 473z" glyph-name="fb" horiz-adv-x="915"/><glyph d="M237 35l55-7V0H23v28l55 7q16 2 19 9t3 40v339q0 33-3 40t-19 9l-55 7v28h77v24q0 97 58 153t164 56q46 0 83.5-15t63.5-43q29 34 73 51t102 17q40 0 74.5-10t60.5-30q15 7 28.5 14.5T833 740h27V433q28 43 61.5 63.5T998 517q85 0 134-67.5t49-185.5v-20q0-117-57.5-185.5T966-10q-38 0-70 12t-56 34q-15-6-31-15.5T772-5h-27v595q0 65-24 95t-77 30q-57 0-82-37t-25-117v-54h150v-35H537V84q0-34 3-40.5t19-8.5l75-7V0H345v28l55 7q16 2 19 9t3 40v388H215V84q0-33 3-40t19-9zm85 670q-57 0-82-37t-25-117v-44h207v55q0 76-23 109.5T322 705zm650-232q-31 0-58-25.5T860 369V67q19-19 42.5-28.5T953 29q52 0 78.5 46.5T1058 214v80q0 88-22 133.5T972 473z" glyph-name="ffb" horiz-adv-x="1237"/><glyph d="M560 35l75-7V0H346v28l55 7q16 2 19 9t3 40v388H215V84q0-33 3-40t19-9l55-7V0H23v28l55 7q16 2 19 9t3 40v339q0 33-3 40t-19 9l-55 7v28h77v24q0 97 58 153t164 56q43 0 78.5-13t60.5-37q23 30 58.5 45t82.5 15q85 0 131.5-43.5T770 597l-110-16q9 70-4.5 102T602 715q-35 0-49.5-31.5T538 581v-74h150v-35H538V84q0-34 3-40.5t19-8.5zM322 705q-57 0-82-37t-25-117v-44h208v44q0 83-22.5 118.5T322 705z" glyph-name="ff" horiz-adv-x="686" unicode="ﬀ"/><glyph d="M560 35l55-7V0H346v28l55 7q16 2 19 9t3 40v388H215V84q0-33 3-40t19-9l55-7V0H23v28l55 7q16 2 19 9t3 40v339q0 33-3 40t-19 9l-55 7v28h77v24q0 97 58 153t164 56q49 0 87.5-16.5T474 676q29 32 72 48t99 16q43 0 78.5-13t60.5-37q23 30 58.5 45t82.5 15q85 0 131.5-43.5T1093 597l-110-16q9 70-4.5 102T925 715q-35 0-49.5-31.5T861 581v-74h150v-35H861V84q0-34 3-40.5t19-8.5l75-7V0H669v28l55 7q16 2 19 9t3 40v388H538V84q0-33 3-40t19-9zM322 705q-57 0-82-37t-25-117v-44h208v44q0 83-22.5 118.5T322 705zm323 0q-57 0-82-37t-25-117v-44h208v44q0 83-22.5 118.5T645 705z" glyph-name="fff" horiz-adv-x="1009"/><glyph d="M560 35l55-7V0H346v28l55 7q16 2 19 9t3 40v477q0 83-22.5 118.5T322 715q-57 0-82-37t-25-117v-54h150v-35H215V84q0-33 3-40t19-9l55-7V0H23v28l55 7q16 2 19 9t3 40v339q0 33-3 40t-19 9l-55 7v28h77v34q0 97 58 153t164 56q40 0 74-10t60-30q16 7 30 14.5t25 15.5h27V429q26 42 68.5 65t91.5 23q75 0 117.5-48T858 337V84q0-33 3-40t19-9l55-7V0H666v28l55 7q16 2 19 9t3 40v252q0 67-20 99.5T662 468q-39 0-72-27t-52-77V84q0-33 3-40t19-9z" glyph-name="fh" horiz-adv-x="946"/><glyph d="M560 35l55-7V0H346v28l55 7q16 2 19 9t3 40v388H215V84q0-33 3-40t19-9l55-7V0H23v28l55 7q16 2 19 9t3 40v339q0 33-3 40t-19 9l-55 7v28h77v24q0 97 58 153t164 56q46 0 83.5-14.5T470 682q29 34 73 51t102 17q40 0 74-10t60-30q16 7 30 14.5t25 15.5h27V429q26 42 68.5 65t91.5 23q75 0 117.5-48t42.5-132V84q0-33 3-40t19-9l55-7V0H989v28l55 7q16 2 19 9t3 40v252q0 67-20 99.5T985 468q-39 0-72-27t-52-77V84q0-33 3-40t19-9l55-7V0H669v28l55 7q16 2 19 9t3 40v477q0 83-22.5 118.5T645 715q-57 0-82-37t-25-117v-54h150v-35H538V84q0-33 3-40t19-9zM215 551v-44h208v44q0 83-22.5 118.5T322 705q-57 0-82-37t-25-117z" glyph-name="ffh" horiz-adv-x="1269"/><glyph d="M318 715q-54 0-78.5-37T215 561v-54h316V-34q0-89-45-139t-128-50q-62 0-98 31t-44 92l62 19q4-55 20-81t48-26q37 0 53.5 32.5T416-54v526H215V84q0-34 3-40.5t19-8.5l75-7V0H23v28l55 7q16 2 19 9t3 40v339q0 33-3 40t-19 9l-55 7v28h77v34q0 98 56.5 153.5T318 750q98 0 155.5-44.5T520 597l-110-16q10 67-13 100.5T318 715z" glyph-name="fj" horiz-adv-x="616"/><glyph d="M641 715q-54 0-78.5-37T538 561v-54h316V-34q0-89-45-139t-128-50q-62 0-98 31t-44 92l62 19q4-55 20-81t48-26q37 0 53.5 32.5T739-54v526H538V84q0-34 3-40.5t19-8.5l75-7V0H346v28l55 7q16 2 19 9t3 40v388H215V84q0-33 3-40t19-9l55-7V0H23v28l55 7q16 2 19 9t3 40v339q0 33-3 40t-19 9l-55 7v28h77v24q0 97 58 153t164 56q46 0 84-14.5t63-42.5q28 33 71.5 50T641 750q98 0 155.5-44.5T843 597l-110-16q10 67-13 100.5T641 715zM215 551v-44h208v44q0 83-22.5 118.5T322 705q-57 0-82-37t-25-117z" glyph-name="ffj" horiz-adv-x="939"/><glyph d="M560 35l55-7V0H346v28l55 7q16 2 19 9t3 40v506q0 65-24 95t-77 30q-57 0-82-37t-25-117v-54h150v-35H215V84q0-33 3-40t19-9l55-7V0H23v28l55 7q16 2 19 9t3 40v339q0 33-3 40t-19 9l-55 7v28h77v34q0 97 58 153t164 56q40 0 74-10t61-30q15 7 28.5 14.5T511 740h27V255l176 168q33 32 37 39.5t-14 9.5l-55 7v28h205v-28l-55-7q-14-2-23.5-9.5T765 423l-96-92L811 84q18-30 25.5-38T862 35l55-7V0H726L587 253l-49-47V84q0-33 3-40t19-9z" glyph-name="fk" horiz-adv-x="918"/><glyph d="M560 35l55-7V0H346v28l55 7q16 2 19 9t3 40v388H215V84q0-33 3-40t19-9l55-7V0H23v28l55 7q16 2 19 9t3 40v339q0 33-3 40t-19 9l-55 7v28h77v24q0 97 58 153t164 56q46 0 83.5-14.5T470 682q29 34 73 51t102 17q40 0 74-10t61-30q15 7 28.5 14.5T834 740h27V255l176 168q33 32 37 39.5t-14 9.5l-55 7v28h205v-28l-55-7q-14-2-23.5-9.5T1088 423l-96-92 142-247q18-30 25.5-38t25.5-11l55-7V0h-191L910 253l-49-47V84q0-33 3-40t19-9l55-7V0H669v28l55 7q16 2 19 9t3 40v506q0 65-24 95t-77 30q-57 0-82-37t-25-117v-54h150v-35H538V84q0-33 3-40t19-9zM215 551v-44h208v44q0 83-22.5 118.5T322 705q-57 0-82-37t-25-117z" glyph-name="ffk" horiz-adv-x="1241"/><glyph d="M132 35l55-7V0H-6v28l55 7q16 2 20.5 8T85 84l191 596h86L554 84q10-32 15-39.5t21-9.5l55-7V0H369v28l55 7q16 2 17 9.5T432 84l-38 124H163L124 84q-10-32-9-39.5t17-9.5zm148 540L175 243h208zm39 177l-24 21q28 44 41 74.5t21 65.5h126q-34-46-71-83t-93-78z" glyph-name="Aacute" horiz-adv-x="639" unicode="Á"/><glyph d="M132 35l55-7V0H-6v28l55 7q16 2 20.5 8T85 84l191 596h86L554 84q10-32 15-39.5t21-9.5l55-7V0H369v28l55 7q16 2 17 9.5T432 84l-38 124H163L124 84q-10-32-9-39.5t17-9.5zm148 540L175 243h208zm177 199l-14-22q-37 21-70 44.5T316 841q-24-22-55.5-45.5T197 752l-14 22q34 39 51.5 64.5T276 913h88q24-49 41.5-74.5T457 774z" glyph-name="Acircumflex" horiz-adv-x="639" unicode="Â"/><glyph d="M133 35l55-7V0H-5v28l55 7q16 2 20.5 8T86 84l191 596h86L555 84q10-32 15-39.5t21-9.5l55-7V0H370v28l55 7q16 2 17 9.5T433 84l-38 124H164L125 84q-10-32-9-39.5t17-9.5zm148 540L176 243h208zm-9 261q0-28-17.5-45.5T209 773q-28 0-45 17.5T147 836q0 28 17 45t45 17q28 0 45.5-17.5T272 836zm210 0q0-28-17.5-45.5T419 773q-28 0-45 17.5T357 836q0 28 17 45t45 17q28 0 45.5-17.5T482 836z" glyph-name="Adieresis" horiz-adv-x="639" unicode="Ä"/><glyph d="M132 35l55-7V0H-6v28l55 7q16 2 20.5 8T85 84l191 596h86L554 84q10-32 15-39.5t21-9.5l55-7V0H369v28l55 7q16 2 17 9.5T432 84l-38 124H163L124 84q-10-32-9-39.5t17-9.5zm148 540L175 243h208zm65 198l-24-21q-56 41-93 78t-71 83h126q8-35 21-65.5t41-74.5z" glyph-name="Agrave" horiz-adv-x="639" unicode="À"/><glyph d="M132 35l55-7V0H-6v28l55 7q16 2 20.5 8T85 84l185 576q-36 12-58 42t-22 66v11q0 48 34.5 81t88.5 33q53 0 88-33.5t35-80.5v-11q0-33-18.5-61.5T367 664L554 84q10-32 15-39.5t21-9.5l55-7V0H369v28l55 7q16 2 17 9.5T432 84l-38 124H163L124 84q-10-32-9-39.5t17-9.5zm231 726v25q0 40-12.5 60T313 866q-25 0-37-20t-12-60v-25q0-41 12-61t37-20q25 0 37.5 20.5T363 761zm-83-186L175 243h208z" glyph-name="Aring" horiz-adv-x="639" unicode="Å"/><glyph d="M132 35l55-7V0H-6v28l55 7q16 2 20.5 8T85 84l191 596h86L554 84q10-32 15-39.5t21-9.5l55-7V0H369v28l55 7q16 2 17 9.5T432 84l-38 124H163L124 84q-10-32-9-39.5t17-9.5zm148 540L175 243h208zm102 181q-17 0-35 9.5T299 805q-22 21-32 27.5t-19 6.5q-17 0-26.5-18T207 761h-36q8 82 29.5 119.5T260 918q17 0 34-9.5t46-38.5q22-22 33-28.5t20-6.5q16 0 25 17.5t15 60.5h36q-8-82-29-119.5T382 756z" glyph-name="Atilde" horiz-adv-x="639" unicode="Ã"/><glyph d="M132 35l55-7V0H-6v28l55 7q16 2 20.5 8T85 84l191 596h86L554 84q10-32 15-39.5t21-9.5l55-7V0H369v28l55 7q16 2 17 9.5T432 84l-38 124H163L124 84q-10-32-9-39.5t17-9.5zm148 540L175 243h208zm40 259q48 0 75.5 20.5T433 918l33-10q-15-77-51.5-116.5T320 752q-58 0-94.5 39.5T174 908l33 10q10-43 37.5-63.5T320 834z" glyph-name="Abreve" horiz-adv-x="639" unicode="Ă"/><glyph d="M132 35l55-7V0H-6v28l55 7q16 2 20.5 8T85 84l191 596h86L554 84q10-32 15-39.5t21-9.5l55-7V0H369v28l55 7q16 2 17 9.5T432 84l-38 124H163L124 84q-10-32-9-39.5t17-9.5zm148 540L175 243h208zM176 847h287v-55H176z" glyph-name="Amacron" horiz-adv-x="639" unicode="Ā"/><glyph d="M541-112l64-13q-13-48-46.5-73T476-223q-52 0-85 25.5T358-130q0 37 26.5 70.5T458-2l-64 210H163L124 84q-10-32-9-39.5t17-9.5l55-7V0H-6v28l55 7q16 2 20.5 8T85 84l191 596h86L554 84q10-32 15-39.5t21-9.5l55-7V0h-63q-64 0-102.5-36T441-129q0-29 11-44.5t32-15.5q24 0 38 19t19 58zM280 575L175 243h208z" glyph-name="Aogonek" horiz-adv-x="639" unicode="Ą"/><glyph d="M462-140q0-38-32.5-60.5T343-223q-48 0-76 19.5T232-145l55 14q3-31 15-45.5t33-14.5q21 0 32.5 13t11.5 38q0 27-13 40t-39 13q-3 0-7-.5T307-89l-13 26 23 55Q198 3 132 86.5T66 309v63q0 151 69.5 234.5T332 690q106 0 168-60t55-153l-117-29q10 97-20 152t-91 55q-68 0-100.5-57T194 422V259q0-122 38-178t120-56q61 0 94 34t40 103l72-19q-19-75-71-114T356-10l-19-45q58-2 91.5-24.5T462-140z" glyph-name="Ccedilla" horiz-adv-x="597" unicode="Ç"/><glyph d="M352-10q-135 0-210.5 85T66 309v63q0 151 69.5 234.5T332 690q106 0 168-60t55-153l-117-29q10 97-20 152t-91 55q-68 0-100.5-57T194 422V259q0-122 38-178t120-56q61 0 94 34t40 103l72-19q-19-75-72-114T352-10zm-17 762l-24 21q28 44 41 74.5t21 65.5h126q-34-46-71-83t-93-78z" glyph-name="Cacute" horiz-adv-x="597" unicode="Ć"/><glyph d="M352-10q-135 0-210.5 85T66 309v63q0 151 69.5 234.5T332 690q106 0 168-60t55-153l-117-29q10 97-20 152t-91 55q-68 0-100.5-57T194 422V259q0-122 38-178t120-56q61 0 94 34t40 103l72-19q-19-75-72-114T352-10zm107 928l14-22q-34-39-51.5-64.5T380 757h-88q-24 49-41.5 74.5T199 896l14 22q35-20 67.5-43t59.5-46q24 22 55.5 45.5T459 918z" glyph-name="Ccaron" horiz-adv-x="597" unicode="Č"/><glyph d="M352-10q-135 0-210.5 85T66 309v63q0 151 69.5 234.5T332 690q106 0 168-60t55-153l-117-29q10 97-20 152t-91 55q-68 0-100.5-57T194 422V259q0-122 38-178t120-56q61 0 94 34t40 103l72-19q-19-75-72-114T352-10zm121 784l-14-22q-37 21-70 44.5T332 841q-24-22-55.5-45.5T213 752l-14 22q34 39 51.5 64.5T292 913h88q24-49 41.5-74.5T473 774z" glyph-name="Ccircumflex" horiz-adv-x="597" unicode="Ĉ"/><glyph d="M352-10q-135 0-210.5 85T66 309v63q0 151 69.5 234.5T332 690q106 0 168-60t55-153l-117-29q10 97-20 152t-91 55q-68 0-100.5-57T194 422V259q0-122 38-178t120-56q61 0 94 34t40 103l72-19q-19-75-72-114T352-10zm53 846q0-31-19.5-50.5T335 766q-31 0-50 19.5T266 836q0 31 19 50t50 19q31 0 50.5-19.5T405 836z" glyph-name="Cdotaccent" horiz-adv-x="597" unicode="Ċ"/><glyph d="M98 645l-55 7v28h295q132 0 198.5-77.5T603 372v-63q0-154-66.5-231.5T338 0H43v28l55 7q16 2 19 9t3 40v512q0 33-3 40t-19 9zm235 0h-93V35h93q83 0 112.5 49T475 259v163q0 126-29.5 174.5T333 645zm123 273l14-22q-34-39-51.5-64.5T377 757h-88q-24 49-41.5 74.5T196 896l14 22q35-20 67.5-43t59.5-46q24 22 55.5 45.5T456 918z" glyph-name="Dcaron" horiz-adv-x="669" unicode="Ď"/><glyph d="M103 645l-55 7v28h295q132 0 198.5-77.5T608 372v-63q0-154-66.5-231.5T343 0H48v28l55 7q16 2 19 9t3 40v253H48v35h77v224q0 33-3 40t-19 9zm282-273v-35H245V35h93q83 0 112.5 49T480 259v163q0 126-29.5 174.5T338 645h-93V372z" glyph-name="Dcroat" horiz-adv-x="674" unicode="Đ"/><glyph d="M478 61l32 111h28V0H43v28l55 7q16 2 19 9t3 40v512q0 33-3 40t-19 9l-55 7v28h485V508h-28l-32 111q-6 20-14 23t-40 3H240V361h114q33 0 41 3.5t13 22.5l22 81h28V219h-28l-22 81q-5 19-13 22.5t-41 3.5H240V35h184q32 0 40 3t14 23zM331 752l-24 21q28 44 41 74.5t21 65.5h126q-34-46-71-83t-93-78z" glyph-name="Eacute" horiz-adv-x="603" unicode="É"/><glyph d="M478 61l32 111h28V0H43v28l55 7q16 2 19 9t3 40v512q0 33-3 40t-19 9l-55 7v28h485V508h-28l-32 111q-6 20-14 23t-40 3H240V361h114q33 0 41 3.5t13 22.5l22 81h28V219h-28l-22 81q-5 19-13 22.5t-41 3.5H240V35h184q32 0 40 3t14 23zm-9 713l-14-22q-37 21-70 44.5T328 841q-24-22-55.5-45.5T209 752l-14 22q34 39 51.5 64.5T288 913h88q24-49 41.5-74.5T469 774z" glyph-name="Ecircumflex" horiz-adv-x="603" unicode="Ê"/><glyph d="M478 61l32 111h28V0H43v28l55 7q16 2 19 9t3 40v512q0 33-3 40t-19 9l-55 7v28h485V508h-28l-32 111q-6 20-14 23t-40 3H240V361h114q33 0 41 3.5t13 22.5l22 81h28V219h-28l-22 81q-5 19-13 22.5t-41 3.5H240V35h184q32 0 40 3t14 23zM289 836q0-28-17.5-45.5T226 773q-28 0-45 17.5T164 836q0 28 17 45t45 17q28 0 45.5-17.5T289 836zm210 0q0-28-17.5-45.5T436 773q-28 0-45 17.5T374 836q0 28 17 45t45 17q28 0 45.5-17.5T499 836z" glyph-name="Edieresis" horiz-adv-x="603" unicode="Ë"/><glyph d="M478 61l32 111h28V0H43v28l55 7q16 2 19 9t3 40v512q0 33-3 40t-19 9l-55 7v28h485V508h-28l-32 111q-6 20-14 23t-40 3H240V361h114q33 0 41 3.5t13 22.5l22 81h28V219h-28l-22 81q-5 19-13 22.5t-41 3.5H240V35h184q32 0 40 3t14 23zM357 773l-24-21q-56 41-93 78t-71 83h126q8-35 21-65.5t41-74.5z" glyph-name="Egrave" horiz-adv-x="603" unicode="È"/><glyph d="M478 61l32 111h28V0H43v28l55 7q16 2 19 9t3 40v512q0 33-3 40t-19 9l-55 7v28h485V508h-28l-32 111q-6 20-14 23t-40 3H240V361h114q33 0 41 3.5t13 22.5l22 81h28V219h-28l-22 81q-5 19-13 22.5t-41 3.5H240V35h184q32 0 40 3t14 23zM332 834q48 0 75.5 20.5T445 918l33-10q-15-77-51.5-116.5T332 752q-58 0-94.5 39.5T186 908l33 10q10-43 37.5-63.5T332 834z" glyph-name="Ebreve" horiz-adv-x="603" unicode="Ĕ"/><glyph d="M478 61l32 111h28V0H43v28l55 7q16 2 19 9t3 40v512q0 33-3 40t-19 9l-55 7v28h485V508h-28l-32 111q-6 20-14 23t-40 3H240V361h114q33 0 41 3.5t13 22.5l22 81h28V219h-28l-22 81q-5 19-13 22.5t-41 3.5H240V35h184q32 0 40 3t14 23zm-23 857l14-22q-34-39-51.5-64.5T376 757h-88q-24 49-41.5 74.5T195 896l14 22q35-20 67.5-43t59.5-46q24 22 55.5 45.5T455 918z" glyph-name="Ecaron" horiz-adv-x="603" unicode="Ě"/><glyph d="M478 61l32 111h28V0H43v28l55 7q16 2 19 9t3 40v512q0 33-3 40t-19 9l-55 7v28h485V508h-28l-32 111q-6 20-14 23t-40 3H240V361h114q33 0 41 3.5t13 22.5l22 81h28V219h-28l-22 81q-5 19-13 22.5t-41 3.5H240V35h184q32 0 40 3t14 23zm-77 775q0-31-19.5-50.5T331 766q-31 0-50 19.5T262 836q0 31 19 50t50 19q31 0 50.5-19.5T401 836z" glyph-name="Edotaccent" horiz-adv-x="603" unicode="Ė"/><glyph d="M478 61l32 111h28V0H43v28l55 7q16 2 19 9t3 40v512q0 33-3 40t-19 9l-55 7v28h485V508h-28l-32 111q-6 20-14 23t-40 3H240V361h114q33 0 41 3.5t13 22.5l22 81h28V219h-28l-22 81q-5 19-13 22.5t-41 3.5H240V35h184q32 0 40 3t14 23zM188 847h287v-55H188z" glyph-name="Emacron" horiz-adv-x="603" unicode="Ē"/><glyph d="M474-112l64-13q-13-48-46.5-73T409-223q-52 0-85 25.5T291-130q0 39 31.5 74T408 0H43v28l55 7q16 2 19 9t3 40v512q0 33-3 40t-19 9l-55 7v28h485V508h-28l-32 111q-6 20-14 23t-40 3H240V361h114q33 0 41 3.5t13 22.5l22 81h28V219h-28l-22 81q-5 19-13 22.5t-41 3.5H240V35h184q32 0 40 3t14 23l32 111h28V0h-23q-64 0-102.5-36T374-129q0-29 11-44.5t32-15.5q24 0 38 19t19 58z" glyph-name="Eogonek" horiz-adv-x="603" unicode="Ę"/><glyph d="M436 273l-75 7v28h284v-28l-55-7q-16-2-19-9t-3-40V0h-27q-13 14-28 26t-32 21q-33-29-71-43t-83-14q-120 0-190.5 88.5T66 314v63q0 144 72 228.5T335 690q114 0 178.5-60.5T568 477l-117-29q11 97-21 152t-99 55q-69 0-103-60t-34-183V269q0-121 36.5-182.5T339 25q35 0 67 13.5T458 76v148q0 34-3 40.5t-19 8.5zm-95 561q48 0 75.5 20.5T454 918l33-10q-15-77-51.5-116.5T341 752q-58 0-94.5 39.5T195 908l33 10q10-43 37.5-63.5T341 834z" glyph-name="Gbreve" horiz-adv-x="663" unicode="Ğ"/><glyph d="M436 273l-75 7v28h284v-28l-55-7q-16-2-19-9t-3-40V0h-27q-13 14-28 26t-32 21q-33-29-71-43t-83-14q-120 0-190.5 88.5T66 314v63q0 144 72 228.5T335 690q114 0 178.5-60.5T568 477l-117-29q11 97-21 152t-99 55q-69 0-103-60t-34-183V269q0-121 36.5-182.5T339 25q35 0 67 13.5T458 76v148q0 34-3 40.5t-19 8.5zm41 501l-14-22q-37 21-70 44.5T336 841q-24-22-55.5-45.5T217 752l-14 22q34 39 51.5 64.5T296 913h88q24-49 41.5-74.5T477 774z" glyph-name="Gcircumflex" horiz-adv-x="663" unicode="Ĝ"/><glyph d="M436 273l-75 7v28h284v-28l-55-7q-16-2-19-9t-3-40V0h-27q-13 14-28 26t-32 21q-33-29-71-43t-83-14q-120 0-190.5 88.5T66 314v63q0 144 72 228.5T335 690q114 0 178.5-60.5T568 477l-117-29q11 97-21 152t-99 55q-69 0-103-60t-34-183V269q0-121 36.5-182.5T339 25q35 0 67 13.5T458 76v148q0 34-3 40.5t-19 8.5zM262-248l-19 18q17 36 27.5 72T286-77h113q-24-48-58-90.5T262-248z" glyph-name="Gcommaaccent" horiz-adv-x="663" unicode="Ģ"/><glyph d="M436 273l-75 7v28h284v-28l-55-7q-16-2-19-9t-3-40V0h-27q-13 14-28 26t-32 21q-33-29-71-43t-83-14q-120 0-190.5 88.5T66 314v63q0 144 72 228.5T335 690q114 0 178.5-60.5T568 477l-117-29q11 97-21 152t-99 55q-69 0-103-60t-34-183V269q0-121 36.5-182.5T339 25q35 0 67 13.5T458 76v148q0 34-3 40.5t-19 8.5zm-26 563q0-31-19.5-50.5T340 766q-31 0-50 19.5T271 836q0 31 19 50t50 19q31 0 50.5-19.5T410 836z" glyph-name="Gdotaccent" horiz-adv-x="663" unicode="Ġ"/><glyph d="M267 35l55-7V0H48v28l55 7q16 2 19 9t3 40v409H48v33h77v70q0 33-3 40t-19 9l-55 7v28h274v-28l-55-7q-16-2-19-9t-3-40v-70h263v70q0 33-3 40t-19 9l-55 7v28h274v-28l-55-7q-16-2-19-9t-3-40v-70h77v-33h-77V84q0-33 3-40t19-9l55-7V0H431v28l55 7q16 2 19 9t3 40v242H245V84q0-33 3-40t19-9zm-22 458V361h263v132z" glyph-name="Hbar" horiz-adv-x="753" unicode="Ħ"/><glyph d="M645 35l55-7V0H426v28l55 7q16 2 19 9t3 40v242H240V84q0-33 3-40t19-9l55-7V0H43v28l55 7q16 2 19 9t3 40v512q0 33-3 40t-19 9l-55 7v28h274v-28l-55-7q-16-2-19-9t-3-40V361h263v235q0 33-3 40t-19 9l-55 7v28h274v-28l-55-7q-16-2-19-9t-3-40V84q0-33 3-40t19-9zM509 774l-14-22q-37 21-70 44.5T368 841q-24-22-55.5-45.5T249 752l-14 22q34 39 51.5 64.5T328 913h88q24-49 41.5-74.5T509 774z" glyph-name="Hcircumflex" horiz-adv-x="743" unicode="Ĥ"/><glyph d="M98 645l-55 7v28h274v-28l-55-7q-16-2-19-9t-3-40V84q0-33 3-40t19-9l55-7V0H43v28l55 7q16 2 19 9t3 40v512q0 33-3 40t-19 9zm81 107l-24 21q28 44 41 74.5t21 65.5h126q-34-46-71-83t-93-78z" glyph-name="Iacute" horiz-adv-x="360" unicode="Í"/><glyph d="M98 645l-55 7v28h274v-28l-55-7q-16-2-19-9t-3-40V84q0-33 3-40t19-9l55-7V0H43v28l55 7q16 2 19 9t3 40v512q0 33-3 40t-19 9zm219 129l-14-22q-37 21-70 44.5T176 841q-24-22-55.5-45.5T57 752l-14 22q34 39 51.5 64.5T136 913h88q24-49 41.5-74.5T317 774z" glyph-name="Icircumflex" horiz-adv-x="360" unicode="Î"/><glyph d="M98 645l-55 7v28h274v-28l-55-7q-16-2-19-9t-3-40V84q0-33 3-40t19-9l55-7V0H43v28l55 7q16 2 19 9t3 40v512q0 33-3 40t-19 9zm40 191q0-28-17.5-45.5T75 773q-28 0-45 17.5T13 836q0 28 17 45t45 17q28 0 45.5-17.5T138 836zm210 0q0-28-17.5-45.5T285 773q-28 0-45 17.5T223 836q0 28 17 45t45 17q28 0 45.5-17.5T348 836z" glyph-name="Idieresis" horiz-adv-x="360" unicode="Ï"/><glyph d="M98 645l-55 7v28h274v-28l-55-7q-16-2-19-9t-3-40V84q0-33 3-40t19-9l55-7V0H43v28l55 7q16 2 19 9t3 40v512q0 33-3 40t-19 9zm107 128l-24-21q-56 41-93 78t-71 83h126q8-35 21-65.5t41-74.5z" glyph-name="Igrave" horiz-adv-x="360" unicode="Ì"/><glyph d="M98 645l-55 7v28h274v-28l-55-7q-16-2-19-9t-3-40V84q0-33 3-40t19-9l55-7V0H43v28l55 7q16 2 19 9t3 40v512q0 33-3 40t-19 9zm82 189q48 0 75.5 20.5T293 918l33-10q-15-77-51.5-116.5T180 752q-58 0-94.5 39.5T34 908l33 10q10-43 37.5-63.5T180 834z" glyph-name="Ibreve" horiz-adv-x="360" unicode="Ĭ"/><glyph d="M98 645l-55 7v28h274v-28l-55-7q-16-2-19-9t-3-40V84q0-33 3-40t19-9l55-7V0H43v28l55 7q16 2 19 9t3 40v512q0 33-3 40t-19 9zm152 191q0-31-19.5-50.5T180 766q-31 0-50 19.5T111 836q0 31 19 50t50 19q31 0 50.5-19.5T250 836z" glyph-name="Idotaccent" horiz-adv-x="360" unicode="İ"/><glyph d="M98 645l-55 7v28h274v-28l-55-7q-16-2-19-9t-3-40V84q0-33 3-40t19-9l55-7V0H43v28l55 7q16 2 19 9t3 40v512q0 33-3 40t-19 9zM37 847h287v-55H37z" glyph-name="Imacron" horiz-adv-x="360" unicode="Ī"/><glyph d="M95 645l-55 7v28h274v-28l-55-7q-16-2-19-9t-3-40V84q0-33 3-40t19-9l55-7V0h-61q-64 0-102.5-36T112-129q0-29 11-44.5t32-15.5q24 0 38 19t19 58l64-13q-13-48-46.5-73T147-223q-52 0-85 25.5T29-130q0 34 23 66t65 55v605q0 33-3 40t-19 9z" glyph-name="Iogonek" horiz-adv-x="357" unicode="Į"/><glyph d="M98 645l-55 7v28h274v-28l-55-7q-16-2-19-9t-3-40V84q0-33 3-40t19-9l55-7V0H43v28l55 7q16 2 19 9t3 40v512q0 33-3 40t-19 9zm144 111q-17 0-35 9.5T159 805q-22 21-32 27.5t-19 6.5q-17 0-26.5-18T67 761H31q8 82 29.5 119.5T120 918q17 0 34-9.5t46-38.5q22-22 33-28.5t20-6.5q16 0 25 17.5t15 60.5h36q-8-82-29-119.5T242 756z" glyph-name="Itilde" horiz-adv-x="360" unicode="Ĩ"/><glyph d="M227 645l-55 7v28h274v-28l-55-7q-16-2-19-9t-3-40V194q0-99-50-151.5T173-10q-73 0-115 38T6 142l69 20q3-69 25.5-103T167 25q43 0 62.5 36.5T249 174v422q0 33-3 40t-19 9zm219 129l-14-22q-37 21-70 44.5T305 841q-24-22-55.5-45.5T186 752l-14 22q34 39 51.5 64.5T265 913h88q24-49 41.5-74.5T446 774z" glyph-name="Jcircumflex" horiz-adv-x="476" unicode="Ĵ"/><glyph d="M98 645l-55 7v28h274v-28l-55-7q-16-2-19-9t-3-40V84q0-33 3-40t19-9l55-7V0H43v28l55 7q16 2 19 9t3 40v512q0 33-3 40t-19 9zm489 0l-55 7v28h274v-28l-55-7q-16-2-19-9t-3-40V194q0-99-50-151.5T533-10q-73 0-115 38t-52 114l69 20q3-69 25.5-103T527 25q43 0 62.5 36.5T609 174v422q0 33-3 40t-19 9z" glyph-name="IJ" horiz-adv-x="836" unicode="Ĳ"/><glyph d="M98 645l-55 7v28h274v-28l-55-7q-16-2-19-9t-3-40V327l237 269q26 30 29.5 38.5T493 645l-55 7v28h203v-28l-55-7q-14-2-21-7.5T526 596L386 438 559 84q15-31 23-38.5T612 35l45-7V0H467L305 346l-65-74V84q0-33 3-40t19-9l55-7V0H43v28l55 7q16 2 19 9t3 40v512q0 33-3 40t-19 9zm174-893l-19 18q17 36 27.5 72T296-77h113q-24-48-58-90.5T272-248z" glyph-name="Kcommaaccent" horiz-adv-x="656" unicode="Ķ"/><glyph d="M735 685l24-21q-10-33-21-88.5T722 474H609q26 61 61.5 120.5T735 685zM98 645l-55 7v28h274v-28l-55-7q-16-2-19-9t-3-40V327l237 269q26 30 29.5 38.5T493 645l-55 7v28h203v-28l-55-7q-14-2-21-7.5T526 596L386 438 559 84q15-31 23-38.5T612 35l45-7V0H467L305 346l-65-74V84q0-33 3-40t19-9l55-7V0H43v28l55 7q16 2 19 9t3 40v512q0 33-3 40t-19 9z" glyph-name="kgreenlandic.case" horiz-adv-x="766"/><glyph d="M458 61l32 111h28V0H43v28l55 7q16 2 19 9t3 40v512q0 33-3 40t-19 9l-55 7v28h274v-28l-55-7q-16-2-19-9t-3-40V35h164q32 0 40 3t14 23zM184 752l-24 21q28 44 41 74.5t21 65.5h126q-34-46-71-83t-93-78z" glyph-name="Lacute" horiz-adv-x="532" unicode="Ĺ"/><glyph d="M458 61l32 111h28V0H43v28l55 7q16 2 19 9t3 40v512q0 33-3 40t-19 9l-55 7v28h274v-28l-55-7q-16-2-19-9t-3-40V35h164q32 0 40 3t14 23zm-66 405h-24v214h109q-19-60-39-109.5T392 466z" glyph-name="Lcaron" horiz-adv-x="532" unicode="Ľ"/><glyph d="M458 61l32 111h28V0H43v28l55 7q16 2 19 9t3 40v512q0 33-3 40t-19 9l-55 7v28h274v-28l-55-7q-16-2-19-9t-3-40V35h164q32 0 40 3t14 23zM214-248l-19 18q17 36 27.5 72T238-77h113q-24-48-58-90.5T214-248z" glyph-name="Lcommaaccent" horiz-adv-x="532" unicode="Ļ"/><glyph d="M458 61l32 111h28V0H43v28l55 7q16 2 19 9t3 40v512q0 33-3 40t-19 9l-55 7v28h274v-28l-55-7q-16-2-19-9t-3-40V35h164q32 0 40 3t14 23zm57 324q0-31-19.5-50.5T445 315q-31 0-50 19.5T376 385q0 31 19 50t50 19q31 0 50.5-19.5T515 385z" glyph-name="Ldot" horiz-adv-x="532" unicode="Ŀ"/><glyph d="M520 645l-55 7v28h194v-28l-55-7q-16-2-19-9t-3-40V0h-55L160 593V84q0-33 3-40t19-9l55-7V0H43v28l55 7q16 2 19 9t3 40v512q0 33-3 40t-19 9l-55 7v28h201l298-479v395q0 33-3 40t-19 9zm-98 111q-17 0-35 9.5T339 805q-22 21-32 27.5t-19 6.5q-17 0-26.5-18T247 761h-36q8 82 29.5 119.5T300 918q17 0 34-9.5t46-38.5q22-22 33-28.5t20-6.5q16 0 25 17.5t15 60.5h36q-8-82-29-119.5T422 756z" glyph-name="Ntilde" horiz-adv-x="687" unicode="Ñ"/><glyph d="M520 645l-55 7v28h194v-28l-55-7q-16-2-19-9t-3-40V0h-55L160 593V84q0-33 3-40t19-9l55-7V0H43v28l55 7q16 2 19 9t3 40v512q0 33-3 40t-19 9l-55 7v28h201l298-479v395q0 33-3 40t-19 9zM359 752l-24 21q28 44 41 74.5t21 65.5h126q-34-46-71-83t-93-78z" glyph-name="Nacute" horiz-adv-x="687" unicode="Ń"/><glyph d="M520 645l-55 7v28h194v-28l-55-7q-16-2-19-9t-3-40V0h-55L160 593V84q0-33 3-40t19-9l55-7V0H43v28l55 7q16 2 19 9t3 40v512q0 33-3 40t-19 9l-55 7v28h201l298-479v395q0 33-3 40t-19 9zm-37 273l14-22q-34-39-51.5-64.5T404 757h-88q-24 49-41.5 74.5T223 896l14 22q35-20 67.5-43t59.5-46q24 22 55.5 45.5T483 918z" glyph-name="Ncaron" horiz-adv-x="687" unicode="Ň"/><glyph d="M520 645l-55 7v28h194v-28l-55-7q-16-2-19-9t-3-40V0h-55L160 593V84q0-33 3-40t19-9l55-7V0H43v28l55 7q16 2 19 9t3 40v512q0 33-3 40t-19 9l-55 7v28h201l298-479v395q0 33-3 40t-19 9zM272-248l-19 18q17 36 27.5 72T296-77h113q-24-48-58-90.5T272-248z" glyph-name="Ncommaaccent" horiz-adv-x="687" unicode="Ņ"/><glyph d="M659 652l-55-7q-16-2-19-9t-3-40V-19q0-94-48.5-149T397-223q-67 0-107.5 38.5T239-71l69 20q3-69 24-103t61-34q36 0 55 37.5T467-39V97L160 593V84q0-33 3-40t19-9l55-7V0H43v28l55 7q16 2 19 9t3 40v512q0 33-3 40t-19 9l-55 7v28h201l298-479v395q0 33-3 40t-19 9l-55 7v28h194z" glyph-name="Eng" horiz-adv-x="687" unicode="Ŋ"/><glyph d="M664 645l-55 7v28h194v-28l-55-7q-16-2-19-9t-3-40V0h-55L304 593V84q0-33 3-40t19-9l55-7V0H187v28l55 7q16 2 19 9t3 40v512q0 33-3 40t-19 9l-55 7v28h201l298-479v395q0 33-3 40t-19 9zM70 690q30 0 48-21.5t18-57.5q0-41-27-95T34 407l-23 20q30 36 45 68t17 64h-3q-29 0-47 18T5 625q0 29 18 47t47 18z" glyph-name="napostrophe.case" horiz-adv-x="831"/><glyph d="M337 690q132 0 201.5-81.5T608 372v-63q0-155-69.5-237T337-10q-132 0-201.5 81.5T66 309v63q0 156 69 237t202 81zm143-431v163q0 125-32.5 179T337 655q-78 0-110.5-54T194 422V259q0-125 33-179.5T337 25q77 0 110 54.5T480 259zM341 752l-24 21q28 44 41 74.5t21 65.5h126q-34-46-71-83t-93-78z" glyph-name="Oacute" horiz-adv-x="674" unicode="Ó"/><glyph d="M337 690q132 0 201.5-81.5T608 372v-63q0-155-69.5-237T337-10q-132 0-201.5 81.5T66 309v63q0 156 69 237t202 81zm143-431v163q0 125-32.5 179T337 655q-78 0-110.5-54T194 422V259q0-125 33-179.5T337 25q77 0 110 54.5T480 259zm-1 515l-14-22q-37 21-70 44.5T338 841q-24-22-55.5-45.5T219 752l-14 22q34 39 51.5 64.5T298 913h88q24-49 41.5-74.5T479 774z" glyph-name="Ocircumflex" horiz-adv-x="674" unicode="Ô"/><glyph d="M337 690q132 0 201.5-81.5T608 372v-63q0-155-69.5-237T337-10q-132 0-201.5 81.5T66 309v63q0 156 69 237t202 81zm143-431v163q0 125-32.5 179T337 655q-78 0-110.5-54T194 422V259q0-125 33-179.5T337 25q77 0 110 54.5T480 259zM300 836q0-28-17.5-45.5T237 773q-28 0-45 17.5T175 836q0 28 17 45t45 17q28 0 45.5-17.5T300 836zm210 0q0-28-17.5-45.5T447 773q-28 0-45 17.5T385 836q0 28 17 45t45 17q28 0 45.5-17.5T510 836z" glyph-name="Odieresis" horiz-adv-x="674" unicode="Ö"/><glyph d="M337 690q132 0 201.5-81.5T608 372v-63q0-155-69.5-237T337-10q-132 0-201.5 81.5T66 309v63q0 156 69 237t202 81zm143-431v163q0 125-32.5 179T337 655q-78 0-110.5-54T194 422V259q0-125 33-179.5T337 25q77 0 110 54.5T480 259zM367 773l-24-21q-56 41-93 78t-71 83h126q8-35 21-65.5t41-74.5z" glyph-name="Ograve" horiz-adv-x="674" unicode="Ò"/><glyph d="M337 690q132 0 201.5-81.5T608 372v-63q0-155-69.5-237T337-10q-132 0-201.5 81.5T66 309v63q0 156 69 237t202 81zm143-431v163q0 125-32.5 179T337 655q-78 0-110.5-54T194 422V259q0-125 33-179.5T337 25q77 0 110 54.5T480 259zm-76 497q-17 0-35 9.5T321 805q-22 21-32 27.5t-19 6.5q-17 0-26.5-18T229 761h-36q8 82 29.5 119.5T282 918q17 0 34-9.5t46-38.5q22-22 33-28.5t20-6.5q16 0 25 17.5t15 60.5h36q-8-82-29-119.5T404 756z" glyph-name="Otilde" horiz-adv-x="674" unicode="Õ"/><glyph d="M337 690q132 0 201.5-81.5T608 372v-63q0-155-69.5-237T337-10q-132 0-201.5 81.5T66 309v63q0 156 69 237t202 81zm143-431v163q0 125-32.5 179T337 655q-78 0-110.5-54T194 422V259q0-125 33-179.5T337 25q77 0 110 54.5T480 259zM342 834q48 0 75.5 20.5T455 918l33-10q-15-77-51.5-116.5T342 752q-58 0-94.5 39.5T196 908l33 10q10-43 37.5-63.5T342 834z" glyph-name="Obreve" horiz-adv-x="674" unicode="Ŏ"/><glyph d="M337 690q132 0 201.5-81.5T608 372v-63q0-155-69.5-237T337-10q-132 0-201.5 81.5T66 309v63q0 156 69 237t202 81zm143-431v163q0 125-32.5 179T337 655q-78 0-110.5-54T194 422V259q0-125 33-179.5T337 25q77 0 110 54.5T480 259zM262 752l-27 24q20 30 32 61.5t22 75.5h111q-28-45-61-83.5T262 752zm140 0l-27 24q20 30 32 61.5t22 75.5h111q-28-45-61-83.5T402 752z" glyph-name="Ohungarumlaut" horiz-adv-x="674" unicode="Ő"/><glyph d="M337 690q132 0 201.5-81.5T608 372v-63q0-155-69.5-237T337-10q-132 0-201.5 81.5T66 309v63q0 156 69 237t202 81zm143-431v163q0 125-32.5 179T337 655q-78 0-110.5-54T194 422V259q0-125 33-179.5T337 25q77 0 110 54.5T480 259zM199 847h287v-55H199z" glyph-name="Omacron" horiz-adv-x="674" unicode="Ō"/><glyph d="M98 645l-55 7v28h302q103 0 161-46t58-127v-23q0-60-33-102t-95-60L561 84q19-35 24.5-41t20.5-8l45-7V0H464L313 310h-73V84q0-33 3-40t19-9l55-7V0H43v28l55 7q16 2 19 9t3 40v512q0 33-3 40t-19 9zm247 0H240V345h105q49 0 70 30.5t21 98.5v43q0 67-21 97.5T345 645zm-24 107l-24 21q28 44 41 74.5t21 65.5h126q-34-46-71-83t-93-78z" glyph-name="Racute" horiz-adv-x="651" unicode="Ŕ"/><glyph d="M98 645l-55 7v28h302q103 0 161-46t58-127v-23q0-60-33-102t-95-60L561 84q19-35 24.5-41t20.5-8l45-7V0H464L313 310h-73V84q0-33 3-40t19-9l55-7V0H43v28l55 7q16 2 19 9t3 40v512q0 33-3 40t-19 9zm247 0H240V345h105q49 0 70 30.5t21 98.5v43q0 67-21 97.5T345 645zm100 273l14-22q-34-39-51.5-64.5T366 757h-88q-24 49-41.5 74.5T185 896l14 22q35-20 67.5-43t59.5-46q24 22 55.5 45.5T445 918z" glyph-name="Rcaron" horiz-adv-x="651" unicode="Ř"/><glyph d="M98 645l-55 7v28h302q103 0 161-46t58-127v-23q0-60-33-102t-95-60L561 84q19-35 24.5-41t20.5-8l45-7V0H464L313 310h-73V84q0-33 3-40t19-9l55-7V0H43v28l55 7q16 2 19 9t3 40v512q0 33-3 40t-19 9zm247 0H240V345h105q49 0 70 30.5t21 98.5v43q0 67-21 97.5T345 645zm-75-893l-19 18q17 36 27.5 72T294-77h113q-24-48-58-90.5T270-248z" glyph-name="Rcommaaccent" horiz-adv-x="651" unicode="Ŗ"/><glyph d="M275 25q65 0 102 31t37 87q0 48-28.5 77T293 268l-93 28q-70 21-107.5 73T55 497q0 87 58.5 140T273 690q111 0 169-58.5T484 483l-115-21q16 92-13 142.5T260 655q-52 0-82-31t-30-85q0-50 28.5-84t85.5-51l93-28q79-24 115.5-69.5T507 186q0-90-61.5-143T276-10q-101 0-161 44.5T44 164l67 24q6-82 47-122.5T275 25zm124 893l14-22q-34-39-51.5-64.5T320 757h-88q-24 49-41.5 74.5T139 896l14 22q35-20 67.5-43t59.5-46q24 22 55.5 45.5T399 918z" glyph-name="Scaron" horiz-adv-x="562" unicode="Š"/><glyph d="M275 25q65 0 102 31t37 87q0 48-28.5 77T293 268l-93 28q-70 21-107.5 73T55 497q0 87 58.5 140T273 690q111 0 169-58.5T484 483l-115-21q16 92-13 142.5T260 655q-52 0-82-31t-30-85q0-50 28.5-84t85.5-51l93-28q79-24 115.5-69.5T507 186q0-90-61.5-143T276-10q-101 0-161 44.5T44 164l67 24q6-82 47-122.5T275 25zm0 727l-24 21q28 44 41 74.5t21 65.5h126q-34-46-71-83t-93-78z" glyph-name="Sacute" horiz-adv-x="562" unicode="Ś"/><glyph d="M372-140q0-38-32.5-60.5T253-223q-48 0-76 19.5T142-145l55 14q3-31 15-45.5t33-14.5q21 0 32.5 13t11.5 38q0 27-13 40t-39 13q-3 0-7-.5T217-89l-13 26 23 56Q147 3 100 46.5T44 164l67 24q6-82 47-122.5T275 25q65 0 102 31t37 87q0 48-28.5 77T293 268l-93 28q-70 21-107.5 73T55 497q0 87 58.5 140T273 690q111 0 169-58.5T484 483l-115-21q16 92-13 142.5T260 655q-52 0-82-31t-30-85q0-50 28.5-84t85.5-51l93-28q79-24 115.5-69.5T507 186q0-90-61.5-143T276-10h-10l-19-45q58-2 91.5-24.5T372-140z" glyph-name="Scedilla" horiz-adv-x="562" unicode="Ş"/><glyph d="M275 25q65 0 102 31t37 87q0 48-28.5 77T293 268l-93 28q-70 21-107.5 73T55 497q0 87 58.5 140T273 690q111 0 169-58.5T484 483l-115-21q16 92-13 142.5T260 655q-52 0-82-31t-30-85q0-50 28.5-84t85.5-51l93-28q79-24 115.5-69.5T507 186q0-90-61.5-143T276-10q-101 0-161 44.5T44 164l67 24q6-82 47-122.5T275 25zm138 749l-14-22q-37 21-70 44.5T272 841q-24-22-55.5-45.5T153 752l-14 22q34 39 51.5 64.5T232 913h88q24-49 41.5-74.5T413 774z" glyph-name="Scircumflex" horiz-adv-x="562" unicode="Ŝ"/><glyph d="M275 25q65 0 102 31t37 87q0 48-28.5 77T293 268l-93 28q-70 21-107.5 73T55 497q0 87 58.5 140T273 690q111 0 169-58.5T484 483l-115-21q16 92-13 142.5T260 655q-52 0-82-31t-30-85q0-50 28.5-84t85.5-51l93-28q79-24 115.5-69.5T507 186q0-90-61.5-143T276-10q-101 0-161 44.5T44 164l67 24q6-82 47-122.5T275 25zm-79-273l-19 18q17 36 27.5 72T220-77h113q-24-48-58-90.5T196-248z" glyph-name="uni0218" horiz-adv-x="562" unicode="Ș"/><glyph d="M369 35l55-7V0H150v28l55 7q16 2 19 9t3 40v238H86v35h141v288H126q-18 0-24.5-.5T91 644q-8-1-11.5-5T72 619L40 508H12v172h550V508h-28l-32 111q-4 16-7.5 20t-11.5 5q-4 0-10.5.5t-24.5.5H347V357h141v-35H347V84q0-33 3-40t19-9z" glyph-name="Tbar" horiz-adv-x="574" unicode="Ŧ"/><glyph d="M12 508v172h550V508h-28l-32 111q-4 16-7.5 20t-11.5 5q-4 0-10.5.5t-24.5.5H347V84q0-33 3-40t19-9l55-7V0H150v28l55 7q16 2 19 9t3 40v561H126q-18 0-24.5-.5T91 644q-8-1-11.5-5T72 619L40 508zm398 410l14-22q-34-39-51.5-64.5T331 757h-88q-24 49-41.5 74.5T150 896l14 22q35-20 67.5-43t59.5-46q24 22 55.5 45.5T410 918z" glyph-name="Tcaron" horiz-adv-x="574" unicode="Ť"/><glyph d="M12 508v172h550V508h-28l-32 111q-4 16-7.5 20t-11.5 5q-4 0-10.5.5t-24.5.5H347V84q0-33 3-40t19-9l55-7V0H150v28l55 7q16 2 19 9t3 40v561H126q-18 0-24.5-.5T91 644q-8-1-11.5-5T72 619L40 508zm195-756l-19 18q17 36 27.5 72T231-77h113q-24-48-58-90.5T207-248z" glyph-name="uni0162" horiz-adv-x="574" unicode="Ţ"/><glyph d="M12 508v172h550V508h-28l-32 111q-4 16-7.5 20t-11.5 5q-4 0-10.5.5t-24.5.5H347V84q0-33 3-40t19-9l55-7V0H150v28l55 7q16 2 19 9t3 40v561H126q-18 0-24.5-.5T91 644q-8-1-11.5-5T72 619L40 508zm195-756l-19 18q17 36 27.5 72T231-77h113q-24-48-58-90.5T207-248z" glyph-name="uni021A" horiz-adv-x="574" unicode="Ț"/><glyph d="M516 645l-55 7v28h194v-28l-55-7q-16-2-19-9t-3-40V231q0-121-51-181T373-10q-126 0-197.5 68T104 246v350q0 33-3 40t-19 9l-55 7v28h274v-28l-55-7q-16-2-19-9t-3-40V239q0-107 39-159.5T382 27q78 0 117 50.5T538 229v367q0 33-3 40t-19 9zM381 752l-24 21q28 44 41 74.5t21 65.5h126q-34-46-71-83t-93-78z" glyph-name="Uacute" horiz-adv-x="684" unicode="Ú"/><glyph d="M516 645l-55 7v28h194v-28l-55-7q-16-2-19-9t-3-40V231q0-121-51-181T373-10q-126 0-197.5 68T104 246v350q0 33-3 40t-19 9l-55 7v28h274v-28l-55-7q-16-2-19-9t-3-40V239q0-107 39-159.5T382 27q78 0 117 50.5T538 229v367q0 33-3 40t-19 9zm3 129l-14-22q-37 21-70 44.5T378 841q-24-22-55.5-45.5T259 752l-14 22q34 39 51.5 64.5T338 913h88q24-49 41.5-74.5T519 774z" glyph-name="Ucircumflex" horiz-adv-x="684" unicode="Û"/><glyph d="M516 645l-55 7v28h194v-28l-55-7q-16-2-19-9t-3-40V231q0-121-51-181T373-10q-126 0-197.5 68T104 246v350q0 33-3 40t-19 9l-55 7v28h274v-28l-55-7q-16-2-19-9t-3-40V239q0-107 39-159.5T382 27q78 0 117 50.5T538 229v367q0 33-3 40t-19 9zM340 836q0-28-17.5-45.5T277 773q-28 0-45 17.5T215 836q0 28 17 45t45 17q28 0 45.5-17.5T340 836zm210 0q0-28-17.5-45.5T487 773q-28 0-45 17.5T425 836q0 28 17 45t45 17q28 0 45.5-17.5T550 836z" glyph-name="Udieresis" horiz-adv-x="684" unicode="Ü"/><glyph d="M516 645l-55 7v28h194v-28l-55-7q-16-2-19-9t-3-40V231q0-121-51-181T373-10q-126 0-197.5 68T104 246v350q0 33-3 40t-19 9l-55 7v28h274v-28l-55-7q-16-2-19-9t-3-40V239q0-107 39-159.5T382 27q78 0 117 50.5T538 229v367q0 33-3 40t-19 9zM407 773l-24-21q-56 41-93 78t-71 83h126q8-35 21-65.5t41-74.5z" glyph-name="Ugrave" horiz-adv-x="684" unicode="Ù"/><glyph d="M516 645l-55 7v28h194v-28l-55-7q-16-2-19-9t-3-40V231q0-121-51-181T373-10q-126 0-197.5 68T104 246v350q0 33-3 40t-19 9l-55 7v28h274v-28l-55-7q-16-2-19-9t-3-40V239q0-107 39-159.5T382 27q78 0 117 50.5T538 229v367q0 33-3 40t-19 9zM382 834q48 0 75.5 20.5T495 918l33-10q-15-77-51.5-116.5T382 752q-58 0-94.5 39.5T236 908l33 10q10-43 37.5-63.5T382 834z" glyph-name="Ubreve" horiz-adv-x="684" unicode="Ŭ"/><glyph d="M516 645l-55 7v28h194v-28l-55-7q-16-2-19-9t-3-40V231q0-121-51-181T373-10q-126 0-197.5 68T104 246v350q0 33-3 40t-19 9l-55 7v28h274v-28l-55-7q-16-2-19-9t-3-40V239q0-107 39-159.5T382 27q78 0 117 50.5T538 229v367q0 33-3 40t-19 9zM302 752l-27 24q20 30 32 61.5t22 75.5h111q-28-45-61-83.5T302 752zm140 0l-27 24q20 30 32 61.5t22 75.5h111q-28-45-61-83.5T442 752z" glyph-name="Uhungarumlaut" horiz-adv-x="684" unicode="Ű"/><glyph d="M516 645l-55 7v28h194v-28l-55-7q-16-2-19-9t-3-40V231q0-121-51-181T373-10q-126 0-197.5 68T104 246v350q0 33-3 40t-19 9l-55 7v28h274v-28l-55-7q-16-2-19-9t-3-40V239q0-107 39-159.5T382 27q78 0 117 50.5T538 229v367q0 33-3 40t-19 9zM239 847h287v-55H239z" glyph-name="Umacron" horiz-adv-x="684" unicode="Ū"/><glyph d="M516 645l-55 7v28h194v-28l-55-7q-16-2-19-9t-3-40V231q0-67-14-112t-49-82q-15-16-42-38.5T437-33q-23-21-32.5-43t-9.5-49q0-32 11-48t33-16q23 0 37 19t19 58l64-13q-13-48-46.5-73T430-223q-53 0-85.5 26T312-129q0 32 20 58t83 64q-10-2-20.5-2.5T373-10q-126 0-197.5 68T104 246v350q0 33-3 40t-19 9l-55 7v28h274v-28l-55-7q-16-2-19-9t-3-40V239q0-107 39-159.5T382 27q78 0 117 50.5T538 229v367q0 33-3 40t-19 9z" glyph-name="Uogonek" horiz-adv-x="684" unicode="Ų"/><glyph d="M516 645l-55 7v28h194v-28l-55-7q-16-2-19-9t-3-40V231q0-121-51-181T373-10q-126 0-197.5 68T104 246v350q0 33-3 40t-19 9l-55 7v28h274v-28l-55-7q-16-2-19-9t-3-40V239q0-107 39-159.5T382 27q78 0 117 50.5T538 229v367q0 33-3 40t-19 9zM382 976q53 0 88-33.5t35-80.5v-11q0-47-35-81t-88-34q-53 0-88 33.5T259 851v11q0 48 34.5 81t88.5 33zm50-132v25q0 40-12.5 60T382 949q-25 0-37-20t-12-60v-25q0-41 12-61t37-20q25 0 37.5 20.5T432 844z" glyph-name="Uring" horiz-adv-x="684" unicode="Ů"/><glyph d="M516 645l-55 7v28h194v-28l-55-7q-16-2-19-9t-3-40V231q0-121-51-181T373-10q-126 0-197.5 68T104 246v350q0 33-3 40t-19 9l-55 7v28h274v-28l-55-7q-16-2-19-9t-3-40V239q0-107 39-159.5T382 27q78 0 117 50.5T538 229v367q0 33-3 40t-19 9zm-72 111q-17 0-35 9.5T361 805q-22 21-32 27.5t-19 6.5q-17 0-26.5-18T269 761h-36q8 82 29.5 119.5T322 918q17 0 34-9.5t46-38.5q22-22 33-28.5t20-6.5q16 0 25 17.5t15 60.5h36q-8-82-29-119.5T444 756z" glyph-name="Utilde" horiz-adv-x="684" unicode="Ũ"/><glyph d="M716 0h-88L464 546 309 0h-87L83 596q-7 33-11.5 40T50 645l-55 7v28h277v-28l-55-7q-14-2-16-5.5t-1-12.5q0-4 1.5-9.5T206 596l104-466 153 550h83l163-540 106 456q7 31 6 39t-17 10l-55 7v28h194v-28l-55-7q-17-2-21.5-9T855 596zM496 752l-24 21q28 44 41 74.5t21 65.5h126q-34-46-71-83t-93-78z" glyph-name="Wacute" horiz-adv-x="938" unicode="Ẃ"/><glyph d="M716 0h-88L464 546 309 0h-87L83 596q-7 33-11.5 40T50 645l-55 7v28h277v-28l-55-7q-14-2-16-5.5t-1-12.5q0-4 1.5-9.5T206 596l104-466 153 550h83l163-540 106 456q7 31 6 39t-17 10l-55 7v28h194v-28l-55-7q-17-2-21.5-9T855 596zm-82 774l-14-22q-37 21-70 44.5T493 841q-24-22-55.5-45.5T374 752l-14 22q34 39 51.5 64.5T453 913h88q24-49 41.5-74.5T634 774z" glyph-name="Wcircumflex" horiz-adv-x="938" unicode="Ŵ"/><glyph d="M716 0h-88L464 546 309 0h-87L83 596q-7 33-11.5 40T50 645l-55 7v28h277v-28l-55-7q-14-2-16-5.5t-1-12.5q0-4 1.5-9.5T206 596l104-466 153 550h83l163-540 106 456q7 31 6 39t-17 10l-55 7v28h194v-28l-55-7q-17-2-21.5-9T855 596zM454 836q0-28-17.5-45.5T391 773q-28 0-45 17.5T329 836q0 28 17 45t45 17q28 0 45.5-17.5T454 836zm210 0q0-28-17.5-45.5T601 773q-28 0-45 17.5T539 836q0 28 17 45t45 17q28 0 45.5-17.5T664 836z" glyph-name="Wdieresis" horiz-adv-x="938" unicode="Ẅ"/><glyph d="M716 0h-88L464 546 309 0h-87L83 596q-7 33-11.5 40T50 645l-55 7v28h277v-28l-55-7q-14-2-16-5.5t-1-12.5q0-4 1.5-9.5T206 596l104-466 153 550h83l163-540 106 456q7 31 6 39t-17 10l-55 7v28h194v-28l-55-7q-17-2-21.5-9T855 596zM522 773l-24-21q-56 41-93 78t-71 83h126q8-35 21-65.5t41-74.5z" glyph-name="Wgrave" horiz-adv-x="938" unicode="Ẁ"/><glyph d="M391 35l55-7V0H172v28l55 7q16 2 19 9t3 40v207L90 596q-17 33-23 40t-22 9l-55 7v28h285v-28l-55-7q-16-2-15.5-9.5T221 596l129-258 134 258q16 30 16.5 38.5T485 645l-55 7v28h195v-28l-55-7q-15-2-21-8.5T526 596L369 293V84q0-33 3-40t19-9zm-54 717l-24 21q28 44 41 74.5t21 65.5h126q-34-46-71-83t-93-78z" glyph-name="Yacute" horiz-adv-x="615" unicode="Ý"/><glyph d="M391 35l55-7V0H172v28l55 7q16 2 19 9t3 40v207L90 596q-17 33-23 40t-22 9l-55 7v28h285v-28l-55-7q-16-2-15.5-9.5T221 596l129-258 134 258q16 30 16.5 38.5T485 645l-55 7v28h195v-28l-55-7q-15-2-21-8.5T526 596L369 293V84q0-33 3-40t19-9zm-96 801q0-28-17.5-45.5T232 773q-28 0-45 17.5T170 836q0 28 17 45t45 17q28 0 45.5-17.5T295 836zm210 0q0-28-17.5-45.5T442 773q-28 0-45 17.5T380 836q0 28 17 45t45 17q28 0 45.5-17.5T505 836z" glyph-name="Ydieresis" horiz-adv-x="615" unicode="Ÿ"/><glyph d="M391 35l55-7V0H172v28l55 7q16 2 19 9t3 40v207L90 596q-17 33-23 40t-22 9l-55 7v28h285v-28l-55-7q-16-2-15.5-9.5T221 596l129-258 134 258q16 30 16.5 38.5T485 645l-55 7v28h195v-28l-55-7q-15-2-21-8.5T526 596L369 293V84q0-33 3-40t19-9zm84 739l-14-22q-37 21-70 44.5T334 841q-24-22-55.5-45.5T215 752l-14 22q34 39 51.5 64.5T294 913h88q24-49 41.5-74.5T475 774z" glyph-name="Ycircumflex" horiz-adv-x="615" unicode="Ŷ"/><glyph d="M391 35l55-7V0H172v28l55 7q16 2 19 9t3 40v207L90 596q-17 33-23 40t-22 9l-55 7v28h285v-28l-55-7q-16-2-15.5-9.5T221 596l129-258 134 258q16 30 16.5 38.5T485 645l-55 7v28h195v-28l-55-7q-15-2-21-8.5T526 596L369 293V84q0-33 3-40t19-9zm-28 738l-24-21q-56 41-93 78t-71 83h126q8-35 21-65.5t41-74.5z" glyph-name="Ygrave" horiz-adv-x="615" unicode="Ỳ"/><glyph d="M448 61l32 111h28V0H38v25l324 620H168q-32 0-40-3t-14-23L82 508H54v172h444v-25L174 35h220q32 0 40 3t14 23zm-51 857l14-22q-34-39-51.5-64.5T318 757h-88q-24 49-41.5 74.5T137 896l14 22q35-20 67.5-43t59.5-46q24 22 55.5 45.5T397 918z" glyph-name="Zcaron" horiz-adv-x="546" unicode="Ž"/><glyph d="M448 61l32 111h28V0H38v25l324 620H168q-32 0-40-3t-14-23L82 508H54v172h444v-25L174 35h220q32 0 40 3t14 23zM273 752l-24 21q28 44 41 74.5t21 65.5h126q-34-46-71-83t-93-78z" glyph-name="Zacute" horiz-adv-x="546" unicode="Ź"/><glyph d="M448 61l32 111h28V0H38v25l324 620H168q-32 0-40-3t-14-23L82 508H54v172h444v-25L174 35h220q32 0 40 3t14 23zM343 836q0-31-19.5-50.5T273 766q-31 0-50 19.5T204 836q0 31 19 50t50 19q31 0 50.5-19.5T343 836z" glyph-name="Zdotaccent" horiz-adv-x="546" unicode="Ż"/><glyph d="M515 51l18-26Q513 7 490.5-1.5T440-10q-41 0-68.5 18T335 59q-31-34-70-51.5T182-10q-64 0-100.5 36.5T45 125q0 67 48.5 99.5T240 257h91v81q0 74-19.5 109T250 482q-50 0-68.5-38.5T177 327L67 343q-13 75 38.5 124.5T252 517q97 0 145.5-44.5T446 338V107q0-40 6.5-58.5T475 30q9 0 18.5 5T515 51zm-352 76q0-41 16-62.5T226 43q30 0 55 15.5t50 48.5v115h-75q-49 0-71-22.5T163 127zm89 452l-24 21q28 44 41 74.5t21 65.5h126q-34-46-71-83t-93-78z" glyph-name="aacute" horiz-adv-x="538" unicode="á"/><glyph d="M515 51l18-26Q513 7 490.5-1.5T440-10q-41 0-68.5 18T335 59q-31-34-70-51.5T182-10q-64 0-100.5 36.5T45 125q0 67 48.5 99.5T240 257h91v81q0 74-19.5 109T250 482q-50 0-68.5-38.5T177 327L67 343q-13 75 38.5 124.5T252 517q97 0 145.5-44.5T446 338V107q0-40 6.5-58.5T475 30q9 0 18.5 5T515 51zm-352 76q0-41 16-62.5T226 43q30 0 55 15.5t50 48.5v115h-75q-49 0-71-22.5T163 127zm227 474l-14-22q-37 21-70 44.5T249 668q-24-22-55.5-45.5T130 579l-14 22q34 39 51.5 64.5T209 740h88q24-49 41.5-74.5T390 601z" glyph-name="acircumflex" horiz-adv-x="538" unicode="â"/><glyph d="M515 51l18-26Q513 7 490.5-1.5T440-10q-41 0-68.5 18T335 59q-31-34-70-51.5T182-10q-64 0-100.5 36.5T45 125q0 67 48.5 99.5T240 257h91v81q0 74-19.5 109T250 482q-50 0-68.5-38.5T177 327L67 343q-13 75 38.5 124.5T252 517q97 0 145.5-44.5T446 338V107q0-40 6.5-58.5T475 30q9 0 18.5 5T515 51zm-352 76q0-41 16-62.5T226 43q30 0 55 15.5t50 48.5v115h-75q-49 0-71-22.5T163 127zm47 536q0-28-17.5-45.5T147 600q-28 0-45 17.5T85 663q0 28 17 45t45 17q28 0 45.5-17.5T210 663zm210 0q0-28-17.5-45.5T357 600q-28 0-45 17.5T295 663q0 28 17 45t45 17q28 0 45.5-17.5T420 663z" glyph-name="adieresis" horiz-adv-x="538" unicode="ä"/><glyph d="M515 51l18-26Q513 7 490.5-1.5T440-10q-41 0-68.5 18T335 59q-31-34-70-51.5T182-10q-64 0-100.5 36.5T45 125q0 67 48.5 99.5T240 257h91v81q0 74-19.5 109T250 482q-50 0-68.5-38.5T177 327L67 343q-13 75 38.5 124.5T252 517q97 0 145.5-44.5T446 338V107q0-40 6.5-58.5T475 30q9 0 18.5 5T515 51zm-352 76q0-41 16-62.5T226 43q30 0 55 15.5t50 48.5v115h-75q-49 0-71-22.5T163 127zm115 473l-24-21q-56 41-93 78t-71 83h126q8-35 21-65.5t41-74.5z" glyph-name="agrave" horiz-adv-x="538" unicode="à"/><glyph d="M515 51l18-26Q513 7 490.5-1.5T440-10q-41 0-68.5 18T335 59q-31-34-70-51.5T182-10q-64 0-100.5 36.5T45 125q0 67 48.5 99.5T240 257h91v81q0 74-19.5 109T250 482q-50 0-68.5-38.5T177 327L67 343q-13 75 38.5 124.5T252 517q97 0 145.5-44.5T446 338V107q0-40 6.5-58.5T475 30q9 0 18.5 5T515 51zm-352 76q0-41 16-62.5T226 43q30 0 55 15.5t50 48.5v115h-75q-49 0-71-22.5T163 127zm90 676q53 0 88-33.5t35-80.5v-11q0-47-35-81t-88-34q-53 0-88 33.5T130 678v11q0 48 34.5 81t88.5 33zm50-132v25q0 40-12.5 60T253 776q-25 0-37-20t-12-60v-25q0-41 12-61t37-20q25 0 37.5 20.5T303 671z" glyph-name="aring" horiz-adv-x="538" unicode="å"/><glyph d="M515 51l18-26Q513 7 490.5-1.5T440-10q-41 0-68.5 18T335 59q-31-34-70-51.5T182-10q-64 0-100.5 36.5T45 125q0 67 48.5 99.5T240 257h91v81q0 74-19.5 109T250 482q-50 0-68.5-38.5T177 327L67 343q-13 75 38.5 124.5T252 517q97 0 145.5-44.5T446 338V107q0-40 6.5-58.5T475 30q9 0 18.5 5T515 51zm-352 76q0-41 16-62.5T226 43q30 0 55 15.5t50 48.5v115h-75q-49 0-71-22.5T163 127zm152 456q-17 0-35 9.5T232 632q-22 21-32 27.5t-19 6.5q-17 0-26.5-18T140 588h-36q8 82 29.5 119.5T193 745q17 0 34-9.5t46-38.5q22-22 33-28.5t20-6.5q16 0 25 17.5t15 60.5h36q-8-82-29-119.5T315 583z" glyph-name="atilde" horiz-adv-x="538" unicode="ã"/><glyph d="M515 51l18-26Q513 7 490.5-1.5T440-10q-41 0-68.5 18T335 59q-31-34-70-51.5T182-10q-64 0-100.5 36.5T45 125q0 67 48.5 99.5T240 257h91v81q0 74-19.5 109T250 482q-50 0-68.5-38.5T177 327L67 343q-13 75 38.5 124.5T252 517q97 0 145.5-44.5T446 338V107q0-40 6.5-58.5T475 30q9 0 18.5 5T515 51zm-352 76q0-41 16-62.5T226 43q30 0 55 15.5t50 48.5v115h-75q-49 0-71-22.5T163 127zm90 534q48 0 75.5 20.5T366 745l33-10q-15-77-51.5-116.5T253 579q-58 0-94.5 39.5T107 735l33 10q10-43 37.5-63.5T253 661z" glyph-name="abreve" horiz-adv-x="538" unicode="ă"/><glyph d="M515 51l18-26Q513 7 490.5-1.5T440-10q-41 0-68.5 18T335 59q-31-34-70-51.5T182-10q-64 0-100.5 36.5T45 125q0 67 48.5 99.5T240 257h91v81q0 74-19.5 109T250 482q-50 0-68.5-38.5T177 327L67 343q-13 75 38.5 124.5T252 517q97 0 145.5-44.5T446 338V107q0-40 6.5-58.5T475 30q9 0 18.5 5T515 51zm-352 76q0-41 16-62.5T226 43q30 0 55 15.5t50 48.5v115h-75q-49 0-71-22.5T163 127zm-54 547h287v-55H109z" glyph-name="amacron" horiz-adv-x="538" unicode="ā"/><glyph d="M469-112l64-13q-13-48-46.5-73T404-223q-52 0-85 25t-33 64q0 37 30.5 66.5T418-9q-33 5-54.5 22.5T335 59q-31-34-70-51.5T182-10q-64 0-100.5 36.5T45 125q0 67 48.5 99.5T240 257h91v81q0 74-19.5 109T250 482q-50 0-68.5-38.5T177 327L67 343q-13 75 38.5 124.5T252 517q97 0 145.5-44.5T446 338V107q0-40 6.5-58.5T475 30q9 0 18.5 5T515 51l18-26q-12-11-27-21.5T468-20q-41-22-50.5-28.5T400-62q-16-14-23.5-31t-7.5-38q0-28 11.5-43t32.5-15q23 0 37 19t19 58zM163 127q0-41 16-62.5T226 43q30 0 55 15.5t50 48.5v115h-75q-49 0-71-22.5T163 127z" glyph-name="aogonek" horiz-adv-x="538" unicode="ą"/><glyph d="M398-140q0-38-32.5-60.5T279-223q-48 0-76 19.5T168-145l55 14q3-31 15-45.5t33-14.5q21 0 32.5 13t11.5 38q0 27-13 40t-39 13q-3 0-7-.5T243-89l-13 26 22 54q-96 9-147.5 75T53 244v20q0 118 57.5 185.5T271 517q97 0 149.5-56.5T458 322l-110-16q11 85-9 130.5T271 482q-50 0-72.5-47.5T176 284v-60q0-106 26.5-152.5T291 25q50 0 76 27.5t30 84.5l64-18q-16-62-58.5-94.5T292-10l-19-45q58-2 91.5-24.5T398-140z" glyph-name="ccedilla" horiz-adv-x="503" unicode="ç"/><glyph d="M271 482q-50 0-72.5-47.5T176 284v-60q0-106 26.5-152.5T291 25q50 0 76 27.5t30 84.5l64-18q-16-64-61-96.5T284-10q-111 0-171 66.5T53 244v20q0 118 57.5 185.5T271 517q97 0 149.5-56.5T458 322l-110-16q11 85-9 130.5T271 482zm0 97l-24 21q28 44 41 74.5t21 65.5h126q-34-46-71-83t-93-78z" glyph-name="cacute" horiz-adv-x="503" unicode="ć"/><glyph d="M271 482q-50 0-72.5-47.5T176 284v-60q0-106 26.5-152.5T291 25q50 0 76 27.5t30 84.5l64-18q-16-64-61-96.5T284-10q-111 0-171 66.5T53 244v20q0 118 57.5 185.5T271 517q97 0 149.5-56.5T458 322l-110-16q11 85-9 130.5T271 482zm124 263l14-22q-34-39-51.5-64.5T316 584h-88q-24 49-41.5 74.5T135 723l14 22q35-20 67.5-43t59.5-46q24 22 55.5 45.5T395 745z" glyph-name="ccaron" horiz-adv-x="503" unicode="č"/><glyph d="M271 482q-50 0-72.5-47.5T176 284v-60q0-106 26.5-152.5T291 25q50 0 76 27.5t30 84.5l64-18q-16-64-61-96.5T284-10q-111 0-171 66.5T53 244v20q0 118 57.5 185.5T271 517q97 0 149.5-56.5T458 322l-110-16q11 85-9 130.5T271 482zm138 119l-14-22q-37 21-70 44.5T268 668q-24-22-55.5-45.5T149 579l-14 22q34 39 51.5 64.5T228 740h88q24-49 41.5-74.5T409 601z" glyph-name="ccircumflex" horiz-adv-x="503" unicode="ĉ"/><glyph d="M271 482q-50 0-72.5-47.5T176 284v-60q0-106 26.5-152.5T291 25q50 0 76 27.5t30 84.5l64-18q-16-64-61-96.5T284-10q-111 0-171 66.5T53 244v20q0 118 57.5 185.5T271 517q97 0 149.5-56.5T458 322l-110-16q11 85-9 130.5T271 482zm70 181q0-31-19.5-50.5T271 593q-31 0-50 19.5T202 663q0 31 19 50t50 19q31 0 50.5-19.5T341 663z" glyph-name="cdotaccent" horiz-adv-x="503" unicode="ċ"/><glyph d="M514 35l55-7V0H383v83q-30-49-64.5-71T239-10q-85 0-134 67.5T56 243v20q0 117 57.5 185.5T271 517q29 0 56.5-7.5T377 487v169q0 33-3 40t-19 9l-55 7v28h192V84q0-33 3-40t19-9zM179 293v-80q0-88 22-133.5T265 34q31 0 58 25.5t54 78.5v302q-19 19-42.5 28.5T284 478q-52 0-78.5-46.5T179 293zm399 233h-24v214h109q-19-60-39-109.5T578 526z" glyph-name="dcaron" horiz-adv-x="682" unicode="ď"/><glyph d="M514 35l55-7V0H383v83q-30-49-64.5-71T239-10q-85 0-134 67.5T56 243v20q0 117 57.5 185.5T271 517q29 0 56.5-7.5T377 487v103H232v35h145v31q0 33-3 40t-19 9l-55 7v28h192V625h77v-35h-77V84q0-33 3-40t19-9zM179 293v-80q0-88 22-133.5T265 34q31 0 58 25.5t54 78.5v302q-19 19-42.5 28.5T284 478q-52 0-78.5-46.5T179 293z" glyph-name="dcroat" horiz-adv-x="585" unicode="đ"/><glyph d="M410 137l64-18q-16-64-62-96.5T293-10q-115 0-177.5 66.5T53 244v20q0 119 58 186t162 67q93 0 149.5-53.5T479 319q0-17-2-33.5t-5-32.5H176v-29q0-106 29.5-152.5T303 25q49 0 76 28.5t31 83.5zm-46 221q0 60-23.5 92T273 482q-50 0-73.5-47T176 288h181q3 18 5 36t2 34zm-93 221l-24 21q28 44 41 74.5t21 65.5h126q-34-46-71-83t-93-78z" glyph-name="eacute" horiz-adv-x="529" unicode="é"/><glyph d="M410 137l64-18q-16-64-62-96.5T293-10q-115 0-177.5 66.5T53 244v20q0 119 58 186t162 67q93 0 149.5-53.5T479 319q0-17-2-33.5t-5-32.5H176v-29q0-106 29.5-152.5T303 25q49 0 76 28.5t31 83.5zm-46 221q0 60-23.5 92T273 482q-50 0-73.5-47T176 288h181q3 18 5 36t2 34zm46 243l-14-22q-37 21-70 44.5T269 668q-24-22-55.5-45.5T150 579l-14 22q34 39 51.5 64.5T229 740h88q24-49 41.5-74.5T410 601z" glyph-name="ecircumflex" horiz-adv-x="529" unicode="ê"/><glyph d="M410 137l64-18q-16-64-62-96.5T293-10q-115 0-177.5 66.5T53 244v20q0 119 58 186t162 67q93 0 149.5-53.5T479 319q0-17-2-33.5t-5-32.5H176v-29q0-106 29.5-152.5T303 25q49 0 76 28.5t31 83.5zm-46 221q0 60-23.5 92T273 482q-50 0-73.5-47T176 288h181q3 18 5 36t2 34zM230 663q0-28-17.5-45.5T167 600q-28 0-45 17.5T105 663q0 28 17 45t45 17q28 0 45.5-17.5T230 663zm210 0q0-28-17.5-45.5T377 600q-28 0-45 17.5T315 663q0 28 17 45t45 17q28 0 45.5-17.5T440 663z" glyph-name="edieresis" horiz-adv-x="529" unicode="ë"/><glyph d="M410 137l64-18q-16-64-62-96.5T293-10q-115 0-177.5 66.5T53 244v20q0 119 58 186t162 67q93 0 149.5-53.5T479 319q0-17-2-33.5t-5-32.5H176v-29q0-106 29.5-152.5T303 25q49 0 76 28.5t31 83.5zm-46 221q0 60-23.5 92T273 482q-50 0-73.5-47T176 288h181q3 18 5 36t2 34zm-67 242l-24-21q-56 41-93 78t-71 83h126q8-35 21-65.5t41-74.5z" glyph-name="egrave" horiz-adv-x="529" unicode="è"/><glyph d="M410 137l64-18q-16-64-62-96.5T293-10q-115 0-177.5 66.5T53 244v20q0 119 58 186t162 67q93 0 149.5-53.5T479 319q0-17-2-33.5t-5-32.5H176v-29q0-106 29.5-152.5T303 25q49 0 76 28.5t31 83.5zm-46 221q0 60-23.5 92T273 482q-50 0-73.5-47T176 288h181q3 18 5 36t2 34zm-92 303q48 0 75.5 20.5T385 745l33-10q-15-77-51.5-116.5T272 579q-58 0-94.5 39.5T126 735l33 10q10-43 37.5-63.5T272 661z" glyph-name="ebreve" horiz-adv-x="529" unicode="ĕ"/><glyph d="M410 137l64-18q-16-64-62-96.5T293-10q-115 0-177.5 66.5T53 244v20q0 119 58 186t162 67q93 0 149.5-53.5T479 319q0-17-2-33.5t-5-32.5H176v-29q0-106 29.5-152.5T303 25q49 0 76 28.5t31 83.5zm-46 221q0 60-23.5 92T273 482q-50 0-73.5-47T176 288h181q3 18 5 36t2 34zm31 387l14-22q-34-39-51.5-64.5T316 584h-88q-24 49-41.5 74.5T135 723l14 22q35-20 67.5-43t59.5-46q24 22 55.5 45.5T395 745z" glyph-name="ecaron" horiz-adv-x="529" unicode="ě"/><glyph d="M410 137l64-18q-16-64-62-96.5T293-10q-115 0-177.5 66.5T53 244v20q0 119 58 186t162 67q93 0 149.5-53.5T479 319q0-17-2-33.5t-5-32.5H176v-29q0-106 29.5-152.5T303 25q49 0 76 28.5t31 83.5zm-46 221q0 60-23.5 92T273 482q-50 0-73.5-47T176 288h181q3 18 5 36t2 34zm-22 305q0-31-19.5-50.5T272 593q-31 0-50 19.5T203 663q0 31 19 50t50 19q31 0 50.5-19.5T342 663z" glyph-name="edotaccent" horiz-adv-x="529" unicode="ė"/><glyph d="M410 137l64-18q-16-64-62-96.5T293-10q-115 0-177.5 66.5T53 244v20q0 119 58 186t162 67q93 0 149.5-53.5T479 319q0-17-2-33.5t-5-32.5H176v-29q0-106 29.5-152.5T303 25q49 0 76 28.5t31 83.5zm-46 221q0 60-23.5 92T273 482q-50 0-73.5-47T176 288h181q3 18 5 36t2 34zM129 674h287v-55H129z" glyph-name="emacron" horiz-adv-x="529" unicode="ē"/><glyph d="M410-112l64-13q-13-48-46.5-73T345-223q-53 0-85.5 26T227-129q0 32 20.5 58.5T329-8l-22.5-1.5Q299-10 293-10q-115 0-177.5 66.5T53 244v20q0 119 58 186t162 67q93 0 149.5-53.5T479 319q0-17-2-33.5t-5-32.5H176v-29q0-106 29.5-152.5T303 25q49 0 76 28.5t31 83.5l64-18q-7-25-19-47t-28-38q-17-16-43-38t-34-30q-22-22-31-42.5t-9-48.5q0-32 11-48t33-16q23 0 37 19t19 58zm-46 470q0 60-23.5 92T273 482q-50 0-73.5-47T176 288h181q4 19 5.5 36.5T364 358z" glyph-name="eogonek" horiz-adv-x="529" unicode="ę"/><glyph d="M511-52q0-81-60.5-126T281-223q-108 0-170.5 35.5T42-89l107 17q-5-58 28-87t104-29q75 0 118 28t43 77q0 38-28 55.5T328-10H214q-67 0-102.5 26T76 89q0 32 17.5 60t53.5 54q-47 20-72 58.5T50 351q0 77 53 121.5T244 517h17q29 0 54-5t46-14l144 71 12-98H403q25-22 38-52t13-68q0-76-53.5-121T261 185h-17q-15 0-30 1.5t-29 4.5q-22-15-33-30.5T141 129q0-16 15-24t47-8h130q86 0 132-38.5T511-52zM244 220h17q38 0 58 33t20 98q0 65-20 98t-58 33h-17q-39 0-59-33t-20-98q0-65 20-98t59-33zm9 441q48 0 75.5 20.5T366 745l33-10q-15-77-51.5-116.5T253 579q-58 0-94.5 39.5T107 735l33 10q10-43 37.5-63.5T253 661z" glyph-name="gbreve" horiz-adv-x="532" unicode="ğ"/><glyph d="M511-52q0-81-60.5-126T281-223q-108 0-170.5 35.5T42-89l107 17q-5-58 28-87t104-29q75 0 118 28t43 77q0 38-28 55.5T328-10H214q-67 0-102.5 26T76 89q0 32 17.5 60t53.5 54q-47 20-72 58.5T50 351q0 77 53 121.5T244 517h17q29 0 54-5t46-14l144 71 12-98H403q25-22 38-52t13-68q0-76-53.5-121T261 185h-17q-15 0-30 1.5t-29 4.5q-22-15-33-30.5T141 129q0-16 15-24t47-8h130q86 0 132-38.5T511-52zM244 220h17q38 0 58 33t20 98q0 65-20 98t-58 33h-17q-39 0-59-33t-20-98q0-65 20-98t59-33zm146 381l-14-22q-37 21-70 44.5T249 668q-24-22-55.5-45.5T130 579l-14 22q34 39 51.5 64.5T209 740h88q24-49 41.5-74.5T390 601z" glyph-name="gcircumflex" horiz-adv-x="532" unicode="ĝ"/><glyph d="M511-52q0-81-60.5-126T281-223q-108 0-170.5 35.5T42-89l107 17q-5-58 28-87t104-29q75 0 118 28t43 77q0 38-28 55.5T328-10H214q-67 0-102.5 26T76 89q0 32 17.5 60t53.5 54q-47 20-72 58.5T50 351q0 77 53 121.5T244 517h17q29 0 54-5t46-14l144 71 12-98H403q25-22 38-52t13-68q0-76-53.5-121T261 185h-17q-15 0-30 1.5t-29 4.5q-22-15-33-30.5T141 129q0-16 15-24t47-8h130q86 0 132-38.5T511-52zM244 220h17q38 0 58 33t20 98q0 65-20 98t-58 33h-17q-39 0-59-33t-20-98q0-65 20-98t59-33zm87 535l19-18q-17-36-27.5-72T307 584H194q24 48 58 90.5t79 80.5z" glyph-name="gcommaaccent" horiz-adv-x="532" unicode="ģ"/><glyph d="M511-52q0-81-60.5-126T281-223q-108 0-170.5 35.5T42-89l107 17q-5-58 28-87t104-29q75 0 118 28t43 77q0 38-28 55.5T328-10H214q-67 0-102.5 26T76 89q0 32 17.5 60t53.5 54q-47 20-72 58.5T50 351q0 77 53 121.5T244 517h17q29 0 54-5t46-14l144 71 12-98H403q25-22 38-52t13-68q0-76-53.5-121T261 185h-17q-15 0-30 1.5t-29 4.5q-22-15-33-30.5T141 129q0-16 15-24t47-8h130q86 0 132-38.5T511-52zM244 220h17q38 0 58 33t20 98q0 65-20 98t-58 33h-17q-39 0-59-33t-20-98q0-65 20-98t59-33zm78 443q0-31-19.5-50.5T252 593q-31 0-50 19.5T183 663q0 31 19 50t50 19q31 0 50.5-19.5T322 663z" glyph-name="gdotaccent" horiz-adv-x="532" unicode="ġ"/><glyph d="M230 35l55-7V0H16v28l55 7q16 2 19 9t3 40v506H16v35h77v31q0 33-3 40t-19 9l-55 7v28h192V625h145v-35H208V429q26 42 68.5 65t91.5 23q75 0 117.5-48T528 337V84q0-33 3-40t19-9l55-7V0H336v28l55 7q16 2 19 9t3 40v252q0 67-20 99.5T332 468q-39 0-72-27t-52-77V84q0-33 3-40t19-9z" glyph-name="hbar" horiz-adv-x="616" unicode="ħ"/><glyph d="M550 35l55-7V0H336v28l55 7q16 2 19 9t3 40v252q0 67-20 99.5T332 468q-39 0-72-27t-52-77V84q0-33 3-40t19-9l55-7V0H16v28l55 7q16 2 19 9t3 40v572q0 33-3 40t-19 9l-55 7v28h192V429q26 42 68.5 65t91.5 23q75 0 117.5-48T528 337V84q0-33 3-40t19-9zM402 823l-14-22q-37 21-70 44.5T261 890q-24-22-55.5-45.5T142 801l-14 22q34 39 51.5 64.5T221 962h88q24-49 41.5-74.5T402 823z" glyph-name="hcircumflex" horiz-adv-x="616" unicode="ĥ"/><glyph d="M78 472l-55 7v28h192V84q0-33 3-40t19-9l55-7V0H23v28l55 7q16 2 19 9t3 40v339q0 33-3 40t-19 9zm72 107l-24 21q28 44 41 74.5t21 65.5h126q-34-46-71-83t-93-78z" glyph-name="iacute" horiz-adv-x="308" unicode="í"/><glyph d="M78 472l-55 7v28h192V84q0-33 3-40t19-9l55-7V0H23v28l55 7q16 2 19 9t3 40v339q0 33-3 40t-19 9zm210 129l-14-22q-37 21-70 44.5T147 668q-24-22-55.5-45.5T28 579l-14 22q34 39 51.5 64.5T107 740h88q24-49 41.5-74.5T288 601z" glyph-name="icircumflex" horiz-adv-x="308" unicode="î"/><glyph d="M78 472l-55 7v28h192V84q0-33 3-40t19-9l55-7V0H23v28l55 7q16 2 19 9t3 40v339q0 33-3 40t-19 9zm30 191q0-28-17.5-45.5T45 600q-28 0-45 17.5T-17 663q0 28 17 45t45 17q28 0 45.5-17.5T108 663zm210 0q0-28-17.5-45.5T255 600q-28 0-45 17.5T193 663q0 28 17 45t45 17q28 0 45.5-17.5T318 663z" glyph-name="idieresis" horiz-adv-x="308" unicode="ï"/><glyph d="M78 472l-55 7v28h192V84q0-33 3-40t19-9l55-7V0H23v28l55 7q16 2 19 9t3 40v339q0 33-3 40t-19 9zm98 128l-24-21q-56 41-93 78t-71 83h126q8-35 21-65.5t41-74.5z" glyph-name="igrave" horiz-adv-x="308" unicode="ì"/><glyph d="M78 472l-55 7v28h192V84q0-33 3-40t19-9l55-7V0H23v28l55 7q16 2 19 9t3 40v339q0 33-3 40t-19 9zm73 189q48 0 75.5 20.5T264 745l33-10q-15-77-51.5-116.5T151 579q-58 0-94.5 39.5T5 735l33 10q10-43 37.5-63.5T151 661z" glyph-name="ibreve" horiz-adv-x="308" unicode="ĭ"/><glyph d="M227 663q0-31-19.5-50.5T157 593q-31 0-50 19.5T88 663q0 31 19 50t50 19q31 0 50.5-19.5T227 663zM78 472l-55 7v28h192V84q0-33 3-40t19-9l55-7V0H23v28l55 7q16 2 19 9t3 40v339q0 33-3 40t-19 9z" glyph-name="i.dot" horiz-adv-x="308"/><glyph d="M78 472l-55 7v28h192V84q0-33 3-40t19-9l55-7V0H23v28l55 7q16 2 19 9t3 40v339q0 33-3 40t-19 9zM7 674h287v-55H7z" glyph-name="imacron" horiz-adv-x="308" unicode="ī"/><glyph d="M227 663q0-31-19.5-50.5T157 593q-31 0-50 19.5T88 663q0 31 19 50t50 19q31 0 50.5-19.5T227 663zM78 472l-55 7v28h192V84q0-33 3-40t19-9l55-7V0h-60q-64 0-102.5-36T91-129q0-29 11-44.5t32-15.5q24 0 38 19t19 58l64-13q-13-48-46.5-73T126-223q-52 0-85 25.5T8-130q0 35 24 67.5T100-6v429q0 33-3 40t-19 9z" glyph-name="iogonek" horiz-adv-x="308" unicode="į"/><glyph d="M78 472l-55 7v28h192V84q0-33 3-40t19-9l55-7V0H23v28l55 7q16 2 19 9t3 40v339q0 33-3 40t-19 9zm135 111q-17 0-35 9.5T130 632q-22 21-32 27.5T79 666q-17 0-26.5-18T38 588H2q8 82 29.5 119.5T91 745q17 0 34-9.5t46-38.5q22-22 33-28.5t20-6.5q16 0 25 17.5t15 60.5h36q-8-82-29-119.5T213 583z" glyph-name="itilde" horiz-adv-x="308" unicode="ĩ"/><glyph d="M73 472l-55 7v28h192V-34q0-91-44.5-140T37-223q-63 0-99.5 31t-44.5 91l64 20q5-54 21-80.5T23-188q39 0 55.5 31.5T95-54v477q0 33-3 40t-19 9zm203 129l-14-22q-37 21-70 44.5T135 668q-24-22-55.5-45.5T16 579L2 601q34 39 51.5 64.5T95 740h88q24-49 41.5-74.5T276 601z" glyph-name="jcircumflex" horiz-adv-x="295" unicode="ĵ"/><glyph d="M227 663q0-31-19.5-50.5T157 593q-31 0-50 19.5T88 663q0 31 19 50t50 19q31 0 50.5-19.5T227 663zM78 472l-55 7v28h192V84q0-33 3-40t19-9l55-7V0H23v28l55 7q16 2 19 9t3 40v339q0 33-3 40t-19 9zm450 191q0-31-19.5-50.5T458 593q-31 0-50 19.5T389 663q0 31 19 50t50 19q31 0 50.5-19.5T528 663zM379 472l-55 7v28h192V-34q0-89-45-139t-128-50q-62 0-98 31t-44 92l62 19q4-55 20-81t48-26q37 0 53.5 32.5T401-54v477q0 33-3 40t-19 9z" glyph-name="ij" horiz-adv-x="601" unicode="ĳ"/><glyph d="M71 705l-55 7v28h192V255l176 168q33 32 37 39.5t-14 9.5l-55 7v28h205v-28l-55-7q-14-2-23.5-9.5T435 423l-96-92L481 84q18-30 25.5-38T532 35l55-7V0H396L257 253l-49-47V84q0-33 3-40t19-9l55-7V0H16v28l55 7q16 2 19 9t3 40v572q0 33-3 40t-19 9zm148-953l-19 18q17 36 27.5 72T243-77h113q-24-48-58-90.5T219-248z" glyph-name="kcommaaccent" horiz-adv-x="588" unicode="ķ"/><glyph d="M78 472l-55 7v28h192V255l176 168q33 32 37 39.5t-14 9.5l-55 7v28h205v-28l-55-7q-14-2-23.5-9.5T442 423l-96-92L488 84q18-30 25.5-38T539 35l55-7V0H403L264 253l-49-47V84q0-33 3-40t19-9l55-7V0H23v28l55 7q16 2 19 9t3 40v339q0 33-3 40t-19 9z" glyph-name="kgreenlandic" horiz-adv-x="595" unicode="ĸ"/><glyph d="M71 705l-55 7v28h192V84q0-33 3-40t19-9l55-7V0H16v28l55 7q16 2 19 9t3 40v572q0 33-3 40t-19 9zm78 96l-24 21q28 44 41 74.5t21 65.5h126q-34-46-71-83t-93-78z" glyph-name="lacute" horiz-adv-x="301" unicode="ĺ"/><glyph d="M71 705l-55 7v28h192V84q0-33 3-40t19-9l55-7V0H16v28l55 7q16 2 19 9t3 40v572q0 33-3 40t-19 9zm223-179h-24v214h109q-19-60-39-109.5T294 526z" glyph-name="lcaron" horiz-adv-x="398" unicode="ľ"/><glyph d="M71 705l-55 7v28h192V84q0-33 3-40t19-9l55-7V0H16v28l55 7q16 2 19 9t3 40v572q0 33-3 40t-19 9zm-1-953l-19 18q17 36 27.5 72T94-77h113q-24-48-58-90.5T70-248z" glyph-name="lcommaaccent" horiz-adv-x="301" unicode="ļ"/><glyph d="M71 705l-55 7v28h192V84q0-33 3-40t19-9l55-7V0H16v28l55 7q16 2 19 9t3 40v572q0 33-3 40t-19 9zm320-320q0-31-19.5-50.5T321 315q-31 0-50 19.5T252 385q0 31 19 50t50 19q31 0 50.5-19.5T391 385z" glyph-name="ldot" horiz-adv-x="342" unicode="ŀ"/><glyph d="M557 35l55-7V0H343v28l55 7q16 2 19 9t3 40v252q0 67-20 99.5T339 468q-39 0-72-27t-52-77V84q0-33 3-40t19-9l55-7V0H23v28l55 7q16 2 19 9t3 40v339q0 33-3 40t-19 9l-55 7v28h186v-88q26 47 70 72.5t96 25.5q75 0 117.5-48T535 337V84q0-33 3-40t19-9zM384 583q-17 0-35 9.5T301 632q-22 21-32 27.5t-19 6.5q-17 0-26.5-18T209 588h-36q8 82 29.5 119.5T262 745q17 0 34-9.5t46-38.5q22-22 33-28.5t20-6.5q16 0 25 17.5t15 60.5h36q-8-82-29-119.5T384 583z" glyph-name="ntilde" horiz-adv-x="623" unicode="ñ"/><glyph d="M557 35l55-7V0H343v28l55 7q16 2 19 9t3 40v252q0 67-20 99.5T339 468q-39 0-72-27t-52-77V84q0-33 3-40t19-9l55-7V0H23v28l55 7q16 2 19 9t3 40v339q0 33-3 40t-19 9l-55 7v28h186v-88q26 47 70 72.5t96 25.5q75 0 117.5-48T535 337V84q0-33 3-40t19-9zM321 579l-24 21q28 44 41 74.5t21 65.5h126q-34-46-71-83t-93-78z" glyph-name="nacute" horiz-adv-x="623" unicode="ń"/><glyph d="M557 35l55-7V0H343v28l55 7q16 2 19 9t3 40v252q0 67-20 99.5T339 468q-39 0-72-27t-52-77V84q0-33 3-40t19-9l55-7V0H23v28l55 7q16 2 19 9t3 40v339q0 33-3 40t-19 9l-55 7v28h186v-88q26 47 70 72.5t96 25.5q75 0 117.5-48T535 337V84q0-33 3-40t19-9zM445 745l14-22q-34-39-51.5-64.5T366 584h-88q-24 49-41.5 74.5T185 723l14 22q35-20 67.5-43t59.5-46q24 22 55.5 45.5T445 745z" glyph-name="ncaron" horiz-adv-x="623" unicode="ň"/><glyph d="M557 35l55-7V0H343v28l55 7q16 2 19 9t3 40v252q0 67-20 99.5T339 468q-39 0-72-27t-52-77V84q0-33 3-40t19-9l55-7V0H23v28l55 7q16 2 19 9t3 40v339q0 33-3 40t-19 9l-55 7v28h186v-88q26 47 70 72.5t96 25.5q75 0 117.5-48T535 337V84q0-33 3-40t19-9zM241-248l-19 18q17 36 27.5 72T265-77h113q-24-48-58-90.5T241-248z" glyph-name="ncommaaccent" horiz-adv-x="623" unicode="ņ"/><glyph d="M78 472l-55 7v28h186v-88q26 47 70 72.5t96 25.5q75 0 117.5-48T535 337V-34q0-91-44.5-140T362-223q-63 0-99.5 31T218-101l64 20q5-54 21-80.5t45-26.5q39 0 55.5 31.5T420-54v390q0 67-20 99.5T339 468q-39 0-72-27t-52-77V84q0-33 3-40t19-9l55-7V0H23v28l55 7q16 2 19 9t3 40v339q0 33-3 40t-19 9z" glyph-name="eng" horiz-adv-x="618" unicode="ŋ"/><glyph d="M670 35l55-7V0H456v28l55 7q16 2 19 9t3 40v252q0 67-20 99.5T452 468q-39 0-72-27t-52-77V84q0-33 3-40t19-9l55-7V0H136v28l55 7q16 2 19 9t3 40v339q0 33-3 40t-19 9l-55 7v28h186v-88q26 47 70 72.5t96 25.5q75 0 117.5-48T648 337V84q0-33 3-40t19-9zM39 690q30 0 48-21.5t18-57.5q0-41-27-95T3 407l-23 20q30 36 45 68t17 64h-3q-29 0-47 18t-18 48q0 29 18 47t47 18z" glyph-name="napostrophe" horiz-adv-x="736" unicode="ŉ"/><glyph d="M281 517q107 0 168-67.5T510 264v-20q0-118-61-186T281-10q-107 0-168 67.5T52 244v20q0 118 61 185.5T281 517zm106-293v60q0 101-25.5 149.5T281 482q-54 0-80-48.5T175 284v-60q0-101 26-150t80-49q54 0 80 48.5T387 224zM280 579l-24 21q28 44 41 74.5t21 65.5h126q-34-46-71-83t-93-78z" glyph-name="oacute" horiz-adv-x="562" unicode="ó"/><glyph d="M281 517q107 0 168-67.5T510 264v-20q0-118-61-186T281-10q-107 0-168 67.5T52 244v20q0 118 61 185.5T281 517zm106-293v60q0 101-25.5 149.5T281 482q-54 0-80-48.5T175 284v-60q0-101 26-150t80-49q54 0 80 48.5T387 224zm31 377l-14-22q-37 21-70 44.5T277 668q-24-22-55.5-45.5T158 579l-14 22q34 39 51.5 64.5T237 740h88q24-49 41.5-74.5T418 601z" glyph-name="ocircumflex" horiz-adv-x="562" unicode="ô"/><glyph d="M281 517q107 0 168-67.5T510 264v-20q0-118-61-186T281-10q-107 0-168 67.5T52 244v20q0 118 61 185.5T281 517zm106-293v60q0 101-25.5 149.5T281 482q-54 0-80-48.5T175 284v-60q0-101 26-150t80-49q54 0 80 48.5T387 224zM238 663q0-28-17.5-45.5T175 600q-28 0-45 17.5T113 663q0 28 17 45t45 17q28 0 45.5-17.5T238 663zm210 0q0-28-17.5-45.5T385 600q-28 0-45 17.5T323 663q0 28 17 45t45 17q28 0 45.5-17.5T448 663z" glyph-name="odieresis" horiz-adv-x="562" unicode="ö"/><glyph d="M281 517q107 0 168-67.5T510 264v-20q0-118-61-186T281-10q-107 0-168 67.5T52 244v20q0 118 61 185.5T281 517zm106-293v60q0 101-25.5 149.5T281 482q-54 0-80-48.5T175 284v-60q0-101 26-150t80-49q54 0 80 48.5T387 224zm-81 376l-24-21q-56 41-93 78t-71 83h126q8-35 21-65.5t41-74.5z" glyph-name="ograve" horiz-adv-x="562" unicode="ò"/><glyph d="M281 517q107 0 168-67.5T510 264v-20q0-118-61-186T281-10q-107 0-168 67.5T52 244v20q0 118 61 185.5T281 517zm106-293v60q0 101-25.5 149.5T281 482q-54 0-80-48.5T175 284v-60q0-101 26-150t80-49q54 0 80 48.5T387 224zm-44 359q-17 0-35 9.5T260 632q-22 21-32 27.5t-19 6.5q-17 0-26.5-18T168 588h-36q8 82 29.5 119.5T221 745q17 0 34-9.5t46-38.5q22-22 33-28.5t20-6.5q16 0 25 17.5t15 60.5h36q-8-82-29-119.5T343 583z" glyph-name="otilde" horiz-adv-x="562" unicode="õ"/><glyph d="M281 517q107 0 168-67.5T510 264v-20q0-118-61-186T281-10q-107 0-168 67.5T52 244v20q0 118 61 185.5T281 517zm106-293v60q0 101-25.5 149.5T281 482q-54 0-80-48.5T175 284v-60q0-101 26-150t80-49q54 0 80 48.5T387 224zM281 661q48 0 75.5 20.5T394 745l33-10q-15-77-51.5-116.5T281 579q-58 0-94.5 39.5T135 735l33 10q10-43 37.5-63.5T281 661z" glyph-name="obreve" horiz-adv-x="562" unicode="ŏ"/><glyph d="M281 517q107 0 168-67.5T510 264v-20q0-118-61-186T281-10q-107 0-168 67.5T52 244v20q0 118 61 185.5T281 517zm106-293v60q0 101-25.5 149.5T281 482q-54 0-80-48.5T175 284v-60q0-101 26-150t80-49q54 0 80 48.5T387 224zM201 579l-27 24q20 30 32 61.5t22 75.5h111q-28-45-61-83.5T201 579zm140 0l-27 24q20 30 32 61.5t22 75.5h111q-28-45-61-83.5T341 579z" glyph-name="ohungarumlaut" horiz-adv-x="562" unicode="ő"/><glyph d="M281 517q107 0 168-67.5T510 264v-20q0-118-61-186T281-10q-107 0-168 67.5T52 244v20q0 118 61 185.5T281 517zm106-293v60q0 101-25.5 149.5T281 482q-54 0-80-48.5T175 284v-60q0-101 26-150t80-49q54 0 80 48.5T387 224zM137 674h287v-55H137z" glyph-name="omacron" horiz-adv-x="562" unicode="ō"/><glyph d="M78 472l-55 7v28h186v-82q31 46 67 69t78 23q37 0 64.5-23.5T462 425l-89-48q-13 36-30.5 53T301 447q-25 0-46-16t-40-50V84q0-34 3-40.5t19-8.5l75-7V0H23v28l55 7q16 2 19 9t3 40v339q0 33-3 40t-19 9zm184 107l-24 21q28 44 41 74.5t21 65.5h126q-34-46-71-83t-93-78z" glyph-name="racute" horiz-adv-x="462" unicode="ŕ"/><glyph d="M78 472l-55 7v28h186v-82q31 46 67 69t78 23q37 0 64.5-23.5T462 425l-89-48q-13 36-30.5 53T301 447q-25 0-46-16t-40-50V84q0-34 3-40.5t19-8.5l75-7V0H23v28l55 7q16 2 19 9t3 40v339q0 33-3 40t-19 9zm308 273l14-22q-34-39-51.5-64.5T307 584h-88q-24 49-41.5 74.5T126 723l14 22q35-20 67.5-43t59.5-46q24 22 55.5 45.5T386 745z" glyph-name="rcaron" horiz-adv-x="462" unicode="ř"/><glyph d="M78 472l-55 7v28h186v-82q31 46 67 69t78 23q37 0 64.5-23.5T462 425l-89-48q-13 36-30.5 53T301 447q-25 0-46-16t-40-50V84q0-34 3-40.5t19-8.5l75-7V0H23v28l55 7q16 2 19 9t3 40v339q0 33-3 40t-19 9zm0-720l-19 18q17 36 27.5 72T102-77h113q-24-48-58-90.5T78-248z" glyph-name="rcommaaccent" horiz-adv-x="462" unicode="ŗ"/><glyph d="M338 105q0 32-21.5 53T251 189l-69 16q-64 15-98 55.5T50 361q0 72 47.5 114T231 517q94 0 145-44.5T415 360l-110-20q14 66-7 104t-72 38q-37 0-59-21t-22-58q0-37 21-62.5t58-34.5l69-16q71-17 105.5-52.5T433 146q0-72-52.5-114T236-10q-75 0-127 33t-70 96l65 26q6-58 40.5-89T236 25q47 0 74.5 21.5T338 105zm25 640l14-22q-34-39-51.5-64.5T284 584h-88q-24 49-41.5 74.5T103 723l14 22q35-20 67.5-43t59.5-46q24 22 55.5 45.5T363 745z" glyph-name="scaron" horiz-adv-x="480" unicode="š"/><glyph d="M338 105q0 32-21.5 53T251 189l-69 16q-64 15-98 55.5T50 361q0 72 47.5 114T231 517q94 0 145-44.5T415 360l-110-20q14 66-7 104t-72 38q-37 0-59-21t-22-58q0-37 21-62.5t58-34.5l69-16q71-17 105.5-52.5T433 146q0-72-52.5-114T236-10q-75 0-127 33t-70 96l65 26q6-58 40.5-89T236 25q47 0 74.5 21.5T338 105zm-99 474l-24 21q28 44 41 74.5t21 65.5h126q-34-46-71-83t-93-78z" glyph-name="sacute" horiz-adv-x="480" unicode="ś"/><glyph d="M355-140q0-38-32.5-60.5T236-223q-48 0-76 19.5T125-145l55 14q3-31 15-45.5t33-14.5q21 0 32.5 13t11.5 38q0 27-13 40t-39 13q-3 0-7-.5T200-89l-13 26 22 54Q143-3 99 30t-60 89l65 26q6-58 40.5-89T236 25q47 0 74.5 21.5T338 105q0 32-21.5 53T251 189l-69 16q-64 15-98 55.5T50 361q0 72 47.5 114T231 517q94 0 145-44.5T415 360l-110-20q14 66-7 104t-72 38q-37 0-59-21t-22-58q0-37 21-62.5t58-34.5l69-16q71-17 105.5-52.5T433 146q0-68-49-110T249-10l-19-45q58-2 91.5-24.5T355-140z" glyph-name="scedilla" horiz-adv-x="480" unicode="ş"/><glyph d="M338 105q0 32-21.5 53T251 189l-69 16q-64 15-98 55.5T50 361q0 72 47.5 114T231 517q94 0 145-44.5T415 360l-110-20q14 66-7 104t-72 38q-37 0-59-21t-22-58q0-37 21-62.5t58-34.5l69-16q71-17 105.5-52.5T433 146q0-72-52.5-114T236-10q-75 0-127 33t-70 96l65 26q6-58 40.5-89T236 25q47 0 74.5 21.5T338 105zm39 496l-14-22q-37 21-70 44.5T236 668q-24-22-55.5-45.5T117 579l-14 22q34 39 51.5 64.5T196 740h88q24-49 41.5-74.5T377 601z" glyph-name="scircumflex" horiz-adv-x="480" unicode="ŝ"/><glyph d="M338 105q0 32-21.5 53T251 189l-69 16q-64 15-98 55.5T50 361q0 72 47.5 114T231 517q94 0 145-44.5T415 360l-110-20q14 66-7 104t-72 38q-37 0-59-21t-22-58q0-37 21-62.5t58-34.5l69-16q71-17 105.5-52.5T433 146q0-72-52.5-114T236-10q-75 0-127 33t-70 96l65 26q6-58 40.5-89T236 25q47 0 74.5 21.5T338 105zM160-248l-19 18q17 36 27.5 72T184-77h113q-24-48-58-90.5T160-248z" glyph-name="uni0219" horiz-adv-x="480" unicode="ș"/><glyph d="M334 119l60-15q-12-57-47-85.5T256-10q-72 0-112.5 46T103 159v121H26v35h77v108q0 33-3 40t-19 9l-55 7v28h77v116l115 23V507h160v-35H218V315h128v-35H218V139q0-57 14-85t43-28q28 0 41.5 22t17.5 71z" glyph-name="tbar" horiz-adv-x="410" unicode="ŧ"/><glyph d="M319 119l60-15q-12-57-47-85.5T241-10q-72 0-112.5 46T88 159v264q0 33-3 40t-19 9l-55 7v28h77v116l115 23V507h160v-35H203V139q0-57 14-85t43-28q28 0 41.5 22t17.5 71zm-35 437h-24v214h109q-19-60-39-109.5T284 556z" glyph-name="tcaron" horiz-adv-x="395" unicode="ť"/><glyph d="M319 119l60-15q-12-57-47-85.5T241-10q-72 0-112.5 46T88 159v264q0 33-3 40t-19 9l-55 7v28h77v116l115 23V507h160v-35H203V139q0-57 14-85t43-28q28 0 41.5 22t17.5 71zM153-248l-19 18q17 36 27.5 72T177-77h113q-24-48-58-90.5T153-248z" glyph-name="uni0163" horiz-adv-x="395" unicode="ţ"/><glyph d="M319 119l60-15q-12-57-47-85.5T241-10q-72 0-112.5 46T88 159v264q0 33-3 40t-19 9l-55 7v28h77v116l115 23V507h160v-35H203V139q0-57 14-85t43-28q28 0 41.5 22t17.5 71zM153-248l-19 18q17 36 27.5 72T177-77h113q-24-48-58-90.5T153-248z" glyph-name="uni021B" horiz-adv-x="395" unicode="ț"/><glyph d="M535 35l55-7V0H404v88q-25-47-68-72.5T243-10q-72 0-113.5 48T88 170v253q0 33-3 40t-19 9l-55 7v28h192V171q0-67 18.5-99.5T279 39q37 0 68.5 27t50.5 77v280q0 34-3 40.5t-19 8.5l-75 7v28h212V84q0-33 3-40t19-9zM298 579l-24 21q28 44 41 74.5t21 65.5h126q-34-46-71-83t-93-78z" glyph-name="uacute" horiz-adv-x="606" unicode="ú"/><glyph d="M535 35l55-7V0H404v88q-25-47-68-72.5T243-10q-72 0-113.5 48T88 170v253q0 33-3 40t-19 9l-55 7v28h192V171q0-67 18.5-99.5T279 39q37 0 68.5 27t50.5 77v280q0 34-3 40.5t-19 8.5l-75 7v28h212V84q0-33 3-40t19-9zm-99 566l-14-22q-37 21-70 44.5T295 668q-24-22-55.5-45.5T176 579l-14 22q34 39 51.5 64.5T255 740h88q24-49 41.5-74.5T436 601z" glyph-name="ucircumflex" horiz-adv-x="606" unicode="û"/><glyph d="M535 35l55-7V0H404v88q-25-47-68-72.5T243-10q-72 0-113.5 48T88 170v253q0 33-3 40t-19 9l-55 7v28h192V171q0-67 18.5-99.5T279 39q37 0 68.5 27t50.5 77v280q0 34-3 40.5t-19 8.5l-75 7v28h212V84q0-33 3-40t19-9zM256 663q0-28-17.5-45.5T193 600q-28 0-45 17.5T131 663q0 28 17 45t45 17q28 0 45.5-17.5T256 663zm210 0q0-28-17.5-45.5T403 600q-28 0-45 17.5T341 663q0 28 17 45t45 17q28 0 45.5-17.5T466 663z" glyph-name="udieresis" horiz-adv-x="606" unicode="ü"/><glyph d="M535 35l55-7V0H404v88q-25-47-68-72.5T243-10q-72 0-113.5 48T88 170v253q0 33-3 40t-19 9l-55 7v28h192V171q0-67 18.5-99.5T279 39q37 0 68.5 27t50.5 77v280q0 34-3 40.5t-19 8.5l-75 7v28h212V84q0-33 3-40t19-9zM324 600l-24-21q-56 41-93 78t-71 83h126q8-35 21-65.5t41-74.5z" glyph-name="ugrave" horiz-adv-x="606" unicode="ù"/><glyph d="M535 35l55-7V0H404v88q-25-47-68-72.5T243-10q-72 0-113.5 48T88 170v253q0 33-3 40t-19 9l-55 7v28h192V171q0-67 18.5-99.5T279 39q37 0 68.5 27t50.5 77v280q0 34-3 40.5t-19 8.5l-75 7v28h212V84q0-33 3-40t19-9zM299 661q48 0 75.5 20.5T412 745l33-10q-15-77-51.5-116.5T299 579q-58 0-94.5 39.5T153 735l33 10q10-43 37.5-63.5T299 661z" glyph-name="ubreve" horiz-adv-x="606" unicode="ŭ"/><glyph d="M535 35l55-7V0H404v88q-25-47-68-72.5T243-10q-72 0-113.5 48T88 170v253q0 33-3 40t-19 9l-55 7v28h192V171q0-67 18.5-99.5T279 39q37 0 68.5 27t50.5 77v280q0 34-3 40.5t-19 8.5l-75 7v28h212V84q0-33 3-40t19-9zM219 579l-27 24q20 30 32 61.5t22 75.5h111q-28-45-61-83.5T219 579zm140 0l-27 24q20 30 32 61.5t22 75.5h111q-28-45-61-83.5T359 579z" glyph-name="uhungarumlaut" horiz-adv-x="606" unicode="ű"/><glyph d="M535 35l55-7V0H404v88q-25-47-68-72.5T243-10q-72 0-113.5 48T88 170v253q0 33-3 40t-19 9l-55 7v28h192V171q0-67 18.5-99.5T279 39q37 0 68.5 27t50.5 77v280q0 34-3 40.5t-19 8.5l-75 7v28h212V84q0-33 3-40t19-9zM155 674h287v-55H155z" glyph-name="umacron" horiz-adv-x="606" unicode="ū"/><glyph d="M376 472l-75 7v28h212V84q0-33 3-40t19-9l55-7V0h-48q-64 0-102.5-36T401-129q0-29 11-44.5t32-15.5q24 0 38 19t19 58l64-13q-13-48-46.5-73T436-223q-52 0-85 25.5T318-130q0 34 23 65.5T404-10v98q-25-47-68-72.5T243-10q-72 0-113.5 48T88 170v253q0 33-3 40t-19 9l-55 7v28h192V171q0-67 18.5-99.5T279 39q37 0 68.5 27t50.5 77v280q0 34-3 40.5t-19 8.5z" glyph-name="uogonek" horiz-adv-x="606" unicode="ų"/><glyph d="M535 35l55-7V0H404v88q-25-47-68-72.5T243-10q-72 0-113.5 48T88 170v253q0 33-3 40t-19 9l-55 7v28h192V171q0-67 18.5-99.5T279 39q37 0 68.5 27t50.5 77v280q0 34-3 40.5t-19 8.5l-75 7v28h212V84q0-33 3-40t19-9zM299 803q53 0 88-33.5t35-80.5v-11q0-47-35-81t-88-34q-53 0-88 33.5T176 678v11q0 48 34.5 81t88.5 33zm50-132v25q0 40-12.5 60T299 776q-25 0-37-20t-12-60v-25q0-41 12-61t37-20q25 0 37.5 20.5T349 671z" glyph-name="uring" horiz-adv-x="606" unicode="ů"/><glyph d="M535 35l55-7V0H404v88q-25-47-68-72.5T243-10q-72 0-113.5 48T88 170v253q0 33-3 40t-19 9l-55 7v28h192V171q0-67 18.5-99.5T279 39q37 0 68.5 27t50.5 77v280q0 34-3 40.5t-19 8.5l-75 7v28h212V84q0-33 3-40t19-9zM361 583q-17 0-35 9.5T278 632q-22 21-32 27.5t-19 6.5q-17 0-26.5-18T186 588h-36q8 82 29.5 119.5T239 745q17 0 34-9.5t46-38.5q22-22 33-28.5t20-6.5q16 0 25 17.5t15 60.5h36q-8-82-29-119.5T361 583z" glyph-name="utilde" horiz-adv-x="606" unicode="ũ"/><glyph d="M715 423L606 0h-91L395 402 274 0h-83L83 423q-9 33-13.5 40T50 472l-55 7v28h266v-28l-55-7q-17-2-18-10t7-39l78-301 115 385h88l119-402 81 318q8 31 7 39t-18 10l-55 7v28h193v-28l-55-7q-15-2-19.5-9T715 423zM430 579l-24 21q28 44 41 74.5t21 65.5h126q-34-46-71-83t-93-78z" glyph-name="wacute" horiz-adv-x="798" unicode="ẃ"/><glyph d="M715 423L606 0h-91L395 402 274 0h-83L83 423q-9 33-13.5 40T50 472l-55 7v28h266v-28l-55-7q-17-2-18-10t7-39l78-301 115 385h88l119-402 81 318q8 31 7 39t-18 10l-55 7v28h193v-28l-55-7q-15-2-19.5-9T715 423zM568 601l-14-22q-37 21-70 44.5T427 668q-24-22-55.5-45.5T308 579l-14 22q34 39 51.5 64.5T387 740h88q24-49 41.5-74.5T568 601z" glyph-name="wcircumflex" horiz-adv-x="798" unicode="ŵ"/><glyph d="M715 423L606 0h-91L395 402 274 0h-83L83 423q-9 33-13.5 40T50 472l-55 7v28h266v-28l-55-7q-17-2-18-10t7-39l78-301 115 385h88l119-402 81 318q8 31 7 39t-18 10l-55 7v28h193v-28l-55-7q-15-2-19.5-9T715 423zM388 663q0-28-17.5-45.5T325 600q-28 0-45 17.5T263 663q0 28 17 45t45 17q28 0 45.5-17.5T388 663zm210 0q0-28-17.5-45.5T535 600q-28 0-45 17.5T473 663q0 28 17 45t45 17q28 0 45.5-17.5T598 663z" glyph-name="wdieresis" horiz-adv-x="798" unicode="ẅ"/><glyph d="M715 423L606 0h-91L395 402 274 0h-83L83 423q-9 33-13.5 40T50 472l-55 7v28h266v-28l-55-7q-17-2-18-10t7-39l78-301 115 385h88l119-402 81 318q8 31 7 39t-18 10l-55 7v28h193v-28l-55-7q-15-2-19.5-9T715 423zM456 600l-24-21q-56 41-93 78t-71 83h126q8-35 21-65.5t41-74.5z" glyph-name="wgrave" horiz-adv-x="798" unicode="ẁ"/><glyph d="M464 427L303-50q-36-98-83.5-135.5T85-223v110q86 0 128 18.5T272-30l10 30h-52L88 423q-11 32-16 39.5T50 472l-55 7v28h270v-28l-55-7q-15-2-15-11.5t9-37.5L313 93l113 334q10 30 9.5 36.5T419 472l-55 7v28h191v-28l-55-7q-16-2-21-9t-15-36zM308 579l-24 21q28 44 41 74.5t21 65.5h126q-34-46-71-83t-93-78z" glyph-name="yacute" horiz-adv-x="550" unicode="ý"/><glyph d="M464 427L303-50q-36-98-83.5-135.5T85-223v110q86 0 128 18.5T272-30l10 30h-52L88 423q-11 32-16 39.5T50 472l-55 7v28h270v-28l-55-7q-15-2-15-11.5t9-37.5L313 93l113 334q10 30 9.5 36.5T419 472l-55 7v28h191v-28l-55-7q-16-2-21-9t-15-36zM266 663q0-28-17.5-45.5T203 600q-28 0-45 17.5T141 663q0 28 17 45t45 17q28 0 45.5-17.5T266 663zm210 0q0-28-17.5-45.5T413 600q-28 0-45 17.5T351 663q0 28 17 45t45 17q28 0 45.5-17.5T476 663z" glyph-name="ydieresis" horiz-adv-x="550" unicode="ÿ"/><glyph d="M464 427L303-50q-36-98-83.5-135.5T85-223v110q86 0 128 18.5T272-30l10 30h-52L88 423q-11 32-16 39.5T50 472l-55 7v28h270v-28l-55-7q-15-2-15-11.5t9-37.5L313 93l113 334q10 30 9.5 36.5T419 472l-55 7v28h191v-28l-55-7q-16-2-21-9t-15-36zm-18 174l-14-22q-37 21-70 44.5T305 668q-24-22-55.5-45.5T186 579l-14 22q34 39 51.5 64.5T265 740h88q24-49 41.5-74.5T446 601z" glyph-name="ycircumflex" horiz-adv-x="550" unicode="ŷ"/><glyph d="M464 427L303-50q-36-98-83.5-135.5T85-223v110q86 0 128 18.5T272-30l10 30h-52L88 423q-11 32-16 39.5T50 472l-55 7v28h270v-28l-55-7q-15-2-15-11.5t9-37.5L313 93l113 334q10 30 9.5 36.5T419 472l-55 7v28h191v-28l-55-7q-16-2-21-9t-15-36zM334 600l-24-21q-56 41-93 78t-71 83h126q8-35 21-65.5t41-74.5z" glyph-name="ygrave" horiz-adv-x="550" unicode="ỳ"/><glyph d="M370 61l27 91h28V0H38v25l251 447H159q-32 0-40-3t-14-23l-27-91H50v152h365v-25L164 35h152q32 0 40 3t14 23zm-14 684l14-22q-34-39-51.5-64.5T277 584h-88q-24 49-41.5 74.5T96 723l14 22q35-20 67.5-43t59.5-46q24 22 55.5 45.5T356 745z" glyph-name="zcaron" horiz-adv-x="465" unicode="ž"/><glyph d="M370 61l27 91h28V0H38v25l251 447H159q-32 0-40-3t-14-23l-27-91H50v152h365v-25L164 35h152q32 0 40 3t14 23zM232 579l-24 21q28 44 41 74.5t21 65.5h126q-34-46-71-83t-93-78z" glyph-name="zacute" horiz-adv-x="465" unicode="ź"/><glyph d="M370 61l27 91h28V0H38v25l251 447H159q-32 0-40-3t-14-23l-27-91H50v152h365v-25L164 35h152q32 0 40 3t14 23zm-67 602q0-31-19.5-50.5T233 593q-31 0-50 19.5T164 663q0 31 19 50t50 19q31 0 50.5-19.5T303 663z" glyph-name="zdotaccent" horiz-adv-x="465" unicode="ż"/><glyph d="M232 579l-24 21q28 44 41 74.5t21 65.5h126q-34-46-71-83t-93-78z" glyph-name="acute" horiz-adv-x="500" unicode="´"/><glyph d="M334 600l-24-21q-56 41-93 78t-71 83h126q8-35 21-65.5t41-74.5z" glyph-name="grave" horiz-adv-x="500" unicode="`"/><glyph d="M446 601l-14-22q-37 21-70 44.5T305 668q-24-22-55.5-45.5T186 579l-14 22q34 39 51.5 64.5T265 740h88q24-49 41.5-74.5T446 601z" glyph-name="circumflex" horiz-adv-x="500" unicode="ˆ"/><glyph d="M356 745l14-22q-34-39-51.5-64.5T277 584h-88q-24 49-41.5 74.5T96 723l14 22q35-20 67.5-43t59.5-46q24 22 55.5 45.5T356 745z" glyph-name="caron" horiz-adv-x="500" unicode="ˇ"/><glyph d="M361 583q-17 0-35 9.5T278 632q-22 21-32 27.5t-19 6.5q-17 0-26.5-18T186 588h-36q8 82 29.5 119.5T239 745q17 0 34-9.5t46-38.5q22-22 33-28.5t20-6.5q16 0 25 17.5t15 60.5h36q-8-82-29-119.5T361 583z" glyph-name="tilde" horiz-adv-x="500" unicode="˜"/><glyph d="M266 663q0-28-17.5-45.5T203 600q-28 0-45 17.5T141 663q0 28 17 45t45 17q28 0 45.5-17.5T266 663zm210 0q0-28-17.5-45.5T413 600q-28 0-45 17.5T351 663q0 28 17 45t45 17q28 0 45.5-17.5T476 663z" glyph-name="dieresis" horiz-adv-x="500" unicode="¨"/><glyph d="M299 803q53 0 88-33.5t35-80.5v-11q0-47-35-81t-88-34q-53 0-88 33.5T176 678v11q0 48 34.5 81t88.5 33zm50-132v25q0 40-12.5 60T299 776q-25 0-37-20t-12-60v-25q0-41 12-61t37-20q25 0 37.5 20.5T349 671z" glyph-name="ring" horiz-adv-x="500" unicode="˚"/><glyph d="M365-140q0-38-32.5-60.5T246-223q-48 0-76 19.5T135-145l55 14q3-31 15-45.5t33-14.5q21 0 32.5 13t11.5 38q0 27-13 40t-39 13q-3 0-7-.5T210-89l-13 26 26 63h40l-23-55q58-2 91.5-24.5T365-140z" glyph-name="cedilla" horiz-adv-x="500" unicode="¸"/><glyph d="M219 579l-27 24q20 30 32 61.5t22 75.5h111q-28-45-61-83.5T219 579zm140 0l-27 24q20 30 32 61.5t22 75.5h111q-28-45-61-83.5T359 579z" glyph-name="hungarumlaut" horiz-adv-x="500" unicode="˝"/><glyph d="M299 661q48 0 75.5 20.5T412 745l33-10q-15-77-51.5-116.5T299 579q-58 0-94.5 39.5T153 735l33 10q10-43 37.5-63.5T299 661z" glyph-name="breve" horiz-adv-x="500" unicode="˘"/><glyph d="M155 674h287v-55H155z" glyph-name="macron" horiz-adv-x="500" unicode="¯"/><glyph d="M303 663q0-31-19.5-50.5T233 593q-31 0-50 19.5T164 663q0 31 19 50t50 19q31 0 50.5-19.5T303 663z" glyph-name="dotaccent" horiz-adv-x="500" unicode="˙"/><glyph d="M391 385q0-31-19.5-50.5T321 315q-31 0-50 19.5T252 385q0 31 19 50t50 19q31 0 50.5-19.5T391 385z" glyph-name="periodcentered" horiz-adv-x="500" unicode="·"/><glyph d="M245-223q-52 0-85 25.5T127-130q0 63 72 111.5T351 30V0q-64 0-102.5-36T210-129q0-29 11-44.5t32-15.5q24 0 38 19t19 58l64-13q-13-48-46.5-73T245-223z" glyph-name="ogonek" horiz-adv-x="500" unicode="˛"/><glyph d="M153-248l-19 18q17 36 27.5 72T177-77h113q-24-48-58-90.5T153-248z" glyph-name="commaaccent" horiz-adv-x="500" unicode=""/><glyph d="M284 556h-24v214h109q-19-60-39-109.5T284 556z" glyph-name="caron.alt" horiz-adv-x="500"/><glyph d="M331 755l19-18q-17-36-27.5-72T307 584H194q24 48 58 90.5t79 80.5z" glyph-name="revcommaaccent" horiz-adv-x="500"/><glyph d="M198 61q0-32-20-51.5T127-10Q95-10 76 9.5T57 61q0 32 19.5 51t50.5 19q31 0 51-19.5T198 61z" glyph-name="period" horiz-adv-x="255" unicode="."/><glyph d="M128 125q31 0 49.5-22T196 44q0-43-30.5-103T78-186l-23 20q37 45 55.5 82.5T131-10h-3Q98-10 79.5 8.5T61 58q0 30 18.5 48.5T128 125z" glyph-name="comma" horiz-adv-x="255" unicode=","/><glyph d="M198 447q0-32-20-51.5T127 376q-32 0-51 19.5T57 447q0 32 19.5 51t50.5 19q31 0 51-19.5t20-50.5zm0-386q0-32-20-51.5T127-10Q95-10 76 9.5T57 61q0 32 19.5 51t50.5 19q31 0 51-19.5T198 61z" glyph-name="colon" horiz-adv-x="255" unicode=":"/><glyph d="M198 447q0-32-20-51.5T127 376q-32 0-51 19.5T57 447q0 32 19.5 51t50.5 19q31 0 51-19.5t20-50.5zm-70-322q31 0 49.5-22T196 44q0-43-30.5-103T78-186l-23 20q37 45 55.5 82.5T131-10h-3Q98-10 79.5 8.5T61 58q0 30 18.5 48.5T128 125z" glyph-name="semicolon" horiz-adv-x="255" unicode=";"/><glyph d="M598 61q0-32-20-51.5T527-10q-32 0-51 19.5T457 61q0 32 19.5 51t50.5 19q31 0 51-19.5T598 61zm0 0q0-32-20-51.5T527-10q-32 0-51 19.5T457 61q0 32 19.5 51t50.5 19q31 0 51-19.5T598 61zm0 0q0-32-20-51.5T527-10q-32 0-51 19.5T457 61q0 32 19.5 51t50.5 19q31 0 51-19.5T598 61z" glyph-name="ellipsis" horiz-adv-x="655" unicode="…"/><glyph d="M260 219l2-17h-51v16q0 37 10.5 65t44.5 66q39 42 51 77t12 83q0 71-22.5 108.5T241 655q-52 0-73.5-47.5T156 467L41 483q-16 90 39 148.5T242 690q99 0 155.5-47T454 519q0-46-20.5-81.5T347 357q-59-41-75-70.5T260 219zm46-158q0-32-20-51.5T235-10q-32 0-51 19.5T165 61q0 32 19.5 51t50.5 19q31 0 51-19.5T306 61z" glyph-name="question" horiz-adv-x="492" unicode="?"/><glyph d="M166 463q-13-88-17-143.5T145 202h-35q0 62-4 117.5T89 463q-12 78-15.5 123T70 680h115q0-49-3.5-94T166 463zm32-402q0-32-20-51.5T127-10Q95-10 76 9.5T57 61q0 32 19.5 51t50.5 19q31 0 51-19.5T198 61z" glyph-name="exclam" horiz-adv-x="255" unicode="!"/><glyph d="M189 446q0 32 20 51.5t51 19.5q32 0 51-19.5t19-51.5q0-31-19-50.5T260 376q-31 0-51 19.5T189 446zm46-158l-2 17h51v-16q0-37-10.5-65T229 158q-39-42-51-77T166-2q0-71 22.5-108.5T254-148q52 0 73.5 47.5T339 40l115-16q16-90-39-148.5T253-183q-99 0-155.5 47T41-12q0 46 20.5 81.5T148 150q59 41 75 70.5t12 67.5z" glyph-name="questiondown" horiz-adv-x="492" unicode="¿"/><glyph d="M57 446q0 32 20 51.5t51 19.5q32 0 51-19.5t19-51.5q0-31-19-50.5T128 376q-31 0-51 19.5T57 446zM89 44q13 88 17 143.5t4 117.5h35q0-62 4-117.5T166 44q12-78 15.5-123t3.5-94H70q0 49 3.5 94T89 44z" glyph-name="exclamdown" horiz-adv-x="255" unicode="¡"/><glyph d="M56 280v37q0 122 59 227t185 206l23-24q-72-67-108-168.5T179 317v-37q0-139 36-240.5T323-129l-23-24Q174-52 115 53T56 280z" glyph-name="parenleft" horiz-adv-x="333" unicode="("/><glyph d="M277 317v-37q0-122-59-227T33-153l-23 24Q82-62 118 39.5T154 280v37q0 139-36 240.5T10 726l23 24q126-101 185-206t59-227z" glyph-name="parenright" horiz-adv-x="333" unicode=")"/><glyph d="M297-109h85v-35h-85q-100 0-147 50T127 41l30 106q15 54 2 94t-44 40H32v35h83q31 0 44 39.5t-2 93.5l-30 106q-24 85 23 135t147 50h85v-35h-85q-45 0-60-34t3-97l30-106q18-65-6-109.5T180 298q60-16 84-60.5t6-109.5L240 22q-18-63-3-97t60-34z" glyph-name="braceleft" horiz-adv-x="392" unicode="{"/><glyph d="M235 147l30-106q24-85-23-135T95-144H10v35h85q45 0 60 34t-3 97l-30 106q-18 65 6 109.5t84 60.5q-60 16-84 60.5T122 468l30 106q18 63 3 97t-60 34H10v35h85q100 0 147-50t23-135l-30-106q-15-54-2-94t44-40h83v-35h-83q-31 0-44-39.5t2-93.5z" glyph-name="braceright" horiz-adv-x="392" unicode="}"/><glyph d="M340 740v-35H210v-813h130v-35H95v883z" glyph-name="bracketleft" horiz-adv-x="350" unicode="["/><glyph d="M10 705v35h245v-883H10v35h130v813z" glyph-name="bracketright" horiz-adv-x="350" unicode="]"/><glyph d="M-22-128l346 868 39-15L17-143z" glyph-name="slash" horiz-adv-x="373" unicode="/"/><glyph d="M10 725l39 15 346-868-39-15z" glyph-name="backslash" horiz-adv-x="373" unicode="\"/><glyph d="M401-145H17v35h384z" glyph-name="underscore" horiz-adv-x="418" unicode="_"/><glyph d="M324 317H60v35h264z" glyph-name="hyphen" horiz-adv-x="384" unicode="-"/><glyph glyph-name="uni00AD" horiz-adv-x="0" unicode="­"/><glyph d="M524 317H60v35h464z" glyph-name="endash" horiz-adv-x="584" unicode="–"/><glyph d="M724 317H60v35h664z" glyph-name="emdash" horiz-adv-x="784" unicode="—"/><glyph d="M83 357v383h40V357zm0-570v383h40v-383z" glyph-name="brokenbar" horiz-adv-x="206" unicode="¦"/><glyph d="M88-213v953h40v-953z" glyph-name="bar" horiz-adv-x="216" unicode="|"/><glyph d="M430 244L596 30l-21-20-275 222v24l275 222 21-20zm-250 0L346 30l-21-20L50 232v24l275 222 21-20z" glyph-name="guillemotleft" horiz-adv-x="651" unicode="«"/><glyph d="M221 244L55 458l21 20 275-222v-24L76 10 55 30zm250 0L305 458l21 20 275-222v-24L326 10l-21 20z" glyph-name="guillemotright" horiz-adv-x="651" unicode="»"/><glyph d="M180 244L346 30l-21-20L50 232v24l275 222 21-20z" glyph-name="guilsinglleft" horiz-adv-x="401" unicode="‹"/><glyph d="M221 245L55 459l21 20 275-222v-24L76 11 55 31z" glyph-name="guilsinglright" horiz-adv-x="401" unicode="›"/><glyph d="M128 121q30 0 48-21.5T194 42q0-41-27-95T92-162l-23 20q30 36 45 68t17 64h-3Q99-10 81 8T63 56q0 29 18 47t47 18z" glyph-name="quotesinglbase" horiz-adv-x="255" unicode="‚"/><glyph d="M128 121q30 0 48-21.5T194 42q0-41-27-95T92-162l-23 20q30 36 45 68t17 64h-3Q99-10 81 8T63 56q0 29 18 47t47 18zm193 0q30 0 48-21.5T387 42q0-41-27-95t-75-109l-23 20q30 36 45 68t17 64h-3q-29 0-47 18t-18 48q0 29 18 47t47 18z" glyph-name="quotedblbase" horiz-adv-x="448" unicode="„"/><glyph d="M193 472q0-29-18-47t-47-18q-30 0-48 21.5T62 486q0 41 27 95t75 109l23-20q-30-36-45-68t-17-64h3q29 0 47-18t18-48z" glyph-name="quoteleft" horiz-adv-x="255" unicode="‘"/><glyph d="M386 472q0-29-18-47t-47-18q-30 0-48 21.5T255 486q0 41 27 95t75 109l23-20q-30-36-45-68t-17-64h3q29 0 47-18t18-48zm-193 0q0-29-18-47t-47-18q-30 0-48 21.5T62 486q0 41 27 95t75 109l23-20q-30-36-45-68t-17-64h3q29 0 47-18t18-48z" glyph-name="quotedblleft" horiz-adv-x="448" unicode="“"/><glyph d="M39 690q30 0 48-21.5t18-57.5q0-41-27-95T3 407l-23 20q30 36 45 68t17 64h-3q-29 0-47 18t-18 48q0 29 18 47t47 18z" glyph-name="quoteright" horiz-adv-x="255" unicode="’"/><glyph d="M127 690q30 0 48-21.5t18-57.5q0-41-27-95T91 407l-23 20q30 36 45 68t17 64h-3q-29 0-47 18t-18 48q0 29 18 47t47 18zm193 0q30 0 48-21.5t18-57.5q0-41-27-95t-75-109l-23 20q30 36 45 68t17 64h-3q-29 0-47 18t-18 48q0 29 18 47t47 18z" glyph-name="quotedblright" horiz-adv-x="448" unicode="”"/><glyph d="M172 555q-19-44-25-77t-6-71h-25q0 38-6.5 71T85 555q-12 27-15 40t-3 26q0 31 17 50t44 19q27 0 44-19t17-50q0-13-3-26t-14-40z" glyph-name="quotesingle" horiz-adv-x="256" unicode="'"/><glyph d="M172 555q-19-44-25-77t-6-71h-25q0 38-6.5 71T85 555q-12 27-15 40t-3 26q0 31 17 50t44 19q27 0 44-19t17-50q0-13-3-26t-14-40zm193 0q-19-44-25-77t-6-71h-25q0 38-6.5 71T278 555q-12 27-15 40t-3 26q0 31 17 50t44 19q27 0 44-19t17-50q0-13-3-26t-14-40z" glyph-name="quotedbl" horiz-adv-x="449" unicode="&quot;"/><glyph d="M225 334q0-41-26-67.5T132 240q-41 0-67 26.5T39 334q0 40 26.5 66t66.5 26q40 0 66.5-26t26.5-66z" glyph-name="bullet" horiz-adv-x="264" unicode="•"/><glyph d="M161 159q0-64 26-98t75-34q71 0 96 64.5T342 237l89 58L553 69q12-22 19-29.5t27-9.5l49-5V0H469l-66 124q-5-62-46.5-98T246-10q-95 0-150 42.5T41 149q0 59 43.5 108T224 358q-71 30-109.5 74.5T76 530q0 67 53.5 113.5T264 690q84 0 136.5-44.5T453 533q0-51-35-93t-121-89l-35-19q-53-29-77-70t-24-103zm104 496q-34 0-51.5-29.5T196 537q0-52 15-91.5t46-69.5l8 4q35 19 51.5 56t16.5 95q0 61-17.5 92.5T265 655z" glyph-name="ampersand" horiz-adv-x="624" unicode="&amp;"/><glyph d="M35 472v23q0 88 57 136.5T254 680h301v-28l-55-7q-16-2-19-9t-3-40V-59q0-33 3-40t19-9l55-7v-28H261v28l75 7q16 2 19 8.5t3 40.5v704h-63V286h-41q-105 0-162 49T35 472z" glyph-name="paragraph" horiz-adv-x="598" unicode="¶"/><glyph d="M288 270v-3q0-28-3-55.5T273 130q-15-82-20-142t-5-131h-35q0 71-5 131t-20 142q-9 54-12 81.5t-3 55.5v3q0 21 3.5 40t15.5 50q13 33 17 54t4 45q-22-1-41.5-5T120 438q-31-12-50-15.5T30 419v112q21 0 40-3.5t50-15.5q32-12 51.5-16t41.5-5q0 24-4 45t-17 54q-12 32-15.5 50.5T173 680h115q0-21-3.5-40T269 590q-13-33-17-54t-4-45q22 1 42 5t52 16q31 12 50 15.5t40 3.5V419q-21 0-40 3.5T342 438q-32 12-52 16t-42 5q0-24 4-45t17-54q12-32 15.5-50.5T288 270z" glyph-name="dagger" horiz-adv-x="462" unicode="†"/><glyph d="M446 118V6q-21 0-40 3.5T356 25q-32 12-52 16t-42 5q0-24 4-45t17-54q12-32 15.5-50.5T302-143H187q0 21 3.5 40T206-53q13 33 17 54t4 45q-22-1-41.5-5T134 25Q103 13 84 9.5T44 6v112q21 0 40-3.5T134 99q32-12 51.5-16t41.5-5q0 24-4 45t-17 54q-12 32-15.5 50.5T187 267v3q0 21 3.5 40t15.5 50q13 33 17 54t4 45q-22-1-41.5-5T134 438q-31-12-50-15.5T44 419v112q21 0 40-3.5t50-15.5q32-12 51.5-16t41.5-5q0 24-4 45t-17 54q-12 32-15.5 50.5T187 680h115q0-21-3.5-40T283 590q-13-33-17-54t-4-45q22 1 42 5t52 16q31 12 50 15.5t40 3.5V419q-21 0-40 3.5T356 438q-32 12-52 16t-42 5q0-24 4-45t17-54q12-32 15.5-50.5T302 270v-3q0-21-3.5-40T283 177q-13-33-17-54t-4-45q22 1 42 5t52 16q31 12 50 15.5t40 3.5z" glyph-name="daggerdbl" horiz-adv-x="490" unicode="‡"/><glyph d="M391 95q40-23 58.5-56.5T468-44q0-84-55-131.5T259-223q-93 0-148.5 44.5T44-49l67 24q6-82 42.5-122.5T258-188q56 0 86.5 25T375-92q0 40-23 63.5T272 14l-85 28q-61 20-98 67.5T52 214q0 48 28 89.5t77 66.5q-37 24-56.5 63T81 520q0 76 51 123t139 47q97 0 146.5-49.5T454 515l-115-21q14 80-6 120.5T260 655q-41 0-63.5-23.5T174 566q0-44 22.5-71.5T268 452l89-28q71-22 107.5-64.5T501 257q0-53-29-95t-81-67zm-142 53l85-28q4-1 6.5-2t3.5-2q32 12 48 34.5t16 55.5q0 41-26.5 67T295 318l-89 28q-4 1-6.5 2t-3.5 2q-25-12-38-34t-13-52q0-41 25.5-69.5T249 148z" glyph-name="section" horiz-adv-x="550" unicode="§"/><glyph d="M322 400q23-17 35.5-28.5T381 344l-77-56q-11 16-18.5 31T269 361q-9 32-19 52t-26 41q-15-21-25-40.5T180 363q-9-28-16.5-43T145 289l-77 56q11 16 23.5 27.5T127 401q28 19 43.5 34.5T202 472q-25 8-47 11.5t-55 2.5q-29 0-46 2t-35 8l30 91q18-6 33-14t38-25q26-20 46-30.5t45-18.5q0 26-3.5 48T193 600q-9 27-12 44t-3 36h95q0-19-3-36t-12-44q-11-31-14.5-53t-3.5-49q25 8 44 18t46 30q23 18 38 26t34 14l29-91q-18-6-35-8t-45-2q-34 1-56-2.5T248 471q15-21 31-37t43-34z" glyph-name="asterisk" horiz-adv-x="450" unicode="*"/><glyph d="M10 591v89h284v-89h-20l-10 50q-2 9-6 11t-21 2h-52V391q0-16 1.5-20t9.5-5l28-2v-24H80v24l28 2q8 1 9.5 5t1.5 20v263H67q-17 0-21-2t-6-11l-10-50zm703-225l28-2v-24H597v24l28 2q8 1 9.5 5t1.5 20v249L531 380h-29L401 628V391q0-16 1.5-20t9.5-5l28-2v-24H332v24l28 2q8 1 9.5 5t1.5 20v239q0 16-1.5 19.5T360 654l-28 3v23h117l87-214 86 214h119v-23l-28-3q-8-1-9.5-4.5T702 630V391q0-16 1.5-20t9.5-5z" glyph-name="trademark" horiz-adv-x="764" unicode="™"/><glyph d="M502 479q0-100-68-169t-166-69q-99 0-166.5 69T34 479q0 101 67.5 169.5T268 717q98 0 166-69t68-169zm-435 0q0-87 58-146.5T268 273q85 0 143 59.5T469 479q0 87-58 147t-143 60q-85 0-143-60T67 479zm108 108l-21 2v22h118q41 0 64.5-17.5T360 545v-16q0-21-12-37.5T315 468l43-69q7-12 9.5-14.5t8.5-3.5l18-2v-23h-76l-59 105h-21v-62q0-13 1-15t7-3l21-2v-23H154v23l21 2q6 1 7 4t1 14v170q0 11-1 14t-7 4zm97 0h-34V486h34q15 0 23.5 11t8.5 32v16q0 20-8.5 31T272 587z" glyph-name="registered" horiz-adv-x="536" unicode="®"/><glyph d="M794 340q0-159-107.5-268T422-37Q265-37 157.5 72T50 340q0 160 107 268.5T422 717q157 0 264.5-109T794 340zm-707 0q0-145 96.5-243.5T422-2q142 0 238.5 98.5T757 340q0 145-96.5 243.5T422 682q-142 0-238.5-98.5T87 340zm337 199q-55 0-82-41.5T315 371v-61q0-90 27.5-129.5T433 141q47 0 73 23t37 73l58-13q-15-57-60-86.5T428 108q-96 0-148.5 58T227 330v21q0 104 52 162.5T424 572q88 0 135-48.5T594 398l-77-9q10 71-14.5 110.5T424 539z" glyph-name="copyright" horiz-adv-x="844" unicode="©"/><glyph d="M714-116l20-51q-51-26-119.5-41T480-223q-190 0-307.5 121.5T55 214q0 205 125.5 340.5T499 690q173 0 286.5-117.5T899 278q0-121-61-202T686-5q-50 0-85 24.5T556 87q-31-49-67-73t-80-24q-81 0-122.5 72.5T265 246l4 22q17 96 77.5 152.5T489 477q42 0 75-17.5t52-49.5q23 12 42.5 26.5T694 467h27l-57-317q-12-64-5.5-92.5T693 29q70 0 119.5 72T862 278q0 162-103 269.5T499 655q-177 0-292-125T92 214Q92 34 198.5-77T480-188q69 0 128.5 18T714-116zM379 276l-10-60q-15-91-.5-141T423 25q35 0 67.5 33.5T556 161l39 217q-15 31-41 47.5T497 442q-46 0-75-40t-43-126z" glyph-name="at" horiz-adv-x="950" unicode="@"/><glyph d="M309 339q-26 0-43.5 10.5T241 379q-22-22-47-33t-53-11q-45 0-70.5 25T45 426q0 45 30 66t93 21h69v55q0 47-14.5 68.5T175 658q-35 0-48-22t-7-69l-59 7q-5 50 26.5 80.5T176 685q61 0 91.5-29.5T298 568V416q0-26 5-38t19-12q7 0 14.5 3t14.5 9l12-19q-11-10-24.5-15t-29.5-5zm-201 91q0-32 12-48t36-16q21 0 41 10.5t40 32.5v77h-64q-35 0-50-13t-15-43z" glyph-name="ordfeminine" horiz-adv-x="374" unicode="ª"/><glyph d="M196 685q70 0 109.5-45T345 517v-13q0-78-40-123.5T196 335q-70 0-109.5 45T47 504v13q0 78 39.5 123T196 685zm81-195v41q0 67-19 97t-62 30q-43 0-62-30t-19-97v-41q0-67 19-97.5t62-30.5q43 0 62 30.5t19 97.5z" glyph-name="ordmasculine" horiz-adv-x="392" unicode="º"/><glyph d="M549 245v-35H430L362-10 326 1l64 209H168L100-10 64 1l64 209H20v35h119l59 190H89v35h119l68 220 36-11-64-209h222l68 220 36-11-64-209h108v-35H499l-59-190zM237 435l-59-190h223l59 190z" glyph-name="numbersign" horiz-adv-x="638" unicode="#"/><glyph d="M884 685q78 0 122.5-46t44.5-127v-20q0-81-44.5-127.5T884 318q-78 0-122.5 46.5T717 492v20q0 81 44 127t123 46zm-364-40l-55 7v28h194v-28l-55-7q-16-2-19-9t-3-40V0h-55L160 593V84q0-33 3-40t19-9l55-7V0H43v28l55 7q16 2 19 9t3 40v512q0 33-3 40t-19 9l-55 7v28h201l298-479v395q0 33-3 40t-19 9zm445-173v60q0 61-20 91t-61 30q-41 0-61-30t-20-91v-60q0-61 20-91.5t61-30.5q41 0 61 30.5t20 91.5zm61-282H742v35h284z" glyph-name="uni2116" horiz-adv-x="1099" unicode="№"/><glyph d="M513 162l72-19q-19-75-72-114T379-10q-118 0-191 65T98 239H16v35h78q-1 6-1 13v92H16v35h78q10 133 78.5 204.5T359 690q106 0 168-60t55-153l-117-29q10 97-20 152t-91 55q-68 0-100.5-57T221 422v-8h202l-6-35H221V274h178l-6-35H221q3-111 41-162.5T379 25q61 0 94 34t40 103z" glyph-name="Euro" horiz-adv-x="624" unicode="€"/><glyph d="M507 186q0-87-56.5-139.5T293-10v-115h-36v115q-93 4-148 48.5T44 164l67 24q6-77 42-117t104-45v253l-57 17q-70 21-107.5 73T55 497q0 83 54 135.5T257 690v115h36V689q102-5 154-63t37-143l-115-21q13 79-6.5 128T293 651V395l62-19q79-24 115.5-69.5T507 186zM148 539q0-50 27.5-83.5T257 406v249q-51-1-80-32t-29-84zm266-396q0 48-28.5 77T293 268V26q58 4 89.5 34.5T414 143z" glyph-name="dollar" horiz-adv-x="562" unicode="$"/><glyph d="M398 35l55-7V0H179v28l55 7q16 2 19 9t3 40v130H90v35h166v42l-33 63H90v35h115L97 596q-17 33-23 40t-22 9l-55 7v28h285v-28l-55-7q-16-2-15.5-9.5T228 596l129-258 134 258q16 30 16.5 38.5T492 645l-55 7v28h195v-28l-55-7q-15-2-21-8.5T533 596L426 389h116v-35H408l-32-61v-44h166v-35H376V84q0-33 3-40t19-9z" glyph-name="yen" horiz-adv-x="629" unicode="¥"/><glyph d="M430 130l17 91h28V0H56v71q53 33 78 67.5t25 77.5q0 18-4 34t-12 34H48v35h75q-19 31-30.5 51T77 400q-10 23-14.5 45.5T58 493q0 91 56.5 144T273 690q109 0 166-59t41-148l-120-16q10 91-12 139.5T276 655q-44 0-66-38.5T188 503q0-24 4-50.5t16-74.5q6-25 8.5-37t4.5-22h166v-35H226q1-4 1-8v-12q0-48-19-86.5T150 104h226q34 0 42 3.5t12 22.5z" glyph-name="sterling" horiz-adv-x="531" unicode="£"/><glyph d="M397 137l64-18q-16-64-60.5-96.5T287-10v-115h-36V-8q-95 9-146.5 74.5T53 244v20q0 112 52 178.5T251 516v116h36V517q90-5 137.5-60.5T458 322l-110-16q10 76-6 121.5T287 481V25h4q50 0 76 27.5t30 84.5zM176 284v-60q0-88 18-134t57-59v449q-39-8-57-56t-18-140z" glyph-name="cent" horiz-adv-x="503" unicode="¢"/><glyph d="M273 342L236-34q-9-97-52.5-143T60-223q-67 0-103 32t-28 81L39-94q-6-49 1-71.5T69-188q23 0 33.5 29T121-54l39 396H41v35h122l18 184q9 97 52.5 143T357 750q67 0 103-32t28-81l-110-16q6 49-1 71.5T348 715q-23 0-33.5-29T296 581l-20-204h120v-35z" glyph-name="florin" horiz-adv-x="472" unicode="ƒ"/><glyph d="M503 28V0H305L39 310v35h168q49 0 70 30.5t21 98.5v4H39v35h259v4q0 67-21 97.5T207 645H39v35h464v-35H352q35-22 54-55.5t20-76.5h77v-35h-77q-2-78-60.5-123T207 310h-14L393 84q26-30 36.5-38T458 35z" glyph-name="uni20B9" horiz-adv-x="533" unicode="₹"/><glyph d="M429 172l99-103-25-26-100 103q-26-21-57-32t-64-11q-33 0-64 11t-57 32L61 43 36 69l99 103q-22 26-33.5 59T90 300q0 36 11.5 68.5T135 428L36 531l25 26 100-103q26 21 57 32t64 11q33 0 64-11t57-32l100 103 25-26-99-103q22-27 33.5-59.5T474 300q0-36-11.5-69T429 172zM127 300q0-68 45-115t110-47q65 0 110 47t45 115q0 68-45 115t-110 47q-65 0-110-47t-45-115z" glyph-name="currency" horiz-adv-x="564" unicode="¤"/><glyph d="M308 690q114 0 179.5-85T553 372v-63q0-148-65.5-233.5T308-10q-115 0-180 85T63 309v63q0 148 65 233t180 85zm112-451v203q0 108-27.5 160.5T308 655q-57 0-84.5-52.5T196 442V239q0-109 27.5-161.5T308 25q57 0 84.5 52.5T420 239z" glyph-name="zero" horiz-adv-x="616" unicode="0"/><glyph d="M38 561l-19 30 139 89h96V84q0-33 3-40t19-9l55-7V0H37v28l75 7q16 2 19 8.5t3 40.5v538z" glyph-name="one" horiz-adv-x="365" unicode="1"/><glyph d="M418 130l22 91h28V0H49v70q0 74 32.5 128.5T192 303q67 45 83 58.5t28 26.5q24 28 35.5 60t11.5 70q0 67-23 102t-68 35q-55 0-78-48t-13-140L48 483q-16 90 42 148.5T260 690q104 0 162-49t58-133q0-52-21-91t-66-68q-33-22-95.5-48T222 269q-61-28-92.5-68T91 104h273q33 0 41 3.5t13 22.5z" glyph-name="two" horiz-adv-x="533" unicode="2"/><glyph d="M346 170q0 80-34.5 120.5T209 331h-27v35h27q65 0 97.5 38T339 516q0 68-23 103.5T248 655q-55 0-78-48t-13-140L37 483q-16 90 42 148.5T249 690q104 0 162-47t58-127q0-70-47-112.5T284 349q95-12 143.5-57T476 170q0-84-63-132T237-10q-87 0-139 40T32 148l71 19q9-72 40-107t85-35q60 0 89 35.5T346 170z" glyph-name="three" horiz-adv-x="523" unicode="3"/><glyph d="M292 84v92H12v35q86 93 134 190.5T236 680h145q-42-128-117-238T61 211h231v153l120 18V211h77v-35h-77V84q0-33 3-40t19-9l55-7V0H195v28l75 7q16 2 19 8.5t3 40.5z" glyph-name="four" horiz-adv-x="512" unicode="4"/><glyph d="M396 706l12 61h28V576H117l-11-193q28 19 63.5 29.5T244 423q102 0 163.5-57.5T469 212q0-104-61-163T236-10q-83 0-132 40T41 148l71 19q9-72 37.5-107T227 25q59 0 85.5 44.5T339 212q0 92-27.5 134T225 388q-35 0-68.5-14T92 332l-24 15 19 333h255q34 0 42 3.5t12 22.5z" glyph-name="five" horiz-adv-x="514" unicode="5"/><glyph d="M531 205v-10q0-94-61.5-149.5T304-10q-114 0-176 82T66 305v63q0 158 60 240t175 82q97 0 158.5-49.5T519 516l-118-14q5 72-21.5 112.5T301 655q-58 0-82.5-54.5T194 427v-86q27 31 62.5 46.5T335 403q86 0 141-55t55-143zm-337 84v-43q0-116 26.5-168.5T308 25q50 0 75 41t25 123v10q0 82-24 121t-74 39q-33 0-64-18.5T194 289z" glyph-name="six" horiz-adv-x="581" unicode="6"/><glyph d="M79 550l-22-91H29v221h416v-94q-88-115-127-244.5T269 0H124q22 161 85.5 290.5T403 576H133q-33 0-41-3.5T79 550z" glyph-name="seven" horiz-adv-x="462" unicode="7"/><glyph d="M350 387q84-38 119-85.5T504 183q0-89-59.5-141T281-10q-107 0-169 46T50 157q0 55 36.5 98.5T194 330q-69 35-99.5 78T64 511q0 78 57.5 128.5T273 690q96 0 154.5-44T486 531q0-45-33-80.5T350 387zM166 548q0-43 24.5-73t78.5-53l48-21q31 21 45 51t14 78q0 62-26.5 93.5T271 655q-50 0-77.5-28T166 548zm-6-388q0-66 31-100.5T281 25q59 0 90 31t31 91q0 50-25 82.5T295 286l-67 28q-33-22-50.5-61.5T160 160z" glyph-name="eight" horiz-adv-x="554" unicode="8"/><glyph d="M515 375v-63q0-156-66.5-239T258-10q-82 0-133.5 40.5T59 148l71 19q9-71 39.5-106.5T253 25q69 0 101.5 56.5T387 253v66q-27-31-62.5-46.5T246 257q-86 0-141 55T50 455v27q0 95 61.5 151.5T277 690q114 0 176-82t62-233zM173 491v-30q0-82 24-121t74-39q33 0 64 18.5t52 51.5v63q0 116-26.5 168.5T273 655q-50 0-75-41t-25-123z" glyph-name="nine" horiz-adv-x="581" unicode="9"/><glyph d="M270 690q114 0 179.5-85T515 372v-63q0-148-65.5-233.5T270-10Q155-10 90 75T25 309v63q0 148 65 233t180 85zm112-451v203q0 108-27.5 160.5T270 655q-57 0-84.5-52.5T158 442V239q0-109 27.5-161.5T270 25q57 0 84.5 52.5T382 239z" glyph-name="zero.tlf" horiz-adv-x="540"/><glyph d="M97 534l-20 31 179 115h96V88q0-34 3-40.5t19-8.5l95-11V0H95v28l115 11q16 2 19 8.5t3 40.5v532z" glyph-name="one.tlf" horiz-adv-x="540"/><glyph d="M420 130l22 91h28V0H51v70q0 74 32.5 128.5T194 303q67 45 83 58.5t28 26.5q24 28 35.5 60t11.5 70q0 67-23 102t-68 35q-55 0-78-48t-13-140L50 483q-16 90 42 148.5T262 690q104 0 162-49t58-133q0-52-21-91t-66-68q-33-22-95.5-48T224 269q-61-28-92.5-68T93 104h273q33 0 41 3.5t13 22.5z" glyph-name="two.tlf" horiz-adv-x="540"/><glyph d="M355 170q0 80-34.5 120.5T218 331h-27v35h27q65 0 97.5 38T348 516q0 68-23 103.5T257 655q-55 0-78-48t-13-140L46 483q-16 90 42 148.5T258 690q104 0 162-47t58-127q0-70-47-112.5T293 349q95-12 143.5-57T485 170q0-84-63-132T246-10q-87 0-139 40T41 148l71 19q9-72 40-107t85-35q60 0 89 35.5T355 170z" glyph-name="three.tlf" horiz-adv-x="540"/><glyph d="M308 84v92H28v35q86 93 134 190.5T252 680h145q-42-128-117-238T77 211h231v153l120 18V211h77v-35h-77V84q0-33 3-40t19-9l55-7V0H211v28l75 7q16 2 19 8.5t3 40.5z" glyph-name="four.tlf" horiz-adv-x="540"/><glyph d="M407 706l12 61h28V576H128l-11-193q28 19 63.5 29.5T255 423q102 0 163.5-57.5T480 212q0-104-61-163T247-10q-83 0-132 40T52 148l71 19q9-72 37.5-107T238 25q59 0 85.5 44.5T350 212q0 92-27.5 134T236 388q-35 0-68.5-14T103 332l-24 15 19 333h255q34 0 42 3.5t12 22.5z" glyph-name="five.tlf" horiz-adv-x="540"/><glyph d="M505 205v-10q0-94-61.5-149.5T278-10q-114 0-176 82T40 305v63q0 158 60 240t175 82q97 0 158.5-49.5T493 516l-118-14q5 72-21.5 112.5T275 655q-58 0-82.5-54.5T168 427v-86q27 31 62.5 46.5T309 403q86 0 141-55t55-143zm-337 84v-43q0-116 26.5-168.5T282 25q50 0 75 41t25 123v10q0 82-24 121t-74 39q-33 0-64-18.5T168 289z" glyph-name="six.tlf" horiz-adv-x="540"/><glyph d="M113 550l-22-91H63v221h416v-94q-88-115-127-244.5T303 0H158q22 161 85.5 290.5T437 576H167q-33 0-41-3.5T113 550z" glyph-name="seven.tlf" horiz-adv-x="540"/><glyph d="M343 387q84-38 119-85.5T497 183q0-89-59.5-141T274-10q-107 0-169 46T43 157q0 55 36.5 98.5T187 330q-69 35-99.5 78T57 511q0 78 57.5 128.5T266 690q96 0 154.5-44T479 531q0-45-33-80.5T343 387zM159 548q0-43 24.5-73t78.5-53l48-21q31 21 45 51t14 78q0 62-26.5 93.5T264 655q-50 0-77.5-28T159 548zm-6-388q0-66 31-100.5T274 25q59 0 90 31t31 91q0 50-25 82.5T288 286l-67 28q-33-22-50.5-61.5T153 160z" glyph-name="eight.tlf" horiz-adv-x="540"/><glyph d="M500 375v-63q0-156-66.5-239T243-10q-82 0-133.5 40.5T44 148l71 19q9-71 39.5-106.5T238 25q69 0 101.5 56.5T372 253v66q-27-31-62.5-46.5T231 257q-86 0-141 55T35 455v27q0 95 61.5 151.5T262 690q114 0 176-82t62-233zM158 491v-30q0-82 24-121t74-39q33 0 64 18.5t52 51.5v63q0 116-26.5 168.5T258 655q-50 0-75-41t-25-123z" glyph-name="nine.tlf" horiz-adv-x="540"/><glyph d="M286 517q109 0 171.5-67.5T520 264v-20q0-118-62.5-186T286-10q-110 0-172 67.5T52 244v20q0 118 62 185.5T286 517zm111-293v60q0 101-27 149.5T286 482q-57 0-84-48.5T175 284v-60q0-101 27.5-150T286 25q57 0 84 48.5T397 224z" glyph-name="zero.posf" horiz-adv-x="572"/><glyph d="M32 388l-19 30 139 89h96V84q0-33 3-40t19-9l55-7V0H31v28l75 7q16 2 19 8.5t3 40.5v365z" glyph-name="one.posf" horiz-adv-x="341"/><glyph d="M415 124l17 71h28V0H67v70q0 53 25 90t88 70q12 6 50.5 24t57.5 31q28 19 41 44t13 58q0 46-20 70.5T264 482q-47 0-66.5-37.5T186 332L66 348q-13 75 40.5 122T265 517q98 0 152.5-38T472 377q0-43-24-72t-77-50q-22-9-78.5-25.5T209 200q-49-23-71.5-46.5T109 98h252q33 0 41 3.5t13 22.5z" glyph-name="two.posf" horiz-adv-x="531"/><glyph d="M98 377l-22-91H48v221h390v-94L244 206q107-5 161-54.5T459 7q0-87-61.5-138.5T230-183q-85 0-135.5 40T30-25l71 19q9-72 38.5-107t81.5-35q55 0 81.5 37.5T329 7q0 82-27.5 123.5T220 172h-27v35l184 196H152q-33 0-41-3.5T98 377z" glyph-name="three.posf" horiz-adv-x="506"/><glyph d="M421-160l-120-23V0H21v35q86 93 134 191t90 281h145q-42-129-117.5-240.5T70 35h231v153l120 18V35h77V0h-77z" glyph-name="four.posf" horiz-adv-x="509"/><glyph d="M389 533l12 61h28V403H110L99 210q28 19 63.5 29.5T237 250q102 0 163.5-57.5T462 39q0-104-61-163t-172-59q-83 0-132 40T34-25l71 19q9-72 37.5-107t77.5-35q59 0 85.5 44.5T332 39q0 92-27.5 134T218 215q-35 0-68.5-14T85 159l-24 15 19 333h255q34 0 42 3.5t12 22.5z" glyph-name="five.posf" horiz-adv-x="513"/><glyph d="M518 205v-10q0-94-61.5-149.5T291-10q-114 0-176 82T53 305v63q0 158 60 240t175 82q97 0 158.5-49.5T506 516l-118-14q5 72-21.5 112.5T288 655q-58 0-82.5-54.5T181 427v-86q27 31 62.5 46.5T322 403q86 0 141-55t55-143zm-337 84v-43q0-116 26.5-168.5T295 25q50 0 75 41t25 123v10q0 82-24 121t-74 39q-33 0-64-18.5T181 289z" glyph-name="six.posf" horiz-adv-x="577"/><glyph d="M78 377l-22-91H28v221h416v-94q-88-115-127-244.5T268-173H123q22 161 85.5 290.5T402 403H132q-33 0-41-3.5T78 377z" glyph-name="seven.posf" horiz-adv-x="480"/><glyph d="M327 387q84-38 119-85.5T481 183q0-89-59.5-141T258-10Q151-10 89 36T27 157q0 55 36.5 98.5T171 330q-69 35-99.5 78T41 511q0 78 57.5 128.5T250 690q96 0 154.5-44T463 531q0-45-33-80.5T327 387zM143 548q0-43 24.5-73t78.5-53l48-21q31 21 45 51t14 78q0 62-26.5 93.5T248 655q-50 0-77.5-28T143 548zm-6-388q0-66 31-100.5T258 25q59 0 90 31t31 91q0 50-25 82.5T272 286l-67 28q-33-22-50.5-61.5T137 160z" glyph-name="eight.posf" horiz-adv-x="528"/><glyph d="M504 202v-63q0-156-66.5-239T247-183q-82 0-133.5 40.5T48-25l71 19q9-71 39.5-106.5T242-148q69 0 101.5 56.5T376 80v66q-27-31-62.5-46.5T235 84q-86 0-141 55T39 282v27q0 95 61.5 151.5T266 517q114 0 176-82t62-233zM162 318v-30q0-82 24-121t74-39q33 0 64 18.5t52 51.5v63q0 116-26.5 168.5T262 482q-50 0-75-41t-25-123z" glyph-name="nine.posf" horiz-adv-x="569"/><glyph d="M340 528q0-70-44.5-116T183 366q-68 0-112.5 46T26 528q0 70 44.5 116T183 690q68 0 112.5-46T340 528zm-275 0q0-56 33-91.5t85-35.5q52 0 85 35.5t33 91.5q0 56-33 91.5T183 655q-52 0-85-35.5T65 528z" glyph-name="degree" horiz-adv-x="366" unicode="°"/><glyph d="M178 685q65 0 105.5-39.5T324 546v-31q0-61-40.5-100.5T178 375q-65 0-105 39.5T33 515v31q0 60 40 99.5T178 685zM156 17l375 663 29-17L185 0zm86 483v61q0 45-17 71t-47 26q-30 0-47-26t-17-71v-61q0-46 17-71.5t47-25.5q30 0 47 25.5t17 71.5zm304-195q65 0 105.5-39.5T692 166v-31q0-61-40.5-100.5T546-5q-65 0-105 39.5T401 135v31q0 60 40 99.5T546 305zm64-185v61q0 45-17 71t-47 26q-30 0-47-26t-17-71v-61q0-46 17-71.5T546 23q30 0 47 25.5t17 71.5z" glyph-name="percent" horiz-adv-x="725" unicode="%"/><glyph d="M178 685q65 0 105.5-39.5T324 546v-31q0-61-40.5-100.5T178 375q-65 0-105 39.5T33 515v31q0 60 40 99.5T178 685zM156 17l375 663 29-17L185 0zm86 483v61q0 45-17 71t-47 26q-30 0-47-26t-17-71v-61q0-46 17-71.5t47-25.5q30 0 47 25.5t17 71.5zm304-195q65 0 105.5-39.5T692 166v-31q0-61-40.5-100.5T546-5q-65 0-105 39.5T401 135v31q0 60 40 99.5T546 305zm347 0q65 0 105.5-39.5T1039 166v-31q0-61-40.5-100.5T893-5q-65 0-105 39.5T748 135v31q0 60 40 99.5T893 305zM610 120v61q0 45-17 71t-47 26q-30 0-47-26t-17-71v-61q0-46 17-71.5T546 23q30 0 47 25.5t17 71.5zm347 0v61q0 45-17 71t-47 26q-30 0-47-26t-17-71v-61q0-46 17-71.5T893 23q30 0 47 25.5t17 71.5z" glyph-name="perthousand" horiz-adv-x="1072" unicode="‰"/><glyph d="M-176 17l375 663 29-17L-147 0z" glyph-name="fraction" horiz-adv-x="51" unicode="⁄"/><glyph d="M-176 17l375 663 29-17L-147 0z" glyph-name="uni2215" horiz-adv-x="51" unicode="∕"/><glyph d="M168 790q63 0 99.5-42.5T304 631v-31q0-75-36-117.5T168 440q-63 0-99 42.5T33 600v31q0 74 36 116.5t99 42.5zm54-225v101q0 49-13 73t-41 24q-28 0-41-24t-13-73V565q0-50 13-73.5t41-23.5q28 0 41 23.5t13 73.5z" glyph-name="zerosuperior" horiz-adv-x="337" unicode="⁰"/><glyph d="M50 718l-15 23 69 44h63V497q0-16 1.5-19.5t9.5-4.5l28-4v-24H44v24l37 4q8 1 9.5 4t1.5 20v248z" glyph-name="onesuperior" horiz-adv-x="240" unicode="¹"/><glyph d="M221 520l8 46h24V445H28v35q0 37 15.5 63t56.5 52q32 19 40.5 26t14.5 13q12 13 18 28.5t6 34.5q0 32-9.5 49T141 763q-24 0-34-22t-5-65l-75 8q-8 46 23.5 76t90.5 30q56 0 87-26.5t31-71.5q0-27-12-47t-39-35q-16-9-49-22t-45-19q-21-11-33.5-26.5T63 507h131q17 0 21 2t6 11z" glyph-name="twosuperior" horiz-adv-x="299" unicode="²"/><glyph d="M177 530q0 39-15.5 59T116 609H92v22h24q29 0 43.5 18.5T174 703q0 32-10 48.5T135 768q-24 0-33.5-23T97 679l-75 8q-8 45 22.5 74t90.5 29q56 0 87.5-23.5T254 703q0-31-16.5-52T188 620q35-10 52-32.5t17-57.5q0-40-33.5-65T133 440q-50 0-77 19.5T22 519l36 10q4-33 20.5-49.5T123 463q28 0 41 16t13 51z" glyph-name="threesuperior" horiz-adv-x="293" unicode="³"/><glyph d="M145 493v40H4v23q46 49 70 98t42 131h87q-14-44-42.5-85.5T33 556h112v71l75 9v-80h38v-23h-38v-40q3-6 5.5-12t5.5-12l27-4v-20H96v20l38 4q8 1 9.5 4.5T145 493z" glyph-name="foursuperior" horiz-adv-x="271" unicode="⁴"/><glyph d="M217 798l6 31h14V723H64l-5-87q14 10 32 15.5t37 5.5q57 0 91.5-29t34.5-77q0-52-32.5-81.5T130 440q-39 0-65.5 18T29 510l35 13q6-31 19-45t34-14q30 0 43.5 20.5T174 551q0 43-13.5 62.5T119 633q-17 0-34-7t-33-21l-12 8 10 172h140q17 0 21 2t6 11z" glyph-name="fivesuperior" horiz-adv-x="281" unicode="⁵"/><glyph d="M289 549v-5q0-48-33.5-76T166 440q-61 0-94 41T39 598v31q0 79 32 120t94 41q57 0 90-27t27-66l-75-8q4 38-7 58.5T166 768q-28 0-39-26t-11-84v-33q12 12 27.5 18t37.5 6q47 0 77.5-28t30.5-72zm-173 43v-25q0-55 12-79.5t40-24.5q21 0 31.5 19.5T210 541v5q0 39-11 57.5T164 622q-15 0-26.5-7.5T116 592z" glyph-name="sixsuperior" horiz-adv-x="321" unicode="⁶"/><glyph d="M71 710l-8-45H39v120h219v-57q-44-57-63-119t-23-164H84q10 70 41.5 130.5T230 723H98q-17 0-21-2t-6-11z" glyph-name="sevensuperior" horiz-adv-x="286" unicode="⁷"/><glyph d="M210 639q37-20 53-44.5t16-57.5q0-44-31-70.5T164 440q-56 0-88.5 23T43 524q0 26 17 47.5t51 38.5q-33 18-48 40t-15 51q0 39 30 64t79 25q50 0 81.5-22.5T270 710q0-21-15-39t-45-32zm-96 81q0-19 10.5-32t33.5-24l23-11q10 10 14.5 23.5T200 708q0 27-11.5 41T156 763q-20 0-31-11.5T114 720zm-1-195q0-27 13-42t38-15q23 0 36 13t13 35q0 20-12 37t-34 28l-29 14q-12-12-18.5-30t-6.5-40z" glyph-name="eightsuperior" horiz-adv-x="320" unicode="⁸"/><glyph d="M271 633v-32q0-78-35.5-119.5T135 440q-42 0-69 18t-37 52l34 15q7-30 25-46t44-16q32 0 46.5 27t14.5 82v20q-12-12-27.5-17.5T130 569q-49 0-78.5 29T22 674v12q0 48 32.5 76t86.5 28q63 0 96.5-40.5T271 633zm-171 58v-15q0-42 11.5-61t35.5-19q14 0 25.5 7t20.5 21v38q0 56-12 81t-39 25q-21 0-31.5-19.5T100 691z" glyph-name="ninesuperior" horiz-adv-x="301" unicode="⁹"/><glyph d="M168 240q63 0 99.5-42.5T304 81V50q0-75-36-117.5T168-110q-63 0-99 42.5T33 50v31q0 74 36 116.5t99 42.5zm54-225v101q0 49-13 73t-41 24q-28 0-41-24t-13-73V15q0-50 13-73.5T168-82q28 0 41 23.5T222 15z" glyph-name="zeroinferior" horiz-adv-x="337" unicode="₀"/><glyph d="M50 168l-15 23 69 44h63V-53q0-16 1.5-19.5T178-77l28-4v-24H44v24l37 4q8 1 9.5 4T92-53v248z" glyph-name="oneinferior" horiz-adv-x="240" unicode="₁"/><glyph d="M221-30l8 46h24v-121H28v35q0 37 15.5 63T100 45q32 19 40.5 26T155 84q12 13 18 28.5t6 34.5q0 32-9.5 49T141 213q-24 0-34-22t-5-65l-75 8q-8 46 23.5 76t90.5 30q56 0 87-26.5t31-71.5q0-27-12-47t-39-35q-16-9-49-22t-45-19Q93 8 80.5-7.5T63-43h131q17 0 21 2t6 11z" glyph-name="twoinferior" horiz-adv-x="299" unicode="₂"/><glyph d="M177-20q0 39-15.5 59T116 59H92v22h24q29 0 43.5 18.5T174 153q0 32-10 48.5T135 218q-24 0-33.5-23T97 129l-75 8q-8 45 22.5 74t90.5 29q56 0 87.5-23.5T254 153q0-31-16.5-52T188 70q35-10 52-32.5T257-20q0-40-33.5-65T133-110q-50 0-77 19.5T22-31l36 10q4-33 20.5-49.5T123-87q28 0 41 16t13 51z" glyph-name="threeinferior" horiz-adv-x="293" unicode="₃"/><glyph d="M145-57v40H4V6q46 49 70 98t42 131h87q-14-44-42.5-85.5T33 6h112v71l75 9V6h38v-23h-38v-40q3-6 5.5-12t5.5-12l27-4v-20H96v20l38 4q8 1 9.5 4.5T145-57z" glyph-name="fourinferior" horiz-adv-x="271" unicode="₄"/><glyph d="M217 248l6 31h14V173H64l-5-87q14 10 32 15.5t37 5.5q57 0 91.5-29T254 1q0-52-32.5-81.5T130-110q-39 0-65.5 18T29-40l35 13q6-31 19-45t34-14q30 0 43.5 20.5T174 1q0 43-13.5 62.5T119 83q-17 0-34-7T52 55l-12 8 10 172h140q17 0 21 2t6 11z" glyph-name="fiveinferior" horiz-adv-x="281" unicode="₅"/><glyph d="M289-1v-5q0-48-33.5-76T166-110q-61 0-94 41T39 48v31q0 79 32 120t94 41q57 0 90-27t27-66l-75-8q4 38-7 58.5T166 218q-28 0-39-26t-11-84V75q12 12 27.5 18t37.5 6q47 0 77.5-28T289-1zM116 42V17q0-55 12-79.5T168-87q21 0 31.5 19.5T210-9v5q0 39-11 57.5T164 72q-15 0-26.5-7.5T116 42z" glyph-name="sixinferior" horiz-adv-x="321" unicode="₆"/><glyph d="M71 160l-8-45H39v120h219v-57q-44-57-63-119t-23-164H84q10 70 41.5 130.5T230 173H98q-17 0-21-2t-6-11z" glyph-name="seveninferior" horiz-adv-x="286" unicode="₇"/><glyph d="M210 89q37-20 53-44.5T279-13q0-44-31-70.5T164-110q-56 0-88.5 23T43-26q0 26 17 47.5T111 60q-33 18-48 40t-15 51q0 39 30 64t79 25q50 0 81.5-22.5T270 160q0-21-15-39t-45-32zm-96 81q0-19 10.5-32t33.5-24l23-11q10 10 14.5 23.5T200 158q0 27-11.5 41T156 213q-20 0-31-11.5T114 170zm-1-195q0-27 13-42t38-15q23 0 36 13t13 35q0 20-12 37t-34 28l-29 14q-12-12-18.5-30T113-25z" glyph-name="eightinferior" horiz-adv-x="320" unicode="₈"/><glyph d="M271 83V51q0-78-35.5-119.5T135-110q-42 0-69 18T29-40l34 15q7-30 25-46t44-16q32 0 46.5 27T193 22v20q-12-12-27.5-17.5T130 19q-49 0-78.5 29T22 124v12q0 48 32.5 76t86.5 28q63 0 96.5-40.5T271 83zm-171 58v-15q0-42 11.5-61T147 46q14 0 25.5 7T193 74v38q0 56-12 81t-39 25q-21 0-31.5-19.5T100 141z" glyph-name="nineinferior" horiz-adv-x="301" unicode="₉"/><glyph d="M168 240q63 0 99.5-42.5T304 81V50q0-75-36-117.5T168-110q-63 0-99 42.5T33 50v31q0 74 36 116.5t99 42.5zm54-225v101q0 49-13 73t-41 24q-28 0-41-24t-13-73V15q0-50 13-73.5T168-82q28 0 41 23.5T222 15z" glyph-name="zero.numerator" horiz-adv-x="337"/><glyph d="M50 168l-15 23 69 44h63V-53q0-16 1.5-19.5T178-77l28-4v-24H44v24l37 4q8 1 9.5 4T92-53v248z" glyph-name="one.numerator" horiz-adv-x="240"/><glyph d="M221-30l8 46h24v-121H28v35q0 37 15.5 63T100 45q32 19 40.5 26T155 84q12 13 18 28.5t6 34.5q0 32-9.5 49T141 213q-24 0-34-22t-5-65l-75 8q-8 46 23.5 76t90.5 30q56 0 87-26.5t31-71.5q0-27-12-47t-39-35q-16-9-49-22t-45-19Q93 8 80.5-7.5T63-43h131q17 0 21 2t6 11z" glyph-name="two.numerator" horiz-adv-x="299"/><glyph d="M177-20q0 39-15.5 59T116 59H92v22h24q29 0 43.5 18.5T174 153q0 32-10 48.5T135 218q-24 0-33.5-23T97 129l-75 8q-8 45 22.5 74t90.5 29q56 0 87.5-23.5T254 153q0-31-16.5-52T188 70q35-10 52-32.5T257-20q0-40-33.5-65T133-110q-50 0-77 19.5T22-31l36 10q4-33 20.5-49.5T123-87q28 0 41 16t13 51z" glyph-name="three.numerator" horiz-adv-x="293"/><glyph d="M145-57v40H4V6q46 49 70 98t42 131h87q-14-44-42.5-85.5T33 6h112v71l75 9V6h38v-23h-38v-40q3-6 5.5-12t5.5-12l27-4v-20H96v20l38 4q8 1 9.5 4.5T145-57z" glyph-name="four.numerator" horiz-adv-x="271"/><glyph d="M217 248l6 31h14V173H64l-5-87q14 10 32 15.5t37 5.5q57 0 91.5-29T254 1q0-52-32.5-81.5T130-110q-39 0-65.5 18T29-40l35 13q6-31 19-45t34-14q30 0 43.5 20.5T174 1q0 43-13.5 62.5T119 83q-17 0-34-7T52 55l-12 8 10 172h140q17 0 21 2t6 11z" glyph-name="five.numerator" horiz-adv-x="281"/><glyph d="M289-1v-5q0-48-33.5-76T166-110q-61 0-94 41T39 48v31q0 79 32 120t94 41q57 0 90-27t27-66l-75-8q4 38-7 58.5T166 218q-28 0-39-26t-11-84V75q12 12 27.5 18t37.5 6q47 0 77.5-28T289-1zM116 42V17q0-55 12-79.5T168-87q21 0 31.5 19.5T210-9v5q0 39-11 57.5T164 72q-15 0-26.5-7.5T116 42z" glyph-name="six.numerator" horiz-adv-x="321"/><glyph d="M71 160l-8-45H39v120h219v-57q-44-57-63-119t-23-164H84q10 70 41.5 130.5T230 173H98q-17 0-21-2t-6-11z" glyph-name="seven.numerator" horiz-adv-x="286"/><glyph d="M210 89q37-20 53-44.5T279-13q0-44-31-70.5T164-110q-56 0-88.5 23T43-26q0 26 17 47.5T111 60q-33 18-48 40t-15 51q0 39 30 64t79 25q50 0 81.5-22.5T270 160q0-21-15-39t-45-32zm-96 81q0-19 10.5-32t33.5-24l23-11q10 10 14.5 23.5T200 158q0 27-11.5 41T156 213q-20 0-31-11.5T114 170zm-1-195q0-27 13-42t38-15q23 0 36 13t13 35q0 20-12 37t-34 28l-29 14q-12-12-18.5-30T113-25z" glyph-name="eight.numerator" horiz-adv-x="320"/><glyph d="M271 83V51q0-78-35.5-119.5T135-110q-42 0-69 18T29-40l34 15q7-30 25-46t44-16q32 0 46.5 27T193 22v20q-12-12-27.5-17.5T130 19q-49 0-78.5 29T22 124v12q0 48 32.5 76t86.5 28q63 0 96.5-40.5T271 83zm-171 58v-15q0-42 11.5-61T147 46q14 0 25.5 7T193 74v38q0 56-12 81t-39 25q-21 0-31.5-19.5T100 141z" glyph-name="nine.numerator" horiz-adv-x="301"/><glyph d="M168 345q63 0 99.5-42.5T304 186v-31q0-75-36-117.5T168-5q-63 0-99 42.5T33 155v31q0 74 36 116.5t99 42.5zm54-225v101q0 49-13 73t-41 24q-28 0-41-24t-13-73V120q0-50 13-73.5T168 23q28 0 41 23.5t13 73.5z" glyph-name="zero.denominator" horiz-adv-x="337"/><glyph d="M50 273l-15 23 69 44h63V52q0-16 1.5-19.5T178 28l28-4V0H44v24l37 4q8 1 9.5 4T92 52v248z" glyph-name="one.denominator" horiz-adv-x="240"/><glyph d="M221 75l8 46h24V0H28v35q0 37 15.5 63t56.5 52q32 19 40.5 26t14.5 13q12 13 18 28.5t6 34.5q0 32-9.5 49T141 318q-24 0-34-22t-5-65l-75 8q-8 46 23.5 76t90.5 30q56 0 87-26.5t31-71.5q0-27-12-47t-39-35q-16-9-49-22t-45-19q-21-11-33.5-26.5T63 62h131q17 0 21 2t6 11z" glyph-name="two.denominator" horiz-adv-x="299"/><glyph d="M177 85q0 39-15.5 59T116 164H92v22h24q29 0 43.5 18.5T174 258q0 32-10 48.5T135 323q-24 0-33.5-23T97 234l-75 8q-8 45 22.5 74t90.5 29q56 0 87.5-23.5T254 258q0-31-16.5-52T188 175q35-10 52-32.5T257 85q0-40-33.5-65T133-5Q83-5 56 14.5T22 74l36 10q4-33 20.5-49.5T123 18q28 0 41 16t13 51z" glyph-name="three.denominator" horiz-adv-x="293"/><glyph d="M145 48v40H4v23q46 49 70 98t42 131h87q-14-44-42.5-85.5T33 111h112v71l75 9v-80h38V88h-38V48q3-6 5.5-12t5.5-12l27-4V0H96v20l38 4q8 1 9.5 4.5T145 48z" glyph-name="four.denominator" horiz-adv-x="271"/><glyph d="M217 353l6 31h14V278H64l-5-87q14 10 32 15.5t37 5.5q57 0 91.5-29t34.5-77q0-52-32.5-81.5T130-5Q91-5 64.5 13T29 65l35 13q6-31 19-45t34-14q30 0 43.5 20.5T174 106q0 43-13.5 62.5T119 188q-17 0-34-7t-33-21l-12 8 10 172h140q17 0 21 2t6 11z" glyph-name="five.denominator" horiz-adv-x="281"/><glyph d="M289 104v-5q0-48-33.5-76T166-5q-61 0-94 41T39 153v31q0 79 32 120t94 41q57 0 90-27t27-66l-75-8q4 38-7 58.5T166 323q-28 0-39-26t-11-84v-33q12 12 27.5 18t37.5 6q47 0 77.5-28t30.5-72zm-173 43v-25q0-55 12-79.5T168 18q21 0 31.5 19.5T210 96v5q0 39-11 57.5T164 177q-15 0-26.5-7.5T116 147z" glyph-name="six.denominator" horiz-adv-x="321"/><glyph d="M71 265l-8-45H39v120h219v-57q-44-57-63-119T172 0H84q10 70 41.5 130.5T230 278H98q-17 0-21-2t-6-11z" glyph-name="seven.denominator" horiz-adv-x="286"/><glyph d="M210 194q37-20 53-44.5T279 92q0-44-31-70.5T164-5q-56 0-88.5 23T43 79q0 26 17 47.5t51 38.5q-33 18-48 40t-15 51q0 39 30 64t79 25q50 0 81.5-22.5T270 265q0-21-15-39t-45-32zm-96 81q0-19 10.5-32t33.5-24l23-11q10 10 14.5 23.5T200 263q0 27-11.5 41T156 318q-20 0-31-11.5T114 275zm-1-195q0-27 13-42t38-15q23 0 36 13t13 35q0 20-12 37t-34 28l-29 14q-12-12-18.5-30T113 80z" glyph-name="eight.denominator" horiz-adv-x="320"/><glyph d="M271 188v-32q0-78-35.5-119.5T135-5Q93-5 66 13T29 65l34 15q7-30 25-46t44-16q32 0 46.5 27t14.5 82v20q-12-12-27.5-17.5T130 124q-49 0-78.5 29T22 229v12q0 48 32.5 76t86.5 28q63 0 96.5-40.5T271 188zm-171 58v-15q0-42 11.5-61t35.5-19q14 0 25.5 7t20.5 21v38q0 56-12 81t-39 25q-21 0-31.5-19.5T100 246z" glyph-name="nine.denominator" horiz-adv-x="301"/><glyph d="M50 613l-15 23 69 44h63V392q0-16 1.5-19.5t9.5-4.5l28-4v-24H44v24l37 4q8 1 9.5 4t1.5 20v248zM84 17l375 663 29-17L113 0zm448 58l8 46h24V0H339v35q0 37 15.5 63t56.5 52q32 19 40.5 26t14.5 13q12 13 18 28.5t6 34.5q0 32-9.5 49T452 318q-24 0-34-22t-5-65l-75 8q-8 46 23.5 76t90.5 30q56 0 87-26.5t31-71.5q0-27-12-47t-39-35q-16-9-49-22t-45-19q-21-11-33.5-26.5T374 62h131q17 0 21 2t6 11z" glyph-name="onehalf" horiz-adv-x="610" unicode="½"/><glyph d="M50 613l-15 23 69 44h63V392q0-16 1.5-19.5t9.5-4.5l28-4v-24H44v24l37 4q8 1 9.5 4t1.5 20v248zM84 17l375 663 29-17L113 0zm404 68q0 39-15.5 59T427 164h-24v22h24q29 0 43.5 18.5T485 258q0 32-10 48.5T446 323q-24 0-33.5-23t-4.5-66l-75 8q-8 45 22.5 74t90.5 29q56 0 87.5-23.5T565 258q0-31-16.5-52T499 175q35-10 52-32.5T568 85q0-40-33.5-65T444-5q-50 0-77 19.5T333 74l36 10q4-33 20.5-49.5T434 18q28 0 41 16t13 51z" glyph-name="onethird" horiz-adv-x="604" unicode="⅓"/><glyph d="M50 613l-15 23 69 44h63V392q0-16 1.5-19.5t9.5-4.5l28-4v-24H44v24l37 4q8 1 9.5 4t1.5 20v248zM84 17l375 663 29-17L113 0zm372 31v40H315v23q46 49 70 98t42 131h87q-14-44-42.5-85.5T344 111h112v71l75 9v-80h38V88h-38V48q3-6 5.5-12t5.5-12l27-4V0H407v20l38 4q8 1 9.5 4.5T456 48z" glyph-name="onequarter" horiz-adv-x="572" unicode="¼"/><glyph d="M50 613l-15 23 69 44h63V392q0-16 1.5-19.5t9.5-4.5l28-4v-24H44v24l37 4q8 1 9.5 4t1.5 20v248zM84 17l375 663 29-17L113 0zm444 336l6 31h14V278H375l-5-87q14 10 32 15.5t37 5.5q57 0 91.5-29t34.5-77q0-52-32.5-81.5T441-5q-39 0-65.5 18T340 65l35 13q6-31 19-45t34-14q30 0 43.5 20.5T485 106q0 43-13.5 62.5T430 188q-17 0-34-7t-33-21l-12 8 10 172h140q17 0 21 2t6 11z" glyph-name="onefifth" horiz-adv-x="592"/><glyph d="M50 613l-15 23 69 44h63V392q0-16 1.5-19.5t9.5-4.5l28-4v-24H44v24l37 4q8 1 9.5 4t1.5 20v248zM84 17l375 663 29-17L113 0zm516 87v-5q0-48-33.5-76T477-5q-61 0-94 41t-33 117v31q0 79 32 120t94 41q57 0 90-27t27-66l-75-8q4 38-7 58.5T477 323q-28 0-39-26t-11-84v-33q12 12 27.5 18t37.5 6q47 0 77.5-28t30.5-72zm-173 43v-25q0-55 12-79.5T479 18q21 0 31.5 19.5T521 96v5q0 39-11 57.5T475 177q-15 0-26.5-7.5T427 147z" glyph-name="onesixth" horiz-adv-x="632"/><glyph d="M50 613l-15 23 69 44h63V392q0-16 1.5-19.5t9.5-4.5l28-4v-24H44v24l37 4q8 1 9.5 4t1.5 20v248zM84 17l375 663 29-17L113 0zm298 248l-8-45h-24v120h219v-57q-44-57-63-119T483 0h-88q10 70 41.5 130.5T541 278H409q-17 0-21-2t-6-11z" glyph-name="oneseventh" horiz-adv-x="597"/><glyph d="M50 613l-15 23 69 44h63V392q0-16 1.5-19.5t9.5-4.5l28-4v-24H44v24l37 4q8 1 9.5 4t1.5 20v248zM84 17l375 663 29-17L113 0zm437 177q37-20 53-44.5T590 92q0-44-31-70.5T475-5q-56 0-88.5 23T354 79q0 26 17 47.5t51 38.5q-33 18-48 40t-15 51q0 39 30 64t79 25q50 0 81.5-22.5T581 265q0-21-15-39t-45-32zm-96 81q0-19 10.5-32t33.5-24l23-11q10 10 14.5 23.5T511 263q0 27-11.5 41T467 318q-20 0-31-11.5T425 275zm-1-195q0-27 13-42t38-15q23 0 36 13t13 35q0 20-12 37t-34 28l-29 14q-12-12-18.5-30T424 80z" glyph-name="oneeighth" horiz-adv-x="631" unicode="⅛"/><glyph d="M50 613l-15 23 69 44h63V392q0-16 1.5-19.5t9.5-4.5l28-4v-24H44v24l37 4q8 1 9.5 4t1.5 20v248zM84 17l375 663 29-17L113 0zm498 171v-32q0-78-35.5-119.5T446-5q-42 0-69 18t-37 52l34 15q7-30 25-46t44-16q32 0 46.5 27t14.5 82v20q-12-12-27.5-17.5T441 124q-49 0-78.5 29T333 229v12q0 48 32.5 76t86.5 28q63 0 96.5-40.5T582 188zm-171 58v-15q0-42 11.5-61t35.5-19q14 0 25.5 7t20.5 21v38q0 56-12 81t-39 25q-21 0-31.5-19.5T411 246z" glyph-name="oneninth" horiz-adv-x="612"/><glyph d="M221 415l8 46h24V340H28v35q0 37 15.5 63t56.5 52q32 19 40.5 26t14.5 13q12 13 18 28.5t6 34.5q0 32-9.5 49T141 658q-24 0-34-22t-5-65l-75 8q-8 46 23.5 76t90.5 30q56 0 87-26.5t31-71.5q0-27-12-47t-39-35q-16-9-49-22t-45-19q-21-11-33.5-26.5T63 402h131q17 0 21 2t6 11zM123 17l375 663 29-17L152 0zm404 68q0 39-15.5 59T466 164h-24v22h24q29 0 43.5 18.5T524 258q0 32-10 48.5T485 323q-24 0-33.5-23t-4.5-66l-75 8q-8 45 22.5 74t90.5 29q56 0 87.5-23.5T604 258q0-31-16.5-52T538 175q35-10 52-32.5T607 85q0-40-33.5-65T483-5q-50 0-77 19.5T372 74l36 10q4-33 20.5-49.5T473 18q28 0 41 16t13 51z" glyph-name="twothirds" horiz-adv-x="643" unicode="⅔"/><glyph d="M221 415l8 46h24V340H28v35q0 37 15.5 63t56.5 52q32 19 40.5 26t14.5 13q12 13 18 28.5t6 34.5q0 32-9.5 49T141 658q-24 0-34-22t-5-65l-75 8q-8 46 23.5 76t90.5 30q56 0 87-26.5t31-71.5q0-27-12-47t-39-35q-16-9-49-22t-45-19q-21-11-33.5-26.5T63 402h131q17 0 21 2t6 11zM123 17l375 663 29-17L152 0zm444 336l6 31h14V278H414l-5-87q14 10 32 15.5t37 5.5q57 0 91.5-29t34.5-77q0-52-32.5-81.5T480-5q-39 0-65.5 18T379 65l35 13q6-31 19-45t34-14q30 0 43.5 20.5T524 106q0 43-13.5 62.5T469 188q-17 0-34-7t-33-21l-12 8 10 172h140q17 0 21 2t6 11z" glyph-name="twofifths" horiz-adv-x="631"/><glyph d="M221 415l8 46h24V340H28v35q0 37 15.5 63t56.5 52q32 19 40.5 26t14.5 13q12 13 18 28.5t6 34.5q0 32-9.5 49T141 658q-24 0-34-22t-5-65l-75 8q-8 46 23.5 76t90.5 30q56 0 87-26.5t31-71.5q0-27-12-47t-39-35q-16-9-49-22t-45-19q-21-11-33.5-26.5T63 402h131q17 0 21 2t6 11zM123 17l375 663 29-17L152 0zm298 248l-8-45h-24v120h219v-57q-44-57-63-119T522 0h-88q10 70 41.5 130.5T580 278H448q-17 0-21-2t-6-11z" glyph-name="twosevenths" horiz-adv-x="636"/><glyph d="M221 415l8 46h24V340H28v35q0 37 15.5 63t56.5 52q32 19 40.5 26t14.5 13q12 13 18 28.5t6 34.5q0 32-9.5 49T141 658q-24 0-34-22t-5-65l-75 8q-8 46 23.5 76t90.5 30q56 0 87-26.5t31-71.5q0-27-12-47t-39-35q-16-9-49-22t-45-19q-21-11-33.5-26.5T63 402h131q17 0 21 2t6 11zM123 17l375 663 29-17L152 0zm498 171v-32q0-78-35.5-119.5T485-5q-42 0-69 18t-37 52l34 15q7-30 25-46t44-16q32 0 46.5 27t14.5 82v20q-12-12-27.5-17.5T480 124q-49 0-78.5 29T372 229v12q0 48 32.5 76t86.5 28q63 0 96.5-40.5T621 188zm-171 58v-15q0-42 11.5-61t35.5-19q14 0 25.5 7t20.5 21v38q0 56-12 81t-39 25q-21 0-31.5-19.5T450 246z" glyph-name="twoninths" horiz-adv-x="651"/><glyph d="M177 425q0 39-15.5 59T116 504H92v22h24q29 0 43.5 18.5T174 598q0 32-10 48.5T135 663q-24 0-33.5-23T97 574l-75 8q-8 45 22.5 74t90.5 29q56 0 87.5-23.5T254 598q0-31-16.5-52T188 515q35-10 52-32.5t17-57.5q0-40-33.5-65T133 335q-50 0-77 19.5T22 414l36 10q4-33 20.5-49.5T123 358q28 0 41 16t13 51zM117 17l375 663 29-17L146 0zm372 31v40H348v23q46 49 70 98t42 131h87q-14-44-42.5-85.5T377 111h112v71l75 9v-80h38V88h-38V48q3-6 5.5-12t5.5-12l27-4V0H440v20l38 4q8 1 9.5 4.5T489 48z" glyph-name="threequarters" horiz-adv-x="605" unicode="¾"/><glyph d="M177 425q0 39-15.5 59T116 504H92v22h24q29 0 43.5 18.5T174 598q0 32-10 48.5T135 663q-24 0-33.5-23T97 574l-75 8q-8 45 22.5 74t90.5 29q56 0 87.5-23.5T254 598q0-31-16.5-52T188 515q35-10 52-32.5t17-57.5q0-40-33.5-65T133 335q-50 0-77 19.5T22 414l36 10q4-33 20.5-49.5T123 358q28 0 41 16t13 51zM117 17l375 663 29-17L146 0zm444 336l6 31h14V278H408l-5-87q14 10 32 15.5t37 5.5q57 0 91.5-29t34.5-77q0-52-32.5-81.5T474-5q-39 0-65.5 18T373 65l35 13q6-31 19-45t34-14q30 0 43.5 20.5T518 106q0 43-13.5 62.5T463 188q-17 0-34-7t-33-21l-12 8 10 172h140q17 0 21 2t6 11z" glyph-name="threefifths" horiz-adv-x="625"/><glyph d="M177 425q0 39-15.5 59T116 504H92v22h24q29 0 43.5 18.5T174 598q0 32-10 48.5T135 663q-24 0-33.5-23T97 574l-75 8q-8 45 22.5 74t90.5 29q56 0 87.5-23.5T254 598q0-31-16.5-52T188 515q35-10 52-32.5t17-57.5q0-40-33.5-65T133 335q-50 0-77 19.5T22 414l36 10q4-33 20.5-49.5T123 358q28 0 41 16t13 51zM117 17l375 663 29-17L146 0zm298 248l-8-45h-24v120h219v-57q-44-57-63-119T516 0h-88q10 70 41.5 130.5T574 278H442q-17 0-21-2t-6-11z" glyph-name="threesevenths" horiz-adv-x="630"/><glyph d="M177 425q0 39-15.5 59T116 504H92v22h24q29 0 43.5 18.5T174 598q0 32-10 48.5T135 663q-24 0-33.5-23T97 574l-75 8q-8 45 22.5 74t90.5 29q56 0 87.5-23.5T254 598q0-31-16.5-52T188 515q35-10 52-32.5t17-57.5q0-40-33.5-65T133 335q-50 0-77 19.5T22 414l36 10q4-33 20.5-49.5T123 358q28 0 41 16t13 51zM117 17l375 663 29-17L146 0zm437 177q37-20 53-44.5T623 92q0-44-31-70.5T508-5q-56 0-88.5 23T387 79q0 26 17 47.5t51 38.5q-33 18-48 40t-15 51q0 39 30 64t79 25q50 0 81.5-22.5T614 265q0-21-15-39t-45-32zm-96 81q0-19 10.5-32t33.5-24l23-11q10 10 14.5 23.5T544 263q0 27-11.5 41T500 318q-20 0-31-11.5T458 275zm-1-195q0-27 13-42t38-15q23 0 36 13t13 35q0 20-12 37t-34 28l-29 14q-12-12-18.5-30T457 80z" glyph-name="threeeighths" horiz-adv-x="664" unicode="⅜"/><glyph d="M145 388v40H4v23q46 49 70 98t42 131h87q-14-44-42.5-85.5T33 451h112v71l75 9v-80h38v-23h-38v-40q3-6 5.5-12t5.5-12l27-4v-20H96v20l38 4q8 1 9.5 4.5T145 388zM135 17l375 663 29-17L164 0zm444 336l6 31h14V278H426l-5-87q14 10 32 15.5t37 5.5q57 0 91.5-29t34.5-77q0-52-32.5-81.5T492-5q-39 0-65.5 18T391 65l35 13q6-31 19-45t34-14q30 0 43.5 20.5T536 106q0 43-13.5 62.5T481 188q-17 0-34-7t-33-21l-12 8 10 172h140q17 0 21 2t6 11z" glyph-name="fourfifths" horiz-adv-x="643"/><glyph d="M145 388v40H4v23q46 49 70 98t42 131h87q-14-44-42.5-85.5T33 451h112v71l75 9v-80h38v-23h-38v-40q3-6 5.5-12t5.5-12l27-4v-20H96v20l38 4q8 1 9.5 4.5T145 388zM135 17l375 663 29-17L164 0zm298 248l-8-45h-24v120h219v-57q-44-57-63-119T534 0h-88q10 70 41.5 130.5T592 278H460q-17 0-21-2t-6-11z" glyph-name="foursevenths" horiz-adv-x="648"/><glyph d="M145 388v40H4v23q46 49 70 98t42 131h87q-14-44-42.5-85.5T33 451h112v71l75 9v-80h38v-23h-38v-40q3-6 5.5-12t5.5-12l27-4v-20H96v20l38 4q8 1 9.5 4.5T145 388zM135 17l375 663 29-17L164 0zm498 171v-32q0-78-35.5-119.5T497-5q-42 0-69 18t-37 52l34 15q7-30 25-46t44-16q32 0 46.5 27t14.5 82v20q-12-12-27.5-17.5T492 124q-49 0-78.5 29T384 229v12q0 48 32.5 76t86.5 28q63 0 96.5-40.5T633 188zm-171 58v-15q0-42 11.5-61t35.5-19q14 0 25.5 7t20.5 21v38q0 56-12 81t-39 25q-21 0-31.5-19.5T462 246z" glyph-name="fourninths" horiz-adv-x="663"/><glyph d="M217 693l6 31h14V618H64l-5-87q14 10 32 15.5t37 5.5q57 0 91.5-29t34.5-77q0-52-32.5-81.5T130 335q-39 0-65.5 18T29 405l35 13q6-31 19-45t34-14q30 0 43.5 20.5T174 446q0 43-13.5 62.5T119 528q-17 0-34-7t-33-21l-12 8 10 172h140q17 0 21 2t6 11zM105 17l375 663 29-17L134 0zm516 87v-5q0-48-33.5-76T498-5q-61 0-94 41t-33 117v31q0 79 32 120t94 41q57 0 90-27t27-66l-75-8q4 38-7 58.5T498 323q-28 0-39-26t-11-84v-33q12 12 27.5 18t37.5 6q47 0 77.5-28t30.5-72zm-173 43v-25q0-55 12-79.5T500 18q21 0 31.5 19.5T542 96v5q0 39-11 57.5T496 177q-15 0-26.5-7.5T448 147z" glyph-name="fivesixths" horiz-adv-x="653"/><glyph d="M217 693l6 31h14V618H64l-5-87q14 10 32 15.5t37 5.5q57 0 91.5-29t34.5-77q0-52-32.5-81.5T130 335q-39 0-65.5 18T29 405l35 13q6-31 19-45t34-14q30 0 43.5 20.5T174 446q0 43-13.5 62.5T119 528q-17 0-34-7t-33-21l-12 8 10 172h140q17 0 21 2t6 11zM105 17l375 663 29-17L134 0zm298 248l-8-45h-24v120h219v-57q-44-57-63-119T504 0h-88q10 70 41.5 130.5T562 278H430q-17 0-21-2t-6-11z" glyph-name="fivesevenths" horiz-adv-x="618"/><glyph d="M217 693l6 31h14V618H64l-5-87q14 10 32 15.5t37 5.5q57 0 91.5-29t34.5-77q0-52-32.5-81.5T130 335q-39 0-65.5 18T29 405l35 13q6-31 19-45t34-14q30 0 43.5 20.5T174 446q0 43-13.5 62.5T119 528q-17 0-34-7t-33-21l-12 8 10 172h140q17 0 21 2t6 11zM105 17l375 663 29-17L134 0zm437 177q37-20 53-44.5T611 92q0-44-31-70.5T496-5q-56 0-88.5 23T375 79q0 26 17 47.5t51 38.5q-33 18-48 40t-15 51q0 39 30 64t79 25q50 0 81.5-22.5T602 265q0-21-15-39t-45-32zm-96 81q0-19 10.5-32t33.5-24l23-11q10 10 14.5 23.5T532 263q0 27-11.5 41T488 318q-20 0-31-11.5T446 275zm-1-195q0-27 13-42t38-15q23 0 36 13t13 35q0 20-12 37t-34 28l-29 14q-12-12-18.5-30T445 80z" glyph-name="fiveeighths" horiz-adv-x="652" unicode="⅝"/><glyph d="M217 693l6 31h14V618H64l-5-87q14 10 32 15.5t37 5.5q57 0 91.5-29t34.5-77q0-52-32.5-81.5T130 335q-39 0-65.5 18T29 405l35 13q6-31 19-45t34-14q30 0 43.5 20.5T174 446q0 43-13.5 62.5T119 528q-17 0-34-7t-33-21l-12 8 10 172h140q17 0 21 2t6 11zM105 17l375 663 29-17L134 0zm498 171v-32q0-78-35.5-119.5T467-5q-42 0-69 18t-37 52l34 15q7-30 25-46t44-16q32 0 46.5 27t14.5 82v20q-12-12-27.5-17.5T462 124q-49 0-78.5 29T354 229v12q0 48 32.5 76t86.5 28q63 0 96.5-40.5T603 188zm-171 58v-15q0-42 11.5-61t35.5-19q14 0 25.5 7t20.5 21v38q0 56-12 81t-39 25q-21 0-31.5-19.5T432 246z" glyph-name="fiveninths" horiz-adv-x="633"/><glyph d="M289 444v-5q0-48-33.5-76T166 335q-61 0-94 41T39 493v31q0 79 32 120t94 41q57 0 90-27t27-66l-75-8q4 38-7 58.5T166 663q-28 0-39-26t-11-84v-33q12 12 27.5 18t37.5 6q47 0 77.5-28t30.5-72zm-173 43v-25q0-55 12-79.5t40-24.5q21 0 31.5 19.5T210 436v5q0 39-11 57.5T164 517q-15 0-26.5-7.5T116 487zm29-470l375 663 29-17L174 0zm298 248l-8-45h-24v120h219v-57q-44-57-63-119T544 0h-88q10 70 41.5 130.5T602 278H470q-17 0-21-2t-6-11z" glyph-name="sixsevenths" horiz-adv-x="658"/><glyph d="M71 605l-8-45H39v120h219v-57q-44-57-63-119t-23-164H84q10 70 41.5 130.5T230 618H98q-17 0-21-2t-6-11zm39-588l375 663 29-17L139 0zm437 177q37-20 53-44.5T616 92q0-44-31-70.5T501-5q-56 0-88.5 23T380 79q0 26 17 47.5t51 38.5q-33 18-48 40t-15 51q0 39 30 64t79 25q50 0 81.5-22.5T607 265q0-21-15-39t-45-32zm-96 81q0-19 10.5-32t33.5-24l23-11q10 10 14.5 23.5T537 263q0 27-11.5 41T493 318q-20 0-31-11.5T451 275zm-1-195q0-27 13-42t38-15q23 0 36 13t13 35q0 20-12 37t-34 28l-29 14q-12-12-18.5-30T450 80z" glyph-name="seveneighths" horiz-adv-x="657" unicode="⅞"/><glyph d="M71 605l-8-45H39v120h219v-57q-44-57-63-119t-23-164H84q10 70 41.5 130.5T230 618H98q-17 0-21-2t-6-11zm39-588l375 663 29-17L139 0zm498 171v-32q0-78-35.5-119.5T472-5q-42 0-69 18t-37 52l34 15q7-30 25-46t44-16q32 0 46.5 27t14.5 82v20q-12-12-27.5-17.5T467 124q-49 0-78.5 29T359 229v12q0 48 32.5 76t86.5 28q63 0 96.5-40.5T608 188zm-171 58v-15q0-42 11.5-61t35.5-19q14 0 25.5 7t20.5 21v38q0 56-12 81t-39 25q-21 0-31.5-19.5T437 246z" glyph-name="sevenninths" horiz-adv-x="638"/><glyph d="M210 534q37-20 53-44.5t16-57.5q0-44-31-70.5T164 335q-56 0-88.5 23T43 419q0 26 17 47.5t51 38.5q-33 18-48 40t-15 51q0 39 30 64t79 25q50 0 81.5-22.5T270 605q0-21-15-39t-45-32zm-96 81q0-19 10.5-32t33.5-24l23-11q10 10 14.5 23.5T200 603q0 27-11.5 41T156 658q-20 0-31-11.5T114 615zm-1-195q0-27 13-42t38-15q23 0 36 13t13 35q0 20-12 37t-34 28l-29 14q-12-12-18.5-30t-6.5-40zm31-403l375 663 29-17L173 0zm498 171v-32q0-78-35.5-119.5T506-5q-42 0-69 18t-37 52l34 15q7-30 25-46t44-16q32 0 46.5 27t14.5 82v20q-12-12-27.5-17.5T501 124q-49 0-78.5 29T393 229v12q0 48 32.5 76t86.5 28q63 0 96.5-40.5T642 188zm-171 58v-15q0-42 11.5-61t35.5-19q14 0 25.5 7t20.5 21v38q0 56-12 81t-39 25q-21 0-31.5-19.5T471 246z" glyph-name="eightninths" horiz-adv-x="672"/><glyph d="M501 352v-35H312V122h-36v195H87v35h189v195h36V352z" glyph-name="plus" horiz-adv-x="588" unicode="+"/><glyph d="M501 317H87v35h414z" glyph-name="minus" horiz-adv-x="588" unicode="−"/><glyph d="M321 336l163-164-27-26-163 163-163-163-27 26 164 164-164 163 27 26 163-163 163 163 27-26z" glyph-name="multiply" horiz-adv-x="588" unicode="×"/><glyph d="M365 528q0-32-20-51.5T294 457q-32 0-51 19.5T224 528q0 32 19.5 51t50.5 19q31 0 51-19.5t20-50.5zm136-211H87v35h414zM365 142q0-32-20-51.5T294 71q-32 0-51 19.5T224 142q0 32 19.5 51t50.5 19q31 0 51-19.5t20-50.5z" glyph-name="divide" horiz-adv-x="588" unicode="÷"/><glyph d="M501 417H87v35h414zm0-200H87v35h414z" glyph-name="equal" horiz-adv-x="588" unicode="="/><glyph d="M464 428H87v35h414V236h-37z" glyph-name="logicalnot" horiz-adv-x="588" unicode="¬"/><glyph d="M387 257q-26 0-49 12.5T281 320q-28 33-45 43t-35 10q-28 0-45.5-21.5T119 275l-32 15q23 64 49.5 92t64.5 28q26 0 48.5-12t55.5-51q30-33 46.5-43t35.5-10q28 0 45.5 21.5T469 392l32-15q-23-64-49.5-92T387 257z" glyph-name="asciitilde" horiz-adv-x="588" unicode="~"/><glyph d="M145 333l356-142-12-34L87 318v28l402 161 12-33z" glyph-name="less" horiz-adv-x="588" unicode="&lt;"/><glyph d="M501 346v-28L99 157l-12 33 356 142L87 473l12 34z" glyph-name="greater" horiz-adv-x="588" unicode="&gt;"/><glyph d="M501 352v-35H312V122h-36v195H87v35h189v195h36V352zm0-352H87v35h414z" glyph-name="plusminus" horiz-adv-x="588" unicode="±"/><glyph d="M308 680l161-402-35-12-141 355-141-355-33 12 161 402z" glyph-name="asciicircum" horiz-adv-x="588" unicode="^"/><glyph d="M501 251v-35H246L167 80l-30 18 68 118H87v35h139l96 166H87v35h255l79 136 30-18-68-118h118v-35H362l-96-166z" glyph-name="notequal" horiz-adv-x="588" unicode="≠"/><glyph d="M387 358q-26 0-49 12.5T281 421q-28 33-45 43t-35 10q-28 0-45.5-21.5T119 376l-32 15q23 64 49.5 92t64.5 28q26 0 48.5-12t55.5-51q30-33 46.5-43t35.5-10q28 0 45.5 21.5T469 493l32-15q-23-64-49.5-92T387 358zm0-200q-26 0-49 12.5T281 221q-28 33-45 43t-35 10q-28 0-45.5-21.5T119 176l-32 15q23 64 49.5 92t64.5 28q26 0 48.5-12t55.5-51q30-33 46.5-43t35.5-10q28 0 45.5 21.5T469 293l32-15q-23-64-49.5-92T387 158z" glyph-name="approxequal" horiz-adv-x="588" unicode="≈"/><glyph d="M145 333l356-142-12-34L87 318v28l402 161 12-33zM501 0H87v35h414z" glyph-name="lessequal" horiz-adv-x="588" unicode="≤"/><glyph d="M501 346v-28L99 157l-12 33 356 142L87 473l12 34zm0-346H87v35h414z" glyph-name="greaterequal" horiz-adv-x="588" unicode="≥"/><glyph d="M580 534q67 0 112-54.5T737 339q0-89-48.5-141.5T562 145q-61 0-110.5 31T369 265q-32-59-74-89t-93-30q-67 0-112 54.5T45 341q0 88 48.5 141T219 535q62 0 111.5-30.5T412 416q32 58 75 88t93 30zm-383-59q-54 0-85.5-37.5T80 340q0-63 32-98.5t89-35.5q49 0 85.5 23t65.5 72l-22 48q-34 76-62.5 101T197 475zm233-94l22-50q35-78 62.5-102t69.5-24q54 0 86 37t32 98q0 63-32 98.5T581 474q-49 0-86-23t-65-70z" glyph-name="infinity" horiz-adv-x="782" unicode="∞"/><glyph d="M277 0L116 340l161 340h34l161-340L311 0zm17 634L156 341 295 46l137 293z" glyph-name="lozenge" horiz-adv-x="588" unicode="◊"/><glyph d="M152 317H57v35h120L295 57l248 623 33-12L308 0h-28z" glyph-name="radical" horiz-adv-x="588" unicode="√"/><glyph d="M348 715q-23 0-33.5-29T296 581L236-34q-9-97-52.5-143T60-223q-67 0-103 32t-28 81L39-94q-6-49 1-71.5T69-188q23 0 33.5 29T121-54l60 615q9 97 52.5 143T357 750q67 0 103-32t28-81l-110-16q6 49-1 71.5T348 715z" glyph-name="integral" horiz-adv-x="472" unicode="∫"/><glyph d="M492 287l-4-47q-10-113-79.5-181.5T234-10Q131-10 78 55T36 229l3 29q9 88 70.5 143.5T255 457q34 0 64.5-10t55.5-30q-4 106-44.5 178.5T208 721l17 29q143-73 211.5-193.5T492 287zm-338-18l-8-75q-9-86 13-127.5T236 25q53 0 87 53.5T365 232l6 73q1 10 2 22.5t2 39.5q-22 25-51.5 38.5T264 419q-45 0-73.5-38.5T154 269z" glyph-name="partialdiff" horiz-adv-x="540" unicode="∂"/><glyph d="M642-108l55-7v-28H423v28l55 7q16 2 19 9t3 40v704H237V-59q0-33 3-40t19-9l55-7v-28H40v28l55 7q16 2 19 9t3 40v655q0 33-3 40t-19 9l-55 7v28h657v-28l-55-7q-16-2-19-9t-3-40V-59q0-33 3-40t19-9z" glyph-name="product" horiz-adv-x="737" unicode="∏"/><glyph d="M72 472l-55 7v28h581v-35h-89V107q0-41 6.5-59T539 30q11 0 21 4t19 12l17-27Q581 5 558.5-2.5T511-10q-56 0-86.5 34.5T394 123v349H209V0H94v423q0 33-3 40t-19 9z" glyph-name="pi" horiz-adv-x="615" unicode="π"/><glyph d="M381 472l-75 7v28h212V107q0-40 6.5-58.5T547 30q9 0 18.5 5T587 51l18-26Q585 7 562.5-1.5T512-10q-44 0-72 20.5T405 69q-32-39-72-59t-85-20q-37 0-66.5 12.5T132 40q6-54 28-109t59-111L93-213v636q0 33-3 40t-19 9l-55 7v28h192V171q0-69 18-102.5T281 35q35 0 66 23t56 68v297q0 34-3 40.5t-19 8.5z" glyph-name="mu" horiz-adv-x="616" unicode="µ"/><glyph d="M469-13l27 91h28v-221H24v94l249 285L28 655v25h484V528h-28l-27 91q-6 20-14 23t-40 3H168l201-341v-16L84-39h331q32 0 40 3t14 23z" glyph-name="summation" horiz-adv-x="546" unicode="∑"/><glyph d="M621 221V0H393v212q46 15 70.5 58.5T488 379v103q0 82-38 127.5T343 655q-69 0-107-45.5T198 482V379q0-66 24.5-109t70.5-58V0H65v221h28l17-91q4-19 12-22.5t42-3.5h89v77q-85 22-134 84T70 409v43q0 104 75 171t198 67q123 0 198-67.5T616 452v-43q0-83-49-144.5T433 181v-77h89q34 0 42 3.5t12 22.5l17 91z" glyph-name="Omega" horiz-adv-x="686" unicode="Ω"/><glyph d="M352 680L574 25V0H45v25l221 655zM87 35h361L270 577z" glyph-name="Delta" horiz-adv-x="619" unicode="∆"/><glyph d="M338 62l20-28q-22-20-50.5-29.5T243-5q-75 0-118 39T82 141v370q0 88 43.5 133.5T254 690q70 0 109.5-36T403 554q0-70-49-147T197 227v-90q0-57 13-81.5T259 31q21 0 41 8t38 23zm-84 593q-30 0-43.5-32T197 521V277q57 61 84 125.5T308 553q0 52-13.5 77T254 655z" glyph-name="uni2113" horiz-adv-x="424" unicode="ℓ"/><glyph d="M197 340l104-156-21-20L55 346v24l225 182 21-20-105-157h89q31 0 62.5 3.5T437 394q62 13 97.5 17t72.5 4l-30-57 30-58q-37 0-72.5 4T437 321q-58 12-89.5 15.5T285 340z" glyph-name="arrowleft" horiz-adv-x="662" unicode="←"/><glyph d="M348 493v-89q0-31 3.5-62.5T367 252q13-62 17-97.5t4-72.5l-57 30-58-30q0 37 4 72.5t17 97.5q12 58 15.5 89.5T313 404v88L157 388l-20 21 182 225h24l182-225-20-21z" glyph-name="arrowup" horiz-adv-x="662" unicode="↑"/><glyph d="M607 370v-24L382 164l-21 20 105 157h-89q-31 0-62.5-3.5T225 322q-62-13-97.5-17T55 301l30 57-30 58q37 0 72.5-4t97.5-17q58-12 89.5-15.5T377 376h88L361 532l21 20z" glyph-name="arrowright" horiz-adv-x="662" unicode="→"/><glyph d="M505 328l20-21L343 82h-24L137 307l20 21 157-105v89q0 31-3.5 62.5T295 464q-13 62-17 97.5t-4 72.5l57-30 58 30q0-37-4-72.5T368 464q-12-58-15.5-89.5T349 312v-88z" glyph-name="arrowdown" horiz-adv-x="662" unicode="↓"/><glyph d="M721 370v-24L496 164l-21 20 105 157q-35-1-64-6t-67-20q-22-9-33.5-11.5T393 301h-3q-11 0-22.5 2.5T333 315q-38 16-69 21t-68 5l105-157-21-20L55 346v24l225 182 21-20-104-156q37 0 67.5 5.5T334 402q22 9 33.5 11.5T390 416h3q11 0 22.5-2.5T449 402q38-15 66.5-20t63.5-6L475 532l21 20z" glyph-name="uni2194" horiz-adv-x="776" unicode="↔"/><glyph d="M505 270l20-21L343 24h-24L137 249l20 21 157-105q-1 35-6 64t-20 67q-9 22-11.5 33.5T274 352v3q0 11 2.5 22.5T288 412q16 38 21 69t5 68L157 444l-20 21 182 225h24l182-225-20-21-156 104q0-37 5.5-67.5T375 411q9-22 11.5-33.5T389 355v-3q0-11-2.5-22.5T375 296q-14-38-19.5-66.5T349 166z" glyph-name="uni2195" horiz-adv-x="662" unicode="↕"/><glyph d="M551 203l-61-19-20-62q-26 26-48.5 54T365 257q-33 49-52.5 74T271 378l-62 62-37-184-29 1-31 288 17 17 288-31 1-29-185-37 62-62q22-22 47-42t75-53q52-34 80-56.5t54-48.5z" glyph-name="uni2196" horiz-adv-x="662" unicode="↖"/><glyph d="M454 441l-62-62q-22-22-42-47t-53-75q-34-52-56.5-80T192 123l-19 61-62 20q26 26 54 48.5t81 56.5q49 33 74 52.5t47 41.5l62 62-184 37 1 29 288 31 17-17-31-288-29-1z" glyph-name="uni2197" horiz-adv-x="662" unicode="↗"/><glyph d="M520 459l31-288-17-17-288 31-1 29 185 37-62 62q-22 22-47 42t-75 53q-52 34-80 56.5T112 513l61 19 20 62q26-26 48.5-54t56.5-81q33-49 52.5-74t41.5-47l62-62 37 184z" glyph-name="uni2198" horiz-adv-x="662" unicode="↘"/><glyph d="M417 214l-1-29-288-31-17 17 31 288 29 1 37-185 62 62q22 22 42 47t53 75q34 52 56.5 80t48.5 54l19-61 62-20q-26-26-54-48.5T416 407q-49-33-74-52.5T295 313l-62-62z" glyph-name="uni2199" horiz-adv-x="662" unicode="↙"/><glyph d="M774 314v-9H191q-3 0-4-1t-1-3V125q0-6 2-11t6-9q44-46 101-71T415 9q67 0 127 28t105 79h52q-51-59-126-92.5T414-10q-149 0-254.5 95T54 314q0 134 105.5 229T414 638q149 0 254.5-95T774 314zm-132 14v178q0 6-2 11.5t-7 9.5q-44 44-100.5 68T415 619q-62 0-119-24.5T195 524q-5-5-7-10t-2-12V328q0-2 1.5-3.5t3.5-1.5h447q2 0 3 1.5t1 3.5z" glyph-name="estimated" horiz-adv-x="813" unicode="℮"/><glyph d="M714-46l20-51q-51-26-119.5-41T480-153q-190 0-307.5 121.5T55 284q0 205 125.5 340.5T499 760q173 0 286.5-117.5T899 348q0-121-61-202T686 65q-50 0-85 24.5T556 157q-31-49-67-73t-80-24q-81 0-122.5 72.5T265 316l4 22q17 96 77.5 152.5T489 547q42 0 75-17.5t52-49.5q23 12 42.5 26.5T694 537h27l-57-317q-12-64-5.5-92.5T693 99q70 0 119.5 72T862 348q0 162-103 269.5T499 725q-177 0-292-125T92 284Q92 104 198.5-7T480-118q69 0 128.5 18T714-46zM379 346l-10-60q-15-91-.5-141T423 95q35 0 67.5 33.5T556 231l39 217q-15 31-41 47.5T497 512q-46 0-75-40t-43-126z" glyph-name="at.case" horiz-adv-x="950"/><glyph d="M192 619q0 32 20 51.5t51 19.5q32 0 51-19.5t19-51.5q0-31-19-50.5T263 549q-31 0-51 19.5T192 619zm46-158l-2 17h51v-16q0-37-10.5-65T232 331q-39-42-51-77t-12-83q0-71 22.5-108.5T257 25q52 0 73.5 47.5T342 213l115-16q16-90-39-148.5T256-10q-99 0-155.5 47T44 161q0 46 20.5 81.5T151 323q59 41 75 70.5t12 67.5z" glyph-name="questiondown.case" horiz-adv-x="492"/><glyph d="M57 619q0 32 20 51.5t51 19.5q32 0 51-19.5t19-51.5q0-31-19-50.5T128 549q-31 0-51 19.5T57 619zm32-402q13 88 17 143.5t4 117.5h35q0-62 4-117.5T166 217q12-78 15.5-123T185 0H70q0 49 3.5 94T89 217z" glyph-name="exclamdown.case" horiz-adv-x="255"/><glyph d="M56 322v37q0 122 59 227t185 206l23-24q-72-67-108-168.5T179 359v-37q0-139 36-240.5T323-87l-23-24Q174-10 115 95T56 322z" glyph-name="parenleft.case" horiz-adv-x="333"/><glyph d="M277 358v-37q0-122-59-227T33-112L10-88Q82-21 118 80.5T154 321v37q0 139-36 240.5T10 767l23 24q126-101 185-206t59-227z" glyph-name="parenright.case" horiz-adv-x="333"/><glyph d="M297-67h85v-35h-85q-100 0-147 50T127 83l30 106q15 54 2 94t-44 40H32v35h83q31 0 44 39.5t-2 93.5l-30 106q-24 85 23 135t147 50h85v-35h-85q-45 0-60-34t3-97l30-106q18-65-6-109.5T180 340q60-16 84-60.5t6-109.5L240 64q-18-63-3-97t60-34z" glyph-name="braceleft.case" horiz-adv-x="392"/><glyph d="M235 189l30-106q24-85-23-135T95-102H10v35h85q45 0 60 34t-3 97l-30 106q-18 65 6 109.5t84 60.5q-60 16-84 60.5T122 510l30 106q18 63 3 97t-60 34H10v35h85q100 0 147-50t23-135l-30-106q-15-54-2-94t44-40h83v-35h-83q-31 0-44-39.5t2-93.5z" glyph-name="braceright.case" horiz-adv-x="392"/><glyph d="M340 781v-35H210V-67h130v-35H95v883z" glyph-name="bracketleft.case" horiz-adv-x="350"/><glyph d="M10 746v35h245v-883H10v35h130v813z" glyph-name="bracketright.case" horiz-adv-x="350"/><glyph d="M324 337H60v35h264z" glyph-name="hyphen.case" horiz-adv-x="384"/><glyph d="M524 337H60v35h464z" glyph-name="endash.case" horiz-adv-x="584"/><glyph d="M724 337H60v35h664z" glyph-name="emdash.case" horiz-adv-x="784"/><glyph d="M83 433v383h40V433zm0-570v383h40v-383z" glyph-name="brokenbar.case" horiz-adv-x="206"/><glyph d="M88-137v953h40v-953z" glyph-name="bar.case" horiz-adv-x="216"/><glyph d="M430 334l166-214-21-20-275 222v24l275 222 21-20zm-250 0l166-214-21-20L50 322v24l275 222 21-20z" glyph-name="guillemotleft.case" horiz-adv-x="651"/><glyph d="M221 334L55 548l21 20 275-222v-24L76 100l-21 20zm250 0L305 548l21 20 275-222v-24L326 100l-21 20z" glyph-name="guillemotright.case" horiz-adv-x="651"/><glyph d="M180 334l166-214-21-20L50 322v24l275 222 21-20z" glyph-name="guilsinglleft.case" horiz-adv-x="401"/><glyph d="M221 335L55 549l21 20 275-222v-24L76 101l-21 20z" glyph-name="guilsinglright.case" horiz-adv-x="401"/><glyph d="M129 398L22 427q-8 113 63 183t200 70h157L634 84q10-32 15-39.5t21-9.5l55-7V0H449v28l55 7q16 2 17 9.5T512 84l-38 124H245Q168-30 95.5-126.5T-75-223v110q97 0 160 72.5T211 228l134 417h-55q-92 0-132.5-62.5T129 398zm231 177L256 243h207z" glyph-name="A.alt" horiz-adv-x="719"/><glyph d="M112 398L5 427q-8 113 58 183t185 70h221q105 0 160-41.5T684 520v-27q0-53-33-90t-94-53q75-13 116-54t41-103v-28q0-79-56.5-122T494 0H193v28l55 7q16 2 19 9t3 40v561h-17q-81 0-117-63t-24-184zm357 247h-79V365h79q44 0 65.5 30.5T556 488v32q0 63-21.5 94T469 645zm25-315H390V35h104q47 0 69.5 32t22.5 98v33q0 66-23 99t-69 33z" glyph-name="B.alt" horiz-adv-x="766"/><glyph d="M112 398L5 427q-8 113 57.5 183T248 680h240q132 0 198.5-77.5T753 372v-63q0-154-66.5-231.5T488 0H193v28l55 7q16 2 19 9t3 40v561h-17q-82 0-117.5-62.5T112 398zm371 247h-93V35h93q83 0 112.5 49T625 259v163q0 126-29.5 174.5T483 645z" glyph-name="D.alt" horiz-adv-x="819"/><glyph d="M628 61l32 111h28V0H193v28l55 7q16 2 19 9t3 40v561h-17q-82 0-117.5-62.5T112 398L5 427q-8 113 57.5 183T248 680h430V508h-28l-32 111q-6 20-14 23t-40 3H390V361h114q33 0 41 3.5t13 22.5l22 81h28V219h-28l-22 81q-5 19-13 22.5t-41 3.5H390V35h184q32 0 40 3t14 23z" glyph-name="E.alt" horiz-adv-x="753"/><glyph d="M547 381l22 81h28V213h-28l-22 81q-5 19-13 22.5t-41 3.5H390V84q0-34 3-40.5t19-8.5l75-7V0H193v28l55 7q16 2 19 9t3 40v561h-17q-82 0-117.5-62.5T112 398L5 427q-8 113 57.5 183T248 680h419V508h-28l-32 111q-6 20-14 23t-40 3H390V355h103q33 0 41 3.5t13 22.5z" glyph-name="F.alt" horiz-adv-x="704"/><glyph d="M436 273l-75 7v28h284v-28l-55-7q-16-2-19-9t-3-40V-19q0-90-54.5-147T365-223q-71 0-111.5 31.5T205-99l69 20q3-55 23.5-82t62.5-27q48 0 73 38t25 111v88q-28-20-60.5-29.5T327 10q-120 0-190.5 88.5T66 334v43q0 144 72 228.5T335 690q114 0 178.5-60.5T568 477l-117-29q11 97-21 152t-99 55q-69 0-103-60t-34-183V289q0-121 36.5-182.5T339 45q35 0 67 13.5T458 96v128q0 34-3 40.5t-19 8.5z" glyph-name="G.alt" horiz-adv-x="663"/><glyph d="M795 35l55-7V0H576v28l55 7q16 2 19 9t3 40v242H390V84q0-33 3-40t19-9l55-7V0H193v28l55 7q16 2 19 9t3 40v561h-17q-82 0-117.5-62.5T112 398L5 427q-8 113 57.5 183T248 680h219v-28l-55-7q-16-2-19-9t-3-40V361h263v235q0 33-3 40t-19 9l-55 7v28h274v-28l-55-7q-16-2-19-9t-3-40V84q0-33 3-40t19-9z" glyph-name="H.alt" horiz-adv-x="893"/><glyph d="M112 398L5 427q-8 113 57.5 183T248 680h218v-28l-55-7q-16-2-19-9t-3-40V194q0-99-50-151.5T193-10q-73 0-115 38T26 142l69 20q3-69 25.5-103T187 25q43 0 62.5 36.5T269 174v471h-16q-82 0-117.5-62.5T112 398z" glyph-name="J.alt" horiz-adv-x="497"/><glyph d="M112 398L5 427q-8 113 57.5 183T248 680h219v-28l-55-7q-16-2-19-9t-3-40V327l237 269q26 30 29.5 38.5T643 645l-55 7v28h203v-28l-55-7q-14-2-21-7.5T676 596L536 438 709 84q15-31 23-38.5T762 35l45-7V0H617L455 346l-65-74V84q0-33 3-40t19-9l55-7V0H193v28l55 7q16 2 19 9t3 40v561h-17q-82 0-117.5-62.5T112 398z" glyph-name="K.alt" horiz-adv-x="806"/><glyph d="M608 61l32 111h28V0H193v28l55 7q16 2 19 9t3 40v561h-17q-82 0-117.5-62.5T112 398L5 427q-8 113 57.5 183T248 680h219v-28l-55-7q-16-2-19-9t-3-40V35h164q32 0 40 3t14 23z" glyph-name="L.alt" horiz-adv-x="682"/><glyph d="M923 35l55-7V0H704v28l55 7q16 2 19 9t3 40v514L598 80H491L310 595V84q0-33 3-40t19-9l55-7V0H193v28l55 7q16 2 19 9t3 40v561h-17q-82 0-117.5-62.5T112 398L5 427q-8 113 57.5 183T248 680h158l182-517 185 517h205v-28l-55-7q-16-2-19-9t-3-40V84q0-33 3-40t19-9z" glyph-name="M.alt" horiz-adv-x="1021"/><glyph d="M670 645l-55 7v28h194v-28l-55-7q-16-2-19-9t-3-40V0h-55L310 593V84q0-33 3-40t19-9l55-7V0H193v28l55 7q16 2 19 9t3 40v561h-17q-82 0-117.5-62.5T112 398L5 427q-8 113 57.5 183T248 680h146l298-479v395q0 33-3 40t-19 9z" glyph-name="N.alt" horiz-adv-x="837"/><glyph d="M112 398L5 427q-8 113 57.5 183T248 680h246q105 0 162-48.5T713 495v-23q0-88-57-137t-162-49H390V84q0-34 3-40.5t19-8.5l75-7V0H193v28l55 7q16 2 19 9t3 40v561h-17q-82 0-117.5-62.5T112 398zm382 247H390V321h104q44 0 67.5 34t23.5 97v63q0 62-24 96t-67 34z" glyph-name="P.alt" horiz-adv-x="748"/><glyph d="M112 398L5 427q-8 113 57.5 183T248 680h247q103 0 161-46t58-127v-23q0-60-33-102t-95-60L711 84q19-35 24.5-41t20.5-8l45-7V0H614L463 310h-73V84q0-33 3-40t19-9l55-7V0H193v28l55 7q16 2 19 9t3 40v561h-17q-82 0-117.5-62.5T112 398zm383 247H390V345h105q49 0 70 30.5t21 98.5v43q0 67-21 97.5T495 645z" glyph-name="R.alt" horiz-adv-x="801"/><glyph d="M112-24L5 5q-6 89 50.5 136T228 188h55q6-82 47-122.5T447 25q65 0 102 31t37 87q0 48-28.5 77T465 268l-93 28q-70 21-107.5 73T227 497q0 87 58.5 140T445 690q111 0 169-58.5T656 483l-115-21q16 92-13 142.5T432 655q-52 0-82-31t-30-85q0-50 28.5-84t85.5-51l93-28q79-24 115.5-69.5T679 186q0-90-61.5-143T448-10q-98 0-157.5 42.5T217 155q-65-4-89.5-44T112-24z" glyph-name="S.alt" horiz-adv-x="734"/><glyph d="M248 680h386V508h-28l-32 111q-4 16-7.5 20t-11.5 5q-4 0-10.5.5t-24.5.5H419V84q0-33 3-40t19-9l55-7V0H222v28l55 7q16 2 19 9t3 40v561h-46q-82 0-117.5-62.5T112 398L5 427q-8 113 57.5 183T248 680z" glyph-name="T.alt" horiz-adv-x="646"/><glyph d="M682 645l-55 7v28h194v-28l-55-7q-16-2-19-9t-3-40V231q0-121-51-181T539-10q-126 0-197.5 68T270 246v399h-17q-82 0-117.5-62.5T112 398L5 427q-8 113 57.5 183T248 680h219v-28l-55-7q-16-2-19-9t-3-40V239q0-107 39-159.5T548 27q78 0 117 50.5T704 229v367q0 33-3 40t-19 9z" glyph-name="U.alt" horiz-adv-x="850"/><glyph d="M112 398L5 427q-8 113 57.5 183T248 680h185v-28l-55-7q-16-2-17-9.5t9-39.5l152-475 105 331q80 251 153 351t173 100V793q-97 0-160-72.5T667 452L522 0h-86L231 644q-70-9-100-71t-19-175z" glyph-name="V.alt" horiz-adv-x="794"/><glyph d="M112 398L5 427q-8 113 57.5 183T248 680h199v-28l-55-7q-14-2-16-5.5t-1-12.5q0-4 1.5-9.5T381 596l104-466 153 550h83l166-549 70 321q51 233 129 342t197 109V793q-112 0-177.5-78.5T997 452L891 0h-88L639 546 484 0h-87L247 645q-79-2-113-65t-22-182z" glyph-name="W.alt" horiz-adv-x="1113"/><glyph d="M112 398L5 427q-8 113 57.5 183T248 680h179v-28l-55-7q-16-2-15-9.5t18-39.5l100-184 115 184q20 32 21.5 39.5T596 645l-55 7v28h197v-28l-55-7q-16-2-22.5-9T633 596L495 375 652 84q18-34 24-40.5t22-8.5l55-7V0H468v28l55 7q16 2 15.5 9T520 84L409 288 282 84q-20-32-21.5-39.5T276 35l55-7V0H134v28l55 7q16 2 22.5 9T239 84l151 240-173 317q-63-13-89.5-74T112 398z" glyph-name="X.alt" horiz-adv-x="754"/><glyph d="M112 398L5 427q-8 113 57.5 183T248 680h180v-28l-55-7q-16-2-15.5-9.5T374 596l129-258 134 258q16 30 16.5 38.5T638 645l-55 7v28h195v-28l-55-7q-15-2-21-8.5T679 596L522 293V84q0-33 3-40t19-9l55-7V0H325v28l55 7q16 2 19 9t3 40v207L219 642q-63-13-90.5-74.5T112 398z" glyph-name="Y.alt" horiz-adv-x="768"/><glyph d="M129 398L22 427q-8 113 63 183t200 70h157L634 84q10-32 15-39.5t21-9.5l55-7V0H449v28l55 7q16 2 17 9.5T512 84l-38 124H245Q168-30 95.5-126.5T-75-223v110q97 0 160 72.5T211 228l134 417h-55q-92 0-132.5-62.5T129 398zm231 177L256 243h207zm39 177l-24 21q28 44 41 74.5t21 65.5h126q-34-46-71-83t-93-78z" glyph-name="Aacute.alt" horiz-adv-x="719"/><glyph d="M129 398L22 427q-8 113 63 183t200 70h157L634 84q10-32 15-39.5t21-9.5l55-7V0H449v28l55 7q16 2 17 9.5T512 84l-38 124H245Q168-30 95.5-126.5T-75-223v110q97 0 160 72.5T211 228l134 417h-55q-92 0-132.5-62.5T129 398zm231 177L256 243h207zm177 199l-14-22q-37 21-70 44.5T396 841q-24-22-55.5-45.5T277 752l-14 22q34 39 51.5 64.5T356 913h88q24-49 41.5-74.5T537 774z" glyph-name="Acircumflex.alt" horiz-adv-x="719"/><glyph d="M129 398L22 427q-8 113 63 183t200 70h157L634 84q10-32 15-39.5t21-9.5l55-7V0H449v28l55 7q16 2 17 9.5T512 84l-38 124H245Q168-30 95.5-126.5T-75-223v110q97 0 160 72.5T211 228l134 417h-55q-92 0-132.5-62.5T129 398zm231 177L256 243h207zm-8 261q0-28-17.5-45.5T289 773q-28 0-45 17.5T227 836q0 28 17 45t45 17q28 0 45.5-17.5T352 836zm210 0q0-28-17.5-45.5T499 773q-28 0-45 17.5T437 836q0 28 17 45t45 17q28 0 45.5-17.5T562 836z" glyph-name="Adieresis.alt" horiz-adv-x="719"/><glyph d="M129 398L22 427q-8 113 63 183t200 70h157L634 84q10-32 15-39.5t21-9.5l55-7V0H449v28l55 7q16 2 17 9.5T512 84l-38 124H245Q168-30 95.5-126.5T-75-223v110q97 0 160 72.5T211 228l134 417h-55q-92 0-132.5-62.5T129 398zm231 177L256 243h207zm65 198l-24-21q-56 41-93 78t-71 83h126q8-35 21-65.5t41-74.5z" glyph-name="Agrave.alt" horiz-adv-x="719"/><glyph d="M432 84l-38 124H165Q88-30 15.5-126.5T-155-223v110q97 0 160 72.5T131 228l139 432q-36 12-58 42t-22 66v11q0 48 34.5 81t88.5 33q53 0 88-33.5t35-80.5v-11q0-33-18.5-61.5T367 664L554 84q10-32 15-39.5t21-9.5l55-7V0H369v28l55 7q16 2 17 9.5T432 84zm-69 677v25q0 40-12.5 60T313 866q-25 0-37-20t-12-60v-25q0-41 12-61t37-20q25 0 37.5 20.5T363 761zm-83-186L176 243h207z" glyph-name="Aring.alt" horiz-adv-x="639"/><glyph d="M129 398L22 427q-8 113 63 183t200 70h157L634 84q10-32 15-39.5t21-9.5l55-7V0H449v28l55 7q16 2 17 9.5T512 84l-38 124H245Q168-30 95.5-126.5T-75-223v110q97 0 160 72.5T211 228l134 417h-55q-92 0-132.5-62.5T129 398zm231 177L256 243h207zm102 181q-17 0-35 9.5T379 805q-22 21-32 27.5t-19 6.5q-17 0-26.5-18T287 761h-36q8 82 29.5 119.5T340 918q17 0 34-9.5t46-38.5q22-22 33-28.5t20-6.5q16 0 25 17.5t15 60.5h36q-8-82-29-119.5T462 756z" glyph-name="Atilde.alt" horiz-adv-x="719"/><glyph d="M129 398L22 427q-8 113 63 183t200 70h157L634 84q10-32 15-39.5t21-9.5l55-7V0H449v28l55 7q16 2 17 9.5T512 84l-38 124H245Q168-30 95.5-126.5T-75-223v110q97 0 160 72.5T211 228l134 417h-55q-92 0-132.5-62.5T129 398zm231 177L256 243h207zm40 259q48 0 75.5 20.5T513 918l33-10q-15-77-51.5-116.5T400 752q-58 0-94.5 39.5T254 908l33 10q10-43 37.5-63.5T400 834z" glyph-name="Abreve.alt" horiz-adv-x="719"/><glyph d="M129 398L22 427q-8 113 63 183t200 70h157L634 84q10-32 15-39.5t21-9.5l55-7V0H449v28l55 7q16 2 17 9.5T512 84l-38 124H245Q168-30 95.5-126.5T-75-223v110q97 0 160 72.5T211 228l134 417h-55q-92 0-132.5-62.5T129 398zm231 177L256 243h207zM256 847h287v-55H256z" glyph-name="Amacron.alt" horiz-adv-x="719"/><glyph d="M129 398L22 427q-8 113 63 183t200 70h157L634 84q10-32 15-39.5t21-9.5l55-7V0h-63q-64 0-102.5-36T521-129q0-29 11-44.5t32-15.5q24 0 38 19t19 58l64-13q-13-48-46.5-73T556-223q-52 0-85 25.5T438-130q0 37 27 70.5T539-2l-65 210H245Q168-30 95.5-126.5T-75-223v110q97 0 160 72.5T211 228l134 417h-55q-92 0-132.5-62.5T129 398zm231 177L256 243h207z" glyph-name="Aogonek.alt" horiz-adv-x="719"/><glyph d="M112 398L5 427q-8 113 57.5 183T248 680h240q132 0 198.5-77.5T753 372v-63q0-154-66.5-231.5T488 0H193v28l55 7q16 2 19 9t3 40v561h-17q-82 0-117.5-62.5T112 398zm371 247h-93V35h93q83 0 112.5 49T625 259v163q0 126-29.5 174.5T483 645zm123 273l14-22q-34-39-51.5-64.5T527 757h-88q-24 49-41.5 74.5T346 896l14 22q35-20 67.5-43t59.5-46q24 22 55.5 45.5T606 918z" glyph-name="Dcaron.alt" horiz-adv-x="819"/><glyph d="M628 61l32 111h28V0H193v28l55 7q16 2 19 9t3 40v561h-17q-82 0-117.5-62.5T112 398L5 427q-8 113 57.5 183T248 680h430V508h-28l-32 111q-6 20-14 23t-40 3H390V361h114q33 0 41 3.5t13 22.5l22 81h28V219h-28l-22 81q-5 19-13 22.5t-41 3.5H390V35h184q32 0 40 3t14 23zM481 752l-24 21q28 44 41 74.5t21 65.5h126q-34-46-71-83t-93-78z" glyph-name="Eacute.alt" horiz-adv-x="753"/><glyph d="M628 61l32 111h28V0H193v28l55 7q16 2 19 9t3 40v561h-17q-82 0-117.5-62.5T112 398L5 427q-8 113 57.5 183T248 680h430V508h-28l-32 111q-6 20-14 23t-40 3H390V361h114q33 0 41 3.5t13 22.5l22 81h28V219h-28l-22 81q-5 19-13 22.5t-41 3.5H390V35h184q32 0 40 3t14 23zm-9 713l-14-22q-37 21-70 44.5T478 841q-24-22-55.5-45.5T359 752l-14 22q34 39 51.5 64.5T438 913h88q24-49 41.5-74.5T619 774z" glyph-name="Ecircumflex.alt" horiz-adv-x="753"/><glyph d="M628 61l32 111h28V0H193v28l55 7q16 2 19 9t3 40v561h-17q-82 0-117.5-62.5T112 398L5 427q-8 113 57.5 183T248 680h430V508h-28l-32 111q-6 20-14 23t-40 3H390V361h114q33 0 41 3.5t13 22.5l22 81h28V219h-28l-22 81q-5 19-13 22.5t-41 3.5H390V35h184q32 0 40 3t14 23zM439 836q0-28-17.5-45.5T376 773q-28 0-45 17.5T314 836q0 28 17 45t45 17q28 0 45.5-17.5T439 836zm210 0q0-28-17.5-45.5T586 773q-28 0-45 17.5T524 836q0 28 17 45t45 17q28 0 45.5-17.5T649 836z" glyph-name="Edieresis.alt" horiz-adv-x="753"/><glyph d="M628 61l32 111h28V0H193v28l55 7q16 2 19 9t3 40v561h-17q-82 0-117.5-62.5T112 398L5 427q-8 113 57.5 183T248 680h430V508h-28l-32 111q-6 20-14 23t-40 3H390V361h114q33 0 41 3.5t13 22.5l22 81h28V219h-28l-22 81q-5 19-13 22.5t-41 3.5H390V35h184q32 0 40 3t14 23zM507 773l-24-21q-56 41-93 78t-71 83h126q8-35 21-65.5t41-74.5z" glyph-name="Egrave.alt" horiz-adv-x="753"/><glyph d="M628 61l32 111h28V0H193v28l55 7q16 2 19 9t3 40v561h-17q-82 0-117.5-62.5T112 398L5 427q-8 113 57.5 183T248 680h430V508h-28l-32 111q-6 20-14 23t-40 3H390V361h114q33 0 41 3.5t13 22.5l22 81h28V219h-28l-22 81q-5 19-13 22.5t-41 3.5H390V35h184q32 0 40 3t14 23zM482 834q48 0 75.5 20.5T595 918l33-10q-15-77-51.5-116.5T482 752q-58 0-94.5 39.5T336 908l33 10q10-43 37.5-63.5T482 834z" glyph-name="Ebreve.alt" horiz-adv-x="753"/><glyph d="M628 61l32 111h28V0H193v28l55 7q16 2 19 9t3 40v561h-17q-82 0-117.5-62.5T112 398L5 427q-8 113 57.5 183T248 680h430V508h-28l-32 111q-6 20-14 23t-40 3H390V361h114q33 0 41 3.5t13 22.5l22 81h28V219h-28l-22 81q-5 19-13 22.5t-41 3.5H390V35h184q32 0 40 3t14 23zm-23 857l14-22q-34-39-51.5-64.5T526 757h-88q-24 49-41.5 74.5T345 896l14 22q35-20 67.5-43t59.5-46q24 22 55.5 45.5T605 918z" glyph-name="Ecaron.alt" horiz-adv-x="753"/><glyph d="M628 61l32 111h28V0H193v28l55 7q16 2 19 9t3 40v561h-17q-82 0-117.5-62.5T112 398L5 427q-8 113 57.5 183T248 680h430V508h-28l-32 111q-6 20-14 23t-40 3H390V361h114q33 0 41 3.5t13 22.5l22 81h28V219h-28l-22 81q-5 19-13 22.5t-41 3.5H390V35h184q32 0 40 3t14 23zm-77 775q0-31-19.5-50.5T481 766q-31 0-50 19.5T412 836q0 31 19 50t50 19q31 0 50.5-19.5T551 836z" glyph-name="Edotaccent.alt" horiz-adv-x="753"/><glyph d="M628 61l32 111h28V0H193v28l55 7q16 2 19 9t3 40v561h-17q-82 0-117.5-62.5T112 398L5 427q-8 113 57.5 183T248 680h430V508h-28l-32 111q-6 20-14 23t-40 3H390V361h114q33 0 41 3.5t13 22.5l22 81h28V219h-28l-22 81q-5 19-13 22.5t-41 3.5H390V35h184q32 0 40 3t14 23zM338 847h287v-55H338z" glyph-name="Emacron.alt" horiz-adv-x="753"/><glyph d="M628 61l32 111h28V0h-23q-64 0-102.5-36T524-129q0-29 11-44.5t32-15.5q24 0 38 19t19 58l64-13q-13-48-46.5-73T559-223q-52 0-85 25.5T441-130q0 39 31.5 74T558 0H193v28l55 7q16 2 19 9t3 40v561h-17q-82 0-117.5-62.5T112 398L5 427q-8 113 57.5 183T248 680h430V508h-28l-32 111q-6 20-14 23t-40 3H390V361h114q33 0 41 3.5t13 22.5l22 81h28V219h-28l-22 81q-5 19-13 22.5t-41 3.5H390V35h184q32 0 40 3t14 23z" glyph-name="Eogonek.alt" horiz-adv-x="753"/><glyph d="M436 273l-75 7v28h284v-28l-55-7q-16-2-19-9t-3-40V-19q0-90-54.5-147T365-223q-71 0-111.5 31.5T205-99l69 20q3-55 23.5-82t62.5-27q48 0 73 38t25 111v88q-28-20-60.5-29.5T327 10q-120 0-190.5 88.5T66 334v43q0 144 72 228.5T335 690q114 0 178.5-60.5T568 477l-117-29q11 97-21 152t-99 55q-69 0-103-60t-34-183V289q0-121 36.5-182.5T339 45q35 0 67 13.5T458 96v128q0 34-3 40.5t-19 8.5zm-95 561q48 0 75.5 20.5T454 918l33-10q-15-77-51.5-116.5T341 752q-58 0-94.5 39.5T195 908l33 10q10-43 37.5-63.5T341 834z" glyph-name="Gbreve.alt" horiz-adv-x="663"/><glyph d="M436 273l-75 7v28h284v-28l-55-7q-16-2-19-9t-3-40V-19q0-90-54.5-147T365-223q-71 0-111.5 31.5T205-99l69 20q3-55 23.5-82t62.5-27q48 0 73 38t25 111v88q-28-20-60.5-29.5T327 10q-120 0-190.5 88.5T66 334v43q0 144 72 228.5T335 690q114 0 178.5-60.5T568 477l-117-29q11 97-21 152t-99 55q-69 0-103-60t-34-183V289q0-121 36.5-182.5T339 45q35 0 67 13.5T458 96v128q0 34-3 40.5t-19 8.5zm42 501l-14-22q-37 21-70 44.5T337 841q-24-22-55.5-45.5T218 752l-14 22q34 39 51.5 64.5T297 913h88q24-49 41.5-74.5T478 774z" glyph-name="Gcircumflex.alt" horiz-adv-x="663"/><glyph d="M436 273l-75 7v28h284v-28l-55-7q-16-2-19-9t-3-40V-19q0-90-54.5-147T365-223q-71 0-111.5 31.5T205-99l69 20q3-55 23.5-82t62.5-27q48 0 73 38t25 111v88q-28-20-60.5-29.5T327 10q-120 0-190.5 88.5T66 334v43q0 144 72 228.5T335 690q114 0 178.5-60.5T568 477l-117-29q11 97-21 152t-99 55q-69 0-103-60t-34-183V289q0-121 36.5-182.5T339 45q35 0 67 13.5T458 96v128q0 34-3 40.5t-19 8.5zm-26 563q0-31-19.5-50.5T340 766q-31 0-50 19.5T271 836q0 31 19 50t50 19q31 0 50.5-19.5T410 836z" glyph-name="Gdotaccent.alt" horiz-adv-x="663"/><glyph d="M795 35l55-7V0H576v28l55 7q16 2 19 9t3 40v242H390V84q0-33 3-40t19-9l55-7V0H193v28l55 7q16 2 19 9t3 40v561h-17q-82 0-117.5-62.5T112 398L5 427q-8 113 57.5 183T248 680h219v-28l-55-7q-16-2-19-9t-3-40V361h263v235q0 33-3 40t-19 9l-55 7v28h274v-28l-55-7q-16-2-19-9t-3-40V84q0-33 3-40t19-9zM659 774l-14-22q-37 21-70 44.5T518 841q-24-22-55.5-45.5T399 752l-14 22q34 39 51.5 64.5T478 913h88q24-49 41.5-74.5T659 774z" glyph-name="Hcircumflex.alt" horiz-adv-x="893"/><glyph d="M112 398L5 427q-8 113 57.5 183T248 680h218v-28l-55-7q-16-2-19-9t-3-40V194q0-99-50-151.5T193-10q-73 0-115 38T26 142l69 20q3-69 25.5-103T187 25q43 0 62.5 36.5T269 174v471h-16q-82 0-117.5-62.5T112 398zm355 376l-14-22q-37 21-70 44.5T326 841q-24-22-55.5-45.5T207 752l-14 22q34 39 51.5 64.5T286 913h88q24-49 41.5-74.5T467 774z" glyph-name="Jcircumflex.alt" horiz-adv-x="497"/><glyph d="M112 398L5 427q-8 113 57.5 183T248 680h219v-28l-55-7q-16-2-19-9t-3-40V327l237 269q26 30 29.5 38.5T643 645l-55 7v28h203v-28l-55-7q-14-2-21-7.5T676 596L536 438 709 84q15-31 23-38.5T762 35l45-7V0H617L455 346l-65-74V84q0-33 3-40t19-9l55-7V0H193v28l55 7q16 2 19 9t3 40v561h-17q-82 0-117.5-62.5T112 398zm310-646l-19 18q17 36 27.5 72T446-77h113q-24-48-58-90.5T422-248z" glyph-name="Kcommaaccent.alt" horiz-adv-x="806"/><glyph d="M608 61l32 111h28V0H193v28l55 7q16 2 19 9t3 40v561h-17q-82 0-117.5-62.5T112 398L5 427q-8 113 57.5 183T248 680h219v-28l-55-7q-16-2-19-9t-3-40V35h164q32 0 40 3t14 23zM334 752l-24 21q28 44 41 74.5t21 65.5h126q-34-46-71-83t-93-78z" glyph-name="Lacute.alt" horiz-adv-x="682"/><glyph d="M608 61l32 111h28V0H193v28l55 7q16 2 19 9t3 40v561h-17q-82 0-117.5-62.5T112 398L5 427q-8 113 57.5 183T248 680h219v-28l-55-7q-16-2-19-9t-3-40V35h164q32 0 40 3t14 23zm-66 405h-24v214h109q-19-60-39-109.5T542 466z" glyph-name="Lcaron.alt" horiz-adv-x="682"/><glyph d="M608 61l32 111h28V0H193v28l55 7q16 2 19 9t3 40v561h-17q-82 0-117.5-62.5T112 398L5 427q-8 113 57.5 183T248 680h219v-28l-55-7q-16-2-19-9t-3-40V35h164q32 0 40 3t14 23zM364-248l-19 18q17 36 27.5 72T388-77h113q-24-48-58-90.5T364-248z" glyph-name="Lcommaaccent.alt" horiz-adv-x="682"/><glyph d="M670 645l-55 7v28h194v-28l-55-7q-16-2-19-9t-3-40V0h-55L310 593V84q0-33 3-40t19-9l55-7V0H193v28l55 7q16 2 19 9t3 40v561h-17q-82 0-117.5-62.5T112 398L5 427q-8 113 57.5 183T248 680h146l298-479v395q0 33-3 40t-19 9zm-98 111q-17 0-35 9.5T489 805q-22 21-32 27.5t-19 6.5q-17 0-26.5-18T397 761h-36q8 82 29.5 119.5T450 918q17 0 34-9.5t46-38.5q22-22 33-28.5t20-6.5q16 0 25 17.5t15 60.5h36q-8-82-29-119.5T572 756z" glyph-name="Ntilde.alt" horiz-adv-x="837"/><glyph d="M670 645l-55 7v28h194v-28l-55-7q-16-2-19-9t-3-40V0h-55L310 593V84q0-33 3-40t19-9l55-7V0H193v28l55 7q16 2 19 9t3 40v561h-17q-82 0-117.5-62.5T112 398L5 427q-8 113 57.5 183T248 680h146l298-479v395q0 33-3 40t-19 9zM509 752l-24 21q28 44 41 74.5t21 65.5h126q-34-46-71-83t-93-78z" glyph-name="Nacute.alt" horiz-adv-x="837"/><glyph d="M670 645l-55 7v28h194v-28l-55-7q-16-2-19-9t-3-40V0h-55L310 593V84q0-33 3-40t19-9l55-7V0H193v28l55 7q16 2 19 9t3 40v561h-17q-82 0-117.5-62.5T112 398L5 427q-8 113 57.5 183T248 680h146l298-479v395q0 33-3 40t-19 9zm-37 273l14-22q-34-39-51.5-64.5T554 757h-88q-24 49-41.5 74.5T373 896l14 22q35-20 67.5-43t59.5-46q24 22 55.5 45.5T633 918z" glyph-name="Ncaron.alt" horiz-adv-x="837"/><glyph d="M670 645l-55 7v28h194v-28l-55-7q-16-2-19-9t-3-40V0h-55L310 593V84q0-33 3-40t19-9l55-7V0H193v28l55 7q16 2 19 9t3 40v561h-17q-82 0-117.5-62.5T112 398L5 427q-8 113 57.5 183T248 680h146l298-479v395q0 33-3 40t-19 9zM425-248l-19 18q17 36 27.5 72T449-77h113q-24-48-58-90.5T425-248z" glyph-name="Ncommaaccent.alt" horiz-adv-x="837"/><glyph d="M809 652l-55-7q-16-2-19-9t-3-40V-19q0-94-48.5-149T547-223q-67 0-107.5 38.5T389-71l69 20q3-69 24-103t61-34q36 0 55 37.5T617-39V97L310 593V84q0-33 3-40t19-9l55-7V0H193v28l55 7q16 2 19 9t3 40v561h-17q-82 0-117.5-62.5T112 398L5 427q-8 113 57.5 183T248 680h146l298-479v395q0 33-3 40t-19 9l-55 7v28h194z" glyph-name="Eng.alt" horiz-adv-x="837"/><glyph d="M112 398L5 427q-8 113 57.5 183T248 680h247q103 0 161-46t58-127v-23q0-60-33-102t-95-60L711 84q19-35 24.5-41t20.5-8l45-7V0H614L463 310h-73V84q0-33 3-40t19-9l55-7V0H193v28l55 7q16 2 19 9t3 40v561h-17q-82 0-117.5-62.5T112 398zm383 247H390V345h105q49 0 70 30.5t21 98.5v43q0 67-21 97.5T495 645zm-24 107l-24 21q28 44 41 74.5t21 65.5h126q-34-46-71-83t-93-78z" glyph-name="Racute.alt" horiz-adv-x="801"/><glyph d="M112 398L5 427q-8 113 57.5 183T248 680h247q103 0 161-46t58-127v-23q0-60-33-102t-95-60L711 84q19-35 24.5-41t20.5-8l45-7V0H614L463 310h-73V84q0-33 3-40t19-9l55-7V0H193v28l55 7q16 2 19 9t3 40v561h-17q-82 0-117.5-62.5T112 398zm383 247H390V345h105q49 0 70 30.5t21 98.5v43q0 67-21 97.5T495 645zm100 273l14-22q-34-39-51.5-64.5T516 757h-88q-24 49-41.5 74.5T335 896l14 22q35-20 67.5-43t59.5-46q24 22 55.5 45.5T595 918z" glyph-name="Rcaron.alt" horiz-adv-x="801"/><glyph d="M112 398L5 427q-8 113 57.5 183T248 680h247q103 0 161-46t58-127v-23q0-60-33-102t-95-60L711 84q19-35 24.5-41t20.5-8l45-7V0H614L463 310h-73V84q0-33 3-40t19-9l55-7V0H193v28l55 7q16 2 19 9t3 40v561h-17q-82 0-117.5-62.5T112 398zm383 247H390V345h105q49 0 70 30.5t21 98.5v43q0 67-21 97.5T495 645zm-75-893l-19 18q17 36 27.5 72T444-77h113q-24-48-58-90.5T420-248z" glyph-name="Rcommaaccent.alt" horiz-adv-x="801"/><glyph d="M112-24L5 5q-6 89 50.5 136T228 188h55q6-82 47-122.5T447 25q65 0 102 31t37 87q0 48-28.5 77T465 268l-93 28q-70 21-107.5 73T227 497q0 87 58.5 140T445 690q111 0 169-58.5T656 483l-115-21q16 92-13 142.5T432 655q-52 0-82-31t-30-85q0-50 28.5-84t85.5-51l93-28q79-24 115.5-69.5T679 186q0-90-61.5-143T448-10q-98 0-157.5 42.5T217 155q-65-4-89.5-44T112-24zm459 942l14-22q-34-39-51.5-64.5T492 757h-88q-24 49-41.5 74.5T311 896l14 22q35-20 67.5-43t59.5-46q24 22 55.5 45.5T571 918z" glyph-name="Scaron.alt" horiz-adv-x="734"/><glyph d="M112-24L5 5q-6 89 50.5 136T228 188h55q6-82 47-122.5T447 25q65 0 102 31t37 87q0 48-28.5 77T465 268l-93 28q-70 21-107.5 73T227 497q0 87 58.5 140T445 690q111 0 169-58.5T656 483l-115-21q16 92-13 142.5T432 655q-52 0-82-31t-30-85q0-50 28.5-84t85.5-51l93-28q79-24 115.5-69.5T679 186q0-90-61.5-143T448-10q-98 0-157.5 42.5T217 155q-65-4-89.5-44T112-24zm335 776l-24 21q28 44 41 74.5t21 65.5h126q-34-46-71-83t-93-78z" glyph-name="Sacute.alt" horiz-adv-x="734"/><glyph d="M544-140q0-38-32.5-60.5T425-223q-48 0-76 19.5T314-145l55 14q3-31 15-45.5t33-14.5q21 0 32.5 13t11.5 38q0 27-13 40t-39 13q-3 0-7-.5T389-89l-13 26 23 56Q322 3 275.5 44.5T217 155q-65-4-89.5-44T112-24L5 5q-6 89 50.5 136T228 188h55q6-82 47-122.5T447 25q65 0 102 31t37 87q0 48-28.5 77T465 268l-93 28q-70 21-107.5 73T227 497q0 87 58.5 140T445 690q111 0 169-58.5T656 483l-115-21q16 92-13 142.5T432 655q-52 0-82-31t-30-85q0-50 28.5-84t85.5-51l93-28q79-24 115.5-69.5T679 186q0-90-61.5-143T448-10h-10l-19-45q58-2 91.5-24.5T544-140z" glyph-name="Scedilla.alt" horiz-adv-x="734"/><glyph d="M112-24L5 5q-6 89 50.5 136T228 188h55q6-82 47-122.5T447 25q65 0 102 31t37 87q0 48-28.5 77T465 268l-93 28q-70 21-107.5 73T227 497q0 87 58.5 140T445 690q111 0 169-58.5T656 483l-115-21q16 92-13 142.5T432 655q-52 0-82-31t-30-85q0-50 28.5-84t85.5-51l93-28q79-24 115.5-69.5T679 186q0-90-61.5-143T448-10q-98 0-157.5 42.5T217 155q-65-4-89.5-44T112-24zm473 798l-14-22q-37 21-70 44.5T444 841q-24-22-55.5-45.5T325 752l-14 22q34 39 51.5 64.5T404 913h88q24-49 41.5-74.5T585 774z" glyph-name="Scircumflex.alt" horiz-adv-x="734"/><glyph d="M112-24L5 5q-6 89 50.5 136T228 188h55q6-82 47-122.5T447 25q65 0 102 31t37 87q0 48-28.5 77T465 268l-93 28q-70 21-107.5 73T227 497q0 87 58.5 140T445 690q111 0 169-58.5T656 483l-115-21q16 92-13 142.5T432 655q-52 0-82-31t-30-85q0-50 28.5-84t85.5-51l93-28q79-24 115.5-69.5T679 186q0-90-61.5-143T448-10q-98 0-157.5 42.5T217 155q-65-4-89.5-44T112-24zm256-224l-19 18q17 36 27.5 72T392-77h113q-24-48-58-90.5T368-248z" glyph-name="uni0218.alt" horiz-adv-x="734"/><glyph d="M441 35l55-7V0H222v28l55 7q16 2 19 9t3 40v238H158v35h141v288h-46q-82 0-117.5-62.5T112 398L5 427q-8 113 57.5 183T248 680h386V508h-28l-32 111q-4 16-7.5 20t-11.5 5q-4 0-10.5.5t-24.5.5H419V357h141v-35H419V84q0-33 3-40t19-9z" glyph-name="Tbar.alt" horiz-adv-x="646"/><glyph d="M248 680h386V508h-28l-32 111q-4 16-7.5 20t-11.5 5q-4 0-10.5.5t-24.5.5H419V84q0-33 3-40t19-9l55-7V0H222v28l55 7q16 2 19 9t3 40v561h-46q-82 0-117.5-62.5T112 398L5 427q-8 113 57.5 183T248 680zm234 238l14-22q-34-39-51.5-64.5T403 757h-88q-24 49-41.5 74.5T222 896l14 22q35-20 67.5-43t59.5-46q24 22 55.5 45.5T482 918z" glyph-name="Tcaron.alt" horiz-adv-x="646"/><glyph d="M248 680h386V508h-28l-32 111q-4 16-7.5 20t-11.5 5q-4 0-10.5.5t-24.5.5H419V84q0-33 3-40t19-9l55-7V0H222v28l55 7q16 2 19 9t3 40v561h-46q-82 0-117.5-62.5T112 398L5 427q-8 113 57.5 183T248 680zm31-928l-19 18q17 36 27.5 72T303-77h113q-24-48-58-90.5T279-248z" glyph-name="uni0162.alt" horiz-adv-x="646"/><glyph d="M248 680h386V508h-28l-32 111q-4 16-7.5 20t-11.5 5q-4 0-10.5.5t-24.5.5H419V84q0-33 3-40t19-9l55-7V0H222v28l55 7q16 2 19 9t3 40v561h-46q-82 0-117.5-62.5T112 398L5 427q-8 113 57.5 183T248 680zm31-928l-19 18q17 36 27.5 72T303-77h113q-24-48-58-90.5T279-248z" glyph-name="uni021A.alt" horiz-adv-x="646"/><glyph d="M682 645l-55 7v28h194v-28l-55-7q-16-2-19-9t-3-40V231q0-121-51-181T539-10q-126 0-197.5 68T270 246v399h-17q-82 0-117.5-62.5T112 398L5 427q-8 113 57.5 183T248 680h219v-28l-55-7q-16-2-19-9t-3-40V239q0-107 39-159.5T548 27q78 0 117 50.5T704 229v367q0 33-3 40t-19 9zM547 752l-24 21q28 44 41 74.5t21 65.5h126q-34-46-71-83t-93-78z" glyph-name="Uacute.alt" horiz-adv-x="850"/><glyph d="M682 645l-55 7v28h194v-28l-55-7q-16-2-19-9t-3-40V231q0-121-51-181T539-10q-126 0-197.5 68T270 246v399h-17q-82 0-117.5-62.5T112 398L5 427q-8 113 57.5 183T248 680h219v-28l-55-7q-16-2-19-9t-3-40V239q0-107 39-159.5T548 27q78 0 117 50.5T704 229v367q0 33-3 40t-19 9zm3 129l-14-22q-37 21-70 44.5T544 841q-24-22-55.5-45.5T425 752l-14 22q34 39 51.5 64.5T504 913h88q24-49 41.5-74.5T685 774z" glyph-name="Ucircumflex.alt" horiz-adv-x="850"/><glyph d="M682 645l-55 7v28h194v-28l-55-7q-16-2-19-9t-3-40V231q0-121-51-181T539-10q-126 0-197.5 68T270 246v399h-17q-82 0-117.5-62.5T112 398L5 427q-8 113 57.5 183T248 680h219v-28l-55-7q-16-2-19-9t-3-40V239q0-107 39-159.5T548 27q78 0 117 50.5T704 229v367q0 33-3 40t-19 9zM506 836q0-28-17.5-45.5T443 773q-28 0-45 17.5T381 836q0 28 17 45t45 17q28 0 45.5-17.5T506 836zm210 0q0-28-17.5-45.5T653 773q-28 0-45 17.5T591 836q0 28 17 45t45 17q28 0 45.5-17.5T716 836z" glyph-name="Udieresis.alt" horiz-adv-x="850"/><glyph d="M682 645l-55 7v28h194v-28l-55-7q-16-2-19-9t-3-40V231q0-121-51-181T539-10q-126 0-197.5 68T270 246v399h-17q-82 0-117.5-62.5T112 398L5 427q-8 113 57.5 183T248 680h219v-28l-55-7q-16-2-19-9t-3-40V239q0-107 39-159.5T548 27q78 0 117 50.5T704 229v367q0 33-3 40t-19 9zM573 773l-24-21q-56 41-93 78t-71 83h126q8-35 21-65.5t41-74.5z" glyph-name="Ugrave.alt" horiz-adv-x="850"/><glyph d="M682 645l-55 7v28h194v-28l-55-7q-16-2-19-9t-3-40V231q0-121-51-181T539-10q-126 0-197.5 68T270 246v399h-17q-82 0-117.5-62.5T112 398L5 427q-8 113 57.5 183T248 680h219v-28l-55-7q-16-2-19-9t-3-40V239q0-107 39-159.5T548 27q78 0 117 50.5T704 229v367q0 33-3 40t-19 9zM548 834q48 0 75.5 20.5T661 918l33-10q-15-77-51.5-116.5T548 752q-58 0-94.5 39.5T402 908l33 10q10-43 37.5-63.5T548 834z" glyph-name="Ubreve.alt" horiz-adv-x="850"/><glyph d="M682 645l-55 7v28h194v-28l-55-7q-16-2-19-9t-3-40V231q0-121-51-181T539-10q-126 0-197.5 68T270 246v399h-17q-82 0-117.5-62.5T112 398L5 427q-8 113 57.5 183T248 680h219v-28l-55-7q-16-2-19-9t-3-40V239q0-107 39-159.5T548 27q78 0 117 50.5T704 229v367q0 33-3 40t-19 9zM468 752l-27 24q20 30 32 61.5t22 75.5h111q-28-45-61-83.5T468 752zm140 0l-27 24q20 30 32 61.5t22 75.5h111q-28-45-61-83.5T608 752z" glyph-name="Uhungarumlaut.alt" horiz-adv-x="850"/><glyph d="M682 645l-55 7v28h194v-28l-55-7q-16-2-19-9t-3-40V231q0-121-51-181T539-10q-126 0-197.5 68T270 246v399h-17q-82 0-117.5-62.5T112 398L5 427q-8 113 57.5 183T248 680h219v-28l-55-7q-16-2-19-9t-3-40V239q0-107 39-159.5T548 27q78 0 117 50.5T704 229v367q0 33-3 40t-19 9zM405 847h287v-55H405z" glyph-name="Umacron.alt" horiz-adv-x="850"/><glyph d="M682 645l-55 7v28h194v-28l-55-7q-16-2-19-9t-3-40V231q0-67-14-112t-49-82q-15-16-42-38.5T603-33q-23-21-32.5-43t-9.5-49q0-32 11-48t33-16q23 0 37 19t19 58l64-13q-13-48-46.5-73T596-223q-53 0-85.5 26T478-129q0 32 20 58t83 64q-10-2-20.5-2.5T539-10q-126 0-197.5 68T270 246v399h-17q-82 0-117.5-62.5T112 398L5 427q-8 113 57.5 183T248 680h219v-28l-55-7q-16-2-19-9t-3-40V239q0-107 39-159.5T548 27q78 0 117 50.5T704 229v367q0 33-3 40t-19 9z" glyph-name="Uogonek.alt" horiz-adv-x="850"/><glyph d="M682 645l-55 7v28h194v-28l-55-7q-16-2-19-9t-3-40V231q0-121-51-181T539-10q-126 0-197.5 68T270 246v399h-17q-82 0-117.5-62.5T112 398L5 427q-8 113 57.5 183T248 680h219v-28l-55-7q-16-2-19-9t-3-40V239q0-107 39-159.5T548 27q78 0 117 50.5T704 229v367q0 33-3 40t-19 9zM548 976q53 0 88-33.5t35-80.5v-11q0-47-35-81t-88-34q-53 0-88 33.5T425 851v11q0 48 34.5 81t88.5 33zm50-132v25q0 40-12.5 60T548 949q-25 0-37-20t-12-60v-25q0-41 12-61t37-20q25 0 37.5 20.5T598 844z" glyph-name="Uring.alt" horiz-adv-x="850"/><glyph d="M682 645l-55 7v28h194v-28l-55-7q-16-2-19-9t-3-40V231q0-121-51-181T539-10q-126 0-197.5 68T270 246v399h-17q-82 0-117.5-62.5T112 398L5 427q-8 113 57.5 183T248 680h219v-28l-55-7q-16-2-19-9t-3-40V239q0-107 39-159.5T548 27q78 0 117 50.5T704 229v367q0 33-3 40t-19 9zm-72 111q-17 0-35 9.5T527 805q-22 21-32 27.5t-19 6.5q-17 0-26.5-18T435 761h-36q8 82 29.5 119.5T488 918q17 0 34-9.5t46-38.5q22-22 33-28.5t20-6.5q16 0 25 17.5t15 60.5h36q-8-82-29-119.5T610 756z" glyph-name="Utilde.alt" horiz-adv-x="850"/><glyph d="M112 398L5 427q-8 113 57.5 183T248 680h199v-28l-55-7q-14-2-16-5.5t-1-12.5q0-4 1.5-9.5T381 596l104-466 153 550h83l166-549 70 321q51 233 129 342t197 109V793q-112 0-177.5-78.5T997 452L891 0h-88L639 546 484 0h-87L247 645q-79-2-113-65t-22-182zm559 354l-24 21q28 44 41 74.5t21 65.5h126q-34-46-71-83t-93-78z" glyph-name="Wacute.alt" horiz-adv-x="1113"/><glyph d="M112 398L5 427q-8 113 57.5 183T248 680h199v-28l-55-7q-14-2-16-5.5t-1-12.5q0-4 1.5-9.5T381 596l104-466 153 550h83l166-549 70 321q51 233 129 342t197 109V793q-112 0-177.5-78.5T997 452L891 0h-88L639 546 484 0h-87L247 645q-79-2-113-65t-22-182zm697 376l-14-22q-37 21-70 44.5T668 841q-24-22-55.5-45.5T549 752l-14 22q34 39 51.5 64.5T628 913h88q24-49 41.5-74.5T809 774z" glyph-name="Wcircumflex.alt" horiz-adv-x="1113"/><glyph d="M112 398L5 427q-8 113 57.5 183T248 680h199v-28l-55-7q-14-2-16-5.5t-1-12.5q0-4 1.5-9.5T381 596l104-466 153 550h83l166-549 70 321q51 233 129 342t197 109V793q-112 0-177.5-78.5T997 452L891 0h-88L639 546 484 0h-87L247 645q-79-2-113-65t-22-182zm518 438q0-28-17.5-45.5T567 773q-28 0-45 17.5T505 836q0 28 17 45t45 17q28 0 45.5-17.5T630 836zm210 0q0-28-17.5-45.5T777 773q-28 0-45 17.5T715 836q0 28 17 45t45 17q28 0 45.5-17.5T840 836z" glyph-name="Wdieresis.alt" horiz-adv-x="1113"/><glyph d="M112 398L5 427q-8 113 57.5 183T248 680h199v-28l-55-7q-14-2-16-5.5t-1-12.5q0-4 1.5-9.5T381 596l104-466 153 550h83l166-549 70 321q51 233 129 342t197 109V793q-112 0-177.5-78.5T997 452L891 0h-88L639 546 484 0h-87L247 645q-79-2-113-65t-22-182zm585 375l-24-21q-56 41-93 78t-71 83h126q8-35 21-65.5t41-74.5z" glyph-name="Wgrave.alt" horiz-adv-x="1113"/><glyph d="M112 398L5 427q-8 113 57.5 183T248 680h180v-28l-55-7q-16-2-15.5-9.5T374 596l129-258 134 258q16 30 16.5 38.5T638 645l-55 7v28h195v-28l-55-7q-15-2-21-8.5T679 596L522 293V84q0-33 3-40t19-9l55-7V0H325v28l55 7q16 2 19 9t3 40v207L219 642q-63-13-90.5-74.5T112 398zm378 354l-24 21q28 44 41 74.5t21 65.5h126q-34-46-71-83t-93-78z" glyph-name="Yacute.alt" horiz-adv-x="768"/><glyph d="M112 398L5 427q-8 113 57.5 183T248 680h180v-28l-55-7q-16-2-15.5-9.5T374 596l129-258 134 258q16 30 16.5 38.5T638 645l-55 7v28h195v-28l-55-7q-15-2-21-8.5T679 596L522 293V84q0-33 3-40t19-9l55-7V0H325v28l55 7q16 2 19 9t3 40v207L219 642q-63-13-90.5-74.5T112 398zm336 438q0-28-17.5-45.5T385 773q-28 0-45 17.5T323 836q0 28 17 45t45 17q28 0 45.5-17.5T448 836zm210 0q0-28-17.5-45.5T595 773q-28 0-45 17.5T533 836q0 28 17 45t45 17q28 0 45.5-17.5T658 836z" glyph-name="Ydieresis.alt" horiz-adv-x="768"/><glyph d="M112 398L5 427q-8 113 57.5 183T248 680h180v-28l-55-7q-16-2-15.5-9.5T374 596l129-258 134 258q16 30 16.5 38.5T638 645l-55 7v28h195v-28l-55-7q-15-2-21-8.5T679 596L522 293V84q0-33 3-40t19-9l55-7V0H325v28l55 7q16 2 19 9t3 40v207L219 642q-63-13-90.5-74.5T112 398zm516 376l-14-22q-37 21-70 44.5T487 841q-24-22-55.5-45.5T368 752l-14 22q34 39 51.5 64.5T447 913h88q24-49 41.5-74.5T628 774z" glyph-name="Ycircumflex.alt" horiz-adv-x="768"/><glyph d="M112 398L5 427q-8 113 57.5 183T248 680h180v-28l-55-7q-16-2-15.5-9.5T374 596l129-258 134 258q16 30 16.5 38.5T638 645l-55 7v28h195v-28l-55-7q-15-2-21-8.5T679 596L522 293V84q0-33 3-40t19-9l55-7V0H325v28l55 7q16 2 19 9t3 40v207L219 642q-63-13-90.5-74.5T112 398zm404 375l-24-21q-56 41-93 78t-71 83h126q8-35 21-65.5t41-74.5z" glyph-name="Ygrave.alt" horiz-adv-x="768"/></font>
</defs>
</svg>
