<svg xmlns="http://www.w3.org/2000/svg"><defs><font horiz-adv-x="0" id="font"><font-face ascent="650" bbox="-228 -242 1379 974" cap-height="680" descent="-200" font-family="Inria Serif" font-style="normal" font-weight="680" x-height="495"/><glyph glyph-name=".null" horiz-adv-x="0"/><glyph glyph-name="CR" horiz-adv-x="0"/><glyph glyph-name="space" horiz-adv-x="227"/><glyph glyph-name="uni00A0" horiz-adv-x="227"/><glyph d="M98 32l54-6-5-26H-46l5 26 55 6q17 2 23 8.5T59 81l299 599h63l89-599q5-34 8.5-40.5T537 32l54-6-4-26H347l5 26 56 6q17 2 19 9t-2 40l-18 128H163L99 81Q83 48 82.5 41T98 32zm254 557L179 241h223z" glyph-name="A" horiz-adv-x="628" unicode="A"/><glyph d="M174 648l-55 5 5 27h268q91 0 137-46t34-120l-4-28q-9-53-44.5-88T421 349q64-14 94.5-56.5T536 188l-5-27q-12-76-71-118.5T307 0H4l5 26 56 6q17 2 21 8.5T96 81l91 518q6 33 4.5 40t-17.5 9zm217 0H282l-50-286h108q51 0 83 29.5t42 86.5l7 41q12 63-9 96t-72 33zm-31-318H226L174 32h133q53 0 86.5 31.5T438 156l7 41q12 64-10 98.5T360 330z" glyph-name="B" horiz-adv-x="605" unicode="B"/><glyph d="M297-10q-122 0-178.5 87.5T86 315l11 67q23 146 101 227t195 81q104 0 156-62.5T574 480l-90-21q27 95 3 147t-95 52q-76 0-124-56.5T201 432l-28-167q-21-124 10-183.5T300 22q58 0 97.5 34T456 156l62-21q-33-72-88.5-108.5T297-10z" glyph-name="C" horiz-adv-x="586" unicode="C"/><glyph d="M174 648l-55 5 5 27h262q125 0 185-86.5T606 366l-12-65Q569 159 489.5 79.5T292 0H4l5 26 56 6q17 2 21 8.5T96 81l91 518q6 33 4.5 40t-17.5 9zm213 0H282L174 32h117q80 0 130.5 56T491 253l29 165q19 113-14.5 171.5T387 648z" glyph-name="D" horiz-adv-x="659" unicode="D"/><glyph d="M486 163h26L483 0H4l5 26 56 6q17 2 21 8.5T96 81l91 518q6 33 4.5 40t-17.5 9l-55 5 5 27h467l-29-163h-26l-10 105q-3 20-11 23t-38 3H283l-51-289h134q33 0 41.5 3.5T425 385l32 75h25l-41-234h-25l-6 75q-2 19-9.5 22.5T360 327H226L174 32h206q33 0 41.5 3.5T439 58z" glyph-name="E" horiz-adv-x="580" unicode="E"/><glyph d="M196 32l74-6-5-26H4l5 26 56 6q17 2 20.5 8.5T95 81l92 518q6 33 4 40t-18 9l-54 5 5 27h457l-28-163h-27l-10 105q-3 19-11 22.5t-39 3.5H282l-53-298h125q33 0 41.5 3.5T412 376l33 75h26l-41-234h-26l-6 75q-2 19-9.5 22.5T348 318H224L182 81q-6-34-4-41t18-8z" glyph-name="F" horiz-adv-x="543" unicode="F"/><glyph d="M508 12h-24q-6 13-14.5 24T450 56q-31-33-71.5-49.5T290-10q-118 0-173 87.5T86 315l11 67q23 145 103 226.5T401 690q108 0 161.5-61.5T590 480l-90-21q27 97 1.5 148T399 658q-79 0-129-57t-69-169l-28-167q-20-123 9.5-183T294 22q49 0 87 19.5T442 98l23 129q7 33 5 40t-18 9l-74 5 4 27h255l-4-27-56-5q-17-2-21-9.5T546 227z" glyph-name="G" horiz-adv-x="649" unicode="G"/><glyph d="M196 32l54-6-5-26H4l5 26 56 6q17 2 20.5 8.5T95 81l92 518q6 33 4 40t-18 9l-54 5 5 27h241l-5-27-56-5q-17-2-20.5-9t-9.5-40l-43-240h302l43 240q6 33 4 40t-18 9l-54 5 5 27h241l-5-27-56-5q-17-2-20.5-9t-9.5-40L571 81q-6-34-4-40.5t18-8.5l54-6-5-26H393l5 26 56 6q17 2 20.5 8.5T484 81l44 246H226L182 81q-6-34-4-40.5t18-8.5z" glyph-name="H" horiz-adv-x="726" unicode="H"/><glyph d="M173 648l-54 5 5 27h241l-5-27-56-5q-17-2-20.5-9t-9.5-40L182 81q-6-34-4-40.5t18-8.5l54-6-5-26H4l5 26 56 6q17 2 20.5 8.5T95 81l92 518q6 33 4 40t-18 9z" glyph-name="I" horiz-adv-x="337" unicode="I"/><glyph d="M310 648l-55 5 5 27h241l-5-27-55-5q-17-2-21-9t-10-40l-71-405q-17-97-72-150.5T127-10Q59-10 24 27T-7 134l65 19q-8-65 8-98t57-33q51 0 82 41.5T251 190l72 409q6 33 4.5 40t-17.5 9z" glyph-name="J" horiz-adv-x="461" unicode="J"/><glyph d="M196 32l54-6-5-26H4l5 26 56 6q17 2 21 8.5T96 81l91 518q6 33 4.5 40t-17.5 9l-54 6 4 26h241l-4-26-56-6q-17-2-21-9.5T274 599l-49-279 290 285q26 26 30 33.5t-13 9.5l-50 6 4 26h196l-4-26-53-6q-13-1-19.5-5T564 605L373 417 506 81q12-31 18.5-39T548 32l47-6-5-26H440L307 352l-92-91-32-180q-6-33-4.5-40t17.5-9z" glyph-name="K" horiz-adv-x="644" unicode="K"/><glyph d="M462 165h26L459 0H4l5 26 56 6q17 2 20.5 8.5T95 81l92 518q6 33 4 40t-18 9l-54 5 5 27h241l-5-27-56-5q-17-2-20.5-9t-9.5-40L174 32h181q33 0 41.5 3.5T414 58z" glyph-name="L" horiz-adv-x="515" unicode="L"/><glyph d="M124 680h179l109-523 292 523h184l-5-27-56-5q-17-2-21-9.5T796 599L705 81q-6-33-4.5-40t17.5-9l54-6-4-26H527l4 26 56 6q17 2 21 9.5T618 81l96 544L409 80h-68L227 628 133 81q-6-33-4.5-40t17.5-9l54-6-5-26H4l5 26 56 6q16 2 21 11t10 38l91 518q6 33 4.5 40t-17.5 9l-55 5z" glyph-name="M" horiz-adv-x="860" unicode="M"/><glyph d="M174 648l-55 5 5 27h167l228-534 81 453q6 33 4.5 40t-17.5 9l-55 5 5 27h191l-5-27-55-5q-17-2-21-9t-10-40L531 0h-40L227 613 133 81q-6-33-4.5-40t17.5-9l54-6-5-26H4l5 26 56 6q17 2 21 8.5T96 81l91 518q6 33 4.5 40t-17.5 9z" glyph-name="N" horiz-adv-x="691" unicode="N"/><glyph d="M397 690q124 0 183-90t34-234l-12-65Q577 155 497.5 72.5T301-10q-125 0-183 89T85 315l11 65q26 146 105 228t196 82zm102-437l29 165q20 117-13.5 178.5T397 658q-78 0-127.5-58T200 428l-29-165q-21-117 12.5-179T301 22q78 0 128 58.5T499 253z" glyph-name="O" horiz-adv-x="666" unicode="O"/><glyph d="M174 648l-55 5 5 27h279q93 0 141.5-53T578 491l-5-29q-15-86-73-130t-156-44H219L183 81q-6-36-4.5-42t17.5-7l74-6-5-26H4l5 26 56 6q17 2 21 8.5T96 81l91 518q6 33 4.5 40t-17.5 9zm228 0H282l-57-328h119q56 0 90 33t45 97l10 57q11 70-11 105.5T402 648z" glyph-name="P" horiz-adv-x="574" unicode="P"/><glyph d="M331-9q13-49 51-69t121-20l-3-89q-81 0-134 45.5T296-10Q174-7 117.5 82T86 315l11 65q26 146 105 228t195 82q124 0 183.5-90T615 366l-12-65q-24-137-95-218.5T331-9zm169 262l29 165q20 117-13.5 178.5T398 658q-78 0-128-58t-70-172l-28-165q-21-117 12.5-179T302 22q78 0 128 58.5T500 253z" glyph-name="Q" horiz-adv-x="668" unicode="Q"/><glyph d="M174 648l-55 5 5 27h271q95 0 144-49.5T574 502l-5-30q-11-63-51-103t-106-54l86-234q12-33 17-40t21-9l44-6-4-26H430L325 308H223L183 81q-6-33-4.5-40t17.5-9l54-6-5-26H4l5 26 56 6q17 2 21 8.5T96 81l91 518q6 33 4.5 40t-17.5 9zm223 0H282l-54-308h114q53 0 89 34t46 94l6 38q12 67-11 104.5T397 648z" glyph-name="R" horiz-adv-x="625" unicode="R"/><glyph d="M486 197q0-92-67-149.5T239-10Q139-10 86 36T32 172l63 20q-4-85 31.5-127.5T240 22q80 0 123.5 36.5T407 161q0 47-25 76.5T299 291l-74 29q-63 25-94 68.5T100 494q0 89 60 142.5T325 690q50 0 89.5-13.5T480 637q31-30 40-71t-6-83l-87-18q28 93 1 143t-107 50q-68 0-105.5-35T178 524q0-48 24-78t79-51l74-30q67-26 99-67.5T486 197z" glyph-name="S" horiz-adv-x="548" unicode="S"/><glyph d="M86 517H60l29 163h532l-28-163h-27l-10 105q-2 19-9.5 22.5T507 648H393L293 81q-6-34-4.5-40.5T306 32l54-6-4-26H115l4 26 56 6q17 2 21 8.5T206 81l100 567H192q-33 0-41.5-3.5T134 622z" glyph-name="T" horiz-adv-x="559" unicode="T"/><glyph d="M579 648l-55 5 5 27h191l-5-27-55-5q-17-3-21.5-11t-9.5-38l-65-369q-21-118-84-179T315-10q-117 0-171.5 68T110 246l62 353q6 33 4.5 40t-17.5 9l-55 5 5 27h241l-5-27-55-5q-17-3-21.5-11t-9.5-38l-65-369q-19-106 12-157t114-51q84 0 136.5 52.5T527 230l65 369q6 33 4.5 40t-17.5 9z" glyph-name="U" horiz-adv-x="677" unicode="U"/><glyph d="M600 605L300 0h-68l-87 605q-2 15-3 20t-2 8q-2 8-5 10.5t-16 4.5l-51 5 5 27h233l-5-27-52-5q-17-2-19-8.5t2-34.5l74-516 255 516q14 28 14 34.5t-16 8.5l-51 5 5 27h185l-5-27-52-5q-16-2-21.5-8.5T600 605z" glyph-name="V" horiz-adv-x="620" unicode="V"/><glyph d="M651 0h-65l-69 573L248 0h-65l-40 605q-1 29-4.5 35t-18.5 8l-51 5 5 27h230l-5-27-52-5q-14-2-17-4.5t-4-9.5v-8.5q0-5.5 1-20.5l32-500 268 575h62l70-571 206 496q12 29 11.5 35t-16.5 8l-51 5 5 27h186l-5-27-52-5q-17-2-22-8.5T904 605z" glyph-name="W" horiz-adv-x="921" unicode="W"/><glyph d="M102 32l50-6-4-26H-42l4 26 52 6q16 2 23 8t30 35l206 260-106 270q-11 28-15.5 34.5T132 648l-51 5 5 27h239l-5-27-52-5q-17-2-18-8.5t10-34.5l81-208 163 208q23 29 24.5 35t-13.5 8l-51 5 5 27h190l-5-27-52-5q-16-2-23-8.5T549 605L355 359 466 75q10-28 15-34.5t20-8.5l51-6-5-26H309l5 26 52 6q17 2 18 8t-10 35l-87 222L112 75Q90 48 88 41t14-9z" glyph-name="X" horiz-adv-x="598" unicode="X"/><glyph d="M322 32l54-6-5-26H130l5 26 56 6q13 1 17.5 4.5T216 49l42 243-105 313q-9 27-14 34t-21 9l-51 5 5 27h239l-5-27-52-5q-16-2-17-8.5t8-34.5l88-273 187 273q18 27 20 34t-14 9l-51 5 5 27h188l-5-27-52-5q-16-2-23-8t-27-35L345 291 308 79l1 2q-6-34-4.5-40.5T322 32z" glyph-name="Y" horiz-adv-x="588" unicode="Y"/><glyph d="M450 163h26L448 0H-4l4 22 447 626H232q-32 0-41.5-3.5T173 622l-48-105H99l29 163h430l-5-22L106 32h238q33 0 41.5 3.5T403 58z" glyph-name="Z" horiz-adv-x="531" unicode="Z"/><glyph d="M449 648l-54 5 5 27h499l-29-163h-25l-11 105q-2 19-10 22.5t-39 3.5H591l-51-289h134q33 0 42 3.5t17 22.5l32 75h25l-41-234h-25l-7 75q-1 19-8.5 22.5T668 327H534L482 32h204q33 0 41.5 3.5T745 58l47 105h26L789 0H312l4 26 57 6q16 2 20 8.5T403 81l23 128H204L113 81Q88 46 87 39.5t14-7.5l54-6-4-26H-46l5 26 55 6q16 1 23.5 7.5T70 81l367 518q24 33 26 40t-14 9zm50-22L227 241h204z" glyph-name="AE" horiz-adv-x="888" unicode="Æ"/><glyph d="M85 314l11 65q25 141 104.5 221T398 680h514l-29-163h-25l-11 105q-2 19-10 22.5t-39 3.5H604l-51-289h134q33 0 42 3.5t17 22.5l30 75h27l-41-234h-25l-7 75q-1 19-8.5 22.5T681 327H547L495 32h204q33 0 42 3.5T758 58l47 105h26L802 0H304Q179 0 119.5 86.5T85 314zM304 32h104l108 616H400q-79 0-130-56.5T199 427l-28-165q-19-113 14.5-171.5T304 32z" glyph-name="OE" horiz-adv-x="901" unicode="Œ"/><glyph d="M464 163h26L462 0H7l5 26 56 6q17 2 20.5 8.5T98 81l38 215-84-39-10 32 101 47 47 263q6 33 4 40t-18 9l-54 5 5 27h241l-5-27-56-5q-17-2-20.5-9t-9.5-40l-39-219 142 66 10-32-159-74-54-308h181q33 0 41.5 3.5T417 58z" glyph-name="Lslash" horiz-adv-x="518" unicode="Ł"/><glyph d="M614 366l-12-65Q576 154 497 72T301-10q-55 0-98 18.5T131 62L77 0H30l80 92q-24 43-30 99.5T85 315l11 65q26 146 105 228t196 82q54 0 97-18t73-54l54 62h47l-80-92q24-43 30.5-100T614 366zm-414 62l-29-165q-5-30-7-57t0-51l361 415q-14 44-46 66t-82 22q-78 0-127.5-58T200 428zm299-175l29 165q5 31 6.5 58t-.5 50L173 110q14-44 46-66t82-22q78 0 128 58.5T499 253z" glyph-name="Oslash" horiz-adv-x="666" unicode="Ø"/><glyph d="M178 648l-55 5 5 27h262q125 0 184.5-86.5T609 366l-11-65Q573 159 493.5 79.5T296 0H8l4 26 56 6q17 2 21 8.5T99 81l46 257H68l5 32h77l41 229q6 33 4.5 40t-17.5 9zm212-278l-5-32H232L178 32h117q79 0 130 56.5T495 253l28 165q19 113-14.5 171.5T390 648H286l-49-278z" glyph-name="Eth" horiz-adv-x="663" unicode="Ð"/><glyph d="M196 32l74-6-5-26H4l5 26 56 6q17 2 20.5 8.5T95 81l92 518q6 33 4 40t-18 9l-54 5 5 27h261l-5-27-76-5q-16-2-20-8.5T274 599l-11-61h115q94 0 142-52.5T554 349l-5-29q-16-86-73.5-130T320 146H194l-12-65q-6-34-4-41t18-8zm182 474H257l-58-328h121q55 0 89 33t45 97l10 57q12 69-10 105t-76 36z" glyph-name="Thorn" horiz-adv-x="574" unicode="Þ"/><glyph d="M594 170l-2-16q-12-76-68-120T386-10q-67 0-106.5 33.5T242 115l61 17q-3-56 16.5-83.5T383 21q46 0 76.5 35.5T501 157l6 38q13 82-22.5 123.5T365 360h-8l4 26 169 218q-21 27-51.5 40.5T409 658q-70 0-111.5-41.5T242 491L155 0H-8l5 26 55 6q17 2 20.5 8.5T82 81l71 400q19 106 82.5 157.5T410 690q63 0 118-22t88-60l-3-19-162-208q78-21 116.5-77.5T594 170z" glyph-name="uni1E9E" horiz-adv-x="654" unicode="ẞ"/><glyph d="M444-5q-39 0-60 23.5T362 86q-30-48-68.5-72T209-10q-86 0-126.5 76.5T64 260l4 22q18 101 81.5 162T298 505q41 0 72.5-16t52.5-47q11 9 24 22t29 31h35l-61-345q-12-67-10.5-94.5T459 28q18 0 34.5 20t29.5 57l35-22q-22-44-50.5-66T444-5zM158 291l-9-57q-17-96 3.5-153T222 24q40 0 77 34.5T370 160l41 236q-18 38-44 56.5T304 471q-57 0-94-45.5T158 291z" glyph-name="a" horiz-adv-x="581" unicode="a"/><glyph d="M504 235l-4-22q-18-101-82-162T268-10q-41 0-72 15t-53 44q-16-9-31.5-21.5T77-5H53l116 664q6 33 4.5 40t-17.5 9l-53 5 4 27h159l-58-328q31 47 68 70t82 23q86 0 126.5-76.5T504 235zM344 470q-40 0-78-36.5T192 324L153 98q17-38 44-56t65-18q58 0 95 45t52 134l10 57q16 97-4.5 153.5T344 470z" glyph-name="b" horiz-adv-x="568" unicode="b"/><glyph d="M307 473q-56 0-96-48t-54-136l-10-60q-17-101 6.5-154T237 22q46 0 83 26.5t54 75.5l46-26q-31-54-79-81T231-10q-98 0-145 73T61 254l4 22q19 104 86 166.5T311 505q87 0 128.5-54T455 320l-81-16q25 79 7 124t-74 45z" glyph-name="c" horiz-adv-x="485" unicode="c"/><glyph d="M448-5q-39 0-60 25t-22 72q-32-51-70.5-76.5T210-10q-86 0-127 76.5T64 260l4 22q18 101 82 162t149 61q40 0 71.5-15t53.5-44l37 213q6 33 4.5 40t-17.5 9l-54 5 4 27h160L454 150q-12-67-10.5-94.5T463 28q18 0 34.5 20t28.5 57l36-22q-22-44-50.5-66T448-5zM158 291l-9-57q-17-97 3.5-153.5T223 24q40 0 78.5 36.5T375 168l40 227q-18 39-45 57.5T305 471q-58 0-95-45.5T158 291z" glyph-name="d" horiz-adv-x="585" unicode="d"/><glyph d="M388 123l47-25q-30-53-80-80.5T242-10Q138-10 88.5 62.5T61 254l4 22q18 104 86.5 166.5T317 505q70 0 113.5-34t43.5-86q0-71-73.5-115.5T196 216l-52-4q-13-93 12.5-141.5T245 22q48 0 87 26.5t56 74.5zm-74 350q-60 0-101.5-48T156 289l-7-45 46 3q100 6 152 43t52 99q0 39-22.5 61.5T314 473z" glyph-name="e" horiz-adv-x="502" unicode="e"/><glyph d="M388 495l-5-32H223L104-213H22l111 627q6 33 4.5 40t-17.5 9l-55 5 5 27h77l13 72q17 92 64.5 137.5T350 750q81 0 117-44t14-111l-82-16q22 70 10 104.5T350 718q-45 0-69-32t-37-105l-15-86z" glyph-name="f" horiz-adv-x="331" unicode="f"/><glyph d="M514 495L428 9q-20-110-85.5-171T175-223q-75 0-114.5 40.5T26-72l57 12q-7-66 16-99.5t76-33.5q69 0 110.5 47T345-1l14 76q-30-43-67.5-64T210-10q-86 0-127 76.5T64 260l4 22q18 101 82 162t149 61q41 0 73.5-16t54.5-47q14 12 27 25.5t25 27.5zM158 291l-9-57q-17-97 3.5-153.5T223 24q41 0 79 34.5T374 160l41 234q-17 39-44.5 58T305 471q-58 0-95-45.5T158 291z" glyph-name="g" horiz-adv-x="564" unicode="g"/><glyph d="M553 105l35-22q-22-44-50.5-66T472-5q-49 0-69 34t-7 98l39 196q15 70 0 107t-57 37q-47 0-94-38.5T195 316L139 0H57l116 659q6 33 4.5 40t-17.5 9l-55 5 5 27h159l-61-347q41 56 88.5 84t99.5 28q73 0 106-49.5T518 324l-41-200q-12-57-9-76.5T488 28q19 0 36 20t29 57z" glyph-name="h" horiz-adv-x="611" unicode="h"/><glyph d="M273 669q0-26-17-43.5T212 608q-23 0-36 12.5T163 656q0 26 17 43t43 17q23 0 36.5-12.5T273 669zM120 463l-54 5 5 27h159l-60-345q-12-67-10.5-94.5T179 28q18 0 34.5 20t28.5 57l36-22q-21-43-50-65.5T164-5q-49 0-69.5 38T86 142l47 272q6 33 4.5 40t-17.5 9z" glyph-name="i" horiz-adv-x="300" unicode="i"/><glyph d="M275 666q-2-25-20-41.5T212 608q-23 0-36 14t-11 37q2 25 19.5 41t42.5 16q24 0 37-13.5t11-36.5zM122 463l-54 5 4 27h159L135-52q-15-83-60-127t-116-44q-55 0-85 31t-26 85l57 16q-3-50 9.5-75t41.5-25q40 0 62 30.5T52-60l83 474q6 33 4.5 40t-17.5 9z" glyph-name="j" horiz-adv-x="284" unicode="j"/><glyph d="M501 0H357L245 260l-81-72L131 0H50l116 659q6 33 4.5 40t-17.5 9l-54 5 4 27h159l-88-499 120 112q91 83 129.5 109.5T507 505l16-85q-63-13-116.5-38.5T307 316L415 75q12-27 18-34t22-9l51-6z" glyph-name="k" horiz-adv-x="521" unicode="k"/><glyph d="M153 708l-54 5 4 27h159L159 150q-12-67-10-94.5T169 28q17 0 34 20.5t29 56.5l35-22q-22-44-50-66T154-5q-50 0-70 38t-8 109l90 517q6 33 4.5 40t-17.5 9z" glyph-name="l" horiz-adv-x="291" unicode="l"/><glyph d="M858 105l36-22q-22-44-50.5-66T778-5q-49 0-69.5 34t-7.5 98l40 196q14 70 0 107t-53 37q-45 0-89.5-37.5T512 319L456 0h-82l57 323q13 70-1 107t-52 37q-45 0-90-38.5T201 316L145 0H63l72 414q6 33 4.5 40t-17.5 9l-54 5 5 27h156l-17-105q41 58 87 86.5t97 28.5q55 0 87-32t35-89q41 60 88.5 90.5T706 505q71 0 102.5-49.5T823 324l-41-200q-11-56-8.5-76T793 28q19 0 36 20t29 57z" glyph-name="m" horiz-adv-x="920" unicode="m"/><glyph d="M558 105l36-22q-22-44-50.5-66T478-5q-49 0-69.5 34t-7.5 98l40 196q14 71-1 107.5T383 467q-47 0-93.5-38.5T200 316L145 0H63l72 414q6 33 4.5 40t-17.5 9l-54 5 5 27h156l-18-106q41 58 89 87t101 29q73 0 106-49t16-132l-41-200q-11-56-8.5-76T493 28q19 0 36 20t29 57z" glyph-name="n" horiz-adv-x="616" unicode="n"/><glyph d="M310 505q101 0 152-74.5T492 242l-4-22q-20-110-84-170T241-10Q140-10 90.5 64T61 252l4 23q20 110 83.5 170T310 505zm85-298l11 61q17 99-8.5 152.5T308 474q-59 0-97-46.5T157 288l-10-61q-17-99 8-153t89-54q59 0 97 47t54 140z" glyph-name="o" horiz-adv-x="554" unicode="o"/><glyph d="M277-10q-40 0-71 14.5T153 48l-46-261H25l110 627q6 33 4.5 40t-17.5 9l-54 6 5 26h156l-16-89q32 50 70 74.5t84 24.5q86 0 126.5-76.5T513 235l-4-22q-18-101-82-162T277-10zm76 480q-40 0-78.5-37T201 323L162 98q17-38 44-56t65-18q58 0 95 45t52 134l10 57q16 97-4.5 153.5T353 470z" glyph-name="p" horiz-adv-x="577" unicode="p"/><glyph d="M492 500h24L389-213h-82l53 296q-31-47-68-70t-82-23q-86 0-127 76.5T64 260l4 22q18 101 82 162t149 61q41 0 72.5-15.5T425 444q18 10 33.5 23.5T492 500zM158 291l-9-57q-17-97 3.5-153.5T223 24q40 0 78.5 36.5T375 169l40 225q-17 39-44.5 58T305 471q-58 0-95-45.5T158 291z" glyph-name="q" horiz-adv-x="565" unicode="q"/><glyph d="M332 450q-33 0-65.5-33T201 316L145 0H63l73 414q6 33 4.5 40t-17.5 9l-55 5 5 27h157l-18-104q36 56 76.5 85t83.5 29q35 0 58.5-20t33.5-57l-70-47q-8 36-23 52.5T332 450z" glyph-name="r" horiz-adv-x="428" unicode="r"/><glyph d="M390 141q0-68-52.5-109.5T193-10q-78 0-122 32t-48 92l58 20q-1-57 26.5-85T192 21q58 0 92.5 25.5T319 115q0 32-21 54t-66 36l-58 19q-48 15-74.5 48T73 351q0 68 49 111t134 43q90 0 133-46.5T409 346l-82-16q24 68 4 105.5T251 473q-48 0-77-24.5T145 382q0-33 18-54.5t56-32.5l58-19q55-18 84-52.5t29-82.5z" glyph-name="s" horiz-adv-x="458" unicode="s"/><glyph d="M285 121l49-19q-24-57-58-84.5T196-10q-70 0-100 45.5T81 165l43 250q6 32 4 39t-18 9l-54 5 5 27h77l23 131 85 17-26-148h163l-6-32H214l-56-318q-11-62-1-92.5T199 22q29 0 49 23.5t37 75.5z" glyph-name="t" horiz-adv-x="363" unicode="t"/><glyph d="M468-5q-43 0-64 28t-18 82q-41-58-87.5-86.5T200-10q-69 0-100 48T83 170l43 244q6 33 4.5 40t-17.5 9l-55 5 5 27h160l-57-324q-13-71 .5-107.5T218 27q45 0 90 38t88 113l56 317h82l-60-345q-12-67-10.5-94.5T483 28q18 0 34.5 20t28.5 57l36-22q-21-43-50-65.5T468-5z" glyph-name="u" horiz-adv-x="605" unicode="u"/><glyph d="M107 463l-54 5 5 27h159l-47-273q-18-101-4-148t62-47q46 0 87 36t68 100q18 44 27 98.5t9 116.5q0 21-1 44.5t-4 52.5l92 30q-6-96-22-175.5T442 188Q402 93 340.5 41.5T209-10q-77 0-109 60.5T87 221l34 193q6 33 4 40t-18 9z" glyph-name="v" horiz-adv-x="538" unicode="v"/><glyph d="M677 475l92 30q-15-247-91-381T487-10q-51 0-81.5 28.5T367 102q-34-55-78-83.5T197-10q-74 0-103 55T84 202l38 212q6 33 4 40t-18 9l-55 5 5 27h160l-52-292q-17-97-6.5-136.5T212 27q44 0 84.5 37.5T366 171q1 11 2.5 23.5T372 221l48 274h82l-47-273q-18-106-6.5-150.5T505 27q75 0 126 95t51 250q0 29-1 54t-4 49z" glyph-name="w" horiz-adv-x="804" unicode="w"/><glyph d="M233 214l-25-35q-56-75-87.5-114T57-10l-69 48q60 42 110.5 83.5T195 209l29 29-72 182q-9 25-15 32.5T113 463l-51 5 5 27h139l77-197 13 18q58 77 89 115.5t63 73.5l69-49q-63-43-113.5-84.5T309 285l-15-15 77-195q10-26 16-33.5t23-9.5l50-6-4-26H317z" glyph-name="x" horiz-adv-x="502" unicode="x"/><glyph d="M534 495L448 9q-19-110-84.5-171T195-223q-75 0-114.5 40.5T47-72l57 12q-8-66 15.5-99.5T195-193q70 0 111.5 47.5T365-1l18 102q-41-56-86.5-83.5T200-10q-69 0-100 48T83 170l43 244q6 33 4.5 40t-17.5 9l-55 5 5 27h160l-57-324q-13-71 .5-107.5T218 27q45 0 90 38t88 113l56 317z" glyph-name="y" horiz-adv-x="585" unicode="y"/><glyph d="M386 147l27-7q-12-73-42.5-111.5T292-10q-20 0-41 6.5T191 24q-32 17-48 22.5T114 52q-21 0-42-13T29 0L4 23l350 406H189q-35 0-43.5-3T130 407l-35-78H69l29 166h342l-5-25L109 92q15 8 27.5 12t26.5 4q15 0 30.5-5T238 81t44.5-22q15.5-5 30.5-5 28 0 45 21t28 72z" glyph-name="z" horiz-adv-x="457" unicode="z"/><glyph d="M686 123l47-25q-30-53-80-80.5T540-10q-67 0-112.5 32T364 112q-35-59-86.5-90.5T166-10q-60 0-93.5 30T39 103q0 71 52 109.5T241 251h117l14 81q12 70-7 105.5T295 473q-56 0-85-36.5T178 326l-79 12q5 73 59 120t137 47q54 0 89.5-21.5T435 422q34 41 80 62t100 21q70 0 113.5-34.5T772 385q0-75-76-120.5T494 219h-52q-14-97 11.5-147T543 22q48 0 87 26.5t56 74.5zm-74 350q-60 0-102-48t-56-136l-6-38h45q100 0 152 35.5T697 389q0 39-23 61.5T612 473zM124 106q0-37 16.5-55.5T190 32q47 0 88.5 31.5T355 156q-2 14-2.5 29.5T354 219H246q-61 0-91.5-28T124 106z" glyph-name="ae" horiz-adv-x="799" unicode="æ"/><glyph d="M731 123l47-25q-30-53-79.5-80.5T585-10q-56 0-96.5 26T428 91q-31-50-78.5-75.5T241-10Q140-10 90.5 64T61 252l4 23q20 110 83.5 170T310 505q57 0 98-28t61-80q33 52 83 80t109 28q70 0 113.5-34t43.5-86q0-71-74-115.5T540 216l-53-4q-13-94 13-142t88-48q49 0 87.5 26.5T731 123zm-336 84l11 61q17 99-8.5 152.5T308 474q-59 0-97-46.5T157 288l-10-61q-17-99 8-153t89-54q59 0 97 47t54 140zm262 266q-59 0-100.5-48T500 289l-7-45 46 3q100 6 152 43t52 99q0 39-23 61.5T657 473z" glyph-name="oe" horiz-adv-x="845" unicode="œ"/><glyph d="M247 105l36-22q-21-43-50-65.5T169-5q-49 0-69.5 38T91 142l33 189-108-50-9 31 123 57 51 290q6 33 4.5 40t-17.5 9l-54 5 5 27h159l-58-330 107 49 10-30-123-57-39-222q-12-67-10.5-94.5T184 28q18 0 34.5 20t28.5 57z" glyph-name="lslash" horiz-adv-x="330" unicode="ł"/><glyph d="M493 242l-4-22q-20-110-84-170T243-10q-42 0-76.5 13.5T107 44L65 0H17l69 72q-21 35-27 81t3 99l4 23q20 110 83.5 170T311 505q43 0 77.5-13.5T448 451l42 44h47l-69-72q22-35 28.5-82t-3.5-99zm-335 46l-10-61q-4-28-5.5-52t-.5-44l263 275q-11 34-35.5 51T309 474q-59 0-97-46.5T158 288zm239-81l10 61q5 25 6.5 49.5T413 365L150 90q11-34 35.5-52T246 20q59 0 97 47t54 140z" glyph-name="oslash" horiz-adv-x="556" unicode="ø"/><glyph d="M499 284l-4-28q-24-132-88.5-199T240-10Q139-10 90 53T57 223l3 20q14 97 73.5 152.5T281 451q44 0 80-16t61-48q2 68-12.5 125T363 615l-130-84-16 28 126 82q-20 23-44.5 43.5T243 724l14 26q35-17 65.5-39t55.5-47l133 86 16-28-126-82q64-73 89.5-165t8.5-191zm-348-33l-9-54q-14-86 10.5-130.5T239 22q66 0 104.5 52T402 239l11 68q0 3 .5 6l1.5 9q1 6 1.5 9.5t1.5 6.5q-21 40-52.5 60.5T295 419q-56 0-93.5-43T151 251z" glyph-name="eth" horiz-adv-x="559" unicode="ð"/><glyph d="M272-10q-40 0-71.5 14.5T147 48l-46-261H19l154 872q5 30 3.5 38.5T160 708l-54 6 4 26h159l-58-329q32 47 69 70.5t82 23.5q85 0 126-77t20-193l-4-22q-19-101-83-162T272-10zm76 480q-42 0-80-37t-73-111L156 99q17-38 44-56.5T266 24q58 0 95 45t52 134l9 57q17 97-3.5 153.5T348 470z" glyph-name="thorn" horiz-adv-x="572" unicode="þ"/><glyph d="M374 718q-57 0-87-32.5T244 581L104-213H22l111 627q6 33 4.5 40t-17.5 9l-55 5 5 27h77l13 72q17 93 69.5 138T371 750q76 0 119-32.5t43-87.5q0-27-12.5-51.5T466 513q-41-41-54-65.5T399 395q0-24 13-45t47-49l36-31q32-26 47-57t15-71q0-67-48-109.5T384-10q-64 0-102 31.5T236 114l58 20q1-57 23.5-85T384 21q47 0 75 24.5t28 67.5q0 28-11.5 49T437 206l-36 30q-40 33-55 59t-15 58q0 27 11.5 53.5T392 482q43 54 56.5 86.5T462 636q0 42-21.5 62T374 718z" glyph-name="germandbls" horiz-adv-x="602" unicode="ß"/><glyph d="M120 463l-54 5 5 27h159l-60-345q-12-67-10.5-94.5T179 28q18 0 34.5 20t28.5 57l36-22q-21-43-50-65.5T164-5q-49 0-69.5 38T86 142l48 272q6 31 4 39t-18 10z" glyph-name="dotlessi" horiz-adv-x="300" unicode="ı"/><glyph d="M122 463l-54 5 4 27h159L135-52q-15-83-60-127t-116-44q-55 0-85 31t-26 85l57 16q-3-50 9.5-75t41.5-25q40 0 62 30.5T52-60l83 474q6 33 4.5 40t-17.5 9z" glyph-name="dotlessj" horiz-adv-x="284" unicode="ȷ"/><glyph d="M382 718q-62 0-94.5-40T239 549l-10-54h306l-60-345q-12-68-10-95t19-27q18 0 34.5 20t29.5 57l35-22q-22-44-50.5-66T469-5q-50 0-70 38t-7 109l55 321H224L104-213H22l111 627q6 33 4.5 40t-17.5 9l-55 5 5 27h77l7 40q20 108 77 161.5T383 750q90 0 137-44.5T547 595l-82-16q20 69-1 104t-82 35z" glyph-name="fi" horiz-adv-x="605" unicode="ﬁ"/><glyph d="M690 718q-62 0-95-39.5T546 549l-10-54h306l-60-345q-12-69-10-95.5T792 28q17 0 34 20.5t29 56.5l35-22q-22-44-50.5-66T776-5q-49 0-69 38t-8 109l55 321H531L448-7q-20-108-77-162t-151-54q-80 0-125 35.5T55-94l82 16q-5-60 14.5-86.5T220-191q61 0 94.5 40T364-21l85 484H224L143 0H60l73 414q6 33 4.5 40t-17.5 9l-55 5 5 27h77l7 40q19 102 75.5 153.5T380 740q48 0 82.5-18.5T513 669q30 40 74 60.5T690 750q90 0 137-44.5T854 595l-82-16q20 69-.5 104T690 718zm-310-10q-61 0-94-38t-47-121l-9-54h225l8 43q16 87-4 128.5T380 708z" glyph-name="ffi" horiz-adv-x="913" unicode="ﬃ"/><glyph d="M369 495l-5-32H224L104-213H22l111 627q6 33 4.5 40t-17.5 9l-55 5 5 27h77l7 40q20 108 77 161.5T383 750q43 0 74-12.5t49-36.5q15 9 27.5 18.5T556 740h22L475 150q-12-67-10.5-94.5T484 28q18 0 34.5 20t29.5 57l35-22q-22-44-50.5-66T469-5q-50 0-70 38t-7 109l79 457q11 61-11 90t-78 29q-62 0-94.5-40T239 549l-10-54z" glyph-name="fl" horiz-adv-x="606" unicode="ﬂ"/><glyph d="M531 463L448-7q-20-108-77-162t-151-54q-80 0-125 35.5T55-94l82 16q-5-60 14.5-86.5T220-191q61 0 94.5 40T364-21l85 484H224L143 0H60l73 414q6 33 4.5 40t-17.5 9l-55 5 5 27h77l7 40q19 102 75.5 153.5T380 740q48 0 82.5-18.5T514 668q29 41 73.5 61.5T690 750q43 0 74-12.5t49-36.5q14 8 27 18t24 21h21L782 150q-12-69-10-95.5T792 28q17 0 34 20.5t29 56.5l35-22q-22-44-50.5-66T776-5q-49 0-69 38t-8 109l79 457q11 61-10.5 90T690 718q-62 0-95-39.5T546 549l-10-54h141l-6-32zM380 708q-61 0-94-38t-47-121l-9-54h225l7 40q16 90-3.5 131.5T380 708z" glyph-name="ffl" horiz-adv-x="914" unicode="ﬄ"/><glyph d="M511-10q-70 0-100 45.5T396 165l51 298H224L104-213H22l111 627q6 33 4.5 40t-17.5 9l-55 5 5 27h77l7 40q20 107 76.5 161T379 750q67 0 103-33t33-90q6 4 12.5 9.5T540 648h22l-27-153h163l-5-32H530l-56-318q-11-63-1-93t42-30q29 0 49 23.5t37 75.5l48-19q-24-57-58-84.5T511-10zM239 549l-10-54h224l18 105q10 61-11.5 89.5T382 718q-62 0-94.5-40T239 549z" glyph-name="ft" horiz-adv-x="678"/><glyph d="M531 463L448-7q-20-108-77-162t-151-54q-80 0-125 35.5T55-94l82 16q-5-60 14.5-86.5T220-191q61 0 94.5 40T364-21l85 484H224L143 0H60l73 414q6 33 4.5 40t-17.5 9l-55 5 5 27h77l7 40q19 102 75.5 153.5T380 740q48 0 82.5-18.5T513 669q30 40 73.5 60.5T687 750q67 0 102.5-33t32.5-90q7 5 14 10.5t12 10.5h21l-27-153h163l-5-32H837l-56-318q-11-63-1-93t42-30q29 0 49 23.5t37 75.5l48-19q-24-57-58-84.5T818-10q-70 0-100 46t-15 129l51 298zm15 86l-10-54h224l18 105q10 61-11 89.5T690 718q-62 0-95-39.5T546 549zM380 708q-61 0-94-38t-47-121l-9-54h225l7 40q16 90-3.5 131.5T380 708z" glyph-name="fft" horiz-adv-x="985"/><glyph d="M364 463H224L104-213H22l111 627q6 33 4.5 40t-17.5 9l-55 5 5 27h77l7 40q20 108 78 161.5T386 750q44 0 76-12.5t50-36.5q13 7 25.5 16.5T563 740h21l-58-328q32 47 69 70t82 23q85 0 126-77t20-193l-4-22q-18-100-82.5-161.5T587-10q-41 0-72.5 15T462 49q-17-9-32-21T395-5h-24l103 584q13 75-7 107t-81 32q-64 0-97.5-40T239 549l-10-54h140zm299 7q-41 0-79-37t-73-111L472 99q17-38 44-56.5T581 24q58 0 95 45t52 134l10 57q16 97-4.5 153.5T663 470z" glyph-name="fb" horiz-adv-x="887"/><glyph d="M531 463L448-7q-20-108-77-162t-151-54q-80 0-125 35.5T55-94l82 16q-5-60 14.5-86.5T220-191q61 0 94.5 40T364-21l85 484H224L143 0H60l73 414q6 33 4.5 40t-17.5 9l-55 5 5 27h77l7 40q19 102 75.5 153.5T380 740q49 0 83.5-18.5T514 668q30 41 75 61.5T693 750q43 0 75-12.5t51-36.5q13 7 25.5 16.5T870 740h22l-58-328q31 47 68 70t82 23q86 0 126.5-76.5T1130 235l-4-22q-18-101-82-162T894-10q-41 0-72 15t-53 44q-18-10-33.5-23T703-5h-24l102 584q13 75-7.5 107T693 718q-64 0-97.5-40T546 549l-10-54h141l-6-32zM380 708q-61 0-94-38t-47-121l-9-54h225l7 40q16 90-3.5 131.5T380 708zm590-238q-40 0-78-36.5T818 324L779 98q17-38 44-56t65-18q58 0 95 45t52 134l10 57q16 97-4.5 153.5T970 470z" glyph-name="ffb" horiz-adv-x="1194"/><glyph d="M531 463L448-7q-20-108-77-162t-151-54q-80 0-125 35.5T55-94l82 16q-5-60 14.5-86.5T220-191q61 0 94.5 40T364-21l86 484H224L143 0H60l73 414q6 33 4.5 40t-17.5 9l-55 5 5 27h77l7 40q19 102 75.5 153.5T380 740q46 0 79-16t51-47q24 37 61 55t86 18q82 0 118-44t13-111l-81-16q22 69 10 104t-59 35q-45 0-69-32t-37-105l-15-86h159l-6-32zM380 708q-61 0-94-38t-47-121l-9-54h225l11 63q13 75-8.5 112.5T380 708z" glyph-name="ff" horiz-adv-x="639" unicode="ﬀ"/><glyph d="M528-213q-48 0-81.5 18.5T396-141q-30-41-74-61.5T220-223q-80 0-125 35.5T55-94l82 16q-5-60 14.5-86.5T220-191q61 0 94.5 40T364-21l85 484H224L143 0H60l73 414q6 33 4.5 40t-17.5 9l-55 5 5 27h77l7 40q19 102 75.5 153.5T380 740q50 0 85-19.5t51-55.5q30 37 73.5 56T690 740q44 0 76.5-16t50.5-46q25 36 62 54t86 18q81 0 117.5-44t13.5-111l-82-16q23 69 10.5 104T965 718q-45 0-69-32t-37-105l-15-86h159l-5-32H838L756-4q-19-104-76-156.5T528-213zm162 921q-62 0-95.5-37.5T546 549l-10-54h226l12 64q14 74-7 111.5T690 708zm-310 0q-61 0-94-38t-47-121l-9-54h225l7 40q16 90-3.5 131.5T380 708zm151-245L449-3q-17-93 1.5-135.5T528-181q63 0 96 38.5T672-18l85 481z" glyph-name="fff" horiz-adv-x="947"/><glyph d="M364 463H224L104-213H22l111 627q6 33 4.5 40t-17.5 9l-55 5 5 27h77l7 40q20 108 78 161.5T386 750q44 0 76-12.5t50-36.5q13 7 25.5 16.5T563 740h21l-61-349q40 57 87.5 85.5T711 505q73 0 106-49t16-132l-41-200q-12-57-9-76.5T803 28q19 0 36 20t29 57l36-22q-22-44-51-66T787-5q-49 0-69 34t-7 98l40 196q14 71-1 107.5T693 467q-48 0-95-39t-89-115L454 0h-82l102 579q13 75-7 107t-81 32q-64 0-97.5-40T239 549l-10-54h140z" glyph-name="fh" horiz-adv-x="927"/><glyph d="M531 463L448-7q-20-108-77-162t-151-54q-80 0-125 35.5T55-94l82 16q-5-60 14.5-86.5T220-191q61 0 94.5 40T364-21l85 484H224L143 0H60l73 414q6 33 4.5 40t-17.5 9l-55 5 5 27h77l7 40q19 102 75.5 153.5T380 740q49 0 83.5-18.5T514 668q30 41 75 61.5T693 750q43 0 75-12.5t51-36.5q13 7 25.5 16.5T870 740h22l-61-347q40 56 87.5 84t99.5 28q73 0 106-49t16-132l-41-200q-11-56-8.5-76t19.5-20q19 0 36 20t29 57l36-22q-22-44-50.5-66T1095-5q-50 0-70 34t-7 98l40 196q14 71-1 107.5t-57 36.5q-47 0-93.5-38.5T818 316L762 0h-82l101 579q13 75-7.5 107T693 718q-64 0-97.5-40T546 549l-10-54h141l-6-32zM380 708q-61 0-94-38t-47-121l-9-54h225l7 40q16 90-3.5 131.5T380 708z" glyph-name="ffh" horiz-adv-x="1234"/><glyph d="M386 718q-64 0-98-40t-49-129l-10-54h313L454-7q-19-107-77-161.5T223-223q-81 0-127 35.5T55-94l82 16q-6-60 14-86.5t72-26.5q63 0 96.5 40T369-21l85 484H224L142 0H60l73 414q6 33 4.5 40t-17.5 9l-55 5 5 27h77l7 40q20 108 78 161.5T386 750q92 0 139.5-44.5T553 595l-82-16q20 70-1 104.5T386 718z" glyph-name="fj" horiz-adv-x="581"/><glyph d="M693 718q-64 0-97.5-40T546 549l-10-54h312L760-4q-19-104-77-156.5T529-213q-49 0-83.5 18.5T395-141q-29-41-73-61.5T220-223q-80 0-125 35.5T55-94l82 16q-5-60 14.5-86.5T220-191q61 0 94.5 40T364-21l85 484H224L143 0H60l73 414q6 33 4.5 40t-17.5 9l-55 5 5 27h77l7 40q19 102 75.5 153.5T380 740q49 0 83.5-18.5T514 668q30 41 75 61.5T693 750q92 0 139.5-44.5T860 595l-81-16q20 69-1.5 104T693 718zm-313-10q-61 0-94-38t-47-121l-9-54h225l7 40q16 90-3.5 131.5T380 708zm151-245L448-7q-1-7-2-11t-2-7q-12-81 8-118.5t77-37.5q64 0 98 38.5T676-18l84 481z" glyph-name="ffj" horiz-adv-x="887"/><glyph d="M364 463H224L104-213H22l111 627q6 33 4.5 40t-17.5 9l-55 5 5 27h77l7 40q20 108 78 161.5T386 750q44 0 76-12.5t50-36.5q13 7 25.5 16.5T563 740h21l-88-499 121 112q89 83 127.5 109.5T829 505l16-85q-63-13-116.5-38.5T629 316L737 75q13-29 18.5-35t22.5-8l50-6-4-26H680L568 261l-81-73L454 0h-82l102 579q13 75-7 107t-81 32q-64 0-97.5-40T239 549l-10-54h140z" glyph-name="fk" horiz-adv-x="843"/><glyph d="M531 463L448-7q-20-108-77-162t-151-54q-80 0-125 35.5T55-94l82 16q-5-60 14.5-86.5T220-191q61 0 94.5 40T364-21l85 484H224L143 0H60l73 414q6 33 4.5 40t-17.5 9l-55 5 5 27h77l7 40q19 102 75.5 153.5T380 740q49 0 83.5-18.5T514 668q30 41 75 61.5T693 750q43 0 75-12.5t51-36.5q13 7 25.5 16.5T870 740h22l-88-498 120 111q87 81 126.5 108t86.5 44l15-85q-63-13-116.5-38.5T936 316l108-241q13-29 18.5-35t22.5-8l50-6-4-26H987L875 260l-80-72L762 0h-82l101 579q13 75-7.5 107T693 718q-64 0-97.5-40T546 549l-10-54h141l-6-32zM380 708q-61 0-94-38t-47-121l-9-54h225l7 40q16 90-3.5 131.5T380 708z" glyph-name="ffk" horiz-adv-x="1150"/><glyph d="M98 32l54-6-5-26H-46l5 26 55 6q17 2 23 8.5T59 81l299 599h63l89-599q5-34 8.5-40.5T537 32l54-6-4-26H347l5 26 56 6q17 2 19 9t-2 40l-18 128H163L99 81Q83 48 82.5 41T98 32zm254 557L179 241h223zm51 175l-19 22q32 35 51.5 66t37.5 73h101q-38-46-78.5-84T403 764z" glyph-name="Aacute" horiz-adv-x="628" unicode="Á"/><glyph d="M98 32l54-6-5-26H-46l5 26 55 6q17 2 23 8.5T59 81l299 599h63l89-599q5-34 8.5-40.5T537 32l54-6-4-26H347l5 26 56 6q17 2 19 9t-2 40l-18 128H163L99 81Q83 48 82.5 41T98 32zm254 557L179 241h223zm186 194l-18-19q-28 25-52.5 49.5T423 863q-33-27-64.5-51.5T294 764l-17 21q46 42 68.5 68.5T399 925h66q15-45 28.5-72t44.5-70z" glyph-name="Acircumflex" horiz-adv-x="628" unicode="Â"/><glyph d="M98 32l54-6-5-26H-46l5 26 55 6q17 2 23 8.5T59 81l299 599h63l89-599q5-34 8.5-40.5T537 32l54-6-4-26H347l5 26 56 6q17 2 19 9t-2 40l-18 128H163L99 81Q83 48 82.5 41T98 32zm254 557L179 241h223zm12 265q0-25-16-41.5T307 796q-21 0-33.5 12.5T261 841q0 24 16 40.5t41 16.5q21 0 33.5-11.5T364 854zm203 0q0-25-16.5-41.5T509 796q-20 0-33 12.5T463 841q0 24 16 40.5t41 16.5q22 0 34.5-12t12.5-32z" glyph-name="Adieresis" horiz-adv-x="628" unicode="Ä"/><glyph d="M98 32l54-6-5-26H-46l5 26 55 6q17 2 23 8.5T59 81l299 599h63l89-599q5-34 8.5-40.5T537 32l54-6-4-26H347l5 26 56 6q17 2 19 9t-2 40l-18 128H163L99 81Q83 48 82.5 41T98 32zm254 557L179 241h223zm76 192l-23-17q-38 39-65 77t-49 84h91q4-42 13.5-73t32.5-71z" glyph-name="Agrave" horiz-adv-x="628" unicode="À"/><glyph d="M98 32l54-6-5-26H-46l5 26 55 6q17 2 23 8.5T59 81l289 580q-35 11-53 42t-12 68l2 11q8 45 43 72.5t85 27.5q56 0 86.5-34t22.5-82l-2-11q-6-36-32-62.5T424 658l86-577q5-34 8.5-40.5T537 32l54-6-4-26H347l5 26 56 6q17 2 19 9t-2 40l-18 128H163L99 81Q83 48 82.5 41T98 32zm291 648q28 0 46 19.5t24 55.5l5 25q6 37-7 57t-42 20q-27 0-45-19.5T345 781l-4-25q-7-35 6-55.5t42-20.5zm-37-91L179 241h223z" glyph-name="Aring" horiz-adv-x="628" unicode="Å"/><glyph d="M98 32l54-6-5-26H-46l5 26 55 6q17 2 23 8.5T59 81l299 599h63l89-599q5-34 8.5-40.5T537 32l54-6-4-26H347l5 26 56 6q17 2 19 9t-2 40l-18 128H163L99 81Q83 48 82.5 41T98 32zm254 557L179 241h223zm130 185q-20 0-37.5 10T401 825q-21 24-32 31t-22 7q-19 0-33.5-20T290 785h-31q13 69 38 104t61 35q20 0 37.5-10t43.5-41q20-24 30.5-31t21.5-7q18 0 32.5 20t23.5 58h32q-13-69-37.5-104T482 774z" glyph-name="Atilde" horiz-adv-x="628" unicode="Ã"/><glyph d="M98 32l54-6-5-26H-46l5 26 55 6q17 2 23 8.5T59 81l299 599h63l89-599q5-34 8.5-40.5T537 32l54-6-4-26H347l5 26 56 6q17 2 19 9t-2 40l-18 128H163L99 81Q83 48 82.5 41T98 32zm254 557L179 241h223zm63 239q47 0 77.5 23.5T544 927l29-9q-26-80-64.5-117T412 764q-59 0-89.5 38.5T289 918l29 9q6-52 29-75.5t68-23.5z" glyph-name="Abreve" horiz-adv-x="628" unicode="Ă"/><glyph d="M98 32l54-6-5-26H-46l5 26 55 6q17 2 23 8.5T59 81l299 599h63l89-599q5-34 8.5-40.5T537 32l54-6-4-26H347l5 26 56 6q17 2 19 9t-2 40l-18 128H163L99 81Q83 48 82.5 41T98 32zm254 557L179 241h223zm-77 262h287l-8-47H267z" glyph-name="Amacron" horiz-adv-x="628" unicode="Ā"/><glyph d="M498-112l50-13q-22-49-55.5-73.5T414-223q-48 0-76 22.5T310-138q0 44 34.5 84T435 9l-29 200H163L99 81Q83 48 82.5 41T98 32l54-6-5-26H-46l5 26 55 6q17 2 23 8.5T59 81l299 599h63l89-599q5-33 8.5-40t18.5-9l54-6-4-26h-64q-65 0-107-41.5T374-141q0-26 10.5-39t31.5-13q27 0 47.5 20.5T498-112zM352 589L179 241h223z" glyph-name="Aogonek" horiz-adv-x="628" unicode="Ą"/><glyph d="M375-133q0-39-33.5-64.5T256-223q-46 0-73 20.5T155-145l51 14q-2-33 8.5-48.5T251-195q26 0 42.5 18t16.5 46q0 24-11.5 34.5T261-86q-1 0-7-1t-17-2l-5 26 32 55Q159 4 111.5 90T86 315l11 67q23 146 101 227t195 81q104 0 156-62.5T574 480l-90-21q27 95 3 147t-95 52q-76 0-124-56.5T201 432l-28-167q-21-124 10-183.5T300 22q58 0 97.5 34T456 156l62-21q-33-72-88.5-108.5T298-10l-28-48q48 0 76.5-20.5T375-133z" glyph-name="Ccedilla" horiz-adv-x="586" unicode="Ç"/><glyph d="M297-10q-122 0-178.5 87.5T86 315l11 67q23 146 101 227t195 81q104 0 156-62.5T574 480l-90-21q27 95 3 147t-95 52q-76 0-124-56.5T201 432l-28-167q-21-124 10-183.5T300 22q58 0 97.5 34T456 156l62-21q-33-72-88.5-108.5T297-10zm110 774l-19 22q32 35 51.5 66t37.5 73h101q-38-46-78.5-84T407 764z" glyph-name="Cacute" horiz-adv-x="586" unicode="Ć"/><glyph d="M297-10q-122 0-178.5 87.5T86 315l11 67q23 146 101 227t195 81q104 0 156-62.5T574 480l-90-21q27 95 3 147t-95 52q-76 0-124-56.5T201 432l-28-167q-21-124 10-183.5T300 22q58 0 97.5 34T456 156l62-21q-33-72-88.5-108.5T297-10zm251 939l17-21q-45-42-68-68t-54-71h-66q-15 44-28.5 71T304 910l18 19q31-27 55-51.5t42-47.5q28 24 59.5 48.5T548 929z" glyph-name="Ccaron" horiz-adv-x="586" unicode="Č"/><glyph d="M297-10q-122 0-178.5 87.5T86 315l11 67q23 146 101 227t195 81q104 0 156-62.5T574 480l-90-21q27 95 3 147t-95 52q-76 0-124-56.5T201 432l-28-167q-21-124 10-183.5T300 22q58 0 97.5 34T456 156l62-21q-33-72-88.5-108.5T297-10zm245 793l-18-19q-28 25-52.5 49.5T427 863q-33-27-64.5-51.5T298 764l-17 21q46 42 68.5 68.5T403 925h66q15-45 28.5-72t44.5-70z" glyph-name="Ccircumflex" horiz-adv-x="586" unicode="Ĉ"/><glyph d="M297-10q-122 0-178.5 87.5T86 315l11 67q23 146 101 227t195 81q104 0 156-62.5T574 480l-90-21q27 95 3 147t-95 52q-76 0-124-56.5T201 432l-28-167q-21-124 10-183.5T300 22q58 0 97.5 34T456 156l62-21q-33-72-88.5-108.5T297-10zm181 864q0-26-17-43.5T417 793q-23 0-36 13t-13 35q0 26 17 43t43 17q23 0 36.5-12.5T478 854z" glyph-name="Cdotaccent" horiz-adv-x="586" unicode="Ċ"/><glyph d="M174 648l-55 5 5 27h262q125 0 185-86.5T606 366l-12-65Q569 159 489.5 79.5T292 0H4l5 26 56 6q17 2 21 8.5T96 81l91 518q6 33 4.5 40t-17.5 9zm213 0H282L174 32h117q80 0 130.5 56T491 253l29 165q19 113-14.5 171.5T387 648zm162 281l17-21q-45-42-68-68t-54-71h-66q-15 44-28.5 71T305 910l18 19q31-27 55-51.5t42-47.5q28 24 59.5 48.5T549 929z" glyph-name="Dcaron" horiz-adv-x="659" unicode="Ď"/><glyph d="M178 648l-55 5 5 27h262q125 0 184.5-86.5T609 366l-11-65Q573 159 493.5 79.5T296 0H8l4 26 56 6q17 2 21 8.5T99 81l46 257H68l5 32h77l41 229q6 33 4.5 40t-17.5 9zm212-278l-5-32H232L178 32h117q79 0 130 56.5T495 253l28 165q19 113-14.5 171.5T390 648H286l-49-278z" glyph-name="Dcroat" horiz-adv-x="663" unicode="Đ"/><glyph d="M486 163h26L483 0H4l5 26 56 6q17 2 21 8.5T96 81l91 518q6 33 4.5 40t-17.5 9l-55 5 5 27h467l-29-163h-26l-10 105q-3 20-11 23t-38 3H283l-51-289h134q33 0 41.5 3.5T425 385l32 75h25l-41-234h-25l-6 75q-2 19-9.5 22.5T360 327H226L174 32h206q33 0 41.5 3.5T439 58zm-93 601l-19 22q32 35 51.5 66t37.5 73h101q-38-46-78.5-84T393 764z" glyph-name="Eacute" horiz-adv-x="580" unicode="É"/><glyph d="M486 163h26L483 0H4l5 26 56 6q17 2 21 8.5T96 81l91 518q6 33 4.5 40t-17.5 9l-55 5 5 27h467l-29-163h-26l-10 105q-3 20-11 23t-38 3H283l-51-289h134q33 0 41.5 3.5T425 385l32 75h25l-41-234h-25l-6 75q-2 19-9.5 22.5T360 327H226L174 32h206q33 0 41.5 3.5T439 58zm43 620l-18-19q-28 25-52.5 49.5T414 863q-33-27-64.5-51.5T285 764l-17 21q46 42 68.5 68.5T390 925h66q15-45 28.5-72t44.5-70z" glyph-name="Ecircumflex" horiz-adv-x="580" unicode="Ê"/><glyph d="M486 163h26L483 0H4l5 26 56 6q17 2 21 8.5T96 81l91 518q6 33 4.5 40t-17.5 9l-55 5 5 27h467l-29-163h-26l-10 105q-3 20-11 23t-38 3H283l-51-289h134q33 0 41.5 3.5T425 385l32 75h25l-41-234h-25l-6 75q-2 19-9.5 22.5T360 327H226L174 32h206q33 0 41.5 3.5T439 58zM359 854q0-25-16-41.5T302 796q-21 0-33.5 12.5T256 841q0 24 16 40.5t41 16.5q21 0 33.5-11.5T359 854zm203 0q0-25-16.5-41.5T504 796q-20 0-33 12.5T458 841q0 24 16 40.5t41 16.5q22 0 34.5-12t12.5-32z" glyph-name="Edieresis" horiz-adv-x="580" unicode="Ë"/><glyph d="M486 163h26L483 0H4l5 26 56 6q17 2 21 8.5T96 81l91 518q6 33 4.5 40t-17.5 9l-55 5 5 27h467l-29-163h-26l-10 105q-3 20-11 23t-38 3H283l-51-289h134q33 0 41.5 3.5T425 385l32 75h25l-41-234h-25l-6 75q-2 19-9.5 22.5T360 327H226L174 32h206q33 0 41.5 3.5T439 58zm-68 618l-23-17q-38 39-65 77t-49 84h91q4-42 13.5-73t32.5-71z" glyph-name="Egrave" horiz-adv-x="580" unicode="È"/><glyph d="M486 163h26L483 0H4l5 26 56 6q17 2 21 8.5T96 81l91 518q6 33 4.5 40t-17.5 9l-55 5 5 27h467l-29-163h-26l-10 105q-3 20-11 23t-38 3H283l-51-289h134q33 0 41.5 3.5T425 385l32 75h25l-41-234h-25l-6 75q-2 19-9.5 22.5T360 327H226L174 32h206q33 0 41.5 3.5T439 58zm-81 665q47 0 77.5 23.5T534 927l29-9q-26-80-64.5-117T402 764q-59 0-89.5 38.5T279 918l29 9q6-52 29-75.5t68-23.5z" glyph-name="Ebreve" horiz-adv-x="580" unicode="Ĕ"/><glyph d="M486 163h26L483 0H4l5 26 56 6q17 2 21 8.5T96 81l91 518q6 33 4.5 40t-17.5 9l-55 5 5 27h467l-29-163h-26l-10 105q-3 20-11 23t-38 3H283l-51-289h134q33 0 41.5 3.5T425 385l32 75h25l-41-234h-25l-6 75q-2 19-9.5 22.5T360 327H226L174 32h206q33 0 41.5 3.5T439 58zm47 766l17-21q-45-42-68-68t-54-71h-66q-15 44-28.5 71T289 910l18 19q31-27 55-51.5t42-47.5q28 24 59.5 48.5T533 929z" glyph-name="Ecaron" horiz-adv-x="580" unicode="Ě"/><glyph d="M486 163h26L483 0H4l5 26 56 6q17 2 21 8.5T96 81l91 518q6 33 4.5 40t-17.5 9l-55 5 5 27h467l-29-163h-26l-10 105q-3 20-11 23t-38 3H283l-51-289h134q33 0 41.5 3.5T425 385l32 75h25l-41-234h-25l-6 75q-2 19-9.5 22.5T360 327H226L174 32h206q33 0 41.5 3.5T439 58zm-22 691q0-26-17-43.5T403 793q-23 0-36 13t-13 35q0 26 17 43t43 17q23 0 36.5-12.5T464 854z" glyph-name="Edotaccent" horiz-adv-x="580" unicode="Ė"/><glyph d="M486 163h26L483 0H4l5 26 56 6q17 2 21 8.5T96 81l91 518q6 33 4.5 40t-17.5 9l-55 5 5 27h467l-29-163h-26l-10 105q-3 20-11 23t-38 3H283l-51-289h134q33 0 41.5 3.5T425 385l32 75h25l-41-234h-25l-6 75q-2 19-9.5 22.5T360 327H226L174 32h206q33 0 41.5 3.5T439 58zM266 851h287l-8-47H258z" glyph-name="Emacron" horiz-adv-x="580" unicode="Ē"/><glyph d="M411-112l50-13q-22-49-55.5-73.5T327-223q-48 0-76 22.5T223-138q0 41 33 78.5T343 0H4l5 26 56 6q17 2 21 8.5T96 81l91 518q6 33 4.5 40t-17.5 9l-55 5 5 27h467l-29-163h-26l-10 105q-3 20-11 23t-38 3H283l-51-289h134q33 0 41.5 3.5T425 385l32 75h25l-41-234h-25l-6 75q-2 19-9.5 22.5T360 327H226L174 32h206q33 0 41.5 3.5T439 58l47 105h26L483 0h-47q-65 0-107-41.5T287-141q0-26 10-39t31-13q27 0 47.5 20t35.5 61z" glyph-name="Eogonek" horiz-adv-x="580" unicode="Ę"/><glyph d="M508 12h-24q-6 13-14.5 24T450 56q-31-33-71.5-49.5T290-10q-118 0-173 87.5T86 315l11 67q23 145 103 226.5T401 690q108 0 161.5-61.5T590 480l-90-21q27 97 1.5 148T399 658q-79 0-129-57t-69-169l-28-167q-20-123 9.5-183T294 22q49 0 87 19.5T442 98l23 129q7 33 5 40t-18 9l-74 5 4 27h255l-4-27-56-5q-17-2-21-9.5T546 227zm-78 816q47 0 77.5 23.5T559 927l29-9q-26-80-64.5-117T427 764q-59 0-89.5 38.5T304 918l29 9q6-52 29-75.5t68-23.5z" glyph-name="Gbreve" horiz-adv-x="649" unicode="Ğ"/><glyph d="M508 12h-24q-6 13-14.5 24T450 56q-31-33-71.5-49.5T290-10q-118 0-173 87.5T86 315l11 67q23 145 103 226.5T401 690q108 0 161.5-61.5T590 480l-90-21q27 97 1.5 148T399 658q-79 0-129-57t-69-169l-28-167q-20-123 9.5-183T294 22q49 0 87 19.5T442 98l23 129q7 33 5 40t-18 9l-74 5 4 27h255l-4-27-56-5q-17-2-21-9.5T546 227zm45 771l-18-19q-28 25-52.5 49.5T438 863q-33-27-64.5-51.5T309 764l-17 21q46 42 68.5 68.5T414 925h66q15-45 28.5-72t44.5-70z" glyph-name="Gcircumflex" horiz-adv-x="649" unicode="Ĝ"/><glyph d="M508 12h-24q-6 13-14.5 24T450 56q-31-33-71.5-49.5T290-10q-118 0-173 87.5T86 315l11 67q23 145 103 226.5T401 690q108 0 161.5-61.5T590 480l-90-21q27 97 1.5 148T399 658q-79 0-129-57t-69-169l-28-167q-20-123 9.5-183T294 22q49 0 87 19.5T442 98l23 129q7 33 5 40t-18 9l-74 5 4 27h255l-4-27-56-5q-17-2-21-9.5T546 227zM193-242l-18 16q24 36 38 70.5T237-77h88q-25-48-55.5-86T193-242z" glyph-name="Gcommaaccent" horiz-adv-x="649" unicode="Ģ"/><glyph d="M508 12h-24q-6 13-14.5 24T450 56q-31-33-71.5-49.5T290-10q-118 0-173 87.5T86 315l11 67q23 145 103 226.5T401 690q108 0 161.5-61.5T590 480l-90-21q27 97 1.5 148T399 658q-79 0-129-57t-69-169l-28-167q-20-123 9.5-183T294 22q49 0 87 19.5T442 98l23 129q7 33 5 40t-18 9l-74 5 4 27h255l-4-27-56-5q-17-2-21-9.5T546 227zm-19 842q0-26-17-43.5T428 793q-23 0-36 13t-13 35q0 26 17 43t43 17q23 0 36.5-12.5T489 854z" glyph-name="Gdotaccent" horiz-adv-x="649" unicode="Ġ"/><glyph d="M199 32l54-6-5-26H7l5 26 56 6q17 2 20.5 8.5T98 81l73 412H95l5 31h77l13 75q6 33 4 40t-18 9l-54 5 5 27h241l-5-27-56-5q-17-2-20.5-9t-9.5-40l-13-75h302l13 75q6 33 4 40t-18 9l-54 5 5 27h241l-5-27-56-5q-17-2-20.5-9t-9.5-40l-13-75h77l-5-31h-78L574 81q-6-34-4-40.5t18-8.5l54-6-5-26H396l5 26 56 6q17 2 20.5 8.5T487 81l44 246H229L185 81q-6-34-4-40.5t18-8.5zm59 461l-24-134h302l24 134z" glyph-name="Hbar" horiz-adv-x="734" unicode="Ħ"/><glyph d="M196 32l54-6-5-26H4l5 26 56 6q17 2 20.5 8.5T95 81l92 518q6 33 4 40t-18 9l-54 5 5 27h241l-5-27-56-5q-17-2-20.5-9t-9.5-40l-43-240h302l43 240q6 33 4 40t-18 9l-54 5 5 27h241l-5-27-56-5q-17-2-20.5-9t-9.5-40L571 81q-6-34-4-40.5t18-8.5l54-6-5-26H393l5 26 56 6q17 2 20.5 8.5T484 81l44 246H226L182 81q-6-34-4-40.5t18-8.5zm387 751l-18-19q-28 25-52.5 49.5T468 863q-33-27-64.5-51.5T339 764l-17 21q46 42 68.5 68.5T444 925h66q15-45 28.5-72t44.5-70z" glyph-name="Hcircumflex" horiz-adv-x="726" unicode="Ĥ"/><glyph d="M173 648l-54 5 5 27h241l-5-27-56-5q-17-2-20.5-9t-9.5-40L182 81q-6-34-4-40.5t18-8.5l54-6-5-26H4l5 26 56 6q17 2 20.5 8.5T95 81l92 518q6 33 4 40t-18 9zm85 116l-19 22q32 35 51.5 66t37.5 73h101q-38-46-78.5-84T258 764z" glyph-name="Iacute" horiz-adv-x="337" unicode="Í"/><glyph d="M173 648l-54 5 5 27h241l-5-27-56-5q-17-2-20.5-9t-9.5-40L182 81q-6-34-4-40.5t18-8.5l54-6-5-26H4l5 26 56 6q17 2 20.5 8.5T95 81l92 518q6 33 4 40t-18 9zm220 135l-18-19q-28 25-52.5 49.5T278 863q-33-27-64.5-51.5T149 764l-17 21q46 42 68.5 68.5T254 925h66q15-45 28.5-72t44.5-70z" glyph-name="Icircumflex" horiz-adv-x="337" unicode="Î"/><glyph d="M173 648l-54 5 5 27h241l-5-27-56-5q-17-2-20.5-9t-9.5-40L182 81q-6-34-4-40.5t18-8.5l54-6-5-26H4l5 26 56 6q17 2 20.5 8.5T95 81l92 518q6 33 4 40t-18 9zm51 206q0-25-16-41.5T167 796q-21 0-33.5 12.5T121 841q0 24 16 40.5t41 16.5q21 0 33.5-11.5T224 854zm203 0q0-25-16.5-41.5T369 796q-20 0-33 12.5T323 841q0 24 16 40.5t41 16.5q22 0 34.5-12t12.5-32z" glyph-name="Idieresis" horiz-adv-x="337" unicode="Ï"/><glyph d="M173 648l-54 5 5 27h241l-5-27-56-5q-17-2-20.5-9t-9.5-40L182 81q-6-34-4-40.5t18-8.5l54-6-5-26H4l5 26 56 6q17 2 20.5 8.5T95 81l92 518q6 33 4 40t-18 9zm110 133l-23-17q-38 39-65 77t-49 84h91q4-42 13.5-73t32.5-71z" glyph-name="Igrave" horiz-adv-x="337" unicode="Ì"/><glyph d="M173 648l-54 5 5 27h241l-5-27-56-5q-17-2-20.5-9t-9.5-40L182 81q-6-34-4-40.5t18-8.5l54-6-5-26H4l5 26 56 6q17 2 20.5 8.5T95 81l92 518q6 33 4 40t-18 9zm97 180q47 0 77.5 23.5T399 927l29-9q-26-80-64.5-117T267 764q-59 0-89.5 38.5T144 918l29 9q6-52 29-75.5t68-23.5z" glyph-name="Ibreve" horiz-adv-x="337" unicode="Ĭ"/><glyph d="M173 648l-54 5 5 27h241l-5-27-56-5q-17-2-20.5-9t-9.5-40L182 81q-6-34-4-40.5t18-8.5l54-6-5-26H4l5 26 56 6q17 2 20.5 8.5T95 81l92 518q6 33 4 40t-18 9zm156 206q0-26-17-43.5T268 793q-23 0-36 13t-13 35q0 26 17 43t43 17q23 0 36.5-12.5T329 854z" glyph-name="Idotaccent" horiz-adv-x="337" unicode="İ"/><glyph d="M173 648l-54 5 5 27h241l-5-27-56-5q-17-2-20.5-9t-9.5-40L182 81q-6-34-4-40.5t18-8.5l54-6-5-26H4l5 26 56 6q17 2 20.5 8.5T95 81l92 518q6 33 4 40t-18 9zm-42 203h287l-8-47H123z" glyph-name="Imacron" horiz-adv-x="337" unicode="Ī"/><glyph d="M154-112l50-13q-22-49-55.5-73.5T70-223q-48 0-76 22.5T-34-138q0 41 31 79.5T78 3l105 596q6 33 4.5 40t-17.5 9l-55 5 5 27h241l-5-27-55-5q-17-2-21-9t-10-40L179 81q-6-34-4.5-40.5T192 32l54-6-4-26h-63Q114 0 72-41.5T30-141q0-26 10.5-39T72-193q27 0 47.5 20.5T154-112z" glyph-name="Iogonek" horiz-adv-x="334" unicode="Į"/><glyph d="M173 648l-54 5 5 27h241l-5-27-56-5q-17-2-20.5-9t-9.5-40L182 81q-6-34-4-40.5t18-8.5l54-6-5-26H4l5 26 56 6q17 2 20.5 8.5T95 81l92 518q6 33 4 40t-18 9zm164 126q-20 0-37.5 10T256 825q-21 24-32 31t-22 7q-19 0-33.5-20T145 785h-31q13 69 38 104t61 35q20 0 37.5-10t43.5-41q20-24 30.5-31t21.5-7q18 0 32.5 20t23.5 58h32q-13-69-37.5-104T337 774z" glyph-name="Itilde" horiz-adv-x="337" unicode="Ĩ"/><glyph d="M310 648l-55 5 5 27h241l-5-27-55-5q-17-2-21-9t-10-40l-71-405q-17-97-72-150.5T127-10Q59-10 24 27T-7 134l65 19q-8-65 8-98t57-33q51 0 82 41.5T251 190l72 409q6 33 4.5 40t-17.5 9zm218 135l-18-19q-28 25-52.5 49.5T413 863q-33-27-64.5-51.5T284 764l-17 21q46 42 68.5 68.5T389 925h66q15-45 28.5-72t44.5-70z" glyph-name="Jcircumflex" horiz-adv-x="461" unicode="Ĵ"/><glyph d="M173 648l-54 5 5 27h241l-5-27-56-5q-17-2-20.5-9t-9.5-40L182 81q-6-34-4-40.5t18-8.5l54-6-5-26H4l5 26 56 6q17 2 20.5 8.5T95 81l92 518q6 33 4 40t-18 9zm474 0l-55 5 5 27h241l-5-27-55-5q-17-2-21-9t-10-40l-71-405q-17-97-72-150.5T464-10q-68 0-103 37t-31 107l65 19q-8-65 8-98t57-33q51 0 82 41.5T588 190l72 409q6 33 4.5 40t-17.5 9z" glyph-name="IJ" horiz-adv-x="799" unicode="Ĳ"/><glyph d="M196 32l54-6-5-26H4l5 26 56 6q17 2 21 8.5T96 81l91 518q6 33 4.5 40t-17.5 9l-54 6 4 26h241l-4-26-56-6q-17-2-21-9.5T274 599l-49-279 290 285q26 26 30 33.5t-13 9.5l-50 6 4 26h196l-4-26-53-6q-13-1-19.5-5T564 605L373 417 506 81q12-31 18.5-39T548 32l47-6-5-26H440L307 352l-92-91-32-180q-6-33-4.5-40t17.5-9zm1-274l-18 16q24 36 38 70.5T241-77h88q-25-48-55.5-86T197-242z" glyph-name="Kcommaaccent" horiz-adv-x="644" unicode="Ķ"/><glyph d="M789 685l21-17q-20-33-36.5-75T747 504h-87q27 53 59 98.5t70 82.5zM196 32l54-6-5-26H4l5 26 56 6q17 2 21 8.5T96 81l91 518q6 33 4.5 40t-17.5 9l-54 6 4 26h241l-4-26-56-6q-17-2-21-9.5T274 599l-49-279 290 285q26 26 30 33.5t-13 9.5l-50 6 4 26h196l-4-26-53-6q-13-1-19.5-5T564 605L373 417 506 81q12-31 18.5-39T548 32l47-6-5-26H440L307 352l-92-91-32-180q-6-33-4.5-40t17.5-9z" glyph-name="kgreenlandic.case" horiz-adv-x="749"/><glyph d="M462 165h26L459 0H4l5 26 56 6q17 2 20.5 8.5T95 81l92 518q6 33 4 40t-18 9l-54 5 5 27h241l-5-27-56-5q-17-2-20.5-9t-9.5-40L174 32h181q33 0 41.5 3.5T414 58zM266 764l-19 22q32 35 51.5 66t37.5 73h101q-38-46-78.5-84T266 764z" glyph-name="Lacute" horiz-adv-x="515" unicode="Ĺ"/><glyph d="M462 165h26L459 0H4l5 26 56 6q17 2 20.5 8.5T95 81l92 518q6 33 4 40t-18 9l-54 5 5 27h241l-5-27-56-5q-17-2-20.5-9t-9.5-40L174 32h181q33 0 41.5 3.5T414 58zm-44 301h-21l37 214h82q-24-59-47.5-110.5T418 466z" glyph-name="Lcaron" horiz-adv-x="515" unicode="Ľ"/><glyph d="M462 165h26L459 0H4l5 26 56 6q17 2 20.5 8.5T95 81l92 518q6 33 4 40t-18 9l-54 5 5 27h241l-5-27-56-5q-17-2-20.5-9t-9.5-40L174 32h181q33 0 41.5 3.5T414 58zM157-242l-18 16q24 36 38 70.5T201-77h88q-25-48-55.5-86T157-242z" glyph-name="Lcommaaccent" horiz-adv-x="515" unicode="Ļ"/><glyph d="M462 165h26L459 0H4l5 26 56 6q17 2 20.5 8.5T95 81l92 518q6 33 4 40t-18 9l-54 5 5 27h241l-5-27-56-5q-17-2-20.5-9t-9.5-40L174 32h181q33 0 41.5 3.5T414 58zm42 226q0-26-17-43.5T443 330q-23 0-36 13t-13 35q0 26 17 43t43 17q23 0 36.5-12.5T504 391z" glyph-name="Ldot" horiz-adv-x="515" unicode="Ŀ"/><glyph d="M174 648l-55 5 5 27h167l228-534 81 453q6 33 4.5 40t-17.5 9l-55 5 5 27h191l-5-27-55-5q-17-2-21-9t-10-40L531 0h-40L227 613 133 81q-6-33-4.5-40t17.5-9l54-6-5-26H4l5 26 56 6q17 2 21 8.5T96 81l91 518q6 33 4.5 40t-17.5 9zm348 126q-20 0-37.5 10T441 825q-21 24-32 31t-22 7q-19 0-33.5-20T330 785h-31q13 69 38 104t61 35q20 0 37.5-10t43.5-41q20-24 30.5-31t21.5-7q18 0 32.5 20t23.5 58h32q-13-69-37.5-104T522 774z" glyph-name="Ntilde" horiz-adv-x="691" unicode="Ñ"/><glyph d="M174 648l-55 5 5 27h167l228-534 81 453q6 33 4.5 40t-17.5 9l-55 5 5 27h191l-5-27-55-5q-17-2-21-9t-10-40L531 0h-40L227 613 133 81q-6-33-4.5-40t17.5-9l54-6-5-26H4l5 26 56 6q17 2 21 8.5T96 81l91 518q6 33 4.5 40t-17.5 9zm269 116l-19 22q32 35 51.5 66t37.5 73h101q-38-46-78.5-84T443 764z" glyph-name="Nacute" horiz-adv-x="691" unicode="Ń"/><glyph d="M174 648l-55 5 5 27h167l228-534 81 453q6 33 4.5 40t-17.5 9l-55 5 5 27h191l-5-27-55-5q-17-2-21-9t-10-40L531 0h-40L227 613 133 81q-6-33-4.5-40t17.5-9l54-6-5-26H4l5 26 56 6q17 2 21 8.5T96 81l91 518q6 33 4.5 40t-17.5 9zm409 281l17-21q-45-42-68-68t-54-71h-66q-15 44-28.5 71T339 910l18 19q31-27 55-51.5t42-47.5q28 24 59.5 48.5T583 929z" glyph-name="Ncaron" horiz-adv-x="691" unicode="Ň"/><glyph d="M174 648l-55 5 5 27h167l228-534 81 453q6 33 4.5 40t-17.5 9l-55 5 5 27h191l-5-27-55-5q-17-2-21-9t-10-40L531 0h-40L227 613 133 81q-6-33-4.5-40t17.5-9l54-6-5-26H4l5 26 56 6q17 2 21 8.5T96 81l91 518q6 33 4.5 40t-17.5 9zm29-890l-18 16q24 36 38 70.5T247-77h88q-25-48-55.5-86T203-242z" glyph-name="Ncommaaccent" horiz-adv-x="691" unicode="Ņ"/><glyph d="M174 648l-55 5 5 27h167l228-534 81 453q6 33 4.5 40t-17.5 9l-55 5 5 27h191l-5-27-55-5q-17-2-21-9t-10-40L528-19q-18-99-70.5-151.5T322-223q-62 0-95 36.5T200-84l62 17q-10-60 5.5-92t52.5-32q48 0 77.5 41.5T442-22l17 96-232 539-94-532q-6-33-4.5-40t17.5-9l54-6-5-26H4l5 26 56 6q17 2 21 8.5T96 81l91 518q6 33 4.5 40t-17.5 9z" glyph-name="Eng" horiz-adv-x="691" unicode="Ŋ"/><glyph d="M307 648l-55 5 5 27h167l228-534 81 453q6 33 4.5 40t-17.5 9l-55 5 5 27h191l-5-27-55-5q-17-2-21-9t-10-40L664 0h-40L360 613 266 81q-6-33-4.5-40t17.5-9l54-6-5-26H137l5 26 56 6q17 2 21 8.5T229 81l91 518q6 33 4.5 40t-17.5 9zm-166 42q22 0 35.5-15t13.5-40q0-41-32.5-93T63 431l-19 20q36 37 57 70t29 64q-21 1-32.5 13T86 631q0 26 15.5 42.5T141 690z" glyph-name="napostrophe.case" horiz-adv-x="825"/><glyph d="M397 690q124 0 183-90t34-234l-12-65Q577 155 497.5 72.5T301-10q-125 0-183 89T85 315l11 65q26 146 105 228t196 82zm102-437l29 165q20 117-13.5 178.5T397 658q-78 0-127.5-58T200 428l-29-165q-21-117 12.5-179T301 22q78 0 128 58.5T499 253zm-78 511l-19 22q32 35 51.5 66t37.5 73h101q-38-46-78.5-84T421 764z" glyph-name="Oacute" horiz-adv-x="666" unicode="Ó"/><glyph d="M397 690q124 0 183-90t34-234l-12-65Q577 155 497.5 72.5T301-10q-125 0-183 89T85 315l11 65q26 146 105 228t196 82zm102-437l29 165q20 117-13.5 178.5T397 658q-78 0-127.5-58T200 428l-29-165q-21-117 12.5-179T301 22q78 0 128 58.5T499 253zm57 530l-18-19q-28 25-52.5 49.5T441 863q-33-27-64.5-51.5T312 764l-17 21q46 42 68.5 68.5T417 925h66q15-45 28.5-72t44.5-70z" glyph-name="Ocircumflex" horiz-adv-x="666" unicode="Ô"/><glyph d="M397 690q124 0 183-90t34-234l-12-65Q577 155 497.5 72.5T301-10q-125 0-183 89T85 315l11 65q26 146 105 228t196 82zm102-437l29 165q20 117-13.5 178.5T397 658q-78 0-127.5-58T200 428l-29-165q-21-117 12.5-179T301 22q78 0 128 58.5T499 253zM387 854q0-25-16-41.5T330 796q-21 0-33.5 12.5T284 841q0 24 16 40.5t41 16.5q21 0 33.5-11.5T387 854zm203 0q0-25-16.5-41.5T532 796q-20 0-33 12.5T486 841q0 24 16 40.5t41 16.5q22 0 34.5-12t12.5-32z" glyph-name="Odieresis" horiz-adv-x="666" unicode="Ö"/><glyph d="M397 690q124 0 183-90t34-234l-12-65Q577 155 497.5 72.5T301-10q-125 0-183 89T85 315l11 65q26 146 105 228t196 82zm102-437l29 165q20 117-13.5 178.5T397 658q-78 0-127.5-58T200 428l-29-165q-21-117 12.5-179T301 22q78 0 128 58.5T499 253zm-53 528l-23-17q-38 39-65 77t-49 84h91q4-42 13.5-73t32.5-71z" glyph-name="Ograve" horiz-adv-x="666" unicode="Ò"/><glyph d="M397 690q124 0 183-90t34-234l-12-65Q577 155 497.5 72.5T301-10q-125 0-183 89T85 315l11 65q26 146 105 228t196 82zm102-437l29 165q20 117-13.5 178.5T397 658q-78 0-127.5-58T200 428l-29-165q-21-117 12.5-179T301 22q78 0 128 58.5T499 253zm1 521q-20 0-37.5 10T419 825q-21 24-32 31t-22 7q-19 0-33.5-20T308 785h-31q13 69 38 104t61 35q20 0 37.5-10t43.5-41q20-24 30.5-31t21.5-7q18 0 32.5 20t23.5 58h32q-13-69-37.5-104T500 774z" glyph-name="Otilde" horiz-adv-x="666" unicode="Õ"/><glyph d="M397 690q124 0 183-90t34-234l-12-65Q577 155 497.5 72.5T301-10q-125 0-183 89T85 315l11 65q26 146 105 228t196 82zm102-437l29 165q20 117-13.5 178.5T397 658q-78 0-127.5-58T200 428l-29-165q-21-117 12.5-179T301 22q78 0 128 58.5T499 253zm-66 575q47 0 77.5 23.5T562 927l29-9q-26-80-64.5-117T430 764q-59 0-89.5 38.5T307 918l29 9q6-52 29-75.5t68-23.5z" glyph-name="Obreve" horiz-adv-x="666" unicode="Ŏ"/><glyph d="M397 690q124 0 183-90t34-234l-12-65Q577 155 497.5 72.5T301-10q-125 0-183 89T85 315l11 65q26 146 105 228t196 82zm102-437l29 165q20 117-13.5 178.5T397 658q-78 0-127.5-58T200 428l-29-165q-21-117 12.5-179T301 22q78 0 128 58.5T499 253zM350 764l-19 17q22 30 39.5 63.5T405 925h91q-31-43-68-84t-78-77zm140 0l-19 17q22 29 39.5 62.5T546 925h91q-32-44-69-84.5T490 764z" glyph-name="Ohungarumlaut" horiz-adv-x="666" unicode="Ő"/><glyph d="M397 690q124 0 183-90t34-234l-12-65Q577 155 497.5 72.5T301-10q-125 0-183 89T85 315l11 65q26 146 105 228t196 82zm102-437l29 165q20 117-13.5 178.5T397 658q-78 0-127.5-58T200 428l-29-165q-21-117 12.5-179T301 22q78 0 128 58.5T499 253zM294 851h287l-8-47H286z" glyph-name="Omacron" horiz-adv-x="666" unicode="Ō"/><glyph d="M174 648l-55 5 5 27h271q95 0 144-49.5T574 502l-5-30q-11-63-51-103t-106-54l86-234q12-33 17-40t21-9l44-6-4-26H430L325 308H223L183 81q-6-33-4.5-40t17.5-9l54-6-5-26H4l5 26 56 6q17 2 21 8.5T96 81l91 518q6 33 4.5 40t-17.5 9zm223 0H282l-54-308h114q53 0 89 34t46 94l6 38q12 67-11 104.5T397 648zm-3 116l-19 22q32 35 51.5 66t37.5 73h101q-38-46-78.5-84T394 764z" glyph-name="Racute" horiz-adv-x="625" unicode="Ŕ"/><glyph d="M174 648l-55 5 5 27h271q95 0 144-49.5T574 502l-5-30q-11-63-51-103t-106-54l86-234q12-33 17-40t21-9l44-6-4-26H430L325 308H223L183 81q-6-33-4.5-40t17.5-9l54-6-5-26H4l5 26 56 6q17 2 21 8.5T96 81l91 518q6 33 4.5 40t-17.5 9zm223 0H282l-54-308h114q53 0 89 34t46 94l6 38q12 67-11 104.5T397 648zm137 281l17-21q-45-42-68-68t-54-71h-66q-15 44-28.5 71T290 910l18 19q31-27 55-51.5t42-47.5q28 24 59.5 48.5T534 929z" glyph-name="Rcaron" horiz-adv-x="625" unicode="Ř"/><glyph d="M174 648l-55 5 5 27h271q95 0 144-49.5T574 502l-5-30q-11-63-51-103t-106-54l86-234q12-33 17-40t21-9l44-6-4-26H430L325 308H223L183 81q-6-33-4.5-40t17.5-9l54-6-5-26H4l5 26 56 6q17 2 21 8.5T96 81l91 518q6 33 4.5 40t-17.5 9zm223 0H282l-54-308h114q53 0 89 34t46 94l6 38q12 67-11 104.5T397 648zM202-242l-18 16q24 36 38 70.5T246-77h88q-25-48-55.5-86T202-242z" glyph-name="Rcommaaccent" horiz-adv-x="625" unicode="Ŗ"/><glyph d="M486 197q0-92-67-149.5T239-10Q139-10 86 36T32 172l63 20q-4-85 31.5-127.5T240 22q80 0 123.5 36.5T407 161q0 47-25 76.5T299 291l-74 29q-63 25-94 68.5T100 494q0 89 60 142.5T325 690q50 0 89.5-13.5T480 637q31-30 40-71t-6-83l-87-18q28 93 1 143t-107 50q-68 0-105.5-35T178 524q0-48 24-78t79-51l74-30q67-26 99-67.5T486 197zm5 732l17-21q-45-42-68-68t-54-71h-66q-15 44-28.5 71T247 910l18 19q31-27 55-51.5t42-47.5q28 24 59.5 48.5T491 929z" glyph-name="Scaron" horiz-adv-x="548" unicode="Š"/><glyph d="M486 197q0-92-67-149.5T239-10Q139-10 86 36T32 172l63 20q-4-85 31.5-127.5T240 22q80 0 123.5 36.5T407 161q0 47-25 76.5T299 291l-74 29q-63 25-94 68.5T100 494q0 89 60 142.5T325 690q50 0 89.5-13.5T480 637q31-30 40-71t-6-83l-87-18q28 93 1 143t-107 50q-68 0-105.5-35T178 524q0-48 24-78t79-51l74-30q67-26 99-67.5T486 197zM351 764l-19 22q32 35 51.5 66t37.5 73h101q-38-46-78.5-84T351 764z" glyph-name="Sacute" horiz-adv-x="548" unicode="Ś"/><glyph d="M301-133q0-39-33.5-64.5T182-223q-46 0-73 20.5T81-145l51 14q-2-33 8.5-48.5T177-195q26 0 42.5 18t16.5 46q0 24-11.5 34.5T187-86q-1 0-7-1t-17-2l-5 26 33 56Q114 4 73.5 49T32 172l63 20q-4-85 31.5-127.5T240 22q80 0 123.5 36.5T407 161q0 47-25 76.5T299 291l-74 29q-63 25-94 68.5T100 494q0 89 60 142.5T325 690q50 0 89.5-13.5T480 637q31-30 40-71t-6-83l-87-18q28 93 1 143t-107 50q-68 0-105.5-35T178 524q0-48 24-78t79-51l74-30q67-26 99-67.5T486 197q0-92-67-149.5T239-10h-15l-28-48q48 0 76.5-20.5T301-133z" glyph-name="Scedilla" horiz-adv-x="548" unicode="Ş"/><glyph d="M486 197q0-92-67-149.5T239-10Q139-10 86 36T32 172l63 20q-4-85 31.5-127.5T240 22q80 0 123.5 36.5T407 161q0 47-25 76.5T299 291l-74 29q-63 25-94 68.5T100 494q0 89 60 142.5T325 690q50 0 89.5-13.5T480 637q31-30 40-71t-6-83l-87-18q28 93 1 143t-107 50q-68 0-105.5-35T178 524q0-48 24-78t79-51l74-30q67-26 99-67.5T486 197zm0 586l-18-19q-28 25-52.5 49.5T371 863q-33-27-64.5-51.5T242 764l-17 21q46 42 68.5 68.5T347 925h66q15-45 28.5-72t44.5-70z" glyph-name="Scircumflex" horiz-adv-x="548" unicode="Ŝ"/><glyph d="M486 197q0-92-67-149.5T239-10Q139-10 86 36T32 172l63 20q-4-85 31.5-127.5T240 22q80 0 123.5 36.5T407 161q0 47-25 76.5T299 291l-74 29q-63 25-94 68.5T100 494q0 89 60 142.5T325 690q50 0 89.5-13.5T480 637q31-30 40-71t-6-83l-87-18q28 93 1 143t-107 50q-68 0-105.5-35T178 524q0-48 24-78t79-51l74-30q67-26 99-67.5T486 197zM125-242l-18 16q24 36 38 70.5T169-77h88q-25-48-55.5-86T125-242z" glyph-name="uni0218" horiz-adv-x="548" unicode="Ș"/><glyph d="M306 32l54-6-4-26H115l4 26 56 6q17 2 21 8.5T206 81l43 242H105l5 32h144l52 293H192q-33 0-41.5-3.5T134 622L86 517H60l29 163h532l-28-163h-27l-10 105q-2 19-9.5 22.5T507 648H393l-52-293h144l-5-32H336L293 81q-6-34-4.5-40.5T306 32z" glyph-name="Tbar" horiz-adv-x="559" unicode="Ŧ"/><glyph d="M86 517H60l29 163h532l-28-163h-27l-10 105q-2 19-9.5 22.5T507 648H393L293 81q-6-34-4.5-40.5T306 32l54-6-4-26H115l4 26 56 6q17 2 21 8.5T206 81l100 567H192q-33 0-41.5-3.5T134 622zm421 412l17-21q-45-42-68-68t-54-71h-66q-15 44-28.5 71T263 910l18 19q31-27 55-51.5t42-47.5q28 24 59.5 48.5T507 929z" glyph-name="Tcaron" horiz-adv-x="559" unicode="Ť"/><glyph d="M86 517H60l29 163h532l-28-163h-27l-10 105q-2 19-9.5 22.5T507 648H393L293 81q-6-34-4.5-40.5T306 32l54-6-4-26H115l4 26 56 6q17 2 21 8.5T206 81l100 567H192q-33 0-41.5-3.5T134 622zm47-759l-18 16q24 36 38 70.5T177-77h88q-25-48-55.5-86T133-242z" glyph-name="uni0162" horiz-adv-x="559" unicode="Ţ"/><glyph d="M86 517H60l29 163h532l-28-163h-27l-10 105q-2 19-9.5 22.5T507 648H393L293 81q-6-34-4.5-40.5T306 32l54-6-4-26H115l4 26 56 6q17 2 21 8.5T206 81l100 567H192q-33 0-41.5-3.5T134 622zm47-759l-18 16q24 36 38 70.5T177-77h88q-25-48-55.5-86T133-242z" glyph-name="uni021A" horiz-adv-x="559" unicode="Ț"/><glyph d="M579 648l-55 5 5 27h191l-5-27-55-5q-17-3-21.5-11t-9.5-38l-65-369q-21-118-84-179T315-10q-117 0-171.5 68T110 246l62 353q6 33 4.5 40t-17.5 9l-55 5 5 27h241l-5-27-55-5q-17-3-21.5-11t-9.5-38l-65-369q-19-106 12-157t114-51q84 0 136.5 52.5T527 230l65 369q6 33 4.5 40t-17.5 9zM447 764l-19 22q32 35 51.5 66t37.5 73h101q-38-46-78.5-84T447 764z" glyph-name="Uacute" horiz-adv-x="677" unicode="Ú"/><glyph d="M579 648l-55 5 5 27h191l-5-27-55-5q-17-3-21.5-11t-9.5-38l-65-369q-21-118-84-179T315-10q-117 0-171.5 68T110 246l62 353q6 33 4.5 40t-17.5 9l-55 5 5 27h241l-5-27-55-5q-17-3-21.5-11t-9.5-38l-65-369q-19-106 12-157t114-51q84 0 136.5 52.5T527 230l65 369q6 33 4.5 40t-17.5 9zm4 135l-18-19q-28 25-52.5 49.5T468 863q-33-27-64.5-51.5T339 764l-17 21q46 42 68.5 68.5T444 925h66q15-45 28.5-72t44.5-70z" glyph-name="Ucircumflex" horiz-adv-x="677" unicode="Û"/><glyph d="M579 648l-55 5 5 27h191l-5-27-55-5q-17-3-21.5-11t-9.5-38l-65-369q-21-118-84-179T315-10q-117 0-171.5 68T110 246l62 353q6 33 4.5 40t-17.5 9l-55 5 5 27h241l-5-27-55-5q-17-3-21.5-11t-9.5-38l-65-369q-19-106 12-157t114-51q84 0 136.5 52.5T527 230l65 369q6 33 4.5 40t-17.5 9zM413 854q0-25-16-41.5T356 796q-21 0-33.5 12.5T310 841q0 24 16 40.5t41 16.5q21 0 33.5-11.5T413 854zm203 0q0-25-16.5-41.5T558 796q-20 0-33 12.5T512 841q0 24 16 40.5t41 16.5q22 0 34.5-12t12.5-32z" glyph-name="Udieresis" horiz-adv-x="677" unicode="Ü"/><glyph d="M579 648l-55 5 5 27h191l-5-27-55-5q-17-3-21.5-11t-9.5-38l-65-369q-21-118-84-179T315-10q-117 0-171.5 68T110 246l62 353q6 33 4.5 40t-17.5 9l-55 5 5 27h241l-5-27-55-5q-17-3-21.5-11t-9.5-38l-65-369q-19-106 12-157t114-51q84 0 136.5 52.5T527 230l65 369q6 33 4.5 40t-17.5 9zM472 781l-23-17q-38 39-65 77t-49 84h91q4-42 13.5-73t32.5-71z" glyph-name="Ugrave" horiz-adv-x="677" unicode="Ù"/><glyph d="M579 648l-55 5 5 27h191l-5-27-55-5q-17-3-21.5-11t-9.5-38l-65-369q-21-118-84-179T315-10q-117 0-171.5 68T110 246l62 353q6 33 4.5 40t-17.5 9l-55 5 5 27h241l-5-27-55-5q-17-3-21.5-11t-9.5-38l-65-369q-19-106 12-157t114-51q84 0 136.5 52.5T527 230l65 369q6 33 4.5 40t-17.5 9zM459 828q47 0 77.5 23.5T588 927l29-9q-26-80-64.5-117T456 764q-59 0-89.5 38.5T333 918l29 9q6-52 29-75.5t68-23.5z" glyph-name="Ubreve" horiz-adv-x="677" unicode="Ŭ"/><glyph d="M579 648l-55 5 5 27h191l-5-27-55-5q-17-3-21.5-11t-9.5-38l-65-369q-21-118-84-179T315-10q-117 0-171.5 68T110 246l62 353q6 33 4.5 40t-17.5 9l-55 5 5 27h241l-5-27-55-5q-17-3-21.5-11t-9.5-38l-65-369q-19-106 12-157t114-51q84 0 136.5 52.5T527 230l65 369q6 33 4.5 40t-17.5 9zM376 764l-19 17q22 30 39.5 63.5T431 925h91q-31-43-68-84t-78-77zm140 0l-19 17q22 29 39.5 62.5T572 925h91q-32-44-69-84.5T516 764z" glyph-name="Uhungarumlaut" horiz-adv-x="677" unicode="Ű"/><glyph d="M579 648l-55 5 5 27h191l-5-27-55-5q-17-3-21.5-11t-9.5-38l-65-369q-21-118-84-179T315-10q-117 0-171.5 68T110 246l62 353q6 33 4.5 40t-17.5 9l-55 5 5 27h241l-5-27-55-5q-17-3-21.5-11t-9.5-38l-65-369q-19-106 12-157t114-51q84 0 136.5 52.5T527 230l65 369q6 33 4.5 40t-17.5 9zM320 851h287l-8-47H312z" glyph-name="Umacron" horiz-adv-x="677" unicode="Ū"/><glyph d="M424-112l50-13q-22-49-55.5-73.5T340-223q-48 0-76 22.5T236-138q0 35 22.5 62T359-7q-10-1-21.5-2T315-10q-117 0-171.5 68T110 246l62 353q6 33 4.5 40t-17.5 9l-55 5 5 27h241l-5-27-55-5q-17-3-21.5-11t-9.5-38l-65-369q-19-106 12-157t114-51q84 0 136.5 52.5T527 230l65 369q6 33 4.5 40t-17.5 9l-55 5 5 27h191l-5-27-55-5q-17-3-21.5-11t-9.5-38l-65-369q-11-62-34-109t-58-78q-21-18-58.5-43L364-33q-34-26-49-51.5T300-141q0-26 10-39t31-13q27 0 47.5 20.5T424-112z" glyph-name="Uogonek" horiz-adv-x="677" unicode="Ų"/><glyph d="M579 648l-55 5 5 27h191l-5-27-55-5q-17-3-21.5-11t-9.5-38l-65-369q-21-118-84-179T315-10q-117 0-171.5 68T110 246l62 353q6 33 4.5 40t-17.5 9l-55 5 5 27h241l-5-27-55-5q-17-3-21.5-11t-9.5-38l-65-369q-19-106 12-157t114-51q84 0 136.5 52.5T527 230l65 369q6 33 4.5 40t-17.5 9zM476 974q56 0 86.5-34t22.5-82l-2-11q-8-45-43.5-73T454 746q-55 0-85.5 34.5T346 863l2 11q8 45 43 72.5t85 27.5zm-24-202q28 0 46 19.5t24 55.5l5 25q6 37-7 57t-42 20q-27 0-45-19.5T408 873l-4-25q-7-35 6-55.5t42-20.5z" glyph-name="Uring" horiz-adv-x="677" unicode="Ů"/><glyph d="M579 648l-55 5 5 27h191l-5-27-55-5q-17-3-21.5-11t-9.5-38l-65-369q-21-118-84-179T315-10q-117 0-171.5 68T110 246l62 353q6 33 4.5 40t-17.5 9l-55 5 5 27h241l-5-27-55-5q-17-3-21.5-11t-9.5-38l-65-369q-19-106 12-157t114-51q84 0 136.5 52.5T527 230l65 369q6 33 4.5 40t-17.5 9zm-53 126q-20 0-37.5 10T445 825q-21 24-32 31t-22 7q-19 0-33.5-20T334 785h-31q13 69 38 104t61 35q20 0 37.5-10t43.5-41q20-24 30.5-31t21.5-7q18 0 32.5 20t23.5 58h32q-13-69-37.5-104T526 774z" glyph-name="Utilde" horiz-adv-x="677" unicode="Ũ"/><glyph d="M651 0h-65l-69 573L248 0h-65l-40 605q-1 29-4.5 35t-18.5 8l-51 5 5 27h230l-5-27-52-5q-14-2-17-4.5t-4-9.5v-8.5q0-5.5 1-20.5l32-500 268 575h62l70-571 206 496q12 29 11.5 35t-16.5 8l-51 5 5 27h186l-5-27-52-5q-17-2-22-8.5T904 605zm-90 764l-19 22q32 35 51.5 66t37.5 73h101q-38-46-78.5-84T561 764z" glyph-name="Wacute" horiz-adv-x="921" unicode="Ẃ"/><glyph d="M651 0h-65l-69 573L248 0h-65l-40 605q-1 29-4.5 35t-18.5 8l-51 5 5 27h230l-5-27-52-5q-14-2-17-4.5t-4-9.5v-8.5q0-5.5 1-20.5l32-500 268 575h62l70-571 206 496q12 29 11.5 35t-16.5 8l-51 5 5 27h186l-5-27-52-5q-17-2-22-8.5T904 605zm45 783l-18-19q-28 25-52.5 49.5T581 863q-33-27-64.5-51.5T452 764l-17 21q46 42 68.5 68.5T557 925h66q15-45 28.5-72t44.5-70z" glyph-name="Wcircumflex" horiz-adv-x="921" unicode="Ŵ"/><glyph d="M651 0h-65l-69 573L248 0h-65l-40 605q-1 29-4.5 35t-18.5 8l-51 5 5 27h230l-5-27-52-5q-14-2-17-4.5t-4-9.5v-8.5q0-5.5 1-20.5l32-500 268 575h62l70-571 206 496q12 29 11.5 35t-16.5 8l-51 5 5 27h186l-5-27-52-5q-17-2-22-8.5T904 605zM527 854q0-25-16-41.5T470 796q-21 0-33.5 12.5T424 841q0 24 16 40.5t41 16.5q21 0 33.5-11.5T527 854zm203 0q0-25-16.5-41.5T672 796q-20 0-33 12.5T626 841q0 24 16 40.5t41 16.5q22 0 34.5-12t12.5-32z" glyph-name="Wdieresis" horiz-adv-x="921" unicode="Ẅ"/><glyph d="M651 0h-65l-69 573L248 0h-65l-40 605q-1 29-4.5 35t-18.5 8l-51 5 5 27h230l-5-27-52-5q-14-2-17-4.5t-4-9.5v-8.5q0-5.5 1-20.5l32-500 268 575h62l70-571 206 496q12 29 11.5 35t-16.5 8l-51 5 5 27h186l-5-27-52-5q-17-2-22-8.5T904 605zm-65 781l-23-17q-38 39-65 77t-49 84h91q4-42 13.5-73t32.5-71z" glyph-name="Wgrave" horiz-adv-x="921" unicode="Ẁ"/><glyph d="M322 32l54-6-5-26H130l5 26 56 6q13 1 17.5 4.5T216 49l42 243-105 313q-9 27-14 34t-21 9l-51 5 5 27h239l-5-27-52-5q-16-2-17-8.5t8-34.5l88-273 187 273q18 27 20 34t-14 9l-51 5 5 27h188l-5-27-52-5q-16-2-23-8t-27-35L345 291 308 79l1 2q-6-34-4.5-40.5T322 32zm71 732l-19 22q32 35 51.5 66t37.5 73h101q-38-46-78.5-84T393 764z" glyph-name="Yacute" horiz-adv-x="588" unicode="Ý"/><glyph d="M322 32l54-6-5-26H130l5 26 56 6q13 1 17.5 4.5T216 49l42 243-105 313q-9 27-14 34t-21 9l-51 5 5 27h239l-5-27-52-5q-16-2-17-8.5t8-34.5l88-273 187 273q18 27 20 34t-14 9l-51 5 5 27h188l-5-27-52-5q-16-2-23-8t-27-35L345 291 308 79l1 2q-6-34-4.5-40.5T322 32zm37 822q0-25-16-41.5T302 796q-21 0-33.5 12.5T256 841q0 24 16 40.5t41 16.5q21 0 33.5-11.5T359 854zm203 0q0-25-16.5-41.5T504 796q-20 0-33 12.5T458 841q0 24 16 40.5t41 16.5q22 0 34.5-12t12.5-32z" glyph-name="Ydieresis" horiz-adv-x="588" unicode="Ÿ"/><glyph d="M322 32l54-6-5-26H130l5 26 56 6q13 1 17.5 4.5T216 49l42 243-105 313q-9 27-14 34t-21 9l-51 5 5 27h239l-5-27-52-5q-16-2-17-8.5t8-34.5l88-273 187 273q18 27 20 34t-14 9l-51 5 5 27h188l-5-27-52-5q-16-2-23-8t-27-35L345 291 308 79l1 2q-6-34-4.5-40.5T322 32zm206 751l-18-19q-28 25-52.5 49.5T413 863q-33-27-64.5-51.5T284 764l-17 21q46 42 68.5 68.5T389 925h66q15-45 28.5-72t44.5-70z" glyph-name="Ycircumflex" horiz-adv-x="588" unicode="Ŷ"/><glyph d="M322 32l54-6-5-26H130l5 26 56 6q13 1 17.5 4.5T216 49l42 243-105 313q-9 27-14 34t-21 9l-51 5 5 27h239l-5-27-52-5q-16-2-17-8.5t8-34.5l88-273 187 273q18 27 20 34t-14 9l-51 5 5 27h188l-5-27-52-5q-16-2-23-8t-27-35L345 291 308 79l1 2q-6-34-4.5-40.5T322 32zm96 749l-23-17q-38 39-65 77t-49 84h91q4-42 13.5-73t32.5-71z" glyph-name="Ygrave" horiz-adv-x="588" unicode="Ỳ"/><glyph d="M450 163h26L448 0H-4l4 22 447 626H232q-32 0-41.5-3.5T173 622l-48-105H99l29 163h430l-5-22L106 32h238q33 0 41.5 3.5T403 58zm35 766l17-21q-45-42-68-68t-54-71h-66q-15 44-28.5 71T241 910l18 19q31-27 55-51.5t42-47.5q28 24 59.5 48.5T485 929z" glyph-name="Zcaron" horiz-adv-x="531" unicode="Ž"/><glyph d="M450 163h26L448 0H-4l4 22 447 626H232q-32 0-41.5-3.5T173 622l-48-105H99l29 163h430l-5-22L106 32h238q33 0 41.5 3.5T403 58zM345 764l-19 22q32 35 51.5 66t37.5 73h101q-38-46-78.5-84T345 764z" glyph-name="Zacute" horiz-adv-x="531" unicode="Ź"/><glyph d="M450 163h26L448 0H-4l4 22 447 626H232q-32 0-41.5-3.5T173 622l-48-105H99l29 163h430l-5-22L106 32h238q33 0 41.5 3.5T403 58zm-34 691q0-26-17-43.5T355 793q-23 0-36 13t-13 35q0 26 17 43t43 17q23 0 36.5-12.5T416 854z" glyph-name="Zdotaccent" horiz-adv-x="531" unicode="Ż"/><glyph d="M444-5q-39 0-60 23.5T362 86q-30-48-68.5-72T209-10q-86 0-126.5 76.5T64 260l4 22q18 101 81.5 162T298 505q41 0 72.5-16t52.5-47q11 9 24 22t29 31h35l-61-345q-12-67-10.5-94.5T459 28q18 0 34.5 20t29.5 57l35-22q-22-44-50.5-66T444-5zM158 291l-9-57q-17-96 3.5-153T222 24q40 0 77 34.5T370 160l41 236q-18 38-44 56.5T304 471q-57 0-94-45.5T158 291zm163 288l-19 22q32 35 51.5 66t37.5 73h101q-38-46-78.5-84T321 579z" glyph-name="aacute" horiz-adv-x="581" unicode="á"/><glyph d="M444-5q-39 0-60 23.5T362 86q-30-48-68.5-72T209-10q-86 0-126.5 76.5T64 260l4 22q18 101 81.5 162T298 505q41 0 72.5-16t52.5-47q11 9 24 22t29 31h35l-61-345q-12-67-10.5-94.5T459 28q18 0 34.5 20t29.5 57l35-22q-22-44-50.5-66T444-5zM158 291l-9-57q-17-96 3.5-153T222 24q40 0 77 34.5T370 160l41 236q-18 38-44 56.5T304 471q-57 0-94-45.5T158 291zm298 307l-18-19q-28 25-52.5 49.5T341 678q-33-27-64.5-51.5T212 579l-17 21q46 42 68.5 68.5T317 740h66q15-45 28.5-72t44.5-70z" glyph-name="acircumflex" horiz-adv-x="581" unicode="â"/><glyph d="M444-5q-39 0-60 23.5T362 86q-30-48-68.5-72T209-10q-86 0-126.5 76.5T64 260l4 22q18 101 81.5 162T298 505q41 0 72.5-16t52.5-47q11 9 24 22t29 31h35l-61-345q-12-67-10.5-94.5T459 28q18 0 34.5 20t29.5 57l35-22q-22-44-50.5-66T444-5zM158 291l-9-57q-17-96 3.5-153T222 24q40 0 77 34.5T370 160l41 236q-18 38-44 56.5T304 471q-57 0-94-45.5T158 291zm129 378q0-25-16-41.5T230 611q-21 0-33.5 12.5T184 656q0 24 16 40.5t41 16.5q21 0 33.5-11.5T287 669zm203 0q0-25-16.5-41.5T432 611q-20 0-33 12.5T386 656q0 24 16 40.5t41 16.5q22 0 34.5-12t12.5-32z" glyph-name="adieresis" horiz-adv-x="581" unicode="ä"/><glyph d="M444-5q-39 0-60 23.5T362 86q-30-48-68.5-72T209-10q-86 0-126.5 76.5T64 260l4 22q18 101 81.5 162T298 505q41 0 72.5-16t52.5-47q11 9 24 22t29 31h35l-61-345q-12-67-10.5-94.5T459 28q18 0 34.5 20t29.5 57l35-22q-22-44-50.5-66T444-5zM158 291l-9-57q-17-96 3.5-153T222 24q40 0 77 34.5T370 160l41 236q-18 38-44 56.5T304 471q-57 0-94-45.5T158 291zm188 305l-23-17q-38 39-65 77t-49 84h91q4-42 13.5-73t32.5-71z" glyph-name="agrave" horiz-adv-x="581" unicode="à"/><glyph d="M444-5q-39 0-60 23.5T362 86q-30-48-68.5-72T209-10q-86 0-126.5 76.5T64 260l4 22q18 101 81.5 162T298 505q41 0 72.5-16t52.5-47q11 9 24 22t29 31h35l-61-345q-12-67-10.5-94.5T459 28q18 0 34.5 20t29.5 57l35-22q-22-44-50.5-66T444-5zM158 291l-9-57q-17-96 3.5-153T222 24q40 0 77 34.5T370 160l41 236q-18 38-44 56.5T304 471q-57 0-94-45.5T158 291zm192 498q56 0 86.5-34t22.5-82l-2-11q-8-45-43.5-73T328 561q-55 0-85.5 34.5T220 678l2 11q8 45 43 72.5t85 27.5zm-24-202q28 0 46 19.5t24 55.5l5 25q6 37-7 57t-42 20q-27 0-45-19.5T282 688l-4-25q-7-35 6-55.5t42-20.5z" glyph-name="aring" horiz-adv-x="581" unicode="å"/><glyph d="M444-5q-39 0-60 23.5T362 86q-30-48-68.5-72T209-10q-86 0-126.5 76.5T64 260l4 22q18 101 81.5 162T298 505q41 0 72.5-16t52.5-47q11 9 24 22t29 31h35l-61-345q-12-67-10.5-94.5T459 28q18 0 34.5 20t29.5 57l35-22q-22-44-50.5-66T444-5zM158 291l-9-57q-17-96 3.5-153T222 24q40 0 77 34.5T370 160l41 236q-18 38-44 56.5T304 471q-57 0-94-45.5T158 291zm242 298q-20 0-37.5 10T319 640q-21 24-32 31t-22 7q-19 0-33.5-20T208 600h-31q13 69 38 104t61 35q20 0 37.5-10t43.5-41q20-24 30.5-31t21.5-7q18 0 32.5 20t23.5 58h32q-13-69-37.5-104T400 589z" glyph-name="atilde" horiz-adv-x="581" unicode="ã"/><glyph d="M444-5q-39 0-60 23.5T362 86q-30-48-68.5-72T209-10q-86 0-126.5 76.5T64 260l4 22q18 101 81.5 162T298 505q41 0 72.5-16t52.5-47q11 9 24 22t29 31h35l-61-345q-12-67-10.5-94.5T459 28q18 0 34.5 20t29.5 57l35-22q-22-44-50.5-66T444-5zM158 291l-9-57q-17-96 3.5-153T222 24q40 0 77 34.5T370 160l41 236q-18 38-44 56.5T304 471q-57 0-94-45.5T158 291zm175 352q47 0 77.5 23.5T462 742l29-9q-26-80-64.5-117T330 579q-59 0-89.5 38.5T207 733l29 9q6-52 29-75.5t68-23.5z" glyph-name="abreve" horiz-adv-x="581" unicode="ă"/><glyph d="M444-5q-39 0-60 23.5T362 86q-30-48-68.5-72T209-10q-86 0-126.5 76.5T64 260l4 22q18 101 81.5 162T298 505q41 0 72.5-16t52.5-47q11 9 24 22t29 31h35l-61-345q-12-67-10.5-94.5T459 28q18 0 34.5 20t29.5 57l35-22q-22-44-50.5-66T444-5zM158 291l-9-57q-17-96 3.5-153T222 24q40 0 77 34.5T370 160l41 236q-18 38-44 56.5T304 471q-57 0-94-45.5T158 291zm36 375h287l-8-47H186z" glyph-name="amacron" horiz-adv-x="581" unicode="ā"/><glyph d="M472-112l50-13q-23-49-56.5-73.5T386-223q-46 0-74 22t-28 59q0 37 28 67.5T426-4q-30 6-46.5 28.5T362 86q-30-48-68.5-72T209-10q-86 0-126.5 76.5T64 260l4 22q18 101 81.5 162T298 505q41 0 72.5-16t52.5-47q11 9 24 22t29 31h35l-61-345q-12-67-10.5-94.5T459 28q18 0 34.5 20t29.5 57l35-22q-13-30-37-54t-80-58q-58-35-75.5-59T348-143q0-25 10-37.5t31-12.5q27 0 47.5 20.5T472-112zM158 291l-9-57q-17-96 3.5-153T222 24q40 0 77 34.5T370 160l41 236q-18 38-44 56.5T304 471q-57 0-94-45.5T158 291z" glyph-name="aogonek" horiz-adv-x="582" unicode="ą"/><glyph d="M322-133q0-39-33.5-64.5T203-223q-46 0-73 20.5T102-145l51 14q-2-33 8.5-48.5T198-195q26 0 42.5 18t16.5 46q0 24-11.5 34.5T208-86q-1 0-7-1t-17-2l-5 26 32 54Q123-1 82 70.5T61 254l4 22q19 104 86 166.5T311 505q87 0 128.5-54T455 320l-81-16q25 79 7 124t-74 45q-56 0-96-48t-54-136l-10-60q-17-101 6.5-154T237 22q46 0 83 26.5t54 75.5l46-26q-29-50-73-77T245-10l-28-48q48 0 76.5-20.5T322-133z" glyph-name="ccedilla" horiz-adv-x="485" unicode="ç"/><glyph d="M307 473q-56 0-96-48t-54-136l-10-60q-17-101 6.5-154T237 22q46 0 83 26.5t54 75.5l46-26q-31-54-79-81T231-10q-98 0-145 73T61 254l4 22q19 104 86 166.5T311 505q87 0 128.5-54T455 320l-81-16q25 79 7 124t-74 45zm12 106l-19 22q32 35 51.5 66t37.5 73h101q-38-46-78.5-84T319 579z" glyph-name="cacute" horiz-adv-x="485" unicode="ć"/><glyph d="M307 473q-56 0-96-48t-54-136l-10-60q-17-101 6.5-154T237 22q46 0 83 26.5t54 75.5l46-26q-31-54-79-81T231-10q-98 0-145 73T61 254l4 22q19 104 86 166.5T311 505q87 0 128.5-54T455 320l-81-16q25 79 7 124t-74 45zm152 271l17-21q-45-42-68-68t-54-71h-66q-15 44-28.5 71T215 725l18 19q31-27 55-51.5t42-47.5q28 24 59.5 48.5T459 744z" glyph-name="ccaron" horiz-adv-x="485" unicode="č"/><glyph d="M307 473q-56 0-96-48t-54-136l-10-60q-17-101 6.5-154T237 22q46 0 83 26.5t54 75.5l46-26q-31-54-79-81T231-10q-98 0-145 73T61 254l4 22q19 104 86 166.5T311 505q87 0 128.5-54T455 320l-81-16q25 79 7 124t-74 45zm147 125l-18-19q-28 25-52.5 49.5T339 678q-33-27-64.5-51.5T210 579l-17 21q46 42 68.5 68.5T315 740h66q15-45 28.5-72t44.5-70z" glyph-name="ccircumflex" horiz-adv-x="485" unicode="ĉ"/><glyph d="M307 473q-56 0-96-48t-54-136l-10-60q-17-101 6.5-154T237 22q46 0 83 26.5t54 75.5l46-26q-31-54-79-81T231-10q-98 0-145 73T61 254l4 22q19 104 86 166.5T311 505q87 0 128.5-54T455 320l-81-16q25 79 7 124t-74 45zm83 196q0-26-17-43.5T329 608q-23 0-36 13t-13 35q0 26 17 43t43 17q23 0 36.5-12.5T390 669z" glyph-name="cdotaccent" horiz-adv-x="485" unicode="ċ"/><glyph d="M448-5q-39 0-60 25t-22 72q-32-51-70.5-76.5T210-10q-86 0-127 76.5T64 260l4 22q18 101 82 162t149 61q40 0 71.5-15t53.5-44l37 213q6 33 4.5 40t-17.5 9l-54 5 4 27h160L454 150q-12-67-10.5-94.5T463 28q18 0 34.5 20t28.5 57l36-22q-22-44-50.5-66T448-5zM158 291l-9-57q-17-97 3.5-153.5T223 24q40 0 78.5 36.5T375 168l40 227q-18 39-45 57.5T305 471q-58 0-95-45.5T158 291zm463 235h-21l37 214h82q-24-59-47.5-110.5T621 526z" glyph-name="dcaron" horiz-adv-x="665" unicode="ď"/><glyph d="M448-5q-39 0-60 25t-22 72q-32-51-70.5-76.5T210-10q-86 0-127 76.5T64 260l4 22q18 101 82 162t149 61q40 0 71.5-15t53.5-44l25 142H297l5 32h152l7 39q6 33 4.5 40t-17.5 9l-54 5 4 27h160l-21-120h77l-5-32h-78l-77-438q-12-67-10.5-94.5T463 28q18 0 34.5 20t28.5 57l36-22q-22-44-50.5-66T448-5zM158 291l-9-57q-17-97 3.5-153.5T223 24q40 0 78.5 36.5T375 168l40 227q-18 39-45 57.5T305 471q-58 0-95-45.5T158 291z" glyph-name="dcroat" horiz-adv-x="585" unicode="đ"/><glyph d="M388 123l47-25q-30-53-80-80.5T242-10Q138-10 88.5 62.5T61 254l4 22q18 104 86.5 166.5T317 505q70 0 113.5-34t43.5-86q0-71-73.5-115.5T196 216l-52-4q-13-93 12.5-141.5T245 22q48 0 87 26.5t56 74.5zm-74 350q-60 0-101.5-48T156 289l-7-45 46 3q100 6 152 43t52 99q0 39-22.5 61.5T314 473zm9 106l-19 22q32 35 51.5 66t37.5 73h101q-38-46-78.5-84T323 579z" glyph-name="eacute" horiz-adv-x="502" unicode="é"/><glyph d="M388 123l47-25q-30-53-80-80.5T242-10Q138-10 88.5 62.5T61 254l4 22q18 104 86.5 166.5T317 505q70 0 113.5-34t43.5-86q0-71-73.5-115.5T196 216l-52-4q-13-93 12.5-141.5T245 22q48 0 87 26.5t56 74.5zm-74 350q-60 0-101.5-48T156 289l-7-45 46 3q100 6 152 43t52 99q0 39-22.5 61.5T314 473zm145 125l-18-19q-28 25-52.5 49.5T344 678q-33-27-64.5-51.5T215 579l-17 21q46 42 68.5 68.5T320 740h66q15-45 28.5-72t44.5-70z" glyph-name="ecircumflex" horiz-adv-x="502" unicode="ê"/><glyph d="M388 123l47-25q-30-53-80-80.5T242-10Q138-10 88.5 62.5T61 254l4 22q18 104 86.5 166.5T317 505q70 0 113.5-34t43.5-86q0-71-73.5-115.5T196 216l-52-4q-13-93 12.5-141.5T245 22q48 0 87 26.5t56 74.5zm-74 350q-60 0-101.5-48T156 289l-7-45 46 3q100 6 152 43t52 99q0 39-22.5 61.5T314 473zm-25 196q0-25-16-41.5T232 611q-21 0-33.5 12.5T186 656q0 24 16 40.5t41 16.5q21 0 33.5-11.5T289 669zm203 0q0-25-16.5-41.5T434 611q-20 0-33 12.5T388 656q0 24 16 40.5t41 16.5q22 0 34.5-12t12.5-32z" glyph-name="edieresis" horiz-adv-x="502" unicode="ë"/><glyph d="M388 123l47-25q-30-53-80-80.5T242-10Q138-10 88.5 62.5T61 254l4 22q18 104 86.5 166.5T317 505q70 0 113.5-34t43.5-86q0-71-73.5-115.5T196 216l-52-4q-13-93 12.5-141.5T245 22q48 0 87 26.5t56 74.5zm-74 350q-60 0-101.5-48T156 289l-7-45 46 3q100 6 152 43t52 99q0 39-22.5 61.5T314 473zm34 123l-23-17q-38 39-65 77t-49 84h91q4-42 13.5-73t32.5-71z" glyph-name="egrave" horiz-adv-x="502" unicode="è"/><glyph d="M388 123l47-25q-30-53-80-80.5T242-10Q138-10 88.5 62.5T61 254l4 22q18 104 86.5 166.5T317 505q70 0 113.5-34t43.5-86q0-71-73.5-115.5T196 216l-52-4q-13-93 12.5-141.5T245 22q48 0 87 26.5t56 74.5zm-74 350q-60 0-101.5-48T156 289l-7-45 46 3q100 6 152 43t52 99q0 39-22.5 61.5T314 473zm21 170q47 0 77.5 23.5T464 742l29-9q-26-80-64.5-117T332 579q-59 0-89.5 38.5T209 733l29 9q6-52 29-75.5t68-23.5z" glyph-name="ebreve" horiz-adv-x="502" unicode="ĕ"/><glyph d="M388 123l47-25q-30-53-80-80.5T242-10Q138-10 88.5 62.5T61 254l4 22q18 104 86.5 166.5T317 505q70 0 113.5-34t43.5-86q0-71-73.5-115.5T196 216l-52-4q-13-93 12.5-141.5T245 22q48 0 87 26.5t56 74.5zm-74 350q-60 0-101.5-48T156 289l-7-45 46 3q100 6 152 43t52 99q0 39-22.5 61.5T314 473zm149 271l17-21q-45-42-68-68t-54-71h-66q-15 44-28.5 71T219 725l18 19q31-27 55-51.5t42-47.5q28 24 59.5 48.5T463 744z" glyph-name="ecaron" horiz-adv-x="502" unicode="ě"/><glyph d="M388 123l47-25q-30-53-80-80.5T242-10Q138-10 88.5 62.5T61 254l4 22q18 104 86.5 166.5T317 505q70 0 113.5-34t43.5-86q0-71-73.5-115.5T196 216l-52-4q-13-93 12.5-141.5T245 22q48 0 87 26.5t56 74.5zm-74 350q-60 0-101.5-48T156 289l-7-45 46 3q100 6 152 43t52 99q0 39-22.5 61.5T314 473zm80 196q0-26-17-43.5T333 608q-23 0-36 13t-13 35q0 26 17 43t43 17q23 0 36.5-12.5T394 669z" glyph-name="edotaccent" horiz-adv-x="502" unicode="ė"/><glyph d="M388 123l47-25q-30-53-80-80.5T242-10Q138-10 88.5 62.5T61 254l4 22q18 104 86.5 166.5T317 505q70 0 113.5-34t43.5-86q0-71-73.5-115.5T196 216l-52-4q-13-93 12.5-141.5T245 22q48 0 87 26.5t56 74.5zm-74 350q-60 0-101.5-48T156 289l-7-45 46 3q100 6 152 43t52 99q0 39-22.5 61.5T314 473zM196 666h287l-8-47H188z" glyph-name="emacron" horiz-adv-x="502" unicode="ē"/><glyph d="M343-112l50-13q-22-49-55.5-73.5T259-223q-48 0-76 22.5T155-138q0 35 22.5 63T271-8q-14-1-19-1.5t-10-.5Q138-10 88.5 62.5T61 254l4 22q18 104 86.5 166.5T317 505q70 0 113.5-34t43.5-86q0-71-73.5-115.5T196 216l-52-4q-13-93 12.5-141.5T245 22q49 0 87.5 26.5T388 123l47-25q-14-25-36.5-47T323-7q-65-44-84.5-72T219-141q0-26 10-39t31-13q27 0 47.5 20t35.5 61zm-29 585q-60 0-101.5-48T156 289l-7-45 46 3q100 6 152 43t52 99q0 39-22.5 61.5T314 473z" glyph-name="eogonek" horiz-adv-x="502" unicode="ę"/><glyph d="M514 495L428 9q-20-110-85.5-171T175-223q-75 0-114.5 40.5T26-72l57 12q-7-66 16-99.5t76-33.5q69 0 110.5 47T345-1l14 76q-30-43-67.5-64T210-10q-86 0-127 76.5T64 260l4 22q18 101 82 162t149 61q41 0 73.5-16t54.5-47q14 12 27 25.5t25 27.5zM158 291l-9-57q-17-97 3.5-153.5T223 24q41 0 79 34.5T374 160l41 234q-17 39-44.5 58T305 471q-58 0-95-45.5T158 291zm178 352q47 0 77.5 23.5T465 742l29-9q-26-80-64.5-117T333 579q-59 0-89.5 38.5T210 733l29 9q6-52 29-75.5t68-23.5z" glyph-name="gbreve" horiz-adv-x="564" unicode="ğ"/><glyph d="M514 495L428 9q-20-110-85.5-171T175-223q-75 0-114.5 40.5T26-72l57 12q-7-66 16-99.5t76-33.5q69 0 110.5 47T345-1l14 76q-30-43-67.5-64T210-10q-86 0-127 76.5T64 260l4 22q18 101 82 162t149 61q41 0 73.5-16t54.5-47q14 12 27 25.5t25 27.5zM158 291l-9-57q-17-97 3.5-153.5T223 24q41 0 79 34.5T374 160l41 234q-17 39-44.5 58T305 471q-58 0-95-45.5T158 291zm301 307l-18-19q-28 25-52.5 49.5T344 678q-33-27-64.5-51.5T215 579l-17 21q46 42 68.5 68.5T320 740h66q15-45 28.5-72t44.5-70z" glyph-name="gcircumflex" horiz-adv-x="564" unicode="ĝ"/><glyph d="M514 495L428 9q-20-110-85.5-171T175-223q-75 0-114.5 40.5T26-72l57 12q-7-66 16-99.5t76-33.5q69 0 110.5 47T345-1l14 76q-30-43-67.5-64T210-10q-86 0-127 76.5T64 260l4 22q18 101 82 162t149 61q41 0 73.5-16t54.5-47q14 12 27 25.5t25 27.5zM158 291l-9-57q-17-97 3.5-153.5T223 24q41 0 79 34.5T374 160l41 234q-17 39-44.5 58T305 471q-58 0-95-45.5T158 291zm254 458l19-16q-24-36-38-70.5T369 584h-89q25 48 55.5 86t76.5 79z" glyph-name="gcommaaccent" horiz-adv-x="564" unicode="ģ"/><glyph d="M514 495L428 9q-20-110-85.5-171T175-223q-75 0-114.5 40.5T26-72l57 12q-7-66 16-99.5t76-33.5q69 0 110.5 47T345-1l14 76q-30-43-67.5-64T210-10q-86 0-127 76.5T64 260l4 22q18 101 82 162t149 61q41 0 73.5-16t54.5-47q14 12 27 25.5t25 27.5zM158 291l-9-57q-17-97 3.5-153.5T223 24q41 0 79 34.5T374 160l41 234q-17 39-44.5 58T305 471q-58 0-95-45.5T158 291zm236 378q0-26-17-43.5T333 608q-23 0-36 13t-13 35q0 26 17 43t43 17q23 0 36.5-12.5T394 669z" glyph-name="gdotaccent" horiz-adv-x="564" unicode="ġ"/><glyph d="M553 105l35-22q-22-44-50.5-66T472-5q-49 0-69 34t-7 98l39 196q15 70 0 107t-57 37q-47 0-94-38.5T195 316L139 0H57l104 588H83l6 32h77l7 39q6 33 4.5 40t-17.5 9l-55 5 5 27h159l-21-120h153l-6-32H242l-34-195q41 56 88.5 84t99.5 28q73 0 106-49.5T518 324l-41-200q-12-57-9-76.5T488 28q19 0 36 20t29 57z" glyph-name="hbar" horiz-adv-x="611" unicode="ħ"/><glyph d="M553 105l35-22q-22-44-50.5-66T472-5q-49 0-69 34t-7 98l39 196q15 70 0 107t-57 37q-47 0-94-38.5T195 316L139 0H57l116 659q6 33 4.5 40t-17.5 9l-55 5 5 27h159l-61-347q41 56 88.5 84t99.5 28q73 0 106-49.5T518 324l-41-200q-12-57-9-76.5T488 28q19 0 36 20t29 57zm-83 715l-18-19q-28 25-52.5 49.5T355 900q-33-27-64.5-51.5T226 801l-17 21q46 42 68.5 68.5T331 962h66q15-45 28.5-72t44.5-70z" glyph-name="hcircumflex" horiz-adv-x="611" unicode="ĥ"/><glyph d="M120 463l-54 5 5 27h159l-60-345q-12-67-10.5-94.5T179 28q18 0 34.5 20t28.5 57l36-22q-21-43-50-65.5T164-5q-49 0-69.5 38T86 142l48 272q6 31 4 39t-18 10zm63 116l-19 22q32 35 51.5 66t37.5 73h101q-38-46-78.5-84T183 579z" glyph-name="iacute" horiz-adv-x="300" unicode="í"/><glyph d="M120 463l-54 5 5 27h159l-60-345q-12-67-10.5-94.5T179 28q18 0 34.5 20t28.5 57l36-22q-21-43-50-65.5T164-5q-49 0-69.5 38T86 142l48 272q6 31 4 39t-18 10zm198 135l-18-19q-28 25-52.5 49.5T203 678q-33-27-64.5-51.5T74 579l-17 21q46 42 68.5 68.5T179 740h66q15-45 28.5-72t44.5-70z" glyph-name="icircumflex" horiz-adv-x="300" unicode="î"/><glyph d="M120 463l-54 5 5 27h159l-60-345q-12-67-10.5-94.5T179 28q18 0 34.5 20t28.5 57l36-22q-21-43-50-65.5T164-5q-49 0-69.5 38T86 142l48 272q6 31 4 39t-18 10zm29 206q0-25-16-41.5T92 611q-21 0-33.5 12.5T46 656q0 24 16 40.5t41 16.5q21 0 33.5-11.5T149 669zm203 0q0-25-16.5-41.5T294 611q-20 0-33 12.5T248 656q0 24 16 40.5t41 16.5q22 0 34.5-12t12.5-32z" glyph-name="idieresis" horiz-adv-x="300" unicode="ï"/><glyph d="M120 463l-54 5 5 27h159l-60-345q-12-67-10.5-94.5T179 28q18 0 34.5 20t28.5 57l36-22q-21-43-50-65.5T164-5q-49 0-69.5 38T86 142l48 272q6 31 4 39t-18 10zm88 133l-23-17q-38 39-65 77t-49 84h91q4-42 13.5-73t32.5-71z" glyph-name="igrave" horiz-adv-x="300" unicode="ì"/><glyph d="M120 463l-54 5 5 27h159l-60-345q-12-67-10.5-94.5T179 28q18 0 34.5 20t28.5 57l36-22q-21-43-50-65.5T164-5q-49 0-69.5 38T86 142l48 272q6 31 4 39t-18 10zm75 180q47 0 77.5 23.5T324 742l29-9q-26-80-64.5-117T192 579q-59 0-89.5 38.5T69 733l29 9q6-52 29-75.5t68-23.5z" glyph-name="ibreve" horiz-adv-x="300" unicode="ĭ"/><glyph d="M273 669q0-26-17-43.5T212 608q-23 0-36 12.5T163 656q0 26 17 43t43 17q23 0 36.5-12.5T273 669zM120 463l-54 5 5 27h159l-60-345q-12-67-10.5-94.5T179 28q18 0 34.5 20t28.5 57l36-22q-21-43-50-65.5T164-5q-49 0-69.5 38T86 142l47 272q6 33 4.5 40t-17.5 9z" glyph-name="i.dot" horiz-adv-x="300"/><glyph d="M120 463l-54 5 5 27h159l-60-345q-12-67-10.5-94.5T179 28q18 0 34.5 20t28.5 57l36-22q-21-43-50-65.5T164-5q-49 0-69.5 38T86 142l48 272q6 31 4 39t-18 10zM56 666h287l-8-47H48z" glyph-name="imacron" horiz-adv-x="300" unicode="ī"/><glyph d="M266 669q0-26-17-43.5T205 608q-23 0-36.5 13T155 656q0 25 17.5 42.5T216 716q23 0 36.5-12.5T266 669zM113 463l-54 5 5 27h159l-61-345q-12-67-10-94.5T172 28q17 0 34 20.5t29 56.5l35-22q-12-27-33-49t-69-54q-55-36-71.5-62T80-143q0-25 10.5-37.5T122-193q27 0 47.5 20.5T205-112l50-13q-23-49-56.5-73.5T118-223q-46 0-74 22t-28 59q0 37 25 67.5T142-3q-42 5-58 42.5T79 142l47 272q6 33 4.5 40t-17.5 9z" glyph-name="iogonek" horiz-adv-x="293" unicode="į"/><glyph d="M120 463l-54 5 5 27h159l-60-345q-12-67-10.5-94.5T179 28q18 0 34.5 20t28.5 57l36-22q-21-43-50-65.5T164-5q-49 0-69.5 38T86 142l48 272q6 31 4 39t-18 10zm142 126q-20 0-37.5 10T181 640q-21 24-32 31t-22 7q-19 0-33.5-20T70 600H39q13 69 38 104t61 35q20 0 37.5-10t43.5-41q20-24 30.5-31t21.5-7q18 0 32.5 20t23.5 58h32q-13-69-37.5-104T262 589z" glyph-name="itilde" horiz-adv-x="300" unicode="ĩ"/><glyph d="M122 463l-54 5 4 27h159L135-52q-15-83-60-127t-116-44q-55 0-85 31t-26 85l57 16q-3-50 9.5-75t41.5-25q40 0 62 30.5T52-60l83 474q6 33 4.5 40t-17.5 9zm200 135l-18-19q-28 25-52.5 49.5T207 678q-33-27-64.5-51.5T78 579l-17 21q46 42 68.5 68.5T183 740h66q15-45 28.5-72t44.5-70z" glyph-name="jcircumflex" horiz-adv-x="284" unicode="ĵ"/><glyph d="M273 669q0-26-17-43.5T212 608q-23 0-36 12.5T163 656q0 26 17 43t43 17q23 0 36.5-12.5T273 669zM120 463l-54 5 5 27h159l-60-345q-12-67-10.5-94.5T179 28q18 0 34.5 20t28.5 57l36-22q-21-43-50-65.5T164-5q-49 0-69.5 38T86 142l47 272q6 33 4.5 40t-17.5 9zm454 203q-2-25-20-41.5T511 608q-23 0-36 14t-11 37q2 25 19.5 41t42.5 16q24 0 37-13.5t11-36.5zM421 463l-54 5 4 27h159L434-52q-15-83-60-127t-116-44q-55 0-85 31t-26 85l57 16q-3-50 9.5-75t41.5-25q40 0 62 30.5T351-60l83 474q6 33 4.5 40t-17.5 9z" glyph-name="ij" horiz-adv-x="588" unicode="ĳ"/><glyph d="M501 0H357L245 260l-81-72L131 0H50l116 659q6 33 4.5 40t-17.5 9l-54 5 4 27h159l-88-499 120 112q91 83 129.5 109.5T507 505l16-85q-63-13-116.5-38.5T307 316L415 75q12-27 18-34t22-9l51-6zM156-242l-18 16q24 36 38 70.5T200-77h88q-25-48-55.5-86T156-242z" glyph-name="kcommaaccent" horiz-adv-x="521" unicode="ķ"/><glyph d="M514 0H370L258 260l-81-73L143 0H63l73 414q6 33 4 40t-18 9l-53 5 4 27h159l-46-254 121 112q87 81 126.5 108t86.5 44l15-85q-63-13-116.5-38.5T319 316L427 75q13-29 18.5-35t22.5-8l50-6z" glyph-name="kgreenlandic" horiz-adv-x="533" unicode="ĸ"/><glyph d="M153 708l-54 5 4 27h159L159 150q-12-67-10-94.5T169 28q17 0 34 20.5t29 56.5l35-22q-22-44-50-66T154-5q-50 0-70 38t-8 109l90 517q6 33 4.5 40t-17.5 9zm72 93l-19 22q32 35 51.5 66t37.5 73h101q-38-46-78.5-84T225 801z" glyph-name="lacute" horiz-adv-x="291" unicode="ĺ"/><glyph d="M153 708l-54 5 4 27h159L159 150q-12-67-10-94.5T169 28q17 0 34 20.5t29 56.5l35-22q-22-44-50-66T154-5q-50 0-70 38t-8 109l90 517q6 33 4.5 40t-17.5 9zm167-182h-21l37 214h82q-24-59-47.5-110.5T320 526z" glyph-name="lcaron" horiz-adv-x="364" unicode="ľ"/><glyph d="M153 708l-54 5 4 27h159L159 150q-12-67-10-94.5T169 28q17 0 34 20.5t29 56.5l35-22q-22-44-50-66T154-5q-50 0-70 38t-8 109l90 517q6 33 4.5 40t-17.5 9zM30-242l-18 16q24 36 38 70.5T74-77h88q-25-48-55.5-86T30-242z" glyph-name="lcommaaccent" horiz-adv-x="293" unicode="ļ"/><glyph d="M153 708l-54 5 4 27h159L159 150q-12-67-10-94.5T169 28q17 0 34 20.5t29 56.5l35-22q-22-44-50-66T154-5q-50 0-70 38t-8 109l90 517q6 33 4.5 40t-17.5 9zm216-317q0-26-17-43.5T308 330q-23 0-36 13t-13 35q0 26 17 43t43 17q23 0 36.5-12.5T369 391z" glyph-name="ldot" horiz-adv-x="309" unicode="ŀ"/><glyph d="M558 105l36-22q-22-44-50.5-66T478-5q-49 0-69.5 34t-7.5 98l40 196q14 71-1 107.5T383 467q-47 0-93.5-38.5T200 316L145 0H63l72 414q6 33 4.5 40t-17.5 9l-54 5 5 27h156l-18-106q41 58 89 87t101 29q73 0 106-49t16-132l-41-200q-11-56-8.5-76T493 28q19 0 36 20t29 57zM451 589q-20 0-37.5 10T370 640q-21 24-32 31t-22 7q-19 0-33.5-20T259 600h-31q13 69 38 104t61 35q20 0 37.5-10t43.5-41q20-24 30.5-31t21.5-7q18 0 32.5 20t23.5 58h32q-13-69-37.5-104T451 589z" glyph-name="ntilde" horiz-adv-x="617" unicode="ñ"/><glyph d="M558 105l36-22q-22-44-50.5-66T478-5q-49 0-69.5 34t-7.5 98l40 196q14 71-1 107.5T383 467q-47 0-93.5-38.5T200 316L145 0H63l72 414q6 33 4.5 40t-17.5 9l-54 5 5 27h156l-18-106q41 58 89 87t101 29q73 0 106-49t16-132l-41-200q-11-56-8.5-76T493 28q19 0 36 20t29 57zM372 579l-19 22q32 35 51.5 66t37.5 73h101q-38-46-78.5-84T372 579z" glyph-name="nacute" horiz-adv-x="617" unicode="ń"/><glyph d="M558 105l36-22q-22-44-50.5-66T478-5q-49 0-69.5 34t-7.5 98l40 196q14 71-1 107.5T383 467q-47 0-93.5-38.5T200 316L145 0H63l72 414q6 33 4.5 40t-17.5 9l-54 5 5 27h156l-18-106q41 58 89 87t101 29q73 0 106-49t16-132l-41-200q-11-56-8.5-76T493 28q19 0 36 20t29 57zm-46 639l17-21q-45-42-68-68t-54-71h-66q-15 44-28.5 71T268 725l18 19q31-27 55-51.5t42-47.5q28 24 59.5 48.5T512 744z" glyph-name="ncaron" horiz-adv-x="617" unicode="ň"/><glyph d="M558 105l36-22q-22-44-50.5-66T478-5q-49 0-69.5 34t-7.5 98l40 196q14 71-1 107.5T383 467q-47 0-93.5-38.5T200 316L145 0H63l72 414q6 33 4.5 40t-17.5 9l-54 5 5 27h156l-18-106q41 58 89 87t101 29q73 0 106-49t16-132l-41-200q-11-56-8.5-76T493 28q19 0 36 20t29 57zM177-242l-18 16q24 36 38 70.5T221-77h88q-25-48-55.5-86T177-242z" glyph-name="ncommaaccent" horiz-adv-x="617" unicode="ņ"/><glyph d="M520 324L453-52q-15-83-60-127t-116-44q-59 0-89 30.5T165-107l57 16q-5-50 7.5-75t44.5-25q39 0 61.5 30.5T370-60l68 383q12 72-2.5 108T380 467q-47 0-93.5-38.5T197 316L141 0H59l73 414q6 33 4.5 40t-17.5 9l-54 5 5 27h156l-19-108q41 59 89 88.5T398 505q72 0 104.5-48.5T520 324z" glyph-name="eng" horiz-adv-x="596" unicode="ŋ"/><glyph d="M657 105l36-22q-22-44-50.5-66T577-5q-49 0-69.5 34t-7.5 98l40 196q14 71-1 107.5T482 467q-47 0-93.5-38.5T299 316L244 0h-82l72 414q6 33 4.5 40t-17.5 9l-54 5 5 27h156l-18-106q41 58 89 87t101 29q73 0 106-49t16-132l-41-200q-11-56-8.5-76T592 28q19 0 36 20t29 57zM105 690q22 0 35.5-15t13.5-40q0-41-32.5-93T27 431L8 451q36 37 57 70t29 64q-21 1-32.5 13T50 631q0 26 15.5 42.5T105 690z" glyph-name="napostrophe" horiz-adv-x="717" unicode="ŉ"/><glyph d="M310 505q101 0 152-74.5T492 242l-4-22q-20-110-84-170T241-10Q140-10 90.5 64T61 252l4 23q20 110 83.5 170T310 505zm85-298l11 61q17 99-8.5 152.5T308 474q-59 0-97-46.5T157 288l-10-61q-17-99 8-153t89-54q59 0 97 47t54 140zm-65 372l-19 22q32 35 51.5 66t37.5 73h101q-38-46-78.5-84T330 579z" glyph-name="oacute" horiz-adv-x="554" unicode="ó"/><glyph d="M310 505q101 0 152-74.5T492 242l-4-22q-20-110-84-170T241-10Q140-10 90.5 64T61 252l4 23q20 110 83.5 170T310 505zm85-298l11 61q17 99-8.5 152.5T308 474q-59 0-97-46.5T157 288l-10-61q-17-99 8-153t89-54q59 0 97 47t54 140zm70 391l-18-19q-28 25-52.5 49.5T350 678q-33-27-64.5-51.5T221 579l-17 21q46 42 68.5 68.5T326 740h66q15-45 28.5-72t44.5-70z" glyph-name="ocircumflex" horiz-adv-x="554" unicode="ô"/><glyph d="M310 505q101 0 152-74.5T492 242l-4-22q-20-110-84-170T241-10Q140-10 90.5 64T61 252l4 23q20 110 83.5 170T310 505zm85-298l11 61q17 99-8.5 152.5T308 474q-59 0-97-46.5T157 288l-10-61q-17-99 8-153t89-54q59 0 97 47t54 140zm-99 462q0-25-16-41.5T239 611q-21 0-33.5 12.5T193 656q0 24 16 40.5t41 16.5q21 0 33.5-11.5T296 669zm203 0q0-25-16.5-41.5T441 611q-20 0-33 12.5T395 656q0 24 16 40.5t41 16.5q22 0 34.5-12t12.5-32z" glyph-name="odieresis" horiz-adv-x="554" unicode="ö"/><glyph d="M310 505q101 0 152-74.5T492 242l-4-22q-20-110-84-170T241-10Q140-10 90.5 64T61 252l4 23q20 110 83.5 170T310 505zm85-298l11 61q17 99-8.5 152.5T308 474q-59 0-97-46.5T157 288l-10-61q-17-99 8-153t89-54q59 0 97 47t54 140zm-40 389l-23-17q-38 39-65 77t-49 84h91q4-42 13.5-73t32.5-71z" glyph-name="ograve" horiz-adv-x="554" unicode="ò"/><glyph d="M310 505q101 0 152-74.5T492 242l-4-22q-20-110-84-170T241-10Q140-10 90.5 64T61 252l4 23q20 110 83.5 170T310 505zm85-298l11 61q17 99-8.5 152.5T308 474q-59 0-97-46.5T157 288l-10-61q-17-99 8-153t89-54q59 0 97 47t54 140zm14 382q-20 0-37.5 10T328 640q-21 24-32 31t-22 7q-19 0-33.5-20T217 600h-31q13 69 38 104t61 35q20 0 37.5-10t43.5-41q20-24 30.5-31t21.5-7q18 0 32.5 20t23.5 58h32q-13-69-37.5-104T409 589z" glyph-name="otilde" horiz-adv-x="554" unicode="õ"/><glyph d="M310 505q101 0 152-74.5T492 242l-4-22q-20-110-84-170T241-10Q140-10 90.5 64T61 252l4 23q20 110 83.5 170T310 505zm85-298l11 61q17 99-8.5 152.5T308 474q-59 0-97-46.5T157 288l-10-61q-17-99 8-153t89-54q59 0 97 47t54 140zm-53 436q47 0 77.5 23.5T471 742l29-9q-26-80-64.5-117T339 579q-59 0-89.5 38.5T216 733l29 9q6-52 29-75.5t68-23.5z" glyph-name="obreve" horiz-adv-x="554" unicode="ŏ"/><glyph d="M310 505q101 0 152-74.5T492 242l-4-22q-20-110-84-170T241-10Q140-10 90.5 64T61 252l4 23q20 110 83.5 170T310 505zm85-298l11 61q17 99-8.5 152.5T308 474q-59 0-97-46.5T157 288l-10-61q-17-99 8-153t89-54q59 0 97 47t54 140zM259 579l-19 17q22 30 39.5 63.5T314 740h91q-31-43-68-84t-78-77zm140 0l-19 17q22 29 39.5 62.5T455 740h91q-32-44-69-84.5T399 579z" glyph-name="ohungarumlaut" horiz-adv-x="554" unicode="ő"/><glyph d="M310 505q101 0 152-74.5T492 242l-4-22q-20-110-84-170T241-10Q140-10 90.5 64T61 252l4 23q20 110 83.5 170T310 505zm85-298l11 61q17 99-8.5 152.5T308 474q-59 0-97-46.5T157 288l-10-61q-17-99 8-153t89-54q59 0 97 47t54 140zM203 666h287l-8-47H195z" glyph-name="omacron" horiz-adv-x="554" unicode="ō"/><glyph d="M332 450q-33 0-65.5-33T201 316L145 0H63l73 414q6 33 4.5 40t-17.5 9l-55 5 5 27h157l-18-104q36 56 76.5 85t83.5 29q35 0 58.5-20t33.5-57l-70-47q-8 36-23 52.5T332 450zm-25 129l-19 22q32 35 51.5 66t37.5 73h101q-38-46-78.5-84T307 579z" glyph-name="racute" horiz-adv-x="428" unicode="ŕ"/><glyph d="M332 450q-33 0-65.5-33T201 316L145 0H63l73 414q6 33 4.5 40t-17.5 9l-55 5 5 27h157l-18-104q36 56 76.5 85t83.5 29q35 0 58.5-20t33.5-57l-70-47q-8 36-23 52.5T332 450zm117 294l17-21q-45-42-68-68t-54-71h-66q-15 44-28.5 71T205 725l18 19q31-27 55-51.5t42-47.5q28 24 59.5 48.5T449 744z" glyph-name="rcaron" horiz-adv-x="428" unicode="ř"/><glyph d="M332 450q-33 0-65.5-33T201 316L145 0H63l73 414q6 33 4.5 40t-17.5 9l-55 5 5 27h157l-18-104q36 56 76.5 85t83.5 29q35 0 58.5-20t33.5-57l-70-47q-8 36-23 52.5T332 450zM4-242l-18 16q24 36 38 70.5T48-77h88q-25-48-55.5-86T4-242z" glyph-name="rcommaaccent" horiz-adv-x="428" unicode="ŗ"/><glyph d="M390 141q0-68-52.5-109.5T193-10q-78 0-122 32t-48 92l58 20q-1-57 26.5-85T192 21q58 0 92.5 25.5T319 115q0 32-21 54t-66 36l-58 19q-48 15-74.5 48T73 351q0 68 49 111t134 43q90 0 133-46.5T409 346l-82-16q24 68 4 105.5T251 473q-48 0-77-24.5T145 382q0-33 18-54.5t56-32.5l58-19q55-18 84-52.5t29-82.5zm21 603l17-21q-45-42-68-68t-54-71h-66q-15 44-28.5 71T167 725l18 19q31-27 55-51.5t42-47.5q28 24 59.5 48.5T411 744z" glyph-name="scaron" horiz-adv-x="458" unicode="š"/><glyph d="M390 141q0-68-52.5-109.5T193-10q-78 0-122 32t-48 92l58 20q-1-57 26.5-85T192 21q58 0 92.5 25.5T319 115q0 32-21 54t-66 36l-58 19q-48 15-74.5 48T73 351q0 68 49 111t134 43q90 0 133-46.5T409 346l-82-16q24 68 4 105.5T251 473q-48 0-77-24.5T145 382q0-33 18-54.5t56-32.5l58-19q55-18 84-52.5t29-82.5zM271 579l-19 22q32 35 51.5 66t37.5 73h101q-38-46-78.5-84T271 579z" glyph-name="sacute" horiz-adv-x="458" unicode="ś"/><glyph d="M274-133q0-39-33.5-64.5T155-223q-46 0-73 20.5T54-145l51 14q-2-33 8.5-48.5T150-195q26 0 42.5 18t16.5 46q0 24-11.5 34.5T160-86q-1 0-7-1t-17-2l-5 26 32 54Q98-3 62 28.5T23 114l58 20q-1-57 26.5-85T192 21q58 0 92.5 25.5T319 115q0 32-21 54t-66 36l-58 19q-48 15-74.5 48T73 351q0 68 49 111t134 43q90 0 133-46.5T409 346l-82-16q24 68 4 105.5T251 473q-48 0-77-24.5T145 382q0-33 18-54.5t56-32.5l58-19q55-18 84-52.5t29-82.5q0-67-52-109T197-10l-28-48q48 0 76.5-20.5T274-133z" glyph-name="scedilla" horiz-adv-x="458" unicode="ş"/><glyph d="M390 141q0-68-52.5-109.5T193-10q-78 0-122 32t-48 92l58 20q-1-57 26.5-85T192 21q58 0 92.5 25.5T319 115q0 32-21 54t-66 36l-58 19q-48 15-74.5 48T73 351q0 68 49 111t134 43q90 0 133-46.5T409 346l-82-16q24 68 4 105.5T251 473q-48 0-77-24.5T145 382q0-33 18-54.5t56-32.5l58-19q55-18 84-52.5t29-82.5zm16 457l-18-19q-28 25-52.5 49.5T291 678q-33-27-64.5-51.5T162 579l-17 21q46 42 68.5 68.5T267 740h66q15-45 28.5-72t44.5-70z" glyph-name="scircumflex" horiz-adv-x="458" unicode="ŝ"/><glyph d="M390 141q0-68-52.5-109.5T193-10q-78 0-122 32t-48 92l58 20q-1-57 26.5-85T192 21q58 0 92.5 25.5T319 115q0 32-21 54t-66 36l-58 19q-48 15-74.5 48T73 351q0 68 49 111t134 43q90 0 133-46.5T409 346l-82-16q24 68 4 105.5T251 473q-48 0-77-24.5T145 382q0-33 18-54.5t56-32.5l58-19q55-18 84-52.5t29-82.5zM90-242l-18 16q24 36 38 70.5T134-77h88q-25-48-55.5-86T90-242z" glyph-name="uni0219" horiz-adv-x="458" unicode="ș"/><glyph d="M292 121l49-19q-24-57-58-84.5T203-10q-70 0-100 45.5T88 165l19 109H30l5 32h77l19 109q6 32 4 39t-18 9l-54 5 5 27h77l23 131 85 17-26-148h163l-6-32H221l-28-157h135l-5-32H188l-23-129q-11-62-1-92.5T206 22q29 0 49 23.5t37 75.5z" glyph-name="tbar" horiz-adv-x="370" unicode="ŧ"/><glyph d="M285 121l49-19q-24-57-58-84.5T196-10q-70 0-100 45.5T81 165l43 250q6 32 4 39t-18 9l-54 5 5 27h77l23 131 85 17-26-148h163l-6-32H214l-56-318q-11-62-1-92.5T199 22q29 0 49 23.5t37 75.5zm36 435h-21l37 214h82q-24-59-47.5-110.5T321 556z" glyph-name="tcaron" horiz-adv-x="362" unicode="ť"/><glyph d="M285 121l49-19q-24-57-58-84.5T196-10q-70 0-100 45.5T81 165l43 250q6 32 4 39t-18 9l-54 5 5 27h77l23 131 85 17-26-148h163l-6-32H214l-56-318q-11-62-1-92.5T199 22q29 0 49 23.5t37 75.5zM80-242l-18 16q24 36 38 70.5T124-77h88q-25-48-55.5-86T80-242z" glyph-name="uni0163" horiz-adv-x="362" unicode="ţ"/><glyph d="M285 121l49-19q-24-57-58-84.5T196-10q-70 0-100 45.5T81 165l43 250q6 32 4 39t-18 9l-54 5 5 27h77l23 131 85 17-26-148h163l-6-32H214l-56-318q-11-62-1-92.5T199 22q29 0 49 23.5t37 75.5zM80-242l-18 16q24 36 38 70.5T124-77h88q-25-48-55.5-86T80-242z" glyph-name="uni021B" horiz-adv-x="362" unicode="ț"/><glyph d="M468-5q-43 0-64 28t-18 82q-41-58-87.5-86.5T200-10q-69 0-100 48T83 170l43 244q6 33 4.5 40t-17.5 9l-55 5 5 27h160l-57-324q-13-71 .5-107.5T218 27q45 0 90 38t88 113l56 317h82l-60-345q-12-67-10.5-94.5T483 28q18 0 34.5 20t28.5 57l36-22q-21-43-50-65.5T468-5zM344 579l-19 22q32 35 51.5 66t37.5 73h101q-38-46-78.5-84T344 579z" glyph-name="uacute" horiz-adv-x="605" unicode="ú"/><glyph d="M468-5q-43 0-64 28t-18 82q-41-58-87.5-86.5T200-10q-69 0-100 48T83 170l43 244q6 33 4.5 40t-17.5 9l-55 5 5 27h160l-57-324q-13-71 .5-107.5T218 27q45 0 90 38t88 113l56 317h82l-60-345q-12-67-10.5-94.5T483 28q18 0 34.5 20t28.5 57l36-22q-21-43-50-65.5T468-5zm11 603l-18-19q-28 25-52.5 49.5T364 678q-33-27-64.5-51.5T235 579l-17 21q46 42 68.5 68.5T340 740h66q15-45 28.5-72t44.5-70z" glyph-name="ucircumflex" horiz-adv-x="605" unicode="û"/><glyph d="M468-5q-43 0-64 28t-18 82q-41-58-87.5-86.5T200-10q-69 0-100 48T83 170l43 244q6 33 4.5 40t-17.5 9l-55 5 5 27h160l-57-324q-13-71 .5-107.5T218 27q45 0 90 38t88 113l56 317h82l-60-345q-12-67-10.5-94.5T483 28q18 0 34.5 20t28.5 57l36-22q-21-43-50-65.5T468-5zM310 669q0-25-16-41.5T253 611q-21 0-33.5 12.5T207 656q0 24 16 40.5t41 16.5q21 0 33.5-11.5T310 669zm203 0q0-25-16.5-41.5T455 611q-20 0-33 12.5T409 656q0 24 16 40.5t41 16.5q22 0 34.5-12t12.5-32z" glyph-name="udieresis" horiz-adv-x="605" unicode="ü"/><glyph d="M468-5q-43 0-64 28t-18 82q-41-58-87.5-86.5T200-10q-69 0-100 48T83 170l43 244q6 33 4.5 40t-17.5 9l-55 5 5 27h160l-57-324q-13-71 .5-107.5T218 27q45 0 90 38t88 113l56 317h82l-60-345q-12-67-10.5-94.5T483 28q18 0 34.5 20t28.5 57l36-22q-21-43-50-65.5T468-5zm-99 601l-23-17q-38 39-65 77t-49 84h91q4-42 13.5-73t32.5-71z" glyph-name="ugrave" horiz-adv-x="605" unicode="ù"/><glyph d="M468-5q-43 0-64 28t-18 82q-41-58-87.5-86.5T200-10q-69 0-100 48T83 170l43 244q6 33 4.5 40t-17.5 9l-55 5 5 27h160l-57-324q-13-71 .5-107.5T218 27q45 0 90 38t88 113l56 317h82l-60-345q-12-67-10.5-94.5T483 28q18 0 34.5 20t28.5 57l36-22q-21-43-50-65.5T468-5zM356 643q47 0 77.5 23.5T485 742l29-9q-26-80-64.5-117T353 579q-59 0-89.5 38.5T230 733l29 9q6-52 29-75.5t68-23.5z" glyph-name="ubreve" horiz-adv-x="605" unicode="ŭ"/><glyph d="M468-5q-43 0-64 28t-18 82q-41-58-87.5-86.5T200-10q-69 0-100 48T83 170l43 244q6 33 4.5 40t-17.5 9l-55 5 5 27h160l-57-324q-13-71 .5-107.5T218 27q45 0 90 38t88 113l56 317h82l-60-345q-12-67-10.5-94.5T483 28q18 0 34.5 20t28.5 57l36-22q-21-43-50-65.5T468-5zM273 579l-19 17q22 30 39.5 63.5T328 740h91q-31-43-68-84t-78-77zm140 0l-19 17q22 29 39.5 62.5T469 740h91q-32-44-69-84.5T413 579z" glyph-name="uhungarumlaut" horiz-adv-x="605" unicode="ű"/><glyph d="M468-5q-43 0-64 28t-18 82q-41-58-87.5-86.5T200-10q-69 0-100 48T83 170l43 244q6 33 4.5 40t-17.5 9l-55 5 5 27h160l-57-324q-13-71 .5-107.5T218 27q45 0 90 38t88 113l56 317h82l-60-345q-12-67-10.5-94.5T483 28q18 0 34.5 20t28.5 57l36-22q-21-43-50-65.5T468-5zM217 666h287l-8-47H209z" glyph-name="umacron" horiz-adv-x="605" unicode="ū"/><glyph d="M113 463l-55 5 5 27h160l-57-324q-13-71 .5-107.5T218 27q45 0 90 38t88 113l56 317h82l-60-345q-12-67-10.5-94.5T483 28q18 0 34.5 20t28.5 57l36-22q-14-30-38.5-54T463-28q-59-34-76.5-58.5T369-143q0-25 10-37.5t31-12.5q27 0 47.5 20t35.5 61l50-13q-23-49-56.5-73.5T407-223q-46 0-74 22t-28 59q0 36 28 66T450-4q-34 6-50 33.5T386 105q-41-58-87.5-86.5T200-10q-69 0-100 48T83 170l43 244q6 33 4.5 40t-17.5 9z" glyph-name="uogonek" horiz-adv-x="605" unicode="ų"/><glyph d="M468-5q-43 0-64 28t-18 82q-41-58-87.5-86.5T200-10q-69 0-100 48T83 170l43 244q6 33 4.5 40t-17.5 9l-55 5 5 27h160l-57-324q-13-71 .5-107.5T218 27q45 0 90 38t88 113l56 317h82l-60-345q-12-67-10.5-94.5T483 28q18 0 34.5 20t28.5 57l36-22q-21-43-50-65.5T468-5zm-95 794q56 0 86.5-34t22.5-82l-2-11q-8-45-43.5-73T351 561q-55 0-85.5 34.5T243 678l2 11q8 45 43 72.5t85 27.5zm-24-202q28 0 46 19.5t24 55.5l5 25q6 37-7 57t-42 20q-27 0-45-19.5T305 688l-4-25q-7-35 6-55.5t42-20.5z" glyph-name="uring" horiz-adv-x="605" unicode="ů"/><glyph d="M468-5q-43 0-64 28t-18 82q-41-58-87.5-86.5T200-10q-69 0-100 48T83 170l43 244q6 33 4.5 40t-17.5 9l-55 5 5 27h160l-57-324q-13-71 .5-107.5T218 27q45 0 90 38t88 113l56 317h82l-60-345q-12-67-10.5-94.5T483 28q18 0 34.5 20t28.5 57l36-22q-21-43-50-65.5T468-5zm-44 594q-20 0-37.5 10T343 640q-21 24-32 31t-22 7q-19 0-33.5-20T232 600h-31q13 69 38 104t61 35q20 0 37.5-10t43.5-41q20-24 30.5-31t21.5-7q18 0 32.5 20t23.5 58h32q-13-69-37.5-104T424 589z" glyph-name="utilde" horiz-adv-x="605" unicode="ũ"/><glyph d="M677 475l92 30q-15-247-91-381T487-10q-51 0-81.5 28.5T367 102q-34-55-78-83.5T197-10q-74 0-103 55T84 202l38 212q6 33 4 40t-18 9l-55 5 5 27h160l-52-292q-17-97-6.5-136.5T212 27q44 0 84.5 37.5T366 171q1 11 2.5 23.5T372 221l48 274h82l-47-273q-18-106-6.5-150.5T505 27q75 0 126 95t51 250q0 29-1 54t-4 49zM470 579l-19 22q32 35 51.5 66t37.5 73h101q-38-46-78.5-84T470 579z" glyph-name="wacute" horiz-adv-x="803" unicode="ẃ"/><glyph d="M677 475l92 30q-15-247-91-381T487-10q-51 0-81.5 28.5T367 102q-34-55-78-83.5T197-10q-74 0-103 55T84 202l38 212q6 33 4 40t-18 9l-55 5 5 27h160l-52-292q-17-97-6.5-136.5T212 27q44 0 84.5 37.5T366 171q1 11 2.5 23.5T372 221l48 274h82l-47-273q-18-106-6.5-150.5T505 27q75 0 126 95t51 250q0 29-1 54t-4 49zm-72 123l-18-19q-28 25-52.5 49.5T490 678q-33-27-64.5-51.5T361 579l-17 21q46 42 68.5 68.5T466 740h66q15-45 28.5-72t44.5-70z" glyph-name="wcircumflex" horiz-adv-x="803" unicode="ŵ"/><glyph d="M677 475l92 30q-15-247-91-381T487-10q-51 0-81.5 28.5T367 102q-34-55-78-83.5T197-10q-74 0-103 55T84 202l38 212q6 33 4 40t-18 9l-55 5 5 27h160l-52-292q-17-97-6.5-136.5T212 27q44 0 84.5 37.5T366 171q1 11 2.5 23.5T372 221l48 274h82l-47-273q-18-106-6.5-150.5T505 27q75 0 126 95t51 250q0 29-1 54t-4 49zM435 669q0-25-16-41.5T378 611q-21 0-33.5 12.5T332 656q0 24 16 40.5t41 16.5q21 0 33.5-11.5T435 669zm203 0q0-25-16.5-41.5T580 611q-20 0-33 12.5T534 656q0 24 16 40.5t41 16.5q22 0 34.5-12t12.5-32z" glyph-name="wdieresis" horiz-adv-x="803" unicode="ẅ"/><glyph d="M677 475l92 30q-15-247-91-381T487-10q-51 0-81.5 28.5T367 102q-34-55-78-83.5T197-10q-74 0-103 55T84 202l38 212q6 33 4 40t-18 9l-55 5 5 27h160l-52-292q-17-97-6.5-136.5T212 27q44 0 84.5 37.5T366 171q1 11 2.5 23.5T372 221l48 274h82l-47-273q-18-106-6.5-150.5T505 27q75 0 126 95t51 250q0 29-1 54t-4 49zM494 596l-23-17q-38 39-65 77t-49 84h91q4-42 13.5-73t32.5-71z" glyph-name="wgrave" horiz-adv-x="803" unicode="ẁ"/><glyph d="M534 495L448 9q-19-110-84.5-171T195-223q-75 0-114.5 40.5T47-72l57 12q-8-66 15.5-99.5T195-193q70 0 111.5 47.5T365-1l18 102q-41-56-86.5-83.5T200-10q-69 0-100 48T83 170l43 244q6 33 4.5 40t-17.5 9l-55 5 5 27h160l-57-324q-13-71 .5-107.5T218 27q45 0 90 38t88 113l56 317zm-188 84l-19 22q32 35 51.5 66t37.5 73h101q-38-46-78.5-84T346 579z" glyph-name="yacute" horiz-adv-x="585" unicode="ý"/><glyph d="M534 495L448 9q-19-110-84.5-171T195-223q-75 0-114.5 40.5T47-72l57 12q-8-66 15.5-99.5T195-193q70 0 111.5 47.5T365-1l18 102q-41-56-86.5-83.5T200-10q-69 0-100 48T83 170l43 244q6 33 4.5 40t-17.5 9l-55 5 5 27h160l-57-324q-13-71 .5-107.5T218 27q45 0 90 38t88 113l56 317zM312 669q0-25-16-41.5T255 611q-21 0-33.5 12.5T209 656q0 24 16 40.5t41 16.5q21 0 33.5-11.5T312 669zm203 0q0-25-16.5-41.5T457 611q-20 0-33 12.5T411 656q0 24 16 40.5t41 16.5q22 0 34.5-12t12.5-32z" glyph-name="ydieresis" horiz-adv-x="585" unicode="ÿ"/><glyph d="M534 495L448 9q-19-110-84.5-171T195-223q-75 0-114.5 40.5T47-72l57 12q-8-66 15.5-99.5T195-193q70 0 111.5 47.5T365-1l18 102q-41-56-86.5-83.5T200-10q-69 0-100 48T83 170l43 244q6 33 4.5 40t-17.5 9l-55 5 5 27h160l-57-324q-13-71 .5-107.5T218 27q45 0 90 38t88 113l56 317zm-53 103l-18-19q-28 25-52.5 49.5T366 678q-33-27-64.5-51.5T237 579l-17 21q46 42 68.5 68.5T342 740h66q15-45 28.5-72t44.5-70z" glyph-name="ycircumflex" horiz-adv-x="585" unicode="ŷ"/><glyph d="M534 495L448 9q-19-110-84.5-171T195-223q-75 0-114.5 40.5T47-72l57 12q-8-66 15.5-99.5T195-193q70 0 111.5 47.5T365-1l18 102q-41-56-86.5-83.5T200-10q-69 0-100 48T83 170l43 244q6 33 4.5 40t-17.5 9l-55 5 5 27h160l-57-324q-13-71 .5-107.5T218 27q45 0 90 38t88 113l56 317zM371 596l-23-17q-38 39-65 77t-49 84h91q4-42 13.5-73t32.5-71z" glyph-name="ygrave" horiz-adv-x="585" unicode="ỳ"/><glyph d="M386 147l27-7q-12-73-42.5-111.5T292-10q-20 0-41 6.5T191 24q-32 17-48 22.5T114 52q-21 0-42-13T29 0L4 23l350 406H189q-35 0-43.5-3T130 407l-35-78H69l29 166h342l-5-25L109 92q15 8 27.5 12t26.5 4q15 0 30.5-5T238 81t44.5-22q15.5-5 30.5-5 28 0 45 21t28 72zm37 597l17-21q-45-42-68-68t-54-71h-66q-15 44-28.5 71T179 725l18 19q31-27 55-51.5t42-47.5q28 24 59.5 48.5T423 744z" glyph-name="zcaron" horiz-adv-x="457" unicode="ž"/><glyph d="M386 147l27-7q-12-73-42.5-111.5T292-10q-20 0-41 6.5T191 24q-32 17-48 22.5T114 52q-21 0-42-13T29 0L4 23l350 406H189q-35 0-43.5-3T130 407l-35-78H69l29 166h342l-5-25L109 92q15 8 27.5 12t26.5 4q15 0 30.5-5T238 81t44.5-22q15.5-5 30.5-5 28 0 45 21t28 72zM283 579l-19 22q32 35 51.5 66t37.5 73h101q-38-46-78.5-84T283 579z" glyph-name="zacute" horiz-adv-x="457" unicode="ź"/><glyph d="M386 147l27-7q-12-73-42.5-111.5T292-10q-20 0-41 6.5T191 24q-32 17-48 22.5T114 52q-21 0-42-13T29 0L4 23l350 406H189q-35 0-43.5-3T130 407l-35-78H69l29 166h342l-5-25L109 92q15 8 27.5 12t26.5 4q15 0 30.5-5T238 81t44.5-22q15.5-5 30.5-5 28 0 45 21t28 72zm-32 522q0-26-17-43.5T293 608q-23 0-36 13t-13 35q0 26 17 43t43 17q23 0 36.5-12.5T354 669z" glyph-name="zdotaccent" horiz-adv-x="457" unicode="ż"/><glyph d="M283 579l-19 22q32 35 51.5 66t37.5 73h101q-38-46-78.5-84T283 579z" glyph-name="acute" horiz-adv-x="500" unicode="´"/><glyph d="M371 596l-23-17q-38 39-65 77t-49 84h91q4-42 13.5-73t32.5-71z" glyph-name="grave" horiz-adv-x="500" unicode="`"/><glyph d="M481 598l-18-19q-28 25-52.5 49.5T366 678q-33-27-64.5-51.5T237 579l-17 21q46 42 68.5 68.5T342 740h66q15-45 28.5-72t44.5-70z" glyph-name="circumflex" horiz-adv-x="500" unicode="ˆ"/><glyph d="M423 744l17-21q-45-42-68-68t-54-71h-66q-15 44-28.5 71T179 725l18 19q31-27 55-51.5t42-47.5q28 24 59.5 48.5T423 744z" glyph-name="caron" horiz-adv-x="500" unicode="ˇ"/><glyph d="M424 589q-20 0-37.5 10T343 640q-21 24-32 31t-22 7q-19 0-33.5-20T232 600h-31q13 69 38 104t61 35q20 0 37.5-10t43.5-41q20-24 30.5-31t21.5-7q18 0 32.5 20t23.5 58h32q-13-69-37.5-104T424 589z" glyph-name="tilde" horiz-adv-x="500" unicode="˜"/><glyph d="M312 669q0-25-16-41.5T255 611q-21 0-33.5 12.5T209 656q0 24 16 40.5t41 16.5q21 0 33.5-11.5T312 669zm203 0q0-25-16.5-41.5T457 611q-20 0-33 12.5T411 656q0 24 16 40.5t41 16.5q22 0 34.5-12t12.5-32z" glyph-name="dieresis" horiz-adv-x="500" unicode="¨"/><glyph d="M373 789q56 0 86.5-34t22.5-82l-2-11q-8-45-43.5-73T351 561q-55 0-85.5 34.5T243 678l2 11q8 45 43 72.5t85 27.5zm-24-202q28 0 46 19.5t24 55.5l5 25q6 37-7 57t-42 20q-27 0-45-19.5T305 688l-4-25q-7-35 6-55.5t42-20.5z" glyph-name="ring" horiz-adv-x="500" unicode="˚"/><glyph d="M291-133q0-39-33.5-64.5T172-223q-46 0-73 20.5T71-145l51 14q-2-33 8.5-48.5T167-195q26 0 42.5 18t16.5 46q0 24-11.5 34.5T177-86q-1 0-7-1t-17-2l-5 26 37 63h35l-34-58q48 0 76.5-20.5T291-133z" glyph-name="cedilla" horiz-adv-x="500" unicode="¸"/><glyph d="M273 579l-19 17q22 30 39.5 63.5T328 740h91q-31-43-68-84t-78-77zm140 0l-19 17q22 29 39.5 62.5T469 740h91q-32-44-69-84.5T413 579z" glyph-name="hungarumlaut" horiz-adv-x="500" unicode="˝"/><glyph d="M356 643q47 0 77.5 23.5T485 742l29-9q-26-80-64.5-117T353 579q-59 0-89.5 38.5T230 733l29 9q6-52 29-75.5t68-23.5z" glyph-name="breve" horiz-adv-x="500" unicode="˘"/><glyph d="M217 666h287l-8-47H209z" glyph-name="macron" horiz-adv-x="500" unicode="¯"/><glyph d="M354 669q0-26-17-43.5T293 608q-23 0-36 13t-13 35q0 26 17 43t43 17q23 0 36.5-12.5T354 669z" glyph-name="dotaccent" horiz-adv-x="500" unicode="˙"/><glyph d="M369 391q0-26-17-43.5T308 330q-23 0-36 13t-13 35q0 26 17 43t43 17q23 0 36.5-12.5T369 391z" glyph-name="periodcentered" horiz-adv-x="500" unicode="·"/><glyph d="M168-223q-48 0-76 22.5T64-138q0 63 67 114t146 51V0q-65 0-107-41.5T128-141q0-26 10.5-39t31.5-13q27 0 47.5 20.5T252-112l50-13q-22-49-55.5-73.5T168-223z" glyph-name="ogonek" horiz-adv-x="500" unicode="˛"/><glyph d="M80-242l-18 16q24 36 38 70.5T124-77h88q-25-48-55.5-86T80-242z" glyph-name="commaaccent" horiz-adv-x="500" unicode=""/><glyph d="M321 556h-21l37 214h82q-24-59-47.5-110.5T321 556z" glyph-name="caron.alt" horiz-adv-x="500"/><glyph d="M412 749l19-16q-24-36-38-70.5T369 584h-89q25 48 55.5 86t76.5 79z" glyph-name="revcommaaccent" horiz-adv-x="500"/><glyph d="M89-10Q64-10 50 3.5T36 40q0 27 17 44.5T98 102q25 0 39-13t14-37q0-27-17-44.5T89-10z" glyph-name="period" horiz-adv-x="258" unicode="."/><glyph d="M97 98q24 0 37.5-15T148 41q0-45-39-104.5T-4-193l-19 19q45 46 72.5 87.5T85-10Q64-9 51.5 4T39 38q0 26 16 43t42 17z" glyph-name="comma" horiz-adv-x="258" unicode=","/><glyph d="M221 454q0-27-17-44.5T160 392q-25 0-39 13t-14 37q0 27 17 45t44 18q25 0 39-13.5t14-37.5zM151 52q0-27-17-44.5T89-10Q64-10 50 3.5T36 40q0 27 17.5 44.5T98 102q25 0 39-13t14-37z" glyph-name="colon" horiz-adv-x="258" unicode=":"/><glyph d="M221 454q0-27-17-44.5T160 392q-25 0-39 13t-14 37q0 27 17 45t44 18q25 0 39-13.5t14-37.5zM97 98q24 0 37.5-15T148 41q0-45-39-104.5T-4-193l-19 19q45 46 72.5 87.5T85-10Q64-9 51.5 4T39 38q0 26 16 43t42 17z" glyph-name="semicolon" horiz-adv-x="258" unicode=";"/><glyph d="M489-10q-25 0-39 13.5T436 40q0 27 17 44.5t45 17.5q25 0 39-13t14-37q0-27-17-44.5T489-10zm0 0q-25 0-39 13.5T436 40q0 27 17 44.5t45 17.5q25 0 39-13t14-37q0-27-17-44.5T489-10zm0 0q-25 0-39 13.5T436 40q0 27 17 44.5t45 17.5q25 0 39-13t14-37q0-27-17-44.5T489-10z" glyph-name="ellipsis" horiz-adv-x="658" unicode="…"/><glyph d="M244 207l-2-23h-46l4 22q7 43 26.5 76t72.5 78q58 50 75.5 88.5T392 540q0 58-24 88t-70 30q-60 0-93.5-48T164 467l-79 16q1 95 58.5 151T302 690q85 0 133.5-41.5T484 536q0-48-23.5-86T361 360q-69-47-91.5-80T244 207zm10-155q0-27-17.5-44.5T192-10q-25 0-39 13t-14 37q0 27 17 44.5t45 17.5q25 0 39-13.5T254 52z" glyph-name="question" horiz-adv-x="479" unicode="?"/><glyph d="M193 447q-24-88-36.5-144T133 184h-31q12 65 19.5 121.5T136 452q7 80 13 128t15 100h82q-9-53-20-102t-33-131zM151 52q0-27-17-44.5T89-10Q64-10 50 3.5T36 40q0 27 17.5 44.5T98 102q25 0 39-13t14-37z" glyph-name="exclam" horiz-adv-x="258" unicode="!"/><glyph d="M227 442q0 27 17 45t44 18q25 0 39-13.5t14-37.5q0-27-17-44.5T280 392q-25 0-39 13t-14 37zm9-154l2 23h46l-4-22q-7-43-26.5-76T181 134q-57-50-74.5-88.5T89-45q0-58 24-88t69-30q60 0 94 48.5T317 28l79-16q-1-95-58.5-151T179-195q-86 0-134 41.5T-3-41q0 48 23.5 85.5T119 134q69 47 91.5 80t25.5 74z" glyph-name="questiondown" horiz-adv-x="479" unicode="¿"/><glyph d="M107 442q0 27 17 45t44 18q25 0 39-13.5t14-37.5q0-27-17-44.5T160 392q-25 0-39 13t-14 37zM64 43q24 89 36.5 146T125 311h30q-11-63-18-119T122 48q-7-82-13-131T93-185H11q9 52 20 99.5T64 43z" glyph-name="exclamdown" horiz-adv-x="258" unicode="¡"/><glyph d="M80 286l6 40q19 125 90 228t205 196l21-28q-94-75-151-174t-79-230l-7-38q-21-126 0-233t82-178l-25-22Q137-67 99.5 49.5T80 286z" glyph-name="parenleft" horiz-adv-x="336" unicode="("/><glyph d="M274 310l-6-40q-18-124-89.5-226.5T-27-153l-20 28Q47-50 103.5 49T182 279l7 37q21 126 0 233.5T107 728l25 22q85-87 122.5-203.5T274 310z" glyph-name="parenright" horiz-adv-x="336" unicode=")"/><glyph d="M232-112h85l-5-32h-77q-90 0-127.5 51.5T104 41l43 106q24 59 14.5 97T114 282H37l5 32h77q39 0 61 37.5t20 97.5l-5 106q-5 94 38.5 139.5T373 740h94l-6-32h-85q-51 0-75-33.5T279 574l6-106q4-72-23-115.5T177 295q48-17 60.5-60.5T225 128L182 22q-26-67-13.5-100.5T232-112z" glyph-name="braceleft" horiz-adv-x="401" unicode="{"/><glyph d="M218 147l5-106q5-94-38.5-139.5T45-144h-93l5 32h84q51 0 75 33.5T138 22l-6 106q-4 72 23 115.5t85 57.5q-48 17-60.5 60.5T192 468l43 106q27 66 14.5 100T186 708h-85l5 32h76q90 0 128-51.5t4-133.5l-43-106q-24-60-15-98t48-38h77l-5-32h-77q-39 0-61.5-37.5T218 147z" glyph-name="braceright" horiz-adv-x="401" unicode="}"/><glyph d="M121-111h151l-6-32H33l156 883h233l-6-32H266z" glyph-name="bracketleft" horiz-adv-x="356" unicode="["/><glyph d="M106 740h233L184-143H-48l5 32h150l145 819H101z" glyph-name="bracketright" horiz-adv-x="356" unicode="]"/><glyph d="M-83-126l495 866 35-17-495-866z" glyph-name="slash" horiz-adv-x="379" unicode="/"/><glyph d="M99 727l36 13 195-868-37-13z" glyph-name="backslash" horiz-adv-x="379" unicode="\"/><glyph d="M321-143H-50l6 34h371z" glyph-name="underscore" horiz-adv-x="409" unicode="_"/><glyph d="M346 317H82l6 35h264z" glyph-name="hyphen" horiz-adv-x="404" unicode="-"/><glyph glyph-name="uni00AD" horiz-adv-x="0" unicode="­"/><glyph d="M546 317H82l6 35h464z" glyph-name="endash" horiz-adv-x="604" unicode="–"/><glyph d="M746 317H82l6 35h664z" glyph-name="emdash" horiz-adv-x="804" unicode="—"/><glyph d="M112 357l68 383h37l-68-383zM12-213l67 383h37L49-213z" glyph-name="brokenbar" horiz-adv-x="224" unicode="¦"/><glyph d="M18-213l168 953h37L55-213z" glyph-name="bar" horiz-adv-x="237" unicode="|"/><glyph d="M150 238L297 25l-18-15L50 232l4 24 307 222 15-22zm250 0L547 25l-18-15-229 222 4 24 307 222 15-22z" glyph-name="guillemotleft" horiz-adv-x="645" unicode="«"/><glyph d="M593 256l-4-24L283 10l-16 21 226 219-147 213 19 15zm-250 0l-4-24L33 10 17 31l226 219L96 463l19 15z" glyph-name="guillemotright" horiz-adv-x="645" unicode="»"/><glyph d="M150 238L297 25l-19-15L50 232l4 24 307 222 15-22z" glyph-name="guilsinglleft" horiz-adv-x="395" unicode="‹"/><glyph d="M343 257l-4-24L33 11 17 32l226 218L96 463l19 16z" glyph-name="guilsinglright" horiz-adv-x="395" unicode="›"/><glyph d="M97 94q22 0 35.5-15T146 39q0-40-33-92.5T18-163L0-144q36 36 57 69.5T85-10Q64-9 52.5 3T41 36q0 25 15.5 41.5T97 94z" glyph-name="quotesinglbase" horiz-adv-x="258" unicode="‚"/><glyph d="M97 94q22 0 35.5-15T146 39q0-40-33-92.5T18-163L0-144q36 36 57 69.5T85-10Q64-9 52.5 3T41 36q0 25 15.5 41.5T97 94zm167 0q22 0 35.5-15T313 39q0-40-33-92.5T185-163l-18 19q36 36 57 69.5T252-10q-21 1-32.5 13T208 36q0 25 15.5 41.5T264 94z" glyph-name="quotedblbase" horiz-adv-x="425" unicode="„"/><glyph d="M177 536q21-1 32.5-13t11.5-33q0-26-15.5-42.5T166 431q-22 0-35.5 15T117 486q0 41 32.5 93T244 690l19-20q-36-37-57-70t-29-64z" glyph-name="quoteleft" horiz-adv-x="258" unicode="‘"/><glyph d="M345 536q21-1 32.5-13t11.5-33q0-26-15.5-42.5T333 431q-22 0-35.5 15T284 486q0 41 33 93.5T412 690l18-20q-36-37-57-70t-28-64zm-168 0q21-1 32.5-13t11.5-33q0-26-15.5-42.5T166 431q-22 0-35.5 15T117 486q0 41 32.5 93T244 690l19-20q-36-37-57-70t-29-64z" glyph-name="quotedblleft" horiz-adv-x="425" unicode="“"/><glyph d="M105 690q22 0 35.5-15t13.5-40q0-41-32.5-93T27 431L8 451q36 37 57 70t29 64q-21 1-32.5 13T50 631q0 26 15.5 42.5T105 690z" glyph-name="quoteright" horiz-adv-x="258" unicode="’"/><glyph d="M202 690q22 0 35.5-15t13.5-40q0-41-32.5-93T124 431l-19 20q36 37 57 70t29 64q-21 1-32.5 13T147 631q0 26 15.5 42.5T202 690zm167 0q23 0 36.5-15t13.5-40q0-40-33-92.5T291 431l-19 20q37 37 58 70t28 64q-21 1-32.5 13T314 631q0 25 15.5 42t39.5 17z" glyph-name="quotedblright" horiz-adv-x="425" unicode="”"/><glyph d="M227 588q-21-39-32-73t-19-77h-27q5 23 7 44.5t2 45.5q0 13-1 25.5t-5 31.5q-3 16-4 23.5t-1 14.5q0 31 15 49t40 18q20 0 32-12t12-33q0-12-3.5-23T227 588z" glyph-name="quotesingle" horiz-adv-x="258" unicode="'"/><glyph d="M227 588q-21-39-32-73t-19-77h-27q5 23 7 44.5t2 45.5q0 13-1 25.5t-5 31.5q-3 16-4 23.5t-1 14.5q0 31 15 49t40 18q20 0 32-12t12-33q0-12-3.5-23T227 588zm168 0q-21-39-32-73t-19-77h-27q5 23 7 44.5t2 45.5q0 13-1 25.5t-5 31.5q-3 16-4 23.5t-1 14.5q0 31 15 49t40 18q20 0 32-12t12-33q0-12-3.5-23T395 588z" glyph-name="quotedbl" horiz-adv-x="426" unicode="&quot;"/><glyph d="M225 341q0-37-24-61t-61-24q-33 0-52.5 18.5T68 325q0 36 24 60.5t60 24.5q34 0 53.5-18t19.5-51z" glyph-name="bullet" horiz-adv-x="263" unicode="•"/><glyph d="M495 184q0-87-67.5-140.5T252-10Q148-10 93 31T38 149q0 72 53.5 122.5T250 351q-63 43-92.5 85.5T128 528q0 70 57 116t143 46q99 0 148.5-57.5T500 497l-86-19q23 82-1 131t-86 49q-49 0-80-34t-31-91q0-47 18.5-92t53.5-80l130 27q60 14 103.5 33.5T603 471l19-84q-30-8-63.5-15T473 357l-70-11q45-33 68.5-74.5T495 184zm-369-33q0-63 33.5-96T257 22q74 0 118 46t44 125q0 43-14.5 80T362 340l-60-9q-87-13-131.5-59T126 151z" glyph-name="ampersand" horiz-adv-x="619" unicode="&amp;"/><glyph d="M78 476l6 30q15 86 73 130t156 44h288l-4-27-56-5q-17-2-21-9t-10-40L393-62q-6-33-4-40t18-9l54-5-5-27H195l5 27 76 5q16 2 20 8.5T306-62l125 710h-67l-64-360h-46q-94 0-142 52T78 476z" glyph-name="paragraph" horiz-adv-x="572" unicode="¶"/><glyph d="M281 270v-3q-5-27-12-54.5T246 131q-25-82-39.5-142.5T180-143h-31q12 70 19 130t11 142q3 54 6 82t8 56v3q4 21 9.5 39.5T223 360q12 28 18 45t10 35l4 20q-23 0-44-3t-55-12q-32-8-51-10.5T65 432l15 85q21 0 39-2.5t47-11.5q31-8 51-11t43-3q4 24 5 45.5t-2 55.5q-3 32-2.5 50.5T265 680h88q-4-21-9.5-40T324 590q-15-34-22-55.5T291 489q24 0 45 3t55 12q32 8 51 10.5t40 2.5l-15-85q-21 0-39 2.5T381 446q-31 8-51.5 11t-43.5 3l-3-16q-3-19-3-37t3-48q3-31 2.5-49.5T281 270z" glyph-name="dagger" horiz-adv-x="468" unicode="†"/><glyph d="M421 104l-15-85q-21 0-39 2.5T320 33q-31 8-51.5 11T225 47q-4-24-5-45.5t2-55.5q3-31 2.5-50t-4.5-39h-88q4 21 10 40t20 51q15 33 21.5 54T194 47q-23 0-44.5-3T94 32q-32-8-51-10.5T4 19l15 85q21 0 39-2.5T105 90q31-8 51-11t43-3l2 13q3 20 3.5 39t-2.5 49q-3 31-2.5 50t4.5 40l1 3q4 21 10 40t20 51q15 33 21.5 54t10.5 45q-23 0-44.5-3T167 445q-32-8-51-10.5T77 432l15 85q20 0 38.5-2.5T178 503q31-8 51-11t43-3q4 24 5 45.5t-2 55.5q-3 32-2.5 50.5T277 680h88q-4-21-9.5-40T336 590q-15-34-22-55.5T303 489q23 0 44 3t56 12q32 8 51 10.5t40 2.5l-15-85q-21 0-39 2.5T392 446q-31 8-51 11t-43 3l-3-16q-3-19-3-37t3-48q3-31 2.5-49.5T293 270l-1-3q-4-21-9.5-40T263 177q-15-34-22-55.5T230 76q24 0 45 3t55 12q32 8 51 10.5t40 2.5z" glyph-name="daggerdbl" horiz-adv-x="491" unicode="‡"/><glyph d="M347 88q33-22 49-52.5T412-35q0-82-60.5-135T190-223q-88 0-139 46.5T-1-46l62 20q-5-80 29-122.5T192-191q66 0 103.5 32T333-71q0 41-21 65.5T241 39l-69 28q-64 25-97 64.5T42 223q0 57 39 100t106 60q-33 22-50 55t-17 76q0 80 55 128t150 48q97 0 145-56t26-132l-87-18q23 82 0 128t-88 46q-59 0-91-29.5T198 544q0-41 21-66.5t69-43.5l72-26q63-23 96.5-63.5T490 252q0-56-38-100T347 88zM120 257q0-40 24-66.5t83-49.5l79-32q52 10 79 37t27 69q0 43-24.5 70T304 333l-74 28q-54-6-82-32.5T120 257z" glyph-name="section" horiz-adv-x="539" unicode="§"/><glyph d="M336 397q18-22 27.5-36.5T381 329l-65-32q-9 17-14.5 33.5T290 375q-7 31-13.5 50T260 465q-17-16-30-32t-30-43q-15-24-25.5-37T150 327l-51 51q14 14 28 24.5t39 24.5q27 16 43.5 28.5T243 484q-22 11-41.5 18.5T151 518q-27 7-42.5 12.5T76 545l35 65q16-9 30-18.5t35-28.5q23-21 40-33t38-23q4 23 5.5 43.5T259 602q-2 28-1 45t4 36l71-13q-3-19-8-35t-16-42q-13-29-19-48.5T280 501q23 3 42 8.5t48 16.5q27 11 44 15.5t37 7.5l10-72q-19-3-36-3t-46 3q-31 3-51.5 2.5T283 476q10-21 21-38t32-41z" glyph-name="asterisk" horiz-adv-x="444" unicode="*"/><glyph d="M415 680h101l54-235 135 235h107l-4-22-28-3q-9-1-11-4.5t-5-19.5l-42-242q-4-16-3-20t9-5l28-2-4-22H620l4 22 28 2q8 1 10 4.5t6 20.5l43 250-150-259h-29l-59 257-43-248q-4-16-3-20t9-5l28-2-4-22H355l4 22 28 2q8 1 10 4.5t6 20.5l42 242q3 16 2 19.5t-8 4.5l-28 3zm-311-82H84l15 82h278l-15-82h-20l-2 44q0 10-3.5 11.5T316 655h-55l-47-266q-3-16-2.5-20t8.5-5l28-2-4-22H112l4 22 28 2q8 1 10.5 5t5.5 20l47 266h-55q-17 0-21.5-2t-8.5-11z" glyph-name="trademark" horiz-adv-x="771" unicode="™"/><glyph d="M552 479q0-100-68-169t-166-69q-99 0-166.5 69T84 479q0 101 67.5 169.5T318 717q98 0 166-69t68-169zm-435 0q0-88 58-148t143-60q86 0 144 60t58 148q0 88-58.5 148T318 687q-85 0-143-60t-58-148zm115 107l-21 2v21h111q39 0 61-17.5t22-48.5v-16q0-22-11.5-38T361 465l43-69q1-1 6-10t12-9l18-1v-22h-69l-59 105h-25v-63q0-13 1-16t7-3l21-1v-22H211v22l21 1q6 0 7.5 3t1.5 16v172q0 11-1 14t-8 4zm90 0h-35V483h35q17 0 26 11.5t9 32.5v16q0 21-9 32t-26 11z" glyph-name="registered" horiz-adv-x="556" unicode="®"/><glyph d="M814 340q0-159-107.5-268T442-37Q285-37 177.5 72T70 340q0 160 107 268.5T442 717q157 0 264.5-109T814 340zm-710 0q0-146 97.5-245.5T442-5q143 0 240.5 99.5T780 340q0 146-97.5 245.5T442 685q-143 0-240.5-99.5T104 340zm342 202q-60 0-89-42.5T328 371v-61q0-92 29.5-132t97.5-40q50 0 77 25t38 80l50-13q-16-60-59.5-91T450 108q-95 0-146.5 58T252 330v21q0 104 51 162.5T446 572q86 0 132.5-49T613 398l-65-9q10 73-16.5 113T446 542z" glyph-name="copyright" horiz-adv-x="852" unicode="©"/><glyph d="M721-119l20-48q-51-26-119.5-41T487-223q-190 0-307.5 121.5T62 214q0 204 124 340t314 136q174 0 290-118t116-294q0-119-60.5-199.5T695-2q-50 0-83 25.5T572 93q-32-50-69-75T422-7q-79 0-118.5 72T284 246l4 22q17 93 75.5 149.5T499 474q40 0 71.5-17t54.5-51q14 14 26.5 28.5T674 464h35l-56-311q-11-63 0-93.5T700 29q72 0 122 71.5T872 278q0 162-106 271T500 658q-174 0-289-127T96 214Q96 33 203.5-79T487-191q69 0 128.5 18T721-119zM373 276l-10-60q-15-88 3.5-139.5T430 25q40 0 74.5 33T575 161l36 205q-19 38-45.5 57T504 442q-52 0-84.5-41.5T373 276z" glyph-name="at" horiz-adv-x="965" unicode="@"/><glyph d="M356 338q-26 0-41 14.5T297 395q-20-30-45-45t-55-15q-58 0-85.5 51.5T98 517l3 16q12 68 55.5 110T257 685q27 0 49-11t37-32q14 14 20.5 21.5T375 678h26l-42-235q-7-44-6-62.5t13-18.5q11 0 22.5 13.5T407 412l26-15q-15-29-34.5-44T356 338zM165 539l-6-38q-11-64 2-102.5t44-38.5q26 0 50 20.5t46 60.5l30 174q-12 23-29 33.5T260 659q-37 0-61-30t-34-90z" glyph-name="ordfeminine" horiz-adv-x="410" unicode="ª"/><glyph d="M264 685q70 0 104.5-50T390 507l-3-15q-12-75-55.5-116T222 335q-69 0-103.5 49.5T97 513l3 14q12 75 55 116.5T264 685zm57-203l7 42q11 64-6 100.5T263 661q-37 0-61.5-31.5T166 537l-7-41q-11-64 6-100.5t58-36.5q38 0 62.5 31t35.5 92z" glyph-name="ordmasculine" horiz-adv-x="395" unicode="º"/><glyph d="M550 243l-6-32H426L320-10 288 2l101 209H164L58-10 26 2l101 209H18l6 32h118l93 193H127l6 32h117l107 222 32-13-101-209h224l107 222 32-13-101-209h109l-6-32H535l-93-193zM273 436l-93-193h224l93 193z" glyph-name="numbersign" horiz-adv-x="645" unicode="#"/><glyph d="M949 685q79 0 117.5-54t23.5-138l-2-15q-13-76-60.5-118T906 318q-78 0-116.5 53T765 508l3 15q14 77 61.5 119.5T949 685zm-775-37l-55 5 5 27h167l228-534 81 453q6 33 4.5 40t-17.5 9l-55 5 5 27h191l-5-27-55-5q-17-2-21-9t-10-40L531 0h-40L227 613 133 81q-6-33-4.5-40t17.5-9l54-6-5-26H4l5 26 56 6q17 2 21 8.5T96 81l91 518q6 33 4.5 40t-17.5 9zm839-175l7 41q11 69-7.5 106.5T948 658q-41 0-68-33t-38-97l-7-42q-11-68 8-105t65-37q41 0 68 33t37 96zm-1-287H734l5 32h278z" glyph-name="uni2116" horiz-adv-x="1091" unicode="№"/><glyph d="M481 156l62-21q-33-72-88.5-108.5T322-10q-105 0-162.5 66.5T104 242H21l5 32h80q1 7 2 15.5l3 25.5 11 67H46l5 32h77q28 131 103.5 203.5T418 690q104 0 156-62.5T599 480l-90-21q27 95 3 147t-95 52q-76 0-124-56.5T226 432l-3-18h226l-12-32H218l-18-108h197l-11-32H195q-15-112 16.5-166T325 22q58 0 97.5 34T481 156z" glyph-name="Euro" horiz-adv-x="611" unicode="€"/><glyph d="M486 197q0-91-66-149T242-10l-20-115h-36L207-9Q122-1 77.5 45T32 172l63 20q-4-78 25-120t92-49l50 283-37 14q-63 25-94 68.5T100 494q0 89 60 142.5T325 690h5l20 115h36l-21-117q91-12 132.5-72T514 483l-87-18q25 81 7.5 129.5T359 654l-47-271 43-18q67-26 99-67.5T486 197zM178 524q0-47 23.5-77t76.5-51l46 262h-3q-68 0-105.5-35T178 524zm229-363q0 47-25 76.5T299 291l-3 1-48-270q76 2 117.5 38.5T407 161z" glyph-name="dollar" horiz-adv-x="548" unicode="$"/><glyph d="M332 32l54-6-5-26H140l5 26 56 6q13 1 17.5 4.5T226 49l29 165H73l5 32h182l8 46-20 62H97l6 32h134l-74 219q-9 27-14 34t-21 9l-51 5 5 27h239l-5-27-52-5q-16-2-17-8.5t8-34.5l88-273 187 273q18 27 20 34t-14 9l-51 5 5 27h188l-5-27-52-5q-16-2-23-8t-27-35L421 386h133l-5-32H399l-44-63-8-45h183l-6-32H342L318 79l1 2q-6-34-4.5-40.5T332 32z" glyph-name="yen" horiz-adv-x="608" unicode="¥"/><glyph d="M423 184h26L417 0H18l10 55q70 55 103.5 103t33.5 97q0 6-.5 12.5T163 284H60l6 32h89q0 1-23 60t-23 108q0 92 60 149t166 57q106 0 153.5-60.5T505 483l-90-16q27 93 7 142t-85 49q-61 0-96.5-51T205 470q0-17 2-37t8-60q4-23 5.5-35t2.5-22h173l-6-32H225v-5q0-56-29-105T104 73h228q34 0 43 3.5T391 99z" glyph-name="sterling" horiz-adv-x="525" unicode="£"/><glyph d="M374 124l46-26q-30-51-75-78T242-10l-20-115h-36L206-9Q120 1 80.5 72.5T61 254l4 22q18 100 81 162t151 67l20 115h36l-20-116q77-8 111.5-60T455 320l-81-16q23 72 10.5 115.5T327 471L248 22q44 4 77 30t49 72zM157 289l-10-60q-15-90 2-142t63-62l79 447q-51-7-86-54.5T157 289z" glyph-name="cent" horiz-adv-x="485" unicode="¢"/><glyph d="M258 342L152-52q-27-98-66-134.5T-17-223q-59 0-86.5 32t-12.5 77l75 11q-14-46-7.5-67.5T-14-192q28 0 45 27.5T67-66l110 408H54l6 32h126l55 205q27 98 66 134.5T411 750q59 0 86.5-32t12.5-77l-76-11q15 46 8.5 67.5T408 719q-28 0-45.5-27.5T326 593l-59-219h124l-6-32z" glyph-name="florin" horiz-adv-x="435" unicode="ƒ"/><glyph d="M280 648H119l6 32h441l-6-32H402q33-22 48-58t9-80h77l-6-32h-76l-1-6q-14-79-72.5-121.5T227 308h-60L357 81q29-35 37.5-41.5T416 32l44-6-5-26H311L59 308l6 32h161q52 0 88 34t46 94l2 10H89l6 32h273q10 66-13.5 102T280 648z" glyph-name="uni20B9" horiz-adv-x="531" unicode="₹"/><glyph d="M431 161l74-94-24-24-77 96q-25-18-55.5-27t-64.5-9q-38 0-70 11.5T157 148L36 43 14 67l121 107q-15 22-23 49.5t-8 58.5q0 46 17 87t48 71l-74 93 25 24 76-95q26 17 56 26t63 9q38 0 70.5-12t57.5-34l122 106 21-25-122-107q15-21 23-48.5t8-58.5q0-45-16.5-86T431 161zm26 156q0 68-37.5 107T315 463q-75 0-123.5-51T143 283q0-69 37.5-108T284 136q76 0 124.5 51T457 317z" glyph-name="currency" horiz-adv-x="580" unicode="¤"/><glyph d="M369 690q113 0 164.5-88T559 366l-11-65q-27-153-95.5-232T277-10q-114 0-165.5 88T87 315l11 65q27 153 95.5 231.5T369 690zm76-436l28 165q20 118-6.5 178.5T369 658q-67 0-106.5-55T201 426l-28-165q-20-117 6-178t97-61q67 0 107 55t62 177z" glyph-name="zero" horiz-adv-x="614" unicode="0"/><glyph d="M105 569l-14 28 147 83h71L204 81q-6-33-4.5-40t17.5-9l54-6-5-26H5l5 26 76 6q17 1 21 8.5T117 81l96 549z" glyph-name="one" horiz-adv-x="353" unicode="1"/><glyph d="M429 206h26L419 0H17l10 53q14 78 58.5 135.5T242 313q59 36 83.5 54t41.5 37q26 29 39 64t13 78q0 58-23 85t-73 27q-63 0-98.5-48T182 467l-84 16q0 91 61.5 149T323 690q90 0 140-43.5T513 526q0-51-21.5-90.5T424 363q-33-23-98.5-54T252 274q-79-40-122.5-88T69 75h254q31 0 40.5 3.5T382 101z" glyph-name="two" horiz-adv-x="539" unicode="2"/><glyph d="M326 349q65-15 98.5-54T458 195q0-89-66-147T215-10q-86 0-134 39T23 147l57 18q0-70 32-106.5T205 22q71 0 114 50.5T362 205q0 66-34 97.5T224 334h-27l7 32h27q85 0 132.5 50T411 551q0 54-23 80.5T318 658q-65 0-100.5-47.5T175 467l-84 16q0 90 63 148.5T320 690q89 0 138-41t49-113q0-73-47-121.5T326 349z" glyph-name="three" horiz-adv-x="527" unicode="3"/><glyph d="M272 81l17 95H0l5 32q122 110 193.5 215T326 680h106q-54-123-144-235T51 208h243l28 157 89 14-30-171h77l-6-32h-76l-17-95q-6-33-4.5-40t17.5-9l54-6-5-26H160l5 26 76 6q17 1 21 7.5T272 81z" glyph-name="four" horiz-adv-x="495" unicode="4"/><glyph d="M110 339l-18 9 77 332h247q36 0 43 3t15 23l21 56h26l-27-159H185l-48-209q29 17 63 26t69 9q89 0 139-49t50-137q0-109-69.5-181T201-10q-75 0-118.5 39.5T30 147l57 18q-1-71 27-107t83-36q74 0 120.5 68T364 263q0 68-25.5 100T260 395q-38 0-75-14t-75-42z" glyph-name="five" horiz-adv-x="511" unicode="5"/><glyph d="M508 193l-3-17q-12-83-76.5-134.5T273-10q-115 0-163 85.5T87 316l11 63q26 156 94.5 233.5T373 690q96 0 145-56.5T547 496l-88-15q23 86 0 131.5T370 658q-66 0-107-54.5T203 437l-18-104q34 33 74 50t84 17q86 0 132-58t33-149zm-333 84l-4-21q-20-118 4.5-176T270 22q59 0 95 39.5T413 178l2 13q13 83-10.5 127.5T324 363q-42 0-80-22t-69-64z" glyph-name="six" horiz-adv-x="575" unicode="6"/><glyph d="M515 680l-12-69Q382 483 319.5 351T209 0H103q57 197 135 330t218 273H193q-31 0-40.5-3.5T135 577l-42-97H66l36 200z" glyph-name="seven" horiz-adv-x="456" unicode="7"/><glyph d="M355 365q60-33 90.5-78.5T476 185q0-85-62.5-140T248-10q-95 0-152.5 44T38 147q0 60 46.5 110.5T215 338q-53 33-78 73t-25 90q0 84 58.5 136.5T326 690q87 0 140-41.5T519 539q0-58-42.5-104T355 365zM192 534q0-41 20.5-70.5T288 403l39-22q54 20 82 61t28 97q0 56-31 87.5T322 658q-58 0-94-33.5T192 534zm-72-385q0-60 34.5-93.5T251 22q66 0 106 36.5t40 97.5q0 44-23 75.5T299 291l-56 30q-59-22-91-67t-32-105z" glyph-name="eight" horiz-adv-x="544" unicode="8"/><glyph d="M519 363l-10-63q-25-153-98-231.5T222-10q-77 0-122 40T47 146l62 18q-2-71 26-106.5T220 22q71 0 118.5 56T404 243l14 82q-33-31-72.5-47T264 262q-87 0-133.5 61T99 479l3 18q13 86 77.5 139.5T334 690q115 0 163-86t22-241zM194 495l-3-17q-13-86 10.5-132.5T283 299q39 0 76.5 20.5T427 379l8 45q21 118-3.5 176T337 658q-58 0-94-41t-49-122z" glyph-name="nine" horiz-adv-x="575" unicode="9"/><glyph d="M325 690q113 0 164.5-88T515 366l-11-65q-27-153-95.5-232T233-10Q119-10 67.5 78T43 315l11 65q27 153 95.5 231.5T325 690zm76-436l28 165q20 118-6.5 178.5T325 658q-67 0-106.5-55T157 426l-28-165q-20-117 6-178t97-61q67 0 107 55t62 177z" glyph-name="zero.tlf" horiz-adv-x="525"/><glyph d="M151 541l-14 28 192 111h72L296 82q-6-33-4-40t17-9l95-7-4-26H61l4 26 113 7q17 2 21 9.5T209 82l96 548z" glyph-name="one.tlf" horiz-adv-x="525"/><glyph d="M425 206h26L415 0H13l10 53q14 78 58.5 135.5T238 313q59 36 83.5 54t41.5 37q26 29 39 64t13 78q0 58-23 85t-73 27q-63 0-98.5-48T178 467l-84 16q0 91 61.5 149T319 690q90 0 140-43.5T509 526q0-51-21.5-90.5T420 363q-33-23-98.5-54T248 274q-79-40-122.5-88T65 75h254q31 0 40.5 3.5T378 101z" glyph-name="two.tlf" horiz-adv-x="525"/><glyph d="M327 349q65-15 98.5-54T459 195q0-89-66-147T216-10q-86 0-134 39T24 147l57 18q0-70 32-106.5T206 22q71 0 114 50.5T363 205q0 66-34 97.5T225 334h-27l7 32h27q85 0 132.5 50T412 551q0 54-23 80.5T319 658q-65 0-100.5-47.5T176 467l-84 16q0 90 63 148.5T321 690q89 0 138-41t49-113q0-73-47-121.5T327 349z" glyph-name="three.tlf" horiz-adv-x="525"/><glyph d="M288 81l17 95H16l5 32q122 110 193.5 215T342 680h106q-54-123-144-235T67 208h243l28 157 89 14-30-171h77l-6-32h-76l-17-95q-6-33-4.5-40t17.5-9l54-6-5-26H176l5 26 76 6q17 1 21 7.5T288 81z" glyph-name="four.tlf" horiz-adv-x="525"/><glyph d="M114 339l-18 9 77 332h247q36 0 43 3t15 23l21 56h26l-27-159H189l-48-209q29 17 63 26t69 9q89 0 139-49t50-137q0-109-69.5-181T205-10q-75 0-118.5 39.5T34 147l57 18q-1-71 27-107t83-36q74 0 120.5 68T368 263q0 68-25.5 100T264 395q-38 0-75-14t-75-42z" glyph-name="five.tlf" horiz-adv-x="525"/><glyph d="M480 193l-3-17q-12-83-76.5-134.5T245-10Q130-10 82 75.5T59 316l11 63q26 156 94.5 233.5T345 690q96 0 145-56.5T519 496l-88-15q23 86 0 131.5T342 658q-66 0-107-54.5T175 437l-18-104q34 33 74 50t84 17q86 0 132-58t33-149zm-333 84l-4-21q-20-118 4.5-176T242 22q59 0 95 39.5T385 178l2 13q13 83-10.5 127.5T296 363q-42 0-80-22t-69-64z" glyph-name="six.tlf" horiz-adv-x="525"/><glyph d="M544 680l-12-69Q411 483 348.5 351T238 0H132q57 197 135 330t218 273H222q-31 0-40.5-3.5T164 577l-42-97H95l36 200z" glyph-name="seven.tlf" horiz-adv-x="525"/><glyph d="M346 365q60-33 90.5-78.5T467 185q0-85-62.5-140T239-10q-95 0-152.5 44T29 147q0 60 46.5 110.5T206 338q-53 33-78 73t-25 90q0 84 58.5 136.5T317 690q87 0 140-41.5T510 539q0-58-42.5-104T346 365zM183 534q0-41 20.5-70.5T279 403l39-22q54 20 82 61t28 97q0 56-31 87.5T313 658q-58 0-94-33.5T183 534zm-72-385q0-60 34.5-93.5T242 22q66 0 106 36.5t40 97.5q0 44-23 75.5T290 291l-56 30q-59-22-91-67t-32-105z" glyph-name="eight.tlf" horiz-adv-x="525"/><glyph d="M498 363l-10-63q-25-153-98-231.5T201-10q-77 0-122 40T26 146l62 18q-2-71 26-106.5T199 22q71 0 118.5 56T383 243l14 82q-33-31-72.5-47T243 262q-87 0-133.5 61T78 479l3 18q13 86 77.5 139.5T313 690q115 0 163-86t22-241zM173 495l-3-17q-13-86 10.5-132.5T262 299q39 0 76.5 20.5T406 379l8 45q21 118-3.5 176T316 658q-58 0-94-41t-49-122z" glyph-name="nine.tlf" horiz-adv-x="525"/><glyph d="M316 505q104 0 156-74t31-189l-4-22q-20-110-85.5-170T247-10Q144-10 93 64T62 252l4 23q20 110 85 170t165 60zm90-298l11 61q17 100-10 153t-94 53q-61 0-100-47t-55-139l-11-61q-17-100 10-153.5T250 20q62 0 101.5 47T406 207z" glyph-name="zero.posf" horiz-adv-x="565"/><glyph d="M67 384l-14 28 147 83h71L198 81q-6-33-4.5-40t17.5-9l54-6-4-26H0l4 26 76 6q16 1 20.5 7.5T111 81l64 364z" glyph-name="one.posf" horiz-adv-x="337"/><glyph d="M398 165h27L395 0H32l9 55q10 56 44 93.5T190 218q111 49 145 86t34 91q0 40-19 59t-58 19q-54 0-83.5-40T173 312l-85 16q0 78 56.5 127.5T296 505q79 0 123.5-33.5T464 379q0-40-23-69.5T366 254q-26-13-81-34t-76-30q-58-24-86.5-51T82 74h229q33 0 41.5 3.5T370 100z" glyph-name="two.posf" horiz-adv-x="522"/><glyph d="M315 52q0 59-24.5 87T215 167h-27l6 32 214 219H190q-31 0-40.5-3.5T131 392l-42-97H63l35 200h378l-12-69-224-228q78-5 124.5-47T411 40q0-100-68-167.5T163-195q-80 0-124 39T-13-38l65 18q-1-72 26.5-107.5T162-163q69 0 111 59.5T315 52z" glyph-name="three.posf" horiz-adv-x="505"/><glyph d="M317-178l-90-17L262 0H-26l5 32q124 113 194.5 215.5T297 495h106q-52-119-141-228T24 32h243l26 146 89 14-28-160h77l-5-32h-78z" glyph-name="four.posf" horiz-adv-x="491"/><glyph d="M76 154l-18 9 77 332h247q36 0 43 3t15 23l21 56h26l-27-159H151l-48-209q29 17 63 26t69 9q89 0 139-49t50-137q0-109-69.5-181T167-195q-75 0-118.5 39.5T-4-38l57 18q-1-71 27-107t83-36q74 0 120.5 68T330 78q0 68-25.5 100T226 210q-38 0-75-14t-75-42z" glyph-name="five.posf" horiz-adv-x="514"/><glyph d="M503 193l-3-17q-12-83-76.5-134.5T268-10q-115 0-163 85.5T82 316l11 63q26 156 94.5 233.5T368 690q96 0 145-56.5T542 496l-88-15q23 86 0 131.5T365 658q-66 0-107-54.5T198 437l-18-104q34 33 74 50t84 17q86 0 132-58t33-149zm-333 84l-4-21q-20-118 4.5-176T265 22q59 0 95 39.5T408 178l2 13q13 83-10.5 127.5T319 363q-42 0-80-22t-69-64z" glyph-name="six.posf" horiz-adv-x="577"/><glyph d="M489 495l-12-69Q356 298 293.5 166T183-185H77q57 197 135 330t218 273H167q-31 0-40.5-3.5T109 392l-42-97H40l36 200z" glyph-name="seven.posf" horiz-adv-x="479"/><glyph d="M349 365q60-33 90.5-78.5T470 185q0-85-62.5-140T242-10q-95 0-152.5 44T32 147q0 60 46.5 110.5T209 338q-53 33-78 73t-25 90q0 84 58.5 136.5T320 690q87 0 140-41.5T513 539q0-58-42.5-104T349 365zM186 534q0-41 20.5-70.5T282 403l39-22q54 20 82 61t28 97q0 56-31 87.5T316 658q-58 0-94-33.5T186 534zm-72-385q0-60 34.5-93.5T245 22q66 0 106 36.5t40 97.5q0 44-23 75.5T293 291l-56 30q-59-22-91-67t-32-105z" glyph-name="eight.posf" horiz-adv-x="539"/><glyph d="M484 178l-10-63q-25-153-98-231.5T187-195q-77 0-122 40T12-39l62 18q-2-71 26-106.5t85-35.5q71 0 118.5 56T369 58l14 82q-33-31-72.5-47T229 77q-87 0-133.5 61T64 294l3 18q13 86 77.5 139.5T299 505q115 0 163-86t22-241zM159 310l-3-17q-13-86 10.5-132.5T248 114q39 0 76.5 20.5T392 194l8 45q21 118-3.5 176T302 473q-58 0-94-41t-49-122z" glyph-name="nine.posf" horiz-adv-x="576"/><glyph d="M404 546q0-76-50.5-128T228 366q-65 0-105 39.5T83 510q0 76 50.5 128T259 690q65 0 105-39.5T404 546zm-39-1q0 52-28.5 81.5T259 656q-61 0-99.5-41T121 511q0-53 28.5-82.5T228 399q60 0 98.5 41T365 545z" glyph-name="degree" horiz-adv-x="387" unicode="°"/><glyph d="M242 685q66 0 100.5-44.5T366 527l-3-16q-10-64-50.5-100T212 375q-66 0-100 44T89 531l2 16q10 64 50.5 101T242 685zM118 17l489 663 25-18L143 0zm179 485l7 42q9 54-7 84.5T244 659q-33 0-55.5-26T158 557l-7-41q-10-54 6-85t54-31q33 0 55.5 26t30.5 76zm242-197q66 0 100.5-44.5T663 147l-3-16q-10-64-50.5-100T509-5q-66 0-100 44t-23 112l3 16q10 64 50.5 101t99.5 37zm55-183l7 42q9 53-7 84t-53 31q-33 0-55.5-26T455 177l-7-41q-9-54 7-85t53-31q34 0 56 26t30 76z" glyph-name="percent" horiz-adv-x="719" unicode="%"/><glyph d="M242 685q66 0 100.5-44.5T366 527l-3-16q-10-64-50.5-100T212 375q-66 0-100 44T89 531l2 16q10 64 50.5 101T242 685zM118 17l489 663 25-18L143 0zm179 485l7 42q9 54-7 84.5T244 659q-33 0-55.5-26T158 557l-7-41q-10-54 6-85t54-31q33 0 55.5 26t30.5 76zm242-197q66 0 100.5-44.5T663 147l-3-16q-10-64-50.5-100T509-5q-66 0-100 44t-23 112l3 16q10 64 50.5 101t99.5 37zm350 0q66 0 100.5-44.5T1013 147l-3-16q-10-64-50.5-100T859-5q-66 0-100 44t-23 112l3 16q10 64 50.5 101t99.5 37zM594 122l7 42q9 53-7 84t-53 31q-33 0-55.5-26T455 177l-7-41q-9-54 7-85t53-31q34 0 56 26t30 76zm350 0l7 42q9 53-7 84t-53 31q-33 0-55.5-26T805 177l-7-41q-9-54 7-85t53-31q34 0 56 26t30 76z" glyph-name="perthousand" horiz-adv-x="1069" unicode="‰"/><glyph d="M-215 17l489 663 25-18L-190 0z" glyph-name="fraction" horiz-adv-x="51" unicode="⁄"/><glyph d="M-215 17l489 663 25-18L-190 0z" glyph-name="uni2215" horiz-adv-x="51" unicode="∕"/><glyph d="M251 790q63 0 92.5-43.5T361 629l-6-35q-12-75-49-114.5T210 440q-63 0-93 43.5T100 601l7 35q13 77 49.5 115.5T251 790zm37-218l13 82q9 56-3 84.5T253 767q-31 0-50-26.5T174 658l-14-82q-10-55 2.5-84t45.5-29q32 0 51 26t29 83z" glyph-name="zerosuperior" horiz-adv-x="334" unicode="⁰"/><glyph d="M127 721l-12 23 74 41h50l-52-293q-3-16-2-19.5t9-4.5l28-3-4-20H72l4 20 38 3q7 1 9 2.5t3 5.5q0 1 1 4t2 12l46 256z" glyph-name="onesuperior" horiz-adv-x="216" unicode="¹"/><glyph d="M278 544h20l-17-99H64l5 27q9 48 29 74t79 55q48 24 68.5 50.5T266 717q0 25-9 37.5T229 767q-30 0-46-22t-20-68l-57 8q0 46 33 75.5t88 29.5q49 0 75.5-21.5T329 708q0-36-26.5-63.5T181 572q-36-16-54-35t-25-48h130q17 0 21.5 2t7.5 11z" glyph-name="twosuperior" horiz-adv-x="290" unicode="²"/><glyph d="M244 619q30-9 45.5-27t15.5-46q0-46-36-76t-97-30q-46 0-71 18.5T72 513l35 10q-1-30 15-46t46-16q34 0 54 24.5t20 65.5q0 29-16 43.5T179 609h-18l4 21h18q39 0 61.5 25t22.5 66q0 23-10.5 35.5T226 769q-29 0-45.5-22T160 679l-56 8q-1 46 31 74.5t89 28.5q50 0 77.5-21.5T329 709q0-34-22-57.5T244 619z" glyph-name="threesuperior" horiz-adv-x="291" unicode="³"/><glyph d="M197 491l7 39H56l3 21q67 61 101.5 112.5T219 785h67q-19-50-57.5-98.5T91 551h117l13 77 59 6-15-83h39l-4-21h-38l-7-39q-1-8-1.5-11t-.5-5q-1-4 .5-6t8.5-3l26-3-3-18H145l4 18 33 3q8 1 10 4.5t5 20.5z" glyph-name="foursuperior" horiz-adv-x="266" unicode="⁴"/><glyph d="M117 612l-12 5 39 168h151.5q3.5 0 5.5 1 4 0 6 2t4 10l10 28h14l-16-85H155l-22-95q15 8 31.5 12.5T199 663q49 0 77.5-26t28.5-72q0-55-37-90t-100-35q-41 0-65 18t-29 52l34 10q1-29 14.5-44t38.5-15q36 0 58 32.5t22 82.5q0 33-12.5 49T191 641q-18 0-36-7t-38-22z" glyph-name="fivesuperior" horiz-adv-x="277" unicode="⁵"/><glyph d="M333 543l-1-7q-6-44-40-70t-86-26q-61 0-88 41.5T103 598l5 31q13 80 50 120.5t96 40.5q55 0 83-29t16-70l-61-8q12 42 3 64t-39 22q-33 0-52-26.5T175 659l-6-33q15 12 32.5 17.5T239 649q48 0 74-29.5t20-76.5zm-170 48l-4-23q-9-53 2.5-80t42.5-27q26 0 43 20t24 59l1 5q6 40-4.5 60.5T230 626q-19 0-36-9t-31-26z" glyph-name="sixsuperior" horiz-adv-x="318" unicode="⁶"/><glyph d="M341 785l-7-39q-62-67-91.5-130T189 445h-68q27 90 67 156t113 140H174q-17 0-21.5-2t-7.5-11l-15-42h-21l18 99z" glyph-name="sevensuperior" horiz-adv-x="272" unicode="⁷"/><glyph d="M260 631q31-18 46-39.5t15-49.5q0-45-33-73.5T198 440q-51 0-80.5 21.5T88 519q0 29 23 51.5t70 40.5q-30 18-43.5 37.5T124 693q0 43 31 70t85 27q47 0 75-21t28-55q0-26-20.5-46T260 631zm-81 80q0-18 9-30.5t35-26.5l18-11q24 14 35.5 32t11.5 41q0 24-13 37.5T239 767q-26 0-43-15.5T179 711zm-36-192q0-27 14.5-42t41.5-15q30 0 48.5 17t18.5 44q0 20-9 34t-33 27l-25 16q-28-16-42-36t-14-45z" glyph-name="eightsuperior" horiz-adv-x="311" unicode="⁸"/><glyph d="M334 630l-5-32q-12-78-51-118t-103-40q-41 0-65 18t-30 52l34 11q1-29 16.5-44.5T174 461q36 0 57 26.5t31 83.5l6 33q-15-12-32.5-18t-37.5-6q-48 0-73.5 29T105 685l1 12q6 43 38.5 68t81.5 25q63 0 91.5-42T334 630zm-168 60l-1-7q-6-40 4.5-59.5T207 604q19 0 36 9t31 26l4 23q9 53-2.5 80T231 769q-27 0-43.5-20T166 690z" glyph-name="ninesuperior" horiz-adv-x="307" unicode="⁹"/><glyph d="M155 240q63 0 92.5-43.5T265 79l-6-35q-12-75-49-114.5T114-110q-63 0-93 43.5T4 51l7 35q13 77 49.5 115.5T155 240zm37-218l13 82q9 56-3 84.5T157 217q-31 0-50-26.5T78 108L64 26q-10-55 2.5-84T112-87q32 0 51 26t29 83z" glyph-name="zeroinferior" horiz-adv-x="334" unicode="₀"/><glyph d="M31 171l-12 23 74 41h50L91-58q-3-16-2-19.5t9-4.5l28-3-4-20H-24l4 20 38 3q7 1 9 2.5t3 5.5q0 1 1 4t2 12l46 256z" glyph-name="oneinferior" horiz-adv-x="216" unicode="₁"/><glyph d="M182-6h20l-17-99H-32l5 27q9 48 29 74t79 55q48 24 68.5 50.5T170 167q0 25-9 37.5T133 217q-30 0-46-22t-20-68l-57 8q0 46 33 75.5t88 29.5q49 0 75.5-21.5T233 158q0-36-26.5-63.5T85 22Q49 6 31-13T6-61h130q17 0 21.5 2t7.5 11z" glyph-name="twoinferior" horiz-adv-x="290" unicode="₂"/><glyph d="M148 69q30-9 45.5-27T209-4q0-46-36-76t-97-30q-46 0-71 18.5T-24-37l35 10q-1-30 15-46t46-16q34 0 54 24.5T146 1q0 29-16 43.5T83 59H65l4 21h18q39 0 61.5 25t22.5 66q0 23-10.5 35.5T130 219q-29 0-45.5-22T64 129l-56 8q-1 46 31 74.5t89 28.5q50 0 77.5-21.5T233 159q0-34-22-57.5T148 69z" glyph-name="threeinferior" horiz-adv-x="291" unicode="₃"/><glyph d="M100-59l7 39H-41l3 21Q29 62 63.5 113.5T122 235h67q-19-50-57.5-98.5T-6 1h117l13 77 59 6-15-83h39l-4-21h-38l-7-39q-1-8-1.5-11t-.5-5q-1-4 .5-6t8.5-3l26-3-3-18H48l4 18 33 3q8 1 10 4.5t5 20.5z" glyph-name="fourinferior" horiz-adv-x="266" unicode="₄"/><glyph d="M21 62L9 67l39 168h151.5q3.5 0 5.5 1 4 0 6 2t4 10l10 28h14l-16-85H59L37 96q15 8 31.5 12.5T103 113q49 0 77.5-26T209 15q0-55-37-90T72-110q-41 0-65 18t-29 52l34 10q1-29 14.5-44T65-89q36 0 58 32.5T145 26q0 33-12.5 49T95 91q-18 0-36-7T21 62z" glyph-name="fiveinferior" horiz-adv-x="277" unicode="₅"/><glyph d="M237-7l-1-7q-6-44-40-70t-86-26q-61 0-88 41.5T7 48l5 31q13 80 50 120.5t96 40.5q55 0 83-29t16-70l-61-8q12 42 3 64t-39 22q-33 0-52-26.5T79 109l-6-33q15 12 32.5 17.5T143 99q48 0 74-29.5T237-7zM67 41l-4-23q-9-53 2.5-80T108-89q26 0 43 20t24 59l1 5q6 40-4.5 60.5T134 76q-19 0-36-9T67 41z" glyph-name="sixinferior" horiz-adv-x="318" unicode="₆"/><glyph d="M245 235l-7-39q-62-67-91.5-130T93-105H25Q52-15 92 51t113 140H78q-17 0-21.5-2T49 178l-15-42H13l18 99z" glyph-name="seveninferior" horiz-adv-x="272" unicode="₇"/><glyph d="M164 81q31-18 46-39.5T225-8q0-45-33-73.5T102-110q-51 0-80.5 21.5T-8-31q0 29 23 51.5T85 61Q55 79 41.5 98.5T28 143q0 43 31 70t85 27q47 0 75-21t28-55q0-26-20.5-46T164 81zm-81 80q0-18 9-30.5t35-26.5l18-11q24 14 35.5 32t11.5 41q0 24-13 37.5T143 217q-26 0-43-15.5T83 161zM47-31q0-27 14.5-42T103-88q30 0 48.5 17T170-27q0 20-9 34t-33 27l-25 16Q75 34 61 14T47-31z" glyph-name="eightinferior" horiz-adv-x="311" unicode="₈"/><glyph d="M238 80l-5-32q-12-78-51-118T79-110q-41 0-65 18t-30 52l34 11q1-29 16.5-44.5T78-89q36 0 57 26.5T166 21l6 33q-15-12-32.5-18T102 30q-48 0-73.5 29T9 135l1 12q6 43 38.5 68t81.5 25q63 0 91.5-42T238 80zM70 140l-1-7q-6-40 4.5-59.5T111 54q19 0 36 9t31 26l4 23q9 53-2.5 80T135 219q-27 0-43.5-20T70 140z" glyph-name="nineinferior" horiz-adv-x="307" unicode="₉"/><glyph d="M155 240q63 0 92.5-43.5T265 79l-6-35q-12-75-49-114.5T114-110q-63 0-93 43.5T4 51l7 35q13 77 49.5 115.5T155 240zm37-218l13 82q9 56-3 84.5T157 217q-31 0-50-26.5T78 108L64 26q-10-55 2.5-84T112-87q32 0 51 26t29 83z" glyph-name="zero.numerator" horiz-adv-x="334"/><glyph d="M31 171l-12 23 74 41h50L91-58q-3-16-2-19.5t9-4.5l28-3-4-20H-24l4 20 38 3q7 1 9 2.5t3 5.5q0 1 1 4t2 12l46 256z" glyph-name="one.numerator" horiz-adv-x="216"/><glyph d="M182-6h20l-17-99H-32l5 27q9 48 29 74t79 55q48 24 68.5 50.5T170 167q0 25-9 37.5T133 217q-30 0-46-22t-20-68l-57 8q0 46 33 75.5t88 29.5q49 0 75.5-21.5T233 158q0-36-26.5-63.5T85 22Q49 6 31-13T6-61h130q17 0 21.5 2t7.5 11z" glyph-name="two.numerator" horiz-adv-x="290"/><glyph d="M148 69q30-9 45.5-27T209-4q0-46-36-76t-97-30q-46 0-71 18.5T-24-37l35 10q-1-30 15-46t46-16q34 0 54 24.5T146 1q0 29-16 43.5T83 59H65l4 21h18q39 0 61.5 25t22.5 66q0 23-10.5 35.5T130 219q-29 0-45.5-22T64 129l-56 8q-1 46 31 74.5t89 28.5q50 0 77.5-21.5T233 159q0-34-22-57.5T148 69z" glyph-name="three.numerator" horiz-adv-x="291"/><glyph d="M100-59l7 39H-41l3 21Q29 62 63.5 113.5T122 235h67q-19-50-57.5-98.5T-6 1h117l13 77 59 6-15-83h39l-4-21h-38l-7-39q-1-8-1.5-11t-.5-5q-1-4 .5-6t8.5-3l26-3-3-18H48l4 18 33 3q8 1 10 4.5t5 20.5z" glyph-name="four.numerator" horiz-adv-x="265"/><glyph d="M21 62L9 67l39 168h151.5q3.5 0 5.5 1 4 0 6 2t4 10l10 28h14l-16-85H59L37 96q15 8 31.5 12.5T103 113q49 0 77.5-26T209 15q0-55-37-90T72-110q-41 0-65 18t-29 52l34 10q1-29 14.5-44T65-89q36 0 58 32.5T145 26q0 33-12.5 49T95 91q-18 0-36-7T21 62z" glyph-name="five.numerator" horiz-adv-x="277"/><glyph d="M237-7l-1-7q-6-44-40-70t-86-26q-61 0-88 41.5T7 48l5 31q13 80 50 120.5t96 40.5q55 0 83-29t16-70l-61-8q12 42 3 64t-39 22q-33 0-52-26.5T79 109l-6-33q15 12 32.5 17.5T143 99q48 0 74-29.5T237-7zM67 41l-4-23q-9-53 2.5-80T108-89q26 0 43 20t24 59l1 5q6 40-4.5 60.5T134 76q-19 0-36-9T67 41z" glyph-name="six.numerator" horiz-adv-x="318"/><glyph d="M245 235l-7-39q-62-67-91.5-130T93-105H25Q52-15 92 51t113 140H78q-17 0-21.5-2T49 178l-15-42H13l18 99z" glyph-name="seven.numerator" horiz-adv-x="272"/><glyph d="M164 81q31-18 46-39.5T225-8q0-45-33-73.5T102-110q-51 0-80.5 21.5T-8-31q0 29 23 51.5T85 61Q55 79 41.5 98.5T28 143q0 43 31 70t85 27q47 0 75-21t28-55q0-26-20.5-46T164 81zm-81 80q0-18 9-30.5t35-26.5l18-11q24 14 35.5 32t11.5 41q0 24-13 37.5T143 217q-26 0-43-15.5T83 161zM47-31q0-27 14.5-42T103-88q30 0 48.5 17T170-27q0 20-9 34t-33 27l-25 16Q75 34 61 14T47-31z" glyph-name="eight.numerator" horiz-adv-x="311"/><glyph d="M238 80l-5-32q-12-78-51-118T79-110q-41 0-65 18t-30 52l34 11q1-29 16.5-44.5T78-89q36 0 57 26.5T166 21l6 33q-15-12-32.5-18T102 30q-48 0-73.5 29T9 135l1 12q6 43 38.5 68t81.5 25q63 0 91.5-42T238 80zM70 140l-1-7q-6-40 4.5-59.5T111 54q19 0 36 9t31 26l4 23q9 53-2.5 80T135 219q-27 0-43.5-20T70 140z" glyph-name="nine.numerator" horiz-adv-x="307"/><glyph d="M174 345q63 0 92.5-43.5T284 184l-6-35q-12-75-49-114.5T133-5Q70-5 40 38.5T23 156l7 35q13 77 49.5 115.5T174 345zm37-218l13 82q9 56-3 84.5T176 322q-31 0-50-26.5T97 213l-14-82q-10-55 2.5-84T131 18q32 0 51 26t29 83z" glyph-name="zero.denominator" horiz-adv-x="334"/><glyph d="M50 276l-12 23 74 41h50L110 47q-3-16-2-19.5t9-4.5l28-3-4-20H-5l4 20 38 3q7 1 9 2.5t3 5.5q0 1 1 4t2 12l46 256z" glyph-name="one.denominator" horiz-adv-x="216"/><glyph d="M201 99h20L204 0H-13l5 27q9 48 29 74t79 55q48 24 68.5 50.5T189 272q0 25-9 37.5T152 322q-30 0-46-22t-20-68l-57 8q0 46 33 75.5t88 29.5q49 0 75.5-21.5T252 263q0-36-26.5-63.5T104 127q-36-16-54-35T25 44h130q17 0 21.5 2t7.5 11z" glyph-name="two.denominator" horiz-adv-x="290"/><glyph d="M167 174q30-9 45.5-27t15.5-46q0-46-36-76T95-5Q49-5 24 13.5T-5 68l35 10q-1-30 15-46t46-16q34 0 54 24.5t20 65.5q0 29-16 43.5T102 164H84l4 21h18q39 0 61.5 25t22.5 66q0 23-10.5 35.5T149 324q-29 0-45.5-22T83 234l-56 8q-1 46 31 74.5t89 28.5q50 0 77.5-21.5T252 264q0-34-22-57.5T167 174z" glyph-name="three.denominator" horiz-adv-x="291"/><glyph d="M119 46l7 39H-22l3 21q67 61 101.5 112.5T141 340h67q-19-50-57.5-98.5T13 106h117l13 77 59 6-15-83h39l-4-21h-38l-7-39q-1-8-1.5-11t-.5-5q-1-4 .5-6t8.5-3l26-3-3-18H67l4 18 33 3q8 1 10 4.5t5 20.5z" glyph-name="four.denominator" horiz-adv-x="266"/><glyph d="M40 167l-12 5 39 168h151.5q3.5 0 5.5 1 4 0 6 2t4 10l10 28h14l-16-85H78l-22-95q15 8 31.5 12.5T122 218q49 0 77.5-26t28.5-72q0-55-37-90T91-5Q50-5 26 13T-3 65l34 10q1-29 14.5-44T84 16q36 0 58 32.5t22 82.5q0 33-12.5 49T114 196q-18 0-36-7t-38-22z" glyph-name="five.denominator" horiz-adv-x="277"/><glyph d="M256 98l-1-7q-6-44-40-70T129-5Q68-5 41 36.5T26 153l5 31q13 80 50 120.5t96 40.5q55 0 83-29t16-70l-61-8q12 42 3 64t-39 22q-33 0-52-26.5T98 214l-6-33q15 12 32.5 17.5T162 204q48 0 74-29.5T256 98zM86 146l-4-23q-9-53 2.5-80T127 16q26 0 43 20t24 59l1 5q6 40-4.5 60.5T153 181q-19 0-36-9t-31-26z" glyph-name="six.denominator" horiz-adv-x="318"/><glyph d="M264 340l-7-39q-62-67-91.5-130T112 0H44q27 90 67 156t113 140H97q-17 0-21.5-2T68 283l-15-42H32l18 99z" glyph-name="seven.denominator" horiz-adv-x="272"/><glyph d="M183 186q31-18 46-39.5T244 97q0-45-33-73.5T121-5Q70-5 40.5 16.5T11 74q0 29 23 51.5t70 40.5q-30 18-43.5 37.5T47 248q0 43 31 70t85 27q47 0 75-21t28-55q0-26-20.5-46T183 186zm-81 80q0-18 9-30.5t35-26.5l18-11q24 14 35.5 32t11.5 41q0 24-13 37.5T162 322q-26 0-43-15.5T102 266zM66 74q0-27 14.5-42T122 17q30 0 48.5 17T189 78q0 20-9 34t-33 27l-25 16q-28-16-42-36T66 74z" glyph-name="eight.denominator" horiz-adv-x="311"/><glyph d="M257 185l-5-32q-12-78-51-118T98-5Q57-5 33 13T3 65l34 11q1-29 16.5-44.5T97 16q36 0 57 26.5t31 83.5l6 33q-15-12-32.5-18t-37.5-6q-48 0-73.5 29T28 240l1 12q6 43 38.5 68t81.5 25q63 0 91.5-42T257 185zM89 245l-1-7q-6-40 4.5-59.5T130 159q19 0 36 9t31 26l4 23q9 53-2.5 80T154 324q-27 0-43.5-20T89 245z" glyph-name="nine.denominator" horiz-adv-x="307"/><glyph d="M109 616l-12 23 74 41h50l-52-293q-3-16-2-19.5t9-4.5l28-3-4-20H54l4 20 38 3q7 1 9 2.5t3 5.5q0 1 1 4t2 12l46 256zM38 17l489 663 25-18L63 0zm477 82h20L518 0H301l5 27q9 48 29 74t79 55q48 24 68.5 50.5T503 272q0 25-9 37.5T466 322q-30 0-46-22t-20-68l-57 8q0 46 33 75.5t88 29.5q49 0 75.5-21.5T566 263q0-36-26.5-63.5T418 127q-36-16-54-35t-25-48h130q17 0 21.5 2t7.5 11z" glyph-name="onehalf" horiz-adv-x="605" unicode="½"/><glyph d="M109 616l-12 23 74 41h50l-52-293q-3-16-2-19.5t9-4.5l28-3-4-20H54l4 20 38 3q7 1 9 2.5t3 5.5q0 1 1 4t2 12l46 256zM38 17l489 663 25-18L63 0zm448 157q30-9 45.5-27t15.5-46q0-46-36-76T414-5q-46 0-71 18.5T314 68l35 10q-1-30 15-46t46-16q34 0 54 24.5t20 65.5q0 29-16 43.5T421 164h-18l4 21h18q39 0 61.5 25t22.5 66q0 23-10.5 35.5T468 324q-29 0-45.5-22T402 234l-56 8q-1 46 31 74.5t89 28.5q50 0 77.5-21.5T571 264q0-34-22-57.5T486 174z" glyph-name="onethird" horiz-adv-x="610" unicode="⅓"/><glyph d="M109 616l-12 23 74 41h50l-52-293q-3-16-2-19.5t9-4.5l28-3-4-20H54l4 20 38 3q7 1 9 2.5t3 5.5q0 1 1 4t2 12l46 256zM38 17l489 663 25-18L63 0zm396 29l7 39H293l3 21q67 61 101.5 112.5T456 340h67q-19-50-57.5-98.5T328 106h117l13 77 59 6-15-83h39l-4-21h-38l-7-39q-1-8-1.5-11t-.5-5q-1-4 .5-6t8.5-3l26-3-3-18H382l4 18 33 3q8 1 10 4.5t5 20.5z" glyph-name="onequarter" horiz-adv-x="573" unicode="¼"/><glyph d="M109 616l-12 23 74 41h50l-52-293q-3-16-2-19.5t9-4.5l28-3-4-20H54l4 20 38 3q7 1 9 2.5t3 5.5q0 1 1 4t2 12l46 256zM38 17l489 663 25-18L63 0zm328 150l-12 5 39 168h151.5q3.5 0 5.5 1 4 0 6 2t4 10l10 28h14l-16-85H404l-22-95q15 8 31.5 12.5T448 218q49 0 77.5-26t28.5-72q0-55-37-90T417-5q-41 0-65 18t-29 52l34 10q1-29 14.5-44T410 16q36 0 58 32.5t22 82.5q0 33-12.5 49T440 196q-18 0-36-7t-38-22z" glyph-name="onefifth" horiz-adv-x="603"/><glyph d="M109 616l-12 23 74 41h50l-52-293q-3-16-2-19.5t9-4.5l28-3-4-20H54l4 20 38 3q7 1 9 2.5t3 5.5q0 1 1 4t2 12l46 256zM38 17l489 663 25-18L63 0zm526 81l-1-7q-6-44-40-70T437-5q-61 0-88 41.5T334 153l5 31q13 80 50 120.5t96 40.5q55 0 83-29t16-70l-61-8q12 42 3 64t-39 22q-33 0-52-26.5T406 214l-6-33q15 12 32.5 17.5T470 204q48 0 74-29.5T564 98zm-170 48l-4-23q-9-53 2.5-80T435 16q26 0 43 20t24 59l1 5q6 40-4.5 60.5T461 181q-19 0-36-9t-31-26z" glyph-name="onesixth" horiz-adv-x="626"/><glyph d="M109 616l-12 23 74 41h50l-52-293q-3-16-2-19.5t9-4.5l28-3-4-20H54l4 20 38 3q7 1 9 2.5t3 5.5q0 1 1 4t2 12l46 256zM38 17l489 663 25-18L63 0zm557 323l-7-39q-62-67-91.5-130T443 0h-68q27 90 67 156t113 140H428q-17 0-21.5-2t-7.5-11l-15-42h-21l18 99z" glyph-name="oneseventh" horiz-adv-x="603"/><glyph d="M109 616l-12 23 74 41h50l-52-293q-3-16-2-19.5t9-4.5l28-3-4-20H54l4 20 38 3q7 1 9 2.5t3 5.5q0 1 1 4t2 12l46 256zM38 17l489 663 25-18L63 0zm455 169q31-18 46-39.5T554 97q0-45-33-73.5T431-5q-51 0-80.5 21.5T321 74q0 29 23 51.5t70 40.5q-30 18-43.5 37.5T357 248q0 43 31 70t85 27q47 0 75-21t28-55q0-26-20.5-46T493 186zm-81 80q0-18 9-30.5t35-26.5l18-11q24 14 35.5 32t11.5 41q0 24-13 37.5T472 322q-26 0-43-15.5T412 266zM376 74q0-27 14.5-42T432 17q30 0 48.5 17T499 78q0 20-9 34t-33 27l-25 16q-28-16-42-36t-14-45z" glyph-name="oneeighth" horiz-adv-x="621" unicode="⅛"/><glyph d="M109 616l-12 23 74 41h50l-52-293q-3-16-2-19.5t9-4.5l28-3-4-20H54l4 20 38 3q7 1 9 2.5t3 5.5q0 1 1 4t2 12l46 256zM38 17l489 663 25-18L63 0zm543 168l-5-32q-12-78-51-118T422-5q-41 0-65 18t-30 52l34 11q1-29 16.5-44.5T421 16q36 0 57 26.5t31 83.5l6 33q-15-12-32.5-18t-37.5-6q-48 0-73.5 29T352 240l1 12q6 43 38.5 68t81.5 25q63 0 91.5-42T581 185zm-168 60l-1-7q-6-40 4.5-59.5T454 159q19 0 36 9t31 26l4 23q9 53-2.5 80T478 324q-27 0-43.5-20T413 245z" glyph-name="oneninth" horiz-adv-x="631"/><glyph d="M260 439h20l-17-99H46l5 27q9 48 29 74t79 55q48 24 68.5 50.5T248 612q0 25-9 37.5T211 662q-30 0-46-22t-20-68l-57 8q0 46 33 75.5t88 29.5q49 0 75.5-21.5T311 603q0-36-26.5-63.5T163 467q-36-16-54-35t-25-48h130q17 0 21.5 2t7.5 11zM99 17l489 663 25-18L124 0zm448 157q30-9 45.5-27t15.5-46q0-46-36-76T475-5q-46 0-71 18.5T375 68l35 10q-1-30 15-46t46-16q34 0 54 24.5t20 65.5q0 29-16 43.5T482 164h-18l4 21h18q39 0 61.5 25t22.5 66q0 23-10.5 35.5T529 324q-29 0-45.5-22T463 234l-56 8q-1 46 31 74.5t89 28.5q50 0 77.5-21.5T632 264q0-34-22-57.5T547 174z" glyph-name="twothirds" horiz-adv-x="671" unicode="⅔"/><glyph d="M260 439h20l-17-99H46l5 27q9 48 29 74t79 55q48 24 68.5 50.5T248 612q0 25-9 37.5T211 662q-30 0-46-22t-20-68l-57 8q0 46 33 75.5t88 29.5q49 0 75.5-21.5T311 603q0-36-26.5-63.5T163 467q-36-16-54-35t-25-48h130q17 0 21.5 2t7.5 11zM99 17l489 663 25-18L124 0zm328 150l-12 5 39 168h151.5q3.5 0 5.5 1 4 0 6 2t4 10l10 28h14l-16-85H465l-22-95q15 8 31.5 12.5T509 218q49 0 77.5-26t28.5-72q0-55-37-90T478-5q-41 0-65 18t-29 52l34 10q1-29 14.5-44T471 16q36 0 58 32.5t22 82.5q0 33-12.5 49T501 196q-18 0-36-7t-38-22z" glyph-name="twofifths" horiz-adv-x="664"/><glyph d="M260 439h20l-17-99H46l5 27q9 48 29 74t79 55q48 24 68.5 50.5T248 612q0 25-9 37.5T211 662q-30 0-46-22t-20-68l-57 8q0 46 33 75.5t88 29.5q49 0 75.5-21.5T311 603q0-36-26.5-63.5T163 467q-36-16-54-35t-25-48h130q17 0 21.5 2t7.5 11zM99 17l489 663 25-18L124 0zm557 323l-7-39q-62-67-91.5-130T504 0h-68q27 90 67 156t113 140H489q-17 0-21.5-2t-7.5-11l-15-42h-21l18 99z" glyph-name="twosevenths" horiz-adv-x="664"/><glyph d="M260 439h20l-17-99H46l5 27q9 48 29 74t79 55q48 24 68.5 50.5T248 612q0 25-9 37.5T211 662q-30 0-46-22t-20-68l-57 8q0 46 33 75.5t88 29.5q49 0 75.5-21.5T311 603q0-36-26.5-63.5T163 467q-36-16-54-35t-25-48h130q17 0 21.5 2t7.5 11zM99 17l489 663 25-18L124 0zm543 168l-5-32q-12-78-51-118T483-5q-41 0-65 18t-30 52l34 11q1-29 16.5-44.5T482 16q36 0 57 26.5t31 83.5l6 33q-15-12-32.5-18t-37.5-6q-48 0-73.5 29T413 240l1 12q6 43 38.5 68t81.5 25q63 0 91.5-42T642 185zm-168 60l-1-7q-6-40 4.5-59.5T515 159q19 0 36 9t31 26l4 23q9 53-2.5 80T539 324q-27 0-43.5-20T474 245z" glyph-name="twoninths" horiz-adv-x="692"/><glyph d="M226 514q30-9 45.5-27t15.5-46q0-46-36-76t-97-30q-46 0-71 18.5T54 408l35 10q-1-30 15-46t46-16q34 0 54 24.5t20 65.5q0 29-16 43.5T161 504h-18l4 21h18q39 0 61.5 25t22.5 66q0 23-10.5 35.5T208 664q-29 0-45.5-22T142 574l-56 8q-1 46 31 74.5t89 28.5q50 0 77.5-21.5T311 604q0-34-22-57.5T226 514zM93 17l489 663 25-18L118 0zm396 29l7 39H348l3 21q67 61 101.5 112.5T511 340h67q-19-50-57.5-98.5T383 106h117l13 77 59 6-15-83h39l-4-21h-38l-7-39q-1-8-1.5-11t-.5-5q-1-4 .5-6t8.5-3l26-3-3-18H437l4 18 33 3q8 1 10 4.5t5 20.5z" glyph-name="threequarters" horiz-adv-x="628" unicode="¾"/><glyph d="M226 514q30-9 45.5-27t15.5-46q0-46-36-76t-97-30q-46 0-71 18.5T54 408l35 10q-1-30 15-46t46-16q34 0 54 24.5t20 65.5q0 29-16 43.5T161 504h-18l4 21h18q39 0 61.5 25t22.5 66q0 23-10.5 35.5T208 664q-29 0-45.5-22T142 574l-56 8q-1 46 31 74.5t89 28.5q50 0 77.5-21.5T311 604q0-34-22-57.5T226 514zM93 17l489 663 25-18L118 0zm328 150l-12 5 39 168h151.5q3.5 0 5.5 1 4 0 6 2t4 10l10 28h14l-16-85H459l-22-95q15 8 31.5 12.5T503 218q49 0 77.5-26t28.5-72q0-55-37-90T472-5q-41 0-65 18t-29 52l34 10q1-29 14.5-44T465 16q36 0 58 32.5t22 82.5q0 33-12.5 49T495 196q-18 0-36-7t-38-22z" glyph-name="threefifths" horiz-adv-x="658"/><glyph d="M226 514q30-9 45.5-27t15.5-46q0-46-36-76t-97-30q-46 0-71 18.5T54 408l35 10q-1-30 15-46t46-16q34 0 54 24.5t20 65.5q0 29-16 43.5T161 504h-18l4 21h18q39 0 61.5 25t22.5 66q0 23-10.5 35.5T208 664q-29 0-45.5-22T142 574l-56 8q-1 46 31 74.5t89 28.5q50 0 77.5-21.5T311 604q0-34-22-57.5T226 514zM93 17l489 663 25-18L118 0zm557 323l-7-39q-62-67-91.5-130T498 0h-68q27 90 67 156t113 140H483q-17 0-21.5-2t-7.5-11l-15-42h-21l18 99z" glyph-name="threesevenths" horiz-adv-x="658"/><glyph d="M232 514q30-9 45.5-27t15.5-46q0-46-36-76t-97-30q-46 0-71 18.5T60 408l35 10q-1-30 15-46t46-16q34 0 54 24.5t20 65.5q0 29-16 43.5T167 504h-18l4 21h18q39 0 61.5 25t22.5 66q0 23-10.5 35.5T214 664q-29 0-45.5-22T148 574l-56 8q-1 46 31 74.5t89 28.5q50 0 77.5-21.5T317 604q0-34-22-57.5T232 514zM99 17l489 663 25-18L124 0zm455 169q31-18 46-39.5T615 97q0-45-33-73.5T492-5q-51 0-80.5 21.5T382 74q0 29 23 51.5t70 40.5q-30 18-43.5 37.5T418 248q0 43 31 70t85 27q47 0 75-21t28-55q0-26-20.5-46T554 186zm-81 80q0-18 9-30.5t35-26.5l18-11q24 14 35.5 32t11.5 41q0 24-13 37.5T533 322q-26 0-43-15.5T473 266zM437 74q0-27 14.5-42T493 17q30 0 48.5 17T560 78q0 20-9 34t-33 27l-25 16q-28-16-42-36t-14-45z" glyph-name="threeeighths" horiz-adv-x="682" unicode="⅜"/><glyph d="M178 386l7 39H37l3 21q67 61 101.5 112.5T200 680h67q-19-50-57.5-98.5T72 446h117l13 77 59 6-15-83h39l-4-21h-38l-7-39q-1-8-1.5-11t-.5-5q-1-4 .5-6t8.5-3l26-3-3-18H126l4 18 33 3q8 1 10 4.5t5 20.5zM96 17l489 663 25-18L121 0zm328 150l-12 5 39 168h151.5q3.5 0 5.5 1 4 0 6 2t4 10l10 28h14l-16-85H462l-22-95q15 8 31.5 12.5T506 218q49 0 77.5-26t28.5-72q0-55-37-90T475-5q-41 0-65 18t-29 52l34 10q1-29 14.5-44T468 16q36 0 58 32.5t22 82.5q0 33-12.5 49T498 196q-18 0-36-7t-38-22z" glyph-name="fourfifths" horiz-adv-x="662"/><glyph d="M178 386l7 39H37l3 21q67 61 101.5 112.5T200 680h67q-19-50-57.5-98.5T72 446h117l13 77 59 6-15-83h39l-4-21h-38l-7-39q-1-8-1.5-11t-.5-5q-1-4 .5-6t8.5-3l26-3-3-18H126l4 18 33 3q8 1 10 4.5t5 20.5zM96 17l489 663 25-18L121 0zm557 323l-7-39q-62-67-91.5-130T501 0h-68q27 90 67 156t113 140H486q-17 0-21.5-2t-7.5-11l-15-42h-21l18 99z" glyph-name="foursevenths" horiz-adv-x="661"/><glyph d="M178 386l7 39H37l3 21q67 61 101.5 112.5T200 680h67q-19-50-57.5-98.5T72 446h117l13 77 59 6-15-83h39l-4-21h-38l-7-39q-1-8-1.5-11t-.5-5q-1-4 .5-6t8.5-3l26-3-3-18H126l4 18 33 3q8 1 10 4.5t5 20.5zM96 17l489 663 25-18L121 0zm543 168l-5-32q-12-78-51-118T480-5q-41 0-65 18t-30 52l34 11q1-29 16.5-44.5T479 16q36 0 57 26.5t31 83.5l6 33q-15-12-32.5-18t-37.5-6q-48 0-73.5 29T410 240l1 12q6 43 38.5 68t81.5 25q63 0 91.5-42T639 185zm-168 60l-1-7q-6-40 4.5-59.5T512 159q19 0 36 9t31 26l4 23q9 53-2.5 80T536 324q-27 0-43.5-20T471 245z" glyph-name="fourninths" horiz-adv-x="689"/><glyph d="M99 507l-12 5 39 168h151.5q3.5 0 5.5 1 4 0 6 2t4 10l10 28h14l-16-85H137l-22-95q15 8 31.5 12.5T181 558q49 0 77.5-26t28.5-72q0-55-37-90t-100-35q-41 0-65 18t-29 52l34 10q1-29 14.5-44t38.5-15q36 0 58 32.5t22 82.5q0 33-12.5 49T173 536q-18 0-36-7t-38-22zM81 17l489 663 25-18L106 0zm526 81l-1-7q-6-44-40-70T480-5q-61 0-88 41.5T377 153l5 31q13 80 50 120.5t96 40.5q55 0 83-29t16-70l-61-8q12 42 3 64t-39 22q-33 0-52-26.5T449 214l-6-33q15 12 32.5 17.5T513 204q48 0 74-29.5T607 98zm-170 48l-4-23q-9-53 2.5-80T478 16q26 0 43 20t24 59l1 5q6 40-4.5 60.5T504 181q-19 0-36-9t-31-26z" glyph-name="fivesixths" horiz-adv-x="669"/><glyph d="M99 507l-12 5 39 168h151.5q3.5 0 5.5 1 4 0 6 2t4 10l10 28h14l-16-85H137l-22-95q15 8 31.5 12.5T181 558q49 0 77.5-26t28.5-72q0-55-37-90t-100-35q-41 0-65 18t-29 52l34 10q1-29 14.5-44t38.5-15q36 0 58 32.5t22 82.5q0 33-12.5 49T173 536q-18 0-36-7t-38-22zM81 17l489 663 25-18L106 0zm557 323l-7-39q-62-67-91.5-130T486 0h-68q27 90 67 156t113 140H471q-17 0-21.5-2t-7.5-11l-15-42h-21l18 99z" glyph-name="fivesevenths" horiz-adv-x="646"/><glyph d="M99 507l-12 5 39 168h151.5q3.5 0 5.5 1 4 0 6 2t4 10l10 28h14l-16-85H137l-22-95q15 8 31.5 12.5T181 558q49 0 77.5-26t28.5-72q0-55-37-90t-100-35q-41 0-65 18t-29 52l34 10q1-29 14.5-44t38.5-15q36 0 58 32.5t22 82.5q0 33-12.5 49T173 536q-18 0-36-7t-38-22zM81 17l489 663 25-18L106 0zm455 169q31-18 46-39.5T597 97q0-45-33-73.5T474-5q-51 0-80.5 21.5T364 74q0 29 23 51.5t70 40.5q-30 18-43.5 37.5T400 248q0 43 31 70t85 27q47 0 75-21t28-55q0-26-20.5-46T536 186zm-81 80q0-18 9-30.5t35-26.5l18-11q24 14 35.5 32t11.5 41q0 24-13 37.5T515 322q-26 0-43-15.5T455 266zM419 74q0-27 14.5-42T475 17q30 0 48.5 17T542 78q0 20-9 34t-33 27l-25 16q-28-16-42-36t-14-45z" glyph-name="fiveeighths" horiz-adv-x="663" unicode="⅝"/><glyph d="M99 507l-12 5 39 168h151.5q3.5 0 5.5 1 4 0 6 2t4 10l10 28h14l-16-85H137l-22-95q15 8 31.5 12.5T181 558q49 0 77.5-26t28.5-72q0-55-37-90t-100-35q-41 0-65 18t-29 52l34 10q1-29 14.5-44t38.5-15q36 0 58 32.5t22 82.5q0 33-12.5 49T173 536q-18 0-36-7t-38-22zM81 17l489 663 25-18L106 0zm543 168l-5-32q-12-78-51-118T465-5q-41 0-65 18t-30 52l34 11q1-29 16.5-44.5T464 16q36 0 57 26.5t31 83.5l6 33q-15-12-32.5-18t-37.5-6q-48 0-73.5 29T395 240l1 12q6 43 38.5 68t81.5 25q63 0 91.5-42T624 185zm-168 60l-1-7q-6-40 4.5-59.5T497 159q19 0 36 9t31 26l4 23q9 53-2.5 80T521 324q-27 0-43.5-20T456 245z" glyph-name="fiveninths" horiz-adv-x="673"/><glyph d="M315 438l-1-7q-6-44-40-70t-86-26q-61 0-88 41.5T85 493l5 31q13 80 50 120.5t96 40.5q55 0 83-29t16-70l-61-8q12 42 3 64t-39 22q-33 0-52-26.5T157 554l-6-33q15 12 32.5 17.5T221 544q48 0 74-29.5t20-76.5zm-170 48l-4-23q-9-53 2.5-80t42.5-27q26 0 43 20t24 59l1 5q6 40-4.5 60.5T212 521q-19 0-36-9t-31-26zM117 17l489 663 25-18L142 0zm557 323l-7-39q-62-67-91.5-130T522 0h-68q27 90 67 156t113 140H507q-17 0-21.5-2t-7.5-11l-15-42h-21l18 99z" glyph-name="sixsevenths" horiz-adv-x="682"/><glyph d="M323 680l-7-39q-62-67-91.5-130T171 340h-68q27 90 67 156t113 140H156q-17 0-21.5-2t-7.5-11l-15-42H91l18 99zM66 17l489 663 25-18L91 0zm455 169q31-18 46-39.5T582 97q0-45-33-73.5T459-5q-51 0-80.5 21.5T349 74q0 29 23 51.5t70 40.5q-30 18-43.5 37.5T385 248q0 43 31 70t85 27q47 0 75-21t28-55q0-26-20.5-46T521 186zm-81 80q0-18 9-30.5t35-26.5l18-11q24 14 35.5 32t11.5 41q0 24-13 37.5T500 322q-26 0-43-15.5T440 266zM404 74q0-27 14.5-42T460 17q30 0 48.5 17T527 78q0 20-9 34t-33 27l-25 16q-28-16-42-36t-14-45z" glyph-name="seveneighths" horiz-adv-x="649" unicode="⅞"/><glyph d="M323 680l-7-39q-62-67-91.5-130T171 340h-68q27 90 67 156t113 140H156q-17 0-21.5-2t-7.5-11l-15-42H91l18 99zM66 17l489 663 25-18L91 0zm543 168l-5-32q-12-78-51-118T450-5q-41 0-65 18t-30 52l34 11q1-29 16.5-44.5T449 16q36 0 57 26.5t31 83.5l6 33q-15-12-32.5-18t-37.5-6q-48 0-73.5 29T380 240l1 12q6 43 38.5 68t81.5 25q63 0 91.5-42T609 185zm-168 60l-1-7q-6-40 4.5-59.5T482 159q19 0 36 9t31 26l4 23q9 53-2.5 80T506 324q-27 0-43.5-20T441 245z" glyph-name="sevenninths" horiz-adv-x="659"/><glyph d="M242 526q31-18 46-39.5t15-49.5q0-45-33-73.5T180 335q-51 0-80.5 21.5T70 414q0 29 23 51.5t70 40.5q-30 18-43.5 37.5T106 588q0 43 31 70t85 27q47 0 75-21t28-55q0-26-20.5-46T242 526zm-81 80q0-18 9-30.5t35-26.5l18-11q24 14 35.5 32t11.5 41q0 24-13 37.5T221 662q-26 0-43-15.5T161 606zm-36-192q0-27 14.5-42t41.5-15q30 0 48.5 17t18.5 44q0 20-9 34t-33 27l-25 16q-28-16-42-36t-14-45zM107 17l489 663 25-18L132 0zm543 168l-5-32q-12-78-51-118T491-5q-41 0-65 18t-30 52l34 11q1-29 16.5-44.5T490 16q36 0 57 26.5t31 83.5l6 33q-15-12-32.5-18t-37.5-6q-48 0-73.5 29T421 240l1 12q6 43 38.5 68t81.5 25q63 0 91.5-42T650 185zm-168 60l-1-7q-6-40 4.5-59.5T523 159q19 0 36 9t31 26l4 23q9 53-2.5 80T547 324q-27 0-43.5-20T482 245z" glyph-name="eightninths" horiz-adv-x="699"/><glyph d="M519 350l-6-33H323l-34-194h-35l34 194H99l6 33h189l34 195h35l-34-195z" glyph-name="plus" horiz-adv-x="588" unicode="+"/><glyph d="M513 317H99l6 33h414z" glyph-name="minus" horiz-adv-x="588" unicode="−"/><glyph d="M332 332l133-162-26-24-135 163-191-163-23 26 192 164-133 161 27 25 134-163 193 164 22-26z" glyph-name="multiply" horiz-adv-x="588" unicode="×"/><glyph d="M340 478q-24 0-38.5 13.5T287 529q0 27 17.5 44.5T349 591q25 0 39-13.5t14-36.5q0-27-17.5-45T340 478zm173-161H99l6 33h414zM270 76q-25 0-39 13.5T217 127q0 27 17 44.5t44 17.5q25 0 39-13.5t14-36.5q0-27-17-45t-44-18z" glyph-name="divide" horiz-adv-x="588" unicode="÷"/><glyph d="M530 417H116l6 33h414zm-35-200H81l6 33h414z" glyph-name="equal" horiz-adv-x="588" unicode="="/><glyph d="M497 428H118l6 33h414l-39-224h-36z" glyph-name="logicalnot" horiz-adv-x="588" unicode="¬"/><glyph d="M394 257q-27 0-48.5 12.5T294 321q-24 33-39.5 43T221 374q-27 0-49-21.5T125 280l-30 14q28 59 58 86.5t69 27.5q27 0 48.5-12.5T321 344q25-32 40.5-42t34.5-10q27 0 49 21.5t47 72.5l30-15q-28-59-58.5-86.5T394 257z" glyph-name="asciitilde" horiz-adv-x="588" unicode="~"/><glyph d="M152 330l337-143-16-30L99 318l5 28 430 161 9-31z" glyph-name="less" horiz-adv-x="588" unicode="&lt;"/><glyph d="M518 346l-5-28L82 157l-8 32 390 145-336 143 16 30z" glyph-name="greater" horiz-adv-x="588" unicode="&gt;"/><glyph d="M519 350l-6-33H323l-34-194h-35l34 194H99l6 33h189l34 195h35l-34-195zM457 0H43l6 33h414z" glyph-name="plusminus" horiz-adv-x="588" unicode="±"/><glyph d="M384 680l90-402-32-12-80 363-208-363-30 12 232 402z" glyph-name="asciicircum" horiz-adv-x="588" unicode="^"/><glyph d="M501 250l-6-33H241L138 82l-27 18 89 117H81l6 33h138l127 167H116l6 33h255l102 135 28-18-89-117h118l-6-33H393L266 250z" glyph-name="notequal" horiz-adv-x="588" unicode="≠"/><glyph d="M412 358q-27 0-49 12.5T312 422q-24 32-39.5 42T238 474q-27 0-49-21.5T142 380l-30 15q28 59 58.5 86.5T240 509q27 0 48-12.5t50-51.5q25-33 40.5-43t34.5-10q28 0 49.5 21.5T509 486l31-14q-28-59-58.5-86.5T412 358zm-35-200q-27 0-49 12.5T277 222q-24 32-39.5 42T203 274q-27 0-49-21.5T107 180l-30 15q28 59 58.5 86.5T205 309q27 0 48-12.5t50-51.5q25-33 40.5-43t34.5-10q28 0 49.5 21.5T474 286l31-14q-28-59-58.5-86.5T377 158z" glyph-name="approxequal" horiz-adv-x="588" unicode="≈"/><glyph d="M152 330l337-143-16-30L99 318l5 28 430 161 9-31zM457 0H43l6 33h414z" glyph-name="lessequal" horiz-adv-x="588" unicode="≤"/><glyph d="M518 346l-5-28L82 157l-8 32 390 145-336 143 16 30zM457 0H43l6 33h414z" glyph-name="greaterequal" horiz-adv-x="588" unicode="≥"/><glyph d="M617 534q62 0 99.5-47T754 359q0-95-53-154.5T566 145q-62 0-110 36.5T384 281q-43-67-90-101t-97-34q-62 0-99.5 46.5T60 320q0 96 53 155.5T248 535q61 0 109-36.5T429 398q43 68 90.5 102t97.5 34zm-388-53q-61 0-99-45.5T92 322q0-57 30-89.5t82-32.5q46 0 88 28t81 86l-10 33q-22 71-54.5 102.5T229 481zm211-116l11-33q23-71 55-102t79-31q61 0 98.5 44.5T721 357q0 58-29.5 90.5T610 480q-47 0-88.5-28.5T440 365z" glyph-name="infinity" horiz-adv-x="782" unicode="∞"/><glyph d="M235 0L133 340l221 340h31l101-340L265 0zm129 637L170 336l85-292 195 302z" glyph-name="lozenge" horiz-adv-x="588" unicode="◊"/><glyph d="M165 317H69l5 33h119l65-297 360 627 31-12L264 0h-28z" glyph-name="radical" horiz-adv-x="588" unicode="√"/><glyph d="M-14-192q28 0 45 27.5T67-66l174 645q27 98 66 134.5T411 750q59 0 86.5-32t12.5-77l-76-11q15 46 8.5 67.5T408 719q-28 0-45.5-27.5T326 593L152-52q-27-98-66-134.5T-17-223q-59 0-86.5 32t-12.5 77l75 11q-14-46-7.5-67.5T-14-192z" glyph-name="integral" horiz-adv-x="435" unicode="∫"/><glyph d="M496 284l-7-28q-29-134-93.5-200T229-10Q124-10 76 58.5T54 232l5 20q24 97 80 148t137 51q48 0 86-20.5t62-59.5q14 113-29 204.5T260 724l15 26q130-68 191-196t30-270zm-346-24l-14-54q-22-86 2-135t87-49q62 0 101.5 50T395 239l17 68q1 3 2.5 8.5t1.5 7.5q-16 45-50.5 70.5T290 419q-50 0-84.5-39.5T150 260z" glyph-name="partialdiff" horiz-adv-x="553" unicode="∂"/><glyph d="M170 648l-55 5 5 27h630l-4-27-56-5q-17-2-21-9t-10-40L543-62q-6-33-4.5-40t17.5-9l54-5-5-27H364l5 27 56 5q17 2 21 9t10 40l124 710H278L154-62q-6-33-4.5-40t17.5-9l54-5-5-27H-24l5 27 55 5q17 2 21 9t10 40l116 661q6 33 4.5 40t-17.5 9z" glyph-name="product" horiz-adv-x="719" unicode="∏"/><glyph d="M127 463l-54 5 4 27h530l-6-32h-92l-55-313q-12-71-11.5-96.5T458 28q13 0 27 19.5t26 57.5l35-22q-23-46-48-67T442-5q-46 0-65 38.5T371 142l56 321H231L149 0H67l73 414q6 33 4.5 40t-17.5 9z" glyph-name="pi" horiz-adv-x="598" unicode="π"/><glyph d="M103 40q-9-71-6.5-121T115-187l-96-26 111 627q6 33 4 40t-18 9l-54 5 5 27h159l-56-324q-13-71 .5-107.5T222 27q45 0 90 38t88 113l56 317h82l-61-345q-12-69-10-95.5T487 28q17 0 34 20.5t29 56.5l35-22q-22-44-50.5-66T471-5q-43 0-64 28t-18 82q-41-58-87-86.5T204-10q-33 0-58 12.5T103 40z" glyph-name="mu" horiz-adv-x="610" unicode="µ"/><glyph d="M-43-143l12 65 333 334-200 402 4 22h464l-26-143h-26l-12 85q-3 20-11 23t-38 3H203l172-354-2-16L26-69h319q32 0 40.5 3T404-43l42 84h26l-33-184z" glyph-name="summation" horiz-adv-x="551" unicode="∑"/><glyph d="M592 184L560 0H343l32 178q63 20 100.5 68.5T526 373l14 87q15 92-21 145t-115 53q-78 0-128.5-49.5T209 470l-16-94q-13-77 8-127t74-71L243 0H27l32 184h26l2-85q1-19 8.5-22.5T137 73h82l15 87q-76 35-110 103t-18 155l7 37q20 108 97.5 171.5T403 690q120 0 183.5-76.5T630 426l-7-38q-15-85-71-145.5T407 154l-14-81h83q34 0 42.5 3.5T534 99l32 85z" glyph-name="Omega" horiz-adv-x="675" unicode="Ω"/><glyph d="M398 680L507 22l-4-22H-7l4 22 338 658zm-70-84L36 32h383z" glyph-name="Delta" horiz-adv-x="583" unicode="∆"/><glyph d="M289 60l15-25q-27-20-55.5-30T187-5q-70 0-98.5 38T73 147l64 364q16 89 59.5 134T311 690q60 0 94-30.5t34-84.5q0-72-68-161T167 214l-14-77q-10-57 1-83t50-26q22 0 42.5 8T289 60zm24 598q-36 0-58-33t-34-104l-46-261q93 78 141.5 162T365 584q0 38-12.5 56T313 658z" glyph-name="uni2113" horiz-adv-x="415" unicode="ℓ"/><glyph d="M167 342l130-159-17-17L62 346v24l218 179 17-17-131-159h119q46 0 86.5 2.5T474 387q50 7 77.5 9t55.5 2l-18-40 18-42q-28 0-55.5 2t-77.5 9q-62 9-102.5 12t-86.5 3z" glyph-name="arrowleft" horiz-adv-x="655" unicode="←"/><glyph d="M353 526V407q0-46 2.5-86.5T367 218q7-50 9-77.5t2-55.5l-40 18-42-18q0 28 2 55.5t9 77.5q9 62 12 102.5t3 86.5v118L163 395l-17 17 180 219h24l179-219-17-17z" glyph-name="arrowup" horiz-adv-x="655" unicode="↑"/><glyph d="M607 370v-24L389 167l-18 17 132 159H384q-46 0-86.5-3T194 328q-50-7-77-9t-55-2l18 41-18 41q28 0 55-2t77-9q63-9 103.5-11.5T384 374h118L371 533l18 17z" glyph-name="arrowright" horiz-adv-x="655" unicode="→"/><glyph d="M512 322l17-18L349 86h-24L145 304l17 18 160-132v119q0 46-3 86.5T307 499q-7 50-9 77t-2 55l41-18 41 18q0-28-2-55t-9-77q-9-63-11.5-103.5T353 309V191z" glyph-name="arrowdown" horiz-adv-x="655" unicode="↓"/><glyph d="M167 342l130-159-17-17L62 346v24l218 179 17-17-131-159h44q37 0 66 3.5t64 14.5q20 6 30.5 7.5T392 400h3q12 0 22.5-2t30.5-8q35-10 63.5-13.5T577 373h39L485 533l17 17 218-180v-24L502 167l-17 17 130 158h-38q-37 0-65.5-3.5T448 325q-20-6-30.5-7.5T395 316h-3q-11 0-21.5 1.5T340 325q-35 10-64 13.5t-66 3.5z" glyph-name="uni2194" horiz-adv-x="762" unicode="↔"/><glyph d="M512 264l17-17L350 28h-24L146 247l17 17 159-130v37q0 37-3.5 66T304 301q-6 20-7.5 30.5T295 353v3q0 12 1.5 22.5T305 409q10 34 13.5 63t3.5 66v45L162 451l-17 18 180 218h24l180-218-17-18-159 131v-44q0-37 3.5-66t13.5-63q6-20 7.5-30.5T379 356v-3q0-11-1.5-21.5T370 301q-10-35-13.5-64t-3.5-66v-38z" glyph-name="uni2195" horiz-adv-x="655" unicode="↕"/><glyph d="M550 194l-41-16-17-42q-19 20-36.5 40T408 236q-38 51-65.5 82T282 382l-83 83-20-205-25 1-27 281 17 17 281-27 1-25-205-20 83-83q33-33 64-60.5t82-65.5q40-30 60-47.5t40-36.5z" glyph-name="uni2196" horiz-adv-x="655" unicode="↖"/><glyph d="M471 466l-84-84q-32-32-59-63t-65-81q-30-40-48-61t-38-41l-17 42-41 17q20 20 40.5 37.5T220 280q51 38 82 65t63 59l84 84-206 20 1 24 281 27 17-17-27-281-25-1z" glyph-name="uni2197" horiz-adv-x="655" unicode="↗"/><glyph d="M515 456l27-282-17-17-281 28-1 24 206 20-84 84q-33 33-64 60t-81 65q-40 29-60.5 47T119 522l41 17 17 41q20-20 38-40.5t48-61.5q38-50 65-80.5t59-62.5l84-85 19 206z" glyph-name="uni2198" horiz-adv-x="655" unicode="↘"/><glyph d="M425 209v-24l-281-28-17 17 27 282h25l20-205 83 83q33 33 60.5 64t65.5 82q30 40 47.5 60t36.5 40l16-41 42-17q-20-19-40.5-37T449 438q-50-38-81-65t-64-60l-83-84z" glyph-name="uni2199" horiz-adv-x="655" unicode="↙"/><glyph d="M792 314v-9H209q-3 0-4-1t-1-3V125q0-6 2-11t6-9q44-46 101-71T433 9q67 0 127 28t105 79h52q-51-59-126-92.5T432-10q-149 0-254.5 95T72 314q0 134 105.5 229T432 638q149 0 254.5-95T792 314zm-132 14v178q0 6-2 11.5t-7 9.5q-44 44-100.5 68T433 619q-62 0-119-24.5T213 524q-5-5-7-10t-2-12V328q0-2 1.5-3.5t3.5-1.5h447q2 0 3 1.5t1 3.5z" glyph-name="estimated" horiz-adv-x="825" unicode="℮"/><glyph d="M709-49l20-48q-51-26-119.5-41T475-153q-190 0-307.5 121.5T50 284q0 204 124 340t314 136q174 0 290-118t116-294q0-119-60.5-199.5T683 68q-50 0-83 25.5T560 163q-32-50-69-75t-81-25q-79 0-118.5 72T272 316l4 22q17 93 75.5 149.5T487 544q40 0 71.5-17t54.5-51q14 14 26.5 28.5T662 534h35l-56-311q-11-63 0-93.5T688 99q72 0 122 71.5T860 348q0 162-106 271T488 728q-174 0-289-127T84 284Q84 103 191.5-9T475-121q69 0 128.5 18T709-49zM361 346l-10-60q-15-88 3.5-139.5T418 95q40 0 74.5 33T563 231l36 205q-19 38-45.5 57T492 512q-52 0-84.5-41.5T361 346z" glyph-name="at.case" horiz-adv-x="965"/><glyph d="M196 627q0 27 17 45t44 18q25 0 39-13.5t14-37.5q0-27-17-44.5T249 577q-25 0-39 13t-14 37zm9-154l2 23h46l-4-22q-7-43-26.5-76T150 319q-57-50-74.5-88.5T58 140q0-58 24-88t69-30q60 0 94 48.5T286 213l79-16q-1-95-58.5-151T148-10Q62-10 14 31.5T-34 144q0 48 23.5 85.5T88 319q69 47 91.5 80t25.5 74z" glyph-name="questiondown.case" horiz-adv-x="479"/><glyph d="M75 627q0 27 17 45t44 18q25 0 39-13.5t14-37.5q0-27-17-44.5T128 577q-25 0-39 13t-14 37zM32 228q24 89 36.5 146T93 496h30q-11-63-18-119T90 233q-7-82-13-131T61 0h-82q9 52 20 99.5T32 228z" glyph-name="exclamdown.case" horiz-adv-x="258"/><glyph d="M73 328l6 40q19 125 90 228t205 196l21-28q-94-75-151-174t-79-230l-7-38q-21-126 0-233t82-178l-25-22Q130-25 92.5 91.5T73 328z" glyph-name="parenleft.case" horiz-adv-x="336"/><glyph d="M267 351l-6-40q-18-124-89.5-226.5T-34-112l-20 28Q40-9 96.5 90T175 320l7 37q21 126 0 233.5T100 769l25 22q85-87 122.5-203.5T267 351z" glyph-name="parenright.case" horiz-adv-x="336"/><glyph d="M225-70h85l-5-32h-77q-90 0-127.5 51.5T97 83l43 106q24 59 14.5 97T107 324H30l5 32h77q39 0 61 37.5t20 97.5l-5 106q-5 94 38.5 139.5T366 782h94l-6-32h-85q-51 0-75-33.5T272 616l6-106q4-72-23-115.5T170 337q48-17 60.5-60.5T218 170L175 64Q149-3 161.5-36.5T225-70z" glyph-name="braceleft.case" horiz-adv-x="401"/><glyph d="M211 189l5-106q5-94-38.5-139.5T38-102h-93l5 32h84q51 0 75 33.5T131 64l-6 106q-4 72 23 115.5t85 57.5q-48 17-60.5 60.5T185 510l43 106q27 66 14.5 100T179 750H94l5 32h76q90 0 128-51.5t4-133.5l-43-106q-24-60-15-98t48-38h77l-5-32h-77q-39 0-61.5-37.5T211 189z" glyph-name="braceright.case" horiz-adv-x="401"/><glyph d="M114-70h151l-6-32H26l156 883h233l-6-32H259z" glyph-name="bracketleft.case" horiz-adv-x="356"/><glyph d="M99 781h233L177-102H-55l5 32h150l145 819H94z" glyph-name="bracketright.case" horiz-adv-x="356"/><glyph d="M342 337H78l6 35h264z" glyph-name="hyphen.case" horiz-adv-x="404"/><glyph d="M542 337H78l6 35h464z" glyph-name="endash.case" horiz-adv-x="604"/><glyph d="M742 337H78l6 35h664z" glyph-name="emdash.case" horiz-adv-x="804"/><glyph d="M99 433l68 383h37l-68-383zM-1-137l67 383h37L36-137z" glyph-name="brokenbar.case" horiz-adv-x="224"/><glyph d="M5-137l168 953h37L42-137z" glyph-name="bar.case" horiz-adv-x="237"/><glyph d="M134 328l147-213-18-15L34 322l4 24 307 222 15-22zm250 0l147-213-18-15-229 222 4 24 307 222 15-22z" glyph-name="guillemotleft.case" horiz-adv-x="645"/><glyph d="M577 346l-4-24-306-222-16 21 226 219-147 213 19 15zm-250 0l-4-24L17 100 1 121l226 219L80 553l19 15z" glyph-name="guillemotright.case" horiz-adv-x="645"/><glyph d="M134 328l147-213-19-15L34 322l4 24 307 222 15-22z" glyph-name="guilsinglleft.case" horiz-adv-x="395"/><glyph d="M327 347l-4-24L17 101 1 122l226 218L80 553l19 16z" glyph-name="guilsinglright.case" horiz-adv-x="395"/><glyph d="M145 409l-76 21q5 117 75.5 183.5T337 680h171l89-599q5-33 8.5-40t18.5-9l54-6-4-26H434l4 26 56 6q17 2 19.5 9T511 81l-18 128H249l-13-27q-45-90-79.5-152T92-75Q36-155-17-189t-128-34l14 85q91 0 166 74.5T198 187l231 461h-88q-89 0-138.5-60T145 409zm294 180L265 241h223z" glyph-name="A.alt" horiz-adv-x="715"/><glyph d="M124 409l-76 21q5 117 75 183.5T316 680h228q91 0 137.5-46T716 514l-5-28q-8-52-43.5-87.5T573 349q64-14 94.5-56.5T688 188l-4-27q-13-76-72-118.5T459 0H157l4 26 56 6q17 2 21 8.5T248 81l100 567h-29q-89 0-138-60.5T124 409zm420 239H435l-50-286h107q52 0 84 29t42 87l7 41q11 63-9.5 96T544 648zm-32-318H379L327 32h132q54 0 87.5 31.5T591 156l7 41q11 64-11 98.5T512 330z" glyph-name="B.alt" horiz-adv-x="757"/><glyph d="M124 409l-76 21q5 117 75 183.5T316 680h223q125 0 184.5-86.5T758 366l-11-65Q722 159 642.5 79.5T445 0H157l4 26 56 6q17 2 21 8.5T248 81l100 567h-28q-89 0-138.5-60T124 409zm415 239H435L327 32h116q80 0 130.5 56T643 253l29 165q19 113-14.5 171.5T539 648z" glyph-name="D.alt" horiz-adv-x="812"/><glyph d="M124 409l-76 21q5 117 75 183.5T316 680h427l-29-163h-26l-10 105q-2 19-10 22.5t-39 3.5H435l-51-289h134q33 0 42 3.5t17 22.5l32 75h26l-42-234h-25l-6 75q-2 19-9.5 22.5T513 327H378L326 32h206q33 0 41.5 3.5T591 58l47 105h26L635 0H157l4 26 56 6q17 2 21 8.5T248 81l99 567h-27q-89 0-138.5-60T124 409z" glyph-name="E.alt" horiz-adv-x="732"/><glyph d="M124 409l-76 21q5 117 75 183.5T316 680h418l-29-163h-26l-11 105q-2 19-10 22.5t-39 3.5H435l-53-298h124q33 0 42 3.5t17 22.5l32 75h26l-41-234h-26l-6 75q-2 19-9.5 22.5T501 318H377L335 81q-6-36-4.5-42t17.5-7l74-6-4-26H157l4 26 56 6q17 2 21 8.5T248 81l99 567h-27q-89 0-138.5-60T124 409z" glyph-name="F.alt" horiz-adv-x="699"/><glyph d="M546 227L503-19q-19-99-71.5-151.5T297-223q-57 0-90.5 27.5T176-120l62 17q-5-45 9.5-67t49.5-22q49 0 79 41.5T422-22l12 70q-29-25-65.5-37.5T291-2Q173-2 118 86.5T88 323l9 59q24 146 104 227t200 81q108 0 161.5-61.5T590 480l-90-21q27 97 1.5 148T399 658q-79 0-129-57t-69-169l-27-159q-20-123 9.5-183T295 30q50 0 88.5 20t61.5 59l20 118q6 35 4.5 41.5T452 276l-74 5 4 27h255l-4-27-56-5q-17-2-21-9.5T546 227z" glyph-name="G.alt" horiz-adv-x="649"/><glyph d="M124 409l-76 21q5 117 75 183.5T316 680h201l-4-27-56-5q-17-2-21-9t-10-40l-42-240h302l42 240q6 33 4.5 40t-17.5 9l-54 5 4 27h241l-4-27-56-5q-17-2-21-9t-10-40L724 81q-6-34-4.5-40.5T737 32l54-6-4-26H546l4 26 56 6q17 2 21 8.5T637 81l43 246H378L335 81q-6-34-4.5-40.5T348 32l54-6-4-26H157l4 26 56 6q17 2 21 8.5T248 81l99 567h-27q-89 0-138.5-60T124 409z" glyph-name="H.alt" horiz-adv-x="879"/><glyph d="M138 409l-76 21q5 117 75 183.5T329 680h212l-5-27-55-5q-17-2-21-9t-10-40l-71-405q-17-97-72-150.5T167-10Q98-10 63 27T32 134l66 19q-8-65 8-98t57-33q50 0 81.5 41.5T291 190l80 458h-37q-89 0-138.5-60T138 409z" glyph-name="J.alt" horiz-adv-x="501"/><glyph d="M124 409l-76 21q5 117 75 183.5T316 680h202l-5-26-56-6q-17-2-21.5-10t-9.5-39l-49-279 290 285q27 26 31 33.5t-13 9.5l-51 6 5 26h196l-5-26-52-6q-14-1-21.5-6T717 605L526 417 659 81q12-31 18-39t23-10l47-6-4-26H592L459 352l-92-91-32-180q-6-33-4.5-40t17.5-9l54-6-4-26H157l4 26 56 6q17 2 21 8.5T248 81l100 567h-28q-89 0-138.5-60T124 409z" glyph-name="K.alt" horiz-adv-x="796"/><glyph d="M124 409l-76 21q5 117 75 183.5T316 680h201l-4-27-56-5q-17-2-21-9t-10-40L327 32h181q33 0 41.5 3.5T566 58l48 107h27L611 0H157l4 26 56 6q17 2 21 8.5T248 81l99 567h-27q-89 0-138.5-60T124 409z" glyph-name="L.alt" horiz-adv-x="667"/><glyph d="M316 680h139l110-523 292 523h183l-5-27-55-5q-17-2-21-9t-10-40L857 81q-6-33-4.5-40t17.5-9l54-6-4-26H679l4 26 56 6q17 2 21 8.5T770 81l96 542L562 80h-68L379 626 285 81q-6-33-4.5-40t17.5-9l54-6-4-26H157l4 26 56 6q16 2 21 10.5T248 81l100 567h-28q-89 0-138.5-60T124 409l-76 21q5 117 75 183.5T316 680z" glyph-name="M.alt" horiz-adv-x="1012"/><glyph d="M124 409l-76 21q5 117 75 183.5T316 680h127l229-534 80 453q6 33 4.5 40t-17.5 9l-54 5 5 27h191l-5-27-56-5q-17-2-21-9.5T789 599L684 0h-41L379 615 285 81q-6-33-4.5-40t17.5-9l54-6-4-26H157l4 26 56 6q17 2 21 8.5T248 81l100 567h-28q-89 0-138.5-60T124 409z" glyph-name="N.alt" horiz-adv-x="844"/><glyph d="M124 409l-76 21q5 117 75 183.5T316 680h239q94 0 142-52.5T731 491l-5-29q-16-86-73.5-130T497 288H372L335 81q-6-36-4.5-42t17.5-7l74-6-4-26H157l4 26 56 6q17 2 21 8.5T248 81l100 567h-28q-89 0-138.5-60T124 409zm431 239H435l-58-328h120q55 0 89 33t45 97l10 57q12 69-10 105t-76 36z" glyph-name="P.alt" horiz-adv-x="726"/><glyph d="M124 409l-76 21q5 117 75 183.5T316 680h232q95 0 143.5-49.5T727 502l-6-30q-10-64-50.5-104T564 314l87-233q6-16 8-22t4-10q4-9 8-12.5t17-4.5l44-6-4-26H582L478 308H375L335 81q-6-33-4.5-40t17.5-9l54-6-4-26H157l4 26 56 6q17 2 21 8.5T248 81l100 567h-28q-89 0-138.5-60T124 409zm425 239H435l-54-308h113q53 0 89 34t46 94l6 38q12 67-11 104.5T549 648z" glyph-name="R.alt" horiz-adv-x="777"/><glyph d="M47-28L-28-7q3 93 64 146t167 53h71q-4-85 31.5-127.5T419 22q79 0 122.5 36.5T585 161q0 47-24.5 76.5T478 291l-74 29q-63 25-94.5 68.5T278 494q0 89 60.5 142.5T504 690q49 0 88.5-13.5T659 637q30-30 39-71t-5-83l-88-18q29 93 1.5 143T499 658q-67 0-104.5-35T357 524q0-48 24-78t78-51l74-30q67-26 99-67t32-101q0-92-67-149.5T417-10q-95 0-148 43t-58 127h-4q-76 0-115-46T47-28z" glyph-name="S.alt" horiz-adv-x="727"/><glyph d="M121 409l-76 21q5 117 75 183.5T313 680h385l-29-163h-26l-11 105q-2 19-9.5 22.5T583 648H469L369 81q-6-34-4.5-40.5T382 32l55-6-5-26H191l5 26 55 6q17 2 21 8.5T282 81l100 567h-65q-89 0-138.5-60T121 409z" glyph-name="T.alt" horiz-adv-x="635"/><glyph d="M117 409l-76 21q5 117 75.5 183.5T309 680h202l-5-27-55-5q-17-2-21-9.5T420 599l-65-369q-19-106 12-157t114-51q84 0 136.5 52.5T688 230l65 369q6 33 4.5 40t-17.5 9l-55 5 5 27h191l-5-27-55-5q-17-2-21-9.5T790 599l-65-369q-22-119-85-179.5T475-10q-117 0-171.5 68.5T270 246l71 402h-28q-89 0-138-60t-58-179z" glyph-name="U.alt" horiz-adv-x="838"/><glyph d="M116 409l-76 21q5 117 75.5 183.5T308 680h167l-5-27-52-5q-17-2-19.5-8.5T400 605l74-518 217 437q106 215 184.5 297t181.5 82l-15-85q-92 0-167-75T713 492L468 0h-67l-94 648q-87-1-135-61.5T116 409z" glyph-name="V.alt" horiz-adv-x="787"/><glyph d="M116 409l-76 21q5 117 75.5 183.5T308 680h173l-5-27-51-5q-17-2-19.5-8t-.5-35l31-500 268 575h62l70-571 173 414q85 206 167 293t203 87l-15-85q-105 0-181-77t-148-249L829 0h-66l-69 573L425 0h-65l-42 648h-6q-89 0-138.5-60T116 409z" glyph-name="W.alt" horiz-adv-x="1098"/><glyph d="M116 409l-76 21q5 117 75.5 183.5T308 680h165l-5-27-52-5q-17-2-18-8.5t10-34.5l81-208 163 208q23 29 24.5 35t-13.5 8l-51 5 5 27h190l-5-27-52-5q-16-2-23-8.5T697 605L503 359 614 75q10-28 15-34.5t20-8.5l51-6-5-26H457l5 26 52 6q17 2 18 8t-10 35l-87 223L260 75q-22-27-24-34t14-9l50-6-4-26H105l4 26 53 6q16 2 23 8t30 35l206 260-122 313q-83-4-129-64t-54-175z" glyph-name="X.alt" horiz-adv-x="746"/><glyph d="M116 409l-76 21q5 117 75.5 183.5T308 680h159l-5-27-52-5q-16-2-17-8.5t8-34.5l88-273 187 273q18 27 20 34t-14 9l-51 5 5 27h188l-5-27-52-5q-16-2-23-8t-27-35L501 291 464 79l1 2q-6-34-4.5-40.5T478 32l54-6-5-26H286l5 26 56 6q13 1 17.5 4.5T372 49l42 243-121 355q-80-6-125-66t-52-172z" glyph-name="Y.alt" horiz-adv-x="744"/><glyph d="M145 409l-76 21q5 117 75.5 183.5T337 680h171l89-599q5-33 8.5-40t18.5-9l54-6-4-26H434l4 26 56 6q17 2 19.5 9T511 81l-18 128H249l-13-27q-45-90-79.5-152T92-75Q36-155-17-189t-128-34l14 85q91 0 166 74.5T198 187l231 461h-88q-89 0-138.5-60T145 409zm294 180L265 241h223zm43 175l-19 22q32 35 51.5 66t37.5 73h101q-38-46-78.5-84T482 764z" glyph-name="Aacute.alt" horiz-adv-x="715"/><glyph d="M145 409l-76 21q5 117 75.5 183.5T337 680h171l89-599q5-33 8.5-40t18.5-9l54-6-4-26H434l4 26 56 6q17 2 19.5 9T511 81l-18 128H249l-13-27q-45-90-79.5-152T92-75Q36-155-17-189t-128-34l14 85q91 0 166 74.5T198 187l231 461h-88q-89 0-138.5-60T145 409zm294 180L265 241h223zm178 194l-18-19q-28 25-52.5 49.5T502 863q-33-27-64.5-51.5T373 764l-17 21q46 42 68.5 68.5T478 925h66q15-45 28.5-72t44.5-70z" glyph-name="Acircumflex.alt" horiz-adv-x="715"/><glyph d="M145 409l-76 21q5 117 75.5 183.5T337 680h171l89-599q5-33 8.5-40t18.5-9l54-6-4-26H434l4 26 56 6q17 2 19.5 9T511 81l-18 128H249l-13-27q-45-90-79.5-152T92-75Q36-155-17-189t-128-34l14 85q91 0 166 74.5T198 187l231 461h-88q-89 0-138.5-60T145 409zm294 180L265 241h223zm4 265q0-25-16-41.5T386 796q-21 0-33.5 12.5T340 841q0 24 16 40.5t41 16.5q21 0 33.5-11.5T443 854zm203 0q0-25-16.5-41.5T588 796q-20 0-33 12.5T542 841q0 24 16 40.5t41 16.5q22 0 34.5-12t12.5-32z" glyph-name="Adieresis.alt" horiz-adv-x="715"/><glyph d="M145 409l-76 21q5 117 75.5 183.5T337 680h171l89-599q5-33 8.5-40t18.5-9l54-6-4-26H434l4 26 56 6q17 2 19.5 9T511 81l-18 128H249l-13-27q-45-90-79.5-152T92-75Q36-155-17-189t-128-34l14 85q91 0 166 74.5T198 187l231 461h-88q-89 0-138.5-60T145 409zm294 180L265 241h223zm68 192l-23-17q-38 39-65 77t-49 84h91q4-42 13.5-73t32.5-71z" glyph-name="Agrave.alt" horiz-adv-x="715"/><glyph d="M167 209l-13-27Q109 93 74.5 30.5T10-75q-56-80-109.5-114T-228-223l15 85q91 0 166 74.5T115 187l238 473q-36 12-54 43t-12 68l2 11q8 45 43 72.5t85 27.5q56 0 86.5-34t22.5-82l-2-11q-6-36-32-62.5T428 658l87-577q4-32 7.5-39.5T542 32l54-6-5-26H352l4 26 56 6q17 2 19.5 9T429 81l-18 128zm226 471q28 0 46 19.5t24 55.5l5 25q6 37-7 57t-42 20q-27 0-45-19.5T349 781l-4-25q-7-35 6-55.5t42-20.5zm-37-93L183 241h223z" glyph-name="Aring.alt" horiz-adv-x="633"/><glyph d="M145 409l-76 21q5 117 75.5 183.5T337 680h171l89-599q5-33 8.5-40t18.5-9l54-6-4-26H434l4 26 56 6q17 2 19.5 9T511 81l-18 128H249l-13-27q-45-90-79.5-152T92-75Q36-155-17-189t-128-34l14 85q91 0 166 74.5T198 187l231 461h-88q-89 0-138.5-60T145 409zm294 180L265 241h223zm122 185q-20 0-37.5 10T480 825q-21 24-32 31t-22 7q-19 0-33.5-20T369 785h-31q13 69 38 104t61 35q20 0 37.5-10t43.5-41q20-24 30.5-31t21.5-7q18 0 32.5 20t23.5 58h32q-13-69-37.5-104T561 774z" glyph-name="Atilde.alt" horiz-adv-x="715"/><glyph d="M145 409l-76 21q5 117 75.5 183.5T337 680h171l89-599q5-33 8.5-40t18.5-9l54-6-4-26H434l4 26 56 6q17 2 19.5 9T511 81l-18 128H249l-13-27q-45-90-79.5-152T92-75Q36-155-17-189t-128-34l14 85q91 0 166 74.5T198 187l231 461h-88q-89 0-138.5-60T145 409zm294 180L265 241h223zm55 239q47 0 77.5 23.5T623 927l29-9q-26-80-64.5-117T491 764q-59 0-89.5 38.5T368 918l29 9q6-52 29-75.5t68-23.5z" glyph-name="Abreve.alt" horiz-adv-x="715"/><glyph d="M145 409l-76 21q5 117 75.5 183.5T337 680h171l89-599q5-33 8.5-40t18.5-9l54-6-4-26H434l4 26 56 6q17 2 19.5 9T511 81l-18 128H249l-13-27q-45-90-79.5-152T92-75Q36-155-17-189t-128-34l14 85q91 0 166 74.5T198 187l231 461h-88q-89 0-138.5-60T145 409zm294 180L265 241h223zm-85 262h287l-8-47H346z" glyph-name="Amacron.alt" horiz-adv-x="715"/><glyph d="M145 409l-77 21q5 117 75.5 183.5T336 680h171l89-599q5-33 8.5-40t18.5-9l54-6-4-26h-63q-65 0-107-41.5T461-141q0-26 10.5-39t31.5-13q27 0 47.5 20.5T585-112l50-13q-22-49-55.5-73.5T501-223q-48 0-76 22.5T397-138q0 44 34.5 84T521 9l-29 200H249l-13-27q-45-90-80-151.5T91-75Q35-155-18-189t-128-34l15 85q91 0 165 74.5T197 187l231 461h-88q-89 0-138-60.5T145 409zm293 180L265 241h223z" glyph-name="Aogonek.alt" horiz-adv-x="715"/><glyph d="M124 409l-76 21q5 117 75 183.5T316 680h223q125 0 184.5-86.5T758 366l-11-65Q722 159 642.5 79.5T445 0H157l4 26 56 6q17 2 21 8.5T248 81l100 567h-28q-89 0-138.5-60T124 409zm415 239H435L327 32h116q80 0 130.5 56T643 253l29 165q19 113-14.5 171.5T539 648zm164 281l17-21q-45-42-68-68t-54-71h-66q-15 44-28.5 71T459 910l18 19q31-27 55-51.5t42-47.5q28 24 59.5 48.5T703 929z" glyph-name="Dcaron.alt" horiz-adv-x="812"/><glyph d="M124 409l-76 21q5 117 75 183.5T316 680h427l-29-163h-26l-10 105q-2 19-10 22.5t-39 3.5H435l-51-289h134q33 0 42 3.5t17 22.5l32 75h26l-42-234h-25l-6 75q-2 19-9.5 22.5T513 327H378L326 32h206q33 0 41.5 3.5T591 58l47 105h26L635 0H157l4 26 56 6q17 2 21 8.5T248 81l99 567h-27q-89 0-138.5-60T124 409zm427 355l-19 22q32 35 51.5 66t37.5 73h101q-38-46-78.5-84T551 764z" glyph-name="Eacute.alt" horiz-adv-x="732"/><glyph d="M124 409l-76 21q5 117 75 183.5T316 680h427l-29-163h-26l-10 105q-2 19-10 22.5t-39 3.5H435l-51-289h134q33 0 42 3.5t17 22.5l32 75h26l-42-234h-25l-6 75q-2 19-9.5 22.5T513 327H378L326 32h206q33 0 41.5 3.5T591 58l47 105h26L635 0H157l4 26 56 6q17 2 21 8.5T248 81l99 567h-27q-89 0-138.5-60T124 409zm562 374l-18-19q-28 25-52.5 49.5T571 863q-33-27-64.5-51.5T442 764l-17 21q46 42 68.5 68.5T547 925h66q15-45 28.5-72t44.5-70z" glyph-name="Ecircumflex.alt" horiz-adv-x="732"/><glyph d="M124 409l-76 21q5 117 75 183.5T316 680h427l-29-163h-26l-10 105q-2 19-10 22.5t-39 3.5H435l-51-289h134q33 0 42 3.5t17 22.5l32 75h26l-42-234h-25l-6 75q-2 19-9.5 22.5T513 327H378L326 32h206q33 0 41.5 3.5T591 58l47 105h26L635 0H157l4 26 56 6q17 2 21 8.5T248 81l99 567h-27q-89 0-138.5-60T124 409zm392 445q0-25-16-41.5T459 796q-21 0-33.5 12.5T413 841q0 24 16 40.5t41 16.5q21 0 33.5-11.5T516 854zm203 0q0-25-16.5-41.5T661 796q-20 0-33 12.5T615 841q0 24 16 40.5t41 16.5q22 0 34.5-12t12.5-32z" glyph-name="Edieresis.alt" horiz-adv-x="732"/><glyph d="M124 409l-76 21q5 117 75 183.5T316 680h427l-29-163h-26l-10 105q-2 19-10 22.5t-39 3.5H435l-51-289h134q33 0 42 3.5t17 22.5l32 75h26l-42-234h-25l-6 75q-2 19-9.5 22.5T513 327H378L326 32h206q33 0 41.5 3.5T591 58l47 105h26L635 0H157l4 26 56 6q17 2 21 8.5T248 81l99 567h-27q-89 0-138.5-60T124 409zm452 372l-23-17q-38 39-65 77t-49 84h91q4-42 13.5-73t32.5-71z" glyph-name="Egrave.alt" horiz-adv-x="732"/><glyph d="M124 409l-76 21q5 117 75 183.5T316 680h427l-29-163h-26l-10 105q-2 19-10 22.5t-39 3.5H435l-51-289h134q33 0 42 3.5t17 22.5l32 75h26l-42-234h-25l-6 75q-2 19-9.5 22.5T513 327H378L326 32h206q33 0 41.5 3.5T591 58l47 105h26L635 0H157l4 26 56 6q17 2 21 8.5T248 81l99 567h-27q-89 0-138.5-60T124 409zm439 419q47 0 77.5 23.5T692 927l29-9q-26-80-64.5-117T560 764q-59 0-89.5 38.5T437 918l29 9q6-52 29-75.5t68-23.5z" glyph-name="Ebreve.alt" horiz-adv-x="732"/><glyph d="M124 409l-76 21q5 117 75 183.5T316 680h427l-29-163h-26l-10 105q-2 19-10 22.5t-39 3.5H435l-51-289h134q33 0 42 3.5t17 22.5l32 75h26l-42-234h-25l-6 75q-2 19-9.5 22.5T513 327H378L326 32h206q33 0 41.5 3.5T591 58l47 105h26L635 0H157l4 26 56 6q17 2 21 8.5T248 81l99 567h-27q-89 0-138.5-60T124 409zm567 520l17-21q-45-42-68-68t-54-71h-66q-15 44-28.5 71T447 910l18 19q31-27 55-51.5t42-47.5q28 24 59.5 48.5T691 929z" glyph-name="Ecaron.alt" horiz-adv-x="732"/><glyph d="M124 409l-76 21q5 117 75 183.5T316 680h427l-29-163h-26l-10 105q-2 19-10 22.5t-39 3.5H435l-51-289h134q33 0 42 3.5t17 22.5l32 75h26l-42-234h-25l-6 75q-2 19-9.5 22.5T513 327H378L326 32h206q33 0 41.5 3.5T591 58l47 105h26L635 0H157l4 26 56 6q17 2 21 8.5T248 81l99 567h-27q-89 0-138.5-60T124 409zm497 445q0-26-17-43.5T560 793q-23 0-36 13t-13 35q0 26 17 43t43 17q23 0 36.5-12.5T621 854z" glyph-name="Edotaccent.alt" horiz-adv-x="732"/><glyph d="M124 409l-76 21q5 117 75 183.5T316 680h427l-29-163h-26l-10 105q-2 19-10 22.5t-39 3.5H435l-51-289h134q33 0 42 3.5t17 22.5l32 75h26l-42-234h-25l-6 75q-2 19-9.5 22.5T513 327H378L326 32h206q33 0 41.5 3.5T591 58l47 105h26L635 0H157l4 26 56 6q17 2 21 8.5T248 81l99 567h-27q-89 0-138.5-60T124 409zm299 442h287l-8-47H415z" glyph-name="Emacron.alt" horiz-adv-x="732"/><glyph d="M124 409l-76 21q5 117 75 183.5T316 680h427l-29-163h-26l-10 105q-2 19-10 22.5t-39 3.5H435l-51-289h134q33 0 42 3.5t17 22.5l32 75h26l-42-234h-25l-6 75q-2 19-9.5 22.5T513 327H378L326 32h206q33 0 41.5 3.5T591 58l47 105h26L635 0h-47q-65 0-107-41.5T439-141q0-26 10.5-39t31.5-13q27 0 47.5 20.5T563-112l50-13q-22-49-55.5-73.5T479-223q-48 0-76 22.5T375-138q0 41 33 78.5T495 0H157l4 26 56 6q17 2 21 8.5T248 81l99 567h-27q-89 0-138.5-60T124 409z" glyph-name="Eogonek.alt" horiz-adv-x="732"/><glyph d="M546 227L503-19q-19-99-71.5-151.5T297-223q-57 0-90.5 27.5T176-120l62 17q-5-45 9.5-67t49.5-22q49 0 79 41.5T422-22l12 70q-29-25-65.5-37.5T291-2Q173-2 118 86.5T88 323l9 59q24 146 104 227t200 81q108 0 161.5-61.5T590 480l-90-21q27 97 1.5 148T399 658q-79 0-129-57t-69-169l-27-159q-20-123 9.5-183T295 30q50 0 88.5 20t61.5 59l20 118q6 35 4.5 41.5T452 276l-74 5 4 27h255l-4-27-56-5q-17-2-21-9.5T546 227zM432 828q47 0 77.5 23.5T561 927l29-9q-26-80-64.5-117T429 764q-59 0-89.5 38.5T306 918l29 9q6-52 29-75.5t68-23.5z" glyph-name="Gbreve.alt" horiz-adv-x="649"/><glyph d="M546 227L503-19q-19-99-71.5-151.5T297-223q-57 0-90.5 27.5T176-120l62 17q-5-45 9.5-67t49.5-22q49 0 79 41.5T422-22l12 70q-29-25-65.5-37.5T291-2Q173-2 118 86.5T88 323l9 59q24 146 104 227t200 81q108 0 161.5-61.5T590 480l-90-21q27 97 1.5 148T399 658q-79 0-129-57t-69-169l-27-159q-20-123 9.5-183T295 30q50 0 88.5 20t61.5 59l20 118q6 35 4.5 41.5T452 276l-74 5 4 27h255l-4-27-56-5q-17-2-21-9.5T546 227zm9 556l-18-19q-28 25-52.5 49.5T440 863q-33-27-64.5-51.5T311 764l-17 21q46 42 68.5 68.5T416 925h66q15-45 28.5-72t44.5-70z" glyph-name="Gcircumflex.alt" horiz-adv-x="649"/><glyph d="M546 227L503-19q-19-99-71.5-151.5T297-223q-57 0-90.5 27.5T176-120l62 17q-5-45 9.5-67t49.5-22q49 0 79 41.5T422-22l12 70q-29-25-65.5-37.5T291-2Q173-2 118 86.5T88 323l9 59q24 146 104 227t200 81q108 0 161.5-61.5T590 480l-90-21q27 97 1.5 148T399 658q-79 0-129-57t-69-169l-27-159q-20-123 9.5-183T295 30q50 0 88.5 20t61.5 59l20 118q6 35 4.5 41.5T452 276l-74 5 4 27h255l-4-27-56-5q-17-2-21-9.5T546 227zm-56 627q0-26-17-43.5T429 793q-23 0-36 13t-13 35q0 26 17 43t43 17q23 0 36.5-12.5T490 854z" glyph-name="Gdotaccent.alt" horiz-adv-x="649"/><glyph d="M124 409l-76 21q5 117 75 183.5T316 680h201l-4-27-56-5q-17-2-21-9t-10-40l-42-240h302l42 240q6 33 4.5 40t-17.5 9l-54 5 4 27h241l-4-27-56-5q-17-2-21-9t-10-40L724 81q-6-34-4.5-40.5T737 32l54-6-4-26H546l4 26 56 6q17 2 21 8.5T637 81l43 246H378L335 81q-6-34-4.5-40.5T348 32l54-6-4-26H157l4 26 56 6q17 2 21 8.5T248 81l99 567h-27q-89 0-138.5-60T124 409zm607 374l-18-19q-28 25-52.5 49.5T616 863q-33-27-64.5-51.5T487 764l-17 21q46 42 68.5 68.5T592 925h66q15-45 28.5-72t44.5-70z" glyph-name="Hcircumflex.alt" horiz-adv-x="879"/><glyph d="M138 409l-76 21q5 117 75 183.5T329 680h212l-5-27-55-5q-17-2-21-9t-10-40l-71-405q-17-97-72-150.5T167-10Q98-10 63 27T32 134l66 19q-8-65 8-98t57-33q50 0 81.5 41.5T291 190l80 458h-37q-89 0-138.5-60T138 409zm424 374l-18-19q-28 25-52.5 49.5T447 863q-33-27-64.5-51.5T318 764l-17 21q46 42 68.5 68.5T423 925h66q15-45 28.5-72t44.5-70z" glyph-name="Jcircumflex.alt" horiz-adv-x="501"/><glyph d="M124 409l-76 21q5 117 75 183.5T316 680h202l-5-26-56-6q-17-2-21.5-10t-9.5-39l-49-279 290 285q27 26 31 33.5t-13 9.5l-51 6 5 26h196l-5-26-52-6q-14-1-21.5-6T717 605L526 417 659 81q12-31 18-39t23-10l47-6-4-26H592L459 352l-92-91-32-180q-6-33-4.5-40t17.5-9l54-6-4-26H157l4 26 56 6q17 2 21 8.5T248 81l100 567h-28q-89 0-138.5-60T124 409zm237-651l-18 16q24 36 38 70.5T405-77h88q-25-48-55.5-86T361-242z" glyph-name="Kcommaaccent.alt" horiz-adv-x="796"/><glyph d="M124 409l-76 21q5 117 75 183.5T316 680h201l-4-27-56-5q-17-2-21-9t-10-40L327 32h181q33 0 41.5 3.5T566 58l48 107h27L611 0H157l4 26 56 6q17 2 21 8.5T248 81l99 567h-27q-89 0-138.5-60T124 409zm290 355l-19 22q32 35 51.5 66t37.5 73h101q-38-46-78.5-84T414 764z" glyph-name="Lacute.alt" horiz-adv-x="667"/><glyph d="M124 409l-76 21q5 117 75 183.5T316 680h201l-4-27-56-5q-17-2-21-9t-10-40L327 32h181q33 0 41.5 3.5T566 58l48 107h27L611 0H157l4 26 56 6q17 2 21 8.5T248 81l99 567h-27q-89 0-138.5-60T124 409zm447 57h-21l37 214h82q-24-59-47.5-110.5T571 466z" glyph-name="Lcaron.alt" horiz-adv-x="667"/><glyph d="M124 409l-76 21q5 117 75 183.5T316 680h201l-4-27-56-5q-17-2-21-9t-10-40L327 32h181q33 0 41.5 3.5T566 58l48 107h27L611 0H157l4 26 56 6q17 2 21 8.5T248 81l99 567h-27q-89 0-138.5-60T124 409zm188-651l-18 16q24 36 38 70.5T356-77h88q-25-48-55.5-86T312-242z" glyph-name="Lcommaaccent.alt" horiz-adv-x="667"/><glyph d="M124 409l-76 21q5 117 75 183.5T316 680h127l229-534 80 453q6 33 4.5 40t-17.5 9l-54 5 5 27h191l-5-27-56-5q-17-2-21-9.5T789 599L684 0h-41L379 615 285 81q-6-33-4.5-40t17.5-9l54-6-4-26H157l4 26 56 6q17 2 21 8.5T248 81l100 567h-28q-89 0-138.5-60T124 409zm555 365q-20 0-37.5 10T598 825q-21 24-32 31t-22 7q-19 0-33.5-20T487 785h-31q13 69 38 104t61 35q20 0 37.5-10t43.5-41q20-24 30.5-31t21.5-7q18 0 32.5 20t23.5 58h32q-13-69-37.5-104T679 774z" glyph-name="Ntilde.alt" horiz-adv-x="844"/><glyph d="M124 409l-76 21q5 117 75 183.5T316 680h127l229-534 80 453q6 33 4.5 40t-17.5 9l-54 5 5 27h191l-5-27-56-5q-17-2-21-9.5T789 599L684 0h-41L379 615 285 81q-6-33-4.5-40t17.5-9l54-6-4-26H157l4 26 56 6q17 2 21 8.5T248 81l100 567h-28q-89 0-138.5-60T124 409zm476 355l-19 22q32 35 51.5 66t37.5 73h101q-38-46-78.5-84T600 764z" glyph-name="Nacute.alt" horiz-adv-x="844"/><glyph d="M124 409l-76 21q5 117 75 183.5T316 680h127l229-534 80 453q6 33 4.5 40t-17.5 9l-54 5 5 27h191l-5-27-56-5q-17-2-21-9.5T789 599L684 0h-41L379 615 285 81q-6-33-4.5-40t17.5-9l54-6-4-26H157l4 26 56 6q17 2 21 8.5T248 81l100 567h-28q-89 0-138.5-60T124 409zm616 520l17-21q-45-42-68-68t-54-71h-66q-15 44-28.5 71T496 910l18 19q31-27 55-51.5t42-47.5q28 24 59.5 48.5T740 929z" glyph-name="Ncaron.alt" horiz-adv-x="844"/><glyph d="M124 409l-76 21q5 117 75 183.5T316 680h127l229-534 80 453q6 33 4.5 40t-17.5 9l-54 5 5 27h191l-5-27-56-5q-17-2-21-9.5T789 599L684 0h-41L379 615 285 81q-6-33-4.5-40t17.5-9l54-6-4-26H157l4 26 56 6q17 2 21 8.5T248 81l100 567h-28q-89 0-138.5-60T124 409zm233-651l-18 16q24 36 38 70.5T401-77h88q-25-48-55.5-86T357-242z" glyph-name="Ncommaaccent.alt" horiz-adv-x="844"/><glyph d="M124 409l-76 21q5 117 75 183.5T316 680h127l229-534 80 453q6 33 4.5 40t-17.5 9l-54 5 5 27h191l-5-27-56-5q-17-2-21-9.5T789 599L680-19q-18-99-70.5-151.5T475-223q-62 0-95.5 36.5T352-84l63 17q-11-60 4.5-92t53.5-32q47 0 77 41.5T595-22l16 96-232 541-94-534q-6-33-4.5-40t17.5-9l54-6-4-26H157l4 26 56 6q17 2 21 8.5T248 81l100 567h-28q-89 0-138.5-60T124 409z" glyph-name="Eng.alt" horiz-adv-x="844"/><glyph d="M124 409l-76 21q5 117 75 183.5T316 680h232q95 0 143.5-49.5T727 502l-6-30q-10-64-50.5-104T564 314l87-233q6-16 8-22t4-10q4-9 8-12.5t17-4.5l44-6-4-26H582L478 308H375L335 81q-6-33-4.5-40t17.5-9l54-6-4-26H157l4 26 56 6q17 2 21 8.5T248 81l100 567h-28q-89 0-138.5-60T124 409zm425 239H435l-54-308h113q53 0 89 34t46 94l6 38q12 67-11 104.5T549 648zm-7 116l-19 22q32 35 51.5 66t37.5 73h101q-38-46-78.5-84T542 764z" glyph-name="Racute.alt" horiz-adv-x="777"/><glyph d="M124 409l-76 21q5 117 75 183.5T316 680h232q95 0 143.5-49.5T727 502l-6-30q-10-64-50.5-104T564 314l87-233q6-16 8-22t4-10q4-9 8-12.5t17-4.5l44-6-4-26H582L478 308H375L335 81q-6-33-4.5-40t17.5-9l54-6-4-26H157l4 26 56 6q17 2 21 8.5T248 81l100 567h-28q-89 0-138.5-60T124 409zm425 239H435l-54-308h113q53 0 89 34t46 94l6 38q12 67-11 104.5T549 648zm133 281l17-21q-45-42-68-68t-54-71h-66q-15 44-28.5 71T438 910l18 19q31-27 55-51.5t42-47.5q28 24 59.5 48.5T682 929z" glyph-name="Rcaron.alt" horiz-adv-x="777"/><glyph d="M124 409l-76 21q5 117 75 183.5T316 680h232q95 0 143.5-49.5T727 502l-6-30q-10-64-50.5-104T564 314l87-233q6-16 8-22t4-10q4-9 8-12.5t17-4.5l44-6-4-26H582L478 308H375L335 81q-6-33-4.5-40t17.5-9l54-6-4-26H157l4 26 56 6q17 2 21 8.5T248 81l100 567h-28q-89 0-138.5-60T124 409zm425 239H435l-54-308h113q53 0 89 34t46 94l6 38q12 67-11 104.5T549 648zM355-242l-18 16q24 36 38 70.5T399-77h88q-25-48-55.5-86T355-242z" glyph-name="Rcommaaccent.alt" horiz-adv-x="777"/><glyph d="M47-28L-28-7q3 93 64 146t167 53h71q-4-85 31.5-127.5T419 22q79 0 122.5 36.5T585 161q0 47-24.5 76.5T478 291l-74 29q-63 25-94.5 68.5T278 494q0 89 60.5 142.5T504 690q49 0 88.5-13.5T659 637q30-30 39-71t-5-83l-88-18q29 93 1.5 143T499 658q-67 0-104.5-35T357 524q0-48 24-78t78-51l74-30q67-26 99-67t32-101q0-92-67-149.5T417-10q-95 0-148 43t-58 127h-4q-76 0-115-46T47-28zm619 957l17-21q-45-42-68-68t-54-71h-66q-15 44-28.5 71T422 910l18 19q31-27 55-51.5t42-47.5q28 24 59.5 48.5T666 929z" glyph-name="Scaron.alt" horiz-adv-x="727"/><glyph d="M47-28L-28-7q3 93 64 146t167 53h71q-4-85 31.5-127.5T419 22q79 0 122.5 36.5T585 161q0 47-24.5 76.5T478 291l-74 29q-63 25-94.5 68.5T278 494q0 89 60.5 142.5T504 690q49 0 88.5-13.5T659 637q30-30 39-71t-5-83l-88-18q29 93 1.5 143T499 658q-67 0-104.5-35T357 524q0-48 24-78t78-51l74-30q67-26 99-67t32-101q0-92-67-149.5T417-10q-95 0-148 43t-58 127h-4q-76 0-115-46T47-28zm479 792l-19 22q32 35 51.5 66t37.5 73h101q-38-46-78.5-84T526 764z" glyph-name="Sacute.alt" horiz-adv-x="727"/><glyph d="M480-133q0-39-33.5-64.5T361-223q-46 0-73 20.5T260-145l51 14q-2-33 8.5-48.5T356-195q26 0 42.5 18t16.5 46q0 24-11.5 34.5T366-86q-1 0-7-1t-17-2l-5 26 33 56Q296 3 256 45t-45 115h-4q-76 0-115-46T47-28L-28-7q3 93 64 146t167 53h71q-4-85 31.5-127.5T419 22q79 0 122.5 36.5T585 161q0 47-24.5 76.5T478 291l-74 29q-63 25-94.5 68.5T278 494q0 89 60.5 142.5T504 690q49 0 88.5-13.5T659 637q30-30 39-71t-5-83l-88-18q29 93 1.5 143T499 658q-67 0-104.5-35T357 524q0-48 24-78t78-51l74-30q67-26 99-67t32-101q0-92-67-149.5T417-10h-14l-28-48q48 0 76.5-20.5T480-133z" glyph-name="Scedilla.alt" horiz-adv-x="727"/><glyph d="M47-28L-28-7q3 93 64 146t167 53h71q-4-85 31.5-127.5T419 22q79 0 122.5 36.5T585 161q0 47-24.5 76.5T478 291l-74 29q-63 25-94.5 68.5T278 494q0 89 60.5 142.5T504 690q49 0 88.5-13.5T659 637q30-30 39-71t-5-83l-88-18q29 93 1.5 143T499 658q-67 0-104.5-35T357 524q0-48 24-78t78-51l74-30q67-26 99-67t32-101q0-92-67-149.5T417-10q-95 0-148 43t-58 127h-4q-76 0-115-46T47-28zm614 811l-18-19q-28 25-52.5 49.5T546 863q-33-27-64.5-51.5T417 764l-17 21q46 42 68.5 68.5T522 925h66q15-45 28.5-72t44.5-70z" glyph-name="Scircumflex.alt" horiz-adv-x="727"/></font>
</defs>
</svg>
